<?xml version="1.0" encoding="UTF-8"?>
<svg version="1.1" xmlns="http://www.w3.org/2000/svg" width="1536" height="1024">
<path d="M0 0 C506.88 0 1013.76 0 1536 0 C1536 337.92 1536 675.84 1536 1024 C1029.12 1024 522.24 1024 0 1024 C0 686.08 0 348.16 0 0 Z " fill="#FEFDFE" transform="translate(0,0)"/>
<path d="M0 0 C1.82988325 1.37814032 1.82988325 1.37814032 3.91796875 1.078125 C6.34799249 -0.00662244 7.98013938 -1.37201731 9.984375 -3.12890625 C35.39059535 -23.86867796 67.71332064 -37.30951622 99.921875 -42.81640625 C100.91888428 -42.98994629 100.91888428 -42.98994629 101.93603516 -43.16699219 C140.54630886 -49.50332637 181.99897034 -43.25838339 216.921875 -25.81640625 C217.69192871 -25.4414502 218.46198242 -25.06649414 219.25537109 -24.68017578 C232.42508689 -18.23884606 245.24650044 -10.79454368 256.15234375 -0.8984375 C258.60806596 1.34791787 258.60806596 1.34791787 260.890625 1.296875 C263.95991291 -0.38533087 266.66576839 -2.48906052 269.421875 -4.62890625 C295.84647117 -24.47439753 326.26213271 -37.66843619 358.921875 -42.81640625 C360.0361084 -42.99212158 360.0361084 -42.99212158 361.17285156 -43.17138672 C411.33804151 -50.68388624 462.56954265 -37.9084516 503.921875 -8.81640625 C507.48121478 -6.13334408 510.94413599 -3.35309681 514.35546875 -0.484375 C516.70330909 1.37974963 516.70330909 1.37974963 519.0078125 1.15625 C521.35339882 -0.03569081 523.1188466 -1.46510728 525.109375 -3.19140625 C536.94670641 -12.89071745 550.08185518 -20.38957808 563.921875 -26.81640625 C564.55915527 -27.12030273 565.19643555 -27.42419922 565.85302734 -27.73730469 C603.59255335 -45.6829712 646.09914511 -48.82636997 686.921875 -41.81640625 C687.6938623 -41.69313965 688.46584961 -41.56987305 689.26123047 -41.44287109 C735.95147945 -33.76902819 782.16471216 -3.19171716 809.86328125 34.8125 C834.70034425 69.8696735 848.07842783 110.38591729 848.234375 153.37109375 C848.23699341 154.0679126 848.23961182 154.76473145 848.24230957 155.48266602 C848.24758686 168.7015278 846.71889481 181.25181886 843.921875 194.18359375 C843.6526491 195.5675148 843.38433185 196.95161313 843.1171875 198.3359375 C836.52685296 228.74562401 820.24597162 258.76591782 799.921875 282.18359375 C799.20386719 283.01246094 798.48585938 283.84132813 797.74609375 284.6953125 C795.5078324 287.22776806 793.22795994 289.71278846 790.921875 292.18359375 C790.12523437 293.04597656 789.32859375 293.90835937 788.5078125 294.796875 C760.83455221 323.68240803 721.13443722 342.79677057 681.921875 349.18359375 C680.93171387 349.36059814 679.94155273 349.53760254 678.92138672 349.7199707 C669.25132419 351.30803163 659.74677693 351.52293508 649.96508789 351.49926758 C647.25560796 351.49611843 644.54723579 351.51961926 641.83789062 351.54492188 C626.76049038 351.59986705 611.98684248 349.96983698 597.421875 345.93359375 C596.649646 345.72307373 595.87741699 345.51255371 595.08178711 345.2956543 C566.76555863 337.33663751 541.79609067 323.52274753 518.921875 305.18359375 C516.15012204 306.48924831 513.76512252 307.94285562 511.33203125 309.80078125 C485.73473285 329.01591942 458.54771894 341.32114245 427.421875 348.49609375 C426.74116943 348.65561523 426.06046387 348.81513672 425.35913086 348.97949219 C394.31357814 355.74166811 357.68137742 352.47294171 327.921875 342.18359375 C326.92800781 341.84739014 326.92800781 341.84739014 325.9140625 341.50439453 C316.09953887 338.14841481 306.86057425 333.93205335 297.68505859 329.10791016 C296.14273513 328.29937559 294.58975958 327.51122697 293.03515625 326.7265625 C287.31457041 323.7593827 281.98797817 320.31191944 276.671875 316.68359375 C276.00994141 316.23266357 275.34800781 315.7817334 274.66601562 315.31713867 C270.17521046 312.19846141 266.00714718 308.81565109 261.921875 305.18359375 C258.16756243 306.49858939 255.60560701 308.08650454 252.609375 310.68359375 C235.47749229 324.68221178 214.73359936 334.9607847 193.921875 342.18359375 C193.26106934 342.41916992 192.60026367 342.65474609 191.91943359 342.89746094 C147.30030808 358.52474397 92.54073162 354.51827804 50.15234375 334.2734375 C48.74070375 333.57983456 47.33054353 332.88321186 45.921875 332.18359375 C45.2098291 331.83570801 44.4977832 331.48782227 43.76416016 331.12939453 C29.42120534 324.06620853 16.31867426 315.27321092 3.921875 305.18359375 C-0.10451088 306.93202434 -3.41726504 309.61405378 -6.890625 312.24609375 C-37.82148895 335.24112211 -76.66621472 351.02078553 -115.546875 351.421875 C-116.33616898 351.43175949 -117.12546295 351.44164398 -117.93867493 351.451828 C-165.0143166 351.91940283 -209.95562658 339.93669085 -247.49072266 310.42871094 C-248.90455197 309.31973993 -250.33960073 308.23794335 -251.77734375 307.16015625 C-272.90606643 290.7878229 -289.99106093 269.95986304 -302.078125 246.18359375 C-302.45275879 245.45736816 -302.82739258 244.73114258 -303.21337891 243.98291016 C-309.4573705 231.76958936 -314.05237829 219.28004343 -318.078125 206.18359375 C-318.3366626 205.38526123 -318.5952002 204.58692871 -318.86157227 203.7644043 C-324.88011423 184.7571853 -325.75749727 164.95931082 -325.078125 145.18359375 C-325.04535965 143.66016082 -325.01278832 142.1367237 -324.98046875 140.61328125 C-324.09024252 111.29744664 -314.59645482 81.54371828 -300.078125 56.18359375 C-299.67094238 55.47074219 -299.26375977 54.75789063 -298.84423828 54.0234375 C-290.31283542 39.32275761 -279.76697395 26.46587657 -268.078125 14.18359375 C-267.42585938 13.47847656 -266.77359375 12.77335937 -266.1015625 12.046875 C-260.52969533 6.20234199 -254.18796854 1.34782032 -247.77392578 -3.52636719 C-246.27296306 -4.66818795 -244.78217546 -5.82335722 -243.29296875 -6.98046875 C-218.23717998 -25.95182013 -186.97545036 -38.05898296 -156.078125 -42.81640625 C-154.97041748 -42.98994629 -154.97041748 -42.98994629 -153.84033203 -43.16699219 C-100.04712527 -51.22939409 -41.26372639 -36.06697889 0 0 Z " fill="#1A1A19" transform="translate(509.078125,347.81640625)"/>
<path d="M0 0 C21.81826615 20.65942051 35.92139191 48.90275511 42.6328125 77.89453125 C42.79652344 78.56645508 42.96023438 79.23837891 43.12890625 79.93066406 C48.03507659 100.72106773 47.57748726 125.14289083 42.6328125 145.89453125 C42.33479736 147.14919189 42.33479736 147.14919189 42.03076172 148.42919922 C34.75455462 177.9973067 20.4401228 202.84390188 -0.3671875 224.89453125 C-1.11097656 225.70277344 -1.85476563 226.51101563 -2.62109375 227.34375 C-28.62470573 254.63254873 -69.00947748 271.71922064 -106.49316406 273.00146484 C-146.48139267 273.75086943 -185.80964511 265.11909361 -217.3671875 238.89453125 C-218.3571875 237.40953125 -218.3571875 237.40953125 -219.3671875 235.89453125 C-218.71234375 235.05535156 -218.0575 234.21617187 -217.3828125 233.3515625 C-203.61872633 215.3600267 -193.08686493 195.58110764 -186.06616211 174.03857422 C-185.43830039 172.11266376 -184.7815073 170.19624227 -184.12109375 168.28125 C-168.79357678 120.69056617 -175.32952999 67.72733724 -197.55322266 23.53613281 C-206.6726608 5.94425018 -206.6726608 5.94425018 -219.3671875 -9.10546875 C-217.85979801 -13.54615672 -214.38246286 -15.44813842 -210.6171875 -17.85546875 C-209.94324951 -18.2922998 -209.26931152 -18.72913086 -208.57495117 -19.17919922 C-206.51459135 -20.50263147 -204.44314716 -21.80667354 -202.3671875 -23.10546875 C-201.78855957 -23.4725293 -201.20993164 -23.83958984 -200.61376953 -24.21777344 C-135.54572718 -65.10447343 -54.96719539 -48.88996421 0 0 Z " fill="#FDFDFD" transform="translate(1273.3671875,388.10546875)"/>
<path d="M0 0 C-1.51280934 3.30831537 -3.43617771 6.0379645 -5.625 8.9375 C-34.95212061 48.95790286 -48.75923286 100.33652508 -41.75 149.64453125 C-41.50586309 151.09735159 -41.25529419 152.54909867 -41 154 C-40.84402344 154.90282715 -40.68804687 155.8056543 -40.52734375 156.73583984 C-35.12533059 187.09215266 -23.06382073 214.97442344 -5 240 C-4.05037032 241.33043595 -3.10113194 242.66115131 -2.15234375 243.9921875 C-1.44207031 244.98476563 -0.73179687 245.97734375 0 247 C-3.02924394 251.23192143 -6.48929222 254.01499896 -10.8125 256.8125 C-11.47338623 257.24409424 -12.13427246 257.67568848 -12.81518555 258.12036133 C-31.19193745 269.94098863 -50.62419305 277.5212595 -72 282 C-73.18078125 282.2475 -74.3615625 282.495 -75.578125 282.75 C-101.98924504 287.17232708 -130.9685889 284.55744788 -156 275 C-156.79438477 274.6999707 -157.58876953 274.39994141 -158.40722656 274.09082031 C-175.80683889 267.3915397 -191.94412425 258.34909083 -206 246 C-206.825 245.28328125 -207.65 244.5665625 -208.5 243.828125 C-211.03468385 241.58709354 -213.52348366 239.30503454 -216 237 C-216.72832031 236.33742188 -217.45664062 235.67484375 -218.20703125 234.9921875 C-229.9183013 223.89285769 -238.68112487 210.27953638 -246 196 C-246.55300781 194.92363281 -247.10601562 193.84726562 -247.67578125 192.73828125 C-262.63724447 161.92617224 -268.87556714 123.51662955 -260 90 C-259.80132324 89.19771973 -259.60264648 88.39543945 -259.39794922 87.56884766 C-253.333553 63.27037923 -242.81463576 40.77776582 -226 22 C-225.57219238 21.51337891 -225.14438477 21.02675781 -224.70361328 20.52539062 C-196.93450104 -11.03360046 -157.13867559 -32.93132283 -114.72265625 -35.83203125 C-72.3184083 -37.74533939 -33.36165098 -26.53665643 0 0 Z " fill="#FDFDFD" transform="translate(485,377)"/>
<path d="M0 0 C0.89122559 0.18304688 1.78245117 0.36609375 2.70068359 0.5546875 C17.19020707 3.58102472 30.67068623 7.53730241 44 14 C45.00812744 14.48339844 45.00812744 14.48339844 46.03662109 14.9765625 C69.14687767 26.2203165 69.14687767 26.2203165 75 35 C73.80117188 36.56621094 73.80117188 36.56621094 72.578125 38.1640625 C40.18517079 81.26686886 26.23576842 133.05345928 33.66650391 186.62792969 C34.08686327 189.42315579 34.535807 192.2117508 35 195 C35.1232666 195.77923828 35.2465332 196.55847656 35.37353516 197.36132812 C40.28450848 227.20847523 55.27609617 255.77623221 73.84375 279.33984375 C75 281 75 281 75 283 C52.7313527 301.03469549 24.36242724 313.20789647 -4 317 C-4.96534668 317.13704346 -4.96534668 317.13704346 -5.95019531 317.27685547 C-24.0251512 319.6079015 -43.22177912 319.05129405 -61 315 C-61.72622559 314.83902832 -62.45245117 314.67805664 -63.20068359 314.51220703 C-84.03908006 309.73511592 -112.53686074 299.61992319 -127 283 C-127 278.20922286 -125.33604085 276.30518396 -122.5625 272.6875 C-106.20443145 250.49370577 -94.45478929 225.08051423 -89 198 C-88.62516646 196.52079114 -88.2501786 195.04162138 -87.875 193.5625 C-85.38332578 181.9685022 -85.78651288 169.65168459 -85.75976562 157.84277344 C-85.75006497 155.26724872 -85.71891855 152.69252639 -85.6875 150.1171875 C-85.56708904 131.15597021 -88.33622528 111.46627726 -96 94 C-96.74341768 91.85906215 -97.47237042 89.71305212 -98.1875 87.5625 C-104.77180466 69.06001775 -115.03951159 50.78015584 -128 36 C-126.47925583 31.86282022 -123.54972716 29.81601039 -120.0625 27.375 C-119.14247192 26.72857544 -119.14247192 26.72857544 -118.20385742 26.0690918 C-98.3488436 12.49522279 -76.411187 4.79416734 -53 0 C-51.82566406 -0.2475 -50.65132812 -0.495 -49.44140625 -0.75 C-33.62847982 -3.53710086 -15.69331694 -3.33422873 0 0 Z " fill="#FDFCFD" transform="translate(925,343)"/>
<path d="M0 0 C1.2684375 0.18304688 2.536875 0.36609375 3.84375 0.5546875 C30.54713924 4.88063656 54.80469403 17.5424683 76 34 C72.89246131 38.76724686 69.69843375 43.40967845 66.25 47.9375 C46.34668309 75.27138856 33.16361606 111.55585515 32.7265625 145.45703125 C32.71389847 146.34932938 32.70123444 147.2416275 32.68818665 148.16096497 C32.12157428 197.7442485 44.60183338 241.98610786 76 281 C51.7398585 305.98242242 11.90292833 317.73232835 -22.0065918 318.3515625 C-61.6039644 318.58765639 -96.86209307 306.52762501 -128 282 C-127.20833333 280.8125 -126.41666667 279.625 -125.625 278.4375 C-125.07585938 277.60863281 -124.52671875 276.77976562 -123.9609375 275.92578125 C-122.56830775 273.84793327 -121.15457676 271.78415936 -119.7265625 269.73046875 C-104.2788252 247.38127593 -93.42455693 222.90974568 -88.56982422 196.12109375 C-88.14343595 193.78564061 -87.68696041 191.45564539 -87.21533203 189.12890625 C-85.19823118 178.93033114 -84.51184941 169.13303688 -84.625 158.75 C-84.62932037 157.99097382 -84.63364075 157.23194763 -84.63809204 156.44992065 C-84.72010676 144.104198 -85.44574042 132.11010671 -88 120 C-88.16628906 119.18644043 -88.33257813 118.37288086 -88.50390625 117.53466797 C-94.41110668 89.44811775 -106.6797745 63.57942216 -123.82080078 40.63574219 C-125.35721557 38.50448358 -126.70135915 36.28245967 -128 34 C-90.82631895 5.67719539 -46.6072122 -7.48367838 0 0 Z " fill="#FDFDFD" transform="translate(667,343)"/>
<path d="M0 0 C0.66 0 1.32 0 2 0 C3.6088936 2.06990349 5.06503273 4.12478551 6.5 6.3125 C6.93997314 6.9818457 7.37994629 7.65119141 7.83325195 8.34082031 C29.83754306 42.48716294 40.24360087 83.32823285 32.55175781 123.77856445 C27.07014992 148.47278821 17.01324444 171.63828722 2 192 C-9.25660312 187.3606191 -17.10692686 166.71335295 -21.6875 155.9375 C-37.17110501 117.94808524 -37.51152307 74.71237295 -21.890625 36.7578125 C-16.34995866 23.81750408 -9.82594175 10.27740394 0 0 Z " fill="#FBFBFB" transform="translate(769,405)"/>
<path d="M0 0 C3.09456239 1.32752954 4.68710425 2.53151993 6.515625 5.3515625 C7.17921021 6.36778687 7.17921021 6.36778687 7.85620117 7.40454102 C8.31615479 8.13729248 8.7761084 8.87004395 9.25 9.625 C9.9757019 10.77343384 9.9757019 10.77343384 10.71606445 11.94506836 C31.89200774 45.98146372 41.12286681 87.50790814 32 127 C26.14856356 151.07242212 16.89107699 172.19608819 2 192 C-2.08552 190.63816 -3.43272317 187.89698422 -5.6875 184.4375 C-6.12739258 183.76710693 -6.56728516 183.09671387 -7.02050781 182.40600586 C-14.77176164 170.34616462 -20.32581728 157.52034922 -25 144 C-25.37451294 142.95090454 -25.37451294 142.95090454 -25.7565918 141.88061523 C-30.99359028 126.8430189 -32.38545555 111.32947445 -32.375 95.5 C-32.37653076 94.19023193 -32.37806152 92.88046387 -32.37963867 91.53100586 C-32.00104086 57.96270472 -20.25474996 26.61162533 0 0 Z " fill="#FBFBFB" transform="translate(511,405)"/>
<path d="M0 0 C4.06713256 1.35571085 5.38615567 4.0538593 7.625 7.5 C8.06231445 8.16781494 8.49962891 8.83562988 8.95019531 9.52368164 C20.04092233 26.76148609 27.89472466 44.89072469 32 65 C32.17877686 65.84296631 32.35755371 66.68593262 32.54174805 67.55444336 C34.23146887 76.38238794 34.35720356 85.11306233 34.3125 94.0625 C34.30926727 95.22460495 34.30926727 95.22460495 34.30596924 96.41018677 C34.25352847 108.15798026 33.85756739 119.54902342 31 131 C30.80664062 131.78761719 30.61328125 132.57523438 30.4140625 133.38671875 C25.05557804 154.45680887 15.95676634 175.16884242 2 192 C-1.33339958 190.61149185 -2.84580556 189.21184363 -4.76953125 186.17578125 C-5.26235596 185.40242432 -5.75518066 184.62906738 -6.26293945 183.83227539 C-6.77429443 183.00074951 -7.28564941 182.16922363 -7.8125 181.3125 C-8.34512451 180.45325928 -8.87774902 179.59401855 -9.42651367 178.70874023 C-22.99942656 156.45890966 -32.25321848 130.23070087 -33 104 C-33.02578125 103.2570166 -33.0515625 102.5140332 -33.078125 101.74853516 C-33.46986959 89.16129176 -32.7185201 77.30023319 -30 65 C-29.83371094 64.23478027 -29.66742187 63.46956055 -29.49609375 62.68115234 C-24.37030668 39.77173179 -14.41214998 18.53551714 0 0 Z " fill="#FBFBFB" transform="translate(1026,405)"/>
<path d="M0 0 C0.75 1.6875 0.75 1.6875 1 4 C-0.9375 6.75 -0.9375 6.75 -3 9 C-3.33 8.01 -3.66 7.02 -4 6 C-2.0625 2.8125 -2.0625 2.8125 0 0 Z " fill="#212121" transform="translate(1042,575)"/>
<path d="M0 0 C0.66 0 1.32 0 2 0 C2.625 1.8125 2.625 1.8125 3 4 C2.01 5.485 2.01 5.485 1 7 C0.34 7 -0.32 7 -1 7 C-0.67 4.69 -0.34 2.38 0 0 Z " fill="#2B2B2B" transform="translate(1054,543)"/>
<path d="M0 0 C0.99 0.33 1.98 0.66 3 1 C0.03 3.475 0.03 3.475 -3 6 C-3 3 -3 3 -1.5 1.3125 C-0.7575 0.6628125 -0.7575 0.6628125 0 0 Z " fill="#262626" transform="translate(249,354)"/>
</svg>
