<?xml version="1.0" standalone="no"?>
<!DOCTYPE svg PUBLIC "-//W3C//DTD SVG 20010904//EN"
 "http://www.w3.org/TR/2001/REC-SVG-20010904/DTD/svg10.dtd">
<svg version="1.0" xmlns="http://www.w3.org/2000/svg"
 width="1254.000000pt" height="1254.000000pt" viewBox="0 0 1254.000000 1254.000000"
 preserveAspectRatio="xMidYMid meet">

<g transform="translate(0.000000,1254.000000) scale(0.100000,-0.100000)"
fill="#000000" stroke="none">
<path d="M6172 10970 c-920 -61 -1781 -387 -2482 -939 -896 -705 -1498 -1716
-1695 -2843 -40 -231 -56 -397 -62 -665 l-6 -253 -306 0 -306 0 -225 -417
c-123 -230 -257 -478 -297 -552 -40 -73 -73 -135 -73 -137 0 -2 312 -4 693 -4
l693 0 18 -68 c42 -159 163 -465 272 -687 360 -739 941 -1390 1637 -1834 183
-117 283 -173 492 -276 936 -460 1979 -579 2955 -339 700 173 1342 501 1886
964 135 116 391 371 506 505 582 679 956 1518 1068 2400 220 1724 -560 3440
-2000 4405 -522 350 -1131 588 -1764 690 -289 47 -726 68 -1004 50z m618
-1071 c771 -79 1486 -404 2042 -927 l56 -53 -60 -107 c-34 -59 -179 -314 -323
-567 -144 -253 -360 -633 -480 -845 -307 -542 -744 -1311 -762 -1338 l-14 -23
-28 35 c-43 54 -110 106 -177 138 -98 46 -193 59 -413 56 l-194 -3 -137 -240
c-75 -132 -216 -379 -313 -550 l-176 -310 282 -5 c199 -4 291 -9 312 -18 53
-23 95 -62 120 -112 33 -64 35 -182 5 -270 -16 -48 -146 -282 -466 -837 l-25
-43 618 0 618 0 101 178 c93 162 265 461 731 1272 209 363 398 693 598 1040
336 584 657 1143 740 1285 48 83 101 174 118 204 l30 54 22 -44 c90 -177 211
-538 260 -779 56 -266 69 -410 69 -735 0 -319 -8 -410 -60 -676 -141 -725
-532 -1422 -1079 -1922 -543 -496 -1223 -803 -1970 -888 -142 -16 -547 -16
-695 0 -496 55 -975 214 -1398 465 -213 127 -464 315 -632 474 l-75 71 406 1
406 0 176 307 c96 170 325 569 508 888 183 319 358 625 389 680 68 121 352
617 615 1075 531 926 566 986 738 1280 110 188 203 348 411 707 42 73 76 135
76 138 0 3 -291 5 -647 5 l-648 0 -86 -153 c-269 -474 -390 -687 -874 -1537
-293 -514 -540 -950 -549 -967 l-17 -33 -993 0 -993 0 -6 53 c-6 68 9 410 23
507 58 405 155 725 326 1080 92 190 142 277 256 446 120 177 238 322 388 477
300 310 595 529 963 714 444 222 879 335 1412 367 88 5 365 -3 475 -15z
m-2480 -4742 c0 -2 -55 -100 -121 -218 -67 -118 -143 -252 -169 -299 -168
-299 -258 -454 -266 -457 -13 -4 -181 224 -269 365 -115 186 -214 381 -284
560 l-21 52 565 0 c311 0 565 -2 565 -3z"/>
</g>
</svg>
