<?xml version="1.0" encoding="UTF-8"?>
<svg version="1.1" xmlns="http://www.w3.org/2000/svg" width="1536" height="1024">
<path d="M0 0 C506.88 0 1013.76 0 1536 0 C1536 337.92 1536 675.84 1536 1024 C1029.12 1024 522.24 1024 0 1024 C0 686.08 0 348.16 0 0 Z " fill="#FDFDFD" transform="translate(0,0)"/>
<path d="M0 0 C3.33354242 -0.00219939 6.66675899 -0.020512 10.00024414 -0.03930664 C47.33402814 -0.13611402 84.62646396 4.01056741 119.76782227 17.18530273 C120.99629883 17.64549805 122.22477539 18.10569336 123.49047852 18.57983398 C136.56268429 23.83477385 147.78075678 31.24910515 157.76782227 41.18530273 C158.53739258 41.92006836 159.30696289 42.65483398 160.09985352 43.41186523 C173.5426341 57.10655483 178.31757866 74.44314631 178.25830078 93.19775391 C177.44585105 123.81155123 160.43290573 153.62718732 143.26342773 178.05444336 C141.76000845 180.19643544 140.27999938 182.35316906 138.80297852 184.51342773 C131.93777811 194.48213676 124.52846954 203.90233705 116.76782227 213.18530273 C115.81980904 214.32975401 114.8718886 215.47428215 113.92407227 216.61889648 C107.91078871 223.83977007 101.62044658 230.76939347 95.20581055 237.6340332 C93.0114722 240.00123623 90.86440312 242.41095322 88.70532227 244.81030273 C83.63579704 250.3453966 78.37901842 255.68226912 73.08032227 260.99780273 C72.28424561 261.79847168 71.48816895 262.59914063 70.66796875 263.42407227 C66.39820983 267.6827386 62.04252977 271.76633287 57.47167969 275.69970703 C55.47418691 277.44132382 53.60823623 279.2791597 51.76782227 281.18530273 C48.63936263 284.35620272 45.39926874 287.31100234 42.02172852 290.21264648 C39.80797941 292.15015654 37.64539979 294.13674664 35.48901367 296.13769531 C30.28379422 300.96590507 24.95372688 305.54786731 19.42016602 310.00170898 C16.7751459 312.17927341 14.23569702 314.43849036 11.70532227 316.74780273 C7.74497145 320.35321645 3.65717907 323.71952631 -0.54858398 327.03295898 C-3.5777844 329.46249236 -6.53124186 331.97461557 -9.48217773 334.49780273 C-15.68214137 339.7825075 -22.05216666 344.82477372 -28.48364258 349.82348633 C-30.75626439 351.59347857 -33.01909965 353.37572258 -35.28173828 355.15844727 C-47.05406896 364.43095353 -58.83022569 373.70393021 -70.85327148 382.65014648 C-73.63244086 384.72559638 -76.38849801 386.83027511 -79.14233398 388.93920898 C-88.46608018 396.07941796 -97.81888414 403.13454543 -107.41870117 409.89868164 C-110.98016314 412.42545932 -114.50896989 414.99768416 -118.04467773 417.56030273 C-126.03606256 423.34249405 -134.0809887 429.04533142 -142.1496582 434.71899414 C-144.1911477 436.15641336 -146.22976445 437.59780224 -148.26733398 439.04077148 C-157.26254817 445.40909342 -166.29185302 451.7271649 -175.34716797 458.00976562 C-179.99941494 461.23758548 -184.64614287 464.47173173 -189.26733398 467.74389648 C-202.91498325 477.37621519 -216.8410652 486.56058939 -230.80480957 495.72537231 C-247.54037222 506.7105801 -264.16502518 517.85231483 -280.73706055 529.08251953 C-281.60776688 529.67202896 -282.47847321 530.26153839 -283.37556458 530.86891174 C-284.99565042 531.9661229 -286.61492198 533.06453778 -288.23320007 534.16441345 C-296.5577819 539.80386786 -296.5577819 539.80386786 -299.23217773 541.18530273 C-299.89217773 540.85530273 -300.55217773 540.52530273 -301.23217773 540.18530273 C-299.91156051 538.35675581 -298.59093321 536.52821617 -297.27026367 534.69970703 C-296.10538425 533.08670832 -294.94067477 531.47358687 -293.77612305 529.86035156 C-290.78489387 525.71713828 -287.79132872 521.57567293 -284.79077148 517.43920898 C-262.78544034 487.08713931 -242.97549811 455.76349958 -226.23217773 422.18530273 C-225.66031738 421.04544922 -225.66031738 421.04544922 -225.0769043 419.88256836 C-216.405704 402.47195774 -209.93529892 384.03974556 -205.23217773 365.18530273 C-204.9631665 364.12013428 -204.9631665 364.12013428 -204.6887207 363.03344727 C-198.24013175 336.38739103 -201.49395128 307.96695667 -215.23217773 284.18530273 C-217.67365856 280.30112869 -220.31141568 276.7203742 -223.23217773 273.18530273 C-223.89604492 272.35901367 -224.55991211 271.53272461 -225.24389648 270.68139648 C-239.52312039 253.81554791 -259.12452377 243.47818806 -279.23217773 235.18530273 C-279.88234863 234.91089355 -280.53251953 234.63648438 -281.20239258 234.35375977 C-311.29212981 221.75207494 -345.01956476 218.07028601 -377.23217773 215.18530273 C-378.06385468 215.10237976 -378.89553162 215.01945679 -379.75241089 214.934021 C-388.03827773 214.15894563 -396.2818168 214.00657922 -404.59936523 213.98217773 C-406.07093334 213.97520447 -407.54250112 213.96816346 -409.0140686 213.96105957 C-413.71177519 213.94170175 -418.40943563 213.93688146 -423.10717773 213.93530273 C-424.30514481 213.93441902 -424.30514481 213.93441902 -425.52731323 213.93351746 C-449.88458651 213.92081623 -474.0176199 214.30297658 -498.23217773 217.18530273 C-499.57576412 217.34204835 -500.91935136 217.49878659 -502.26293945 217.65551758 C-510.02631665 218.57257532 -517.77109926 219.60667349 -525.51391602 220.68237305 C-529.2070982 221.18191049 -532.90301327 221.63988561 -536.60327148 222.08374023 C-564.04760573 225.40097025 -591.47991527 229.71367988 -618.43530273 235.88842773 C-622.91089908 236.90951262 -627.40194786 237.83664309 -631.90405273 238.73217773 C-650.83047722 242.50711044 -669.53381059 246.8779979 -688.22988892 251.66227722 C-694.15258735 253.17478243 -700.09278908 254.60457037 -706.04467773 255.99780273 C-726.99127451 260.93649761 -747.67167449 266.95475746 -768.13476562 273.61230469 C-772.70817862 275.09365446 -777.29424353 276.50014591 -781.9140625 277.83073425 C-793.10942989 281.06354089 -804.14136891 284.73864241 -815.16967773 288.49780273 C-816.17532776 288.83968628 -817.18097778 289.18156982 -818.21710205 289.53381348 C-833.45347701 294.72524506 -848.57170508 300.18830724 -863.60717773 305.93530273 C-864.4915451 306.2730069 -865.37591248 306.61071106 -866.28707886 306.95864868 C-868.79913202 307.92046302 -871.3091853 308.88724827 -873.81811523 309.85717773 C-874.9026725 310.27500771 -874.9026725 310.27500771 -876.00914001 310.70127869 C-880.52612353 312.46143296 -884.90657105 314.40210485 -889.26626587 316.52496338 C-891.23217773 317.18530273 -891.23217773 317.18530273 -894.23217773 316.18530273 C-879.63368649 306.41202487 -865.00367025 296.69571572 -850.23217773 287.18530273 C-848.97002441 286.37077637 -848.97002441 286.37077637 -847.68237305 285.53979492 C-797.92618905 253.47220546 -746.35735391 223.64089655 -693.75512695 196.49536133 C-691.46988217 195.30873238 -689.19436829 194.10634854 -686.92358398 192.89233398 C-661.11365716 179.10134032 -634.82202082 166.11043854 -608.15820312 154.05651855 C-606.10060339 153.12578656 -604.04428215 152.19226574 -601.98803711 151.25854492 C-565.82305466 134.85219318 -529.37750972 119.24259819 -492.23217773 105.18530273 C-491.51797668 104.91435791 -490.80377563 104.64341309 -490.06793213 104.36425781 C-431.81991939 82.27035463 -372.79912066 62.49605803 -312.49195862 46.81782532 C-307.82127308 45.60312587 -303.15656624 44.36793056 -298.49389648 43.12280273 C-280.65510231 38.39219329 -262.72330282 34.36860526 -244.66870117 30.56158447 C-240.31567022 29.64003201 -235.97514691 28.67917242 -231.64233398 27.66577148 C-216.36239653 24.09870777 -200.98264101 21.22532303 -185.54467773 18.43530273 C-184.46159332 18.23848907 -183.37850891 18.04167542 -182.26260376 17.83889771 C-171.17281557 15.83005716 -160.12439695 13.96204871 -148.92797852 12.6706543 C-145.06023978 12.16272296 -141.24866918 11.47102528 -137.42358398 10.71655273 C-128.39032548 8.94800226 -119.30575567 7.78257659 -110.16967773 6.68530273 C-109.29310516 6.57891479 -108.41653259 6.47252686 -107.51339722 6.36291504 C-94.29536778 4.76966843 -81.06883671 3.45823531 -67.79467773 2.43530273 C-66.66882767 2.34696167 -66.66882767 2.34696167 -65.52023315 2.25683594 C-43.71541833 0.57286704 -21.86502537 -0.00160407 0 0 Z " fill="#FE8502" transform="translate(1126.232177734375,223.814697265625)"/>
<path d="M0 0 C2 2 2 2 2.4375 4 C2.87458708 6.38640738 2.87458708 6.38640738 6 8 C3.21681883 9.86715811 0.42220667 11.71643354 -2.375 13.5625 C-3.1690625 14.09552734 -3.963125 14.62855469 -4.78125 15.17773438 C-5.54179688 15.67724609 -6.30234375 16.17675781 -7.0859375 16.69140625 C-7.7876709 17.15748291 -8.4894043 17.62355957 -9.21240234 18.10375977 C-9.80230957 18.39951904 -10.3922168 18.69527832 -11 19 C-11.66 18.67 -12.32 18.34 -13 18 C-8.71 12.06 -4.42 6.12 0 0 Z " fill="#FD8F1D" transform="translate(838,746)"/>
<path d="M0 0 C-0.33 1.32 -0.66 2.64 -1 4 C0.65 4 2.3 4 4 4 C1.54323156 5.63784562 -0.38486343 6.64261119 -3.08984375 7.69140625 C-4.26643555 8.14870117 -4.26643555 8.14870117 -5.46679688 8.61523438 C-6.28212891 8.92783203 -7.09746094 9.24042969 -7.9375 9.5625 C-9.15469727 10.03719727 -9.15469727 10.03719727 -10.39648438 10.52148438 C-13.91102026 11.87943877 -17.32414587 13.14759057 -21 14 C-18.09638794 10.88409555 -15.12455671 8.66301765 -11.5 6.4375 C-8.83928707 4.79648337 -6.25512789 3.19718512 -3.78125 1.28515625 C-2 0 -2 0 0 0 Z " fill="#FD8B17" transform="translate(253,527)"/>
<path d="M0 0 C-6.48246966 4.9698934 -15.1996303 4.14445129 -23 4 C-23 3.67 -23 3.34 -23 3 C-19.73172393 2.29994196 -16.46007824 1.61713756 -13.1875 0.9375 C-11.7943457 0.63875977 -11.7943457 0.63875977 -10.37304688 0.33398438 C-9.0340332 0.05844727 -9.0340332 0.05844727 -7.66796875 -0.22265625 C-6.84578857 -0.39547119 -6.0236084 -0.56828613 -5.17651367 -0.74633789 C-3 -1 -3 -1 0 0 Z " fill="#FC9129" transform="translate(891,254)"/>
<path d="M0 0 C-0.33 0.99 -0.66 1.98 -1 3 C-5.09724467 4.54613006 -7.81857651 5.29227216 -12 4 C-10.3767313 3.3291288 -8.75132422 2.66342971 -7.125 2 C-6.22007812 1.62875 -5.31515625 1.2575 -4.3828125 0.875 C-2 0 -2 0 0 0 Z " fill="#FB8E23" transform="translate(565,358)"/>
<path d="M0 0 C-0.33 0.99 -0.66 1.98 -1 3 C-7.0546875 3.9765625 -7.0546875 3.9765625 -9 4 C-9.66 3.34 -10.32 2.68 -11 2 C-3.375 0 -3.375 0 0 0 Z " fill="#FB8F25" transform="translate(823,269)"/>
<path d="M0 0 C0.53625 0.2475 1.0725 0.495 1.625 0.75 C-2.815 3.71 -2.815 3.71 -5.375 4.75 C-6.365 4.42 -7.355 4.09 -8.375 3.75 C-2.95961538 -0.31153846 -2.95961538 -0.31153846 0 0 Z " fill="#FC8F30" transform="translate(240.375,536.25)"/>
<path d="M0 0 C-5.23420787 3.27137992 -8.16605611 3.10643764 -14 2 C-14 1.67 -14 1.34 -14 1 C-12.04310963 0.63794536 -10.08442332 0.28558579 -8.125 -0.0625 C-7.03445313 -0.25972656 -5.94390625 -0.45695313 -4.8203125 -0.66015625 C-2 -1 -2 -1 0 0 Z " fill="#FB902A" transform="translate(929,246)"/>
<path d="M0 0 C0 0.66 0 1.32 0 2 C-3 4 -3 4 -5.6875 3.625 C-6.450625 3.41875 -7.21375 3.2125 -8 3 C-5.22569089 1.15046059 -3.35957737 0 0 0 Z " fill="#FC9326" transform="translate(671,316)"/>
</svg>
