<?xml version="1.0" encoding="UTF-8"?>
<svg version="1.1" xmlns="http://www.w3.org/2000/svg" width="1254" height="1254">
<path d="M0 0 C413.82 0 827.64 0 1254 0 C1254 413.82 1254 827.64 1254 1254 C840.18 1254 426.36 1254 0 1254 C0 840.18 0 426.36 0 0 Z " fill="#FEFDFD" transform="translate(0,0)"/>
<path d="M0 0 C2.64 0 5.28 0 8 0 C13.68747073 11.31420054 19.27982299 22.67187637 24.8125 34.0625 C25.40268417 35.27646454 25.40268417 35.27646454 26.00479126 36.51495361 C31.02121707 46.83385677 36.0135251 57.16356497 40.94848633 67.52172852 C45.08975549 76.20885094 49.28655288 84.86886842 53.48336792 93.52923584 C57.85207897 102.54547997 62.19084022 111.57528572 66.49804688 120.62109375 C69.56556563 127.04441496 72.67465747 133.4468957 75.796875 139.84375 C76.2229303 140.71684814 76.6489856 141.58994629 77.08795166 142.48950195 C79.23599584 146.89013713 81.38646638 151.28956779 83.54003906 155.6875 C84.33923102 157.32289795 85.13838624 158.95831384 85.9375 160.59375 C86.30268738 161.33765991 86.66787476 162.08156982 87.04412842 162.84802246 C89.16083663 167.18422889 91.12200244 171.55531358 93 176 C93.81734695 177.67456448 94.6492613 179.34215022 95.5 181 C96.91798642 183.7632556 98.21958105 186.51553811 99.4375 189.375 C100.99765289 192.9945547 102.71253665 196.48779131 104.5 200 C106.84470911 204.60714773 108.97460132 209.24471615 111 214 C111.81734695 215.67456448 112.6492613 217.34215022 113.5 219 C114.87902547 221.68733169 116.15027948 224.35791415 117.3203125 227.14453125 C119.42424855 232.11297488 121.93153553 236.87989144 124.375 241.6875 C129.65702107 252.1533785 134.65836535 262.72807875 139.54638672 273.3815918 C142.20639615 279.17327636 144.91191818 284.92182494 147.82641602 290.59033203 C149.03264259 293.06702358 150.10561704 295.58716395 151.18058777 298.1229248 C152.60928692 301.39572895 154.19611466 304.58983756 155.7734375 307.79296875 C156.51671351 309.31114312 157.25987281 310.82937462 158.00292969 312.34765625 C158.38976929 313.13672363 158.77660889 313.92579102 159.1751709 314.73876953 C165.69797112 328.05114846 172.10226315 341.40455398 178.30175781 354.87060547 C182.15657288 363.22756277 186.11287021 371.5303275 190.125 379.8125 C190.42138367 380.42445221 190.71776733 381.03640442 191.02313232 381.66690063 C192.47630501 384.66662237 193.93038715 387.66590169 195.38476562 390.66503906 C200.88376456 402.01877629 206.31807875 413.40314157 211.67578125 424.82421875 C211.99952225 425.51428009 212.32326324 426.20434143 212.65681458 426.91531372 C212.98590317 427.61679535 213.31499176 428.31827698 213.65405273 429.04101562 C221.40527094 445.56261749 229.30361794 462.00665825 237.28901672 478.41619873 C240.09292053 484.18211009 242.86516449 489.96286725 245.625 495.75 C251.12678789 507.28330873 256.68306953 518.79009065 262.24359131 530.29515076 C264.47546407 534.91331274 266.70498103 539.53260777 268.93359375 544.15234375 C269.57901556 545.49007384 270.22444194 546.82780174 270.86987305 548.16552734 C271.80226558 550.09802019 272.7345894 552.03054597 273.66665649 553.9631958 C274.52230299 555.73730788 275.37833074 557.51123607 276.234375 559.28515625 C276.72131836 560.29457275 277.20826172 561.30398926 277.70996094 562.34399414 C278.91946341 564.9369278 278.91946341 564.9369278 280.23535156 567.04467773 C281.75036656 570.91880133 279.75375784 574.91893405 278.2409668 578.58959961 C277.87887619 579.47461655 277.51678558 580.35963348 277.14372253 581.27146912 C276.55244316 582.69750206 276.55244316 582.69750206 275.94921875 584.15234375 C275.33467583 585.65010094 275.33467583 585.65010094 274.7077179 587.17811584 C273.82880092 589.31899897 272.9478907 591.45906466 272.06518555 593.59838867 C269.74701079 599.21697386 267.44300808 604.84137213 265.13671875 610.46484375 C264.68263641 611.57080902 264.22855408 612.67677429 263.76071167 613.81625366 C260.46029455 621.85939171 257.20776486 629.91949323 254 638 C249.24390212 649.96520493 244.37629802 661.88329882 239.4979248 673.79910278 C230.49132963 695.79898046 221.65447668 717.85929617 213 740 C212.01 740 211.02 740 210 740 C200.81343106 720.50777754 191.65163384 701.00443553 182.55079651 681.47203064 C180.59778453 677.28086058 178.64148926 673.0912355 176.68359375 668.90234375 C171.60292406 658.02990321 166.53000273 647.15410036 161.4921875 636.26171875 C153.62643253 619.25576611 145.74272316 602.25923421 137.75 585.3125 C137.40568939 584.58117859 137.06137878 583.84985718 136.70663452 583.09637451 C132.7319721 574.65828802 128.6745917 566.27407566 124.44799805 557.95898438 C123.19452085 555.39750341 122.08360079 552.8480682 121.0625 550.1875 C116.75117213 538.97804755 111.15803036 528.25291866 105.73071289 517.55297852 C103.49598704 513.10642704 101.56065511 508.61168137 99.79296875 503.95703125 C98.9985901 501.85142934 98.9985901 501.85142934 97.5 499.5 C95.55851051 496.26418418 94.3320545 492.85529189 92.96875 489.34375 C92.03185275 486.913379 92.03185275 486.913379 90.5 484.5 C89.14479641 482.24132735 88.26530525 480.20448988 87.33203125 477.75390625 C84.87187148 471.53022785 82.01540147 465.50368086 79.14730835 459.46090698 C77.46536071 455.91513184 75.79466697 452.3640712 74.125 448.8125 C73.7803923 448.0795018 73.43578461 447.3465036 73.08073425 446.59129333 C69.55156425 439.06928676 66.11276145 431.50725326 62.6875 423.9375 C57.25372546 411.93717415 51.77365354 399.95923594 46.25 388 C45.87730988 387.19283539 45.50461975 386.38567078 45.12063599 385.55404663 C40.77771423 376.15005091 36.42211035 366.75201606 32.0546875 357.359375 C17.60872709 326.28526991 17.60872709 326.28526991 10.875 311.25 C10.38402832 310.16170898 9.89305664 309.07341797 9.38720703 307.95214844 C8.94747559 306.9624707 8.50774414 305.97279297 8.0546875 304.953125 C7.67812012 304.10911133 7.30155273 303.26509766 6.91357422 302.39550781 C5.97747904 299.94094719 5.43869017 297.5860238 5 295 C4.34 295 3.68 295 3 295 C2.85159668 295.57250488 2.70319336 296.14500977 2.55029297 296.73486328 C0.48779463 304.16369038 -2.56543572 310.92687334 -5.875 317.875 C-6.45451068 319.10512293 -7.0332708 320.3355997 -7.61132812 321.56640625 C-8.80929232 324.11562863 -10.01042577 326.66331996 -11.21386719 329.20996094 C-14.00616582 335.12588628 -16.75030959 341.06418697 -19.5 347 C-20.58180126 349.33083592 -21.66383318 351.66156481 -22.74609375 353.9921875 C-23.28218262 355.14686523 -23.81827148 356.30154297 -24.37060547 357.49121094 C-26.00827406 361.01781761 -27.64663204 364.54410329 -29.28515625 368.0703125 C-30.37766105 370.42184858 -31.47010906 372.77341103 -32.5625 375.125 C-33.10277832 376.28805664 -33.64305664 377.45111328 -34.19970703 378.64941406 C-37.2822357 385.28884911 -40.35392251 391.93314901 -43.41601562 398.58203125 C-48.73799672 410.13792594 -54.11800444 421.66525805 -59.52804565 433.18008423 C-64.16375407 443.049367 -68.74531452 452.94156121 -73.27172852 462.86157227 C-76.28177434 469.45329281 -79.33820991 476.02124534 -82.45288086 482.56420898 C-83.81127626 485.42655546 -85.12532374 488.29513672 -86.36376953 491.21166992 C-88.08642231 495.24745184 -89.95253495 499.20909671 -91.8359375 503.171875 C-92.19716705 503.93493958 -92.55839661 504.69800415 -92.93057251 505.48419189 C-94.07750905 507.90670146 -95.22610321 510.32841956 -96.375 512.75 C-104.11447068 528.92101405 -104.11447068 528.92101405 -111.3984375 545.29907227 C-113.08830641 549.25268147 -114.92198278 553.13170161 -116.7734375 557.01171875 C-117.516366 558.57502847 -118.25928556 560.13834245 -119.00219727 561.70166016 C-119.38900665 562.51435364 -119.77581604 563.32704712 -120.17434692 564.16436768 C-126.55005491 577.56270498 -132.87509449 590.98185949 -139.09960938 604.45117188 C-142.05497867 610.83668337 -145.03679811 617.20838707 -148.05078125 623.56640625 C-148.40249893 624.30840775 -148.75421661 625.05040924 -149.11659241 625.81489563 C-149.83846982 627.33753919 -150.56037869 628.86016783 -151.28231812 630.38278198 C-157.53842749 643.57835902 -163.67583516 656.81903637 -169.68295288 670.12976074 C-174.3955218 680.56408108 -179.26585176 690.90592345 -184.27587891 701.20166016 C-187.03356741 706.87895178 -189.74484231 712.57316566 -192.37109375 718.3125 C-192.91741455 719.50625244 -193.46373535 720.70000488 -194.02661133 721.92993164 C-195.06606281 724.21094577 -196.10129055 726.49389099 -197.1315918 728.77905273 C-197.59605713 729.79942627 -198.06052246 730.8197998 -198.5390625 731.87109375 C-198.94334473 732.76755615 -199.34762695 733.66401855 -199.76416016 734.58764648 C-200.97430569 736.94984483 -202.34298768 738.93279149 -204 741 C-210.68856957 725.44793542 -217.12300659 709.81115424 -223.38330078 694.08276367 C-223.98725136 692.56557122 -224.59125603 691.0484003 -225.1953125 689.53125 C-225.50026642 688.76529007 -225.80522034 687.99933014 -226.11941528 687.2101593 C-229.87395849 677.79101742 -233.68912985 668.39645485 -237.5 659 C-243.37467392 644.50875267 -249.22919453 630.00980128 -255.01220703 615.48168945 C-257.53390531 609.14905287 -260.06484378 602.82135201 -262.65452576 596.5161438 C-263.79640364 593.7347443 -264.93103386 590.95041358 -266.0652771 588.16589355 C-266.59780273 586.86477526 -267.13401823 585.56515998 -267.67422485 584.26721191 C-268.4145536 582.487989 -269.14118802 580.70308656 -269.8671875 578.91796875 C-270.48762939 577.41399536 -270.48762939 577.41399536 -271.12060547 575.87963867 C-273.04474634 569.57890532 -271.64604213 565.43944088 -268.66796875 559.78515625 C-268.3206218 559.10173157 -267.97327484 558.41830688 -267.61540222 557.71417236 C-266.87040672 556.251478 -266.11999916 554.79152974 -265.36468506 553.33413696 C-263.77174803 550.26021532 -262.20512825 547.17314386 -260.63684082 544.08659363 C-259.85100539 542.54066671 -259.06381646 540.99542706 -258.27526855 539.45088196 C-255.21328809 533.4490676 -252.25575116 527.40353474 -249.375 521.3125 C-248.5184437 519.50640866 -247.6616682 517.70042126 -246.8046875 515.89453125 C-246.36350586 514.96463379 -245.92232422 514.03473633 -245.46777344 513.07666016 C-242.82982021 507.5471381 -240.15340454 502.0362142 -237.48080444 496.52337646 C-229.71041813 480.49325252 -221.95680485 464.45569814 -214.3984375 448.32421875 C-213.07834539 445.50770913 -211.75804611 442.69129678 -210.4375 439.875 C-210.102948 439.16135284 -209.768396 438.44770569 -209.42370605 437.71243286 C-203.61791187 425.33811911 -197.66113047 413.04154703 -191.6572876 400.7623291 C-186.2268823 389.64997463 -180.93034215 378.4891812 -175.76098633 367.25244141 C-171.4710467 357.95004599 -167.02052765 348.73208389 -162.53713989 339.52203369 C-158.17611358 330.55838677 -153.91423722 321.55731507 -149.75 312.5 C-144.4491908 300.98430504 -138.9413153 289.57691667 -133.375 278.1875 C-132.96095917 277.34023346 -132.54691833 276.49296692 -132.12033081 275.62002563 C-130.49822418 272.30113546 -128.87590049 268.98235151 -127.2532196 265.66374207 C-121.16527507 253.20761339 -115.20053273 240.69442751 -109.30859375 228.14453125 C-108.98088989 227.44654419 -108.65318604 226.74855713 -108.31555176 226.02941895 C-107.81589905 224.96515686 -107.81589905 224.96515686 -107.30615234 223.87939453 C-106.6207705 222.41959529 -105.93538637 220.95979712 -105.25 219.5 C-104.91091614 218.77762146 -104.57183228 218.05524292 -104.22247314 217.31097412 C-97.77011187 203.57123111 -91.17573182 189.90327106 -84.5438385 176.24951172 C-81.8595956 170.71929926 -79.20730259 165.17415352 -76.5625 159.625 C-72.08246894 150.23007395 -67.54617508 140.86302977 -63 131.5 C-57.99552291 121.19287083 -53.01263729 110.87635286 -48.07983398 100.53466797 C-44.13205409 92.26249865 -40.14742429 84.00826314 -36.15905762 75.75561523 C-31.6562868 66.43815118 -27.17214068 57.11193207 -22.7019043 47.77880859 C-19.74077011 41.60431918 -16.75996664 35.43968185 -13.765625 29.28125 C-13.40197845 28.53296936 -13.03833191 27.78468872 -12.66366577 27.01373291 C-10.86283352 23.30850521 -9.06014415 19.60420088 -7.25439453 15.90136719 C-6.59400839 14.54365244 -5.93368633 13.18590652 -5.2734375 11.828125 C-4.97189758 11.21151001 -4.67035767 10.59489502 -4.35968018 9.95959473 C-2.76980725 6.68534475 -1.30386625 3.39853659 0 0 Z " fill="#03377D" transform="translate(623,242)"/>
<path d="M0 0 C55.77 0 111.54 0 169 0 C170.65 4.95 172.3 9.9 174 15 C175.87784133 19.17135512 175.87784133 19.17135512 177.8125 23.31640625 C179.47848239 27.08130725 180.70156311 30.95070764 181.91015625 34.8828125 C182.7619583 37.31914954 183.68356745 39.57291195 184.75 41.9140625 C187.76299304 48.57758649 190.31727041 55.42548179 192.9375 62.25 C193.45486866 63.59252866 193.9724457 64.93497703 194.49023438 66.27734375 C196.41252145 71.26347581 198.32992921 76.25146817 200.2421875 81.24145508 C202.5777282 87.33061169 204.93879164 93.40918787 207.3203125 99.48046875 C215.67412773 120.78285219 223.88108479 142.13706869 231.99169922 163.53320312 C236.8807532 176.42978086 241.79260739 189.3170298 246.75 202.1875 C247.0533728 202.9752179 247.35674561 203.76293579 247.66931152 204.57452393 C249.17972906 208.49574988 250.69093282 212.41667215 252.20263672 216.33740234 C255.24305243 224.22347413 258.27793457 232.11167557 261.3125 240 C261.7648703 241.17576096 261.7648703 241.17576096 262.22637939 242.37527466 C268.47588525 258.61987043 274.70136556 274.87365518 280.9230957 291.12890625 C281.28802628 292.08142273 281.65295685 293.03393921 282.02894592 294.01531982 C282.73414368 295.85947792 283.43696319 297.70454753 284.13719177 299.55059814 C285.60247463 303.40606015 287.08343369 307.24415588 288.70214844 311.03808594 C289.17942383 312.17793945 289.65669922 313.31779297 290.1484375 314.4921875 C290.56013184 315.43175293 290.97182617 316.37131836 291.39599609 317.33935547 C292.49024837 322.15955 290.03670518 326.18926136 287.85546875 330.4140625 C287.43313965 331.24188232 287.01081055 332.06970215 286.57568359 332.92260742 C286.11758301 333.81439697 285.65948242 334.70618652 285.1875 335.625 C280.90637877 344.0688345 276.82690386 352.58495878 272.875 361.1875 C267.81266057 372.19887721 262.57239222 383.11226366 257.25 394 C252.35308631 404.01819146 247.47190335 414.028823 243.03808594 424.26367188 C240.92581971 429.10302053 238.60597341 433.8243086 236.23046875 438.5390625 C232.47434278 445.99512665 228.88657215 453.52003107 225.35623169 461.08517456 C219.09783449 474.49402365 212.73491761 487.84870966 206.25341797 501.15112305 C205.7070166 502.27558838 205.16061523 503.40005371 204.59765625 504.55859375 C204.11820557 505.54142334 203.63875488 506.52425293 203.14477539 507.53686523 C201.92102135 510.04848528 201.92102135 510.04848528 201 513 C200.34 513 199.68 513 199 513 C195.31797813 504.44517472 192.08379551 495.78611212 189 487 C186.98784922 481.32103637 184.65204494 475.80720273 182.26416016 470.27563477 C180.0831606 465.21796035 178.00189506 460.13084126 176 455 C175.61070312 454.00613281 175.22140625 453.01226563 174.8203125 451.98828125 C172.61646123 446.31439088 170.50579582 440.62201372 168.5 434.875 C167.02764675 430.70562584 165.45450045 426.68306644 163.5625 422.6875 C161.04186285 417.33806002 159.1475092 411.84347253 157.23071289 406.25854492 C155.52279639 401.33617743 153.5299697 396.66293636 151.2890625 391.95703125 C149.30465427 387.40491904 147.72621082 382.7161636 146.14257812 378.01171875 C145.07760008 374.88389283 143.98439186 371.96886501 142.5 369.0078125 C140.66591652 365.33009302 139.422362 361.57998891 138.125 357.6875 C135.07975213 348.79667136 131.7182592 340.04492749 128.25 331.3125 C127.12071017 328.46759995 125.99169092 325.62259304 124.86328125 322.77734375 C124.41292763 321.64184837 124.41292763 321.64184837 123.95347595 320.4834137 C119.7247645 309.80276191 115.58562651 299.08713657 111.4375 288.375 C111.02546326 287.31130188 110.61342651 286.24760376 110.18890381 285.15167236 C107.80372595 278.99406827 105.41976793 272.83599288 103.03643799 266.67767334 C101.59667463 262.95799499 100.15581458 259.23874196 98.71484375 255.51953125 C94.48798055 244.60809133 90.2672729 233.69430269 86.0546875 222.77734375 C76.75072961 198.66900874 67.39141192 174.58300933 57.9831543 150.51519775 C48.39278375 125.98021017 38.82828351 101.43540295 29.31323242 76.87109375 C28.51481541 74.8098942 27.71639416 72.74869629 26.91796875 70.6875 C26.51998581 69.66003662 26.12200287 68.63257324 25.71195984 67.57397461 C23.15091079 60.96425288 20.58420482 54.35675365 18.0136261 47.75073242 C16.2626395 43.25073462 14.51319619 38.7501375 12.76382446 34.24951172 C11.92976849 32.10500926 11.09496555 29.96079714 10.2593689 27.81689453 C9.09803745 24.83702062 7.93937526 21.85612117 6.78125 18.875 C6.27160454 17.57042847 6.27160454 17.57042847 5.75166321 16.23950195 C5.43207138 15.41538818 5.11247955 14.59127441 4.78320312 13.7421875 C4.50963989 13.0394873 4.23607666 12.33678711 3.95422363 11.61279297 C2.55142902 7.77175216 1.29311358 3.87934073 0 0 Z " fill="#03377D" transform="translate(131,249)"/>
<path d="M0 0 C55.44 0 110.88 0 168 0 C165.76402116 11.17989418 165.76402116 11.17989418 163.625 15.4375 C161.90854583 18.88701918 160.48815742 22.34581479 159.19506836 25.97045898 C157.05651203 31.89044958 154.77856727 37.74818929 152.46484375 43.6015625 C151.57405085 45.86303508 150.68326332 48.12450979 149.79248047 50.38598633 C149.32759216 51.56464264 148.86270386 52.74329895 148.38372803 53.95767212 C145.89914666 60.25804409 143.41963067 66.56040646 140.94140625 72.86328125 C140.6897168 73.5033354 140.43802734 74.14338955 140.17871094 74.80283928 C135.20372614 87.45710255 130.28001275 100.13096259 125.375 112.8125 C119.02556933 129.22677922 112.62616602 145.62052477 106.1875 162 C98.02264239 182.77322564 89.96587326 203.5869842 81.94140625 224.41479492 C76.55506323 238.39318492 71.14417079 252.36141352 65.6875 266.3125 C60.02957978 280.77901831 54.40807995 295.25924826 48.8125 309.75 C48.45360687 310.67938385 48.09471375 311.6087677 47.72494507 312.5663147 C43.62458597 323.18044798 43.62458597 323.18044798 39.54223633 333.80151367 C37.1042273 340.16183944 34.61474887 346.49722839 32.0625 352.8125 C29.30465045 359.66514103 26.64550641 366.54493415 24.08276367 373.47265625 C22.23400053 378.4449729 20.21311252 383.32932293 18.1484375 388.21484375 C15.80383738 393.90089779 13.79330107 399.70908888 11.78125 405.51953125 C9.79586575 411.20329895 7.79188775 416.63964471 4.96484375 421.953125 C3.2913126 425.50345019 2.20000111 429.25312156 1 432.984375 C-0.46670029 437.40739306 -2.22583538 441.69330235 -4 446 C-7.54056979 454.75825159 -10.94209594 463.56838049 -14.2890625 472.40234375 C-16.37489829 477.88566054 -18.53549391 483.28753504 -20.96875 488.625 C-22.70992579 492.63498061 -24.21070232 496.73779466 -25.76171875 500.82421875 C-27.36966617 504.94807128 -29.14221175 508.98344106 -31 513 C-33.978636 509.44396687 -35.78223401 505.43725288 -37.6875 501.25 C-40.25258872 495.70621228 -42.86509172 490.1994257 -45.625 484.75 C-54.04816665 468.04161006 -62.33728036 451.20219485 -69.80834961 434.04394531 C-71.98131204 429.09697619 -74.35037036 424.26209097 -76.78125 419.4375 C-80.53256904 411.99109786 -84.11530618 404.47571151 -87.64102173 396.9203186 C-93.12147626 385.18042113 -98.66691182 373.47385618 -104.3125 361.8125 C-104.88009033 360.63856689 -105.44768066 359.46463379 -106.0324707 358.25512695 C-108.23575857 353.70085725 -110.44109549 349.14763263 -112.65625 344.59912109 C-114.21309314 341.40169835 -115.76326098 338.20111224 -117.3125 335 C-118.00629761 333.58424683 -118.00629761 333.58424683 -118.71411133 332.13989258 C-119.34482544 330.83314575 -119.34482544 330.83314575 -119.98828125 329.5 C-120.53802612 328.37078125 -120.53802612 328.37078125 -121.09887695 327.21875 C-123.15708233 322.15102568 -123.08908829 319.28336897 -121.10546875 314.1640625 C-120.65389404 312.9793335 -120.20231934 311.79460449 -119.73706055 310.57397461 C-119.22070173 309.25758643 -118.70417536 307.94126397 -118.1875 306.625 C-117.64830794 305.22384507 -117.11034071 303.8222183 -116.57348633 302.42016602 C-115.3824709 299.31574543 -114.18392366 296.21436505 -112.98046875 293.11474609 C-110.8740345 287.68406235 -108.79514426 282.24300839 -106.71875 276.80078125 C-102.16111089 264.86131188 -97.58319613 252.92967899 -93 241 C-92.67086609 240.14321655 -92.34173218 239.28643311 -92.00262451 238.40368652 C-88.3618133 228.92679704 -84.71679209 219.45153136 -81.06971741 209.97705078 C-78.33354714 202.86827914 -75.60022466 195.75841419 -72.8671875 188.6484375 C-71.52043076 185.1452847 -70.17364229 181.64214411 -68.82684326 178.13900757 C-67.95665692 175.87539826 -67.08657673 173.61174815 -66.21661377 171.34805298 C-62.16904681 160.8163559 -58.11970115 150.28543922 -54.03125 139.76953125 C-53.75059692 139.04763107 -53.46994385 138.3257309 -53.18078613 137.58195496 C-51.80445593 134.04758185 -50.41578828 130.51875573 -49 127 C-44.53066019 115.8839497 -40.23880122 104.69842871 -36.05688477 93.47143555 C-34.76979158 90.02409552 -33.45140751 86.59503155 -32.0625 83.1875 C-30.10886667 78.37667792 -28.34192581 73.50211981 -26.5625 68.625 C-24.26960469 62.34772924 -21.85971304 56.15423588 -19.2421875 50.00390625 C-16.93639049 44.42793801 -14.8748685 38.75711954 -12.77929688 33.09960938 C-11.46657551 29.56282875 -10.13876905 26.0317174 -8.8125 22.5 C-8.33977353 21.23960967 -7.86711499 19.97919386 -7.39453125 18.71875 C-6.93433594 17.4915625 -6.47414063 16.264375 -6 15 C-5.63527588 14.01 -5.63527588 14.01 -5.26318359 13 C-5.0152002 12.3296875 -4.7672168 11.659375 -4.51171875 10.96875 C-4.29346436 10.37513672 -4.07520996 9.78152344 -3.8503418 9.16992188 C-2.64076762 6.08330251 -1.30590568 3.04711325 0 0 Z " fill="#03377D" transform="translate(955,249)"/>
<path d="M0 0 C55.77 0 111.54 0 169 0 C168.67 0.66 168.34 1.32 168 2 C167.16786075 1.99539104 166.33572149 1.99078207 165.4783659 1.98603344 C145.24860752 1.87570446 125.01890085 1.79291665 104.78890514 1.74093914 C95.00588884 1.71513631 85.22307312 1.67994618 75.44018555 1.62280273 C66.91532378 1.57303128 58.39060724 1.54072412 49.86560422 1.52955753 C45.34986321 1.5230281 40.83453774 1.50763941 36.31892967 1.47134972 C32.07125016 1.43748882 27.82415854 1.42692678 23.57635689 1.43446159 C22.01501651 1.43308258 20.4536571 1.42309073 18.89243317 1.40397263 C16.76452992 1.37918672 14.6388622 1.38503837 12.51091003 1.39872742 C11.31903171 1.39411845 10.12715338 1.38950949 8.89915752 1.38476086 C5.77923227 1.71494044 5.77923227 1.71494044 4.09306812 4.53757954 C3.73235564 5.35017829 3.37164316 6.16277704 3 7 C1 4 1 4 0 0 Z " fill="#163A7D" transform="translate(131,249)"/>
<path d="M0 0 C53.46 0 106.92 0 162 0 C162 0.33 162 0.66 162 1 C161.19362941 1.00238835 160.38725882 1.00477671 159.55645275 1.00723743 C139.95243545 1.06632576 120.34854472 1.14183607 100.74466228 1.23571491 C91.26443784 1.28071602 81.78425132 1.32012065 72.30395508 1.34643555 C64.04271174 1.36938077 55.781588 1.40273963 47.52043945 1.44870156 C43.14459147 1.47268086 38.76886229 1.4913787 34.39295006 1.49761391 C30.27661109 1.50364359 26.16057625 1.52356608 22.04434967 1.55427551 C20.53143993 1.56308986 19.0184905 1.56677133 17.50555611 1.56500816 C15.44371287 1.56336357 13.38280585 1.57998275 11.3210907 1.60127258 C10.16608409 1.60588155 9.01107748 1.61049051 7.82107067 1.61523914 C4.67384866 2.04448321 3.95395872 2.61108017 2 5 C-0.1875 5.6875 -0.1875 5.6875 -2 6 C-1.34 4.02 -0.68 2.04 0 0 Z " fill="#16397D" transform="translate(955,249)"/>
<path d="M0 0 C13.53 0 27.06 0 41 0 C41 0.33 41 0.66 41 1 C39.92516357 1.01458252 38.85032715 1.02916504 37.74291992 1.04418945 C33.75625283 1.1021489 29.77015199 1.17938129 25.78393555 1.26245117 C24.05844307 1.29571172 22.33284151 1.32374019 20.60717773 1.34643555 C18.12696834 1.37996153 15.6477597 1.43227406 13.16796875 1.48828125 C12.01001045 1.49786613 12.01001045 1.49786613 10.82865906 1.50764465 C6.67260903 1.55881959 6.67260903 1.55881959 3.1262207 3.48901367 C2.75456787 3.98763916 2.38291504 4.48626465 2 5 C-0.1875 5.6875 -0.1875 5.6875 -2 6 C-1.34 4.02 -0.68 2.04 0 0 Z " fill="#15387C" transform="translate(955,249)"/>
<path d="M0 0 C1.39954553 4.38929414 -0.03384461 7.0349034 -2 11 C-2.3304834 11.68046387 -2.6609668 12.36092773 -3.00146484 13.06201172 C-4.04856455 15.19499261 -5.11478914 17.31729572 -6.1875 19.4375 C-6.55552734 20.16904297 -6.92355469 20.90058594 -7.30273438 21.65429688 C-8.19997639 23.43712841 -9.09972593 25.21869763 -10 27 C-10.66 27 -11.32 27 -12 27 C-10.26460179 21.07570956 -7.55448391 15.6641012 -4.875 10.125 C-4.40707031 9.15046875 -3.93914063 8.1759375 -3.45703125 7.171875 C-2.30785155 4.77970501 -1.15542757 2.38915684 0 0 Z " fill="#1E4485" transform="translate(582,327)"/>
<path d="M0 0 C1.11132812 3.70849609 1.11132812 3.70849609 0.109375 6.33203125 C-0.33921875 7.15058594 -0.7878125 7.96914063 -1.25 8.8125 C-2.86057327 11.82067818 -4.34820772 14.7491348 -5.5625 17.9375 C-7.02172234 21.04627803 -8.07732591 22.28670829 -11 24 C-9.39323547 18.54406329 -6.94969106 13.6697853 -4.375 8.625 C-3.95476563 7.79355469 -3.53453125 6.96210938 -3.1015625 6.10546875 C-2.07133925 4.06843641 -1.03741179 2.03337811 0 0 Z " fill="#204585" transform="translate(553,388)"/>
<path d="M0 0 C0.33 0 0.66 0 1 0 C1.96717191 7.49558231 -3.31436962 14.81340615 -7 21 C-7.66 21 -8.32 21 -9 21 C-7.50640515 16.15713185 -5.54966433 11.68649104 -3.375 7.125 C-2.88773437 6.09246094 -2.88773437 6.09246094 -2.390625 5.0390625 C-1.59676528 3.35794781 -0.79880442 1.67877079 0 0 Z " fill="#163F7F" transform="translate(395,718)"/>
<path d="M0 0 C0.95465783 2.16967689 1.14401212 3.56328793 0.3984375 5.82421875 C-0.35870385 7.5684743 -1.17609198 9.28627131 -2 11 C-2.66 11 -3.32 11 -4 11 C-4.66 8.03 -5.32 5.06 -6 2 C-4.02 2 -2.04 2 0 2 C0 1.34 0 0.68 0 0 Z " fill="#0C3475" transform="translate(334,751)"/>
<path d="M0 0 C0.66 0.33 1.32 0.66 2 1 C0.06382979 9.93617021 0.06382979 9.93617021 -3 13 C-3.66 13 -4.32 13 -5 13 C-3.58192622 8.52761347 -1.88695626 4.28853694 0 0 Z " fill="#1F4785" transform="translate(491,517)"/>
<path d="M0 0 C0.66 0.99 1.32 1.98 2 3 C1.125 6.1875 1.125 6.1875 0 9 C-0.66 9 -1.32 9 -2 9 C-2.33 10.32 -2.66 11.64 -3 13 C-3.66 13 -4.32 13 -5 13 C-4.54554036 11.58208592 -4.08625056 10.16571954 -3.625 8.75 C-3.24214844 7.56664062 -3.24214844 7.56664062 -2.8515625 6.359375 C-2.04826333 4.13372042 -1.10288338 2.09068328 0 0 Z " fill="#274E8A" transform="translate(524,448)"/>
<path d="M0 0 C0.66 0.33 1.32 0.66 2 1 C0.78184562 5.68520915 -0.69559987 9.70543612 -3 14 C-3.66 14 -4.32 14 -5 14 C-3.45730076 9.27934033 -1.92205381 4.58335908 0 0 Z " fill="#CCD9E8" transform="translate(893,838)"/>
<path d="M0 0 C0.87840996 3.09720845 0.99435406 4.90645403 0 8 C-0.66 8 -1.32 8 -2 8 C-2.33 9.98 -2.66 11.96 -3 14 C-3.99 14.33 -4.98 14.66 -6 15 C-4.40109514 9.80355921 -2.25861997 4.93387858 0 0 Z " fill="#153F81" transform="translate(595,300)"/>
<path d="M0 0 C0.66 0.33 1.32 0.66 2 1 C0.78065514 5.03321763 -0.55954927 8.54269479 -3 12 C-3.66 12 -4.32 12 -5 12 C-3.68938409 7.76570244 -2.05643741 3.92592596 0 0 Z " fill="#154083" transform="translate(366,779)"/>
<path d="M0 0 C2.31 0 4.62 0 7 0 C1.85714286 5.57142857 1.85714286 5.57142857 -2 6 C-1.34 4.02 -0.68 2.04 0 0 Z " fill="#254C89" transform="translate(955,249)"/>
<path d="M0 0 C0.66 0.99 1.32 1.98 2 3 C0.35 5.97 -1.3 8.94 -3 12 C-3.66 12 -4.32 12 -5 12 C-3.68938409 7.76570244 -2.05643741 3.92592596 0 0 Z " fill="#204989" transform="translate(401,706)"/>
<path d="M0 0 C0.33 0 0.66 0 1 0 C1.34833144 4.87664009 0.41685712 7.77050005 -2 12 C-2.99 11.67 -3.98 11.34 -5 11 C-3.35 7.37 -1.7 3.74 0 0 Z " fill="#104086" transform="translate(610,269)"/>
<path d="M0 0 C0.66 0.33 1.32 0.66 2 1 C0.94124926 4.40312738 -0.00902154 7.01353231 -2 10 C-2.66 10 -3.32 10 -4 10 C-2.8905928 6.51329166 -1.73662334 3.22515763 0 0 Z " fill="#CED9E8" transform="translate(501,808)"/>
<path d="M0 0 C0.66 1.32 1.32 2.64 2 4 C1.34 4.66 0.68 5.32 0 6 C-0.2165625 7.0209375 -0.2165625 7.0209375 -0.4375 8.0625 C-0.7159375 9.0215625 -0.7159375 9.0215625 -1 10 C-1.99 10.33 -2.98 10.66 -4 11 C-2.95902388 7.13351728 -1.96301592 3.50538557 0 0 Z " fill="#D8E2EC" transform="translate(946,705)"/>
<path d="M0 0 C0.66 0 1.32 0 2 0 C1.72510809 4.03174806 1.46508424 5.56894631 -1.5625 8.375 C-2.366875 8.91125 -3.17125 9.4475 -4 10 C-2.8905928 6.51329166 -1.73662334 3.22515763 0 0 Z " fill="#2A4F8C" transform="translate(546,402)"/>
<path d="M0 0 C0.66 0.99 1.32 1.98 2 3 C0.35 5.97 -1.3 8.94 -3 12 C-3.66 12 -4.32 12 -5 12 C-3.68938409 7.76570244 -2.05643741 3.92592596 0 0 Z " fill="#1A4182" transform="translate(566,361)"/>
<path d="M0 0 C0.66 0.99 1.32 1.98 2 3 C0.84759018 6.12796951 -0.51158646 9.02317291 -2 12 C-2.66 12 -3.32 12 -4 12 C-3.52309796 10.37433394 -3.04340334 8.74948689 -2.5625 7.125 C-2.29566406 6.22007812 -2.02882813 5.31515625 -1.75390625 4.3828125 C-1 2 -1 2 0 0 Z " fill="#D1DBE9" transform="translate(1100,309)"/>
<path d="M0 0 C1 3 1 3 -0.4375 6.1875 C-1.2109375 7.5796875 -1.2109375 7.5796875 -2 9 C-2.66 8.34 -3.32 7.68 -4 7 C-3.625 4.375 -3.625 4.375 -3 2 C-2.34 2 -1.68 2 -1 2 C-0.67 1.34 -0.34 0.68 0 0 Z " fill="#0A316F" transform="translate(928,747)"/>
<path d="M0 0 C3 1 3 1 4.75 3.875 C6 7 6 7 5 10 C2.35534962 6.8745041 1.15585285 3.91211733 0 0 Z " fill="#254B88" transform="translate(756,507)"/>
<path d="M0 0 C0.66 0.66 1.32 1.32 2 2 C1.61121812 5.01305957 0.73543126 6.39685311 -1 9 C-1.99 9.495 -1.99 9.495 -3 10 C-2.39009109 6.44219804 -1.4216319 3.3171411 0 0 Z " fill="#184887" transform="translate(1119,254)"/>
<path d="M0 0 C0.33 0.66 0.66 1.32 1 2 C1.66 2.33 2.32 2.66 3 3 C2.3503125 3.5878125 2.3503125 3.5878125 1.6875 4.1875 C-0.26366224 6.28319278 -1.59010162 8.51589333 -3 11 C-3.33 10.34 -3.66 9.68 -4 9 C-3.22265625 6.8359375 -3.22265625 6.8359375 -2.0625 4.375 C-1.68222656 3.55773437 -1.30195313 2.74046875 -0.91015625 1.8984375 C-0.60980469 1.27195312 -0.30945313 0.64546875 0 0 Z " fill="#D2DEEB" transform="translate(492,827)"/>
<path d="M0 0 C1.98 0.495 1.98 0.495 4 1 C3.34 2.98 2.68 4.96 2 7 C0.4375 5.1875 0.4375 5.1875 -1 3 C-0.67 2.01 -0.34 1.02 0 0 Z " fill="#123D80" transform="translate(922,755)"/>
<path d="M0 0 C2.64465038 3.1254959 3.84414715 6.08788267 5 10 C3.68 9.34 2.36 8.68 1 8 C1 7.01 1 6.02 1 5 C0.34 4.34 -0.32 3.68 -1 3 C-0.67 2.01 -0.34 1.02 0 0 Z " fill="#153E7D" transform="translate(877,758)"/>
<path d="M0 0 C0.66 0.99 1.32 1.98 2 3 C0.6875 5.9375 0.6875 5.9375 -1 9 C-1.99 9.33 -2.98 9.66 -4 10 C-2.8905928 6.51329166 -1.73662334 3.22515763 0 0 Z " fill="#305691" transform="translate(516,465)"/>
<path d="M0 0 C1.98 0.495 1.98 0.495 4 1 C3.34 2.65 2.68 4.3 2 6 C1.01 5.01 0.02 4.02 -1 3 C-0.67 2.01 -0.34 1.02 0 0 Z " fill="#194788" transform="translate(833,977)"/>
<path d="M0 0 C2.15377564 2.62198774 3.40072174 4.64404172 4 8 C3.01 8.495 3.01 8.495 2 9 C0.93347808 6.69631264 -0.06421005 4.35981813 -1 2 C-0.67 1.34 -0.34 0.68 0 0 Z " fill="#0B3D80" transform="translate(756,812)"/>
<path d="M0 0 C2 4 2 4 1.3125 6.125 C0 8 0 8 -3 10 C-2.01 6.7 -1.02 3.4 0 0 Z " fill="#345B93" transform="translate(934,303)"/>
<path d="M0 0 C0.66 0.33 1.32 0.66 2 1 C1.34 3.31 0.68 5.62 0 8 C-0.66 7.34 -1.32 6.68 -2 6 C-1.44444444 1.44444444 -1.44444444 1.44444444 0 0 Z " fill="#0E3D7E" transform="translate(1103,296)"/>
<path d="M0 0 C1.32 0.33 2.64 0.66 4 1 C3.67 1.99 3.34 2.98 3 4 C3.39397335 6.63804589 3.39397335 6.63804589 4 9 C1.49701566 6.06171403 0.53069061 3.82097239 0 0 Z " fill="#204B86" transform="translate(832,569)"/>
<path d="M0 0 C0.66 0.99 1.32 1.98 2 3 C-0.75 6.875 -0.75 6.875 -3 8 C-2.37240135 5.07120629 -1.41377341 2.63904371 0 0 Z " fill="#F0F3F7" transform="translate(526,439)"/>
<path d="M0 0 C0.99 0 1.98 0 3 0 C4.4783226 2.95664519 4.06032783 5.74229737 4 9 C2.00902154 6.01353231 1.05875074 3.40312738 0 0 Z " fill="#0E3D7F" transform="translate(144,283)"/>
</svg>
