<?xml version="1.0" encoding="UTF-8"?>
<svg version="1.1" xmlns="http://www.w3.org/2000/svg" width="2048" height="2048">
<path d="M0 0 C675.84 0 1351.68 0 2048 0 C2048 675.84 2048 1351.68 2048 2048 C1372.16 2048 696.32 2048 0 2048 C0 1372.16 0 696.32 0 0 Z " fill="#FEFEFE" transform="translate(0,0)"/>
<path d="M0 0 C56.43 0 112.86 0 171 0 C171 57.75 171 115.5 171 175 C226.77 175 282.54 175 340 175 C340 117.25 340 59.5 340 0 C396.43 0 452.86 0 511 0 C511 57.75 511 115.5 511 175 C566.44 175 621.88 175 679 175 C679 117.25 679 59.5 679 0 C732.46 0 785.92 0 841 0 C841 57.75 841 115.5 841 175 C894.46 175 947.92 175 1003 175 C1003 117.25 1003 59.5 1003 0 C1031.029375 -0.020625 1059.05875 -0.04125 1087.9375 -0.0625 C1096.80359131 -0.071604 1105.66968262 -0.08070801 1114.80444336 -0.09008789 C1125.59094238 -0.09460449 1125.59094238 -0.09460449 1130.63282776 -0.09544373 C1134.17112346 -0.09637929 1137.70940432 -0.10014224 1141.24769592 -0.10557556 C1145.7522135 -0.11240167 1150.25670928 -0.11449731 1154.76123154 -0.11307228 C1156.41988183 -0.11337054 1158.07853282 -0.11537287 1159.73717868 -0.11921513 C1161.96677663 -0.12414265 1164.1962884 -0.12300711 1166.42588806 -0.12025452 C1167.67860473 -0.12117631 1168.93132139 -0.1220981 1170.22199917 -0.12304783 C1173 0 1173 0 1174 1 C1174.09706134 3.2529102 1174.12186638 5.50893179 1174.12025452 7.76393127 C1174.12110894 8.47940736 1174.12196337 9.19488345 1174.12284368 9.93204063 C1174.12450058 12.34737814 1174.11897371 14.76264733 1174.11352539 17.17797852 C1174.11324354 18.90224201 1174.11340121 20.62650562 1174.1139679 22.35076904 C1174.11425595 27.04685147 1174.10835802 31.74290859 1174.10139394 36.43898511 C1174.09516164 41.34107159 1174.0945567 46.24315858 1174.09336853 51.14524841 C1174.09025485 60.43482896 1174.08204096 69.7243978 1174.07201904 79.01397318 C1174.05877414 91.56219294 1174.05335829 104.11041588 1174.04751682 116.65864086 C1174.0381011 136.43910268 1174.01818243 156.2195398 1174 176 C1117.9 176 1061.8 176 1004 176 C1004 233.42 1004 290.84 1004 350 C1060.1 350 1116.2 350 1174 350 C1174 407.75 1174 465.5 1174 525 C1117.9 525 1061.8 525 1004 525 C1004 582.42 1004 639.84 1004 699 C1060.1 699 1116.2 699 1174 699 C1174 756.75 1174 814.5 1174 874 C1117.57 874 1061.14 874 1003 874 C1003 816.58 1003 759.16 1003 700 C949.54 700 896.08 700 841 700 C841 757.42 841 814.84 841 874 C787.54 874 734.08 874 679 874 C679 816.58 679 759.16 679 700 C623.56 700 568.12 700 511 700 C511 757.42 511 814.84 511 874 C454.57 874 398.14 874 340 874 C340 816.58 340 759.16 340 700 C284.23 700 228.46 700 171 700 C171 757.42 171 814.84 171 874 C114.57 874 58.14 874 0 874 C0 816.25 0 758.5 0 699 C56.1 699 112.2 699 170 699 C170 641.58 170 584.16 170 525 C113.9 525 57.8 525 0 525 C0 467.25 0 409.5 0 350 C56.1 350 112.2 350 170 350 C170 292.58 170 235.16 170 176 C113.9 176 57.8 176 0 176 C0 117.92 0 59.84 0 0 Z " fill="#000000" transform="translate(500,409)"/>
<path d="M0 0 C11.68561661 10.0611587 21.21527409 23.3350036 23.42578125 38.9375 C24.800838 57.69311039 21.62772566 74.68928583 10.1484375 89.96875 C-0.09973277 101.60086121 -0.09973277 101.60086121 -6.14145128 103.92511733 C-8.68917159 105.62900696 -8.68917159 105.62900696 -9.03917134 107.77824196 C-9.22090608 110.32686282 -9.23441851 112.83443637 -9.20162326 115.38952893 C-9.20870812 116.37667228 -9.21579298 117.36381563 -9.22309253 118.38087241 C-9.24090724 121.72790815 -9.22273727 125.07381665 -9.20507526 128.42084026 C-9.21047618 130.83922846 -9.21807065 133.25761259 -9.22767404 135.67598775 C-9.24360415 140.97083663 -9.24382506 146.26534976 -9.23058949 151.56018164 C-9.21087481 159.48663304 -9.21991706 167.41287148 -9.23472091 175.33932425 C-9.25910637 188.84580895 -9.25973207 202.35220273 -9.24762154 215.8586998 C-9.23543915 229.5529097 -9.23411136 243.24705625 -9.2461586 256.94126701 C-9.246912 257.80502932 -9.2476654 258.66879163 -9.24844164 259.55872855 C-9.25233334 263.96277152 -9.25640288 268.3668143 -9.26053524 272.77085705 C-9.29010988 304.67795089 -9.2954656 336.58501222 -9.28806496 368.49211693 C-9.28080475 400.09870637 -9.28385599 431.7052673 -9.30078697 463.31185341 C-9.30130772 464.29276473 -9.30182847 465.27367605 -9.30236499 466.28431196 C-9.30712659 475.24318366 -9.31201563 484.20205528 -9.3170576 493.16092682 C-9.32959085 515.43351076 -9.34052528 537.70609533 -9.35037518 559.97868061 C-9.35104998 561.50019088 -9.35104998 561.50019088 -9.35173841 563.05243873 C-9.37349209 612.41638717 -9.37682682 661.78033459 -9.37866211 711.14428711 C-9.37930937 728.2786255 -9.38003799 745.41296388 -9.38110352 762.54730225 C-9.38116952 763.60994898 -9.38123552 764.67259572 -9.38130352 765.76744387 C-9.38448218 815.1502208 -9.40072966 864.5329909 -9.42035685 913.91576371 C-9.42163053 917.12100533 -9.42289858 920.32624695 -9.42416548 923.53148857 C-9.43257016 944.77246409 -9.44120029 966.01343951 -9.44998138 987.25441487 C-9.46745219 1029.52011652 -9.48359822 1071.78581865 -9.49883438 1114.05152117 C-9.49956 1116.0644078 -9.50028656 1118.07729444 -9.50101404 1120.09018108 C-9.53376359 1210.72702964 -9.55110045 1301.36387879 -9.56176758 1392.00073242 C-9.56186758 1392.84957399 -9.56196758 1393.69841555 -9.56207061 1394.57297959 C-9.56706018 1437.02781966 -9.57104832 1479.48265976 -9.57421875 1521.9375 C-30.36421875 1521.9375 -51.15421875 1521.9375 -72.57421875 1521.9375 C-72.56923276 1514.64718941 -72.56424677 1507.35687881 -72.55910969 1499.84564972 C-72.53489601 1463.92379355 -72.51261049 1428.00193622 -72.49145508 1392.08007812 C-72.49095604 1391.23307203 -72.49045699 1390.38606594 -72.48994283 1389.513393 C-72.43654624 1298.77060878 -72.39922298 1208.02783483 -72.39445496 1117.28503418 C-72.39434498 1115.26979791 -72.39423499 1113.25456165 -72.39412499 1111.23932538 C-72.39186514 1068.94063399 -72.39186844 1026.64194283 -72.3944867 984.34325146 C-72.39579949 963.09577772 -72.39667731 941.84830397 -72.39714391 920.60083019 C-72.39721681 917.39569352 -72.39730214 914.19055686 -72.39738799 910.98542019 C-72.39860068 861.62047698 -72.39047486 812.25555697 -72.35534668 762.890625 C-72.35459135 761.8289272 -72.35383603 760.7672294 -72.35305781 759.67335894 C-72.34082276 742.55523117 -72.32780524 725.43710399 -72.31468389 708.31897687 C-72.27691043 659.02410777 -72.24490598 609.72926562 -72.25122356 560.43437958 C-72.25135061 559.42104581 -72.25147766 558.40771204 -72.25160856 557.36367118 C-72.25450128 535.12055952 -72.26037083 512.87744967 -72.26906046 490.63433955 C-72.2725042 481.68497302 -72.27551926 472.73560635 -72.27838707 463.78623962 C-72.27871128 462.80675975 -72.2790355 461.82727988 -72.27936953 460.8181188 C-72.2896089 429.23936426 -72.26492787 397.66075503 -72.22199703 366.08203157 C-72.17892383 334.28132869 -72.16996242 302.48081495 -72.20865318 270.68010056 C-72.21398708 266.28900254 -72.21892836 261.89790416 -72.22363281 257.50680542 C-72.22456924 256.64599913 -72.22550567 255.78519285 -72.22647048 254.89830152 C-72.24030052 241.24893615 -72.21707291 227.59989305 -72.17850786 213.95058571 C-72.14137505 200.54011582 -72.14319465 187.13012657 -72.18688835 173.71967113 C-72.21134312 165.84990901 -72.20546914 157.98155949 -72.1553482 150.11191106 C-72.12153672 144.27954301 -72.14466997 138.44832777 -72.19053962 132.61600962 C-72.20009064 130.26372382 -72.19097609 127.91127424 -72.1614928 125.55915383 C-71.52521916 113.50812662 -71.52521916 113.50812662 -75.98475125 102.85793728 C-78.7755277 100.80612837 -81.43727202 99.37915342 -84.57421875 97.9375 C-96.72875438 88.31820704 -103.60333698 72.01474556 -105.57421875 56.9375 C-106.9622393 37.68724784 -101.80231102 21.43698416 -89.38671875 6.625 C-65.49712697 -18.3318244 -27.11072029 -21.72148757 0 0 Z " fill="#030303" transform="translate(479.57421875,270.0625)"/>
<path d="M0 0 C56.1 0 112.2 0 170 0 C170 57.42 170 114.84 170 174 C113.9 174 57.8 174 0 174 C0 116.58 0 59.16 0 0 Z " fill="#000000" transform="translate(500,1109)"/>
<path d="M0 0 C56.1 0 112.2 0 170 0 C170 57.42 170 114.84 170 174 C113.9 174 57.8 174 0 174 C0 116.58 0 59.16 0 0 Z " fill="#000000" transform="translate(1010,934)"/>
<path d="M0 0 C56.1 0 112.2 0 170 0 C170 57.42 170 114.84 170 174 C113.9 174 57.8 174 0 174 C0 116.58 0 59.16 0 0 Z " fill="#000000" transform="translate(500,759)"/>
<path d="M0 0 C56.1 0 112.2 0 170 0 C170 57.42 170 114.84 170 174 C113.9 174 57.8 174 0 174 C0 116.58 0 59.16 0 0 Z " fill="#000000" transform="translate(1010,585)"/>
<path d="M0 0 C55.77 0 111.54 0 169 0 C169 57.75 169 115.5 169 175 C113.23 175 57.46 175 0 175 C0 117.25 0 59.5 0 0 Z " fill="#FDFDFD" transform="translate(671,759)"/>
<path d="M0 0 C55.77 0 111.54 0 169 0 C169 57.42 169 114.84 169 174 C113.23 174 57.46 174 0 174 C0 116.58 0 59.16 0 0 Z " fill="#000000" transform="translate(1504,1109)"/>
<path d="M0 0 C55.77 0 111.54 0 169 0 C169 57.42 169 114.84 169 174 C113.23 174 57.46 174 0 174 C0 116.58 0 59.16 0 0 Z " fill="#000000" transform="translate(841,1109)"/>
<path d="M0 0 C55.77 0 111.54 0 169 0 C169 57.42 169 114.84 169 174 C113.23 174 57.46 174 0 174 C0 116.58 0 59.16 0 0 Z " fill="#FEFEFE" transform="translate(841,934)"/>
<path d="M0 0 C55.77 0 111.54 0 169 0 C169 57.42 169 114.84 169 174 C113.23 174 57.46 174 0 174 C0 116.58 0 59.16 0 0 Z " fill="#000000" transform="translate(671,934)"/>
<path d="M0 0 C55.77 0 111.54 0 169 0 C169 57.42 169 114.84 169 174 C113.23 174 57.46 174 0 174 C0 116.58 0 59.16 0 0 Z " fill="#000000" transform="translate(1504,759)"/>
<path d="M0 0 C55.77 0 111.54 0 169 0 C169 57.42 169 114.84 169 174 C113.23 174 57.46 174 0 174 C0 116.58 0 59.16 0 0 Z " fill="#000000" transform="translate(841,759)"/>
<path d="M0 0 C55.77 0 111.54 0 169 0 C169 57.42 169 114.84 169 174 C113.23 174 57.46 174 0 174 C0 116.58 0 59.16 0 0 Z " fill="#FEFEFE" transform="translate(841,585)"/>
<path d="M0 0 C55.77 0 111.54 0 169 0 C169 57.42 169 114.84 169 174 C113.23 174 57.46 174 0 174 C0 116.58 0 59.16 0 0 Z " fill="#000000" transform="translate(671,585)"/>
<path d="M0 0 C55.77 0 111.54 0 169 0 C169 57.42 169 114.84 169 174 C113.23 174 57.46 174 0 174 C0 116.58 0 59.16 0 0 Z " fill="#000000" transform="translate(1504,410)"/>
<path d="M0 0 C55.77 0 111.54 0 169 0 C169 57.42 169 114.84 169 174 C113.23 174 57.46 174 0 174 C0 116.58 0 59.16 0 0 Z " fill="#000000" transform="translate(841,410)"/>
<path d="M0 0 C55.44 0 110.88 0 168 0 C168 57.42 168 114.84 168 174 C112.56 174 57.12 174 0 174 C0 116.58 0 59.16 0 0 Z " fill="#FEFEFE" transform="translate(1011,760)"/>
<path d="M0 0 C53.46 0 106.92 0 162 0 C162 57.75 162 115.5 162 175 C108.54 175 55.08 175 0 175 C0 117.25 0 59.5 0 0 Z " fill="#FDFDFD" transform="translate(1341,759)"/>
<path d="M0 0 C53.46 0 106.92 0 162 0 C162 57.42 162 114.84 162 174 C108.54 174 55.08 174 0 174 C0 116.58 0 59.16 0 0 Z " fill="#000000" transform="translate(1341,934)"/>
<path d="M0 0 C53.46 0 106.92 0 162 0 C162 57.42 162 114.84 162 174 C108.54 174 55.08 174 0 174 C0 116.58 0 59.16 0 0 Z " fill="#000000" transform="translate(1341,585)"/>
<path d="M0 0 C52.8 0 105.6 0 160 0 C160 57.42 160 114.84 160 174 C107.2 174 54.4 174 0 174 C0 116.58 0 59.16 0 0 Z " fill="#FEFEFE" transform="translate(1180,934)"/>
<path d="M0 0 C52.8 0 105.6 0 160 0 C160 57.42 160 114.84 160 174 C107.2 174 54.4 174 0 174 C0 116.58 0 59.16 0 0 Z " fill="#000000" transform="translate(1180,759)"/>
<path d="M0 0 C52.8 0 105.6 0 160 0 C160 57.42 160 114.84 160 174 C107.2 174 54.4 174 0 174 C0 116.58 0 59.16 0 0 Z " fill="#FEFEFE" transform="translate(1180,585)"/>
<path d="M0 0 C52.8 0 105.6 0 160 0 C160 57.42 160 114.84 160 174 C107.2 174 54.4 174 0 174 C0 116.58 0 59.16 0 0 Z " fill="#000000" transform="translate(1180,410)"/>
<path d="M0 0 C52.8 0 105.6 0 160 0 C160 57.09 160 114.18 160 173 C107.2 173 54.4 173 0 173 C0 115.91 0 58.82 0 0 Z " fill="#000000" transform="translate(1180,1109)"/>
<path d="M0 0 C56.43 0 112.86 0 171 0 C171 57.75 171 115.5 171 175 C226.77 175 282.54 175 340 175 C340 117.25 340 59.5 340 0 C396.43 0 452.86 0 511 0 C511 57.75 511 115.5 511 175 C566.44 175 621.88 175 679 175 C679 117.25 679 59.5 679 0 C732.46 0 785.92 0 841 0 C841 57.75 841 115.5 841 175 C894.46 175 947.92 175 1003 175 C1003 117.25 1003 59.5 1003 0 C1031.029375 -0.020625 1059.05875 -0.04125 1087.9375 -0.0625 C1096.80359131 -0.071604 1105.66968262 -0.08070801 1114.80444336 -0.09008789 C1125.59094238 -0.09460449 1125.59094238 -0.09460449 1130.63282776 -0.09544373 C1134.17112346 -0.09637929 1137.70940432 -0.10014224 1141.24769592 -0.10557556 C1145.7522135 -0.11240167 1150.25670928 -0.11449731 1154.76123154 -0.11307228 C1156.41988183 -0.11337054 1158.07853282 -0.11537287 1159.73717868 -0.11921513 C1161.96677663 -0.12414265 1164.1962884 -0.12300711 1166.42588806 -0.12025452 C1167.67860473 -0.12117631 1168.93132139 -0.1220981 1170.22199917 -0.12304783 C1173 0 1173 0 1174 1 C1174.09706134 3.2529102 1174.12186638 5.50893179 1174.12025452 7.76393127 C1174.12110894 8.47940736 1174.12196337 9.19488345 1174.12284368 9.93204063 C1174.12450058 12.34737814 1174.11897371 14.76264733 1174.11352539 17.17797852 C1174.11324354 18.90224201 1174.11340121 20.62650562 1174.1139679 22.35076904 C1174.11425595 27.04685147 1174.10835802 31.74290859 1174.10139394 36.43898511 C1174.09516164 41.34107159 1174.0945567 46.24315858 1174.09336853 51.14524841 C1174.09025485 60.43482896 1174.08204096 69.7243978 1174.07201904 79.01397318 C1174.05877414 91.56219294 1174.05335829 104.11041588 1174.04751682 116.65864086 C1174.0381011 136.43910268 1174.01818243 156.2195398 1174 176 C1117.9 176 1061.8 176 1004 176 C1004 290.84 1004 405.68 1004 524 C1059.77 524 1115.54 524 1173 524 C1173 466.58 1173 409.16 1173 350 C1173.33 350 1173.66 350 1174 350 C1174 407.75 1174 465.5 1174 525 C1117.9 525 1061.8 525 1004 525 C1004 582.42 1004 639.84 1004 699 C1060.1 699 1116.2 699 1174 699 C1174 756.75 1174 814.5 1174 874 C1173.67 874 1173.34 874 1173 874 C1173 816.58 1173 759.16 1173 700 C1117.23 700 1061.46 700 1004 700 C1004 757.42 1004 814.84 1004 874 C1003.67 874 1003.34 874 1003 874 C1003 816.58 1003 759.16 1003 700 C949.54 700 896.08 700 841 700 C841 757.42 841 814.84 841 874 C787.54 874 734.08 874 679 874 C679 816.58 679 759.16 679 700 C623.56 700 568.12 700 511 700 C511 757.42 511 814.84 511 874 C510.67 874 510.34 874 510 874 C510 816.58 510 759.16 510 700 C454.23 700 398.46 700 341 700 C341 757.42 341 814.84 341 874 C340.67 874 340.34 874 340 874 C340 816.58 340 759.16 340 700 C284.23 700 228.46 700 171 700 C171 757.42 171 814.84 171 874 C170.67 874 170.34 874 170 874 C170 816.58 170 759.16 170 700 C113.9 700 57.8 700 0 700 C0 699.67 0 699.34 0 699 C56.1 699 112.2 699 170 699 C170 641.58 170 584.16 170 525 C113.9 525 57.8 525 0 525 C0 524.67 0 524.34 0 524 C56.1 524 112.2 524 170 524 C170 409.16 170 294.32 170 176 C113.9 176 57.8 176 0 176 C0 175.67 0 175.34 0 175 C56.1 175 112.2 175 170 175 C170 117.58 170 60.16 170 1 C113.9 1 57.8 1 0 1 C0 0.67 0 0.34 0 0 Z M341 1 C341 58.42 341 115.84 341 175 C396.77 175 452.54 175 510 175 C510 117.58 510 60.16 510 1 C454.23 1 398.46 1 341 1 Z M680 1 C680 58.42 680 115.84 680 175 C732.8 175 785.6 175 840 175 C840 117.58 840 60.16 840 1 C787.2 1 734.4 1 680 1 Z M1004 1 C1004 58.42 1004 115.84 1004 175 C1059.77 175 1115.54 175 1173 175 C1173 117.58 1173 60.16 1173 1 C1117.23 1 1061.46 1 1004 1 Z M171 176 C171 348.59 171 521.18 171 699 C226.77 699 282.54 699 340 699 C340 526.41 340 353.82 340 176 C284.23 176 228.46 176 171 176 Z M341 176 C341 290.84 341 405.68 341 524 C396.77 524 452.54 524 510 524 C510 466.58 510 409.16 510 350 C566.1 350 622.2 350 680 350 C680 407.42 680 464.84 680 524 C732.8 524 785.6 524 840 524 C840 409.16 840 294.32 840 176 C675.33 176 510.66 176 341 176 Z M841 176 C841 348.59 841 521.18 841 699 C894.46 699 947.92 699 1003 699 C1003 526.41 1003 353.82 1003 176 C949.54 176 896.08 176 841 176 Z M511 351 C511 408.42 511 465.84 511 525 C454.9 525 398.8 525 341 525 C341 582.42 341 639.84 341 699 C505.67 699 670.34 699 840 699 C840 641.58 840 584.16 840 525 C786.87 525 733.74 525 679 525 C679 467.58 679 410.16 679 351 C623.56 351 568.12 351 511 351 Z M680 700 C680 757.09 680 814.18 680 873 C732.8 873 785.6 873 840 873 C840 815.91 840 758.82 840 700 C787.2 700 734.4 700 680 700 Z " fill="#5F5F5E" transform="translate(500,409)"/>
<path d="M0 0 C0.33 0 0.66 0 1 0 C1 172.59 1 345.18 1 523 C54.46 523 107.92 523 163 523 C163 350.41 163 177.82 163 0 C163.33 0 163.66 0 164 0 C164 114.84 164 229.68 164 348 C219.77 348 275.54 348 333 348 C333 290.58 333 233.16 333 174 C333.33 174 333.66 174 334 174 C334 231.75 334 289.5 334 349 C277.9 349 221.8 349 164 349 C164 406.42 164 463.84 164 523 C220.1 523 276.2 523 334 523 C334 580.75 334 638.5 334 698 C333.67 698 333.34 698 333 698 C333 640.58 333 583.16 333 524 C277.23 524 221.46 524 164 524 C164 581.42 164 638.84 164 698 C163.67 698 163.34 698 163 698 C163 640.58 163 583.16 163 524 C109.54 524 56.08 524 1 524 C1 581.42 1 638.84 1 698 C-52.46 698 -105.92 698 -161 698 C-161 640.25 -161 582.5 -161 523 C-107.87 523 -54.74 523 0 523 C0 465.58 0 408.16 0 349 C-53.13 349 -106.26 349 -161 349 C-161 291.25 -161 233.5 -161 174 C-160.67 174 -160.34 174 -160 174 C-160 231.42 -160 288.84 -160 348 C-107.2 348 -54.4 348 0 348 C0 233.16 0 118.32 0 0 Z M-160 524 C-160 581.09 -160 638.18 -160 697 C-107.2 697 -54.4 697 0 697 C0 639.91 0 582.82 0 524 C-52.8 524 -105.6 524 -160 524 Z " fill="#464646" transform="translate(1340,585)"/>
<path d="M0 0 C55.77 0 111.54 0 169 0 C169 0.33 169 0.66 169 1 C113.56 1 58.12 1 1 1 C1 58.42 1 115.84 1 175 C-55.1 175 -111.2 175 -169 175 C-169 232.42 -169 289.84 -169 349 C-57.46 349 54.08 349 169 349 C169 349.33 169 349.66 169 350 C113.56 350 58.12 350 1 350 C1 407.42 1 464.84 1 524 C0.67 524 0.34 524 0 524 C0 466.58 0 409.16 0 350 C-55.77 350 -111.54 350 -169 350 C-169 407.42 -169 464.84 -169 524 C-169.33 524 -169.66 524 -170 524 C-170 466.58 -170 409.16 -170 350 C-225.77 350 -281.54 350 -339 350 C-339 349.67 -339 349.34 -339 349 C-283.23 349 -227.46 349 -170 349 C-170 291.25 -170 233.5 -170 174 C-113.9 174 -57.8 174 0 174 C0 116.58 0 59.16 0 0 Z " fill="#606060" transform="translate(1010,759)"/>
</svg>
