<?xml version="1.0" encoding="UTF-8"?>
<svg version="1.1" xmlns="http://www.w3.org/2000/svg" width="1254" height="1254">
<path d="M0 0 C413.82 0 827.64 0 1254 0 C1254 413.82 1254 827.64 1254 1254 C840.18 1254 426.36 1254 0 1254 C0 840.18 0 426.36 0 0 Z " fill="#FDFDFD" transform="translate(0,0)"/>
<path d="M0 0 C1.1076335 -0.00696761 2.21526701 -0.01393521 3.35646516 -0.02111396 C7.08862044 -0.0384349 10.81974836 -0.01995075 14.55188751 -0.0017767 C17.24631421 -0.00681904 19.94066982 -0.0138386 22.63507795 -0.02327484 C28.50378172 -0.03980669 34.37225088 -0.0377065 40.24095726 -0.02344799 C48.96778818 -0.00230333 57.69443156 -0.00970763 66.42126985 -0.02282321 C82.00611289 -0.04529892 97.59084761 -0.03927336 113.17569079 -0.02138711 C126.8140746 -0.00583137 140.4524204 0.00003565 154.09081268 -0.00372791 C154.99481394 -0.00396471 155.89881521 -0.00420151 156.83021044 -0.00444549 C160.49967172 -0.00542039 164.16913298 -0.00644119 167.83859423 -0.00753059 C202.27426757 -0.01761795 236.70987413 0.00066327 271.14553177 0.03218976 C301.75223941 0.06005127 332.35886763 0.06501445 362.9655838 0.04999638 C370.80256648 0.04617407 378.63954917 0.04237931 386.47653198 0.03882599 C387.44129991 0.03838817 388.40606784 0.03795036 389.40007116 0.03749928 C414.96048376 0.02626435 440.52089051 0.03360479 466.08130121 0.04670674 C468.83101725 0.04809533 471.5807333 0.04947604 474.33044935 0.05084516 C476.1546059 0.05175454 477.97876245 0.05267721 479.802919 0.05361326 C493.43408841 0.06041465 507.0652349 0.05774399 520.6964035 0.05066586 C536.19272636 0.04270719 551.68896921 0.04923714 567.18527448 0.0748409 C575.86238846 0.08878598 584.53934141 0.09172507 593.21645806 0.07890619 C599.00784301 0.07146147 604.79909201 0.07849699 610.59045043 0.0974643 C613.8932957 0.1078781 617.19575048 0.10974731 620.49860281 0.09848576 C624.05294526 0.08737031 627.60637385 0.10063735 631.16065979 0.12025452 C632.1908202 0.1111757 633.2209806 0.10209688 634.28235799 0.09274295 C640.21159163 0.15698036 643.55146853 0.70388369 648.0803299 4.62641239 C652.38018262 9.50732629 653.2081888 11.96717036 653.28907013 18.44355106 C653.29885391 19.14460972 653.3086377 19.84566837 653.31871796 20.56797123 C653.34868588 22.89342188 653.37006457 25.21881479 653.38892365 27.54438114 C653.39549547 28.33918699 653.4020673 29.13399284 653.40883827 29.95288372 C653.44144279 34.16248259 653.46588731 38.37205609 653.48535919 42.58173466 C653.50315176 46.06127778 653.53793567 49.54000731 653.58789825 53.01923466 C653.64819765 57.22322411 653.67884844 61.42646093 653.68853188 65.63086224 C653.69707386 67.23004059 653.7158613 68.82919952 653.7452755 70.42813015 C653.7843513 72.67373612 653.78520585 74.91643368 653.77735138 77.16230106 C653.78765884 78.43756153 653.79796631 79.712822 653.80858612 81.02672672 C652.83777645 85.82532583 651.01473132 88.67535978 647.0803299 91.62641239 C643.39374814 92.64535505 639.82631033 92.56701392 636.02010345 92.50730038 C634.89727459 92.51747446 633.77444572 92.52764855 632.61759174 92.53813094 C628.83343399 92.56379478 625.05124261 92.53933143 621.26709747 92.51529789 C618.53553898 92.51947857 615.80405975 92.53418567 613.07253742 92.5483886 C607.12265828 92.57369154 601.17322355 92.57289127 595.22332382 92.55505848 C586.3758155 92.52861298 577.52868304 92.54210023 568.68117735 92.56351663 C552.88095667 92.60040815 537.08093392 92.59716975 521.28069434 92.57696424 C507.45384466 92.55936872 493.62706761 92.55475217 479.80020905 92.56312275 C478.42549147 92.56392479 478.42549147 92.56392479 477.02300183 92.56474304 C473.302898 92.56692234 469.58279421 92.56915113 465.86269047 92.57146139 C430.95146 92.59288372 396.04035574 92.57344542 361.12914474 92.53578311 C330.09945916 92.50256278 299.06997466 92.50553513 268.04029083 92.53901005 C233.19371421 92.5764768 198.34724914 92.59136458 163.50065517 92.5697242 C159.78725372 92.56747911 156.07385224 92.56528924 152.36045074 92.56312275 C151.44608867 92.56256921 150.53172659 92.56201567 149.58965657 92.56144535 C135.77008035 92.55347654 121.95058466 92.56280702 108.13101959 92.58047962 C92.42054617 92.60046992 76.71030196 92.59554334 60.99985719 92.55751441 C52.20265003 92.53692335 43.40593898 92.53567106 34.60874445 92.56203764 C28.73728803 92.57769746 22.86623055 92.5680334 16.99483341 92.53750425 C13.64587086 92.52080183 10.29871036 92.51907586 6.94965041 92.54034613 C3.34565673 92.56148865 -0.25559567 92.53995527 -3.85944366 92.50730038 C-5.42634294 92.53188262 -5.42634294 92.53188262 -7.02489674 92.55696148 C-13.84596831 92.43255659 -13.84596831 92.43255659 -16.90613437 90.13495858 C-20.64301318 85.98725071 -21.6699817 82.92807847 -21.66429901 77.22577763 C-21.67160034 76.52238255 -21.67890167 75.81898746 -21.68642426 75.09427738 C-21.70251762 72.79017616 -21.67553009 70.48894181 -21.6462326 68.18500614 C-21.64519402 66.57270656 -21.64623476 64.96040443 -21.64925385 63.34810734 C-21.64907494 59.97800459 -21.62832963 56.60886416 -21.59203339 53.23896122 C-21.54662128 48.92908799 -21.54558214 44.62061654 -21.55906868 40.31056976 C-21.56576527 36.98438498 -21.55245733 33.65851724 -21.53281021 30.33239269 C-21.5251378 28.74365811 -21.52279665 27.15488818 -21.5259819 25.56613827 C-21.52672746 23.34263125 -21.50137572 21.12089261 -21.46898651 18.89765263 C-21.45977173 17.63525257 -21.45055695 16.37285252 -21.44106293 15.07219791 C-20.56987938 9.31471231 -17.32815844 5.31098628 -12.84160954 1.68080617 C-8.86972357 -0.49820727 -4.42030097 -0.05145493 0 0 Z " fill="#000000" transform="translate(310.91967010498047,529.3735876083374)"/>
<path d="M0 0 C1.11132997 -0.00957489 2.22265994 -0.01914979 3.36766657 -0.02901483 C7.10070624 -0.05260229 10.83171259 -0.02620904 14.56471157 -0.00012589 C17.26430451 -0.00675789 19.96375902 -0.01615913 22.66331667 -0.02894044 C28.5371548 -0.05113624 34.41052927 -0.04732286 40.28436565 -0.02642822 C49.01879003 0.004557 57.75285343 -0.00451117 66.48729967 -0.02155374 C82.08634904 -0.05067882 97.6851812 -0.04004224 113.28422284 -0.01291827 C126.9344638 0.01066059 140.58462997 0.02040646 154.23489094 0.01646805 C155.13999594 0.0162236 156.04510095 0.01597916 156.97763337 0.0157273 C160.65164774 0.01471149 164.32566207 0.01362507 167.99967638 0.01243639 C202.47058155 0.00144515 236.94135475 0.02966504 271.41222453 0.07658641 C302.04613481 0.11807502 332.67990816 0.12927103 363.31384182 0.11358261 C371.15854576 0.1095991 379.0032497 0.10563889 386.8479538 0.10195923 C387.8136914 0.1015047 388.779429 0.10105017 389.77443137 0.10058187 C415.3631606 0.08898078 440.95187775 0.10086055 466.54060072 0.12016654 C469.29347855 0.12222141 472.04635638 0.12427024 474.79923422 0.1263086 C476.62546158 0.12766496 478.45168892 0.12903922 480.27791625 0.13043151 C493.01675033 0.13994155 505.75555502 0.14015812 518.49439064 0.13400354 C534.90900374 0.12608271 551.32347145 0.1342655 567.73804957 0.17120209 C576.42165537 0.19026086 585.10501281 0.19561477 593.78862913 0.1812712 C599.58556288 0.17308856 605.3822809 0.18303506 611.17916678 0.20787313 C614.48437525 0.22153376 617.78897791 0.22455415 621.09420265 0.21113399 C624.65286337 0.19794595 628.21009628 0.21528723 631.7686615 0.24050903 C632.79722754 0.2293749 633.82579359 0.21824076 634.8855283 0.20676923 C641.5146357 0.29758436 644.84388187 1.43720906 649.82141018 5.87530136 C654.11189277 11.29762905 653.51684582 17.2727536 652.82141018 23.87530136 C650.99218236 30.91977444 644.3012551 34.70645731 638.82141018 38.87530136 C636.26511917 40.91991071 633.73123214 42.99167008 631.19641018 45.06280136 C629.81513018 46.1867825 628.43361628 47.31047625 627.05187893 48.43389511 C626.35497952 49.00092148 625.6580801 49.56794785 624.94006252 50.15215683 C622.83494494 51.86429326 620.72877152 53.57512105 618.62219143 55.28545761 C617.93866604 55.84056015 617.25514065 56.39566269 616.55090237 56.96758652 C615.20173486 58.0628576 613.8521333 59.15759425 612.50207424 60.2517662 C609.46694027 62.71393349 606.44090194 65.18487946 603.44250393 67.69170761 C602.45379299 68.51541855 601.46508205 69.33912949 600.44641018 70.18780136 C599.5930508 70.90580917 598.73969143 71.62381699 597.86047268 72.36358261 C595.82141018 73.87530136 595.82141018 73.87530136 593.82141018 73.87530136 C593.82141018 74.53530136 593.82141018 75.19530136 593.82141018 75.87530136 C540.94116345 76.01224015 488.06090135 76.13960614 435.18052578 76.21404648 C434.39795422 76.21515093 433.61538266 76.21625539 432.80909681 76.21739332 C415.80195202 76.24133625 398.79480535 76.26349775 381.78765586 76.283824 C373.44742577 76.29380274 365.10719618 76.30417516 356.76696682 76.31475449 C355.52203326 76.31632359 355.52203326 76.31632359 354.25194953 76.3179244 C327.34777958 76.35201884 300.44374399 76.41211194 273.53965545 76.48567913 C245.89357035 76.561138 218.24755962 76.61038444 190.60137327 76.62662128 C186.69708238 76.62892654 182.79279174 76.63153164 178.88850117 76.63431931 C178.12007631 76.63485869 177.35165145 76.63539807 176.55994098 76.6359538 C164.18739125 76.64540978 151.81507137 76.68251998 139.44261539 76.72995763 C127.00586916 76.77705213 114.56935094 76.79504619 102.13251866 76.78331238 C95.39306612 76.77776098 88.65432878 76.78616326 81.91498852 76.82894516 C75.74669848 76.86781677 69.57953863 76.86988182 63.41119706 76.84249252 C61.17818916 76.83910646 58.94511133 76.84930698 56.71224148 76.87436682 C37.93058509 77.07292281 37.93058509 77.07292281 32.15229607 71.99022293 C31.01103241 70.64423978 29.8966417 69.27459781 28.82141018 67.87530136 C27.68830549 66.9074912 26.5309174 65.96627569 25.33703518 65.07452011 C24.80110744 64.66048935 24.26517971 64.24645859 23.71301174 63.81988144 C23.17128323 63.40504501 22.62955471 62.99020859 22.07141018 62.56280136 C16.74607766 58.43370761 11.56366198 54.17048334 6.44006252 49.79449081 C3.23289194 47.05902071 -0.00645068 44.3765715 -3.30358982 41.75030136 C-4.08991795 41.12252792 -4.87624607 40.49475449 -5.68640232 39.84795761 C-7.50612051 38.40758506 -9.33563945 36.97956973 -11.17077732 35.55889511 C-12.16335545 34.77643417 -13.15593357 33.99397324 -14.17858982 33.18780136 C-15.53983982 32.13012558 -15.53983982 32.13012558 -16.92858982 31.05108261 C-20.08917763 27.9947503 -21.02066896 25.49166782 -21.44421482 21.15655136 C-21.43905857 20.23873886 -21.43390232 19.32092636 -21.42858982 18.37530136 C-21.43374607 17.45748886 -21.43890232 16.53967636 -21.44421482 15.59405136 C-20.84077724 9.41769023 -18.21147979 6.33570542 -13.59308959 2.40083358 C-9.26697873 -0.33249511 -4.9920516 -0.08250091 0 0 Z " fill="#010101" transform="translate(311.1785898208618,651.124698638916)"/>
<path d="M0 0 C4.05566586 2.06470262 6.43467536 3.72633463 8 8 C8.19128772 10.5861625 8.27420842 13.06357981 8.26069641 15.6489563 C8.26643473 16.81109565 8.26643473 16.81109565 8.27228898 17.99671257 C8.28261611 20.5956962 8.27862718 23.19445878 8.2746582 25.79345703 C8.27900529 27.65644536 8.28418843 29.5194319 8.29014587 31.38241577 C8.30355923 36.44936168 8.30411109 41.51623309 8.30158257 46.5831933 C8.30051271 50.82167341 8.30539752 55.06013846 8.310188 59.29861534 C8.32129495 69.31383442 8.32171636 79.32901602 8.31567383 89.34423828 C8.30965588 99.64139614 8.32188668 109.93841659 8.3432439 120.235551 C8.3609375 129.09529648 8.3668484 137.95499857 8.36360615 146.81476104 C8.36180273 152.09704623 8.36433312 157.37923379 8.37832069 162.66150284 C8.3910181 167.64379249 8.38884389 172.62587121 8.37590981 177.60815811 C8.37356873 179.42279129 8.37618835 181.23743985 8.38453293 183.05205536 C8.56766437 226.02634616 -8.01100272 267.84333884 -35 301 C-35.78503906 301.97710938 -36.57007813 302.95421875 -37.37890625 303.9609375 C-51.71257446 321.66580686 -51.71257446 321.66580686 -56.09716797 322.30639648 C-58.69032736 322.37644615 -61.28091163 322.42089488 -63.875 322.4375 C-64.77347656 322.47037109 -65.67195312 322.50324219 -66.59765625 322.53710938 C-71.24160895 322.5748372 -73.30932023 322.54041738 -77.0703125 319.59765625 C-79.78589311 315.94206697 -80.51757718 313.44011654 -80.48046875 308.81640625 C-79.65067354 303.95232214 -77.16526935 299.83331661 -74.87109375 295.51953125 C-69.19194913 284.83704836 -66.28230778 273.91149859 -63.54541016 262.20849609 C-63.08829634 260.35753299 -62.54435194 258.52830915 -61.98046875 256.70703125 C-58.83852201 244.82771867 -58.7098992 233.0880055 -58.72875977 220.90258789 C-58.7243642 219.00894956 -58.71905905 217.11531317 -58.71292114 215.22167969 C-58.70149019 211.16980371 -58.69596689 207.11797955 -58.69503975 203.06608772 C-58.69308806 196.65740896 -58.67497821 190.24883668 -58.65428162 183.8401947 C-58.60525846 167.93406094 -58.57417036 152.02789869 -58.55297852 136.1217041 C-58.53645654 123.73414352 -58.51367612 111.34667548 -58.46995777 98.95917696 C-58.44818867 92.58910525 -58.44012264 86.21920944 -58.44235051 79.84910309 C-58.44068453 75.89145344 -58.42664226 71.93391903 -58.40913773 67.97631073 C-58.40353704 66.1421257 -58.40305407 64.3079168 -58.40807533 62.47373009 C-58.41421311 59.96924793 -58.40199243 57.46549365 -58.38526917 54.96107483 C-58.39148098 54.23646641 -58.3976928 53.511858 -58.40409285 52.76529175 C-58.3337315 46.9791743 -56.76708802 43.05986 -53.01953125 38.69140625 C-52.29121094 37.98886719 -51.56289063 37.28632813 -50.8125 36.5625 C-50.09707031 35.86253906 -49.38164063 35.16257812 -48.64453125 34.44140625 C-46.53402497 32.4930068 -44.39894896 30.59725323 -42.23046875 28.71484375 C-37.87576131 24.92453166 -33.68330695 20.97757054 -29.5 17 C-25.28443284 12.99175581 -21.05470857 9.00327405 -16.71875 5.125 C-15.7896582 4.29355469 -15.7896582 4.29355469 -14.84179688 3.4453125 C-10.14259809 -0.24228782 -5.83450005 -0.82916639 0 0 Z " fill="#020202" transform="translate(1031,453)"/>
<path d="M0 0 C6.35590296 2.79065522 11.06255829 7.84190834 15.80859375 12.76953125 C17.83894523 14.83607437 19.92677948 16.74020591 22.125 18.625 C25.31733689 21.36309133 28.27643499 24.25140753 31.21875 27.25390625 C33.07733563 29.07580927 35.01535989 30.75437252 37 32.4375 C41.46593295 36.28534086 46.33406853 40.66813706 49 46 C49.10112935 48.50157925 49.1416622 50.97564587 49.13803101 53.47764587 C49.14085229 54.25815813 49.14367357 55.03867039 49.14658034 55.84283453 C49.15495087 58.47327654 49.15626677 61.1036766 49.15771484 63.73413086 C49.16238179 65.61490498 49.16752515 67.49567797 49.17311096 69.37644958 C49.18441041 73.43720837 49.19283616 77.49795975 49.19923019 81.55872917 C49.20991168 87.99528099 49.23016202 94.43178023 49.25234985 100.86830139 C49.31425262 119.17576661 49.36812415 137.4832302 49.40136719 155.79077148 C49.41979402 165.89431986 49.44883947 175.99778148 49.4893719 186.10126597 C49.51032578 191.44228265 49.52588236 196.78319048 49.52817917 202.12425041 C49.53034891 207.16481878 49.54645146 212.20516144 49.57256889 217.24566078 C49.57967868 219.08082199 49.58190413 220.9160108 49.57846642 222.75118256 C49.55219577 239.4644242 51.47350288 255.47077968 56.375 271.5 C56.6534375 272.46679688 56.931875 273.43359375 57.21875 274.4296875 C59.91472235 283.48912612 63.71902984 291.8132448 68.3125 300.0625 C70.98068614 305.38504747 72.48389258 310.08609235 71 316 C68.80977082 318.82424288 67.16982793 320.41508603 64 322 C57.15147404 322.83408047 48.80077242 323.5864581 42.3515625 320.89453125 C40.24511901 319.09472194 38.68243887 317.20293194 37 315 C36.19175781 314.11183594 35.38351562 313.22367188 34.55078125 312.30859375 C13.48282918 289.06014492 -2.68883303 259.46785024 -11.25 229.3125 C-11.48412598 228.51376465 -11.71825195 227.7150293 -11.95947266 226.89208984 C-18.20891929 203.69073923 -17.46368442 179.80680724 -17.43590808 156.00425339 C-17.43278674 151.86811613 -17.43893934 147.73201205 -17.44494683 143.59587955 C-17.45890089 133.84644279 -17.45750073 124.09709388 -17.44604492 114.34765625 C-17.43450577 104.30545436 -17.44875681 94.26351773 -17.4754414 84.22135067 C-17.49758159 75.56354112 -17.50424153 66.90581501 -17.49836498 58.24797916 C-17.49499827 53.0915138 -17.49739477 47.93521945 -17.51461601 42.77877808 C-17.53006173 37.94560223 -17.52615619 33.11282314 -17.50731087 28.27966309 C-17.50362189 26.50835242 -17.50674244 24.73701242 -17.51719666 22.96572876 C-17.53038398 20.54692505 -17.51888152 18.12944038 -17.50120544 15.71069336 C-17.51081045 15.01167876 -17.52041546 14.31266417 -17.53031152 13.59246731 C-17.45578853 8.63207913 -16.11233719 5.81516466 -13 2 C-8.69299008 -0.87133995 -5.05169435 -0.81621262 0 0 Z " fill="#020202" transform="translate(232,453)"/>
<path d="M0 0 C3.00874098 1.33803458 4.98385643 2.77584376 7.20703125 5.1953125 C7.79000977 5.82469727 8.37298828 6.45408203 8.97363281 7.10253906 C9.88387207 8.10365723 9.88387207 8.10365723 10.8125 9.125 C11.44124023 9.80788086 12.06998047 10.49076172 12.71777344 11.19433594 C16.30012616 15.0967742 19.8406323 19.03204762 23.296875 23.046875 C25.49365905 25.56612276 27.74689619 28.03102996 30 30.5 C33.45328153 34.28662998 36.86099051 38.1047632 40.22265625 41.97265625 C42.29359487 44.33489173 44.39512848 46.66795853 46.5 49 C49.77515184 52.62982141 53.01521208 56.28638781 56.2265625 59.97265625 C59.46047858 63.66957793 62.732083 67.33314248 66 71 C65.67 71.99 65.34 72.98 65 74 C49.16 74 33.32 74 17 74 C17.00523682 77.35728271 17.01047363 80.71456543 17.01586914 84.17358398 C17.03240242 95.23771825 17.04347017 106.30185304 17.05181217 117.36599636 C17.05697489 124.07741868 17.06401713 130.78882932 17.07543945 137.50024414 C17.08626565 143.97113736 17.09227626 150.44201842 17.09487724 156.91292 C17.09673198 159.38778945 17.1003535 161.8626582 17.10573006 164.33752251 C17.11293693 167.79070373 17.11399109 171.24383401 17.11352539 174.69702148 C17.11712067 175.73135818 17.12071594 176.76569489 17.12442017 177.83137512 C17.1230455 178.76672089 17.12167084 179.70206665 17.12025452 180.66575623 C17.12117631 181.4833866 17.1220981 182.30101698 17.12304783 183.14342403 C17 185 17 185 16 186 C5.77 186 -4.46 186 -15 186 C-15 149.04 -15 112.08 -15 74 C-31.17 74 -47.34 74 -64 74 C-63.06181237 70.24724949 -62.84822026 69.47583603 -60.375 66.93359375 C-59.83818604 66.37164307 -59.30137207 65.80969238 -58.74829102 65.23071289 C-58.17135498 64.63895264 -57.59441895 64.04719238 -57 63.4375 C-53.01863221 59.26141785 -49.15457201 55.08484396 -45.5625 50.5625 C-40.7595362 44.56101474 -35.49476717 39.03076423 -30.2265625 33.44140625 C-27.30825324 30.34226514 -24.4803901 27.17924102 -21.703125 23.953125 C-19.50634095 21.43387724 -17.25310381 18.96897004 -15 16.5 C-11.43768326 12.59609124 -7.92386407 8.65863351 -4.47265625 4.65625 C-3.0365188 3.04107155 -1.54400223 1.51173949 0 0 Z " fill="#060606" transform="translate(626,312)"/>
<path d="M0 0 C0.79719955 0.00222061 1.59439911 0.00444122 2.41575623 0.00672913 C3.76704369 0.00684242 3.76704369 0.00684242 5.14562988 0.00695801 C6.12478867 0.01211929 7.10394745 0.01728058 8.11277771 0.02259827 C9.11018478 0.02401321 10.10759186 0.02542816 11.13522339 0.02688599 C14.3348027 0.03250337 17.53431315 0.04505881 20.73387146 0.05775452 C22.89728191 0.06276728 25.06069345 0.06733057 27.22410583 0.07142639 C32.53988471 0.08247845 37.85562317 0.09923348 43.17137146 0.12025452 C40.99499954 8.63116296 38.27284483 16.90603445 35.38719177 25.19615173 C34.04574351 29.05097456 32.71640582 32.90997298 31.38621521 36.76869202 C31.11654938 37.55020126 30.84688354 38.33171051 30.56904602 39.13690186 C27.88507116 46.92678214 25.26833664 54.73850154 22.67137146 62.55775452 C22.27490417 63.75118469 21.87843689 64.94461487 21.46995544 66.17420959 C19.28422829 72.75904247 19.28422829 72.75904247 17.10887146 79.3473053 C15.48150431 84.27178611 13.81366435 89.16254397 11.9618988 94.00697327 C10.21408718 98.67931961 8.61517966 103.40627531 6.98387146 108.12025452 C6.43183044 109.71160217 6.43183044 109.71160217 5.86863708 111.33509827 C4.96865801 113.92984314 4.06959138 116.52490027 3.17137146 119.12025452 C4.26079041 119.09930725 5.35020935 119.07835999 6.47264099 119.05677795 C10.53158824 118.98413587 14.59047852 118.93836733 18.64988708 118.90052795 C20.40356625 118.88046742 22.15717899 118.85321201 23.91062927 118.8184967 C26.43781464 118.76973149 28.96411237 118.7472306 31.49168396 118.72962952 C32.27004608 118.70898438 33.0484082 118.68833923 33.85035706 118.66706848 C39.07768735 118.6649352 42.02141607 119.66102024 46.17137146 123.12025452 C47.77984328 126.33719815 47.78446295 129.64162673 47.17137146 133.12025452 C44.9956273 135.8113065 43.2607129 137.5755838 40.17137146 139.12025452 C38.76604429 139.22241516 37.35606613 139.26398508 35.94706726 139.27415466 C34.61809921 139.28705536 34.61809921 139.28705536 33.26228333 139.30021667 C32.28772186 139.30447662 31.3131604 139.30873657 30.30906677 139.31312561 C28.77226761 139.32539185 28.77226761 139.32539185 27.204422 139.33790588 C23.80278615 139.36278497 20.40119211 139.37928253 16.99949646 139.39369202 C15.8393679 139.39901569 14.67923935 139.40433937 13.48395538 139.40982437 C7.34330912 139.43656709 1.20268327 139.45593828 -4.93800354 139.47035217 C-11.28471191 139.48700114 -17.63090114 139.5317785 -23.97741318 139.58272362 C-28.85359807 139.61636076 -33.72965924 139.62792581 -38.6059494 139.63357925 C-40.94554359 139.64030163 -43.28512935 139.65554908 -45.6246109 139.67947006 C-48.89975414 139.71104676 -52.17349057 139.71116901 -55.44874573 139.70375061 C-56.41521027 139.72015594 -57.3816748 139.73656128 -58.37742615 139.75346375 C-62.81037251 139.71236589 -65.88111647 139.56181839 -69.42756653 136.74003601 C-72.01163638 133.92057597 -72.64911601 132.8795864 -72.57862854 129.12025452 C-72.59409729 128.29525452 -72.60956604 127.47025452 -72.62550354 126.62025452 C-71.68955003 123.68392977 -70.37223154 121.94857698 -67.91456604 120.07972717 C-63.39247936 117.99969433 -58.32168691 118.62140364 -53.45362854 118.80775452 C-52.33601135 118.83031311 -51.21839417 118.8528717 -50.06690979 118.87611389 C-47.31942964 118.93482073 -44.57473093 119.01688606 -41.82862854 119.12025452 C-41.73501038 118.55500061 -41.64139221 117.9897467 -41.54493713 117.40736389 C-40.18483345 109.90355039 -37.90771634 102.83013991 -35.45362854 95.62025452 C-35.06690979 94.46138733 -34.68019104 93.30252014 -34.28175354 92.10853577 C-32.57461916 87.03869037 -30.82616709 82.0146937 -28.79347229 77.06556702 C-26.44347601 71.31671926 -24.61431698 65.42085292 -22.76612854 59.49525452 C-18.88326296 47.0996684 -18.88326296 47.0996684 -16.63502502 41.2613678 C-14.78027115 36.33669584 -13.10745138 31.34443891 -11.39112854 26.37025452 C-11.00892151 25.26681702 -10.62671448 24.16337952 -10.23292542 23.02650452 C-7.97540296 16.49540391 -5.77156061 9.95076286 -3.6408844 3.37709045 C-2.4842366 0.1633687 -2.4842366 0.1633687 0 0 Z " fill="#050504" transform="translate(807.8286285400391,739.8797454833984)"/>
<path d="M0 0 C14.85 0 29.7 0 45 0 C47.45546684 6.1386671 49.83667308 12.19848614 51.953125 18.4453125 C52.21454788 19.21026031 52.47597076 19.97520813 52.74531555 20.76333618 C53.5827886 23.21635379 54.41644499 25.67064858 55.25 28.125 C55.8304794 29.82720587 56.41112847 31.52935389 56.99194336 33.23144531 C60.53970752 43.64065352 64.05660264 54.05990869 67.46386719 64.51611328 C68.80314336 68.58993673 70.21480963 72.58815816 71.85546875 76.55078125 C74.59552993 83.28244684 76.77528339 90.20157944 79.00146484 97.1159668 C79.75686811 99.45880101 80.52071898 101.79877183 81.28515625 104.13867188 C81.76873599 105.63264854 82.25182707 107.12678349 82.734375 108.62109375 C82.96243835 109.31794785 83.19050171 110.01480194 83.42547607 110.73277283 C84.34653354 113.61256507 85 115.9551787 85 119 C85.69561035 118.97381592 86.3912207 118.94763184 87.10791016 118.9206543 C90.28004085 118.81629051 93.45180978 118.7515494 96.625 118.6875 C97.71941406 118.64560547 98.81382812 118.60371094 99.94140625 118.56054688 C109.06288892 118.42234259 109.06288892 118.42234259 112.73828125 121.26953125 C115.54303954 124.65558659 115.73299663 125.89852991 115.39453125 130.0703125 C114.81449126 132.90733977 113.83644144 134.7700354 112 137 C109.09197109 138.77367071 106.91275747 139.25272284 103.52845764 139.26742554 C102.19319786 139.28022049 102.19319786 139.28022049 100.83096313 139.29327393 C99.86202118 139.29236755 98.89307922 139.29146118 97.89477539 139.29052734 C96.86834427 139.29724457 95.84191315 139.30396179 94.78437805 139.31088257 C91.38875499 139.32989253 87.99332922 139.33378814 84.59765625 139.3359375 C82.2388043 139.34236273 79.87995316 139.34909088 77.52110291 139.35610962 C72.57565462 139.36808947 67.63027623 139.37178965 62.68481445 139.37060547 C56.34484502 139.3704021 50.00532297 139.39771962 43.66545963 139.43214989 C38.79359372 139.45437474 33.92183628 139.45844438 29.04992485 139.45738602 C26.71231988 139.45974804 24.37471219 139.46860521 22.03715706 139.48405075 C18.76932439 139.50362322 15.50246716 139.49790677 12.23461914 139.48583984 C11.26770142 139.49707886 10.30078369 139.50831787 9.30456543 139.51989746 C5.00584819 139.47951435 2.64591272 139.39994606 -1.0771637 137.09463501 C-4.07787444 133.82582125 -4.33335546 131.48160066 -4.29296875 127.0390625 C-3.83745033 123.86865433 -2.24684343 122.1807598 0 120 C3.27891925 118.36054037 6.90613534 118.87969822 10.5078125 118.90234375 C11.76874222 118.90446617 11.76874222 118.90446617 13.05514526 118.90663147 C15.74513275 118.91223763 18.43503759 118.92479114 21.125 118.9375 C22.94661338 118.94251421 24.76822807 118.94707725 26.58984375 118.95117188 C31.05992777 118.96220906 35.52994986 118.9794778 40 119 C38.73421767 115.14415614 37.46146999 111.29064565 36.1875 107.4375 C35.83107422 106.35146484 35.47464844 105.26542969 35.10742188 104.14648438 C33.69420604 99.88090631 32.2909836 95.67691974 30.515625 91.546875 C28.1829335 86.08789591 26.41598289 80.44924038 24.5625 74.8125 C24.12819601 73.50004765 23.69353561 72.1877132 23.25854492 70.87548828 C22.32790643 68.0670161 21.39873403 65.25806537 20.47070312 62.44873047 C18.18451693 55.53024087 15.88746524 48.61536465 13.58676147 41.70169067 C13.0715622 40.15349359 12.55660764 38.60521506 12.04190063 37.05685425 C8.74913762 27.1553962 5.41453808 17.27243225 1.87817383 7.45458984 C0 2.2023832 0 2.2023832 0 0 Z " fill="#050504" transform="translate(403,740)"/>
<path d="M0 0 C215.49 0 430.98 0 653 0 C653 0.99 653 1.98 653 3 C591.80781623 3.01713054 530.61563218 3.03303124 469.42344666 3.04234314 C468.51853321 3.0424812 467.61361977 3.04261925 466.6812847 3.04276149 C447.0175391 3.04575404 427.35379347 3.04852427 407.6900478 3.05106533 C398.04767835 3.05231272 388.4053089 3.05360927 378.76293945 3.05493164 C377.8033812 3.0550624 376.84382295 3.05519316 375.85518718 3.05532788 C344.72401433 3.05959318 313.59284329 3.06710744 282.46167154 3.07629722 C250.48422733 3.08571973 218.50678412 3.0918831 186.52933854 3.09391499 C182.01813423 3.09420317 177.50692993 3.0945288 172.99572563 3.09487724 C172.10781045 3.09494467 171.21989526 3.09501209 170.30507355 3.09508156 C155.98212005 3.09626567 141.65916963 3.10091015 127.33621738 3.10683203 C112.95497608 3.11270477 98.57373787 3.11497163 84.19249541 3.11350138 C75.63660736 3.11273779 67.08073052 3.11479521 58.52484448 3.12079754 C52.82045417 3.12452788 47.11607126 3.12467755 41.41168045 3.12183181 C38.15440483 3.12031186 34.89715505 3.12097035 31.63988078 3.12488318 C28.14303452 3.12884261 24.64624498 3.12676624 21.14939976 3.12304783 C20.122037 3.12567484 19.09467424 3.12830186 18.03617927 3.13100848 C17.11367814 3.12876118 16.191177 3.12651389 15.24072129 3.1241985 C14.03928053 3.12443247 14.03928053 3.12443247 12.81356824 3.12467116 C11 3 11 3 10 2 C8.14712498 1.92773498 6.29166122 1.9161878 4.4375 1.9375 C3.42558594 1.94652344 2.41367187 1.95554687 1.37109375 1.96484375 C0.58863281 1.97644531 -0.19382812 1.98804688 -1 2 C-0.67 1.34 -0.34 0.68 0 0 Z " fill="#191819" transform="translate(300,530)"/>
<path d="M0 0 C9.9 0 19.8 0 30 0 C30 0.33 30 0.66 30 1 C23.73 1 17.46 1 11 1 C11 1.66 11 2.32 11 3 C10.01 3 9.02 3 8 3 C8 2.34 8 1.68 8 1 C5.36 1 2.72 1 0 1 C0 0.67 0 0.34 0 0 Z " fill="#F1F1F1" transform="translate(411,727)"/>
<path d="M0 0 C0.66 0.33 1.32 0.66 2 1 C1.113125 1.721875 0.22625 2.44375 -0.6875 3.1875 C-2.83525877 4.96129606 -4.68805423 6.72081872 -6.625 8.75 C-8.90204267 10.90719832 -9.94743703 11.66082634 -13 12 C-8.87675353 7.74790208 -4.48717034 3.86364295 0 0 Z " fill="#DEDDDE" transform="translate(958,682)"/>
<path d="M0 0 C0.33 0.99 0.66 1.98 1 3 C-1.45906075 6.87774964 -3.61740632 8.66087415 -8 10 C-7.04367001 8.70684939 -6.08486149 7.41553147 -5.125 6.125 C-4.59132813 5.40570313 -4.05765625 4.68640625 -3.5078125 3.9453125 C-2 2 -2 2 0 0 Z " fill="#232425" transform="translate(585,357)"/>
<path d="M0 0 C0.99 0.33 1.98 0.66 3 1 C0.86521834 4.20217249 -0.62795029 5.27285259 -4 7 C-4.99 7 -5.98 7 -7 7 C-4.69 4.69 -2.38 2.38 0 0 Z " fill="#1F1E1F" transform="translate(626,312)"/>
<path d="M0 0 C1.98 1.65 3.96 3.3 6 5 C5.34 5.66 4.68 6.32 4 7 C2.35 5.02 0.7 3.04 -1 1 C-0.67 0.67 -0.34 0.34 0 0 Z " fill="#1E1E1E" transform="translate(663,352)"/>
</svg>
