<?xml version="1.0" encoding="UTF-8"?>
<svg version="1.1" xmlns="http://www.w3.org/2000/svg" width="2048" height="2048">
<path d="M0 0 C675.84 0 1351.68 0 2048 0 C2048 675.84 2048 1351.68 2048 2048 C1372.16 2048 696.32 2048 0 2048 C0 1372.16 0 696.32 0 0 Z " fill="#FEFEFE" transform="translate(0,0)"/>
<path d="M0 0 C2.34560939 0.00544303 4.69120869 0.00780836 7.03682327 0.00987244 C30.28914105 0.04174487 53.31733041 0.64154133 76.43303299 3.31785583 C77.79307901 3.4651761 79.1532703 3.61116101 80.5135994 3.75584412 C134.14901146 9.49543433 187.12504873 21.82206305 238.43303299 38.31785583 C239.21356033 38.5656781 239.99408768 38.81350037 240.79826736 39.0688324 C246.03913133 40.73680656 251.24286651 42.4984821 256.43303299 44.31785583 C257.45687088 44.67653748 258.48070877 45.03521912 259.53557205 45.4047699 C279.40533844 52.41930458 298.84823818 60.31872277 318.24211502 68.5478363 C323.63097924 70.82380424 329.03323909 73.06794171 334.43303299 75.31785583 C334.43303299 285.19785583 334.43303299 495.07785583 334.43303299 711.31785583 C326.51303299 708.01785583 318.59303299 704.71785583 310.43303299 701.31785583 C294.5984004 694.82159631 278.62205653 688.87434054 262.43303299 683.31785583 C261.79708206 683.0995813 261.16113113 682.88130676 260.50590897 682.65641785 C209.46987148 665.19942636 156.94302842 652.30148831 103.43303299 645.31785583 C102.04775182 645.13365319 100.66249843 644.94924152 99.27727127 644.76463318 C95.03962004 644.20292796 90.79942396 643.66299945 86.55803299 643.13035583 C84.72607376 642.89759949 84.72607376 642.89759949 82.85710526 642.66014099 C60.02608888 639.9185654 37.22759501 638.93663203 14.24159241 638.99979782 C12.14464872 639.00545947 10.0477132 639.00826706 7.9507637 639.01087952 C-26.67207163 639.07346371 -60.38892742 641.86827802 -94.56696701 647.31785583 C-95.61626389 647.47866638 -96.66556076 647.63947693 -97.74665451 647.80516052 C-124.36931314 651.89054818 -150.90552369 658.16264996 -176.56696701 666.31785583 C-177.70343674 666.67573181 -178.83990646 667.03360779 -180.01081467 667.40232849 C-195.9757508 672.46542661 -211.5834274 678.11107001 -227.07331467 684.47093201 C-228.25973557 684.95795593 -229.44615646 685.44497986 -230.66852951 685.94676208 C-231.7134758 686.38061218 -232.75842209 686.81446228 -233.83503342 687.26145935 C-236.56696701 688.31785583 -236.56696701 688.31785583 -240.56696701 689.31785583 C-240.56696701 478.11785583 -240.56696701 266.91785583 -240.56696701 49.31785583 C-212.68110754 37.69874772 -212.68110754 37.69874772 -198.75446701 33.19285583 C-197.20775444 32.6857808 -195.66112531 32.17845115 -194.11457443 31.67088318 C-155.08772143 18.9201158 -115.62620406 9.59122992 -74.94196701 4.00535583 C-73.36862595 3.78468445 -73.36862595 3.78468445 -71.76350021 3.55955505 C-47.91886658 0.48294421 -24.00298576 -0.05798104 0 0 Z " fill="#027D04" transform="translate(824.566967010498,331.68214416503906)"/>
<path d="M0 0 C0 219.78 0 439.56 0 666 C-33.78352082 682.30928591 -33.78352082 682.30928591 -45.0625 686.625 C-45.72269135 686.88081848 -46.38288269 687.13663696 -47.06307983 687.40020752 C-116.9743722 714.46628257 -191.46577191 728.18141146 -266.4375 728.25 C-267.32153503 728.25133942 -268.20557007 728.25267883 -269.11639404 728.25405884 C-298.40042859 728.24462895 -328.0499838 726.53938347 -357 722 C-357.64652527 721.89903015 -358.29305054 721.7980603 -358.95916748 721.69403076 C-378.73070636 718.59689867 -398.42347074 715.16784498 -418 711 C-419.05348633 710.77876465 -420.10697266 710.5575293 -421.19238281 710.32958984 C-443.98581897 705.52080514 -466.72307949 699.95847233 -488.87109375 692.69335938 C-492.54988705 691.49522027 -496.23986184 690.33218452 -499.92773438 689.16235352 C-504.28654888 687.77926814 -508.64331552 686.38977753 -513 685 C-513 684.34 -513 683.68 -513 683 C-511.95585938 682.55011719 -510.91171875 682.10023438 -509.8359375 681.63671875 C-477.24694611 667.46007528 -447.67718145 650.16285 -421.34375 626.12109375 C-419.20075688 624.18168497 -417.01655362 622.30670701 -414.8125 620.4375 C-410.80371337 616.9318081 -407.4239095 613.06801129 -404 609 C-403.15308594 608.0409375 -402.30617188 607.081875 -401.43359375 606.09375 C-390.87988871 594.06924884 -380.48903364 581.41288258 -380.61523914 564.73841095 C-380.61008924 563.83434214 -380.60493933 562.93027333 -380.59963337 561.9988085 C-380.58602483 558.97143751 -380.59369686 555.94450085 -380.60127258 552.91711426 C-380.59583295 550.72406209 -380.58908132 548.53101285 -380.58113068 546.33796835 C-380.56308644 540.3131749 -380.56366479 534.28850459 -380.56726015 528.26369047 C-380.56788337 521.76613588 -380.5512698 515.26862283 -380.53674316 508.77108765 C-380.51342237 497.51416403 -380.50196454 486.25726639 -380.49761391 475.00032043 C-380.49300592 463.19503765 -380.48221704 451.38978712 -380.46318626 439.58451843 C-380.46200614 438.85030456 -380.46082601 438.11609068 -380.45961012 437.3596279 C-380.45358464 433.63087562 -380.44744886 429.90212353 -380.44127061 426.17337149 C-380.39771674 399.76760775 -380.36800155 373.36184478 -380.34643555 346.95605469 C-380.32545372 321.3043502 -380.29819679 295.65266491 -380.26245117 270.00097656 C-380.26135169 269.21017914 -380.26025222 268.41938171 -380.25911942 267.60462073 C-380.24807102 259.66305557 -380.23689512 251.72149058 -380.2256258 243.77992573 C-380.20267213 227.60226757 -380.18056941 211.42460828 -380.15898132 195.24694824 C-380.1579877 194.50313743 -380.15699409 193.75932662 -380.15597036 192.99297609 C-380.08972387 143.32866621 -380.04337573 93.66433455 -380 44 C-379.31092434 44.13840144 -378.62184868 44.27680288 -377.91189194 44.41939831 C-377.00927753 44.60037721 -376.10666313 44.78135611 -375.17669678 44.96781921 C-374.28137112 45.14747066 -373.38604546 45.3271221 -372.46358871 45.51221752 C-351.54163339 49.654696 -330.22036922 52.18238989 -309.05688477 54.75006104 C-307.25822703 54.96862197 -305.46011894 55.19169672 -303.66210938 55.41552734 C-288.09087042 57.27662114 -272.47180536 57.17418183 -256.8125 57.1875 C-255.75140015 57.18867828 -254.69030029 57.18985657 -253.5970459 57.19107056 C-232.58561707 57.18842981 -211.76365266 56.43457739 -190.875 54.125 C-189.21858889 53.94611104 -187.56217611 53.76723751 -185.90576172 53.58837891 C-165.86979183 51.51367132 -165.86979183 51.51367132 -146.15771484 47.53125 C-142.85517228 46.71813248 -139.52217873 46.07102285 -136.18774414 45.40307617 C-90.74535168 36.26776932 -45.24574955 22.37028251 -3.98730469 0.91357422 C-2 0 -2 0 0 0 Z " fill="#027D03" transform="translate(1572,477)"/>
<path d="M0 0 C0.9213826 -0.00960754 1.8427652 -0.01921509 2.79206848 -0.02911377 C3.78582993 -0.03336365 4.77959137 -0.03761353 5.8034668 -0.04199219 C6.82820602 -0.04769226 7.85294525 -0.05339233 8.90873718 -0.05926514 C11.07830778 -0.06871433 13.24789272 -0.0752488 15.41748047 -0.07910156 C18.7293415 -0.08879884 22.04057977 -0.11982 25.35229492 -0.15136719 C27.4610152 -0.15789825 29.56973991 -0.16314831 31.6784668 -0.16699219 C32.66615555 -0.17933899 33.6538443 -0.19168579 34.67146301 -0.20440674 C40.91558222 -0.18427521 45.41053015 0.48752666 50.26831055 4.77441406 C50.7375293 5.33515625 51.20674805 5.89589844 51.69018555 6.47363281 C52.1697168 7.02664063 52.64924805 7.57964844 53.14331055 8.14941406 C56.7867356 13.80111256 56.72393299 19.51874959 56.68858254 25.99858129 C56.69113871 26.99094775 56.69369488 27.98331421 56.69632852 29.00575238 C56.70248468 32.35218291 56.69431091 35.69842688 56.6862812 39.0448513 C56.68775981 41.47014182 56.69011627 43.89543194 56.6932742 46.32072085 C56.69814426 51.62129231 56.69675556 56.92180823 56.68995191 62.22237365 C56.67980655 70.157429 56.68120483 78.0924536 56.68488506 86.02751309 C56.69082108 99.54991514 56.68726606 113.07229995 56.6785965 126.59469986 C56.66984695 140.30214384 56.66545055 154.0095789 56.66640091 167.71702576 C56.66645829 168.58209402 56.66651568 169.44716229 56.6665748 170.33844474 C56.66688754 174.74926004 56.66727144 179.16007532 56.66768047 183.57089061 C56.67049714 215.51504112 56.66362802 247.45918369 56.65164566 279.40333176 C56.63980557 311.04371556 56.63209645 342.68409596 56.62994003 374.32448196 C56.62987121 375.30667566 56.62980239 376.28886937 56.62973148 377.30082651 C56.62910509 386.27149514 56.62852971 395.24216377 56.62801553 404.2128324 C56.62673664 426.51410423 56.62481794 448.81537598 56.62246513 471.11664772 C56.62230518 472.64006742 56.62230518 472.64006742 56.622142 474.19426328 C56.61689744 523.61242029 56.6042817 573.03057506 56.59106445 622.44873047 C56.58648118 639.60050454 56.58193048 656.75227862 56.57751465 673.90405273 C56.57724075 674.96779012 56.57696685 676.0315275 56.57668465 677.12749935 C56.56399929 726.56692051 56.55654622 776.00634206 56.55044506 825.44576443 C56.55004893 828.65493739 56.54965054 831.86411035 56.5492517 835.07328331 C56.54661216 856.34042668 56.54406286 877.60757005 56.54157398 898.87471343 C56.53662082 941.19198236 56.53113745 983.50925122 56.52528989 1025.82652004 C56.52501141 1027.84183317 56.5247333 1029.85714629 56.52445556 1031.87245942 C56.51194749 1122.61110036 56.493271 1213.34973965 56.47192383 1304.08837891 C56.47172396 1304.93812002 56.47152409 1305.78786113 56.47131816 1306.66335197 C56.46131699 1349.16261235 56.45091495 1391.66187261 56.44018555 1434.16113281 C31.69018555 1434.16113281 6.94018555 1434.16113281 -18.55981445 1434.16113281 C-18.58170683 1390.78352899 -18.6028946 1347.40592487 -18.62329102 1304.02832031 C-18.62369021 1303.17951803 -18.6240894 1302.33071574 -18.62450068 1301.45619217 C-18.66724279 1210.52100865 -18.70413707 1119.58582499 -18.72918701 1028.65063477 C-18.72974481 1026.63112657 -18.73030262 1024.61161837 -18.73086043 1022.59211017 C-18.74255072 980.20375734 -18.75341764 937.81540433 -18.76333317 895.42705104 C-18.76831481 874.13453964 -18.77345471 852.84202829 -18.77874422 831.54951696 C-18.77954121 828.33758639 -18.78033369 825.12565582 -18.78112597 821.91372524 C-18.79336847 772.44412851 -18.80900854 722.97453571 -18.83447266 673.50494385 C-18.83502025 672.44099437 -18.83556785 671.37704489 -18.83613204 670.28085452 C-18.84498172 653.12642148 -18.85411608 635.97198859 -18.86328821 618.81755572 C-18.88969675 569.41816651 -18.91400641 520.01878032 -18.92437363 470.61938477 C-18.92458777 469.60390319 -18.92480191 468.58842162 -18.92502254 467.54216788 C-18.92968518 445.25191698 -18.93326479 422.96166604 -18.93581838 400.6714148 C-18.9368649 391.70308267 -18.93806738 382.73475056 -18.93932343 373.76641846 C-18.93945713 372.78486285 -18.93959084 371.80330724 -18.9397286 370.79200752 C-18.94411704 339.1463334 -18.96121034 307.50068172 -18.98494329 275.85501665 C-19.00878502 243.98695304 -19.02021621 212.11891123 -19.0143104 180.25083847 C-19.01349804 175.85043985 -19.01282853 171.45004122 -19.01224518 167.04964256 C-19.01212566 166.18701304 -19.01200613 165.32438352 -19.01188299 164.43561371 C-19.01035834 150.75739819 -19.02231615 137.0792287 -19.0398539 123.40102574 C-19.05680907 109.96228085 -19.05959278 96.52359581 -19.04714171 83.08484529 C-19.04026686 75.19882454 -19.04442634 67.31299323 -19.06468246 59.42699445 C-19.07848142 53.58263446 -19.07156361 47.73842147 -19.05637436 41.89406063 C-19.05350382 39.53677236 -19.05742385 37.17946419 -19.06875543 34.82220141 C-19.08312451 31.632258 -19.07298816 28.44330238 -19.05660844 25.25339031 C-19.06664395 24.33798093 -19.07667946 23.42257154 -19.08701907 22.47942247 C-19.01136329 15.61419609 -17.33325538 10.30436586 -12.7434082 5.10253906 C-12.16719727 4.6475 -11.59098633 4.19246094 -10.99731445 3.72363281 C-10.41852539 3.25054687 -9.83973633 2.77746094 -9.2434082 2.29003906 C-6.21285001 0.25794784 -3.53821095 0.02981879 0 0 Z " fill="#017D03" transform="translate(494.559814453125,306.8388671875)"/>
<path d="M0 0 C41.56118247 10.39029562 84.68570037 22.38123212 123 42 C123 46 123 46 120.61328125 48.6640625 C119.52481464 49.66403315 118.42358819 50.65022623 117.3125 51.625 C116.72380127 52.15279053 116.13510254 52.68058105 115.52856445 53.22436523 C82.41609101 82.54449254 42.50267758 102.40836066 0 114 C0 76.38 0 38.76 0 0 Z " fill="#037C04" transform="translate(1014,1027)"/>
<path d="M0 0 C0.92461029 -0.00637985 1.84922058 -0.0127597 2.80184937 -0.01933289 C3.79874786 -0.02044571 4.79564636 -0.02155853 5.82275391 -0.02270508 C6.84986481 -0.02603348 7.87697571 -0.02936188 8.93521118 -0.03279114 C11.10898389 -0.03785573 13.28276437 -0.04019961 15.45654297 -0.04003906 C18.77926482 -0.04222315 22.10165341 -0.06037736 25.42431641 -0.0793457 C27.53629444 -0.0822802 29.64827405 -0.08426462 31.76025391 -0.08520508 C33.24952896 -0.09598335 33.24952896 -0.09598335 34.76889038 -0.10697937 C43.28685601 -0.07882789 43.28685601 -0.07882789 47.42431641 2.14526367 C47.09431641 2.80526367 46.76431641 3.46526367 46.42431641 4.14526367 C45.86456116 3.98449844 45.30480591 3.82373322 44.72808838 3.65809631 C42.28042743 3.11323317 40.07009355 2.98610694 37.56396484 2.93994141 C36.12292389 2.91002357 36.12292389 2.91002357 34.652771 2.87950134 C33.1088266 2.8544326 33.1088266 2.8544326 31.53369141 2.82885742 C30.47394104 2.80807632 29.41419067 2.78729523 28.32232666 2.7658844 C24.93972203 2.70054182 21.55704029 2.64157487 18.17431641 2.58276367 C15.88003763 2.53956392 13.58576662 2.49594916 11.29150391 2.4519043 C5.66918939 2.34487607 0.04679831 2.24308129 -5.57568359 2.14526367 C-5.57568359 2.80526367 -5.57568359 3.46526367 -5.57568359 4.14526367 C-6.31818359 4.37213867 -7.06068359 4.59901367 -7.82568359 4.83276367 C-11.18523436 6.43618563 -12.46544843 8.09764531 -14.57568359 11.14526367 C-18.28093266 22.46648437 -16.85751939 36.01330122 -16.83739662 47.74976063 C-16.84058642 50.16786139 -16.84465014 52.58596112 -16.8495059 55.00405911 C-16.85806949 60.26708686 -16.86046764 65.53006345 -16.85740478 70.79309336 C-16.85285967 78.67184766 -16.85989026 86.55056322 -16.86913648 94.4293119 C-16.88456371 107.85850551 -16.8905834 121.28768856 -16.89146996 134.71689034 C-16.8924068 148.32303135 -16.89769906 161.92916036 -16.9083004 175.53529739 C-16.90896772 176.39507704 -16.90963505 177.25485668 -16.9103226 178.14069025 C-16.91374542 182.52480725 -16.91723906 186.90892419 -16.9207577 191.29304112 C-16.94607309 223.01562834 -16.96176124 254.73821446 -16.97233963 286.46080971 C-16.9828434 317.87491528 -16.99747002 349.28901454 -17.01762009 380.70311546 C-17.01824407 381.67883302 -17.01886805 382.65455057 -17.01951094 383.65983533 C-17.02521229 392.57155462 -17.03096441 401.48327387 -17.03677747 410.39499309 C-17.05122726 432.54820838 -17.06504013 454.70142405 -17.07842064 476.85464001 C-17.07903046 477.86343183 -17.07964028 478.87222364 -17.08026858 479.91158491 C-17.10987486 528.97962849 -17.13214283 578.04767504 -17.15380859 627.11572266 C-17.16133087 644.14274092 -17.1688856 661.16975916 -17.17657471 678.19677734 C-17.17705156 679.25279936 -17.1775284 680.30882137 -17.1780197 681.39684406 C-17.20023305 730.4916982 -17.22766053 779.58654903 -17.25643242 828.68139971 C-17.2583003 831.86880433 -17.26016593 835.05620895 -17.2620311 838.24361357 C-17.2743953 859.36676905 -17.28684935 880.48992448 -17.29936358 901.61307988 C-17.32426283 943.64266068 -17.34863413 985.67224178 -17.37264271 1027.7018231 C-17.37378606 1029.70336642 -17.37492977 1031.70490974 -17.37607386 1033.70645306 C-17.42757276 1123.80755482 -17.47293004 1213.9086593 -17.515625 1304.00976562 C-17.51602481 1304.8534101 -17.51642461 1305.69705458 -17.51683653 1306.56626405 C-17.53682716 1348.75926375 -17.55641846 1390.95226363 -17.57568359 1433.14526367 C6.51431641 1433.14526367 30.60431641 1433.14526367 55.42431641 1433.14526367 C55.42431641 965.53526367 55.42431641 497.92526367 55.42431641 16.14526367 C55.75431641 16.14526367 56.08431641 16.14526367 56.42431641 16.14526367 C56.42431641 484.08526367 56.42431641 952.02526367 56.42431641 1434.14526367 C31.67431641 1434.14526367 6.92431641 1434.14526367 -18.57568359 1434.14526367 C-18.59757597 1390.76765985 -18.61876374 1347.39005573 -18.63916016 1304.01245117 C-18.63955935 1303.16364888 -18.63995854 1302.3148466 -18.64036983 1301.44032303 C-18.68311194 1210.50513951 -18.72000622 1119.56995585 -18.74505615 1028.63476562 C-18.74561395 1026.61525743 -18.74617176 1024.59574923 -18.74672957 1022.57624103 C-18.75841987 980.1878882 -18.76928678 937.79953519 -18.77920231 895.4111819 C-18.78418395 874.1186705 -18.78932385 852.82615915 -18.79461336 831.53364782 C-18.79541035 828.32171725 -18.79620283 825.10978668 -18.79699511 821.8978561 C-18.80923761 772.42825937 -18.82487768 722.95866657 -18.8503418 673.48907471 C-18.85088939 672.42512523 -18.85143699 671.36117575 -18.85200118 670.26498538 C-18.86085086 653.11055234 -18.86998522 635.95611945 -18.87915736 618.80168658 C-18.90556589 569.40229737 -18.92987555 520.00291118 -18.94024277 470.60351562 C-18.94045691 469.58803405 -18.94067105 468.57255248 -18.94089168 467.52629874 C-18.94555432 445.23604784 -18.94913393 422.9457969 -18.95168753 400.65554566 C-18.95273404 391.68721353 -18.95393652 382.71888142 -18.95519257 373.75054932 C-18.95532627 372.76899371 -18.95545998 371.7874381 -18.95559774 370.77613838 C-18.95998619 339.13046425 -18.97707948 307.48481258 -19.00081243 275.83914751 C-19.02465416 243.9710839 -19.03608535 212.10304209 -19.03017955 180.23496933 C-19.02936718 175.83457071 -19.02869767 171.43417208 -19.02811432 167.03377342 C-19.0279948 166.1711439 -19.02787527 165.30851438 -19.02775213 164.41974456 C-19.02622748 150.74152905 -19.03818529 137.06335956 -19.05572304 123.3851566 C-19.07267821 109.94641171 -19.07546192 96.50772667 -19.06301085 83.06897615 C-19.05613601 75.1829554 -19.06029548 67.29712409 -19.0805516 59.41112531 C-19.09435056 53.56676532 -19.08743275 47.72255233 -19.0722435 41.87819149 C-19.06937297 39.52090322 -19.07329299 37.16359505 -19.08462457 34.80633227 C-19.09899365 31.61638886 -19.0888573 28.42743324 -19.07247758 25.23752117 C-19.08251309 24.32211178 -19.0925486 23.4067024 -19.10288821 22.46355333 C-19.02723243 15.59832695 -17.34912452 10.28849672 -12.75927734 5.08666992 C-12.18306641 4.63163086 -11.60685547 4.1765918 -11.01318359 3.70776367 C-10.43439453 3.23467773 -9.85560547 2.7615918 -9.25927734 2.27416992 C-6.21890155 0.23549566 -3.54871472 0.01663412 0 0 Z " fill="#418741" transform="translate(494.57568359375,306.854736328125)"/>
<path d="M0 0 C0.92461029 -0.00637985 1.84922058 -0.0127597 2.80184937 -0.01933289 C3.79874786 -0.02044571 4.79564636 -0.02155853 5.82275391 -0.02270508 C6.84986481 -0.02603348 7.87697571 -0.02936188 8.93521118 -0.03279114 C11.10898389 -0.03785573 13.28276437 -0.04019961 15.45654297 -0.04003906 C18.77926482 -0.04222315 22.10165341 -0.06037736 25.42431641 -0.0793457 C27.53629444 -0.0822802 29.64827405 -0.08426462 31.76025391 -0.08520508 C33.24952896 -0.09598335 33.24952896 -0.09598335 34.76889038 -0.10697937 C43.28685601 -0.07882789 43.28685601 -0.07882789 47.42431641 2.14526367 C47.09431641 2.80526367 46.76431641 3.46526367 46.42431641 4.14526367 C45.86456116 3.98449844 45.30480591 3.82373322 44.72808838 3.65809631 C42.28042743 3.11323317 40.07009355 2.98610694 37.56396484 2.93994141 C36.12292389 2.91002357 36.12292389 2.91002357 34.652771 2.87950134 C33.1088266 2.8544326 33.1088266 2.8544326 31.53369141 2.82885742 C30.47394104 2.80807632 29.41419067 2.78729523 28.32232666 2.7658844 C24.93972203 2.70054182 21.55704029 2.64157487 18.17431641 2.58276367 C15.88003763 2.53956392 13.58576662 2.49594916 11.29150391 2.4519043 C5.66918939 2.34487607 0.04679831 2.24308129 -5.57568359 2.14526367 C-5.57568359 2.80526367 -5.57568359 3.46526367 -5.57568359 4.14526367 C-6.31818359 4.37213867 -7.06068359 4.59901367 -7.82568359 4.83276367 C-11.18171064 6.43450385 -12.4635037 8.10482944 -14.57568359 11.14526367 C-18.60114178 23.05050341 -16.86472563 37.72481235 -16.85415649 50.08137512 C-16.85916266 52.7407224 -16.86495612 55.40005744 -16.87170923 58.05939978 C-16.88478612 63.82958796 -16.89056428 69.59974694 -16.89146996 75.36994934 C-16.89285017 83.94992292 -16.90565884 92.52985329 -16.9207577 101.10981235 C-16.94583943 115.54504931 -16.9617295 129.98028261 -16.97233963 144.41553688 C-16.98287171 158.70353801 -16.99751453 172.99152523 -17.01762009 187.27951622 C-17.01886895 188.16865724 -17.02011782 189.05779825 -17.02140453 189.97388294 C-17.02776849 194.4895754 -17.03420562 199.00526774 -17.04067092 203.52096006 C-17.0863059 235.48662237 -17.12276541 267.45228921 -17.15380859 299.41796875 C-17.18398339 330.46778016 -17.21832696 361.5175824 -17.25830078 392.56738281 C-17.25953178 393.52485687 -17.26076279 394.48233092 -17.2620311 395.46881934 C-17.27439819 405.08436714 -17.28684989 414.69991482 -17.29936358 424.31546243 C-17.32485235 443.90258366 -17.34977651 463.48970561 -17.37435913 483.076828 C-17.37549004 483.97736712 -17.37662095 484.87790624 -17.37778613 485.80573442 C-17.45321233 545.91890017 -17.51547784 606.03208099 -17.57568359 666.14526367 C-17.90568359 666.14526367 -18.23568359 666.14526367 -18.57568359 666.14526367 C-18.64422906 604.19385833 -18.7078287 542.24244861 -18.74505615 480.29101562 C-18.74560838 479.37438094 -18.74616061 478.45774626 -18.74672957 477.51333477 C-18.75870069 457.59326643 -18.7697815 437.67319769 -18.77994491 417.75312835 C-18.78493434 407.98458873 -18.79012054 398.21604922 -18.79541016 388.44750977 C-18.79593319 387.47541324 -18.79645623 386.50331672 -18.79699511 385.50176273 C-18.81404604 353.98298769 -18.8440954 322.4642413 -18.88087248 290.94548362 C-18.9185914 258.56078507 -18.94322271 226.17610238 -18.95134355 193.79138224 C-18.9524962 189.21917747 -18.95379875 184.64697276 -18.95519257 180.07476807 C-18.95546226 179.17487649 -18.95573195 178.27498491 -18.95600981 177.34782389 C-18.96074003 162.85142267 -18.97930128 148.35507043 -19.00301173 133.8586892 C-19.02654389 119.2913629 -19.03555973 104.72408525 -19.0296891 90.15674061 C-19.0266426 81.49783501 -19.03479496 72.83910722 -19.05887377 64.18023367 C-19.07385649 58.39824986 -19.07435016 52.61638268 -19.06301085 46.83439086 C-19.05696331 43.53842481 -19.0594678 40.24286397 -19.07521632 36.94692016 C-19.09119903 33.39650057 -19.0826593 29.84695984 -19.06787491 26.29655457 C-19.07838296 25.27314179 -19.08889102 24.24972902 -19.0997175 23.19530374 C-19.03162278 15.99028811 -17.58879323 10.56012125 -12.75927734 5.08666992 C-12.18306641 4.63163086 -11.60685547 4.1765918 -11.01318359 3.70776367 C-10.43439453 3.23467773 -9.85560547 2.7615918 -9.25927734 2.27416992 C-6.21890155 0.23549566 -3.54871472 0.01663412 0 0 Z " fill="#237624" transform="translate(494.57568359375,306.854736328125)"/>
<path d="M0 0 C0 0.99 0 1.98 0 3 C-1.21798288 3.517084 -1.21798288 3.517084 -2.46057147 4.04461414 C-5.14473435 5.68731144 -5.14473435 5.68731144 -5.47220079 7.97920742 C-5.64716825 10.75813216 -5.66261775 13.50172156 -5.63085651 16.28617382 C-5.63831411 17.36175264 -5.6457717 18.43733147 -5.65345529 19.54550359 C-5.67251918 23.18661661 -5.6556463 26.8267053 -5.63923645 30.46781921 C-5.64554158 33.08966261 -5.65404038 35.71150151 -5.66455668 38.33333141 C-5.68393964 44.05262578 -5.68468869 49.7716904 -5.67340279 55.49100304 C-5.65670465 63.99541522 -5.66853368 72.49961839 -5.68631649 81.0040198 C-5.71541342 95.30823175 -5.72121343 109.61236531 -5.71384621 123.91660118 C-5.70662494 138.08449331 -5.70969072 152.25232134 -5.72656822 166.42020607 C-5.72761087 167.30033006 -5.72865352 168.18045404 -5.72972776 169.08724845 C-5.73507634 173.55675028 -5.74060941 178.02625187 -5.74621352 182.49575339 C-5.78560015 214.17303274 -5.80181195 245.85028595 -5.80444336 277.52758789 C-5.80705303 308.30624877 -5.82012985 339.08487605 -5.84741211 369.86352539 C-5.84824853 370.81185632 -5.84908496 371.76018724 -5.84994673 372.73725547 C-5.85835785 382.26057574 -5.86698214 391.78389581 -5.87576263 401.30721574 C-5.89364548 420.70821218 -5.9101053 440.10920973 -5.92570496 459.51020813 C-5.926424 460.40228173 -5.92714303 461.29435532 -5.92788386 462.21346145 C-5.97575654 521.80896287 -5.99045444 581.40448163 -6 641 C-5.01 641.33 -4.02 641.66 -3 642 C-4.32 642.33 -5.64 642.66 -7 643 C-7 431.8 -7 220.6 -7 3 C-4.69 2.01 -2.38 1.02 0 0 Z " fill="#227A24" transform="translate(591,378)"/>
<path d="M0 0 C7.15891094 -0.18377601 13.94683363 0.70870885 21.01757812 1.7578125 C43.73562762 4.93738556 66.35574743 5.27213193 89.23883057 5.1373291 C93.17547368 5.11644176 97.11214495 5.10764617 101.04882812 5.09765625 C108.69929214 5.0765486 116.34962246 5.0426636 124 5 C124 5.33 124 5.66 124 6 C115.84715549 7.80427022 108.07994271 8.28200835 99.74609375 8.23046875 C98.523423 8.23001053 97.30075226 8.22955231 96.04103088 8.2290802 C93.47875996 8.22607858 90.91649051 8.21825568 88.35424805 8.20581055 C84.417741 8.18740763 80.48146771 8.18530217 76.54492188 8.18554688 C74.04947712 8.18063637 71.55403396 8.17481011 69.05859375 8.16796875 C67.87849228 8.16685593 66.69839081 8.1657431 65.48252869 8.16459656 C64.39702225 8.15821671 63.31151581 8.15183685 62.19311523 8.14526367 C61.23590073 8.14145187 60.27868622 8.13764008 59.29246521 8.13371277 C57 8 57 8 55 7 C53.36923953 6.85950149 51.73351503 6.77429799 50.09765625 6.71875 C49.12505859 6.68136719 48.15246094 6.64398437 47.15039062 6.60546875 C46.13138672 6.57066406 45.11238281 6.53585937 44.0625 6.5 C42.05324328 6.4311112 40.0441141 6.3583642 38.03515625 6.28125 C37.1419165 6.25095703 36.24867676 6.22066406 35.32836914 6.18945312 C33 6 33 6 30 5 C26.54277237 4.741247 23.09143556 4.55711958 19.62890625 4.39453125 C14.10148709 4.10148709 14.10148709 4.10148709 13 3 C9.89850354 2.71599669 6.79707354 2.5512529 3.6875 2.37890625 C2.3571875 2.19134766 2.3571875 2.19134766 1 2 C0.67 1.34 0.34 0.68 0 0 Z " fill="#107111" transform="translate(1234,529)"/>
<path d="M0 0 C0.92461029 -0.00637985 1.84922058 -0.0127597 2.80184937 -0.01933289 C3.79874786 -0.02044571 4.79564636 -0.02155853 5.82275391 -0.02270508 C6.84986481 -0.02603348 7.87697571 -0.02936188 8.93521118 -0.03279114 C11.10898389 -0.03785573 13.28276437 -0.04019961 15.45654297 -0.04003906 C18.77926482 -0.04222315 22.10165341 -0.06037736 25.42431641 -0.0793457 C27.53629444 -0.0822802 29.64827405 -0.08426462 31.76025391 -0.08520508 C33.24952896 -0.09598335 33.24952896 -0.09598335 34.76889038 -0.10697937 C43.28685601 -0.07882789 43.28685601 -0.07882789 47.42431641 2.14526367 C47.09431641 2.80526367 46.76431641 3.46526367 46.42431641 4.14526367 C45.86456116 3.98449844 45.30480591 3.82373322 44.72808838 3.65809631 C42.28042743 3.11323317 40.07009355 2.98610694 37.56396484 2.93994141 C36.12292389 2.91002357 36.12292389 2.91002357 34.652771 2.87950134 C33.1088266 2.8544326 33.1088266 2.8544326 31.53369141 2.82885742 C30.47394104 2.80807632 29.41419067 2.78729523 28.32232666 2.7658844 C24.93972203 2.70054182 21.55704029 2.64157487 18.17431641 2.58276367 C15.88003763 2.53956392 13.58576662 2.49594916 11.29150391 2.4519043 C5.66918939 2.34487607 0.04679831 2.24308129 -5.57568359 2.14526367 C-5.57568359 2.80526367 -5.57568359 3.46526367 -5.57568359 4.14526367 C-6.31818359 4.37213867 -7.06068359 4.59901367 -7.82568359 4.83276367 C-11.22396962 6.45467291 -12.48235142 8.02242388 -14.57568359 11.14526367 C-15.47588813 14.47629234 -15.47588813 14.47629234 -15.82568359 17.95776367 C-15.97521484 19.11920898 -16.12474609 20.2806543 -16.27880859 21.47729492 C-16.37677734 22.35772461 -16.47474609 23.2381543 -16.57568359 24.14526367 C-16.90568359 24.14526367 -17.23568359 24.14526367 -17.57568359 24.14526367 C-18.19802402 13.46175303 -18.19802402 13.46175303 -15.95068359 8.70776367 C-11.18447087 3.565271 -7.30273242 0.03423057 0 0 Z " fill="#186A1A" transform="translate(494.57568359375,306.854736328125)"/>
<path d="M0 0 C9.49315166 -0.1020769 18.9541768 -0.04616509 28.4375 0.4375 C29.65240112 0.49635376 29.65240112 0.49635376 30.8918457 0.55639648 C34.12711564 0.73596138 36.91116689 0.97038896 40 2 C42.1637737 2.20076251 44.33124078 2.3632314 46.5 2.5 C49.93803558 2.71681305 52.72826805 2.90942268 56 4 C58.05893621 4.22325814 60.12233653 4.40705759 62.1875 4.5625 C63.81751953 4.68818359 63.81751953 4.68818359 65.48046875 4.81640625 C66.72763672 4.90728516 66.72763672 4.90728516 68 5 C68 5.66 68 6.32 68 7 C58.47020349 6.6245053 49.07990042 5.82388101 39.625 4.5625 C26.45677907 2.81145239 13.25245701 1.85912693 0 1 C0 0.67 0 0.34 0 0 Z " fill="#2E822E" transform="translate(868,970)"/>
<path d="M0 0 C11.09421492 1.51128624 22.15658542 3.13840847 33.1875 5.0625 C34.11763916 5.22459961 35.04777832 5.38669922 36.00610352 5.55371094 C42.02202591 6.61683478 48.01465761 7.77673605 54 9 C53.34 9.66 52.68 10.32 52 11 C48.875 10.6875 48.875 10.6875 45 10 C43.54242246 9.82684806 42.08407126 9.66007796 40.625 9.5 C37 9 37 9 36 8 C34.35892758 7.79160985 32.71143707 7.63248275 31.0625 7.5 C26.21955403 7.10977702 26.21955403 7.10977702 24 6 C21.66922657 5.69208131 19.33758104 5.49104726 16.99609375 5.28125 C15 5 15 5 14 4 C12.02490127 3.7905639 10.04428318 3.63196178 8.0625 3.5 C2.22008253 3.11004127 2.22008253 3.11004127 0 2 C0 1.34 0 0.68 0 0 Z " fill="#176F18" transform="translate(923,338)"/>
<path d="M0 0 C0 0.33 0 0.66 0 1 C-7.4792826 2.60108354 -14.54741077 3.29032758 -22.1875 3.1875 C-23.20328125 3.18105469 -24.2190625 3.17460938 -25.265625 3.16796875 C-36.51943422 3.05750191 -47.76108449 2.56616187 -59 2 C-59 1.67 -59 1.34 -59 1 C-53.49063357 0.85458923 -47.98119668 0.71234353 -42.47167969 0.57275391 C-40.60609857 0.52507439 -38.74053755 0.47660069 -36.875 0.42724609 C-24.58006891 0.10264931 -12.29924325 -0.06804561 0 0 Z " fill="#257727" transform="translate(1358,534)"/>
<path d="M0 0 C1.99954746 -0.04254356 4.00041636 -0.04080783 6 0 C6.33 0.33 6.66 0.66 7 1 C9.12282377 1.23586931 11.24604404 1.46870108 13.37109375 1.68359375 C25.09459459 3.09459459 25.09459459 3.09459459 27 5 C28.32781878 5.20604085 29.66295895 5.3662959 31 5.5 C34.88888889 5.88888889 34.88888889 5.88888889 36 7 C37.2375 7.12375 38.475 7.2475 39.75 7.375 C43.46706495 7.78280749 45.92361318 8.78884697 49 11 C45.95959621 12.5202019 43.82415096 11.4386461 40.55078125 10.671875 C39.57627266 10.44736664 39.57627266 10.44736664 38.58207703 10.21832275 C36.49065079 9.73536542 34.40154273 9.24315581 32.3125 8.75 C29.60101133 8.11653206 26.88848583 7.48761201 24.17578125 6.859375 C23.17032761 6.62402039 23.17032761 6.62402039 22.14456177 6.38391113 C18.66345419 5.57749306 15.18106236 4.82807563 11.66943359 4.16601562 C10.97633591 4.03471252 10.28323822 3.90340942 9.56913757 3.76812744 C7.6494088 3.41045621 5.72746427 3.06473786 3.80541992 2.71972656 C2.87963135 2.4822168 1.95384277 2.24470703 1 2 C0.67 1.34 0.34 0.68 0 0 Z " fill="#2C812D" transform="translate(965,981)"/>
<path d="M0 0 C7.50079204 1.36727773 14.79424643 3.22696364 22.125 5.3125 C23.21288818 5.61937744 24.30077637 5.92625488 25.42163086 6.24243164 C33.99682914 8.67717657 42.51863854 11.2571454 51 14 C51 14.33 51 14.66 51 15 C45.43377707 14.55823628 40.694694 13.70801043 35.453125 11.8203125 C32.64364515 10.88083675 29.81865292 10.18771238 26.9375 9.5 C23.4106894 8.64962689 20.05655625 7.72001083 16.6875 6.375 C13.05100531 5.01901893 9.83188672 4.49672606 6 4 C3.98583438 3.37743972 1.97984481 2.72433347 0 2 C0 1.34 0 0.68 0 0 Z " fill="#166D17" transform="translate(1022,359)"/>
<path d="M0 0 C-0.33 0.99 -0.66 1.98 -1 3 C-1.71027344 3.06058594 -2.42054687 3.12117187 -3.15234375 3.18359375 C-4.07144531 3.26738281 -4.99054688 3.35117187 -5.9375 3.4375 C-6.85402344 3.51871094 -7.77054688 3.59992187 -8.71484375 3.68359375 C-10.96159732 3.76044976 -10.96159732 3.76044976 -12 5 C-15.10042773 5.32446337 -18.2020725 5.51334441 -21.3125 5.71875 C-23.91596752 5.70607799 -23.91596752 5.70607799 -25 7 C-27.69654854 7.07319621 -30.36691458 7.09242537 -33.0625 7.0625 C-33.82111328 7.05798828 -34.57972656 7.05347656 -35.36132812 7.04882812 C-37.24091871 7.0370068 -39.12046899 7.01907078 -41 7 C-41 6.67 -41 6.34 -41 6 C-40.16339844 5.88930176 -39.32679687 5.77860352 -38.46484375 5.66455078 C-35.32583392 5.24697209 -32.18741165 4.8252718 -29.04931641 4.40087891 C-27.69764592 4.21891707 -26.34576062 4.03854296 -24.99365234 3.85986328 C-16.08465292 2.73373627 -16.08465292 2.73373627 -7.3125 0.8671875 C-4 0 -4 0 0 0 Z " fill="#247D25" transform="translate(1432,524)"/>
<path d="M0 0 C1.97956441 0.14033111 3.95865141 0.2874123 5.9375 0.4375 C7.03964844 0.51871094 8.14179687 0.59992188 9.27734375 0.68359375 C12 1 12 1 13 2 C15.32817964 2.36760731 17.6618385 2.70241581 20 3 C20 3.66 20 4.32 20 5 C21.299375 4.979375 22.59875 4.95875 23.9375 4.9375 C25.29165633 4.91600546 26.64756083 4.92851801 28 5 C28.33 5.33 28.66 5.66 29 6 C30.155 6.144375 31.31 6.28875 32.5 6.4375 C33.655 6.623125 34.81 6.80875 36 7 C36.495 7.99 36.495 7.99 37 9 C28.66484489 8.53907531 20.91176867 6.61018104 12.875 4.4375 C11.01101563 3.9434668 11.01101563 3.9434668 9.109375 3.43945312 C6.07102635 2.63312214 3.03472534 1.81984213 0 1 C0 0.67 0 0.34 0 0 Z " fill="#308430" transform="translate(1108,1176)"/>
<path d="M0 0 C12.06906735 0.54210941 24.00735259 1.53990227 36 3 C32.33134759 5.44576827 30.32799657 5.23607254 26 5 C25.34 4.67 24.68 4.34 24 4 C22.61149033 3.872599 21.21785878 3.79815116 19.82421875 3.75390625 C18.99599609 3.72103516 18.16777344 3.68816406 17.31445312 3.65429688 C15.57498833 3.5935126 13.83539946 3.53617285 12.09570312 3.48242188 C7.66386555 3.30047967 4.03382022 3.05433731 0 1 C0 0.67 0 0.34 0 0 Z " fill="#166F17" transform="translate(883,334)"/>
<path d="M0 0 C0 0.33 0 0.66 0 1 C-4.34796599 2.62966252 -8.18319824 3.31384036 -12.8125 3.5625 C-16.72464266 3.4394828 -16.72464266 3.4394828 -20 5 C-23.4375 5.1875 -23.4375 5.1875 -27 5 C-27.66 4.34 -28.32 3.68 -29 3 C-25.85591216 2.48860403 -22.70951427 1.99303964 -19.5625 1.5 C-18.68400391 1.35691406 -17.80550781 1.21382813 -16.90039062 1.06640625 C-11.19328375 0.18190998 -5.77505428 -0.14099827 0 0 Z " fill="#237724" transform="translate(757,336)"/>
<path d="M0 0 C0 0.33 0 0.66 0 1 C-4.30481654 1.83719626 -8.60983524 2.67334306 -12.91503906 3.50854492 C-14.37765932 3.79244061 -15.84022529 4.07661613 -17.30273438 4.36108398 C-19.41261595 4.77141858 -21.52269482 5.18072526 -23.6328125 5.58984375 C-24.90012207 5.83597412 -26.16743164 6.08210449 -27.47314453 6.33569336 C-30.64320819 6.93279589 -33.81591816 7.48360449 -37 8 C-37 7.34 -37 6.68 -37 6 C-36.00097656 5.79503906 -35.00195312 5.59007812 -33.97265625 5.37890625 C-32.68230469 5.10949219 -31.39195312 4.84007812 -30.0625 4.5625 C-28.77472656 4.29566406 -27.48695313 4.02882813 -26.16015625 3.75390625 C-23.15361121 3.32818384 -23.15361121 3.32818384 -22 2 C-19.43580381 1.5948156 -16.88858141 1.24553454 -14.3125 0.9375 C-13.24999023 0.80118164 -13.24999023 0.80118164 -12.16601562 0.66210938 C-8.08408075 0.16081913 -4.12153944 -0.0973592 0 0 Z " fill="#277C27" transform="translate(724,979)"/>
<path d="M0 0 C-2.49399165 2.49399165 -3.61442573 2.32932088 -7.0625 2.5625 C-10.33839564 2.53981953 -10.33839564 2.53981953 -13 4 C-15.69235776 4.23678716 -18.36498156 4.42198025 -21.0625 4.5625 C-22.20041992 4.62727539 -22.20041992 4.62727539 -23.36132812 4.69335938 C-25.24065438 4.79973633 -27.12030244 4.90039934 -29 5 C-29 4.67 -29 4.34 -29 4 C-24.9195446 3.13167552 -20.8352803 2.28280772 -16.75 1.4375 C-15.59113281 1.19064453 -14.43226563 0.94378906 -13.23828125 0.68945312 C-12.12324219 0.46064453 -11.00820313 0.23183594 -9.859375 -0.00390625 C-8.83295898 -0.21861572 -7.80654297 -0.4333252 -6.74902344 -0.65454102 C-4.1069232 -0.98656338 -2.49107461 -0.85728404 0 0 Z " fill="#247626" transform="translate(716,343)"/>
<path d="M0 0 C8.04212755 -0.16677223 15.98603754 0.3533402 24 1 C20.20995308 3.4970882 16.37030295 3.26271355 12 3.1875 C10.93265625 3.1865332 10.93265625 3.1865332 9.84375 3.18554688 C6.43144624 3.1568988 3.26117332 3.06157986 0 2 C0 1.34 0 0.68 0 0 Z " fill="#1E751F" transform="translate(853,332)"/>
<path d="M0 0 C6.78970406 -0.19585685 13.28047912 0.5664996 20 1.5 C21.06089844 1.64308594 22.12179687 1.78617188 23.21484375 1.93359375 C25.81057243 2.2843679 28.40554555 2.63994284 31 3 C31 3.33 31 3.66 31 4 C28.18743719 4.02684312 25.37512759 4.04676188 22.5625 4.0625 C21.76005859 4.07087891 20.95761719 4.07925781 20.13085938 4.08789062 C18.08704779 4.0965143 16.04316098 4.0522815 14 4 C13.67 3.67 13.34 3.34 13 3 C9.89850354 2.71599669 6.79707354 2.5512529 3.6875 2.37890625 C2.3571875 2.19134766 2.3571875 2.19134766 1 2 C0.67 1.34 0.34 0.68 0 0 Z " fill="#1C751E" transform="translate(1234,529)"/>
<path d="M0 0 C-0.33 0.99 -0.66 1.98 -1 3 C-1.91523437 3.12117188 -2.83046875 3.24234375 -3.7734375 3.3671875 C-5.55621094 3.61855469 -5.55621094 3.61855469 -7.375 3.875 C-8.55835938 4.03742188 -9.74171875 4.19984375 -10.9609375 4.3671875 C-14.09566659 4.7302585 -14.09566659 4.7302585 -16 7 C-18.65537372 7.56520003 -21.29144713 7.73788198 -24 8 C-24.33 7.34 -24.66 6.68 -25 6 C-21.39753737 4.99379031 -17.79276877 3.99610413 -14.1875 3 C-13.16333984 2.71382813 -12.13917969 2.42765625 -11.08398438 2.1328125 C-10.10107422 1.86210937 -9.11816406 1.59140625 -8.10546875 1.3125 C-6.74651489 0.93544922 -6.74651489 0.93544922 -5.36010742 0.55078125 C-3 0 -3 0 0 0 Z " fill="#287A2A" transform="translate(686,348)"/>
<path d="M0 0 C0.66 0.99 1.32 1.98 2 3 C-2.30036626 9.9929968 -6.82232736 16.62626924 -12 23 C-12.66 22.67 -13.32 22.34 -14 22 C-13.32453125 21.0821875 -12.6490625 20.164375 -11.953125 19.21875 C-7.43113581 13.01769571 -3.1058993 7.05886205 0 0 Z " fill="#217B22" transform="translate(1189,1056)"/>
<path d="M0 0 C7.39779603 -0.20298831 13.89726822 -0.1183586 21 2 C22.99601306 2.3564309 24.994845 2.69922675 27 3 C27 3.33 27 3.66 27 4 C20.82260045 4.17159443 15.08370312 3.53731344 9 2.5 C8.12988281 2.35691406 7.25976562 2.21382812 6.36328125 2.06640625 C4.24124305 1.71661973 2.12047972 1.3591135 0 1 C0 0.67 0 0.34 0 0 Z " fill="#308330" transform="translate(1211,1197)"/>
<path d="M0 0 C0 0.33 0 0.66 0 1 C-8.68761489 1.65655389 -17.28217363 2.16311941 -26 2 C-26 1.67 -26 1.34 -26 1 C-17.27132986 -1.12063136 -8.83763465 -1.98331119 0 0 Z " fill="#1F791F" transform="translate(804,970)"/>
<path d="M0 0 C0 0.99 0 1.98 0 3 C-0.7425 3.226875 -1.485 3.45375 -2.25 3.6875 C-5.64828603 5.30940924 -6.90666783 6.8771602 -9 10 C-9.90020454 13.33102867 -9.90020454 13.33102867 -10.25 16.8125 C-10.39953125 17.97394531 -10.5490625 19.13539063 -10.703125 20.33203125 C-10.80109375 21.21246094 -10.8990625 22.09289062 -11 23 C-11.33 23 -11.66 23 -12 23 C-12.62234043 12.31648936 -12.62234043 12.31648936 -10.375 7.5625 C-3.36585366 0 -3.36585366 0 0 0 Z " fill="#186F19" transform="translate(489,308)"/>
<path d="M0 0 C0 0.66 0 1.32 0 2 C-4.65559707 3.48582885 -9.01786533 4.33015169 -13.88671875 4.75390625 C-16.03183933 4.94001832 -16.03183933 4.94001832 -18.14453125 5.65234375 C-18.75683594 5.76707031 -19.36914062 5.88179687 -20 6 C-20.66 5.34 -21.32 4.68 -22 4 C-19.08444885 3.32810344 -16.16773049 2.66230692 -13.25 2 C-12.0125 1.71382812 -12.0125 1.71382812 -10.75 1.421875 C-9.95078125 1.24140625 -9.1515625 1.0609375 -8.328125 0.875 C-7.5949707 0.70742188 -6.86181641 0.53984375 -6.10644531 0.3671875 C-4 0 -4 0 0 0 Z " fill="#277C27" transform="translate(1456,519)"/>
<path d="M0 0 C0.33 0.99 0.66 1.98 1 3 C-2.96 6.96 -6.92 10.92 -11 15 C-11.99 14.67 -12.98 14.34 -14 14 C-13.24074219 13.32453125 -12.48148438 12.6490625 -11.69921875 11.953125 C-10.69514311 11.05227209 -9.69124628 10.15121986 -8.6875 9.25 C-8.18798828 8.8065625 -7.68847656 8.363125 -7.17382812 7.90625 C-4.45068191 5.453615 -2.07235877 3.02719984 0 0 Z " fill="#257E25" transform="translate(1164,1090)"/>
<path d="M0 0 C0.86407471 0.26184082 1.72814941 0.52368164 2.6184082 0.79345703 C4.02509766 1.20917969 4.02509766 1.20917969 5.46020508 1.63330078 C6.92490234 2.08769531 6.92490234 2.08769531 8.41918945 2.55126953 C9.40725586 2.84646484 10.39532227 3.14166016 11.41333008 3.44580078 C13.85657876 4.17759507 16.29547282 4.9214568 18.73168945 5.67626953 C18.73168945 6.00626953 18.73168945 6.33626953 18.73168945 6.67626953 C13.03197729 6.22391142 8.19017441 5.30772026 2.81762695 3.37548828 C0.16007516 2.484661 -2.49276748 2.03210839 -5.26831055 1.67626953 C-2.26831055 -0.32373047 -2.26831055 -0.32373047 0 0 Z " fill="#227622" transform="translate(1054.268310546875,367.32373046875)"/>
<path d="M0 0 C-3.56526555 2.3768437 -5.23126061 3.15296601 -9.4375 3.1875 C-10.61119141 3.20876953 -10.61119141 3.20876953 -11.80859375 3.23046875 C-14 3 -14 3 -17 1 C-11.33357449 -0.22517308 -5.76291482 -0.09228867 0 0 Z " fill="#267B27" transform="translate(775,334)"/>
<path d="M0 0 C8.91 1.485 8.91 1.485 18 3 C17.67 3.66 17.34 4.32 17 5 C15.00045254 5.04254356 12.99958364 5.04080783 11 5 C10.67 4.67 10.34 4.34 10 4 C8.48530552 3.76807135 6.96245438 3.58784762 5.4375 3.4375 C4.61121094 3.35371094 3.78492188 3.26992188 2.93359375 3.18359375 C2.29550781 3.12300781 1.65742187 3.06242188 1 3 C0.67 2.01 0.34 1.02 0 0 Z " fill="#1F7820" transform="translate(1197,522)"/>
<path d="M0 0 C-2.23495428 2.23495428 -4.02414536 3.0024791 -6.9375 4.1875 C-7.81277344 4.55230469 -8.68804688 4.91710937 -9.58984375 5.29296875 C-12 6 -12 6 -15 5 C-12.76504572 2.76504572 -10.97585464 1.9975209 -8.0625 0.8125 C-7.18722656 0.44769531 -6.31195312 0.08289063 -5.41015625 -0.29296875 C-3 -1 -3 -1 0 0 Z " fill="#217923" transform="translate(608,373)"/>
<path d="M0 0 C0 0.33 0 0.66 0 1 C-0.77085937 1.20496094 -1.54171875 1.40992188 -2.3359375 1.62109375 C-3.33882812 1.89050781 -4.34171875 2.15992188 -5.375 2.4375 C-6.37273438 2.70433594 -7.37046875 2.97117187 -8.3984375 3.24609375 C-10.95417701 3.90184356 -10.95417701 3.90184356 -13 5 C-15.125 4.0625 -15.125 4.0625 -17 3 C-14.73194205 2.30190555 -12.46133393 1.61628983 -10.1875 0.9375 C-9.54490234 0.73833984 -8.90230469 0.53917969 -8.24023438 0.33398438 C-3.33984375 -1.11328125 -3.33984375 -1.11328125 0 0 Z " fill="#217423" transform="translate(661,356)"/>
<path d="M0 0 C1.75128818 0.28382946 3.50100003 0.57739529 5.25 0.875 C6.71179688 1.11863281 6.71179688 1.11863281 8.203125 1.3671875 C10.77264117 1.94855848 12.72071056 2.70840265 15 4 C9.75901229 5.7469959 4.91218908 4.23281322 0 2 C0 1.34 0 0.68 0 0 Z " fill="#297B2A" transform="translate(1000,353)"/>
<path d="M0 0 C5.28 0.66 10.56 1.32 16 2 C16 2.33 16 2.66 16 3 C13.70839681 3.02692484 11.41670454 3.04636124 9.125 3.0625 C7.84882812 3.07410156 6.57265625 3.08570313 5.2578125 3.09765625 C2 3 2 3 0 2 C0 1.34 0 0.68 0 0 Z " fill="#1A721D" transform="translate(923,338)"/>
<path d="M0 0 C1.28132813 0.00902344 2.56265625 0.01804687 3.8828125 0.02734375 C4.87023438 0.03894531 5.85765625 0.05054688 6.875 0.0625 C6.875 0.3925 6.875 0.7225 6.875 1.0625 C1.595 1.7225 -3.685 2.3825 -9.125 3.0625 C-9.125 2.4025 -9.125 1.7425 -9.125 1.0625 C-6.12186252 -0.43906874 -3.33432478 -0.03031204 0 0 Z " fill="#298129" transform="translate(1392.125,1196.9375)"/>
<path d="M0 0 C3.33333333 0.66666667 6.66666667 1.33333333 10 2 C11.40185547 2.28037109 11.40185547 2.28037109 12.83203125 2.56640625 C13.54746094 2.70949219 14.26289062 2.85257812 15 3 C15 3.33 15 3.66 15 4 C9.5610835 4.21755666 5.12919186 4.10428384 0 2 C0 1.34 0 0.68 0 0 Z " fill="#1E731F" transform="translate(1022,359)"/>
<path d="M0 0 C1.93833996 0.08715017 3.8757429 0.19532964 5.8125 0.3125 C7.43091797 0.39951172 7.43091797 0.39951172 9.08203125 0.48828125 C12.17497517 1.03068507 13.13022903 1.55289624 15 4 C9.76119922 3.44854729 5.02649303 2.57077907 0 1 C0 0.67 0 0.34 0 0 Z " fill="#3B8B3B" transform="translate(1108,1176)"/>
<path d="M0 0 C0.33 0.99 0.66 1.98 1 3 C-1.31 4.65 -3.62 6.3 -6 8 C-6.66 7.67 -7.32 7.34 -8 7 C-5.36 4.69 -2.72 2.38 0 0 Z " fill="#1E781F" transform="translate(1149,1105)"/>
<path d="M0 0 C1.43655854 -0.08131463 2.8744483 -0.13933559 4.3125 -0.1875 C5.51326172 -0.23970703 5.51326172 -0.23970703 6.73828125 -0.29296875 C9.47851584 0.06198392 10.29171079 0.89366282 12 3 C3.96428571 2.19642857 3.96428571 2.19642857 0 0 Z " fill="#2F8430" transform="translate(1016,993)"/>
<path d="M0 0 C-3.20380017 2.13586678 -4.01939967 2.23132175 -7.6875 2.125 C-8.89986328 2.09792969 -8.89986328 2.09792969 -10.13671875 2.0703125 C-11.05904297 2.03550781 -11.05904297 2.03550781 -12 2 C-7.66032699 -0.21504143 -4.80574417 -1.54470348 0 0 Z " fill="#2E822F" transform="translate(1468,517)"/>
<path d="M0 0 C-3.16240582 2.10827055 -4.50657469 2.33817465 -8.1875 2.625 C-9.53908203 2.73714844 -9.53908203 2.73714844 -10.91796875 2.8515625 C-11.94857422 2.92503906 -11.94857422 2.92503906 -13 3 C-8.8341563 0.22277086 -4.9360889 -1.89849573 0 0 Z " fill="#297C2B" transform="translate(1502,507)"/>
</svg>
