<?xml version="1.0" encoding="UTF-8"?>
<svg version="1.1" xmlns="http://www.w3.org/2000/svg" width="2048" height="2048">
<path d="M0 0 C675.84 0 1351.68 0 2048 0 C2048 675.84 2048 1351.68 2048 2048 C1372.16 2048 696.32 2048 0 2048 C0 1372.16 0 696.32 0 0 Z " fill="#FDFEFD" transform="translate(0,0)"/>
<path d="M0 0 C1.19510193 0.00060425 2.39020386 0.0012085 3.621521 0.00183105 C77.95146059 0.10306268 155.48665412 8.19307511 226.18164062 32.37866211 C228.80852838 33.24825435 231.44912795 34.06898019 234.09291077 34.88554382 C242.95809456 37.62504419 251.74829693 40.54252382 260.5 43.625 C261.21955872 43.87839142 261.93911743 44.13178284 262.68048096 44.39285278 C289.30489325 53.81114325 315.18651663 64.93919033 340.625 77.1875 C341.53878418 77.62513672 342.45256836 78.06277344 343.39404297 78.51367188 C356.1782272 84.66466613 368.51881907 91.51238798 380.81396484 98.58349609 C383.4641552 100.0957204 386.12821976 101.57854245 388.80078125 103.05078125 C402.52391762 110.65774187 415.49894577 119.24641768 428.46899414 128.05224609 C431.63531833 130.19448106 434.8154923 132.31459849 438 134.4296875 C448.63266511 141.50824141 458.90510924 149.03231191 468.96875 156.89453125 C470.673816 158.22560872 472.38363179 159.55042183 474.09375 160.875 C480.49521482 165.85056713 486.77863828 170.93642877 492.94140625 176.20507812 C496.29207476 179.06949108 499.68770943 181.86422393 503.125 184.625 C508.93007158 189.34848619 514.37464538 194.42189323 519.83129883 199.53735352 C521.07193878 200.67870174 522.32817324 201.80324464 523.59643555 202.91381836 C532.02334532 210.31884372 539.88381466 218.2957436 547.80297852 226.23510742 C550.31349074 228.75099286 552.82932064 231.26147186 555.34570312 233.77148438 C556.96386249 235.39030437 558.58171172 237.00943445 560.19921875 238.62890625 C560.94104904 239.36871231 561.68287933 240.10851837 562.44718933 240.8707428 C566.5023919 244.94400092 570.39310909 249.10609571 574.14048767 253.46487427 C576.20535384 255.86094167 578.35382937 258.17678836 580.5 260.5 C584.59257435 264.98763432 588.47770834 269.59680228 592.2890625 274.32421875 C594.34253384 276.8412664 596.44012778 279.3125406 598.56054688 281.77319336 C604.77561661 289.00317076 610.49403368 296.54430069 616.15283203 304.21386719 C617.50602754 306.02800193 618.88362575 307.81847681 620.27734375 309.6015625 C631.58918372 324.17093251 641.52441833 339.76836724 651.625 355.1875 C652.27098145 356.17314941 652.91696289 357.15879883 653.58251953 358.17431641 C661.84513842 370.84945862 669.34096451 383.92949265 676.625 397.1875 C677.23279297 398.29335449 677.84058594 399.39920898 678.46679688 400.53857422 C708.58803882 455.56657066 732.53551276 514.21937506 747.625 575.1875 C747.98011187 576.60970835 748.33525689 578.03190843 748.69042969 579.45410156 C755.649722 607.4278121 761.60930356 635.48989578 764.984375 664.14453125 C765.40725964 667.6985691 765.97175601 671.20035739 766.60546875 674.72265625 C767.83528632 681.94162764 768.42432262 689.19059597 769.00268555 696.48486328 C769.18560113 698.78858474 769.37632167 701.09155416 769.56835938 703.39453125 C769.88609906 707.25043361 770.18130311 711.10758946 770.46228027 714.96633911 C770.61308076 717.02479973 770.77248058 719.08262548 770.93261719 721.14038086 C771.96712109 735.69087169 771.77705324 750.29310301 771.75537109 764.87182617 C771.74968937 768.71733544 771.75306431 772.56277539 771.75879002 776.40828228 C771.78925162 800.17524348 771.05798517 823.61020927 768.4375 847.25 C768.27518387 848.73194855 768.27518387 848.73194855 768.10958862 850.24383545 C764.94517463 878.90355667 760.02796465 907.07405448 753.625 935.1875 C753.1972043 937.09915816 752.76941409 939.01081758 752.3419342 940.92254639 C749.1964319 954.94928769 745.83906333 968.84887053 741.46337891 982.54711914 C740.61270406 985.22622468 739.78261664 987.91138191 738.95288086 990.59703064 C731.0144871 1016.21630419 722.2746497 1041.56134023 711.625 1066.1875 C710.90739502 1067.8595752 710.90739502 1067.8595752 710.17529297 1069.56542969 C697.67731541 1098.53782808 683.72793061 1127.0421329 667.625 1154.1875 C667.07956543 1155.11208008 666.53413086 1156.03666016 665.97216797 1156.98925781 C644.93690908 1192.51466478 621.08326028 1226.70651629 594.23828125 1258.10546875 C591.83418687 1260.92385029 589.50732006 1263.79921953 587.1875 1266.6875 C582.85222774 1272.0154643 578.23000571 1277.03472446 573.54296875 1282.05078125 C570.9655344 1284.8096186 568.4450638 1287.61484965 565.9375 1290.4375 C562.4167063 1294.37213022 558.7516663 1298.11452462 554.9609375 1301.7890625 C552.99845073 1303.80405727 551.17561417 1305.85771619 549.34765625 1307.9921875 C545.71034871 1312.18210848 541.77411691 1315.9414345 537.6875 1319.6875 C536.27117322 1320.99896163 534.85579672 1322.31145033 533.44140625 1323.625 C532.77641113 1324.24246094 532.11141602 1324.85992188 531.42626953 1325.49609375 C529.27755048 1327.51375783 527.19057522 1329.58496617 525.125 1331.6875 C522.12425069 1334.73411229 518.98822915 1337.5605574 515.74609375 1340.34765625 C513.40008942 1342.38258819 511.1076355 1344.47040967 508.8125 1346.5625 C504.5705915 1350.38664478 500.21948903 1354.03639455 495.77734375 1357.625 C493.43640119 1359.51770913 491.12250788 1361.44000175 488.81640625 1363.375 C479.13358975 1371.47732356 469.18661911 1379.10395884 458.95410156 1386.49804688 C456.73809378 1388.10546552 454.53535023 1389.72935338 452.3359375 1391.359375 C426.16890036 1410.65854172 398.2743152 1427.83127457 369.625 1443.1875 C368.7892041 1443.63625488 367.9534082 1444.08500977 367.09228516 1444.54736328 C328.83147109 1464.99843749 289.5959623 1481.98823661 248.625 1496.1875 C247.26317607 1496.66176224 245.90135949 1497.1360456 244.53955078 1497.61035156 C227.42280533 1503.55464305 210.21013734 1508.81200188 192.625 1513.1875 C191.51382813 1513.46658203 190.40265625 1513.74566406 189.2578125 1514.03320312 C156.48833155 1522.18841976 123.21061083 1528.59746462 89.625 1532.1875 C88.63759827 1532.29354553 88.63759827 1532.29354553 87.63024902 1532.4017334 C66.30939858 1534.68260414 45.08944554 1536.32029893 23.640625 1536.42578125 C22.87181126 1536.43062531 22.10299751 1536.43546936 21.31088638 1536.44046021 C15.49892962 1536.47649905 9.68705844 1536.49275339 3.875 1536.5 C3.01968941 1536.50129787 2.16437881 1536.50259575 1.28314972 1536.50393295 C-26.78310979 1536.53617055 -54.50013674 1535.73592772 -82.375 1532.1875 C-83.58884369 1532.03544098 -83.58884369 1532.03544098 -84.82720947 1531.88031006 C-95.70912972 1530.51137029 -106.54725155 1528.93307131 -117.375 1527.1875 C-118.4460498 1527.01750488 -119.51709961 1526.84750977 -120.62060547 1526.67236328 C-127.22588202 1525.61358421 -133.8044052 1524.44302767 -140.375 1523.1875 C-141.43686523 1522.98576172 -142.49873047 1522.78402344 -143.59277344 1522.57617188 C-205.3868186 1510.68246022 -265.52303764 1490.62426505 -322.34619141 1463.62402344 C-325.33285872 1462.20748705 -328.32750387 1460.80919591 -331.32421875 1459.4140625 C-360.74477248 1445.64095773 -389.42874026 1429.35433757 -416.375 1411.1875 C-417.21546875 1410.62353516 -418.0559375 1410.05957031 -418.921875 1409.47851562 C-441.54991414 1394.26924074 -463.7341039 1378.48057999 -484.4296875 1360.69921875 C-487.22879079 1358.31218504 -490.07185091 1355.99389849 -492.9375 1353.6875 C-498.00467785 1349.5658014 -502.80066059 1345.19837398 -507.5859375 1340.7578125 C-509.9200955 1338.60672571 -512.28246617 1336.50824342 -514.6875 1334.4375 C-517.81008121 1331.73340906 -520.71204518 1328.87145626 -523.60546875 1325.92578125 C-525.40510481 1324.15792684 -527.27101912 1322.51495458 -529.1875 1320.875 C-536.14186565 1314.86405604 -542.4976583 1308.29928284 -548.46484375 1301.31640625 C-550.83689464 1298.67270945 -553.34780978 1296.1810851 -555.875 1293.6875 C-559.62287894 1289.98447179 -563.21924038 1286.2110327 -566.640625 1282.203125 C-568.63412581 1279.88635379 -570.69054388 1277.63330016 -572.75 1275.375 C-576.64863397 1271.05489209 -580.35003858 1266.60678619 -584.0078125 1262.08203125 C-586.05880944 1259.57412905 -588.14895095 1257.10673913 -590.26171875 1254.65087891 C-645.70434955 1190.05385957 -688.68319777 1111.96911632 -717.6673584 1032.13464355 C-718.40843064 1030.09551239 -719.15376082 1028.05796794 -719.89941406 1026.02050781 C-726.19566592 1008.78061034 -732.0135651 991.55263077 -736.6796875 973.78759766 C-737.29514488 971.48611554 -737.94572843 969.20125739 -738.625 966.91796875 C-746.52707007 940.22265852 -751.45431932 912.68851093 -755.73876953 885.21826172 C-756.30517874 881.59989884 -756.91083747 877.98910241 -757.52734375 874.37890625 C-760.42603989 857.08668444 -761.97739224 839.7027558 -763.22711182 822.22442627 C-763.36655581 820.30380535 -763.51762129 818.38403835 -763.66943359 816.46435547 C-764.72761971 801.48066808 -764.62088723 786.45112829 -764.625 771.4375 C-764.62544186 770.69812698 -764.62588371 769.95875397 -764.62633896 769.19697571 C-764.64375547 713.4863533 -759.48623392 658.7172142 -747.09033203 604.32666016 C-746.57952753 602.08504777 -746.07318449 599.84241683 -745.56982422 597.59912109 C-742.23297338 582.74432251 -738.6554549 568.06282131 -734.09130859 553.53417969 C-733.10722542 550.31025077 -732.22273118 547.0617001 -731.33178711 543.81103516 C-721.65322755 508.74088326 -707.57188397 475.16980383 -692.375 442.1875 C-691.95089844 441.26340332 -691.52679687 440.33930664 -691.08984375 439.38720703 C-671.28317635 396.36653712 -646.4991029 355.28614762 -618.375 317.1875 C-617.68019531 316.24261719 -616.98539063 315.29773438 -616.26953125 314.32421875 C-606.84169142 301.63355639 -597.18098287 289.1121646 -586.875 277.12109375 C-584.54875425 274.39138975 -582.30073847 271.61441249 -580.0625 268.8125 C-575.3122102 262.97058167 -570.17242915 257.52383017 -565 252.05859375 C-562.44191387 249.35326955 -559.9648805 246.59059736 -557.50390625 243.796875 C-551.14015147 236.70288643 -544.35543794 230.01878094 -537.60913086 223.29125977 C-535.3105279 220.99803252 -533.0173397 218.6994876 -530.72460938 216.40039062 C-529.24250813 214.91895 -527.7600968 213.4378195 -526.27734375 211.95703125 C-525.60315903 211.2808223 -524.9289743 210.60461334 -524.23435974 209.90791321 C-520.31441611 206.00694854 -516.28923243 202.28366106 -512.09933472 198.67372131 C-509.88144327 196.76209853 -507.72347509 194.78803239 -505.5625 192.8125 C-501.24725424 188.91825382 -496.80408245 185.22095276 -492.28515625 181.56640625 C-489.70616035 179.45820691 -487.1659932 177.31475313 -484.63574219 175.14892578 C-478.34788052 169.77139632 -471.91269187 164.62584466 -465.30517578 159.64501953 C-463.12403106 157.99798765 -460.95101893 156.34046974 -458.77734375 154.68359375 C-447.54513653 146.15420562 -436.11818747 137.99750856 -424.375 130.1875 C-423.4684668 129.58405762 -422.56193359 128.98061523 -421.62792969 128.35888672 C-408.42554804 119.59870225 -395.07099058 111.15479102 -381.375 103.1875 C-380.50504395 102.68041504 -379.63508789 102.17333008 -378.73876953 101.65087891 C-336.8776148 77.35976636 -292.70918253 56.17656707 -246.4921875 41.5546875 C-243.81375218 40.69748967 -241.23700341 39.74340386 -238.66015625 38.6171875 C-233.38410401 36.32106964 -227.88561984 34.81510924 -222.375 33.1875 C-221.10293701 32.80803223 -221.10293701 32.80803223 -219.80517578 32.42089844 C-185.662593 22.24418298 -151.05837817 13.72796368 -115.75561523 8.67285156 C-113.08402653 8.28929423 -110.41514047 7.8933891 -107.74633789 7.49121094 C-96.06552845 5.75068746 -84.38891482 4.37215992 -72.62768555 3.30712891 C-69.94045959 3.06276913 -67.25444915 2.80729733 -64.56835938 2.55078125 C-43.0543457 0.53737171 -21.60121582 -0.02035894 0 0 Z " fill="#000000" transform="translate(1020.375,255.8125)"/>
<path d="M0 0 C1.79724518 0.00323273 1.79724518 0.00323273 3.63079834 0.00653076 C42.73564063 0.11881707 81.37668724 4.12290431 119.38598633 13.63208008 C121.5729549 14.16324186 123.76708613 14.66493756 125.96362305 15.1550293 C136.36182179 17.48243633 146.4130698 20.45192915 156.5 23.875 C157.66012604 24.26558594 157.66012604 24.26558594 158.84368896 24.6640625 C204.15927729 39.94504868 247.83519051 59.92789154 287.1875 87.3125 C287.82316895 87.75271484 288.45883789 88.19292969 289.11376953 88.64648438 C298.67727766 95.28049002 308.04413936 102.11087455 317.1875 109.3125 C318.44046875 110.29089844 318.44046875 110.29089844 319.71875 111.2890625 C324.5650437 115.11259942 329.30080072 119.06060964 334 123.0625 C334.78008423 123.72354736 334.78008423 123.72354736 335.57592773 124.39794922 C346.26587398 133.56624618 356.38363929 143.34188395 366.31933594 153.31396484 C368.0789348 155.07898544 369.84390397 156.83851133 371.609375 158.59765625 C377.34824878 164.33285829 382.96197311 170.09850617 388.1875 176.3125 C389.06411964 177.32246996 389.94167368 178.33162991 390.8203125 179.33984375 C451.10613825 249.73630171 491.20923999 335.09414576 507.1875 426.3125 C507.37054687 427.35599609 507.55359375 428.39949219 507.7421875 429.47460938 C509.04784513 437.06729231 510.17090159 444.67598762 511.1875 452.3125 C511.33993164 453.43043945 511.49236328 454.54837891 511.64941406 455.70019531 C516.41828687 492.23408703 516.21931383 530.50103257 511.59765625 567.03710938 C511.20238384 570.1936419 510.85920431 573.35147324 510.53125 576.515625 C507.49195794 604.68832087 501.41172847 633.00237686 492.59375 659.9375 C490.99749903 664.82868614 489.64417939 669.76885279 488.33984375 674.74609375 C486.96627933 678.99715921 485.25238752 683.04884682 483.51000977 687.16040039 C482.28452112 690.08125767 481.1141556 693.01573108 479.96875 695.96875 C470.83152853 719.44730593 460.44112021 742.08884488 447.65283203 763.81103516 C446.32719059 766.07403453 445.03051565 768.35015962 443.74609375 770.63671875 C427.95294644 798.51717251 408.1898319 824.14102773 387.3125 848.375 C386.80146729 848.96998291 386.29043457 849.56496582 385.76391602 850.17797852 C382.56098293 853.86168904 379.2048899 857.33587232 375.73193359 860.76538086 C374.03995472 862.46030184 372.4720985 864.22435454 370.9375 866.0625 C364.67623286 873.30868557 357.8143359 880.04920292 350.5234375 886.25390625 C348.59151442 887.95645385 346.71710176 889.69097591 344.8515625 891.46484375 C337.18367719 898.75457848 329.35379257 905.5289815 320.94677734 911.94726562 C319.15478552 913.33788709 317.39680585 914.76284662 315.64453125 916.203125 C305.89932476 924.20219471 295.69071801 931.34607989 285.1875 938.3125 C284.46272461 938.79605957 283.73794922 939.27961914 282.99121094 939.77783203 C264.76249146 951.90935913 245.72563351 962.44696882 226.1875 972.3125 C225.25953613 972.78187988 224.33157227 973.25125977 223.37548828 973.73486328 C180.08688698 995.45906028 133.73227989 1009.54299883 86.10131836 1017.79760742 C84.2294887 1018.12837313 82.3601386 1018.47368209 80.49438477 1018.8371582 C72.82877483 1020.32262129 65.1443041 1021.13300987 57.375 1021.875 C56.11107422 1022.00068359 54.84714844 1022.12636719 53.54492188 1022.25585938 C49.76055351 1022.62596401 45.97468263 1022.9725217 42.1875 1023.3125 C41.15834473 1023.41328857 40.12918945 1023.51407715 39.06884766 1023.61791992 C27.68247748 1024.60584718 16.26195626 1024.49856891 4.84130859 1024.49780273 C1.22351108 1024.49997834 -2.39397534 1024.51815671 -6.01171875 1024.53710938 C-20.4001607 1024.57198113 -34.51501512 1023.90570545 -48.8125 1022.3125 C-50.59382324 1022.13182983 -50.59382324 1022.13182983 -52.41113281 1021.94750977 C-109.11812497 1016.13901274 -164.5066736 1000.08554956 -215.8125 975.3125 C-216.56273437 974.9505957 -217.31296875 974.58869141 -218.0859375 974.21582031 C-222.02287998 972.30406154 -225.93140824 970.34260274 -229.82128906 968.33691406 C-231.20878486 967.62309205 -232.59897918 966.91450135 -233.99121094 966.20996094 C-264.5288579 950.75166553 -294.04067809 931.27946245 -319.90625 908.8203125 C-322.66272342 906.4417427 -325.47212943 904.15219364 -328.3125 901.875 C-338.02929934 893.95708334 -347.0323921 885.24694573 -355.8125 876.3125 C-358.71577453 873.39917954 -361.63240639 870.49969304 -364.5546875 867.60546875 C-365.93234395 866.2370318 -367.30994694 864.86854103 -368.6875 863.5 C-369.36941406 862.82646484 -370.05132813 862.15292969 -370.75390625 861.45898438 C-375.32155685 856.9130845 -379.62551454 852.2097432 -383.8125 847.3125 C-384.6899854 846.30328214 -385.56757992 845.29415914 -386.4453125 844.28515625 C-393.30322701 836.27708993 -399.77454569 828.01916649 -406.10351562 819.58789062 C-407.25253933 818.05804763 -408.40494399 816.53073872 -409.56054688 815.00585938 C-465.09582037 741.67475238 -496.01813985 654.99729029 -510 512.4375 C-509.99906342 511.50640411 -509.99812683 510.57530823 -509.99716187 509.61599731 C-509.78788441 412.80713196 -481.16614191 317.70793751 -390.8125 185.3125 C-390.09513672 184.44431641 -390.09513672 184.44431641 -389.36328125 183.55859375 C-378.57788114 170.53756449 -366.99372751 158.40199342 -355.0625 146.4375 C-354.51897888 145.89130005 -353.97545776 145.3451001 -353.41546631 144.78234863 C-347.39530947 138.73972429 -341.32552743 132.82883963 -334.8125 127.3125 C-333.72902848 126.36362122 -332.64694839 125.41315079 -331.56640625 124.4609375 C-322.6234439 116.66019234 -313.33448439 109.3913298 -303.8125 102.3125 C-303.09046387 101.7747998 -302.36842773 101.23709961 -301.62451172 100.68310547 C-260.93070725 70.50965161 -216.30122078 46.8324572 -168.8125 29.3125 C-167.82314453 28.94737305 -166.83378906 28.58224609 -165.81445312 28.20605469 C-158.87507317 25.66286318 -151.89892911 23.4121827 -144.8125 21.3125 C-144.08869141 21.09335937 -143.36488281 20.87421875 -142.61914062 20.6484375 C-127.515428 16.08598821 -112.24938183 12.55332143 -96.8125 9.3125 C-95.68714844 9.07104248 -95.68714844 9.07104248 -94.5390625 8.82470703 C-85.20247685 6.83505813 -75.76542238 5.54674781 -66.3125 4.25 C-65.14485107 4.08741699 -63.97720215 3.92483398 -62.77416992 3.75732422 C-41.87039738 0.98407253 -21.07798859 -0.06877535 0 0 Z " fill="#FDFDFD" transform="translate(1021.8125,511.6875)"/>
<path d="M0 0 C1.79724518 0.00323273 1.79724518 0.00323273 3.63079834 0.00653076 C42.73564063 0.11881707 81.37668724 4.12290431 119.38598633 13.63208008 C121.5729549 14.16324186 123.76708613 14.66493756 125.96362305 15.1550293 C136.36182179 17.48243633 146.4130698 20.45192915 156.5 23.875 C157.66012604 24.26558594 157.66012604 24.26558594 158.84368896 24.6640625 C204.15927729 39.94504868 247.83519051 59.92789154 287.1875 87.3125 C287.82316895 87.75271484 288.45883789 88.19292969 289.11376953 88.64648438 C298.67727766 95.28049002 308.04413936 102.11087455 317.1875 109.3125 C318.44046875 110.29089844 318.44046875 110.29089844 319.71875 111.2890625 C324.5650437 115.11259942 329.30080072 119.06060964 334 123.0625 C334.78008423 123.72354736 334.78008423 123.72354736 335.57592773 124.39794922 C346.26587398 133.56624618 356.38363929 143.34188395 366.31933594 153.31396484 C368.0789348 155.07898544 369.84390397 156.83851133 371.609375 158.59765625 C377.34824878 164.33285829 382.96197311 170.09850617 388.1875 176.3125 C389.06411964 177.32246996 389.94167368 178.33162991 390.8203125 179.33984375 C451.10613825 249.73630171 491.20923999 335.09414576 507.1875 426.3125 C507.37054687 427.35599609 507.55359375 428.39949219 507.7421875 429.47460938 C509.04784513 437.06729231 510.17090159 444.67598762 511.1875 452.3125 C511.33993164 453.43043945 511.49236328 454.54837891 511.64941406 455.70019531 C516.41828687 492.23408703 516.21931383 530.50103257 511.59765625 567.03710938 C511.20238384 570.1936419 510.85920431 573.35147324 510.53125 576.515625 C507.49195794 604.68832087 501.41172847 633.00237686 492.59375 659.9375 C490.99749903 664.82868614 489.64417939 669.76885279 488.33984375 674.74609375 C486.96627933 678.99715921 485.25238752 683.04884682 483.51000977 687.16040039 C482.28452112 690.08125767 481.1141556 693.01573108 479.96875 695.96875 C470.83152853 719.44730593 460.44112021 742.08884488 447.65283203 763.81103516 C446.32719059 766.07403453 445.03051565 768.35015962 443.74609375 770.63671875 C427.95294644 798.51717251 408.1898319 824.14102773 387.3125 848.375 C386.80146729 848.96998291 386.29043457 849.56496582 385.76391602 850.17797852 C382.56098293 853.86168904 379.2048899 857.33587232 375.73193359 860.76538086 C374.03995472 862.46030184 372.4720985 864.22435454 370.9375 866.0625 C364.67623286 873.30868557 357.8143359 880.04920292 350.5234375 886.25390625 C348.59151442 887.95645385 346.71710176 889.69097591 344.8515625 891.46484375 C337.18367719 898.75457848 329.35379257 905.5289815 320.94677734 911.94726562 C319.15478552 913.33788709 317.39680585 914.76284662 315.64453125 916.203125 C305.89932476 924.20219471 295.69071801 931.34607989 285.1875 938.3125 C284.46272461 938.79605957 283.73794922 939.27961914 282.99121094 939.77783203 C264.76249146 951.90935913 245.72563351 962.44696882 226.1875 972.3125 C225.25953613 972.78187988 224.33157227 973.25125977 223.37548828 973.73486328 C180.08688698 995.45906028 133.73227989 1009.54299883 86.10131836 1017.79760742 C84.2294887 1018.12837313 82.3601386 1018.47368209 80.49438477 1018.8371582 C72.82877483 1020.32262129 65.1443041 1021.13300987 57.375 1021.875 C56.11107422 1022.00068359 54.84714844 1022.12636719 53.54492188 1022.25585938 C49.76055351 1022.62596401 45.97468263 1022.9725217 42.1875 1023.3125 C41.15834473 1023.41328857 40.12918945 1023.51407715 39.06884766 1023.61791992 C27.68247748 1024.60584718 16.26195626 1024.49856891 4.84130859 1024.49780273 C1.22351108 1024.49997834 -2.39397534 1024.51815671 -6.01171875 1024.53710938 C-20.4001607 1024.57198113 -34.51501512 1023.90570545 -48.8125 1022.3125 C-50.59382324 1022.13182983 -50.59382324 1022.13182983 -52.41113281 1021.94750977 C-109.11812497 1016.13901274 -164.5066736 1000.08554956 -215.8125 975.3125 C-216.56273437 974.9505957 -217.31296875 974.58869141 -218.0859375 974.21582031 C-222.02287998 972.30406154 -225.93140824 970.34260274 -229.82128906 968.33691406 C-231.20878486 967.62309205 -232.59897918 966.91450135 -233.99121094 966.20996094 C-264.5288579 950.75166553 -294.04067809 931.27946245 -319.90625 908.8203125 C-322.66272342 906.4417427 -325.47212943 904.15219364 -328.3125 901.875 C-338.02929934 893.95708334 -347.0323921 885.24694573 -355.8125 876.3125 C-358.71577453 873.39917954 -361.63240639 870.49969304 -364.5546875 867.60546875 C-365.93234395 866.2370318 -367.30994694 864.86854103 -368.6875 863.5 C-369.36941406 862.82646484 -370.05132813 862.15292969 -370.75390625 861.45898438 C-375.32155685 856.9130845 -379.62551454 852.2097432 -383.8125 847.3125 C-384.6899854 846.30328214 -385.56757992 845.29415914 -386.4453125 844.28515625 C-393.30322701 836.27708993 -399.77454569 828.01916649 -406.10351562 819.58789062 C-407.25253933 818.05804763 -408.40494399 816.53073872 -409.56054688 815.00585938 C-465.09582037 741.67475238 -496.01813985 654.99729029 -510 512.4375 C-509.99906342 511.50640411 -509.99812683 510.57530823 -509.99716187 509.61599731 C-509.78788441 412.80713196 -481.16614191 317.70793751 -390.8125 185.3125 C-390.09513672 184.44431641 -390.09513672 184.44431641 -389.36328125 183.55859375 C-378.57788114 170.53756449 -366.99372751 158.40199342 -355.0625 146.4375 C-354.51897888 145.89130005 -353.97545776 145.3451001 -353.41546631 144.78234863 C-347.39530947 138.73972429 -341.32552743 132.82883963 -334.8125 127.3125 C-333.72902848 126.36362122 -332.64694839 125.41315079 -331.56640625 124.4609375 C-322.6234439 116.66019234 -313.33448439 109.3913298 -303.8125 102.3125 C-303.09046387 101.7747998 -302.36842773 101.23709961 -301.62451172 100.68310547 C-260.93070725 70.50965161 -216.30122078 46.8324572 -168.8125 29.3125 C-167.82314453 28.94737305 -166.83378906 28.58224609 -165.81445312 28.20605469 C-158.87507317 25.66286318 -151.89892911 23.4121827 -144.8125 21.3125 C-144.08869141 21.09335937 -143.36488281 20.87421875 -142.61914062 20.6484375 C-127.515428 16.08598821 -112.24938183 12.55332143 -96.8125 9.3125 C-95.68714844 9.07104248 -95.68714844 9.07104248 -94.5390625 8.82470703 C-85.20247685 6.83505813 -75.76542238 5.54674781 -66.3125 4.25 C-65.14485107 4.08741699 -63.97720215 3.92483398 -62.77416992 3.75732422 C-41.87039738 0.98407253 -21.07798859 -0.06877535 0 0 Z M-183.8125 99.3125 C-184.80330566 99.76560547 -185.79411133 100.21871094 -186.81494141 100.68554688 C-202.72872012 107.96926666 -217.87164004 116.20729598 -232.8125 125.3125 C-233.66569824 125.828125 -234.51889648 126.34375 -235.39794922 126.875 C-253.61960323 137.92671197 -270.45352777 150.68367502 -286.8125 164.3125 C-287.67415771 165.0255127 -287.67415771 165.0255127 -288.55322266 165.75292969 C-300.48510573 175.63450657 -311.71113803 186.1305254 -322.6875 197.0625 C-323.48430176 197.85462891 -324.28110352 198.64675781 -325.10205078 199.46289062 C-329.87746783 204.25133062 -334.42659447 209.16602493 -338.8125 214.3125 C-339.27849609 214.85148926 -339.74449219 215.39047852 -340.22460938 215.94580078 C-383.85939355 266.44069277 -417.50405212 326.6210618 -434.4765625 391.29296875 C-435.50992451 395.23038406 -436.66481106 399.11287312 -437.875 403 C-442.76057057 420.11968531 -445.01841346 438.03186349 -447.5625 455.625 C-447.66932098 456.35576752 -447.77614197 457.08653503 -447.88619995 457.83944702 C-455.39746144 509.56030536 -450.85659424 562.46577002 -439.8125 613.3125 C-439.56242188 614.4665332 -439.31234375 615.62056641 -439.0546875 616.80957031 C-423.289308 687.73212233 -386.82989056 756.33079164 -337.93359375 809.97265625 C-336.00463665 812.10054815 -334.12213647 814.25970859 -332.25 816.4375 C-329.24556009 819.89295283 -326.0459639 823.10038451 -322.78125 826.30859375 C-320.86106819 828.26306452 -319.08382691 830.28563939 -317.3125 832.375 C-314.5147894 835.61609777 -311.5544251 838.387378 -308.2890625 841.1484375 C-305.66085294 843.44501179 -303.13898971 845.83143761 -300.61083984 848.23681641 C-293.53602484 854.95241257 -286.24306906 861.15441368 -278.47265625 867.04638672 C-276.88637732 868.25615768 -275.31769409 869.488897 -273.75 870.72265625 C-257.89718793 883.15821674 -241.27424106 894.27110616 -223.8125 904.3125 C-223.07354492 904.73982422 -222.33458984 905.16714844 -221.57324219 905.60742188 C-141.18466545 951.88409694 -48.08687192 972.18234333 97.1875 955.3125 C98.81510254 954.97581299 98.81510254 954.97581299 100.47558594 954.63232422 C157.50304793 942.57069475 214.00848319 917.57580967 261.1875 883.3125 C261.94466309 882.76883789 262.70182617 882.22517578 263.48193359 881.66503906 C272.69505178 875.04282182 281.69404115 868.27774324 290.26171875 860.8359375 C293.12583734 858.36568301 296.04915224 855.99052228 299 853.625 C303.02192125 850.35500316 306.70085974 846.91237178 310.30859375 843.1953125 C312.11731471 841.38283121 313.98725481 839.72040864 315.9375 838.0625 C323.66145242 831.40497099 330.89180417 824.04725799 337.49609375 816.28125 C339.42617842 814.03468493 341.43168139 811.86666096 343.4375 809.6875 C348.53090588 804.04065103 353.18716587 798.08959712 357.82763672 792.07080078 C359.1172111 790.40338342 360.41789842 788.74539227 361.72265625 787.08984375 C376.64072688 768.07615428 389.70214842 747.56202856 401.1875 726.3125 C401.63561035 725.49394531 402.0837207 724.67539063 402.54541016 723.83203125 C424.98094033 682.71161452 439.39240321 639.20247545 448.1875 593.3125 C448.38617676 592.28398926 448.58485352 591.25547852 448.78955078 590.19580078 C453.73246252 564.14064485 455.46348313 538.27982597 455.5 511.8125 C455.50537781 510.2541745 455.50537781 510.2541745 455.51086426 508.66436768 C455.66334485 426.60223502 431.6742655 342.40862311 387.1875 273.3125 C386.75244141 272.63493652 386.31738281 271.95737305 385.86914062 271.25927734 C374.25345944 253.28660271 361.52107639 236.1492644 347.56445312 219.93212891 C346.25607324 218.39315867 344.97864028 216.82803548 343.703125 215.26171875 C336.77645612 206.81238826 329.15631636 199.09297787 321.4375 191.375 C320.89397888 190.83057251 320.35045776 190.28614502 319.79046631 189.72521973 C313.76916468 183.70505303 307.68441296 177.82335538 301.1875 172.3125 C300.10410789 171.36353055 299.02203043 170.4130577 297.94140625 169.4609375 C257.06145355 133.80146095 209.78577515 106.60376338 159.1875 87.3125 C157.77041748 86.76335937 157.77041748 86.76335937 156.32470703 86.203125 C143.39312922 81.20523881 130.40378748 77.24475442 116.93115234 73.98291016 C114.38092105 73.35976234 111.84067425 72.70678678 109.30078125 72.04296875 C33.73645309 52.6527904 -46.36368046 55.09284362 -183.8125 99.3125 Z " fill="#FCFCFC" transform="translate(1021.8125,511.6875)"/>
<path d="M0 0 C1.87329953 0.64806804 3.75008779 1.28607913 5.62890625 1.91796875 C58.52572176 19.73748595 107.86908846 46.87780294 150.58007812 82.89257812 C151.11310547 83.34068848 151.64613281 83.78879883 152.1953125 84.25048828 C170.75097652 99.88104335 189.83915886 116.35143765 204.74023438 135.56054688 C206.61969013 137.94278698 208.6258148 140.12109929 210.70507812 142.33007812 C217.97039973 150.32824956 224.22297881 159.17023322 230.58007812 167.89257812 C231.18577637 168.72144531 231.79147461 169.5503125 232.41552734 170.40429688 C246.76247927 190.14557719 258.62509938 211.11255092 269.58007812 232.89257812 C270.04655762 233.81087402 270.51303711 234.72916992 270.99365234 235.67529297 C279.06867824 251.65293434 285.50267627 268.07959776 291.58007812 284.89257812 C291.99314209 286.01188721 291.99314209 286.01188721 292.41455078 287.15380859 C322.64291047 369.22068105 322.74489323 463.13363826 295.45458984 566.31640625 C294.47013355 569.21645729 293.5124795 572.12488458 292.55273438 575.03320312 C287.65839479 589.69104974 282.05348396 603.86335875 275.58007812 617.89257812 C275.1119873 618.9123877 274.64389648 619.93219727 274.16162109 620.98291016 C264.49400811 641.9245566 253.40085542 661.72857069 240.58007812 680.89257812 C240.0736377 681.65812012 239.56719727 682.42366211 239.04541016 683.21240234 C231.89808222 694.00268967 224.34075846 704.24350584 216.02441406 714.16015625 C213.96760022 716.62722032 211.96590858 719.13798504 209.95507812 721.64257812 C205.90223988 726.59357283 201.61993121 731.30028957 197.26757812 735.98632812 C194.83738299 738.61432984 192.45378617 741.27617905 190.08007812 743.95507812 C183.36224801 751.43001611 176.30282599 758.57799947 168.65039062 765.09960938 C166.19733702 767.22404636 163.83304665 769.43446449 161.45507812 771.64257812 C155.69560749 776.88781031 149.65394977 781.68755007 143.4765625 786.42871094 C141.55693052 787.9104454 139.65366618 789.4113741 137.75195312 790.91601562 C78.84542606 837.19919963 9.73369711 865.22672493 -63.41992188 878.89257812 C-64.43011887 879.08386795 -64.43011887 879.08386795 -65.46072388 879.27902222 C-75.63829211 881.19708705 -85.77975865 882.69677318 -96.10742188 883.58007812 C-96.83048523 883.6426178 -97.55354858 883.70515747 -98.29852295 883.76959229 C-151.77610112 888.24030805 -205.75817048 883.57774379 -257.41992188 868.89257812 C-258.41572266 868.61365723 -259.41152344 868.33473633 -260.4375 868.04736328 C-289.36259924 859.8483006 -316.65328048 848.46942849 -343.41992188 834.89257812 C-344.28311035 834.45816406 -345.14629883 834.02375 -346.03564453 833.57617188 C-378.14427391 817.34440595 -408.77387666 796.16477854 -435.27929688 771.85351562 C-437.21495239 770.08034215 -439.18114651 768.35559892 -441.16992188 766.64257812 C-457.98866407 751.94758749 -457.98866407 751.94758749 -464.85742188 743.70507812 C-466.57361665 741.71429219 -468.40732754 739.90868514 -470.29492188 738.08007812 C-474.17177289 734.26310126 -477.5705607 730.15475422 -480.95117188 725.89648438 C-483.00054618 723.4028628 -485.1029721 721.00698839 -487.26367188 718.61132812 C-491.21923311 714.18155949 -494.8690598 709.58815521 -498.41992188 704.83007812 C-499.05365723 703.98227783 -499.68739258 703.13447754 -500.34033203 702.26098633 C-511.55394371 687.09391052 -522.11482434 671.30888841 -531.41992188 654.89257812 C-531.86223145 654.11865723 -532.30454102 653.34473633 -532.76025391 652.54736328 C-545.34052271 630.41816453 -555.6110318 607.4560161 -564.42138672 583.58740234 C-565.24291718 581.37027442 -566.08299476 579.16274731 -566.93945312 576.95898438 C-570.67074078 567.09180145 -573.13663594 556.88283873 -575.70385742 546.66577148 C-576.39040504 544.00689172 -577.13291796 541.36954512 -577.88476562 538.72851562 C-587.56623161 503.34162879 -590.76511254 466.37803546 -590.79492188 429.83007812 C-590.79700653 428.79992584 -590.79909119 427.76977356 -590.80123901 426.70840454 C-590.79689635 407.84445785 -589.70572284 389.0299674 -586.66992188 370.39257812 C-586.41722534 368.80908569 -586.41722534 368.80908569 -586.15942383 367.19360352 C-582.4970817 344.74483289 -578.19258041 322.63671933 -571.41992188 300.89257812 C-571.05382812 299.7134082 -570.68773437 298.53423828 -570.31054688 297.31933594 C-554.59064937 247.2645623 -530.57837055 200.40006792 -498.41992188 158.89257812 C-498.00564941 158.35358887 -497.59137695 157.81459961 -497.16455078 157.25927734 C-483.75516852 139.82856979 -469.18361563 123.59420775 -453.66992188 108.01757812 C-452.8777124 107.2206958 -452.08550293 106.42381348 -451.26928711 105.6027832 C-446.48082099 100.82734147 -441.56382857 96.28136538 -436.41992188 91.89257812 C-435.41060922 91.01520176 -434.40147968 90.13761468 -433.39257812 89.25976562 C-424.66295493 81.78392724 -415.62763142 74.76847828 -406.41992188 67.89257812 C-405.34266846 67.08385254 -405.34266846 67.08385254 -404.24365234 66.25878906 C-330.42048463 11.04496945 -237.87738657 -20.46661458 0 0 Z M-200.41992188 42.89257812 C-201.598125 43.08513184 -202.77632812 43.27768555 -203.99023438 43.47607422 C-277.58348522 55.79306545 -347.34132822 90.57231926 -401.83789062 141.49414062 C-403.92991101 143.43740918 -406.0511456 145.30227223 -408.23242188 147.14257812 C-417.61257284 155.28123852 -426.46214221 164.36514467 -434.41992188 173.89257812 C-435.18820312 174.77171875 -435.95648437 175.65085937 -436.74804688 176.55664062 C-449.6248968 191.35778386 -461.09415376 207.22401653 -471.41992188 223.89257812 C-471.79777832 224.49279785 -472.17563477 225.09301758 -472.56494141 225.71142578 C-479.90286959 237.37908703 -486.20703611 249.59767424 -492.41992188 261.89257812 C-492.80035645 262.64265137 -493.18079102 263.39272461 -493.57275391 264.16552734 C-510.10533033 297.06745307 -520.47681714 333.07035548 -526.66992188 369.26757812 C-526.82106445 370.14430176 -526.97220703 371.02102539 -527.12792969 371.92431641 C-530.15352703 390.66184757 -530.78899925 409.24990866 -530.73242188 428.20507812 C-530.7309314 429.43870087 -530.72944092 430.67232361 -530.72790527 431.94332886 C-530.68704602 450.76435272 -530.16856715 469.25060344 -527.41992188 487.89257812 C-527.27006836 488.92382812 -527.12021484 489.95507812 -526.96582031 491.01757812 C-526.09858161 496.7918044 -525.09333423 502.52551634 -523.94824219 508.25097656 C-523.60373456 509.97351468 -523.26925577 511.69809812 -522.94628906 513.42480469 C-516.74820661 546.36575224 -504.00677412 579.35714338 -488.43994141 608.93798828 C-487.33698909 611.05149624 -486.26653762 613.17981449 -485.19726562 615.31054688 C-473.07033994 639.23081373 -457.77551351 661.46546426 -440.41992188 681.89257812 C-439.45368106 683.04484224 -438.48754179 684.1971915 -437.52148438 685.34960938 C-432.36135178 691.47010907 -427.11720916 697.36040591 -421.36914062 702.94335938 C-419.58129826 704.73120174 -417.96339118 706.567165 -416.35742188 708.51757812 C-413.67309404 711.73433462 -410.66778809 714.37702154 -407.47851562 717.08398438 C-405.41667681 718.8954291 -403.51615476 720.79639181 -401.60742188 722.76757812 C-396.8713299 727.55874094 -391.67618386 731.69023669 -386.41992188 735.89257812 C-385.33004536 736.79461356 -384.2415516 737.69832177 -383.15429688 738.60351562 C-366.45139184 752.39973013 -348.20697091 764.15212365 -329.41992188 774.89257812 C-328.51081055 775.41561523 -327.60169922 775.93865234 -326.66503906 776.47753906 C-295.8419435 794.0831837 -262.90035479 806.62701274 -228.41992188 814.89257812 C-227.5238623 815.11397461 -226.62780273 815.33537109 -225.70458984 815.56347656 C-185.72465102 825.42987929 -144.45445647 828.15658006 -103.41992188 824.89257812 C-102.7536377 824.84407715 -102.08735352 824.79557617 -101.40087891 824.74560547 C-52.9881715 821.03784888 -3.32650583 805.24350667 39.54492188 782.94482422 C41.69418834 781.8335792 43.855161 780.74751952 46.01757812 779.66210938 C69.44369918 767.77525725 91.58030325 752.9272701 111.58007812 735.89257812 C112.66320465 734.98347751 113.7465505 734.07463815 114.83007812 733.16601562 C128.75023102 721.4274525 142.68430192 709.13534387 154.53320312 695.27539062 C156.12922606 693.417425 157.7438911 691.58476124 159.37695312 689.75976562 C172.37550017 675.1402042 184.15066397 659.44564752 194.58007812 642.89257812 C195.25321045 641.82813477 195.25321045 641.82813477 195.93994141 640.7421875 C210.64890627 617.3005621 222.65209142 592.71039597 232.58007812 566.89257812 C232.99628418 565.81717773 233.41249023 564.74177734 233.84130859 563.63378906 C250.24153805 520.6405709 256.03450377 475.31650481 255.89257812 429.51757812 C255.89034241 427.71788574 255.89034241 427.71788574 255.88806152 425.88183594 C255.84898685 408.35305295 255.3762281 391.22516103 252.58007812 373.89257812 C252.43022461 372.89613281 252.28037109 371.8996875 252.12597656 370.87304688 C247.220943 338.42276115 237.4394884 307.04317285 224.58007812 276.89257812 C224.20915039 276.01311523 223.83822266 275.13365234 223.45605469 274.22753906 C201.39460717 222.23546643 164.95146157 172.32772929 121.58007812 135.89257812 C120.65195313 135.08691406 119.72382812 134.28125 118.76757812 133.45117188 C110.34727886 126.16985667 101.56627368 119.45729295 92.58007812 112.89257812 C91.91524414 112.40144531 91.25041016 111.9103125 90.56542969 111.40429688 C60.54011552 89.2757717 26.91134908 72.8925347 -7.98242188 60.01757812 C-9.81848999 59.33876587 -9.81848999 59.33876587 -11.69165039 58.64624023 C-25.09872779 53.78339571 -38.66352042 50.23087475 -52.60742188 47.33007812 C-53.33113983 47.1785025 -54.05485779 47.02692688 -54.80050659 46.87075806 C-82.76162418 41.02725747 -110.20386874 38.46946989 -138.79492188 38.51757812 C-139.9673645 38.51778961 -141.13980713 38.5180011 -142.34777832 38.51821899 C-161.99145571 38.55338866 -181.0434066 39.64827276 -200.41992188 42.89257812 Z " fill="#010101" transform="translate(1161.419921875,592.107421875)"/>
<path d="M0 0 C2.39656565 0.00084793 4.79313207 0.0003679 7.18969727 -0.00132751 C13.64516591 -0.00218241 20.1004647 0.01536101 26.55589414 0.03639436 C32.634023 0.05478812 38.71216658 0.05627211 44.7903186 0.05934998 C56.81581048 0.06588851 68.84124073 0.08577848 80.86669922 0.11425781 C92.536618 0.14186611 104.20651993 0.16306638 115.87646484 0.17578125 C116.59783847 0.17656942 117.3192121 0.17735759 118.06244553 0.17816965 C121.68197395 0.18208524 125.3015025 0.18587625 128.92103112 0.18960536 C158.86853981 0.22062021 188.8159765 0.27361009 218.76342773 0.34057617 C217.80731422 1.62808361 216.84945356 2.91429371 215.89085388 4.19995117 C215.35763236 4.91634766 214.82441084 5.63274414 214.27503109 6.37084961 C212.62338711 8.52305906 210.86888074 10.4503922 208.92358398 12.34057617 C208.25262695 13.00057617 207.58166992 13.66057617 206.89038086 14.34057617 C206.20911133 15.00057617 205.5278418 15.66057617 204.82592773 16.34057617 C200.12968143 20.91617675 195.63288638 25.55248108 191.35546875 30.52368164 C189.24540067 32.93176731 186.99391166 35.16974712 184.70092773 37.40307617 C181.3953457 40.46175078 181.3953457 40.46175078 178.81940269 44.09524918 C177.36077483 46.51059371 176.13863228 47.77999041 173.76342773 49.34057617 C167.94532755 50.41883684 162.1612644 50.25307177 156.26196289 50.17944336 C154.45454159 50.18242147 152.64712314 50.18851814 150.83972168 50.19749451 C146.95004121 50.21012419 143.06125876 50.20071731 139.17164993 50.17418671 C133.00848514 50.13229977 126.84596487 50.13949782 120.68270874 50.15313721 C110.91993697 50.16891423 101.15754486 50.15167877 91.39482057 50.12046647 C73.95155578 50.06529899 56.50828661 50.05668275 39.0649513 50.07397008 C32.9526404 50.07861043 26.8406863 50.06601922 20.72843671 50.03886461 C16.90363365 50.02446917 13.07888597 50.02231493 9.25405884 50.02290535 C7.4966214 50.02054605 5.73918118 50.01308651 3.98179245 49.9997921 C-21.24006729 49.8156891 -41.94703566 55.16295686 -60.35791016 73.22192383 C-65.66571413 78.50476852 -70.77050031 83.8944389 -75.66918945 89.55932617 C-77.59963447 91.7531777 -79.63957124 93.80617219 -81.73657227 95.84057617 C-85.16540017 99.22299016 -88.35705745 102.7212806 -91.49047852 106.37573242 C-93.96016586 109.15482132 -96.61560548 111.72918113 -99.26391602 114.33666992 C-101.808675 116.92174192 -104.15449857 119.65302679 -106.51782227 122.40307617 C-108.69241011 124.85442974 -111.00247308 127.13826149 -113.36547852 129.40698242 C-115.24437546 131.18001406 -115.24437546 131.18001406 -116.17286682 133.03662109 C-117.66034079 135.39513287 -118.92016758 136.75812512 -121.23657227 138.34057617 C-126.5277118 139.34809843 -131.7773668 139.15580076 -137.13500977 139.02416992 C-138.69582901 139.01110264 -140.2566771 139.0011438 -141.8175354 138.99415588 C-145.91180679 138.96751781 -150.00432027 138.89883665 -154.09790039 138.82122803 C-158.28060121 138.74942418 -162.46358809 138.7176081 -166.64672852 138.68237305 C-174.84414692 138.60745756 -183.0401405 138.4880999 -191.23657227 138.34057617 C-186.87653765 131.72759283 -186.87653765 131.72759283 -184.46704102 129.41088867 C-183.97429688 128.92974609 -183.48155273 128.44860352 -182.97387695 127.95288086 C-182.20672363 127.21666504 -182.20672363 127.21666504 -181.42407227 126.46557617 C-177.3854565 122.51480945 -173.54164053 118.50478258 -169.87719727 114.19995117 C-167.4493334 111.44837212 -164.81907308 108.91411543 -162.20532227 106.34057617 C-160.29670772 104.40166615 -158.50946675 102.40358066 -156.73657227 100.34057617 C-154.33980639 97.55161224 -151.85697836 94.92066832 -149.23657227 92.34057617 C-146.65732166 89.80085432 -144.21439838 87.21606303 -141.86157227 84.46557617 C-139.12035778 81.27375108 -136.22971339 78.2975464 -133.23657227 75.34057617 C-129.65098528 71.79825418 -126.28765565 68.16501956 -123.01391602 64.33666992 C-120.35962271 61.35569436 -117.5066859 58.58770134 -114.64282227 55.80932617 C-112.72570594 53.84241462 -110.93519916 51.85410294 -109.14672852 49.77416992 C-97.40979744 36.26930659 -84.36190476 21.50427834 -68.23657227 13.34057617 C-67.16665039 12.77854492 -66.09672852 12.21651367 -64.99438477 11.63745117 C-44.28654479 1.4076789 -22.63677303 -0.11319039 0 0 Z " fill="#010101" transform="translate(965.236572265625,954.659423828125)"/>
<path d="M0 0 C1.74573756 0.00084806 3.49147619 0.00036765 5.23721313 -0.00132751 C9.93680246 -0.00218192 14.63615816 0.01535312 19.3356936 0.03639436 C24.26172185 0.05525449 29.18775652 0.05691891 34.11381531 0.06047058 C43.42429136 0.06976378 52.73466067 0.09434036 62.0450899 0.12451905 C72.65218778 0.15814829 83.25929098 0.17457043 93.86642897 0.18960536 C115.66971971 0.22089257 137.47291463 0.27359961 159.27612305 0.34057617 C154.91608843 6.95355952 154.91608843 6.95355952 152.5065918 9.27026367 C151.76747559 9.99197754 151.76747559 9.99197754 151.01342773 10.72827148 C150.50199219 11.21908203 149.99055664 11.70989258 149.46362305 12.21557617 C145.42500728 16.1663429 141.58119132 20.17636976 137.91674805 24.48120117 C135.49252742 27.22865122 132.86653481 29.75930037 130.2565918 32.32885742 C127.71562206 34.90992136 125.35688239 37.62255957 123.0144043 40.38354492 C122.44077148 41.02936523 121.86713867 41.67518555 121.27612305 42.34057617 C120.64613403 43.19364853 120.01614502 44.04672089 119.36706543 44.92564392 C114.77891585 48.51033397 110.75240933 48.01589848 105.08276367 47.93652344 C103.38660919 47.94261124 103.38660919 47.94261124 101.65618896 47.94882202 C99.20135999 47.9543408 96.74648423 47.94832655 94.29170227 47.93216133 C90.39762313 47.90675571 86.5046036 47.91153773 82.61047363 47.92405701 C75.03441201 47.94470963 67.45864376 47.92915289 59.88259888 47.90858459 C49.61239467 47.88172807 39.34251602 47.87560967 29.0723114 47.9035778 C25.25185871 47.90692161 21.4320689 47.88576629 17.61169434 47.86317444 C-1.0644512 47.83993445 -13.56549078 49.31753438 -27.28637695 62.71557617 C-30.69891941 66.20460665 -33.95989926 69.79633578 -37.1184082 73.51635742 C-37.64821289 74.11834961 -38.17801758 74.7203418 -38.72387695 75.34057617 C-39.27887878 76.02883484 -39.83388062 76.71709351 -40.40570068 77.4262085 C-43.52503125 80.00217551 -45.4064539 79.82440894 -49.42016602 79.79467773 C-50.08399292 79.79526184 -50.74781982 79.79584595 -51.4317627 79.79644775 C-53.61821433 79.79366882 -55.80328957 79.76258945 -57.98950195 79.73120117 C-59.50835424 79.72373802 -61.02721617 79.71804543 -62.54608154 79.71405029 C-66.53791021 79.69879959 -70.52915393 79.6595234 -74.52075195 79.61523438 C-78.5961923 79.57426906 -82.67172743 79.55603663 -86.74731445 79.53588867 C-94.73976997 79.49302792 -102.73175064 79.42478422 -110.72387695 79.34057617 C-109.76628939 78.22185444 -108.80848357 77.10331953 -107.85058594 75.98486328 C-107.31723129 75.36195908 -106.78387665 74.73905487 -106.23435974 74.09727478 C-98.66936702 65.29915256 -90.65764412 56.89920072 -82.70874023 48.45043945 C-80.11470572 45.69304139 -77.5226007 42.93384101 -74.93212891 40.1730957 C-73.67241734 38.83080935 -72.41184308 37.48933208 -71.15039062 36.14868164 C-68.22516802 33.03454883 -65.32011063 29.90689438 -62.46606445 26.72729492 C-44.64596833 6.90595142 -26.32260656 -0.1809551 0 0 Z " fill="#020202" transform="translate(968.723876953125,1013.659423828125)"/>
<path d="M0 0 C1.69390686 0.01493588 3.38784848 0.02631655 5.08180237 0.03430176 C9.52310958 0.0647312 13.96229687 0.14321004 18.402771 0.23193359 C22.94074833 0.31402664 27.479071 0.35036296 32.01757812 0.390625 C40.90978155 0.47621716 49.80041708 0.61260892 58.69140625 0.78125 C57.3508159 3.56264134 56.12481278 5.58456915 53.8984375 7.734375 C53.35413086 8.26708008 52.80982422 8.79978516 52.24902344 9.34863281 C51.67313477 9.90389648 51.09724609 10.45916016 50.50390625 11.03125 C46.26937592 15.18252359 42.20275401 19.36688977 38.36328125 23.890625 C35.68119265 26.92364108 32.76407376 29.71633434 29.8828125 32.55859375 C27.27039557 35.2082644 24.85838004 37.99297803 22.4375 40.81640625 C19.96537207 43.59824148 17.30710078 46.17500951 14.65625 48.78515625 C12.76909881 50.70232177 11.0045525 52.67700322 9.25390625 54.71875 C6.68475354 57.70926716 3.99823369 60.51241684 1.19140625 63.28125 C-1.59480516 66.0298099 -4.26167767 68.80984791 -6.80859375 71.78125 C-10.05904026 75.57343759 -13.56308944 79.05260531 -17.1171875 82.55859375 C-19.72960443 85.2082644 -22.14161996 87.99297803 -24.5625 90.81640625 C-27.03340764 93.59686832 -29.69026315 96.17243218 -32.33984375 98.78125 C-34.2484583 100.72016002 -36.03569927 102.71824551 -37.80859375 104.78125 C-40.82621728 108.29266648 -44.04218456 111.53432402 -47.33984375 114.78125 C-49.86029916 117.34171264 -52.179639 120.04890543 -54.51953125 122.7734375 C-56.9957908 125.55247115 -59.64120657 128.14016612 -62.31640625 130.7265625 C-64.47220119 132.84029851 -64.47220119 132.84029851 -66.46159363 135.86709595 C-68.67501955 138.51769292 -69.18105047 138.75485527 -72.79512024 139.5027771 C-74.1476314 139.52003634 -75.50081737 139.5045057 -76.8527832 139.46240234 C-77.96578545 139.46371658 -77.96578545 139.46371658 -79.10127258 139.46505737 C-81.54256189 139.46089243 -83.98106871 139.41429977 -86.421875 139.3671875 C-88.11865233 139.35599128 -89.81544912 139.3474531 -91.51225281 139.34146118 C-95.9695936 139.31859587 -100.4257538 139.2596938 -104.88262939 139.1932373 C-109.43396026 139.13176436 -113.98548267 139.10443555 -118.53710938 139.07421875 C-127.46145508 139.00994725 -136.38492609 138.90759656 -145.30859375 138.78125 C-144.36812068 137.50675079 -143.42476685 136.23437707 -142.48022461 134.96289062 C-141.95520859 134.25410767 -141.43019257 133.54532471 -140.88926697 132.81506348 C-138.75764258 130.07235464 -136.37032252 127.68979557 -133.87109375 125.28125 C-130.053183 121.55612898 -126.44684803 117.73323772 -122.984375 113.67578125 C-120.54326836 110.916022 -117.90568775 108.36914024 -115.28125 105.78515625 C-112.73521546 103.19878849 -110.38837818 100.4658972 -108.0234375 97.71484375 C-105.80811995 95.21693444 -103.43961205 92.90100011 -101.05859375 90.5625 C-99.22616888 88.69735326 -97.5150624 86.76197254 -95.80859375 84.78125 C-93.56301435 82.17477391 -91.26307863 79.69190479 -88.80859375 77.28125 C-86.37469643 74.89071833 -84.09503816 72.43078738 -81.87109375 69.84375 C-78.83179724 66.31490237 -75.59842528 63.05119973 -72.28125 59.78515625 C-69.73521546 57.19878849 -67.38837818 54.4658972 -65.0234375 51.71484375 C-63.34855076 49.82630403 -61.60911788 48.04969352 -59.80859375 46.28125 C-57.39526658 43.91082643 -55.13587522 41.47388692 -52.93359375 38.90625 C-50.3422517 35.8965747 -47.63604592 33.07036384 -44.80859375 30.28125 C-42.02238234 27.5326901 -39.35550983 24.75265209 -36.80859375 21.78125 C-33.62854719 18.07119568 -30.22097573 14.65147133 -26.71484375 11.25 C-24.33523399 9.00413549 -24.33523399 9.00413549 -23.15086365 6.81762695 C-17.5746628 -1.64759872 -9.05127969 -0.23445134 0 0 Z " fill="#010101" transform="translate(1215.30859375,954.21875)"/>
</svg>
