<?xml version="1.0" encoding="UTF-8"?>
<svg version="1.1" xmlns="http://www.w3.org/2000/svg" width="1254" height="1254">
<path d="M0 0 C413.82 0 827.64 0 1254 0 C1254 413.82 1254 827.64 1254 1254 C840.18 1254 426.36 1254 0 1254 C0 840.18 0 426.36 0 0 Z " fill="#FDFDFD" transform="translate(0,0)"/>
<path d="M0 0 C1.42925573 0.36497625 2.85890874 0.72840242 4.2890625 1.08984375 C13.29376323 3.4109312 22.15571646 6.13922831 31 9 C31.84997559 9.27247559 32.69995117 9.54495117 33.57568359 9.82568359 C52.27567899 15.83723647 52.27567899 15.83723647 59.96875 19.57421875 C62.51270989 20.77079782 65.06167837 21.87749681 67.65625 22.95703125 C79.81377871 28.01974037 91.46366211 33.65299967 103 40 C104.18614605 40.63941913 105.37234011 41.27874924 106.55859375 41.91796875 C142.65957665 61.86067897 178.56552786 90.2788953 204 123 C204.78761719 123.98226562 205.57523438 124.96453125 206.38671875 125.9765625 C222.32028852 146.010035 235.07699568 168.45569373 245 192 C245.27650391 192.64855957 245.55300781 193.29711914 245.83789062 193.96533203 C265.49399085 240.33133555 275.21678309 289.90385018 275.25 340.1875 C275.25101212 341.57536713 275.25101212 341.57536713 275.25204468 342.99127197 C275.23414829 358.52031529 274.43616938 373.63788491 272 389 C271.81775879 390.16160645 271.63551758 391.32321289 271.44775391 392.52001953 C270.13204204 400.71436538 268.64285855 408.86509713 267 417 C266.82807129 417.85480957 266.65614258 418.70961914 266.47900391 419.59033203 C257.66844788 461.80210047 238.98680127 502.15622491 218.04516602 539.53417969 C211.12453374 551.95701266 204.54122368 565.28606533 204.56640625 579.81640625 C203.68247648 583.22410793 201.61989614 584.71698269 199 587 C190.34019334 590.63368237 180.76166565 591.88952888 171.5 593.0625 C169.64906738 593.30782471 169.64906738 593.30782471 167.76074219 593.55810547 C156.26557974 595.04467392 144.74233733 596.20382706 133.203125 597.2890625 C128.04888709 597.78062177 122.9096935 598.35095818 117.76953125 598.96875 C111.82951013 599.68213706 105.88679249 600.33604176 99.93359375 600.9296875 C98.78571884 601.04415474 98.78571884 601.04415474 97.61465454 601.16093445 C96.03637187 601.31798387 94.4580737 601.47487759 92.87976074 601.63162231 C78.32053043 603.08248778 63.79737403 604.70689158 49.28564453 606.57202148 C41.13584359 607.61777426 32.98263811 608.56612519 24.8125 609.4375 C13.89152197 610.61450754 3.00848554 612.02193076 -7.875 613.5 C-8.62534515 613.60182587 -9.37569031 613.70365173 -10.14877319 613.80856323 C-14.64632325 614.42060543 -19.14246043 615.0423082 -23.63775635 615.67068481 C-25.23957161 615.89399035 -26.84158932 616.11584754 -28.44378662 616.33639526 C-41.76354272 618.1709003 -55.02713372 620.26899293 -68.28027344 622.53442383 C-71.42040073 623.07024706 -74.56170474 623.59876906 -77.703125 624.12695312 C-79.72663637 624.47091988 -81.75007668 624.81530499 -83.7734375 625.16015625 C-84.69949799 625.31541275 -85.62555847 625.47066925 -86.5796814 625.63063049 C-91.50245404 626.47866447 -96.19602486 627.61136217 -101 629 C-103.1368026 629.3514845 -105.28092702 629.66081001 -107.4296875 629.9296875 C-115.39819468 631.01219375 -123.24872802 632.52656087 -131.125 634.125 C-131.86867828 634.27484344 -132.61235657 634.42468689 -133.37857056 634.57907104 C-156.17692691 639.1779277 -178.9248431 644.09055315 -201.46044922 649.84960938 C-208.7196801 651.70195614 -216.00735786 653.40118125 -223.3125 655.0625 C-237.88302776 658.38784447 -252.27670795 662.22150739 -266.66088867 666.26806641 C-270.85814827 667.4387715 -275.05540357 668.50061005 -279.3125 669.4375 C-290.64104934 671.97226291 -301.75060851 675.44826495 -312.87890625 678.734375 C-323.75170617 681.93905522 -334.63847499 684.98891856 -345.62084961 687.79638672 C-352.78710068 689.64331413 -359.86201737 691.72290085 -366.93676758 693.89086914 C-372.55381982 695.60011333 -378.18156157 697.09575782 -383.890625 698.47021484 C-389.12165497 699.74321894 -394.27353556 701.23003877 -399.4375 702.75 C-412.28788742 706.50647369 -425.31694368 709.54425823 -438.33808899 712.6414032 C-442.40651112 713.61105035 -446.46505988 714.61433297 -450.51953125 715.640625 C-461.5961872 718.42309891 -472.70149357 720.22932595 -484.06103516 721.35375977 C-488.02073316 721.71778807 -488.02073316 721.71778807 -491.90698242 722.51635742 C-496.34941559 723.54288957 -501.02499567 723.18474499 -505.5625 723.1875 C-506.59697266 723.19974609 -507.63144531 723.21199219 -508.69726562 723.22460938 C-515.46794253 723.23732824 -522.51941201 723.1675063 -529 721 C-530.94054656 718.08918016 -531.24227006 717.20858597 -531.68359375 713.9453125 C-533.09051102 706.43001815 -536.16608803 699.52354807 -539.01809692 692.4649353 C-545.78456995 675.68527641 -552.06254797 658.75505248 -558.0625 641.6875 C-558.41104034 640.69659363 -558.75958069 639.70568726 -559.11868286 638.68475342 C-561.10384007 633.03449642 -563.07832644 627.38057383 -565.04864502 621.72512817 C-566.01016115 618.9708937 -566.97668544 616.21846573 -567.94482422 613.46655273 C-568.25850449 612.5739827 -568.57218475 611.68141266 -568.89537048 610.76179504 C-569.47990612 609.09903928 -570.06524847 607.43656675 -570.65162659 605.77445984 C-573.06580173 598.89856213 -575.31306576 591.97262111 -577.45703125 585.0078125 C-577.70404785 584.20633789 -577.95106445 583.40486328 -578.20556641 582.57910156 C-578.59881104 581.30244629 -578.59881104 581.30244629 -579 580 C-579.29438965 579.05092773 -579.5887793 578.10185547 -579.89208984 577.12402344 C-581.96797035 570.42770486 -584.00779543 563.72169822 -586 557 C-586.36609375 555.76636719 -586.7321875 554.53273438 -587.109375 553.26171875 C-590.80604655 539.81769155 -588.71916302 531.64712497 -582.02197266 519.77197266 C-580.10353286 516.4456382 -578.13025262 513.19537893 -576 510 C-574.6882077 510.1053582 -574.6882077 510.1053582 -573.34991455 510.21284485 C-563.23716401 510.96334946 -553.18471586 511.16335708 -543.046875 511.16796875 C-541.33612035 511.17119966 -539.62536595 511.17456493 -537.91461182 511.17805481 C-534.33776209 511.18400292 -530.76093634 511.18589973 -527.18408203 511.18530273 C-523.59711573 511.18522232 -520.01027943 511.19203525 -516.42333984 511.20581055 C-485.01944658 511.32429949 -453.88142706 510.44385699 -422.6875 506.5625 C-419.8793068 506.2259104 -417.07065853 505.89332838 -414.26193237 505.56121826 C-412.41880601 505.34327267 -410.57580505 505.12426359 -408.73294067 504.90411377 C-400.74786721 503.954488 -392.75440377 503.14389722 -384.75 502.375 C-364.65958066 500.4155823 -344.68629377 497.71225091 -324.69995117 494.90673828 C-316.26035717 493.72300101 -307.81805406 492.57555061 -299.36669922 491.47851562 C-286.8419424 489.84954924 -274.37497162 487.98919942 -261.9140625 485.92797852 C-253.49992488 484.54203956 -245.07767034 483.2734956 -236.63549805 482.07275391 C-204.55802748 477.50699376 -182.22403644 468.20152934 -154.74963379 451.08892822 C-151.98956372 449.37112978 -149.22468508 447.66109225 -146.4609375 445.94921875 C-135.55218649 439.17464325 -124.71888724 432.29113476 -113.96386719 425.27539062 C-112.03622698 424.02352682 -110.10160231 422.78335079 -108.1640625 421.546875 C-62.23252848 394.21026383 -62.23252848 394.21026383 -29 354 C-28.51789062 353.13632812 -28.03578125 352.27265625 -27.5390625 351.3828125 C-18.21543387 334.14822625 -17.05992547 312.86863367 -22 294 C-26.03088771 281.16249893 -32.17072976 270.11796057 -41 260 C-41.51949219 259.38511719 -42.03898438 258.77023437 -42.57421875 258.13671875 C-48.04636572 252.14078945 -55.15137029 248.22446883 -62 244 C-62.99 243.34 -63.98 242.68 -65 242 C-64.80561829 240.14692688 -64.80561829 240.14692688 -64 238 C-61.91081238 236.73747253 -61.91081238 236.73747253 -59.11010742 235.64916992 C-58.05906326 235.23137772 -57.0080191 234.81358551 -55.92512512 234.38313293 C-54.18908272 233.71975166 -54.18908272 233.71975166 -52.41796875 233.04296875 C-50.57053886 232.31454922 -48.72311669 231.58610965 -46.8760519 230.85676479 C-44.91540415 230.08523843 -42.95212203 229.32075774 -40.98822021 228.55755615 C-37.09066489 227.03996225 -33.20688718 225.48951517 -29.32666016 223.92822266 C-28.69034164 223.67225878 -28.05402313 223.4162949 -27.39842224 223.15257454 C-26.10297935 222.63141269 -24.80755656 222.11020083 -23.51215363 221.58893967 C-20.19019425 220.25404259 -16.86536921 218.92633065 -13.54052734 217.59863281 C-12.87025513 217.33093016 -12.19998291 217.0632275 -11.50939941 216.78741264 C-10.13982861 216.24042731 -8.77024795 215.69346668 -7.40065765 215.14653015 C-3.8366599 213.72303534 -0.27308414 212.29848489 3.29052734 210.87402344 C8.93585766 208.61755691 14.58137978 206.36157104 20.22705078 204.10595703 C29.7054262 200.31896987 39.18227469 196.52816803 48.65884399 192.73666382 C51.02602412 191.78959844 53.39324906 190.84264519 55.76049805 189.89575195 C56.48470444 189.60597977 57.20891083 189.31620758 57.95506287 189.01765442 C59.33464722 188.46602967 60.71448772 187.91504494 62.09461975 187.36479187 C65.49129814 186.0096393 68.88174935 184.64118263 72.26464844 183.25195312 C72.95420624 182.97071594 73.64376404 182.68947876 74.35421753 182.39971924 C76.24394491 181.6284265 78.13157021 180.85198915 80.01904297 180.07519531 C83 179 83 179 86 179 C85.67 178.01 85.34 177.02 85 176 C79.83456058 176.6726317 74.8052574 177.63455309 69.7265625 178.78515625 C68.9386734 178.96167725 68.1507843 179.13819824 67.33901978 179.32006836 C64.76695056 179.89769287 62.19593086 180.47983132 59.625 181.0625 C58.73663452 181.26285858 57.84826904 181.46321716 56.9329834 181.66964722 C44.34303634 184.51026142 31.78765016 187.47072228 19.25494385 190.55319214 C8.36845121 193.22773471 -2.55159242 195.71707809 -13.5 198.125 C-30.93224418 201.96147461 -48.32851773 205.90348276 -65.5625 210.5625 C-76.59838977 213.54180705 -87.79476192 215.76147467 -99 218 C-99.72872314 218.15394226 -100.45744629 218.30788452 -101.20825195 218.4664917 C-107.23871032 219.7195375 -113.25328189 220.63390911 -119.3671875 221.3671875 C-120.34371277 221.48677826 -121.32023804 221.60636902 -122.32635498 221.72958374 C-125.50862182 222.11670092 -128.69168225 222.4966273 -131.875 222.875 C-133.51888702 223.07192444 -133.51888702 223.07192444 -135.19598389 223.27282715 C-156.87389203 225.86014349 -178.58172929 227.95480124 -200.33627319 229.77471924 C-203.18082369 230.0152929 -206.02460865 230.26389711 -208.8684082 230.51318359 C-221.88271882 231.64392862 -234.88473376 232.58541987 -247.9375 233.125 C-249.44083893 233.18803818 -249.44083893 233.18803818 -250.97454834 233.25234985 C-275.43731365 234.22655136 -299.91612687 234.18832998 -324.39436722 234.18758392 C-326.53257883 234.18752838 -328.67079051 234.18795357 -330.80900192 234.18888092 C-351.7493245 234.19795327 -372.68792835 234.17825389 -393.62109375 233.578125 C-394.90057892 233.54329514 -396.18006409 233.50846527 -397.49832153 233.47257996 C-407.66017333 233.13710947 -417.66937582 232.06058822 -427.74609375 230.75 C-434.1509399 229.93923458 -440.56000864 229.48945276 -447 229.0625 C-460.1274259 228.1666046 -473.03512623 226.20303445 -486 224 C-483.99552233 214.44721007 -483.99552233 214.44721007 -482.375 210.5625 C-482.03210938 209.74007812 -481.68921875 208.91765625 -481.3359375 208.0703125 C-478.60029102 201.78312498 -475.81749861 195.5173987 -473.01171875 189.26123047 C-471.60982408 186.12794175 -470.22062456 182.98905636 -468.83203125 179.84985352 C-468.24906491 178.55374555 -467.63556992 177.27113984 -467 176 C-466.34 176 -465.68 176 -465 176 C-464.82984375 174.91332031 -464.82984375 174.91332031 -464.65625 173.8046875 C-463.47017474 168.73562775 -460.58758531 164.4764134 -458 160 C-457.34773437 158.86046875 -456.69546875 157.7209375 -456.0234375 156.546875 C-446.77698647 140.6274397 -435.82318586 126.08134647 -424 112 C-423.46810059 111.36368652 -422.93620117 110.72737305 -422.38818359 110.07177734 C-414.8191829 101.03855613 -407.07319529 92.52580547 -398.11328125 84.8359375 C-395.80426107 82.82994955 -393.56250055 80.75939065 -391.3125 78.6875 C-375.21700369 64.22346852 -356.84442825 51.60490057 -338 41 C-337.18305664 40.53883789 -336.36611328 40.07767578 -335.52441406 39.60253906 C-250.72620987 -8.01705898 -151.82693344 -24.26362408 0 0 Z " fill="#000000" transform="translate(784,236)"/>
<path d="M0 0 C1.61207336 0.16514099 1.61207336 0.16514099 3.25671387 0.33361816 C8.81272363 0.98341223 14.36162725 1.66766182 19.90722656 2.40136719 C22.49084406 2.73729736 25.07450472 3.07289578 27.65820312 3.40820312 C29.01436637 3.58489903 30.37052682 3.76161642 31.72668457 3.93835449 C64.32766791 8.18019667 96.96201618 11.831506 129.70019531 14.85058594 C130.68458588 14.94145477 131.66897644 15.03232361 132.68319702 15.12594604 C137.34018388 15.55450312 141.9975652 15.9770185 146.65625 16.38671875 C153.47786619 16.99463757 160.24838116 17.60210321 167.00488281 18.74902344 C175.34925816 20.11521103 183.76910314 20.52863763 192.19989014 21.04812622 C195.19206307 21.2326033 198.1836968 21.42432762 201.17529297 21.61791992 C206.10379291 21.93608249 211.03259579 22.24917072 215.96154785 22.5602417 C261.7537971 25.45210932 261.7537971 25.45210932 272.64160156 30.72949219 C272.64160156 31.38949219 272.64160156 32.04949219 272.64160156 32.72949219 C273.32222656 32.91511719 274.00285156 33.10074219 274.70410156 33.29199219 C282.44671988 37.08093307 286.48994685 43.95454234 289.64160156 51.72949219 C296.91295972 74.23388547 282.63872608 106.39150669 276.22000122 128.06082153 C275.79896922 129.48550592 275.38175363 130.91132479 274.96871948 132.33834839 C269.39152569 151.53125059 260.03443724 167.54778524 242.20410156 177.54199219 C233.92298265 181.99454782 225.15040366 184.02594375 215.91894531 185.41308594 C215.023918 185.55345779 214.12889069 185.69382965 213.20674133 185.8384552 C210.33183899 186.28787598 207.45555245 186.72760261 204.57910156 187.16699219 C202.58453305 187.4765547 200.59006728 187.78677986 198.59570312 188.09765625 C194.69003061 188.70600414 190.78389769 189.31125827 186.87744141 189.91455078 C181.52895668 190.74330749 176.18812166 191.61298119 170.84790039 192.4934082 C161.22264598 194.07602291 151.58941333 195.42531683 141.90454102 196.58813477 C136.61383819 197.22486395 131.33409575 197.90296779 126.05957031 198.66308594 C109.80682119 201.00430095 93.55478527 202.84999526 77.21166992 204.42260742 C76.39107086 204.50283142 75.5704718 204.58305542 74.7250061 204.66571045 C73.17495657 204.81687556 71.6245686 204.96462102 70.07382202 205.10845947 C66.23316238 205.4390755 66.23316238 205.4390755 62.64160156 206.72949219 C60.7034389 206.95974738 58.7587262 207.13564762 56.81274414 207.28613281 C54.97230278 207.43133362 54.97230278 207.43133362 53.09468079 207.57946777 C51.74184648 207.68175813 50.38899669 207.78384381 49.03613281 207.88574219 C47.63675487 207.99376194 46.23739705 208.1020428 44.83805847 208.21057129 C41.88662456 208.43850777 38.93497999 208.66342665 35.9831543 208.88623047 C32.27141635 209.16659704 28.5602644 209.4539805 24.84923077 209.74350071 C1.12645849 211.59034092 -22.49190859 212.913266 -46.29589844 212.79199219 C-48.06998567 212.78695078 -49.84407434 212.78239269 -51.61816406 212.77832031 C-55.8649461 212.76756115 -60.11165502 212.75045341 -64.35839844 212.72949219 C-65.60913257 206.87015358 -64.93441238 202.73421855 -63.26074219 197.03417969 C-63.03139481 196.21298141 -62.80204742 195.39178314 -62.56575012 194.54570007 C-61.8220396 191.89479016 -61.0592548 189.24980455 -60.29589844 186.60449219 C-59.77874544 184.77532327 -59.26279839 182.94581297 -58.74804688 181.1159668 C-57.5111743 176.73041712 -56.25976942 172.34921318 -55.00140381 167.9697876 C-54.17279944 165.08284662 -53.35294858 162.19345493 -52.53417969 159.30371094 C-51.6129152 156.05942908 -50.68429963 152.81741702 -49.74902344 149.57714844 C-48.08605992 143.80377291 -46.47385107 138.01630548 -44.85839844 132.22949219 C-42.70879227 124.53709018 -40.55059801 116.8473762 -38.35839844 109.16699219 C-38.11516846 108.31451904 -37.87193848 107.4620459 -37.62133789 106.58374023 C-36.35020592 102.14417095 -35.06026205 97.71091804 -33.74511719 93.28417969 C-30.03716582 80.7741554 -26.59337087 68.21227765 -23.28125 55.5930481 C-20.00773087 43.12126671 -16.60648897 30.69159212 -13.07666016 18.28955078 C-12.41088166 15.91655509 -11.77103445 13.53863748 -11.14355469 11.15527344 C-10.80195313 9.88039063 -10.46035156 8.60550781 -10.10839844 7.29199219 C-9.83511719 6.24140625 -9.56183594 5.19082031 -9.28027344 4.10839844 C-7.44134842 -0.63696316 -4.46454409 -0.46974972 0 0 Z " fill="#FCFCFC" transform="translate(301.3583984375,498.2705078125)"/>
<path d="M0 0 C2.38793399 0.57513198 4.67883598 0.74905503 7.12988281 0.91162109 C8.66153076 1.01893555 8.66153076 1.01893555 10.22412109 1.12841797 C11.3261084 1.20382812 12.4280957 1.27923828 13.56347656 1.35693359 C22.94520219 2.0346559 32.28234575 2.9003318 41.62597656 3.98193359 C60.25384142 6.12176491 78.90757847 7.54546585 97.62133789 8.69702148 C103.06795295 9.04190689 108.49329527 9.41588728 113.9206543 9.98754883 C128.25800267 11.47594828 142.40771564 11.69166144 156.81347656 11.54443359 C160.15052122 11.51675925 163.48752468 11.49216285 166.82463074 11.47325134 C168.87684617 11.46102893 170.92903837 11.44345944 172.9811554 11.41993713 C174.34605354 11.41014076 174.34605354 11.41014076 175.73852539 11.40014648 C176.54042801 11.39189346 177.34233063 11.38364044 178.16853333 11.37513733 C180.00097656 11.48193359 180.00097656 11.48193359 181.00097656 12.48193359 C183.22142728 12.58709446 185.44528339 12.6205174 187.66821289 12.62719727 C188.71945957 12.63215871 188.71945957 12.63215871 189.79194355 12.63722038 C192.13898036 12.64667457 194.48595325 12.64853674 196.83300781 12.64990234 C198.48395843 12.6538849 200.13490856 12.65807463 201.78585815 12.66246033 C207.12840736 12.67390113 212.47091896 12.67211992 217.81347656 12.66943359 C219.63538615 12.66948952 221.45729574 12.66955055 223.27920532 12.6696167 C244.09370308 12.66398221 264.89382771 12.61740287 285.68847656 11.60693359 C286.51554108 11.56772797 287.34260559 11.52852234 288.19473267 11.48812866 C297.82603775 11.01338984 307.40541463 10.21325752 316.99345398 9.18545532 C323.1623067 8.52882271 329.32575738 8.10665868 335.5226593 7.82455444 C338.20504932 7.69341492 340.78035439 7.52877558 343.41113281 6.97021484 C361.17813251 3.62047885 378.88075264 8.04934221 394.00097656 17.48193359 C402.24803234 23.164343 408.84238185 29.84497216 414.00097656 38.48193359 C414.50113281 39.26697266 415.00128906 40.05201172 415.51660156 40.86083984 C417.20425642 43.84088303 418.41604849 46.84146448 419.62597656 50.04443359 C420.05136719 51.15947266 420.47675781 52.27451172 420.91503906 53.42333984 C426.3141003 68.6300483 424.1187944 88.69379273 417.34082031 103.22021484 C412.93553819 111.84334505 406.84219096 118.73207073 400.00097656 125.48193359 C399.37964844 126.10197266 398.75832031 126.72201172 398.11816406 127.36083984 C369.89292427 153.62423562 331.62760755 173.65407715 298.92822266 193.68505859 C296.80893192 194.98597434 294.69209982 196.29040911 292.57763672 197.59912109 C289.50053494 199.5035728 286.41872698 201.40021395 283.33413696 203.29251099 C282.13649552 204.02875273 280.94028131 204.76732259 279.74569702 205.5085144 C268.10148147 212.72731876 256.16658636 219.49894071 242.47753906 221.63037109 C241.22239502 221.82888672 239.96725098 222.02740234 238.67407227 222.23193359 C237.32472045 222.4403538 235.97535486 222.64868492 234.62597656 222.85693359 C232.50868557 223.18909149 230.39166758 223.52295037 228.27467346 223.85699463 C226.85470921 224.08099438 225.43465479 224.30442336 224.01451111 224.52728271 C219.02846601 225.31168379 214.05301859 226.1471517 209.0793457 227.00585938 C196.58498155 229.15644726 184.04533702 230.91019245 171.48535156 232.62426758 C162.4166798 233.86254891 153.36197176 235.16485162 144.31347656 236.54443359 C127.14549353 239.14300901 109.8776375 241.2793298 92.60253906 243.03271484 C89.19482373 243.08336932 89.19482373 243.08336932 88.00097656 244.48193359 C84.43938655 244.72216932 80.88447838 244.87577998 77.31738281 244.99951172 C73.07076283 245.18738389 69.03492591 245.61592905 64.86425781 246.45068359 C57.81677616 247.81457276 50.71805567 248.1455569 43.56347656 248.54443359 C40.8977896 248.6973125 38.2326077 248.85608524 35.56738281 249.01708984 C33.81856812 249.11582397 33.81856812 249.11582397 32.03442383 249.21655273 C29.53505235 249.43521002 27.40987135 249.85405832 25.00097656 250.48193359 C23.48549097 250.61274748 21.96626045 250.70405787 20.44628906 250.76318359 C19.58390625 250.80056641 18.72152344 250.83794922 17.83300781 250.87646484 C16.9396875 250.91126953 16.04636719 250.94607422 15.12597656 250.98193359 C13.35760977 251.05143273 11.58937051 251.12426875 9.82128906 251.20068359 C9.04027832 251.23097656 8.25926758 251.26126953 7.45458984 251.29248047 C4.92022194 251.45139878 4.92022194 251.45139878 2.12133789 251.96606445 C-4.00848965 252.97946916 -10.23881055 253.19147694 -16.43652344 253.54443359 C-17.60362854 253.61121811 -17.60362854 253.61121811 -18.79431152 253.67935181 C-34.77480434 254.5582749 -50.74741941 254.67466169 -66.74902344 254.66943359 C-67.92689423 254.67024933 -69.10476501 254.67106506 -70.31832886 254.67190552 C-77.87990744 254.67131259 -85.43860314 254.61560957 -92.99902344 254.48193359 C-93.89161865 254.46761292 -94.78421387 254.45329224 -95.70385742 254.4385376 C-98.07986044 254.38997653 -100.45248683 254.31239952 -102.82714844 254.22021484 C-104.11008789 254.17550049 -105.39302734 254.13078613 -106.71484375 254.0847168 C-111.13742794 253.27298914 -113.63958097 251.29452356 -116.31152344 247.73193359 C-118.42652925 240.81009638 -116.36414805 234.2596698 -114.31152344 227.60693359 C-113.75739726 225.74517474 -113.20402493 223.88319137 -112.65136719 222.02099609 C-112.37276855 221.09319336 -112.09416992 220.16539062 -111.80712891 219.20947266 C-110.60424695 215.14947348 -109.48910233 211.06673644 -108.37402344 206.98193359 C-106.97993241 201.91030757 -105.52037176 196.87348042 -103.93652344 191.85693359 C-102.55051838 187.43109667 -101.36136667 182.99749114 -100.27246094 178.48974609 C-97.91597216 168.91012077 -95.22558573 159.4279919 -92.52758789 149.93994141 C-91.69580185 147.0145656 -90.8675957 144.08819583 -90.04003906 141.16162109 C-87.23883595 131.27158718 -84.39343732 121.39586317 -81.49902344 111.53271484 C-78.26561171 100.49715414 -75.19483825 89.42095941 -72.17230225 78.32601929 C-71.28447627 75.07024817 -70.39257887 71.81561645 -69.49951172 68.5612793 C-66.78808068 58.68005912 -64.08233508 48.79743321 -61.40232849 38.90763855 C-60.32258329 34.93137996 -59.23406336 30.9575601 -58.1434021 26.98428345 C-57.63471661 25.12320602 -57.12994765 23.2610532 -56.62930298 21.39779663 C-55.93700943 18.82273352 -55.23132569 16.2516949 -54.52246094 13.68115234 C-54.22638695 12.55966797 -54.22638695 12.55966797 -53.92433167 11.41552734 C-52.20246277 5.2634143 -49.62878778 -0.06756568 -43.99902344 -3.51806641 C-32.43062253 -7.37420004 -11.551247 -2.99361824 0 0 Z M-33.99902344 21.48193359 C-34.98067924 23.82228193 -34.98067924 23.82228193 -35.65527344 26.64990234 C-35.95014648 27.75188965 -36.24501953 28.85387695 -36.54882812 29.98925781 C-36.86239258 31.20371582 -37.17595703 32.41817383 -37.49902344 33.66943359 C-38.01713454 35.61321788 -38.53531922 37.5569836 -39.05584717 39.50012207 C-39.42987604 40.89716308 -39.8026006 42.29455383 -40.1741333 43.69226074 C-42.59436294 52.77639649 -45.18038851 61.81390295 -47.74902344 70.85693359 C-50.59326 80.87482149 -53.39235673 90.89825961 -56.05615234 100.96582031 C-57.57137741 106.61633078 -59.1908197 112.23594403 -60.81152344 117.85693359 C-65.53089857 134.310226 -70.22260473 150.76920342 -74.62231445 167.3112793 C-77.12928331 176.73527612 -79.74279036 186.10250507 -82.62402344 195.41943359 C-84.82955505 202.58494431 -87.00457937 209.75438058 -88.99902344 216.98193359 C-89.21896973 217.74111084 -89.43891602 218.50028809 -89.66552734 219.2824707 C-89.95435791 220.35573608 -89.95435791 220.35573608 -90.24902344 221.45068359 C-90.41917969 222.06363281 -90.58933594 222.67658203 -90.76464844 223.30810547 C-91.10435857 226.45891692 -90.52251737 229.37275355 -89.99902344 232.48193359 C-66.18065329 232.73186403 -42.5400754 232.38889448 -18.77996826 230.68170166 C-15.63456012 230.45575252 -12.48890793 230.23335167 -9.34326172 230.01074219 C-2.04018231 229.4915031 5.26179995 228.95800493 12.56347656 228.41943359 C14.36440765 228.28764709 14.36440765 228.28764709 16.20172119 228.15319824 C19.61565637 227.90169383 23.02906852 227.64405723 26.44238281 227.38427734 C27.48023422 227.30827805 28.51808563 227.23227875 29.58738708 227.15397644 C31.01136559 227.04355766 31.01136559 227.04355766 32.46411133 226.9309082 C33.7114077 226.83669838 33.7114077 226.83669838 34.98390198 226.74058533 C37.06747804 226.58610769 37.06747804 226.58610769 39.00097656 225.48193359 C40.32410514 225.27752302 41.6547041 225.12021999 42.98706055 224.98876953 C43.81623993 224.90468338 44.64541931 224.82059723 45.49972534 224.73396301 C46.40634918 224.64563705 47.31297302 224.5573111 48.24707031 224.46630859 C50.20161063 224.26797317 52.15611772 224.0693101 54.1105957 223.87036133 C55.14250031 223.76650116 56.17440491 223.66264099 57.23757935 223.55563354 C76.57570508 221.60000988 95.79879716 219.24550609 115.01777649 216.35977173 C122.12405216 215.29948106 129.24973903 214.39684785 136.37597656 213.48193359 C147.56315844 212.02780026 158.66789114 210.24872089 169.77368164 208.26928711 C176.01164866 207.1583574 182.24312106 206.13251894 188.52026367 205.27001953 C208.44511362 202.52334731 224.82323246 195.50330273 237.31347656 179.10693359 C244.60425413 169.14339809 247.73922932 157.36395833 251.06347656 145.66943359 C251.48784605 144.19981267 251.91297305 142.73041027 252.33886719 141.26123047 C253.17392675 138.375502 254.00226401 135.48798164 254.82470703 132.59863281 C255.57278721 129.97157875 256.33347684 127.34948804 257.10302734 124.72851562 C266.05282204 96.04548751 266.05282204 96.04548751 262.46972656 67.09521484 C258.84839571 60.65194265 254.16868145 54.82060274 247.00097656 52.48193359 C247.00097656 51.82193359 247.00097656 51.16193359 247.00097656 50.48193359 C234.74198324 44.53992742 220.99856716 44.25873945 207.60644531 43.48193359 C205.60004999 43.35776333 203.59365497 43.23358787 201.58727741 43.10913086 C198.12127736 42.89561758 194.6548568 42.6891656 191.18847656 42.48193359 C158.43682591 40.51842607 158.43682591 40.51842607 144.01028442 38.72546387 C140.45679112 38.29477666 136.89677429 37.92594345 133.33691406 37.55224609 C132.61556274 37.47592957 131.89421143 37.39961304 131.15100098 37.32098389 C128.89274191 37.08217876 126.63437026 36.84446195 124.37597656 36.60693359 C123.57338409 36.52233887 122.77079163 36.43774414 121.94387817 36.35058594 C110.11486306 35.10495513 98.28194516 33.90345787 86.44549561 32.73074341 C79.75991882 32.06723145 73.07517011 31.39543993 66.39056396 30.722229 C64.83140975 30.56544143 63.2722077 30.40912864 61.71295166 30.25335693 C38.44801961 27.92908943 15.29419122 24.99560712 -7.86328125 21.76782227 C-8.95514236 21.61695663 -10.04700348 21.466091 -11.17195129 21.31065369 C-13.22704579 21.02636233 -15.28167654 20.73869035 -17.33573914 20.44703674 C-26.02867923 18.83077703 -26.02867923 18.83077703 -33.99902344 21.48193359 Z " fill="#040404" transform="translate(326.9990234375,478.51806640625)"/>
<path d="M0 0 C-2.4814925 10.289749 -8.93959651 19.52607223 -17.65625 25.5859375 C-39.19972204 38.5838323 -67.86755388 41.00858857 -92.375 43.875 C-94.51128735 44.13119933 -96.64751636 44.38788549 -98.78369141 44.64501953 C-109.89053391 45.97308851 -121.00422652 47.23192851 -132.125 48.4375 C-133.21117615 48.55525284 -134.29735229 48.67300568 -135.41644287 48.79432678 C-136.50717102 48.91255295 -137.59789917 49.03077911 -138.72167969 49.15258789 C-178.23152658 53.43843012 -217.61888049 58.60740196 -256.875 64.8125 C-257.77220764 64.95348114 -258.66941528 65.09446228 -259.59381104 65.23971558 C-268.53825049 66.6534039 -277.36963986 68.2147571 -286.17773438 70.34106445 C-290.36009069 71.31755059 -294.57454463 72.00225029 -298.8125 72.6875 C-309.4512056 74.47491443 -320.03231346 76.53181859 -330.61190796 78.63760376 C-332.45475379 79.00435737 -334.29787435 79.3697332 -336.14126587 79.73373413 C-338.74867891 80.24929313 -341.35495696 80.77022299 -343.9609375 81.29296875 C-344.75778458 81.45011353 -345.55463165 81.6072583 -346.37562561 81.76916504 C-349.9887656 82.23936951 -349.9887656 82.23936951 -353 84 C-355.43534409 84.49725353 -357.86452963 84.94930239 -360.3125 85.375 C-372.08412654 87.34146304 -372.08412654 87.34146304 -383.375 91.01953125 C-386.63643579 92.23771635 -389.8851389 92.65210942 -393.3125 93.125 C-412.28595822 96.02796541 -431.08738213 101.45090362 -449.47851562 106.85302734 C-455.88345905 108.72261261 -462.33140354 110.35414484 -468.8125 111.9375 C-477.75855852 114.13182973 -486.60280285 116.56689039 -495.43457031 119.18115234 C-503.95973889 121.70463521 -512.50470007 124.15253181 -521.0625 126.5625 C-521.74248047 126.75423798 -522.42246094 126.94597595 -523.12304688 127.14352417 C-532.96362734 129.91455869 -542.82700127 132.5838227 -552.74633789 135.06079102 C-553.59317139 135.27533936 -554.44000488 135.4898877 -555.3125 135.7109375 C-556.03050781 135.88931152 -556.74851562 136.06768555 -557.48828125 136.25146484 C-559.65324956 136.89666244 -561.69851507 137.64453256 -563.80126953 138.46289062 C-567.74832507 139.9654113 -571.745203 140.98442573 -575.8671875 141.8828125 C-581.91008642 143.25260294 -587.90509661 144.7361544 -593.8828125 146.3671875 C-613.79855851 151.78018444 -633.6294003 156.60912544 -654 160 C-654.86302734 160.14405273 -655.72605469 160.28810547 -656.61523438 160.43652344 C-672.64222959 162.99460015 -690.11583036 163.59257891 -706 160 C-706.87527344 159.80535156 -707.75054688 159.61070312 -708.65234375 159.41015625 C-718.1080208 156.94789212 -726.45863782 152.19971837 -732 144 C-733.98839296 140.50504309 -734.26944802 138.04172029 -734 134 C-733.67 133.67 -733.34 133.34 -733 133 C-731.29206827 133.08420589 -729.58743172 133.23602643 -727.88671875 133.4140625 C-708.65599249 135.16669321 -689.44346814 134.71618773 -670.375 131.75 C-669.70715485 131.64757996 -669.03930969 131.54515991 -668.35122681 131.43963623 C-659.97492124 130.12669668 -651.85657428 128.25825165 -643.68847656 125.99951172 C-637.72913853 124.38463682 -631.70771423 123.05373549 -625.6875 121.6875 C-612.82514355 118.73332569 -600.07336187 115.44762078 -587.35400391 111.92675781 C-583.78380621 110.94026266 -580.21051929 109.96554537 -576.63671875 108.9921875 C-565.29996405 105.89599022 -553.99468091 102.74187931 -542.76000977 99.29321289 C-533.83607063 96.58835223 -524.81256096 94.24537909 -515.79125977 91.890625 C-508.75730864 90.04503926 -501.80092314 88.04573297 -494.8605957 85.875 C-491.36517836 84.80582054 -487.86781294 83.91123807 -484.3125 83.0625 C-478.77915843 81.71602327 -473.29440879 80.26116589 -467.81640625 78.70703125 C-457.47060784 75.80516922 -447.05428665 73.20732088 -436.625 70.625 C-433.69283623 69.89678331 -430.76081517 69.16799389 -427.82879639 68.43919373 C-425.89727664 67.95918549 -423.96567762 67.47949609 -422.03399658 67.00013733 C-416.65121849 65.6634694 -411.27261852 64.31222986 -405.8984375 62.94140625 C-392.50066955 59.52849726 -379.07159071 56.42193096 -365.5390625 53.58984375 C-360.19243281 52.4706992 -354.85603668 51.31251143 -349.5234375 50.12890625 C-325.77894144 44.87232069 -301.94236803 40.26208317 -278 36 C-277.21365173 35.85949219 -276.42730347 35.71898437 -275.61712646 35.57421875 C-252.14564255 31.38722154 -228.58769815 28.09448584 -204.94308472 25.04853821 C-199.73064522 24.37223634 -194.52755747 23.64905389 -189.32722473 22.88543701 C-176.37454906 20.98468207 -163.3857941 19.50354268 -150.375 18.0625 C-148.01355314 17.7985925 -145.65214407 17.53434663 -143.29077148 17.26977539 C-139.76562522 16.87490416 -136.24045209 16.48029137 -132.71513367 16.08695984 C-126.27109482 15.36794455 -119.82800923 14.64167537 -113.38671875 13.8984375 C-112.32142189 13.77555611 -112.32142189 13.77555611 -111.23460388 13.65019226 C-109.85224807 13.49063361 -108.46989827 13.3310229 -107.08755493 13.1713562 C-96.96098397 12.0019255 -86.8315612 10.86789321 -76.6953125 9.78515625 C-50.63508349 7.01320332 -50.63508349 7.01320332 -24.625 3.8125 C-23.43865967 3.6578125 -22.25231934 3.503125 -21.0300293 3.34375 C-16.44089636 2.71970118 -11.94486816 2.05863179 -7.4609375 0.88671875 C-4 0 -4 0 0 0 Z " fill="#050404" transform="translate(982,839)"/>
<path d="M0 0 C10.31631688 6.92925545 17.52869142 15.02210417 21.1171875 27.09375 C22.62068312 35.50183378 21.85597276 44.37723456 18.1171875 52.09375 C17.69179688 52.99738281 17.26640625 53.90101563 16.828125 54.83203125 C10.93562855 66.47522611 2.66092943 73.3250158 -9.7734375 77.76953125 C-21.97750777 79.64534205 -33.76068489 78.5513394 -44.0703125 71.40625 C-53.55942159 63.60884684 -59.94538716 54.43514943 -61.8828125 42.09375 C-62.93733389 30.18284443 -60.15190769 19.97861476 -52.91796875 10.41015625 C-39.1433833 -5.26801874 -18.38652021 -10.70069998 0 0 Z " fill="#F3F3F3" transform="translate(699.8828125,516.90625)"/>
<path d="M0 0 C1.7325 0.061875 1.7325 0.061875 3.5 0.125 C10.85424958 1.9635624 16.80176312 7.80960613 21 14 C24.00886961 20.24521389 24.29185605 27.27369012 22.01953125 33.828125 C17.40562119 43.31148475 11.98816218 48.38110066 2 52 C-6.32301854 53.35085641 -12.5954945 51.27759362 -19.625 46.8125 C-24.32844328 43.32729091 -27.16831982 38.49504055 -29 33 C-30.20486917 16.34910314 -30.20486917 16.34910314 -25 10 C-17.48120027 1.74261484 -11.0265133 -0.52507206 0 0 Z " fill="#050504" transform="translate(683,528)"/>
<path d="M0 0 C-0.62335852 5.04719315 -2.8267723 9.16552506 -5.125 13.625 C-5.49109375 14.388125 -5.8571875 15.15125 -6.234375 15.9375 C-8.38892777 20.11469415 -10.11888115 22.88180636 -14.80859375 24.44335938 C-19.8313329 25.71918884 -24.86611073 26.8704105 -29.9375 27.9375 C-32.37533215 28.46461201 -34.81283486 28.99325005 -37.25 29.5234375 C-39.00376953 29.90387207 -39.00376953 29.90387207 -40.79296875 30.29199219 C-48.08032157 31.90080181 -55.3093735 33.75376848 -62.52148438 35.66992188 C-65.24135797 36.39248009 -67.96433023 37.10248084 -70.6875 37.8125 C-71.96355103 38.15970093 -71.96355103 38.15970093 -73.26538086 38.51391602 C-77.49492494 39.60980451 -80.71068585 40.42394747 -85 39 C-84.35715486 31.92870341 -82.8241368 23.65643578 -78.421875 17.95678711 C-75.21402358 15.36495957 -71.96869728 14.71656793 -68.01953125 13.921875 C-66.82908707 13.66284897 -66.82908707 13.66284897 -65.61459351 13.39859009 C-63.01656298 12.83572283 -60.41475445 12.29297008 -57.8125 11.75 C-54.18873636 10.97243345 -50.56709979 10.18515063 -46.9453125 9.3984375 C-46.0307579 9.20130157 -45.11620331 9.00416565 -44.17393494 8.80105591 C-38.13142777 7.49118914 -32.11811912 6.08999847 -26.1171875 4.6015625 C-25.35236557 4.41215088 -24.58754364 4.22273926 -23.79954529 4.02758789 C-20.88061971 3.30195121 -17.96274878 2.57269679 -15.04824829 1.82946777 C-13.0689882 1.32503997 -11.08728353 0.83023308 -9.10546875 0.3359375 C-7.99324951 0.05282715 -6.88103027 -0.2302832 -5.73510742 -0.52197266 C-3 -1 -3 -1 0 0 Z " fill="#F7F7F7" transform="translate(328,794)"/>
<path d="M0 0 C-0.67739438 4.92828953 -2.63475138 9.1448857 -4.6875 13.625 C-5.01427734 14.388125 -5.34105469 15.15125 -5.67773438 15.9375 C-7.33658211 19.55334401 -8.41854832 21.60579547 -11.765625 23.875 C-15.50203764 25.17462179 -19.24144466 26.35636277 -23.0625 27.375 C-23.83255371 27.58342529 -24.60260742 27.79185059 -25.39599609 28.0065918 C-27.92755208 28.68361231 -30.4627616 29.34460564 -33 30 C-33.91023926 30.2357373 -34.82047852 30.47147461 -35.75830078 30.71435547 C-38.54388377 31.42782508 -41.33326122 32.12354255 -44.125 32.8125 C-44.98875244 33.03147949 -45.85250488 33.25045898 -46.74243164 33.47607422 C-51.97075726 34.73558157 -56.62237724 35.21734041 -62 35 C-60.66952389 18.50209626 -60.66952389 18.50209626 -55.83178711 13.96777344 C-52.68742142 11.78279306 -50.31150874 11.0575221 -46.58203125 10.25390625 C-45.33542725 9.97619385 -44.08882324 9.69848145 -42.80444336 9.41235352 C-41.47380968 9.12900273 -40.14316164 8.84571944 -38.8125 8.5625 C-36.10006032 7.96500953 -33.38981328 7.35788879 -30.6796875 6.75 C-30.01454636 6.60200455 -29.34940521 6.45400909 -28.66410828 6.30152893 C-22.47692805 4.91269531 -16.38643803 3.2554131 -10.31762695 1.42211914 C-6.77696654 0.37719578 -3.69735735 -0.23418962 0 0 Z " fill="#F7F7F7" transform="translate(307,840)"/>
<path d="M0 0 C2.87922778 0.66394961 5.59211167 0.67607827 8.54711914 0.71679688 C10.46865814 0.74671471 10.46865814 0.74671471 12.42901611 0.77723694 C13.82222371 0.7942187 15.21543257 0.8110976 16.60864258 0.82788086 C18.0378274 0.84846255 19.46700631 0.86945934 20.8961792 0.89085388 C24.65095208 0.9459491 28.40577875 0.99541349 32.16064453 1.04370117 C35.99492153 1.09400805 39.82912078 1.14964609 43.66333008 1.20483398 C51.18149333 1.31226197 58.6997214 1.41374077 66.21801758 1.51147461 C66.21801758 1.84147461 66.21801758 2.17147461 66.21801758 2.51147461 C56.76737982 2.5348598 47.31675233 2.55252092 37.86609173 2.56328678 C33.47565867 2.56845925 29.08524571 2.57545163 24.69482422 2.58691406 C20.4413261 2.59794687 16.18784705 2.60379361 11.93433571 2.60635185 C10.32841505 2.60817002 8.72249519 2.611718 7.11658287 2.61720467 C-4.54830043 2.65539678 -16.13902546 2.22483694 -27.78198242 1.51147461 C-27.78198242 1.18147461 -27.78198242 0.85147461 -27.78198242 0.51147461 C-23.53236456 0.31453456 -19.28228215 0.13055387 -15.03198242 -0.05102539 C-13.82541992 -0.10709961 -12.61885742 -0.16317383 -11.37573242 -0.22094727 C-9.63549805 -0.29345703 -9.63549805 -0.29345703 -7.86010742 -0.36743164 C-6.79179687 -0.41456299 -5.72348633 -0.46169434 -4.62280273 -0.51025391 C-1.78198242 -0.48852539 -1.78198242 -0.48852539 0 0 Z " fill="#7C7C7C" transform="translate(505.781982421875,490.488525390625)"/>
<path d="M0 0 C0 0.99 0 1.98 0 3 C-1.45505358 3.52992692 -2.91418127 4.0486789 -4.375 4.5625 C-5.59316406 4.99755859 -5.59316406 4.99755859 -6.8359375 5.44140625 C-9 6 -9 6 -11 5 C-11.625 2.9375 -11.625 2.9375 -12 1 C-7.58774263 -0.47075246 -4.51718381 -1.36884358 0 0 Z " fill="#DBDBDB" transform="translate(870,412)"/>
<path d="M0 0 C0 4.7122078 -2.25556275 7.21738648 -5.4375 10.5625 C-6.283125 11.366875 -7.12875 12.17125 -8 13 C-9.1446875 14.1446875 -9.1446875 14.1446875 -10.3125 15.3125 C-10.869375 15.869375 -11.42625 16.42625 -12 17 C-12.66 16.67 -13.32 16.34 -14 16 C-13.24074219 15.18015625 -12.48148437 14.3603125 -11.69921875 13.515625 C-10.69521546 12.42717284 -9.6913146 11.33862618 -8.6875 10.25 C-8.18798828 9.71117187 -7.68847656 9.17234375 -7.17382812 8.6171875 C-4.62043007 5.84396048 -2.18903551 3.07809771 0 0 Z " fill="#1F2020" transform="translate(371,335)"/>
<path d="M0 0 C-0.99 0.33 -1.98 0.66 -3 1 C-3.99 2.485 -3.99 2.485 -5 4 C-8.16496245 4.49973091 -9.52350432 4.3354392 -12.1640625 2.4765625 C-12.76992188 1.98929688 -13.37578125 1.50203125 -14 1 C-12.41913952 0.63495397 -10.83516093 0.28339494 -9.25 -0.0625 C-8.36828125 -0.25972656 -7.4865625 -0.45695313 -6.578125 -0.66015625 C-4.01320972 -0.99825872 -2.42908361 -0.81158635 0 0 Z " fill="#D5D5D5" transform="translate(679,913)"/>
<path d="M0 0 C0.66 0.66 1.32 1.32 2 2 C1.06862408 3.29608947 0.1296434 4.58671632 -0.8125 5.875 C-1.33457031 6.59429688 -1.85664062 7.31359375 -2.39453125 8.0546875 C-4 10 -4 10 -7 12 C-7 8.43013844 -6.3954571 7.97905092 -4.0625 5.4375 C-1.75540038 2.91000271 -1.75540038 2.91000271 0 0 Z " fill="#1A1B1B" transform="translate(714,575)"/>
<path d="M0 0 C2 3 2 3 1.75 5.4375 C1.04476051 7.84706825 0.30171144 9.85600469 -1 12 C-1.99 12.495 -1.99 12.495 -3 13 C-2.45144652 8.428721 -1.58255197 4.32564205 0 0 Z " fill="#C3C3C4" transform="translate(290,512)"/>
<path d="M0 0 C0.66 0.33 1.32 0.66 2 1 C1.34 2.98 0.68 4.96 0 7 C-1.32 6.34 -2.64 5.68 -4 5 C-3.6875 3.0625 -3.6875 3.0625 -3 1 C-2.01 0.67 -1.02 0.34 0 0 Z " fill="#212121" transform="translate(723,473)"/>
<path d="M0 0 C-0.598125 0.433125 -1.19625 0.86625 -1.8125 1.3125 C-3.71887737 2.78313397 -5.33894127 4.26672133 -7 6 C-8 7 -9 8 -10 9 C-9.6875 5.625 -9.6875 5.625 -9 2 C-5.5647952 -0.29013653 -4.014669 -0.17842973 0 0 Z " fill="#C4C3C4" transform="translate(302,498)"/>
<path d="M0 0 C0.98726527 2.66561622 1.0275526 3.90126985 0.25 6.6875 C-1 9 -1 9 -4 10 C-3.52449439 8.51965236 -3.04448784 7.04074979 -2.5625 5.5625 C-2.29566406 4.73878906 -2.02882813 3.91507813 -1.75390625 3.06640625 C-1 1 -1 1 0 0 Z " fill="#2F3030" transform="translate(306,844)"/>
<path d="M0 0 C-1.75 2.0625 -1.75 2.0625 -4 4 C-6.1875 3.875 -6.1875 3.875 -8 3 C-8.33 2.34 -8.66 1.68 -9 1 C-2.25 -1.125 -2.25 -1.125 0 0 Z " fill="#DEDEDE" transform="translate(475,962)"/>
<path d="M0 0 C0.99 0.66 1.98 1.32 3 2 C2.34 2.66 1.68 3.32 1 4 C0.35232207 6.57061311 0.35232207 6.57061311 0 9 C-0.99 9 -1.98 9 -3 9 C-2.01 6.03 -1.02 3.06 0 0 Z " fill="#2F2F30" transform="translate(310,427)"/>
<path d="M0 0 C-3.08559304 2.26881841 -4.42209376 3.05451946 -8.3125 2.6875 C-9.199375 2.460625 -10.08625 2.23375 -11 2 C-7.00042393 -0.06874624 -4.43559483 -1.37656391 0 0 Z M-10 3 C-8 4 -8 4 -8 4 Z " fill="#2A2B2B" transform="translate(379,957)"/>
<path d="M0 0 C-2.31 1.32 -4.62 2.64 -7 4 C-7.33 3.34 -7.66 2.68 -8 2 C-8.66 1.67 -9.32 1.34 -10 1 C-3.71428571 -1.42857143 -3.71428571 -1.42857143 0 0 Z " fill="#CCCCCC" transform="translate(505,954)"/>
<path d="M0 0 C3.25543229 0.34879632 4.01873107 1.02133261 6.25 3.5625 C6.8275 4.366875 7.405 5.17125 8 6 C4.06830895 6 2.83572772 4.60580385 0 2 C0 1.34 0 0.68 0 0 Z " fill="#0F0F0F" transform="translate(692,532)"/>
<path d="M0 0 C0.66 0.33 1.32 0.66 2 1 C0.68 3.31 -0.64 5.62 -2 8 C-2.99 7.34 -3.98 6.68 -5 6 C-3.35 4.02 -1.7 2.04 0 0 Z " fill="#171818" transform="translate(354,355)"/>
<path d="M0 0 C0.66 0.66 1.32 1.32 2 2 C1.625 5.125 1.625 5.125 1 8 C0.01 8 -0.98 8 -2 8 C-1.34 5.36 -0.68 2.72 0 0 Z " fill="#E6E5E6" transform="translate(992,794)"/>
<path d="M0 0 C-2.38573379 1.89213369 -4.07175348 3.02391783 -7 4 C-7 3.01 -7 2.02 -7 1 C-3.375 -1.125 -3.375 -1.125 0 0 Z " fill="#F0F0EF" transform="translate(545,674)"/>
</svg>
