<?xml version="1.0" encoding="UTF-8"?>
<svg version="1.1" xmlns="http://www.w3.org/2000/svg" width="512" height="512">
<path d="M0 0 C23.39318197 23.06777449 36.97004285 55.36735097 37.24145508 88.13061523 C37.24599394 89.54540574 37.24881081 90.96020271 37.25 92.375 C37.25067474 93.09342072 37.25134949 93.81184143 37.25204468 94.55203247 C37.23593374 105.33988893 36.73250921 115.51069044 34 126 C33.83371094 126.67417969 33.66742188 127.34835938 33.49609375 128.04296875 C31.5241388 135.94539562 28.96022291 143.49937046 25.625 150.9296875 C25.28539749 151.68937332 24.94579498 152.44905914 24.59590149 153.23176575 C19.46749827 164.54717755 13.78613834 175.60006342 8.1875 186.6875 C5.94891671 191.12744855 3.71311444 195.56878144 1.48046875 200.01171875 C0.65394051 201.65645927 0.65394051 201.65645927 -0.18928528 203.33442688 C-4.15735124 211.25633924 -8.0013112 219.23131184 -11.80044556 227.23529053 C-17.58627445 239.38998095 -23.64972556 251.40661295 -29.6875 263.4375 C-30.89039978 265.83767738 -32.09266719 268.23817131 -33.29492188 270.63867188 C-36.19444217 276.42687213 -39.09625797 282.21391659 -42 288 C-41.44538086 288.05534912 -40.89076172 288.11069824 -40.31933594 288.16772461 C-37.7959083 288.42128107 -35.27296117 288.67934505 -32.75 288.9375 C-31.87730469 289.02451172 -31.00460937 289.11152344 -30.10546875 289.20117188 C-29.26113281 289.28818359 -28.41679687 289.37519531 -27.546875 289.46484375 C-26.77182617 289.543396 -25.99677734 289.62194824 -25.19824219 289.70288086 C-23.07376962 289.99002914 -21.06703475 290.43794772 -19 291 C-19 288.36 -19 285.72 -19 283 C-8.58252604 283.52334132 1.49258862 284.87902534 11.75 286.6875 C12.5101239 286.82005188 13.2702478 286.95260376 14.05340576 287.08917236 C50.94813341 293.5472181 93.13606193 301.8334746 123 326 C123.80050781 326.62519531 124.60101563 327.25039063 125.42578125 327.89453125 C132.80893652 333.98718543 138.52925024 341.6505901 141 351 C142.11038057 363.34330025 140.62471065 372.54382394 133 382.5625 C95.24112807 426.29626683 16.6759344 432.11676274 -37.171875 437.23828125 C-38.1561422 437.33317085 -38.1561422 437.33317085 -39.16029358 437.42997742 C-52.24349977 438.6283687 -65.279634 439.16569881 -78.4140625 439.203125 C-79.94703703 439.21014687 -81.48001127 439.21723369 -83.01298523 439.22438049 C-87.88366111 439.24377687 -92.75428939 439.24881437 -97.625 439.25 C-98.4546011 439.25044186 -99.28420219 439.25088371 -100.13894272 439.25133896 C-124.14898229 439.25804708 -148.02879256 439.14919497 -171.89776611 436.25323486 C-174.11685917 435.98592316 -176.33724246 435.73214236 -178.55810547 435.47998047 C-226.7038468 429.95135625 -283.10120058 421.99955517 -322 391 C-322.65226562 390.51144531 -323.30453125 390.02289063 -323.9765625 389.51953125 C-330.84861496 384.11573669 -337.43579926 375.77069699 -339 367 C-340.01515502 354.97041298 -338.80040984 345.81014913 -331.4375 335.9375 C-323.23413615 326.28381768 -313.1194545 319.81145005 -302 314 C-301.41138184 313.68208496 -300.82276367 313.36416992 -300.21630859 313.03662109 C-270.43472549 297.09866282 -235.43819917 290.7993204 -202.4375 285.5625 C-201.60636688 285.43049194 -200.77523376 285.29848389 -199.91891479 285.16247559 C-197.54982606 284.79007121 -195.17964254 284.42610101 -192.80859375 284.06640625 C-192.10682007 283.95742508 -191.40504639 283.84844391 -190.68200684 283.73616028 C-186.75335406 283.15512232 -182.96990692 282.8946657 -179 283 C-179 285.64 -179 288.28 -179 291 C-178.09378906 290.855625 -177.18757812 290.71125 -176.25390625 290.5625 C-175.03574219 290.376875 -173.81757813 290.19125 -172.5625 290 C-171.36753906 289.814375 -170.17257813 289.62875 -168.94140625 289.4375 C-165.96368186 289.10696964 -163.23113123 288.95351623 -160.25366211 288.97265625 C-159.45391464 288.976604 -158.65416718 288.98055176 -157.83018494 288.98461914 C-156.92424339 288.99223267 -156.92424339 288.99223267 -156 289 C-156.86782104 287.27221313 -156.86782104 287.27221313 -157.75317383 285.50952148 C-177.01193901 247.15127717 -177.01193901 247.15127717 -182.4375 235.625 C-187.29225012 225.31638568 -192.40859069 215.14113811 -197.51705933 204.95672607 C-245.7455984 108.79739784 -245.7455984 108.79739784 -231 57 C-230.72712158 55.99960693 -230.72712158 55.99960693 -230.44873047 54.97900391 C-220.87607622 20.64919024 -196.31617513 -6.26941307 -166.1875 -24.1875 C-110.21592244 -55.71036513 -45.65300849 -42.60947459 0 0 Z " fill="#DD6262" transform="translate(355,57)"/>
<path d="M0 0 C0 2.64 0 5.28 0 8 C0.89460937 7.855625 1.78921875 7.71125 2.7109375 7.5625 C6.4684597 6.98565224 10.2286532 6.47778225 14 6 C15.47533203 5.79503906 15.47533203 5.79503906 16.98046875 5.5859375 C19.56232903 5.37501397 21.48624908 5.38662744 24 6 C25.36120605 7.4667511 25.36120605 7.4667511 26.48242188 9.42700195 C26.90201172 10.15795074 27.32160156 10.88889954 27.75390625 11.64199829 C29.86560642 15.63799989 31.81429078 19.69466576 33.71875 23.79296875 C40.66980554 38.52387005 47.92214451 53.10218391 55.19140625 67.67797852 C56.74940513 70.80298826 58.30246465 73.93038305 59.8515625 77.05981445 C61.75046718 80.89591227 63.65708456 84.72807762 65.56950378 88.55745506 C66.28985501 90.00301871 67.00751007 91.44992928 67.72236633 92.89821815 C68.71175963 94.90121355 69.71101372 96.89897836 70.71289062 98.89575195 C71.27705688 100.02995071 71.84122314 101.16414948 72.42248535 102.3327179 C73.87617367 105.23074417 73.87617367 105.23074417 77 107 C79.95769177 107.50010524 79.95769177 107.50010524 83 107 C86.21582919 104.29421138 88.00464054 101.47574113 89.84765625 97.73046875 C90.37166016 96.67408203 90.89566406 95.61769531 91.43554688 94.52929688 C91.97244141 93.42650391 92.50933594 92.32371094 93.0625 91.1875 C93.57232422 90.15818359 94.08214844 89.12886719 94.60742188 88.06835938 C97.25939633 82.69065544 99.86450709 77.2918535 102.44018555 71.87719727 C109.351113 57.35091924 116.47023874 42.93879223 123.6875 28.5625 C124.79381092 26.35491348 125.8999315 24.14723156 127.00585938 21.93945312 C129.66839292 16.62520696 132.33322269 11.31211773 135 6 C136.74713504 5.98811385 138.49429368 5.97966854 140.24145508 5.97265625 C141.21440018 5.96758057 142.18734528 5.96250488 143.18977356 5.95727539 C146.78122812 6.01187722 150.13954226 6.43794729 153.6875 7 C154.88761719 7.185625 156.08773438 7.37125 157.32421875 7.5625 C158.20722656 7.706875 159.09023438 7.85125 160 8 C160 5.36 160 2.72 160 0 C170.41747396 0.52334132 180.49258862 1.87902534 190.75 3.6875 C191.89018585 3.88632782 191.89018585 3.88632782 193.05340576 4.08917236 C229.94813341 10.5472181 272.13606193 18.8334746 302 43 C302.80050781 43.62519531 303.60101563 44.25039063 304.42578125 44.89453125 C311.80893652 50.98718543 317.52925024 58.6505901 320 68 C321.11038057 80.34330025 319.62471065 89.54382394 312 99.5625 C274.24112807 143.29626683 195.6759344 149.11676274 141.828125 154.23828125 C141.17194687 154.30154099 140.51576874 154.36480072 139.83970642 154.42997742 C126.75650023 155.6283687 113.720366 156.16569881 100.5859375 156.203125 C99.05296297 156.21014687 97.51998873 156.21723369 95.98701477 156.22438049 C91.11633889 156.24377687 86.24571061 156.24881437 81.375 156.25 C80.5453989 156.25044186 79.71579781 156.25088371 78.86105728 156.25133896 C54.85101771 156.25804708 30.97120744 156.14919497 7.10223389 153.25323486 C4.88314083 152.98592316 2.66275754 152.73214236 0.44189453 152.47998047 C-47.7038468 146.95135625 -104.10120058 138.99955517 -143 108 C-143.97839844 107.26716797 -143.97839844 107.26716797 -144.9765625 106.51953125 C-151.84861496 101.11573669 -158.43579926 92.77069699 -160 84 C-161.01515502 71.97041298 -159.80040984 62.81014913 -152.4375 52.9375 C-144.23413615 43.28381768 -134.1194545 36.81145005 -123 31 C-122.41138184 30.68208496 -121.82276367 30.36416992 -121.21630859 30.03662109 C-91.43472549 14.09866282 -56.43819917 7.7993204 -23.4375 2.5625 C-22.60636688 2.43049194 -21.77523376 2.29848389 -20.91891479 2.16247559 C-18.54982606 1.79007121 -16.17964254 1.42610101 -13.80859375 1.06640625 C-13.10682007 0.95742508 -12.40504639 0.84844391 -11.68200684 0.73616028 C-7.75335406 0.15512232 -3.96990692 -0.1053343 0 0 Z " fill="#6CC58C" transform="translate(176,340)"/>
<path d="M0 0 C10.65010243 0.34663633 20.70851045 0.99307335 31 4 C32.17820312 4.33902344 33.35640625 4.67804687 34.5703125 5.02734375 C66.25245544 14.84946948 91.42657401 36.32301135 107.72265625 65.03515625 C123.11048528 94.27596692 123.30555565 127.07616759 113.75390625 158.25390625 C111.01011173 166.06191499 107.40279868 173.47960496 103.8203125 180.9296875 C103.30296036 182.00628632 102.78560822 183.08288513 102.25257874 184.19210815 C95.14501881 198.91762186 87.7778762 213.5146291 80.4375 228.125 C77.5794235 233.81379838 74.72296486 239.5034003 71.87109375 245.1953125 C71.34932367 246.23657162 71.34932367 246.23657162 70.81701279 247.29886627 C66.67268953 255.57577381 62.58893718 263.87508655 58.62890625 272.2421875 C53.95907596 282.10410184 49.10593176 291.86958175 44.21875 301.625 C43.82657351 302.40791286 43.43439701 303.19082573 43.03033638 303.99746323 C39.77905345 310.48599688 36.52254917 316.97190713 33.26593018 323.45776367 C30.43534438 329.09566135 27.60669149 334.73452233 24.78125 340.375 C24.3931012 341.14977692 24.00495239 341.92455383 23.6050415 342.72280884 C17.99823626 353.92212602 12.49671662 365.16361373 7.14648438 376.48828125 C5.15966825 380.69117874 3.09427411 384.84965975 1 389 C0.34 388.67 -0.32 388.34 -1 388 C-0.67 333.88 -0.34 279.76 0 224 C8.415 223.01 8.415 223.01 17 222 C44.99731473 215.96980913 70.03279189 202.55634325 86 178 C92.16276125 167.86892608 97.21656829 157.56993628 100 146 C98.62714844 145.69255859 98.62714844 145.69255859 97.2265625 145.37890625 C95.44378906 144.97478516 95.44378906 144.97478516 93.625 144.5625 C92.44164062 144.29566406 91.25828125 144.02882812 90.0390625 143.75390625 C87 143 87 143 85 142 C84.86464844 142.63164062 84.72929687 143.26328125 84.58984375 143.9140625 C79.14732682 166.53146821 64.31585346 183.78523486 45 196 C26.15994476 207.20287849 2.10607339 211.49634079 -19.37329102 206.61694336 C-34.88419561 202.59064075 -47.86665812 195.36568387 -60 185 C-60.67417969 184.42765625 -61.34835938 183.8553125 -62.04296875 183.265625 C-76.47601207 169.92249113 -86.60560617 148.18811024 -88.19287109 128.62255859 C-89.06119606 101.95708836 -82.39478424 80.36111334 -65 60 C-64.42765625 59.32582031 -63.8553125 58.65164062 -63.265625 57.95703125 C-49.17397399 42.71432954 -27.07307821 32.84685847 -6.4921875 31.5546875 C19.2350439 30.67897169 42.77170118 39.02106809 61.70288086 56.66210938 C72.85962713 67.47854269 82.76117904 82.32825331 85 98 C85.91523438 97.71125 86.83046875 97.4225 87.7734375 97.125 C89.55621094 96.568125 89.55621094 96.568125 91.375 96 C93.15003906 95.443125 93.15003906 95.443125 94.9609375 94.875 C98 94 98 94 100 94 C95.97520181 78.5363017 89.16980777 65.31556509 79 53 C78.37609375 52.21238281 77.7521875 51.42476562 77.109375 50.61328125 C57.68536109 27.2310124 29.00010052 19.06505127 0 16 C0 10.72 0 5.44 0 0 Z " fill="#020202" transform="translate(256,32)"/>
<path d="M0 0 C10.65010243 0.34663633 20.70851045 0.99307335 31 4 C32.17820312 4.33902344 33.35640625 4.67804687 34.5703125 5.02734375 C66.25245544 14.84946948 91.42657401 36.32301135 107.72265625 65.03515625 C123.11048528 94.27596692 123.30555565 127.07616759 113.75390625 158.25390625 C111.01011173 166.06191499 107.40279868 173.47960496 103.8203125 180.9296875 C103.30296036 182.00628632 102.78560822 183.08288513 102.25257874 184.19210815 C95.14501881 198.91762186 87.7778762 213.5146291 80.4375 228.125 C77.5794235 233.81379838 74.72296486 239.5034003 71.87109375 245.1953125 C71.34932367 246.23657162 71.34932367 246.23657162 70.81701279 247.29886627 C66.67268953 255.57577381 62.58893718 263.87508655 58.62890625 272.2421875 C53.95907596 282.10410184 49.10593176 291.86958175 44.21875 301.625 C43.82657351 302.40791286 43.43439701 303.19082573 43.03033638 303.99746323 C39.77905345 310.48599688 36.52254917 316.97190713 33.26593018 323.45776367 C30.43534438 329.09566135 27.60669149 334.73452233 24.78125 340.375 C24.3931012 341.14977692 24.00495239 341.92455383 23.6050415 342.72280884 C17.99823626 353.92212602 12.49671662 365.16361373 7.14648438 376.48828125 C5.15966825 380.69117874 3.09427411 384.84965975 1 389 C0.34 388.67 -0.32 388.34 -1 388 C-0.67 333.88 -0.34 279.76 0 224 C8.415 223.01 8.415 223.01 17 222 C44.99731473 215.96980913 70.03279189 202.55634325 86 178 C92.16276125 167.86892608 97.21656829 157.56993628 100 146 C98.62714844 145.69255859 98.62714844 145.69255859 97.2265625 145.37890625 C95.44378906 144.97478516 95.44378906 144.97478516 93.625 144.5625 C92.44164062 144.29566406 91.25828125 144.02882812 90.0390625 143.75390625 C87 143 87 143 85 142 C84.86464844 142.63164062 84.72929687 143.26328125 84.58984375 143.9140625 C79.14732682 166.53146821 64.31585346 183.78523486 45 196 C26.15994476 207.20287849 2.10607339 211.49634079 -19.37329102 206.61694336 C-34.88419561 202.59064075 -47.86665812 195.36568387 -60 185 C-60.67417969 184.42765625 -61.34835938 183.8553125 -62.04296875 183.265625 C-76.47601207 169.92249113 -86.60560617 148.18811024 -88.19287109 128.62255859 C-89.06119606 101.95708836 -82.39478424 80.36111334 -65 60 C-64.42765625 59.32582031 -63.8553125 58.65164062 -63.265625 57.95703125 C-49.17397399 42.71432954 -27.07307821 32.84685847 -6.4921875 31.5546875 C19.2350439 30.67897169 42.77170118 39.02106809 61.70288086 56.66210938 C72.85962713 67.47854269 82.76117904 82.32825331 85 98 C85.91523438 97.71125 86.83046875 97.4225 87.7734375 97.125 C89.55621094 96.568125 89.55621094 96.568125 91.375 96 C93.15003906 95.443125 93.15003906 95.443125 94.9609375 94.875 C98 94 98 94 100 94 C95.97520181 78.5363017 89.16980777 65.31556509 79 53 C78.37609375 52.21238281 77.7521875 51.42476562 77.109375 50.61328125 C57.68536109 27.2310124 29.00010052 19.06505127 0 16 C0 10.72 0 5.44 0 0 Z M-21.99926758 42.28344727 C-24.274573 45.36959567 -24.274573 45.36959567 -24.48828125 48.98828125 C-24.47216797 49.69404297 -24.45605469 50.39980469 -24.43945312 51.12695312 C-24.39755859 51.84818359 -24.35566406 52.56941406 -24.3125 53.3125 C-24.27866211 54.42334961 -24.27866211 54.42334961 -24.24414062 55.55664062 C-24.1855815 57.37197357 -24.09590886 59.18625681 -24 61 C-24.66 61 -25.32 61 -26 61 C-26.66 59.68 -27.32 58.36 -28 57 C-28.66 57 -29.32 57 -30 57 C-30.2475 56.401875 -30.495 55.80375 -30.75 55.1875 C-32.2542674 52.55503205 -33.32507908 51.4459032 -36 50 C-39.22910675 49.56639591 -41.78986472 49.26452632 -44.6647644 51.01177979 C-46.40419847 52.49500995 -47.99842153 54.0542166 -49.58984375 55.6953125 C-50.17923233 56.28037567 -50.76862091 56.86543884 -51.37586975 57.4682312 C-52.61370038 58.70568141 -53.84286037 59.95185864 -55.0637207 61.20605469 C-56.93355616 63.12096109 -58.83564434 64.99870944 -60.74414062 66.875 C-61.94479243 68.08387113 -63.14343207 69.29474479 -64.33984375 70.5078125 C-64.90847641 71.06743683 -65.47710907 71.62706116 -66.06297302 72.2036438 C-68.64175964 74.89266154 -69.93676241 76.53064042 -70.44067383 80.27075195 C-69.91618162 83.51911674 -69.03158819 84.72818603 -66.75 87.0625 C-63.99981357 89.93609223 -61.45457099 92.86662066 -59 96 C-60.09699219 95.94199219 -61.19398438 95.88398437 -62.32421875 95.82421875 C-63.77860314 95.77730312 -65.23303374 95.73180489 -66.6875 95.6875 C-67.7693457 95.6246582 -67.7693457 95.6246582 -68.87304688 95.56054688 C-69.57880859 95.54443359 -70.28457031 95.52832031 -71.01171875 95.51171875 C-71.65584717 95.48553467 -72.29997559 95.45935059 -72.96362305 95.43237305 C-76.41979847 96.39575967 -77.85197417 98.18338334 -80 101 C-80.46302494 104.01333987 -80.63458686 106.44182353 -80.55859375 109.44140625 C-80.55626236 110.24609848 -80.55393097 111.05079071 -80.55152893 111.87986755 C-80.54181505 113.57521213 -80.52008206 115.27052538 -80.48706055 116.96557617 C-80.43759316 119.55761866 -80.42557425 122.14776208 -80.41992188 124.74023438 C-80.40583668 126.39064515 -80.38963255 128.04103949 -80.37109375 129.69140625 C-80.36573105 130.46440567 -80.36036835 131.23740509 -80.35484314 132.03382874 C-80.26191662 137.34192115 -80.26191662 137.34192115 -78 142 C-74.20836973 144.52775351 -71.19125969 144.22443035 -66.8125 144.125 C-66.06291016 144.11597656 -65.31332031 144.10695313 -64.54101562 144.09765625 C-62.69387346 144.07412578 -60.84689588 144.03825561 -59 144 C-60.08148167 145.25160238 -61.16527922 146.50120381 -62.25 147.75 C-62.88550781 148.48476562 -63.52101562 149.21953125 -64.17578125 149.9765625 C-66 152 -66 152 -68.4375 154.125 C-70.24166066 155.97286316 -70.24166066 155.97286316 -70.5 158.875 C-69.19226823 167.04832359 -61.54395955 172.71924957 -55.9375 178.25 C-55.02677734 179.16007813 -54.11605469 180.07015625 -53.17773438 181.0078125 C-47.41348171 187.22286855 -47.41348171 187.22286855 -39.9375 190.6875 C-33.76505571 189.60977163 -30.29509118 185.35268819 -26 181 C-25.67 180.67 -25.34 180.34 -25 180 C-24.95101562 180.96421875 -24.90203125 181.9284375 -24.8515625 182.921875 C-24.77679688 184.18515625 -24.70203125 185.4484375 -24.625 186.75 C-24.55539063 188.00296875 -24.48578125 189.2559375 -24.4140625 190.546875 C-24.04196398 193.65003621 -23.7454536 195.45899952 -22 198 C-18.21724566 200.52183623 -15.17269881 200.30591551 -10.7890625 200.30078125 C-9.58133682 200.30720894 -9.58133682 200.30720894 -8.34921265 200.31376648 C-6.64622945 200.31950761 -4.94322173 200.32001163 -3.24023438 200.31567383 C-0.6414982 200.31252002 1.95609259 200.33595315 4.5546875 200.36132812 C6.21093607 200.36360184 7.86718769 200.36430428 9.5234375 200.36328125 C10.29754974 200.372491 11.07166199 200.38170074 11.86923218 200.39118958 C16.41820382 200.35241263 19.39366176 199.84270933 23 197 C24.59412284 193.81175432 24.10174735 190.37103338 24.0625 186.875 C24.05798828 186.12089844 24.05347656 185.36679688 24.04882812 184.58984375 C24.03703499 182.72652873 24.01909942 180.86325445 24 179 C25.25160238 180.08148167 26.50120381 181.16527922 27.75 182.25 C28.48605469 182.88550781 29.22210938 183.52101562 29.98046875 184.17578125 C32 186 32 186 34.0625 188.4375 C36.02511271 190.26170265 36.02511271 190.26170265 39.25 190.6875 C47.74736165 189.12965036 54.53027103 179.62375712 60.4375 173.6875 C61.25154297 172.87732422 62.06558594 172.06714844 62.90429688 171.23242188 C63.67708984 170.45833984 64.44988281 169.68425781 65.24609375 168.88671875 C65.94404053 168.18764404 66.6419873 167.48856934 67.36108398 166.76831055 C69.80164382 164.13506537 70.62125129 161.77688898 70.62890625 158.1484375 C69.17789836 153.19157826 64.58978036 149.54227854 61 146 C60.67 145.67 60.34 145.34 60 145 C60.95261719 144.96261719 61.90523437 144.92523438 62.88671875 144.88671875 C64.14097656 144.82097656 65.39523437 144.75523437 66.6875 144.6875 C67.92886719 144.62949219 69.17023438 144.57148438 70.44921875 144.51171875 C74.10818937 143.98440835 76.10429856 143.2617631 79 141 C80.2565627 137.2303119 80.18175362 133.68282257 80.203125 129.75390625 C80.20882507 128.94638412 80.21452515 128.138862 80.22039795 127.30686951 C80.22983834 125.59969388 80.23637812 123.89250011 80.24023438 122.18530273 C80.2499509 119.57568625 80.2809869 116.96685393 80.3125 114.35742188 C80.31902933 112.69792134 80.32428007 111.03841518 80.328125 109.37890625 C80.3466452 108.20999596 80.3466452 108.20999596 80.36553955 107.01747131 C80.35223287 103.77722836 80.22539875 101.41616205 78.66699219 98.53881836 C75.11441651 95.25939767 70.84052449 95.88253798 66.3125 95.9375 C65.61060547 95.94201172 64.90871094 95.94652344 64.18554688 95.95117188 C62.45699462 95.96293073 60.72848635 95.98086546 59 96 C60.08148167 94.74839762 61.16527922 93.49879619 62.25 92.25 C62.88550781 91.51394531 63.52101563 90.77789062 64.17578125 90.01953125 C66 88 66 88 68.4375 85.9375 C70.23343703 83.98258855 70.23343703 83.98258855 70.8125 80.875 C69.64814503 75.32192247 66.54053193 72.50418044 62.58056641 68.5703125 C60.75947654 66.76103693 58.96425166 64.92764908 57.16796875 63.09375 C54.54066867 60.42801402 51.90972898 57.76626621 49.2578125 55.125 C48.7023877 54.57070312 48.14696289 54.01640625 47.57470703 53.4453125 C44.92038869 51.00910093 43.24827869 50.03208258 39.64453125 49.56640625 C35.02459682 50.11604475 33.76315198 51.5270181 30.6875 54.9375 C26.07022107 59.96488947 26.07022107 59.96488947 24 61 C24.03480469 59.89140625 24.06960938 58.7828125 24.10546875 57.640625 C24.13361349 56.17709852 24.16091292 54.71355561 24.1875 53.25 C24.21263672 52.52039063 24.23777344 51.79078125 24.26367188 51.0390625 C24.30798412 47.78949814 24.2353876 45.43605727 22.67578125 42.546875 C17.84409771 38.08685942 8.48849852 39.6935223 2.24023438 39.64990234 C0.50018955 39.63333358 -1.23978695 39.60603111 -2.97949219 39.56787109 C-5.49449786 39.51303119 -8.00791407 39.4912214 -10.5234375 39.4765625 C-11.29754974 39.45389313 -12.07166199 39.43122375 -12.86923218 39.40786743 C-16.87394657 39.42348735 -18.77801531 39.8309953 -21.99926758 42.28344727 Z " fill="#CA4B4B" transform="translate(256,32)"/>
<path d="M0 0 C23.39318197 23.06777449 36.97004285 55.36735097 37.24145508 88.13061523 C37.24599394 89.54540574 37.24881081 90.96020271 37.25 92.375 C37.25067474 93.09342072 37.25134949 93.81184143 37.25204468 94.55203247 C37.23593374 105.33988893 36.73250921 115.51069044 34 126 C33.83371094 126.67417969 33.66742188 127.34835938 33.49609375 128.04296875 C31.5241388 135.94539562 28.96022291 143.49937046 25.625 150.9296875 C25.28539749 151.68937332 24.94579498 152.44905914 24.59590149 153.23176575 C19.46749827 164.54717755 13.78613834 175.60006342 8.1875 186.6875 C1.38677885 200.17587553 -5.36574836 213.67562837 -11.84576416 227.32139587 C-16.88969903 237.91856707 -22.13242271 248.4152178 -27.38891602 258.90820312 C-29.06762089 262.26022535 -30.7420043 265.61438177 -32.41601562 268.96875 C-37.58611838 279.31190131 -42.81321098 289.61503261 -48.23416138 299.82897949 C-53.25434493 309.31833089 -58.03807871 318.92680328 -62.83129883 328.53222656 C-64.42947426 331.73392168 -66.03190355 334.93346156 -67.63476562 338.1328125 C-73.30544028 349.4717699 -78.89609462 360.84153449 -84.28868103 372.31585693 C-91.79806198 388.19870798 -91.79806198 388.19870798 -96 391 C-98.875 391.4375 -98.875 391.4375 -102 391 C-106.56856024 387.20552232 -108.88357468 382.92240504 -111.43554688 377.6965332 C-112.05370018 376.46132179 -112.05370018 376.46132179 -112.68434143 375.20115662 C-114.03868482 372.48899906 -115.37872788 369.77003922 -116.71875 367.05078125 C-117.66281877 365.15330562 -118.60777919 363.25627338 -119.55358887 361.35966492 C-122.03961405 356.36855489 -124.51358424 351.37156375 -126.98504639 346.37322998 C-129.48937678 341.3136169 -132.00487329 336.25956398 -134.51953125 331.20507812 C-138.2072668 323.7898757 -141.8892008 316.37183672 -145.56445312 308.95043945 C-150.14167461 299.70934791 -154.71473868 290.47773938 -159.5625 281.375 C-167.33903899 266.66973463 -174.76023333 251.78614524 -181.875 236.75 C-186.93196433 226.06570067 -192.22643706 215.50398129 -197.52612305 204.93859863 C-245.7459207 108.79852998 -245.7459207 108.79852998 -231 57 C-230.72712158 55.99960693 -230.72712158 55.99960693 -230.44873047 54.97900391 C-220.87607622 20.64919024 -196.31617513 -6.26941307 -166.1875 -24.1875 C-110.21592244 -55.71036513 -45.65300849 -42.60947459 0 0 Z M-177 4 C-177.81855469 4.69738281 -178.63710937 5.39476563 -179.48046875 6.11328125 C-200.71874287 24.65149571 -212.33116398 46.6151614 -218 74 C-218.176521 74.77988281 -218.35304199 75.55976563 -218.53491211 76.36328125 C-221.04842046 90.61309237 -219.89413009 107.12246303 -216 121 C-215.65110069 122.44110586 -215.30352677 123.88253303 -214.95703125 125.32421875 C-212.34986635 135.49387832 -208.41085395 144.74963376 -203.78125 154.15625 C-203.1640362 155.42125855 -202.54719913 156.68645096 -201.93070984 157.95181274 C-194.67259293 172.81615998 -187.23990202 187.59477268 -179.8125 202.375 C-177.0663775 207.83982733 -174.32192172 213.30548252 -171.58203125 218.7734375 C-171.24824589 219.43948753 -170.91446053 220.10553757 -170.57056046 220.79177094 C-166.51111411 228.8986787 -162.51673867 237.03189844 -158.63671875 245.2265625 C-154.03259911 254.94566963 -149.25449873 264.57272023 -144.4375 274.1875 C-144.0563674 274.94832508 -143.67523479 275.70915016 -143.28255272 276.49303055 C-140.52455078 281.99678443 -137.76267277 287.49858956 -135 293 C-131.85158988 299.26954322 -128.70474756 305.53986548 -125.5625 311.8125 C-125.18536173 312.56527662 -124.80822346 313.31805325 -124.41965675 314.09364128 C-118.4892842 325.93922366 -112.7024519 337.8444368 -107.04008484 349.82081604 C-104.76691156 354.58356477 -102.39640619 359.29819038 -100 364 C-99.34 364 -98.68 364 -98 364 C-96.20466474 360.43498277 -94.41254213 356.86836699 -92.62280273 353.30053711 C-91.73116191 351.52447052 -90.83731711 349.74951091 -89.94335938 347.97460938 C-86.71704703 341.54892698 -83.56012112 335.09542787 -80.4803009 328.59815979 C-75.19500487 317.45442162 -69.74280391 306.40182846 -64.21875 295.375 C-63.82736658 294.59366762 -63.43598316 293.81233524 -63.03273964 293.00732613 C-59.78065571 286.51719598 -56.52335066 280.02968912 -53.26593018 273.54223633 C-50.43534437 267.90433864 -47.60671184 262.26546749 -44.78125 256.625 C-44.38884314 255.8417485 -43.99643627 255.05849701 -43.59213829 254.25151062 C-38.67188438 244.42400552 -33.83894481 234.5635066 -29.13960266 224.62805176 C-25.18574695 216.30584173 -21.05915351 208.07378546 -16.91796875 199.84375 C-16.56334187 199.13842133 -16.20871498 198.43309265 -15.84334183 197.70639038 C-12.55029873 191.15691935 -9.25382842 184.60918668 -5.94750977 178.06640625 C-4.11399538 174.43746332 -2.28664726 170.80546863 -0.46294594 167.17158508 C0.21920402 165.81519651 0.903546 164.45990749 1.59037209 163.10588074 C7.74894501 150.96216116 13.49447355 138.59096942 16.75 125.3125 C16.95262451 124.50200195 17.15524902 123.69150391 17.36401367 122.85644531 C17.92453781 120.57426253 18.46494957 118.28826262 19 116 C19.24878906 114.98808594 19.49757813 113.97617188 19.75390625 112.93359375 C25.39912503 85.81285736 18.88506211 56.57664908 5 33 C-13.1757138 5.52658535 -40.80755196 -15.07297843 -72.99609375 -22.7109375 C-75.65975511 -23.23233504 -78.30901791 -23.64829109 -81 -24 C-81.78632813 -24.11085938 -82.57265625 -24.22171875 -83.3828125 -24.3359375 C-117.88273442 -28.33749584 -150.6515334 -18.89438191 -177 4 Z " fill="#010000" transform="translate(355,57)"/>
<path d="M0 0 C0 5.61 0 11.22 0 17 C-1.82917969 17.21914063 -3.65835938 17.43828125 -5.54296875 17.6640625 C-77.33936414 26.19563022 -77.33936414 26.19563022 -137.6875 62.75 C-141.63470945 68.2974295 -143.73004704 72.06455313 -143 79 C-139.22073844 91.2270227 -128.00252461 99.03634058 -117.25 104.9375 C-84.70293251 122.1056412 -45.72968682 129.34329994 -9.52148438 133.75537109 C-6.5284602 134.12151836 -3.53772834 134.5032886 -0.546875 134.88671875 C24.59562119 138.04836305 49.62564406 139.38729694 74.96178818 139.31785583 C77.03927543 139.3123968 79.11675121 139.31004175 81.19424438 139.3079834 C114.26739097 139.25707647 147.1595605 137.74852815 179.85351562 132.50292969 C182.92527765 132.01194352 186.00046797 131.55392416 189.078125 131.1015625 C223.68403197 125.86495554 264.21424826 117.76481766 292 95 C292.85207031 94.35933594 293.70414062 93.71867187 294.58203125 93.05859375 C299.10150355 89.21083623 302.24985922 84.25392191 303.58984375 78.44140625 C304.03133137 71.53912412 301.4474179 67.09465127 297 62 C287.01032789 51.23403436 273.21559661 45.27010857 259.859375 39.76855469 C258.20152644 39.08329901 256.55315181 38.37522465 254.90625 37.6640625 C244.29858216 33.28142079 233.12521682 30.70814786 222 28 C221.06913574 27.77280273 220.13827148 27.54560547 219.17919922 27.31152344 C201.1677875 22.96162176 182.97656664 19.55878311 164.5703125 17.39453125 C162 17 162 17 161 16 C160.76321284 13.30764224 160.57801975 10.63501844 160.4375 7.9375 C160.39431641 7.17888672 160.35113281 6.42027344 160.30664062 5.63867188 C160.20026367 3.75934562 160.09960066 1.87969756 160 0 C170.41747396 0.52334132 180.49258862 1.87902534 190.75 3.6875 C191.89018585 3.88632782 191.89018585 3.88632782 193.05340576 4.08917236 C229.94813341 10.5472181 272.13606193 18.8334746 302 43 C302.80050781 43.62519531 303.60101563 44.25039063 304.42578125 44.89453125 C311.80893652 50.98718543 317.52925024 58.6505901 320 68 C321.11038057 80.34330025 319.62471065 89.54382394 312 99.5625 C274.24112807 143.29626683 195.6759344 149.11676274 141.828125 154.23828125 C141.17194687 154.30154099 140.51576874 154.36480072 139.83970642 154.42997742 C126.75650023 155.6283687 113.720366 156.16569881 100.5859375 156.203125 C99.05296297 156.21014687 97.51998873 156.21723369 95.98701477 156.22438049 C91.11633889 156.24377687 86.24571061 156.24881437 81.375 156.25 C80.5453989 156.25044186 79.71579781 156.25088371 78.86105728 156.25133896 C54.85101771 156.25804708 30.97120744 156.14919497 7.10223389 153.25323486 C4.88314083 152.98592316 2.66275754 152.73214236 0.44189453 152.47998047 C-47.7038468 146.95135625 -104.10120058 138.99955517 -143 108 C-143.97839844 107.26716797 -143.97839844 107.26716797 -144.9765625 106.51953125 C-151.84861496 101.11573669 -158.43579926 92.77069699 -160 84 C-161.01515502 71.97041298 -159.80040984 62.81014913 -152.4375 52.9375 C-144.23413615 43.28381768 -134.1194545 36.81145005 -123 31 C-122.41138184 30.68208496 -121.82276367 30.36416992 -121.21630859 30.03662109 C-91.43472549 14.09866282 -56.43819917 7.7993204 -23.4375 2.5625 C-22.60636688 2.43049194 -21.77523376 2.29848389 -20.91891479 2.16247559 C-18.54982606 1.79007121 -16.17964254 1.42610101 -13.80859375 1.06640625 C-13.10682007 0.95742508 -12.40504639 0.84844391 -11.68200684 0.73616028 C-7.68048047 0.1443445 -4.09398645 0 0 0 Z " fill="#000101" transform="translate(176,340)"/>
<path d="M0 0 C5.28 0 10.56 0 16 0 C16.16276042 3.25520833 16.32552083 6.51041667 16.48828125 9.765625 C17.03749278 13.2369773 17.49700874 14.58313318 20 17 C24.96813823 19.82544704 30.04323354 21.83693613 35.75 22.3125 C40.59465456 20.35600489 43.59703622 16.88026259 47 13 C51.52615993 16.67832017 55.39424999 20.41086363 59 25 C58.43410156 25.49628906 57.86820312 25.99257812 57.28515625 26.50390625 C53.84570616 29.68947777 51.34577694 32.03182457 49.75 36.5 C50.02999034 40.41986483 51.04303769 42.76526524 52.953125 46.140625 C54 48 54 48 55.0625 50.875 C55.9204691 53.33507152 55.9204691 53.33507152 59 55 C62.19806665 55.4603764 62.19806665 55.4603764 65.6875 55.625 C68.8121875 55.810625 68.8121875 55.810625 72 56 C72 61.28 72 66.56 72 72 C68.74479167 72.16276042 65.48958333 72.32552083 62.234375 72.48828125 C58.7630227 73.03749278 57.41686682 73.49700874 55 76 C52.17455296 80.96813823 50.16306387 86.04323354 49.6875 91.75 C51.64399511 96.59465456 55.11973741 99.59703622 59 103 C55.32167983 107.52615993 51.58913637 111.39424999 47 115 C46.50371094 114.43410156 46.00742187 113.86820312 45.49609375 113.28515625 C44.47708984 112.18494141 44.47708984 112.18494141 43.4375 111.0625 C42.77621094 110.33160156 42.11492187 109.60070312 41.43359375 108.84765625 C38.19889329 106.39177613 36.04474338 106.08228065 32 106 C28.49383982 107.03379391 28.49383982 107.03379391 25.1875 108.75 C23.50720703 109.54664063 23.50720703 109.54664063 21.79296875 110.359375 C18.78131864 111.85517017 18.78131864 111.85517017 17 115 C16.5396236 118.19806665 16.5396236 118.19806665 16.375 121.6875 C16.189375 124.8121875 16.189375 124.8121875 16 128 C10.72 128 5.44 128 0 128 C-0.16276042 124.45182292 -0.32552083 120.90364583 -0.48828125 117.35546875 C-0.74009397 114.11903004 -0.74009397 114.11903004 -2.18359375 112.22265625 C-7.43017824 108.69108433 -13.45238056 106.21230162 -19.75 105.6875 C-24.59465456 107.64399511 -27.59703622 111.11973741 -31 115 C-33.35043586 113.01929563 -35.67822804 111.01418678 -38 109 C-39.2375 107.948125 -39.2375 107.948125 -40.5 106.875 C-42 105 -42 105 -41.8203125 103.12109375 C-40.80387316 100.49287203 -39.38280544 99.1513097 -37.375 97.1875 C-34.41598976 93.94873585 -34.41598976 93.94873585 -33.8125 89.625 C-36.3758287 79.88877448 -36.3758287 79.88877448 -43 73 C-46.26875041 72.42385742 -46.26875041 72.42385742 -49.75 72.3125 C-52.84375 72.1578125 -52.84375 72.1578125 -56 72 C-56 66.72 -56 61.44 -56 56 C-52.74479167 55.83723958 -49.48958333 55.67447917 -46.234375 55.51171875 C-42.7630227 54.96250722 -41.41686682 54.50299126 -39 52 C-36.17455296 47.03186177 -34.16306387 41.95676646 -33.6875 36.25 C-35.64399511 31.40534544 -39.11973741 28.40296378 -43 25 C-39.32167983 20.47384007 -35.58913637 16.60575001 -31 13 C-30.50371094 13.56589844 -30.00742188 14.13179687 -29.49609375 14.71484375 C-28.47708984 15.81505859 -28.47708984 15.81505859 -27.4375 16.9375 C-26.77621094 17.66839844 -26.11492187 18.39929688 -25.43359375 19.15234375 C-22.19889329 21.60822387 -20.04474338 21.91771935 -16 22 C-12.49383982 20.96620609 -12.49383982 20.96620609 -9.1875 19.25 C-7.50720703 18.45335937 -7.50720703 18.45335937 -5.79296875 17.640625 C-2.78131864 16.14482983 -2.78131864 16.14482983 -1 13 C-0.5396236 9.80193335 -0.5396236 9.80193335 -0.375 6.3125 C-0.189375 3.1878125 -0.189375 3.1878125 0 0 Z " fill="#8C8C8C" transform="translate(248,88)"/>
<path d="M0 0 C1.93218499 1.52217226 3.8495684 3.06336401 5.75 4.625 C7.04550781 5.67300781 7.04550781 5.67300781 8.3671875 6.7421875 C22.35870326 18.64151398 33.69439697 35.95469518 38.75 53.625 C38.875 56.49609375 38.875 56.49609375 38.75 58.625 C33.65199716 60.68208887 29.2429355 61.93921533 23.75 62.625 C23.39808594 61.60921875 23.04617188 60.5934375 22.68359375 59.546875 C14.33110303 36.01116979 -0.35643026 16.57341069 -23.25 5.625 C-46.440271 -4.00397132 -70.82156538 -5.89899148 -94.4140625 3.48583984 C-116.50713343 12.88660457 -133.46382411 29.7872074 -142.5625 52.125 C-150.50273499 72.9030868 -150.47098372 93.66479619 -143.25 114.625 C-142.67378906 116.31882813 -142.67378906 116.31882813 -142.0859375 118.046875 C-133.8210827 139.74914678 -116.7144514 155.26507229 -96.09375 165.05078125 C-73.72696271 174.57889226 -49.64849044 173.88347596 -27.1171875 165.22875977 C-5.17973378 156.17902031 10.34149812 139.18734169 19.75 117.625 C21.17739221 113.98759556 22.5100326 110.33031435 23.75 106.625 C25.50128818 106.90882946 27.25100003 107.20239529 29 107.5 C29.97453125 107.66242188 30.9490625 107.82484375 31.953125 107.9921875 C34.52264117 108.57355848 36.47071056 109.33340265 38.75 110.625 C37.70020877 126.02193811 27.53330383 141.2700811 17.75 152.625 C17.23179687 153.28757813 16.71359375 153.95015625 16.1796875 154.6328125 C0.27106714 174.37868803 -25.57937095 185.42916791 -50.25 188.625 C-70.8432688 189.98040459 -89.92885248 187.43990046 -108.25 177.625 C-109.1884375 177.16351563 -110.126875 176.70203125 -111.09375 176.2265625 C-118.27149834 172.57720168 -124.15601207 167.84570617 -130.25 162.625 C-131.09046875 161.98046875 -131.9309375 161.3359375 -132.796875 160.671875 C-137.28604078 156.92613795 -140.67268775 152.22175356 -144.25 147.625 C-144.86230469 146.8515625 -145.47460938 146.078125 -146.10546875 145.28125 C-161.79691973 124.31143908 -167.52429418 97.42016358 -165.25 71.625 C-161.9344755 48.87447368 -152.26997312 29.05493307 -136.25 12.625 C-135.425 11.75875 -134.6 10.8925 -133.75 10 C-132.925 9.21625 -132.1 8.4325 -131.25 7.625 C-130.66476563 7.04492188 -130.07953125 6.46484375 -129.4765625 5.8671875 C-94.86542992 -26.9426222 -37.81210598 -27.71921946 0 0 Z " fill="#030202" transform="translate(317.25,67.375)"/>
<path d="M0 0 C15.98684104 12.39839688 30.94538562 29.52785559 33.90625 50.25390625 C36.54625 49.59390625 39.18625 48.93390625 41.90625 48.25390625 C42.41029808 50.35710688 42.90935508 52.46150416 43.40625 54.56640625 C43.6846875 55.73816406 43.963125 56.90992188 44.25 58.1171875 C44.90625 61.25390625 44.90625 61.25390625 44.90625 64.25390625 C42.26625 64.58390625 39.62625 64.91390625 36.90625 65.25390625 C36.90625 69.87390625 36.90625 74.49390625 36.90625 79.25390625 C39.21625 79.58390625 41.52625 79.91390625 43.90625 80.25390625 C44.1420896 86.03197649 43.77408046 90.76715429 41.90625 96.25390625 C37.94625 95.26390625 37.94625 95.26390625 33.90625 94.25390625 C33.70322266 95.20136719 33.70322266 95.20136719 33.49609375 96.16796875 C28.05357682 118.78537446 13.22210346 136.03914111 -6.09375 148.25390625 C-24.93380524 159.45678474 -48.98767661 163.75024704 -70.46704102 158.87084961 C-85.97794561 154.844547 -98.96040812 147.61959012 -111.09375 137.25390625 C-111.76792969 136.6815625 -112.44210938 136.10921875 -113.13671875 135.51953125 C-127.56976207 122.17639738 -137.69935617 100.44201649 -139.28662109 80.87646484 C-140.15494606 54.21099461 -133.48853424 32.61501959 -116.09375 12.25390625 C-115.52140625 11.57972656 -114.9490625 10.90554687 -114.359375 10.2109375 C-85.24646502 -21.2800072 -34.25755926 -24.26577115 0 0 Z M-73.09301758 -5.46264648 C-75.368323 -2.37649808 -75.368323 -2.37649808 -75.58203125 1.2421875 C-75.56591797 1.94794922 -75.54980469 2.65371094 -75.53320312 3.38085938 C-75.49130859 4.10208984 -75.44941406 4.82332031 -75.40625 5.56640625 C-75.37241211 6.67725586 -75.37241211 6.67725586 -75.33789062 7.81054688 C-75.2793315 9.62587982 -75.18965886 11.44016306 -75.09375 13.25390625 C-75.75375 13.25390625 -76.41375 13.25390625 -77.09375 13.25390625 C-77.75375 11.93390625 -78.41375 10.61390625 -79.09375 9.25390625 C-79.75375 9.25390625 -80.41375 9.25390625 -81.09375 9.25390625 C-81.34125 8.65578125 -81.58875 8.05765625 -81.84375 7.44140625 C-83.3480174 4.8089383 -84.41882908 3.69980945 -87.09375 2.25390625 C-90.32285675 1.82030216 -92.88361472 1.51843257 -95.7585144 3.26568604 C-97.49794847 4.7489162 -99.09217153 6.30812285 -100.68359375 7.94921875 C-101.27298233 8.53428192 -101.86237091 9.11934509 -102.46961975 9.72213745 C-103.70745038 10.95958766 -104.93661037 12.20576489 -106.1574707 13.45996094 C-108.02730616 15.37486734 -109.92939434 17.25261569 -111.83789062 19.12890625 C-113.03854243 20.33777738 -114.23718207 21.54865104 -115.43359375 22.76171875 C-116.00222641 23.32134308 -116.57085907 23.88096741 -117.15672302 24.45755005 C-119.73550964 27.14656779 -121.03051241 28.78454667 -121.53442383 32.5246582 C-121.00993162 35.77302299 -120.12533819 36.98209228 -117.84375 39.31640625 C-115.09356357 42.18999848 -112.54832099 45.12052691 -110.09375 48.25390625 C-111.19074219 48.19589844 -112.28773438 48.13789062 -113.41796875 48.078125 C-114.87235314 48.03120937 -116.32678374 47.98571114 -117.78125 47.94140625 C-118.8630957 47.87856445 -118.8630957 47.87856445 -119.96679688 47.81445312 C-120.67255859 47.79833984 -121.37832031 47.78222656 -122.10546875 47.765625 C-122.74959717 47.73944092 -123.39372559 47.71325684 -124.05737305 47.6862793 C-127.51354847 48.64966592 -128.94572417 50.43728959 -131.09375 53.25390625 C-131.55677494 56.26724612 -131.72833686 58.69572978 -131.65234375 61.6953125 C-131.65001236 62.50000473 -131.64768097 63.30469696 -131.64527893 64.1337738 C-131.63556505 65.82911838 -131.61383206 67.52443163 -131.58081055 69.21948242 C-131.53134316 71.81152491 -131.51932425 74.40166833 -131.51367188 76.99414062 C-131.49958668 78.6445514 -131.48338255 80.29494574 -131.46484375 81.9453125 C-131.45948105 82.71831192 -131.45411835 83.49131134 -131.44859314 84.28773499 C-131.35566662 89.5958274 -131.35566662 89.5958274 -129.09375 94.25390625 C-125.30211973 96.78165976 -122.28500969 96.4783366 -117.90625 96.37890625 C-117.15666016 96.36988281 -116.40707031 96.36085938 -115.63476562 96.3515625 C-113.78762346 96.32803203 -111.94064588 96.29216186 -110.09375 96.25390625 C-111.17523167 97.50550863 -112.25902922 98.75511006 -113.34375 100.00390625 C-113.97925781 100.73867187 -114.61476562 101.4734375 -115.26953125 102.23046875 C-117.09375 104.25390625 -117.09375 104.25390625 -119.53125 106.37890625 C-121.33541066 108.22676941 -121.33541066 108.22676941 -121.59375 111.12890625 C-120.28601823 119.30222984 -112.63770955 124.97315582 -107.03125 130.50390625 C-106.12052734 131.41398438 -105.20980469 132.3240625 -104.27148438 133.26171875 C-98.50723171 139.4767748 -98.50723171 139.4767748 -91.03125 142.94140625 C-84.85880571 141.86367788 -81.38884118 137.60659444 -77.09375 133.25390625 C-76.76375 132.92390625 -76.43375 132.59390625 -76.09375 132.25390625 C-76.04476562 133.218125 -75.99578125 134.18234375 -75.9453125 135.17578125 C-75.87054688 136.4390625 -75.79578125 137.70234375 -75.71875 139.00390625 C-75.64914063 140.256875 -75.57953125 141.50984375 -75.5078125 142.80078125 C-75.13571398 145.90394246 -74.8392036 147.71290577 -73.09375 150.25390625 C-69.31099566 152.77574248 -66.26644881 152.55982176 -61.8828125 152.5546875 C-60.67508682 152.56111519 -60.67508682 152.56111519 -59.44296265 152.56767273 C-57.73997945 152.57341386 -56.03697173 152.57391788 -54.33398438 152.56958008 C-51.7352482 152.56642627 -49.13765741 152.5898594 -46.5390625 152.61523438 C-44.88281393 152.61750809 -43.22656231 152.61821053 -41.5703125 152.6171875 C-40.79620026 152.62639725 -40.02208801 152.63560699 -39.22451782 152.64509583 C-34.67554618 152.60631888 -31.70008824 152.09661558 -28.09375 149.25390625 C-26.49962716 146.06566057 -26.99200265 142.62493963 -27.03125 139.12890625 C-27.03576172 138.37480469 -27.04027344 137.62070313 -27.04492188 136.84375 C-27.05671501 134.98043498 -27.07465058 133.1171607 -27.09375 131.25390625 C-25.84214762 132.33538792 -24.59254619 133.41918547 -23.34375 134.50390625 C-22.60769531 135.13941406 -21.87164062 135.77492187 -21.11328125 136.4296875 C-19.09375 138.25390625 -19.09375 138.25390625 -17.03125 140.69140625 C-15.06863729 142.5156089 -15.06863729 142.5156089 -11.84375 142.94140625 C-3.34638835 141.38355661 3.43652103 131.87766337 9.34375 125.94140625 C10.15779297 125.13123047 10.97183594 124.32105469 11.81054688 123.48632812 C12.58333984 122.71224609 13.35613281 121.93816406 14.15234375 121.140625 C14.85029053 120.44155029 15.5482373 119.74247559 16.26733398 119.0222168 C18.70789382 116.38897162 19.52750129 114.03079523 19.53515625 110.40234375 C18.08414836 105.44548451 13.49603036 101.79618479 9.90625 98.25390625 C9.57625 97.92390625 9.24625 97.59390625 8.90625 97.25390625 C9.85886719 97.21652344 10.81148437 97.17914063 11.79296875 97.140625 C13.04722656 97.07488281 14.30148437 97.00914062 15.59375 96.94140625 C16.83511719 96.88339844 18.07648438 96.82539063 19.35546875 96.765625 C23.01443937 96.2383146 25.01054856 95.51566935 27.90625 93.25390625 C29.1628127 89.48421815 29.08800362 85.93672882 29.109375 82.0078125 C29.11507507 81.20029037 29.12077515 80.39276825 29.12664795 79.56077576 C29.13608834 77.85360013 29.14262812 76.14640636 29.14648438 74.43920898 C29.1562009 71.8295925 29.1872369 69.22076018 29.21875 66.61132812 C29.22527933 64.95182759 29.23053007 63.29232143 29.234375 61.6328125 C29.2528952 60.46390221 29.2528952 60.46390221 29.27178955 59.27137756 C29.25848287 56.03113461 29.13164875 53.6700683 27.57324219 50.79272461 C24.02066651 47.51330392 19.74677449 48.13644423 15.21875 48.19140625 C14.51685547 48.19591797 13.81496094 48.20042969 13.09179688 48.20507812 C11.36324462 48.21683698 9.63473635 48.23477171 7.90625 48.25390625 C8.98773167 47.00230387 10.07152922 45.75270244 11.15625 44.50390625 C11.79175781 43.76785156 12.42726563 43.03179687 13.08203125 42.2734375 C14.90625 40.25390625 14.90625 40.25390625 17.34375 38.19140625 C19.13968703 36.2364948 19.13968703 36.2364948 19.71875 33.12890625 C18.55439503 27.57582872 15.44678193 24.75808669 11.48681641 20.82421875 C9.66572654 19.01494318 7.87050166 17.18155533 6.07421875 15.34765625 C3.44691867 12.68192027 0.81597898 10.02017246 -1.8359375 7.37890625 C-2.3913623 6.82460937 -2.94678711 6.2703125 -3.51904297 5.69921875 C-6.17336131 3.26300718 -7.84547131 2.28598883 -11.44921875 1.8203125 C-16.06915318 2.369951 -17.33059802 3.78092435 -20.40625 7.19140625 C-25.02352893 12.21879572 -25.02352893 12.21879572 -27.09375 13.25390625 C-27.05894531 12.1453125 -27.02414062 11.03671875 -26.98828125 9.89453125 C-26.96013651 8.43100477 -26.93283708 6.96746186 -26.90625 5.50390625 C-26.88111328 4.77429688 -26.85597656 4.0446875 -26.83007812 3.29296875 C-26.78576588 0.04340439 -26.8583624 -2.31003648 -28.41796875 -5.19921875 C-33.24965229 -9.65923433 -42.60525148 -8.05257145 -48.85351562 -8.09619141 C-50.59356045 -8.11276017 -52.33353695 -8.14006264 -54.07324219 -8.17822266 C-56.58824786 -8.23306256 -59.10166407 -8.25487235 -61.6171875 -8.26953125 C-62.39129974 -8.29220062 -63.16541199 -8.31487 -63.96298218 -8.33822632 C-67.96769657 -8.3226064 -69.87176531 -7.91509845 -73.09301758 -5.46264648 Z " fill="#E7E6E6" transform="translate(307.09375,79.74609375)"/>
<path d="M0 0 C7.33590199 4.77843157 11.62856456 11.65837182 14 20 C15.32339593 30.72647224 12.87791124 40.16037827 6.4375 48.875 C0.59330741 55.08445462 -8.23204788 58.4669014 -16.578125 59.23828125 C-25.94993022 59.49860917 -32.8104492 56.60365871 -40.14453125 50.8359375 C-46.64178044 44.40708041 -50.26420313 35.76176366 -50.375 26.6875 C-50.26383248 20.57328646 -49.17488016 16.2024516 -46 11 C-45.57589844 10.30132812 -45.15179688 9.60265625 -44.71484375 8.8828125 C-34.17648681 -6.6752075 -15.80622083 -8.79670733 0 0 Z " fill="#020202" transform="translate(274,125)"/>
<path d="M0 0 C2.64 0 5.28 0 8 0 C8 10.56 8 21.12 8 32 C4.7 32.66 1.4 33.32 -2 34 C-10.61648886 37.67467907 -16.76843409 42.52153641 -21 51 C-24.30392461 59.52064767 -24.17506978 67.9464826 -20.8125 76.4375 C-16.61311396 85.35239773 -11.08339662 90.51698097 -1.9375 94.25 C1.32142617 95.08206626 4.67033405 95.52433344 8 96 C8 106.56 8 117.12 8 128 C5.36 128 2.72 128 0 128 C-0.05607422 126.53626953 -0.05607422 126.53626953 -0.11328125 125.04296875 C-0.17902344 123.77066406 -0.24476563 122.49835938 -0.3125 121.1875 C-0.37050781 119.92292969 -0.42851562 118.65835938 -0.48828125 117.35546875 C-0.74009397 114.11903004 -0.74009397 114.11903004 -2.18359375 112.22265625 C-7.43017824 108.69108433 -13.45238056 106.21230162 -19.75 105.6875 C-24.59465456 107.64399511 -27.59703622 111.11973741 -31 115 C-33.35043586 113.01929563 -35.67822804 111.01418678 -38 109 C-39.2375 107.948125 -39.2375 107.948125 -40.5 106.875 C-42 105 -42 105 -41.8203125 103.12109375 C-40.80387316 100.49287203 -39.38280544 99.1513097 -37.375 97.1875 C-34.41598976 93.94873585 -34.41598976 93.94873585 -33.8125 89.625 C-36.3758287 79.88877448 -36.3758287 79.88877448 -43 73 C-46.26875041 72.42385742 -46.26875041 72.42385742 -49.75 72.3125 C-52.84375 72.1578125 -52.84375 72.1578125 -56 72 C-56 66.72 -56 61.44 -56 56 C-52.74479167 55.83723958 -49.48958333 55.67447917 -46.234375 55.51171875 C-42.7630227 54.96250722 -41.41686682 54.50299126 -39 52 C-36.17455296 47.03186177 -34.16306387 41.95676646 -33.6875 36.25 C-35.64399511 31.40534544 -39.11973741 28.40296378 -43 25 C-39.32167983 20.47384007 -35.58913637 16.60575001 -31 13 C-30.50371094 13.56589844 -30.00742188 14.13179687 -29.49609375 14.71484375 C-28.47708984 15.81505859 -28.47708984 15.81505859 -27.4375 16.9375 C-26.77621094 17.66839844 -26.11492187 18.39929688 -25.43359375 19.15234375 C-22.19889329 21.60822387 -20.04474338 21.91771935 -16 22 C-12.49383982 20.96620609 -12.49383982 20.96620609 -9.1875 19.25 C-7.50720703 18.45335937 -7.50720703 18.45335937 -5.79296875 17.640625 C-2.78131864 16.14482983 -2.78131864 16.14482983 -1 13 C-0.5396236 9.80193335 -0.5396236 9.80193335 -0.375 6.3125 C-0.30023438 5.13300781 -0.22546875 3.95351562 -0.1484375 2.73828125 C-0.09945312 1.83464844 -0.05046875 0.93101563 0 0 Z " fill="#A5A5A5" transform="translate(248,88)"/>
<path d="M0 0 C5.54648833 1.98551333 9.38327402 5.76654805 12 11 C12.54360446 15.95482094 12.56437074 19.87125852 10.3125 24.375 C7.14745126 27.96775803 3.78798338 31.69412413 -1.171875 32.23828125 C-7.00924202 32.40632666 -10.49219044 32.08847844 -15 28 C-18.68388312 24.31611688 -20.33313195 21.19714667 -20.5625 15.9375 C-20.30841918 11.28640949 -19.12745181 8.55008044 -16 5 C-10.65336668 0.28987065 -7.04184942 -0.83116911 0 0 Z " fill="#E7E7E7" transform="translate(260,136)"/>
<path d="M0 0 C0 5.61 0 11.22 0 17 C-1.8975 16.855625 -3.795 16.71125 -5.75 16.5625 C-6.81734375 16.48128906 -7.8846875 16.40007812 -8.984375 16.31640625 C-12 16 -12 16 -16 15 C-16 10.38 -16 5.76 -16 1 C-10.57002841 -0.3574929 -5.59779635 -0.06084561 0 0 Z " fill="#050202" transform="translate(360,144)"/>
</svg>
