<?xml version="1.0" encoding="UTF-8"?>
<svg xmlns="http://www.w3.org/2000/svg" viewBox="0 0 512 512" width="512" height="512">
<path d="M447 239.12C419.71 239.16 392.42 239.21 365.13 239.25C366.28 243.82 371.1 247.39 371.28 252.32C371.47 257.27 366.65 261.32 365.13 265.75C392.47 265.86 419.8 265.97 447.13 266.08C454.91 267.37 456.19 278.59 447.75 279.92C441.41 280.92 434.18 279.99 427.75 279.99C412.08 279.99 396.42 279.99 380.75 279.99C372.95 279.99 364.46 279.06 356.75 280.22C354.65 282.53 353.39 285.9 351.82 288.6C348.13 294.92 344.56 301.31 340.82 307.61C330.46 325.11 320.67 342.97 310.22 360.42C306.14 367.23 302.29 374.18 298.32 381.05C296.71 383.84 295.29 387.54 292 388.77C288.85 389.94 284.08 389.08 280.75 389.08C272.75 389.08 264.75 389.08 256.75 389.08C229.08 389.08 201.42 389.08 173.75 389.08C164.92 389.08 156.08 389.08 147.25 389.08C143.68 389.08 139.04 389.92 135.95 387.78C133.47 386.06 132.22 382.48 130.75 379.97C127.73 374.81 124.79 369.58 121.78 364.42C110.74 345.45 100.05 326.25 88.84 307.39C81.36 294.8 74.35 281.95 66.87 269.36C64.57 265.48 58.31 257.04 58.16 252.75C58.01 248.61 64.54 239.81 66.75 236.03C74.49 222.75 82.02 209.35 89.82 196.1C100.65 177.7 110.99 159 121.84 140.62C124.88 135.47 127.79 130.25 130.8 125.09C132.27 122.57 133.52 119 136.06 117.33C139.33 115.17 144 115.97 147.75 115.97C156.08 115.97 164.42 115.97 172.75 115.97C201.58 115.97 230.42 115.97 259.25 115.97C266.92 115.97 274.58 115.97 282.25 115.97C285.74 115.97 290.06 115.24 293.2 117.06C296.16 118.78 297.49 122.81 299.16 125.61C303.59 133.06 307.76 140.65 312.14 148.12C327.07 173.58 341.71 199.22 356.5 224.75C363.12 226.5 375.95 225.12 383.25 225.12C397.42 225.12 411.58 225.12 425.75 225.12C432.71 225.12 439.81 224.7 446.76 225.14C456.11 225.74 455.75 236.84 447 239.12ZM383.86 119.59C393.37 116.12 397.21 131.7 387.25 133.72C378.71 135.45 375.98 122.46 383.86 119.59ZM143.75 129.82C120.21 170.8 96.66 211.77 73.12 252.75C78.52 263.21 84.93 273.21 90.8 283.41C102.12 303.09 113.44 322.76 124.84 342.39C129.49 350.41 134.14 358.43 138.75 366.47C139.99 368.63 141.84 374.05 144.09 375.17C146.58 376.4 151.49 375.45 154.25 375.45C162.25 375.45 170.25 375.45 178.25 375.45C203.75 375.45 229.25 375.45 254.75 375.45C261.92 375.45 269.08 375.45 276.25 375.45C278.77 375.45 283.21 376.31 285.51 375.24C287.56 374.28 289.23 369.47 290.31 367.55C294.21 360.65 298.27 353.82 302.22 346.94C315.15 324.4 328.01 301.8 341.2 279.41C344.91 273.11 348.47 266.71 352.17 260.4C353.36 258.39 356.26 255.08 356.38 252.71C356.52 250.01 352.68 245.69 351.38 243.37C347.07 235.73 342.65 228.14 338.2 220.58C326.09 199.97 314.03 179.27 302.33 158.42C296.96 148.87 291.74 138.99 285.75 129.82C238.42 129.82 191.08 129.82 143.75 129.82ZM150.9 136.72C160.56 135.26 172.36 136.54 182.25 136.54C202.92 136.54 223.58 136.54 244.25 136.54C252.58 136.54 260.92 136.54 269.25 136.54C272.83 136.54 277.64 135.73 280.97 137.3C285.29 139.34 287.92 147.14 290.21 151.07C296.89 162.57 303.45 174.13 310.15 185.62C319.25 201.22 328.12 216.95 337.23 232.55C339.86 237.04 347.12 247.25 347.76 251.91C348.18 254.95 345.69 258.02 344.25 260.48C340.55 266.8 336.91 273.15 333.27 279.5C320.99 300.87 308.5 322.12 296.3 343.54C292.98 349.36 289.59 355.15 286.24 360.96C284.95 363.21 283.78 366.31 281.39 367.64C276.94 370.1 269.67 368.75 264.75 368.75C251.92 368.75 239.08 368.75 226.25 368.75C207.92 368.75 189.58 368.75 171.25 368.75C165.48 368.75 153.39 370.28 148.46 367.76C145.68 366.34 144.28 362.45 142.82 359.91C139.46 354.09 136.12 348.27 132.76 342.46C120.41 321.13 108.17 299.73 95.8 278.42C92.43 272.62 89.07 266.82 85.72 261.01C84.16 258.3 81.87 255.52 81.98 252.25C82.13 247.83 86.55 242.73 88.71 238.98C94.38 229.14 100.05 219.33 105.73 209.5C116.41 191.01 127.05 172.5 137.75 154.03C140.53 149.23 145.16 137.58 150.9 136.72ZM273.75 150.13C234.55 150.13 195.36 150.13 156.16 150.13C136.41 184.34 116.65 218.54 96.89 252.75C116.51 286.83 136.13 320.91 155.75 354.99C195.15 354.99 234.54 354.99 273.94 354.99C293.59 320.91 313.24 286.83 332.89 252.75C313.18 218.54 293.46 184.34 273.75 150.13ZM419.75 164.23C423.57 162.73 425.15 157.76 429.75 157.38C434.28 157.01 438.3 161.87 436.76 166.26C435.61 169.53 432.27 171.73 430.06 174.25C431.54 177.53 435.61 179.14 436.79 182.73C438.66 188.43 432.42 192.91 427.34 190.87C424.28 189.64 422.88 185.63 419.75 184.72C417.23 186.43 415.53 189.67 412.64 190.85C407.39 193 401.66 188.48 403.11 182.79C404.03 179.16 408.42 177.47 409.93 174.25C407.86 171.8 404.04 169.44 403.14 166.22C401.52 160.44 407.43 155.87 412.69 158.09C415.5 159.27 417.3 162.49 419.75 164.23ZM181.17 218.75C179.82 224.02 182.43 230.57 179.75 235.53C177.43 239.84 170.97 239.94 168.3 235.97C165.55 231.9 167.02 219.9 167.02 214.75C167.02 208.58 167.02 202.42 167.02 196.25C167.02 193.31 166.52 190 168.18 187.4C170.18 184.26 173.95 184.25 177.25 184.25C184.33 184.25 193.07 182.83 199.56 186.23C211.05 192.25 210.9 211.17 199.07 216.78C193.28 219.54 187.06 217.22 181.17 218.75ZM262.97 198.25C261.42 204.01 262.69 221.73 262.69 228.75C262.69 233.38 261.58 238.95 255.75 238.93C249.87 238.91 248.98 233.32 248.98 228.75C248.98 220.73 250.25 205.33 248.75 198.19C245.36 197.77 241.42 198.77 238.39 196.83C234.39 194.27 234.38 187.72 238.58 185.33C241.3 183.79 244.76 184.25 247.75 184.25C253.4 184.25 268.06 182.86 272.63 185.14C277.09 187.36 277.36 194.3 273.12 196.85C270.01 198.73 266.35 197.61 262.97 198.25ZM219.88 184.65C224.17 183.46 227.92 186.52 228.4 190.76C229.76 202.95 228.49 215.98 228.49 228.25C228.49 232.94 227.84 238.85 221.75 238.93C218.29 238.97 215.24 236.17 214.95 232.75C213.96 220.92 214.9 208.62 214.9 196.75C214.9 192.04 214.2 186.23 219.88 184.65ZM193.25 198.06C189.12 198.06 184.99 198.06 180.86 198.06C180.86 200.28 180.86 202.51 180.86 204.73C186.03 205.23 197.97 206.94 193.25 198.06ZM201.46 259.75C199.95 264.51 201.11 283.5 201.11 289.75C201.11 294.64 200.55 300.3 194.25 300.23C188.16 300.16 187.54 294.53 187.54 289.75C187.54 282.92 187.54 276.08 187.54 269.25C187.54 266.3 188.17 262.49 187.09 259.75C184.15 258.92 180.81 259.97 177.9 258.8C172.51 256.65 172.84 248.44 178.03 246.3C182.5 244.46 197.62 245.82 203.25 245.82C206.22 245.82 209.57 245.32 212.09 247.18C216.07 250.12 215.52 257.08 210.66 258.86C207.71 259.94 204.41 258.91 201.46 259.75ZM146.68 259.75C146.68 261.75 146.68 263.75 146.68 265.75C151.96 267.17 158.66 264.45 163.61 267.16C169.06 270.15 167.03 284.69 167.03 290.25C167.03 292.95 167.24 295.52 165.54 297.78C163.57 300.41 160.21 300.36 157.25 300.36C151.18 300.37 135.97 302.75 133.34 295.91C128.84 284.22 147.73 287.19 153.25 286.67C153.25 284.53 153.25 282.39 153.25 280.25C147.93 279.12 140.78 281.75 136 278.73C131.02 275.58 132.95 261.22 132.95 255.75C132.95 253.04 132.74 250.49 134.49 248.25C136.53 245.65 139.76 245.82 142.75 245.82C148.9 245.81 164.32 243.33 166.72 250.5C170.69 262.33 151.99 258.48 146.68 259.75ZM226.31 246.12C231.2 244.74 242.79 245.64 248.25 245.82C250.82 245.91 253.33 246.61 254.74 248.99C257.54 253.74 255.87 267.41 255.87 273.25C255.87 279.2 258.24 297.36 251.63 299.83C248.39 301.03 244.13 300.36 240.75 300.36C236.28 300.36 229.7 301.58 225.54 299.7C222.08 298.14 221.74 294.57 221.73 291.25C221.72 284.75 221.73 278.25 221.73 271.75C221.73 265.89 219.27 248.11 226.31 246.12ZM276.44 280.25C275.23 285.24 277.56 291.19 275.78 296.09C273.75 301.7 264.66 301.55 263.04 295.73C261.33 289.6 262.67 270.69 262.67 263.25C262.67 259.19 261.72 253.74 263.18 249.88C264.64 246.01 268.77 245.82 272.25 245.82C279.78 245.81 289.36 244.14 296.05 248.23C306.39 254.56 306.11 271.76 295.52 277.75C289.41 281.2 282.87 278.76 276.44 280.25ZM242.06 259.45C239.79 259.45 237.53 259.45 235.26 259.45C235.26 268.55 235.26 277.65 235.26 286.76C237.53 286.76 239.79 286.76 242.06 286.76C242.06 277.65 242.06 268.55 242.06 259.45ZM276.26 265.75C279.39 266.6 289.69 267.9 289.95 263.25C290.26 257.49 279.96 258.87 276.26 259.75C276.26 261.75 276.26 263.75 276.26 265.75ZM362.84 355.06C389.56 352.99 393.67 392.14 367.75 395.88C340.73 399.76 336.1 357.14 362.84 355.06ZM363.84 368.87C354.47 369.66 358.36 385.51 367.59 381.77C375.27 378.66 371.38 368.24 363.84 368.87Z" fill="#2f58ff" fill-rule="evenodd" stroke="#2f58ff" stroke-width="0.25" stroke-linejoin="round"/>
<path d="M273.75 150.13C293.46 184.34 313.18 218.54 332.89 252.75C313.24 286.83 293.59 320.91 273.94 354.99C234.54 354.99 195.15 354.99 155.75 354.99C136.13 320.91 116.51 286.83 96.89 252.75C116.65 218.54 136.41 184.34 156.16 150.13C195.36 150.13 234.55 150.13 273.75 150.13ZM181.17 218.75C187.06 217.22 193.28 219.54 199.07 216.78C210.9 211.17 211.05 192.25 199.56 186.23C193.07 182.83 184.33 184.25 177.25 184.25C173.95 184.25 170.18 184.26 168.18 187.4C166.52 190 167.02 193.31 167.02 196.25C167.02 202.42 167.02 208.58 167.02 214.75C167.02 219.9 165.55 231.9 168.3 235.97C170.97 239.94 177.43 239.84 179.75 235.53C182.43 230.57 179.82 224.02 181.17 218.75ZM262.97 198.25C266.35 197.61 270.01 198.73 273.12 196.85C277.36 194.3 277.09 187.36 272.63 185.14C268.06 182.86 253.4 184.25 247.75 184.25C244.76 184.25 241.3 183.79 238.58 185.33C234.38 187.72 234.39 194.27 238.39 196.83C241.42 198.77 245.36 197.77 248.75 198.19C250.25 205.33 248.98 220.73 248.98 228.75C248.98 233.32 249.87 238.91 255.75 238.93C261.58 238.95 262.69 233.38 262.69 228.75C262.69 221.73 261.42 204.01 262.97 198.25ZM219.88 184.65C214.2 186.23 214.9 192.04 214.9 196.75C214.9 208.62 213.96 220.92 214.95 232.75C215.24 236.17 218.29 238.97 221.75 238.93C227.84 238.85 228.49 232.94 228.49 228.25C228.49 215.98 229.76 202.95 228.4 190.76C227.92 186.52 224.17 183.46 219.88 184.65ZM193.25 198.06C197.97 206.94 186.03 205.23 180.86 204.73C180.86 202.51 180.86 200.28 180.86 198.06C184.99 198.06 189.12 198.06 193.25 198.06ZM201.46 259.75C204.41 258.91 207.71 259.94 210.66 258.86C215.52 257.08 216.07 250.12 212.09 247.18C209.57 245.32 206.22 245.82 203.25 245.82C197.62 245.82 182.5 244.46 178.03 246.3C172.84 248.44 172.51 256.65 177.9 258.8C180.81 259.97 184.15 258.92 187.09 259.75C188.17 262.49 187.54 266.3 187.54 269.25C187.54 276.08 187.54 282.92 187.54 289.75C187.54 294.53 188.16 300.16 194.25 300.23C200.55 300.3 201.11 294.64 201.11 289.75C201.11 283.5 199.95 264.51 201.46 259.75ZM146.68 259.75C151.99 258.48 170.69 262.33 166.72 250.5C164.32 243.33 148.9 245.81 142.75 245.82C139.76 245.82 136.53 245.65 134.49 248.25C132.74 250.49 132.95 253.04 132.95 255.75C132.95 261.22 131.02 275.58 136 278.73C140.78 281.75 147.93 279.12 153.25 280.25C153.25 282.39 153.25 284.53 153.25 286.67C147.73 287.19 128.84 284.22 133.34 295.91C135.97 302.75 151.18 300.37 157.25 300.36C160.21 300.36 163.57 300.41 165.54 297.78C167.24 295.52 167.03 292.95 167.03 290.25C167.03 284.69 169.06 270.15 163.61 267.16C158.66 264.45 151.96 267.17 146.68 265.75C146.68 263.75 146.68 261.75 146.68 259.75ZM226.31 246.12C219.27 248.11 221.73 265.89 221.73 271.75C221.73 278.25 221.72 284.75 221.73 291.25C221.74 294.57 222.08 298.14 225.54 299.7C229.7 301.58 236.28 300.36 240.75 300.36C244.13 300.36 248.39 301.03 251.63 299.83C258.24 297.36 255.87 279.2 255.87 273.25C255.87 267.41 257.54 253.74 254.74 248.99C253.33 246.61 250.82 245.91 248.25 245.82C242.79 245.64 231.2 244.74 226.31 246.12ZM276.44 280.25C282.87 278.76 289.41 281.2 295.52 277.75C306.11 271.76 306.39 254.56 296.05 248.23C289.36 244.14 279.78 245.81 272.25 245.82C268.77 245.82 264.64 246.01 263.18 249.88C261.72 253.74 262.67 259.19 262.67 263.25C262.67 270.69 261.33 289.6 263.04 295.73C264.66 301.55 273.75 301.7 275.78 296.09C277.56 291.19 275.23 285.24 276.44 280.25ZM242.06 259.45C242.06 268.55 242.06 277.65 242.06 286.76C239.79 286.76 237.53 286.76 235.26 286.76C235.26 277.65 235.26 268.55 235.26 259.45C237.53 259.45 239.79 259.45 242.06 259.45ZM276.26 265.75C276.26 263.75 276.26 261.75 276.26 259.75C279.96 258.87 290.26 257.49 289.95 263.25C289.69 267.9 279.39 266.6 276.26 265.75Z" fill="#cceaff" fill-rule="evenodd" stroke="#cceaff" stroke-width="0.25" stroke-linejoin="round"/>
<path d="M143.75 129.82C191.08 129.82 238.42 129.82 285.75 129.82C291.74 138.99 296.96 148.87 302.33 158.42C314.03 179.27 326.09 199.97 338.2 220.58C342.65 228.14 347.07 235.73 351.38 243.37C352.68 245.69 356.52 250.01 356.38 252.71C356.26 255.08 353.36 258.39 352.17 260.4C348.47 266.71 344.91 273.11 341.2 279.41C328.01 301.8 315.15 324.4 302.22 346.94C298.27 353.82 294.21 360.65 290.31 367.55C289.23 369.47 287.56 374.28 285.51 375.24C283.21 376.31 278.77 375.45 276.25 375.45C269.08 375.45 261.92 375.45 254.75 375.45C229.25 375.45 203.75 375.45 178.25 375.45C170.25 375.45 162.25 375.45 154.25 375.45C151.49 375.45 146.58 376.4 144.09 375.17C141.84 374.05 139.99 368.63 138.75 366.47C134.14 358.43 129.49 350.41 124.84 342.39C113.44 322.76 102.12 303.09 90.8 283.41C84.93 273.21 78.52 263.21 73.12 252.75C96.66 211.77 120.21 170.8 143.75 129.82ZM150.9 136.72C145.16 137.58 140.53 149.23 137.75 154.03C127.05 172.5 116.41 191.01 105.73 209.5C100.05 219.33 94.38 229.14 88.71 238.98C86.55 242.73 82.13 247.83 81.98 252.25C81.87 255.52 84.16 258.3 85.72 261.01C89.07 266.82 92.43 272.62 95.8 278.42C108.17 299.73 120.41 321.13 132.76 342.46C136.12 348.27 139.46 354.09 142.82 359.91C144.28 362.45 145.68 366.34 148.46 367.76C153.39 370.28 165.48 368.75 171.25 368.75C189.58 368.75 207.92 368.75 226.25 368.75C239.08 368.75 251.92 368.75 264.75 368.75C269.67 368.75 276.94 370.1 281.39 367.64C283.78 366.31 284.95 363.21 286.24 360.96C289.59 355.15 292.98 349.36 296.3 343.54C308.5 322.12 320.99 300.87 333.27 279.5C336.91 273.15 340.55 266.8 344.25 260.48C345.69 258.02 348.18 254.95 347.76 251.91C347.12 247.25 339.86 237.04 337.23 232.55C328.12 216.95 319.25 201.22 310.15 185.62C303.45 174.13 296.89 162.57 290.21 151.07C287.92 147.14 285.29 139.34 280.97 137.3C277.64 135.73 272.83 136.54 269.25 136.54C260.92 136.54 252.58 136.54 244.25 136.54C223.58 136.54 202.92 136.54 182.25 136.54C172.36 136.54 160.56 135.26 150.9 136.72Z" fill="#ffffff" fill-rule="evenodd" stroke="#ffffff" stroke-width="0.25" stroke-linejoin="round"/>
<path d="M447 239.12C447.04 248.11 447.09 257.09 447.13 266.08C419.8 265.97 392.47 265.86 365.13 265.75C366.65 261.32 371.47 257.27 371.28 252.32C371.1 247.39 366.28 243.82 365.13 239.25C392.42 239.21 419.71 239.16 447 239.12Z" fill="#93ccff" fill-rule="evenodd" stroke="#93ccff" stroke-width="0.25" stroke-linejoin="round"/>
</svg>