<?xml version="1.0" encoding="UTF-8"?>
<svg version="1.1" xmlns="http://www.w3.org/2000/svg" width="1024" height="1024">
<path d="M0 0 C337.92 0 675.84 0 1024 0 C1024 337.92 1024 675.84 1024 1024 C686.08 1024 348.16 1024 0 1024 C0 686.08 0 348.16 0 0 Z " fill="#FEFEFE" transform="translate(0,0)"/>
<path d="M0 0 C17.49 0 34.98 0 53 0 C53 181.5 53 363 53 550 C35.51 550 18.02 550 0 550 C0 368.5 0 187 0 0 Z " fill="#010101" transform="translate(654,237)"/>
<path d="M0 0 C17.49 0 34.98 0 53 0 C53 181.5 53 363 53 550 C35.51 550 18.02 550 0 550 C0 368.5 0 187 0 0 Z " fill="#010101" transform="translate(317,237)"/>
<path d="M0 0 C17.82 0 35.64 0 54 0 C54 43.89 54 87.78 54 133 C76.11 133 98.22 133 121 133 C116.50772668 140.86147831 116.50772668 140.86147831 114.4765625 143.296875 C114.02039551 143.85286377 113.56422852 144.40885254 113.09423828 144.98168945 C112.60938965 145.56523193 112.12454102 146.14877441 111.625 146.75 C106.94860508 152.48275266 102.48341918 158.33478582 98.125 164.3125 C91.77538434 173.00913347 85.21058323 181.51908716 78.56933594 189.99414062 C72.0914812 198.27386286 65.74810103 206.65197909 59.45166016 215.07006836 C55.63054919 220.17362369 51.7640714 225.23942768 47.8515625 230.2734375 C45.50869707 233.30792372 43.2332892 236.38897968 40.9609375 239.4765625 C40.24647461 240.43796143 39.53201172 241.39936035 38.79589844 242.38989258 C37.3644166 244.31704835 35.94292276 246.25166912 34.53222656 248.1940918 C33.87448242 249.07492432 33.21673828 249.95575684 32.5390625 250.86328125 C31.95334473 251.66032471 31.36762695 252.45736816 30.76416016 253.27856445 C29 255 29 255 25 255 C23.45117188 253.6015625 23.45117188 253.6015625 21.96875 251.625 C21.41155273 250.89498779 20.85435547 250.16497559 20.28027344 249.4128418 C19.39903809 248.21848511 19.39903809 248.21848511 18.5 247 C17.88415039 246.18635986 17.26830078 245.37271973 16.63378906 244.53442383 C14.74367084 242.03183928 12.87091084 239.51696285 11 237 C9.9228886 235.56564454 8.84482301 234.13200492 7.765625 232.69921875 C5.76529724 230.04055122 3.77112482 227.37743587 1.78125 224.7109375 C-1.49634163 220.32659746 -4.83853717 215.99315892 -8.18359375 211.66015625 C-11.74640556 207.03859051 -15.2778324 202.3931014 -18.8125 197.75 C-23.70169307 191.32822857 -28.59487407 184.90961031 -33.5 178.5 C-35.09095177 176.41969684 -36.6817343 174.33926437 -38.27246094 172.25878906 C-39.49408542 170.6614926 -40.71613192 169.06451886 -41.93847656 167.46777344 C-48.8492628 158.43772358 -55.75596157 149.40566534 -62.5 140.25 C-62.96293457 139.62399902 -63.42586914 138.99799805 -63.90283203 138.35302734 C-67 134.12171918 -67 134.12171918 -67 133 C-44.89 133 -22.78 133 0 133 C0 89.11 0 45.22 0 0 Z " fill="#020202" transform="translate(485,255)"/>
</svg>
