<?xml version="1.0" encoding="UTF-8"?>
<svg version="1.1" xmlns="http://www.w3.org/2000/svg" width="2048" height="2048">
<path d="M0 0 C675.84 0 1351.68 0 2048 0 C2048 675.84 2048 1351.68 2048 2048 C1372.16 2048 696.32 2048 0 2048 C0 1372.16 0 696.32 0 0 Z " fill="#FDFEFD" transform="translate(0,0)"/>
<path d="M0 0 C1.40351534 -0.00734793 2.80702466 -0.01593626 4.21052551 -0.02566528 C8.00823586 -0.04781638 11.80572881 -0.05081513 15.60349488 -0.04891777 C18.78165778 -0.04879775 21.95977516 -0.05737497 25.13792533 -0.06569529 C32.64113499 -0.0849071 40.14423342 -0.08782164 47.64746094 -0.08105469 C55.36892986 -0.07441856 63.08992051 -0.09726577 70.81129247 -0.13436842 C77.45699801 -0.16513489 84.10255026 -0.17641786 90.74832553 -0.1725316 C94.71026605 -0.1704709 98.67183444 -0.17583724 102.63370705 -0.20042419 C106.36287183 -0.22280377 110.0912633 -0.22072195 113.82043266 -0.20049667 C115.82711384 -0.19549983 117.83381017 -0.21502501 119.84039307 -0.23550415 C128.64754899 -0.15427301 135.71901277 1.24694949 142.28689289 7.43900299 C149.03869842 14.65154377 150.60155772 20.76596414 150.54370117 30.44335938 C150.54657135 31.5035025 150.54944153 32.56364563 150.55239868 33.65591431 C150.55443556 35.89333634 150.54893208 38.13077633 150.53637695 40.36816406 C150.52035052 43.77645127 150.53622267 47.1835469 150.55541992 50.59179688 C150.5534368 52.77148697 150.5495917 54.95117633 150.54370117 57.13085938 C150.54977386 58.14256195 150.55584656 59.15426453 150.56210327 60.19662476 C150.4723905 69.31398338 148.39908025 75.87028251 142.11791992 82.65820312 C130.77054868 92.7921921 117.17794673 89.41992188 102.14526367 89.41992188 C102.14526367 111.19992187 102.14526367 132.97992188 102.14526367 155.41992188 C105.77526367 155.41992188 109.40526367 155.41992188 113.14526367 155.41992188 C118.30967925 155.76811083 123.44375164 156.37090212 128.58276367 156.98242188 C129.31191986 157.06817474 130.04107605 157.15392761 130.79232788 157.24227905 C163.91973695 161.19922486 197.32645244 168.21694252 228.98657227 178.72460938 C233.35261466 180.13090758 237.77210284 181.36794967 242.19116211 182.59619141 C246.71860591 183.88925506 251.03587262 185.52282341 255.39306641 187.30419922 C258.35902242 188.50657826 261.34269851 189.65386445 264.33276367 190.79492188 C280.59249314 197.04003306 296.44061848 203.87058279 312.14526367 211.41992188 C313.09594727 211.87334961 314.04663086 212.32677734 315.02612305 212.79394531 C329.86146388 219.90016701 344.05796123 227.93678727 358.14526367 236.41992188 C359.06227051 236.96938477 359.97927734 237.51884766 360.92407227 238.08496094 C378.34761927 248.55861309 395.01879979 260.04432076 411.14526367 272.41992188 C412.26744931 273.27306301 413.3898549 274.12591489 414.51245117 274.97851562 C420.19435668 279.30689919 425.79026897 283.68760097 431.14526367 288.41992188 C436.08040625 287.00084242 438.73480702 283.96400896 442.02026367 280.23242188 C448.63476839 272.922774 455.53425408 265.93363443 462.52026367 258.98242188 C463.30889801 258.1968541 463.30889801 258.1968541 464.11346436 257.39541626 C467.12071662 254.40020428 470.1313926 251.40847612 473.14526367 248.41992188 C471.42643774 244.70967229 469.35302717 242.57519442 466.33276367 239.79492188 C458.60513979 232.13439747 455.65035655 225.78582065 455.38354492 214.88867188 C457.39282727 205.73870919 463.9303271 199.01620309 470.45776367 192.66992188 C471.16610352 191.95449219 471.87444336 191.2390625 472.60424805 190.50195312 C479.41106687 183.77535973 486.41237149 177.3247072 496.27026367 177.10742188 C504.75411587 177.21008675 509.20066797 179.31082267 515.14526367 185.23242188 C515.72276367 185.85761719 516.30026367 186.4828125 516.89526367 187.12695312 C518.81461618 189.08295994 520.76643422 190.84665942 522.84196472 192.63037109 C526.78720745 196.06830753 530.540461 199.65466731 534.24804688 203.34570312 C535.23743507 204.32523453 535.23743507 204.32523453 536.24681091 205.32455444 C538.39941089 207.45765572 540.54816262 209.59457084 542.69604492 211.73242188 C543.43517813 212.46747955 544.17431133 213.20253723 544.93584251 213.95986938 C548.83908583 217.84236385 552.7391243 221.72804607 556.63671875 225.61621094 C560.65425854 229.62263819 564.68334923 233.61724096 568.71506977 237.60939026 C571.82468995 240.69286796 574.92539341 243.78519641 578.02376366 246.87997437 C579.50553457 248.35688263 580.99067505 249.83041846 582.47927284 251.30044556 C584.55888021 253.35568677 586.62547708 255.42321817 588.68945312 257.49414062 C589.30194916 258.0938266 589.91444519 258.69351257 590.54550171 259.31137085 C595.95649882 264.78890116 598.57309459 269.95777964 598.58276367 277.85742188 C598.60209961 278.90800781 598.62143555 279.95859375 598.64135742 281.04101562 C597.28743581 290.26260772 591.30858625 295.91634677 584.93847656 302.203125 C583.46217278 303.66555421 582.011492 305.1504184 580.5612793 306.63867188 C574.414159 312.83848009 568.87706482 317.40623533 560.14135742 318.95117188 C549.77311431 318.82453684 544.77514806 315.33003972 537.64526367 308.16992188 C535.79412831 306.26891964 533.96618735 304.35010097 532.14526367 302.41992188 C528.99964289 303.81674046 526.84540941 305.45892348 524.40234375 307.87231445 C523.32651787 308.92900078 523.32651787 308.92900078 522.22895813 310.0070343 C521.46528427 310.76848251 520.70161041 311.52993073 519.91479492 312.31445312 C519.12376877 313.09882248 518.33274261 313.88319183 517.51774597 314.69132996 C515.84838601 316.3505714 514.1817258 318.01253286 512.51757812 319.67700195 C509.96736831 322.22283373 507.40160589 324.75225039 504.8347168 327.28125 C503.21459718 328.89550242 501.59542408 330.51070547 499.97729492 332.12695312 C498.82267509 333.2600164 498.82267509 333.2600164 497.64472961 334.41596985 C496.58308846 335.4868409 496.58308846 335.4868409 495.5 336.5793457 C494.8747493 337.20174637 494.2494986 337.82414703 493.6053009 338.46540833 C491.86285753 340.79797157 491.41431906 342.53783985 491.14526367 345.41992188 C492.22807706 347.15650213 492.22807706 347.15650213 494.02026367 348.54492188 C498.42003996 352.59029575 502.03489285 357.0781154 505.77319336 361.73144531 C507.277851 363.5830845 508.80683238 365.41262128 510.34057617 367.24023438 C519.05760387 377.65265219 527.23814989 388.3810008 535.14526367 399.41992188 C535.56614258 400.00692871 535.98702148 400.59393555 536.4206543 401.19873047 C539.05796066 404.89747402 541.61951 408.64452054 544.14526367 412.41992188 C544.61222656 413.11569336 545.07918945 413.81146484 545.56030273 414.52832031 C599.15016641 494.72502123 634.17154365 587.94799307 644.14526367 690.41992188 C644.29753418 692.0511499 644.29753418 692.0511499 644.45288086 693.71533203 C647.31707802 725.28023034 647.45291797 757.51041145 644.45727539 789.06640625 C644.12522613 792.63528625 643.83889918 796.20624793 643.55541992 799.77929688 C640.54861741 835.91400184 634.02527693 872.47245731 622.90942383 907.01855469 C621.9882694 909.91327513 621.10503996 912.81880625 620.21948242 915.72460938 C598.48522178 986.41087615 562.88481178 1053.68902537 515.59838867 1110.66259766 C513.50910446 1113.18925555 511.45555099 1115.74460094 509.39526367 1118.29492188 C505.87858586 1122.59093672 502.22692085 1126.74056125 498.48120117 1130.83789062 C496.58012556 1132.93924678 494.71386292 1135.06176825 492.85620117 1137.20117188 C489.12992229 1141.46868403 485.2842125 1145.61320634 481.39526367 1149.73242188 C480.34918945 1150.84109619 480.34918945 1150.84109619 479.28198242 1151.97216797 C471.9091939 1159.76077904 464.52888652 1167.52031405 456.36010742 1174.48632812 C454.03224118 1176.5185923 451.77427675 1178.61319692 449.51660156 1180.72265625 C444.20018866 1185.68679995 438.8070491 1190.47197619 433.12963867 1195.02539062 C430.91498825 1196.80232873 428.72033987 1198.5948799 426.53588867 1200.40820312 C416.71548124 1208.53165205 406.57423703 1216.09710521 396.14526367 1223.41992188 C395.45932129 1223.90203125 394.77337891 1224.38414063 394.06665039 1224.88085938 C389.45817624 1228.10846304 384.81613415 1231.2833546 380.14526367 1234.41992188 C379.17484131 1235.07226807 379.17484131 1235.07226807 378.18481445 1235.73779297 C357.05496061 1249.86096427 334.83711499 1262.01354449 312.14526367 1273.41992188 C311.18861816 1273.90557617 310.23197266 1274.39123047 309.24633789 1274.89160156 C292.61223463 1283.29836851 275.4025727 1290.09610928 257.99987793 1296.71362305 C256.29149112 1297.3642336 254.58498535 1298.01977776 252.87866211 1298.67578125 C240.28155831 1303.50515592 227.61024652 1307.43523722 214.54614258 1310.796875 C211.31894177 1311.63435888 208.10887567 1312.53190225 204.89526367 1313.41992188 C186.52438287 1318.27031945 168.06580248 1322.20434663 149.27636719 1325.03442383 C146.96905988 1325.39959555 146.96905988 1325.39959555 144.14526367 1326.41992188 C141.50173696 1326.76795637 138.86645966 1327.07863899 136.21557617 1327.35742188 C135.42939911 1327.44241943 134.64322205 1327.52741699 133.83322144 1327.61499023 C132.16396883 1327.79472511 130.49453929 1327.97282301 128.82495117 1328.14941406 C126.3140884 1328.41528141 123.80387281 1328.68667779 121.29370117 1328.95898438 C119.66352871 1329.13379835 118.03332132 1329.30828698 116.40307617 1329.48242188 C115.67025421 1329.56161865 114.93743225 1329.64081543 114.18240356 1329.72241211 C111.83782892 1329.96897455 109.4923599 1330.19861049 107.14526367 1330.41992188 C106.18200165 1330.51103241 105.21873962 1330.60214294 104.22628784 1330.6960144 C95.62785021 1331.43773583 87.07596171 1331.56688521 78.44995117 1331.55273438 C76.96705103 1331.55341098 75.48415099 1331.55438395 74.00125122 1331.55563354 C70.91024711 1331.55709651 67.81927216 1331.55500339 64.72827148 1331.55029297 C60.82539702 1331.54462592 56.92259117 1331.54795852 53.01971912 1331.55373192 C16.71715125 1331.59940474 -18.23451871 1328.59273578 -53.85473633 1321.41992188 C-54.89065918 1321.2152832 -55.92658203 1321.01064453 -56.99389648 1320.79980469 C-123.28514809 1307.62231328 -188.87381835 1282.3804372 -245.81811523 1245.71923828 C-248.00929328 1244.32131817 -250.2170327 1242.9527331 -252.42895508 1241.58789062 C-263.6032048 1234.66859211 -274.30356572 1227.25277154 -284.85473633 1219.41992188 C-285.95498263 1218.60870481 -287.05524178 1217.79750518 -288.15551758 1216.98632812 C-303.0949204 1205.88565927 -317.57643754 1194.24892471 -331.33300781 1181.70629883 C-332.8716984 1180.31121341 -334.41823541 1178.92464129 -335.97827148 1177.5534668 C-343.28482069 1171.10759482 -350.16552132 1164.26148564 -357.04199219 1157.36303711 C-359.04550619 1155.35414323 -361.05433784 1153.35067798 -363.0637207 1151.34765625 C-369.20616092 1145.20873854 -375.26739126 1139.07581672 -380.85473633 1132.41992188 C-381.88743979 1131.23938632 -382.92261278 1130.06100662 -383.96020508 1128.88476562 C-396.72471827 1114.30728595 -408.52389646 1099.13569458 -419.85473633 1083.41992188 C-420.4404541 1082.60861816 -421.02617188 1081.79731445 -421.62963867 1080.96142578 C-430.61949917 1068.4560606 -438.95966418 1055.64206373 -446.85473633 1042.41992188 C-447.44367676 1041.43813965 -448.03261719 1040.45635742 -448.6394043 1039.44482422 C-468.18831282 1006.70391096 -483.84761752 972.52458816 -496.99755859 936.74975586 C-497.6023879 935.10581222 -498.21566565 933.46496492 -498.83496094 931.82641602 C-501.3508087 925.08958163 -503.40209 918.29355964 -505.29223633 911.35742188 C-505.90401844 909.13210727 -506.51599842 906.90684706 -507.12817383 904.68164062 C-507.42304688 903.60575684 -507.71791992 902.52987305 -508.02172852 901.42138672 C-508.7275378 898.87823919 -509.45603659 896.34473812 -510.20629883 893.81445312 C-517.24534062 869.90795735 -521.45617187 845.07952036 -524.85473633 820.41992188 C-524.953974 819.70825867 -525.05321167 818.99659546 -525.15545654 818.2633667 C-531.34386294 773.40023155 -531.42902113 725.94573849 -526.66723633 680.91992188 C-526.54195557 679.71182861 -526.4166748 678.50373535 -526.28759766 677.2590332 C-523.67699164 653.60763243 -519.5213188 630.14515301 -513.54418945 607.11328125 C-512.89330616 604.57059552 -512.28022244 602.02251708 -511.68286133 599.46679688 C-493.4991951 522.35646714 -456.31085517 447.89555125 -407.85473633 385.41992188 C-407.399375 384.82711426 -406.94401367 384.23430664 -406.47485352 383.62353516 C-399.96049555 375.14471276 -393.15492853 366.9535724 -386.1340332 358.89013672 C-385.07302087 357.67078247 -384.01780662 356.44638587 -382.96411133 355.22070312 C-373.56710146 344.3411553 -363.60540552 334.00455098 -353.42602539 323.86083984 C-351.58857873 322.02881192 -349.75661983 320.19141582 -347.92504883 318.35351562 C-342.06949891 312.49465785 -336.18074701 306.77508041 -329.85473633 301.41992188 C-328.2470526 299.9654667 -326.64233918 298.50771293 -325.04223633 297.04492188 C-319.79292656 292.31416095 -314.35849688 287.84995136 -308.85473633 283.41992188 C-307.72159936 282.4945378 -306.58880184 281.56873794 -305.45629883 280.64257812 C-290.27071014 268.28398435 -274.29728327 257.03906677 -257.85473633 246.41992188 C-257.07356445 245.91525391 -256.29239258 245.41058594 -255.48754883 244.890625 C-222.22586112 223.55039979 -186.78321556 205.48894625 -149.85473633 191.41992188 C-148.75162109 190.99904297 -147.64850586 190.57816406 -146.51196289 190.14453125 C-103.96813671 174.08420603 -59.80133868 162.97527612 -14.62133789 157.74462891 C-12.03818299 157.44145241 -9.45809701 157.12042306 -6.87817383 156.79101562 C-5.39120554 156.60473089 -3.9042271 156.41852709 -2.41723633 156.23242188 C-1.16040039 156.07386719 0.09643555 155.9153125 1.39135742 155.75195312 C5.62756162 155.37726285 9.89252117 155.41992188 14.14526367 155.41992188 C14.14526367 133.63992188 14.14526367 111.85992187 14.14526367 89.41992188 C4.90526367 89.41992188 -4.33473633 89.41992188 -13.85473633 89.41992188 C-23.83993356 84.42732326 -29.4514715 81.07316707 -33.20753479 70.79359436 C-34.40324842 66.40820223 -34.32255481 62.01002678 -34.32348633 57.49023438 C-34.33109985 56.45986053 -34.33871338 55.42948669 -34.34655762 54.3678894 C-34.3573164 52.19792085 -34.360229 50.02790069 -34.35571289 47.85791016 C-34.35474115 44.5612845 -34.39640191 41.26699318 -34.44067383 37.97070312 C-34.44588225 35.85221834 -34.448569 33.73372556 -34.44848633 31.61523438 C-34.46488159 30.64200226 -34.48127686 29.66877014 -34.49816895 28.66604614 C-34.41944627 20.76097704 -32.30719806 14.15634705 -26.86486816 8.26638794 C-18.5712482 0.41784584 -11.04387409 -0.02478898 0 0 Z " fill="#000000" transform="translate(965.854736328125,306.580078125)"/>
<path d="M0 0 C1.40351534 -0.00734793 2.80702466 -0.01593626 4.21052551 -0.02566528 C8.00823586 -0.04781638 11.80572881 -0.05081513 15.60349488 -0.04891777 C18.78165778 -0.04879775 21.95977516 -0.05737497 25.13792533 -0.06569529 C32.64113499 -0.0849071 40.14423342 -0.08782164 47.64746094 -0.08105469 C55.36892986 -0.07441856 63.08992051 -0.09726577 70.81129247 -0.13436842 C77.45699801 -0.16513489 84.10255026 -0.17641786 90.74832553 -0.1725316 C94.71026605 -0.1704709 98.67183444 -0.17583724 102.63370705 -0.20042419 C106.36287183 -0.22280377 110.0912633 -0.22072195 113.82043266 -0.20049667 C115.82711384 -0.19549983 117.83381017 -0.21502501 119.84039307 -0.23550415 C128.64754899 -0.15427301 135.71901277 1.24694949 142.28689289 7.43900299 C149.03869842 14.65154377 150.60155772 20.76596414 150.54370117 30.44335938 C150.54657135 31.5035025 150.54944153 32.56364563 150.55239868 33.65591431 C150.55443556 35.89333634 150.54893208 38.13077633 150.53637695 40.36816406 C150.52035052 43.77645127 150.53622267 47.1835469 150.55541992 50.59179688 C150.5534368 52.77148697 150.5495917 54.95117633 150.54370117 57.13085938 C150.54977386 58.14256195 150.55584656 59.15426453 150.56210327 60.19662476 C150.4723905 69.31398338 148.39908025 75.87028251 142.11791992 82.65820312 C130.77054868 92.7921921 117.17794673 89.41992188 102.14526367 89.41992188 C102.14526367 111.19992187 102.14526367 132.97992188 102.14526367 155.41992188 C105.77526367 155.41992188 109.40526367 155.41992188 113.14526367 155.41992188 C118.30967925 155.76811083 123.44375164 156.37090212 128.58276367 156.98242188 C129.31191986 157.06817474 130.04107605 157.15392761 130.79232788 157.24227905 C163.91973695 161.19922486 197.32645244 168.21694252 228.98657227 178.72460938 C233.35261466 180.13090758 237.77210284 181.36794967 242.19116211 182.59619141 C246.71860591 183.88925506 251.03587262 185.52282341 255.39306641 187.30419922 C258.35902242 188.50657826 261.34269851 189.65386445 264.33276367 190.79492188 C280.59249314 197.04003306 296.44061848 203.87058279 312.14526367 211.41992188 C313.09594727 211.87334961 314.04663086 212.32677734 315.02612305 212.79394531 C329.86146388 219.90016701 344.05796123 227.93678727 358.14526367 236.41992188 C359.06227051 236.96938477 359.97927734 237.51884766 360.92407227 238.08496094 C378.34761927 248.55861309 395.01879979 260.04432076 411.14526367 272.41992188 C412.26744931 273.27306301 413.3898549 274.12591489 414.51245117 274.97851562 C420.19435668 279.30689919 425.79026897 283.68760097 431.14526367 288.41992188 C436.08040625 287.00084242 438.73480702 283.96400896 442.02026367 280.23242188 C448.63476839 272.922774 455.53425408 265.93363443 462.52026367 258.98242188 C463.30889801 258.1968541 463.30889801 258.1968541 464.11346436 257.39541626 C467.12071662 254.40020428 470.1313926 251.40847612 473.14526367 248.41992188 C471.42643774 244.70967229 469.35302717 242.57519442 466.33276367 239.79492188 C458.60513979 232.13439747 455.65035655 225.78582065 455.38354492 214.88867188 C457.39282727 205.73870919 463.9303271 199.01620309 470.45776367 192.66992188 C471.16610352 191.95449219 471.87444336 191.2390625 472.60424805 190.50195312 C479.41106687 183.77535973 486.41237149 177.3247072 496.27026367 177.10742188 C504.75411587 177.21008675 509.20066797 179.31082267 515.14526367 185.23242188 C515.72276367 185.85761719 516.30026367 186.4828125 516.89526367 187.12695312 C518.81461618 189.08295994 520.76643422 190.84665942 522.84196472 192.63037109 C526.78720745 196.06830753 530.540461 199.65466731 534.24804688 203.34570312 C535.23743507 204.32523453 535.23743507 204.32523453 536.24681091 205.32455444 C538.39941089 207.45765572 540.54816262 209.59457084 542.69604492 211.73242188 C543.43517813 212.46747955 544.17431133 213.20253723 544.93584251 213.95986938 C548.83908583 217.84236385 552.7391243 221.72804607 556.63671875 225.61621094 C560.65425854 229.62263819 564.68334923 233.61724096 568.71506977 237.60939026 C571.82468995 240.69286796 574.92539341 243.78519641 578.02376366 246.87997437 C579.50553457 248.35688263 580.99067505 249.83041846 582.47927284 251.30044556 C584.55888021 253.35568677 586.62547708 255.42321817 588.68945312 257.49414062 C589.30194916 258.0938266 589.91444519 258.69351257 590.54550171 259.31137085 C595.95649882 264.78890116 598.57309459 269.95777964 598.58276367 277.85742188 C598.60209961 278.90800781 598.62143555 279.95859375 598.64135742 281.04101562 C597.28743581 290.26260772 591.30858625 295.91634677 584.93847656 302.203125 C583.46217278 303.66555421 582.011492 305.1504184 580.5612793 306.63867188 C574.414159 312.83848009 568.87706482 317.40623533 560.14135742 318.95117188 C549.77311431 318.82453684 544.77514806 315.33003972 537.64526367 308.16992188 C535.79412831 306.26891964 533.96618735 304.35010097 532.14526367 302.41992188 C528.99964289 303.81674046 526.84540941 305.45892348 524.40234375 307.87231445 C523.32651787 308.92900078 523.32651787 308.92900078 522.22895813 310.0070343 C521.46528427 310.76848251 520.70161041 311.52993073 519.91479492 312.31445312 C519.12376877 313.09882248 518.33274261 313.88319183 517.51774597 314.69132996 C515.84838601 316.3505714 514.1817258 318.01253286 512.51757812 319.67700195 C509.96736831 322.22283373 507.40160589 324.75225039 504.8347168 327.28125 C503.21459718 328.89550242 501.59542408 330.51070547 499.97729492 332.12695312 C498.82267509 333.2600164 498.82267509 333.2600164 497.64472961 334.41596985 C496.58308846 335.4868409 496.58308846 335.4868409 495.5 336.5793457 C494.8747493 337.20174637 494.2494986 337.82414703 493.6053009 338.46540833 C491.86285753 340.79797157 491.41431906 342.53783985 491.14526367 345.41992188 C492.22807706 347.15650213 492.22807706 347.15650213 494.02026367 348.54492188 C498.42003996 352.59029575 502.03489285 357.0781154 505.77319336 361.73144531 C507.277851 363.5830845 508.80683238 365.41262128 510.34057617 367.24023438 C519.05760387 377.65265219 527.23814989 388.3810008 535.14526367 399.41992188 C535.56614258 400.00692871 535.98702148 400.59393555 536.4206543 401.19873047 C539.05796066 404.89747402 541.61951 408.64452054 544.14526367 412.41992188 C544.61222656 413.11569336 545.07918945 413.81146484 545.56030273 414.52832031 C599.15016641 494.72502123 634.17154365 587.94799307 644.14526367 690.41992188 C644.29753418 692.0511499 644.29753418 692.0511499 644.45288086 693.71533203 C647.31707802 725.28023034 647.45291797 757.51041145 644.45727539 789.06640625 C644.12522613 792.63528625 643.83889918 796.20624793 643.55541992 799.77929688 C640.54861741 835.91400184 634.02527693 872.47245731 622.90942383 907.01855469 C621.9882694 909.91327513 621.10503996 912.81880625 620.21948242 915.72460938 C598.48522178 986.41087615 562.88481178 1053.68902537 515.59838867 1110.66259766 C513.50910446 1113.18925555 511.45555099 1115.74460094 509.39526367 1118.29492188 C505.87858586 1122.59093672 502.22692085 1126.74056125 498.48120117 1130.83789062 C496.58012556 1132.93924678 494.71386292 1135.06176825 492.85620117 1137.20117188 C489.12992229 1141.46868403 485.2842125 1145.61320634 481.39526367 1149.73242188 C480.34918945 1150.84109619 480.34918945 1150.84109619 479.28198242 1151.97216797 C471.9091939 1159.76077904 464.52888652 1167.52031405 456.36010742 1174.48632812 C454.03224118 1176.5185923 451.77427675 1178.61319692 449.51660156 1180.72265625 C444.20018866 1185.68679995 438.8070491 1190.47197619 433.12963867 1195.02539062 C430.91498825 1196.80232873 428.72033987 1198.5948799 426.53588867 1200.40820312 C416.71548124 1208.53165205 406.57423703 1216.09710521 396.14526367 1223.41992188 C395.45932129 1223.90203125 394.77337891 1224.38414063 394.06665039 1224.88085938 C389.45817624 1228.10846304 384.81613415 1231.2833546 380.14526367 1234.41992188 C379.17484131 1235.07226807 379.17484131 1235.07226807 378.18481445 1235.73779297 C357.05496061 1249.86096427 334.83711499 1262.01354449 312.14526367 1273.41992188 C311.18861816 1273.90557617 310.23197266 1274.39123047 309.24633789 1274.89160156 C292.61223463 1283.29836851 275.4025727 1290.09610928 257.99987793 1296.71362305 C256.29149112 1297.3642336 254.58498535 1298.01977776 252.87866211 1298.67578125 C240.28155831 1303.50515592 227.61024652 1307.43523722 214.54614258 1310.796875 C211.31894177 1311.63435888 208.10887567 1312.53190225 204.89526367 1313.41992188 C186.52438287 1318.27031945 168.06580248 1322.20434663 149.27636719 1325.03442383 C146.96905988 1325.39959555 146.96905988 1325.39959555 144.14526367 1326.41992188 C141.50173696 1326.76795637 138.86645966 1327.07863899 136.21557617 1327.35742188 C135.42939911 1327.44241943 134.64322205 1327.52741699 133.83322144 1327.61499023 C132.16396883 1327.79472511 130.49453929 1327.97282301 128.82495117 1328.14941406 C126.3140884 1328.41528141 123.80387281 1328.68667779 121.29370117 1328.95898438 C119.66352871 1329.13379835 118.03332132 1329.30828698 116.40307617 1329.48242188 C115.67025421 1329.56161865 114.93743225 1329.64081543 114.18240356 1329.72241211 C111.83782892 1329.96897455 109.4923599 1330.19861049 107.14526367 1330.41992188 C106.18200165 1330.51103241 105.21873962 1330.60214294 104.22628784 1330.6960144 C95.62785021 1331.43773583 87.07596171 1331.56688521 78.44995117 1331.55273438 C76.96705103 1331.55341098 75.48415099 1331.55438395 74.00125122 1331.55563354 C70.91024711 1331.55709651 67.81927216 1331.55500339 64.72827148 1331.55029297 C60.82539702 1331.54462592 56.92259117 1331.54795852 53.01971912 1331.55373192 C16.71715125 1331.59940474 -18.23451871 1328.59273578 -53.85473633 1321.41992188 C-54.89065918 1321.2152832 -55.92658203 1321.01064453 -56.99389648 1320.79980469 C-123.28514809 1307.62231328 -188.87381835 1282.3804372 -245.81811523 1245.71923828 C-248.00929328 1244.32131817 -250.2170327 1242.9527331 -252.42895508 1241.58789062 C-263.6032048 1234.66859211 -274.30356572 1227.25277154 -284.85473633 1219.41992188 C-285.95498263 1218.60870481 -287.05524178 1217.79750518 -288.15551758 1216.98632812 C-303.0949204 1205.88565927 -317.57643754 1194.24892471 -331.33300781 1181.70629883 C-332.8716984 1180.31121341 -334.41823541 1178.92464129 -335.97827148 1177.5534668 C-343.28482069 1171.10759482 -350.16552132 1164.26148564 -357.04199219 1157.36303711 C-359.04550619 1155.35414323 -361.05433784 1153.35067798 -363.0637207 1151.34765625 C-369.20616092 1145.20873854 -375.26739126 1139.07581672 -380.85473633 1132.41992188 C-381.88743979 1131.23938632 -382.92261278 1130.06100662 -383.96020508 1128.88476562 C-396.72471827 1114.30728595 -408.52389646 1099.13569458 -419.85473633 1083.41992188 C-420.4404541 1082.60861816 -421.02617188 1081.79731445 -421.62963867 1080.96142578 C-430.61949917 1068.4560606 -438.95966418 1055.64206373 -446.85473633 1042.41992188 C-447.44367676 1041.43813965 -448.03261719 1040.45635742 -448.6394043 1039.44482422 C-468.18831282 1006.70391096 -483.84761752 972.52458816 -496.99755859 936.74975586 C-497.6023879 935.10581222 -498.21566565 933.46496492 -498.83496094 931.82641602 C-501.3508087 925.08958163 -503.40209 918.29355964 -505.29223633 911.35742188 C-505.90401844 909.13210727 -506.51599842 906.90684706 -507.12817383 904.68164062 C-507.42304688 903.60575684 -507.71791992 902.52987305 -508.02172852 901.42138672 C-508.7275378 898.87823919 -509.45603659 896.34473812 -510.20629883 893.81445312 C-517.24534062 869.90795735 -521.45617187 845.07952036 -524.85473633 820.41992188 C-524.953974 819.70825867 -525.05321167 818.99659546 -525.15545654 818.2633667 C-531.34386294 773.40023155 -531.42902113 725.94573849 -526.66723633 680.91992188 C-526.54195557 679.71182861 -526.4166748 678.50373535 -526.28759766 677.2590332 C-523.67699164 653.60763243 -519.5213188 630.14515301 -513.54418945 607.11328125 C-512.89330616 604.57059552 -512.28022244 602.02251708 -511.68286133 599.46679688 C-493.4991951 522.35646714 -456.31085517 447.89555125 -407.85473633 385.41992188 C-407.399375 384.82711426 -406.94401367 384.23430664 -406.47485352 383.62353516 C-399.96049555 375.14471276 -393.15492853 366.9535724 -386.1340332 358.89013672 C-385.07302087 357.67078247 -384.01780662 356.44638587 -382.96411133 355.22070312 C-373.56710146 344.3411553 -363.60540552 334.00455098 -353.42602539 323.86083984 C-351.58857873 322.02881192 -349.75661983 320.19141582 -347.92504883 318.35351562 C-342.06949891 312.49465785 -336.18074701 306.77508041 -329.85473633 301.41992188 C-328.2470526 299.9654667 -326.64233918 298.50771293 -325.04223633 297.04492188 C-319.79292656 292.31416095 -314.35849688 287.84995136 -308.85473633 283.41992188 C-307.72159936 282.4945378 -306.58880184 281.56873794 -305.45629883 280.64257812 C-290.27071014 268.28398435 -274.29728327 257.03906677 -257.85473633 246.41992188 C-257.07356445 245.91525391 -256.29239258 245.41058594 -255.48754883 244.890625 C-222.22586112 223.55039979 -186.78321556 205.48894625 -149.85473633 191.41992188 C-148.75162109 190.99904297 -147.64850586 190.57816406 -146.51196289 190.14453125 C-103.96813671 174.08420603 -59.80133868 162.97527612 -14.62133789 157.74462891 C-12.03818299 157.44145241 -9.45809701 157.12042306 -6.87817383 156.79101562 C-5.39120554 156.60473089 -3.9042271 156.41852709 -2.41723633 156.23242188 C-1.16040039 156.07386719 0.09643555 155.9153125 1.39135742 155.75195312 C5.62756162 155.37726285 9.89252117 155.41992188 14.14526367 155.41992188 C14.14526367 133.63992188 14.14526367 111.85992187 14.14526367 89.41992188 C4.90526367 89.41992188 -4.33473633 89.41992188 -13.85473633 89.41992188 C-23.83993356 84.42732326 -29.4514715 81.07316707 -33.20753479 70.79359436 C-34.40324842 66.40820223 -34.32255481 62.01002678 -34.32348633 57.49023438 C-34.33109985 56.45986053 -34.33871338 55.42948669 -34.34655762 54.3678894 C-34.3573164 52.19792085 -34.360229 50.02790069 -34.35571289 47.85791016 C-34.35474115 44.5612845 -34.39640191 41.26699318 -34.44067383 37.97070312 C-34.44588225 35.85221834 -34.448569 33.73372556 -34.44848633 31.61523438 C-34.46488159 30.64200226 -34.48127686 29.66877014 -34.49816895 28.66604614 C-34.41944627 20.76097704 -32.30719806 14.15634705 -26.86486816 8.26638794 C-18.5712482 0.41784584 -11.04387409 -0.02478898 0 0 Z M26.14526367 264.41992188 C23.75016446 264.52220369 21.354101 264.60262253 18.95776367 264.66992188 C-34.72008753 267.18696702 -89.3460061 283.06923044 -137.85473633 305.41992188 C-138.85037598 305.87592773 -139.84601563 306.33193359 -140.87182617 306.80175781 C-183.77275888 326.56670926 -223.43299882 352.31535696 -258.34301758 384.15429688 C-259.69728342 385.37587415 -261.0575478 386.59156501 -262.44970703 387.76977539 C-268.82572751 393.20020318 -274.70187969 399.11581109 -280.609375 405.04418945 C-282.41335718 406.8535312 -284.22262298 408.65746507 -286.0324707 410.4609375 C-291.84942584 416.27418958 -297.59086265 422.0920026 -302.85473633 428.41992188 C-303.59079102 429.29777344 -304.3268457 430.175625 -305.08520508 431.08007812 C-307.34662802 433.85607634 -309.60217543 436.63672651 -311.85473633 439.41992188 C-312.78309616 440.55535946 -313.71148261 441.69077528 -314.63989258 442.82617188 C-356.92601919 494.79684424 -386.26867815 555.26174208 -404.85473633 619.41992188 C-405.13800781 620.3933252 -405.4212793 621.36672852 -405.71313477 622.36962891 C-429.00371089 704.11696006 -428.43056191 801.78305375 -400.03051758 882.00585938 C-399.12381034 884.6386239 -398.3211192 887.24663731 -397.55395508 889.91992188 C-395.51998154 896.76152765 -392.93840264 903.39679412 -390.35473633 910.04492188 C-389.95940704 911.06386536 -389.95940704 911.06386536 -389.55609131 912.10339355 C-364.07612443 977.55992334 -325.16162624 1034.91359813 -275.81265259 1084.63723755 C-274.81646087 1085.64146742 -273.82175425 1086.6471732 -272.82870483 1087.6545105 C-266.92812544 1093.63097112 -260.86375729 1099.24162529 -254.2800293 1104.46826172 C-251.9570539 1106.33758579 -249.74238754 1108.28345589 -247.54223633 1110.29492188 C-194.55166293 1157.76174292 -126.90785469 1189.73299292 -58.85473633 1208.41992188 C-57.3791626 1208.82936035 -57.3791626 1208.82936035 -55.8737793 1209.24707031 C-42.23070493 1212.96644594 -28.43364362 1215.46923848 -14.47973633 1217.66992188 C-13.70408325 1217.79498108 -12.92843018 1217.92004028 -12.12927246 1218.04888916 C11.55777743 1221.82694915 35.37618801 1222.81297469 59.33276367 1222.73242188 C60.52926544 1222.72993439 61.72576721 1222.7274469 62.95852661 1222.72488403 C156.70269204 1222.42487902 248.26403315 1192.72211011 374.14526367 1101.41992188 C375.44862671 1100.24792236 375.44862671 1100.24792236 376.77832031 1099.05224609 C384.06868038 1092.43668527 391.13144873 1085.62001974 398.09179688 1078.65869141 C399.83665175 1076.9160387 401.5894011 1075.18159025 403.3425293 1073.44726562 C410.07923653 1066.74378477 416.23183065 1059.86781963 422.14526367 1052.41992188 C423.61098499 1050.69458371 425.09909139 1048.99179232 426.59228516 1047.2902832 C451.30308148 1019.09797293 471.73338167 986.26214815 488.08422852 952.59082031 C489.18902768 950.33037986 490.31711068 948.08245681 491.44604492 945.83398438 C499.07159482 930.44753798 505.17842137 914.50552091 511.14526367 898.41992188 C511.59361572 897.21440674 512.04196777 896.0088916 512.50390625 894.7668457 C515.12956721 887.5793014 517.36575784 880.40754155 519.20776367 872.98242188 C519.71756288 870.9679426 520.22797849 868.95361921 520.73901367 866.93945312 C520.98006836 865.98377441 521.22112305 865.0280957 521.46948242 864.04345703 C522.02921534 861.87044768 522.61628915 859.7121805 523.23901367 857.55664062 C526.53359856 846.03887813 528.48458629 834.27093598 530.58203125 822.48779297 C531.08209559 819.76399216 531.62809671 817.05595957 532.19604492 814.34570312 C533.33107502 808.73908491 534.03451934 803.09797197 534.70776367 797.41992188 C534.83344727 796.42347656 534.95913086 795.42703125 535.08862305 794.40039062 C537.14843995 777.25322375 537.38391232 760.0464717 537.39526367 742.79492188 C537.39677429 741.18651932 537.39677429 741.18651932 537.39831543 739.54562378 C537.38120645 712.45330276 534.7264956 686.13321199 530.14526367 659.41992188 C529.93546875 658.13093994 529.93546875 658.13093994 529.72143555 656.81591797 C522.75612286 614.12393503 508.3813388 570.91504198 488.29858398 532.64111328 C486.94898383 530.04190453 485.63766661 527.42466733 484.32495117 524.80664062 C463.81253585 484.21646327 436.8775539 444.20892677 404.09838867 412.37304688 C402.28874753 410.56340573 400.65589215 408.69848035 399.02026367 406.73242188 C393.8439327 400.70139439 387.82887977 395.45965361 381.97729492 390.09912109 C380.35109339 388.60858083 378.73133213 387.11148908 377.11401367 385.61132812 C370.98299637 379.96480214 364.6716167 374.60238909 358.14526367 369.41992188 C357.51265625 368.91477051 356.88004883 368.40961914 356.22827148 367.88916016 C315.15996917 335.17946525 269.33011271 309.70941946 220.14526367 291.41992188 C219.0424707 291.00967773 217.93967773 290.59943359 216.8034668 290.17675781 C188.82034043 279.88171042 160.4014355 273.81445451 131.10604858 268.75891113 C129.34483063 268.4544239 127.58446666 268.14500681 125.82421875 267.83496094 C102.9389058 263.88175232 80.19990825 263.13742092 57.02026367 263.16992188 C55.83385284 263.17078796 54.64744202 263.17165405 53.42507935 263.17254639 C50.0166012 263.17897453 46.60836402 263.19513461 43.19995117 263.21679688 C41.65963982 263.22336807 41.65963982 263.22336807 40.08821106 263.23007202 C35.32236549 263.2771944 30.83756339 263.49430756 26.14526367 264.41992188 Z " fill="#010101" transform="translate(965.854736328125,306.580078125)"/>
<path d="M0 0 C9.02125097 5.60705445 16.58238347 13.6078616 19.56884766 23.97460938 C21.39637895 32.45374731 21.70158603 41.05135252 22.125 49.6875 C22.16735779 50.50149261 22.20971558 51.31548523 22.25335693 52.15414429 C22.94346992 65.44249366 23.25081261 78.69299778 23 92 C24.1446875 92.12375 25.289375 92.2475 26.46875 92.375 C73.73310049 98.02860714 122.23901916 116.31358512 161 144 C162.1584005 144.81054458 163.31728187 145.62040222 164.4765625 146.4296875 C171.52361603 151.37624978 178.37090125 156.50097592 185 162 C186.40958984 163.13115234 186.40958984 163.13115234 187.84765625 164.28515625 C196.31833916 171.2085013 204.06717016 178.85147854 211.8125 186.5625 C212.34811554 187.09293915 212.88373108 187.6233783 213.43557739 188.16989136 C220.42631925 195.10736379 226.9260142 202.22842993 233 210 C233.62430908 210.79059814 234.24861816 211.58119629 234.8918457 212.39575195 C244.53003358 224.71532813 253.12282771 237.49166705 261 251 C261.5062793 251.86286621 262.01255859 252.72573242 262.53417969 253.61474609 C274.49759862 274.19536113 284.21485645 296.16934898 291 319 C291.21172852 319.68545898 291.42345703 320.37091797 291.64160156 321.07714844 C295.87099934 334.81152765 298.65337201 348.83308936 301 363 C301.25209229 364.50723633 301.25209229 364.50723633 301.50927734 366.04492188 C304.04212269 382.01365877 304.28403477 397.93151899 304.3125 414.0625 C304.31801376 415.56518936 304.31801376 415.56518936 304.32363892 417.09823608 C304.36008123 436.11936927 302.45140326 454.23628161 298.75 472.875 C298.51840683 474.05071564 298.51840683 474.05071564 298.28213501 475.25018311 C295.87309508 487.40915801 293.1861808 499.31196445 289 511 C288.65630371 511.96953613 288.31260742 512.93907227 287.95849609 513.93798828 C275.27804647 549.26092825 257.80374217 583.5582326 233.33105469 612.26147461 C231.74410354 614.12582642 230.17159095 616.0025435 228.61206055 617.88989258 C222.44210123 625.34030286 215.95986888 632.35568811 209.09326172 639.16748047 C207.49337171 640.7565836 205.90455586 642.35620375 204.31640625 643.95703125 C197.86814034 650.41392597 191.18397153 656.35545094 184 662 C182.93970654 662.85758154 181.87972832 663.71555325 180.8203125 664.57421875 C136.48524898 699.3354787 83.6920474 722.04026296 28.04019165 730.68197632 C26.23706851 730.96304592 24.43564845 731.25499441 22.63452148 731.54858398 C10.96201195 733.24296745 -0.64256082 733.33820626 -12.42285156 733.31567383 C-15.83431716 733.3125374 -19.24489234 733.33596945 -22.65625 733.36132812 C-43.06499485 733.42089986 -63.33534847 731.67492557 -83.3125 727.375 C-84.50141846 727.12194092 -85.69033691 726.86888184 -86.9152832 726.6081543 C-139.85285008 714.88867325 -189.63825211 689.21252542 -230 653 C-230.75240967 652.33218506 -230.75240967 652.33218506 -231.52001953 651.65087891 C-242.94327162 641.49813001 -254.32652207 630.895306 -263.75097656 618.83105469 C-266.00413895 615.99478992 -268.34074223 613.24848225 -270.6953125 610.49609375 C-275.97042865 604.2294945 -280.57030756 597.59367877 -285.0625 590.75 C-285.4518573 590.16117035 -285.8412146 589.5723407 -286.24237061 588.96566772 C-292.25373042 579.86925997 -297.9932546 570.69257903 -303 561 C-303.49669189 560.04988037 -303.49669189 560.04988037 -304.00341797 559.08056641 C-318.98551694 530.29521745 -329.47940944 500.87730979 -335.1875 468.9375 C-335.3777475 467.88048889 -335.3777475 467.88048889 -335.57183838 466.80212402 C-338.804075 448.68535071 -340.3835137 430.97340116 -340.3125 412.5625 C-340.31026428 411.1225769 -340.31026428 411.1225769 -340.3079834 409.65356445 C-340.24714997 387.78077021 -338.30944725 366.57197026 -333.48974609 345.20117188 C-333.03431828 343.1542441 -332.61557613 341.10358002 -332.20703125 339.046875 C-327.71298485 317.3193032 -319.7206045 295.8875633 -310 276 C-309.3484778 274.63173913 -308.69742314 273.26325551 -308.046875 271.89453125 C-287.91516241 230.10613141 -257.18785714 189.10643298 -220 161 C-219.07316406 160.25621094 -218.14632812 159.51242187 -217.19140625 158.74609375 C-172.58359454 123.34397057 -116.12267564 97.03670373 -59 92 C-59.02320313 90.91847656 -59.04640625 89.83695313 -59.0703125 88.72265625 C-59.22018164 78.22252209 -58.71232851 67.89384377 -57.77734375 57.43530273 C-57.24399025 51.39479655 -56.87722796 45.38998262 -56.70629883 39.32861328 C-56.28787667 25.41387769 -53.60884259 15.16259589 -43.19140625 5.28515625 C-30.34230085 -5.21317727 -14.97229443 -7.12966401 0 0 Z " fill="#FCFCFC" transform="translate(1042,639)"/>
<path d="M0 0 C2.75236933 0.0134664 5.50457807 0.00814594 8.25696564 0.00314617 C30.97675149 -0.02819946 53.31959501 1.42072309 75.80834961 4.6350708 C76.56740601 4.74173065 77.3264624 4.8483905 78.10852051 4.95828247 C91.47242445 6.84501064 104.6619647 9.25088543 117.80834961 12.3225708 C118.48462402 12.47516357 119.16089844 12.62775635 119.85766602 12.78497314 C124.54136855 13.84407736 129.17775221 15.05478662 133.80834961 16.3225708 C134.86812012 16.6108374 135.92789063 16.899104 137.01977539 17.19610596 C200.32233184 34.57580011 259.66735286 63.3001609 311.80834961 103.3225708 C312.38262695 103.76085205 312.9569043 104.1991333 313.54858398 104.6506958 C336.23944487 122.02455628 359.12473432 141.29284752 377.76928711 163.0022583 C379.84358301 165.36266399 381.97244083 167.66144521 384.11743164 169.95733643 C389.95397617 176.210647 395.50223297 182.60767597 400.80834961 189.3225708 C401.31060059 189.95227783 401.81285156 190.58198486 402.33032227 191.23077393 C421.98455453 215.90446616 439.19484518 242.10363552 454.38891602 269.74200439 C455.63675451 272.01060653 456.89871713 274.27061011 458.16381836 276.52960205 C473.00727801 303.403971 484.85154105 332.98902278 493.80834961 362.3225708 C494.02233398 363.01431396 494.23631836 363.70605713 494.45678711 364.41876221 C501.5151794 387.4328882 507.68295007 411.4326704 510.80834961 435.3225708 C510.93016602 436.2207251 511.05198242 437.11887939 511.17749023 438.04425049 C512.17130821 445.45872004 513.01841903 452.88386921 513.80834961 460.3225708 C513.91566406 461.27986084 514.02297852 462.23715088 514.13354492 463.22344971 C515.97951454 480.25032185 515.99188991 497.27859223 515.99584961 514.3850708 C515.99684662 515.53028198 515.99784363 516.67549316 515.99887085 517.85540771 C515.99700847 536.77109448 515.42068195 555.36511559 512.99584961 574.1350708 C512.90776031 574.82389343 512.81967102 575.51271606 512.72891235 576.22241211 C511.21225724 588.02351895 509.36774749 599.6994553 506.80834961 611.3225708 C506.42308105 613.07513184 506.42308105 613.07513184 506.0300293 614.86309814 C503.12468795 627.94045461 500.21547695 640.99892317 495.99194336 653.72491455 C494.41578952 658.51579802 493.03754846 663.3586472 491.68286133 668.21636963 C490.36609496 672.80801007 488.71287406 677.18797707 486.90429688 681.60772705 C485.7461384 684.47667831 484.65603616 687.3655069 483.57397461 690.26397705 C476.65504386 708.58239186 468.48339096 726.10464489 459.68200684 743.58630371 C458.89400658 745.15233998 458.11019842 746.72048394 457.3269043 748.28887939 C440.88895091 781.07271399 419.20676077 811.18231295 395.80834961 839.3225708 C395.31898926 839.91247803 394.82962891 840.50238525 394.32543945 841.11016846 C380.1029869 858.18192454 364.76752295 875.24623891 347.78491211 889.6272583 C345.29974767 891.7588025 342.90394815 893.9794068 340.49584961 896.1975708 C335.09137542 901.11475633 329.52909686 905.77982159 323.80834961 910.3225708 C323.17574219 910.82772217 322.54313477 911.33287354 321.89135742 911.85333252 C265.01933107 957.1502288 198.84749333 990.8812288 128.27807617 1008.6975708 C126.65116369 1009.10928452 125.0254663 1009.52583462 123.40112305 1009.9475708 C86.76234102 1019.43717845 48.92203061 1024.11346546 11.11819077 1023.77795792 C8.8893078 1023.75971023 6.66048662 1023.74863251 4.43154907 1023.7394104 C-16.88493202 1023.64459649 -38.04792114 1023.28407975 -59.19165039 1020.3225708 C-60.46363281 1020.15096436 -61.73561523 1019.97935791 -63.04614258 1019.80255127 C-108.69236409 1013.48881556 -153.01310918 1000.8760033 -195.19165039 982.3225708 C-196.23289062 981.86511475 -197.27413086 981.40765869 -198.34692383 980.93634033 C-242.71229476 961.28958972 -284.62538581 935.58332126 -321.34790039 903.76397705 C-324.1219726 901.38239034 -326.95683813 899.09997748 -329.81665039 896.8225708 C-334.75096337 892.8147882 -339.18561501 888.42724136 -343.62524414 883.8928833 C-346.42528084 881.08858475 -349.3534374 878.50564141 -352.35961914 875.92803955 C-357.33348597 871.56927778 -361.74367275 866.75028806 -366.05102539 861.7444458 C-368.27624967 859.22685629 -370.56132949 856.77599709 -372.86132812 854.32696533 C-378.92492612 847.86665091 -384.67370437 841.25995439 -390.19165039 834.3225708 C-391.11106916 833.19402538 -392.03171075 832.06647542 -392.95336914 830.9397583 C-418.06578674 800.11278923 -438.95183016 765.97946937 -456.26928711 730.22052002 C-457.19151413 728.32285119 -458.13068186 726.43420535 -459.07055664 724.54522705 C-465.63631021 711.1632461 -470.88494383 697.23970801 -476.19165039 683.3225708 C-476.76496094 681.83370361 -476.76496094 681.83370361 -477.34985352 680.3147583 C-489.34249554 649.05988724 -496.59568441 616.49531031 -501.50415039 583.4475708 C-501.6273465 582.6323999 -501.7505426 581.817229 -501.87747192 580.97735596 C-505.34093953 557.81228972 -506.60670313 534.6053253 -506.56665039 511.1975708 C-506.5664389 510.03846191 -506.56622742 508.87935303 -506.56600952 507.68511963 C-506.5269761 486.03507443 -505.17773746 464.7615487 -502.19165039 443.3225708 C-502.09499084 442.62555054 -501.9983313 441.92853027 -501.89874268 441.21038818 C-488.81758104 348.00745494 -448.44162047 258.51518528 -388.19165039 186.3225708 C-387.7148584 185.74668213 -387.23806641 185.17079346 -386.74682617 184.57745361 C-380.34099572 176.84202657 -373.67703571 169.38880656 -366.8112793 162.05987549 C-365.08797501 160.21136278 -363.37926319 158.35007505 -361.67211914 156.4866333 C-355.92191147 150.23020144 -350.16360317 144.14702888 -343.74633789 138.56085205 C-341.25993603 136.38239905 -338.84213556 134.14650828 -336.42895508 131.88800049 C-331.16271968 126.9656825 -325.80703236 122.23246098 -320.17993164 117.7210083 C-317.9511043 115.93211943 -315.74395418 114.12650839 -313.54711914 112.2991333 C-304.09097347 104.46319951 -294.3306972 97.2474708 -284.19165039 90.3225708 C-283.49910156 89.84497314 -282.80655273 89.36737549 -282.09301758 88.87530518 C-244.64088614 63.09316718 -204.09193944 42.34823854 -161.19165039 27.3225708 C-160.35730469 27.02656982 -159.52295898 26.73056885 -158.66333008 26.42559814 C-131.13975346 16.69794292 -102.55586582 9.78291214 -73.65898132 5.68312073 C-70.84037539 5.27123915 -68.02773078 4.82598846 -65.21386719 4.38287354 C-43.47129335 1.04472913 -21.9639387 -0.14554732 0 0 Z M-27.19165039 33.3225708 C-29.5867496 33.42485262 -31.98281306 33.50527146 -34.37915039 33.5725708 C-88.05700159 36.08961595 -142.68292017 51.97187937 -191.19165039 74.3225708 C-192.18729004 74.77857666 -193.18292969 75.23458252 -194.20874023 75.70440674 C-237.10967294 95.46935819 -276.76991288 121.21800589 -311.67993164 153.0569458 C-313.03419748 154.27852308 -314.39446186 155.49421394 -315.78662109 156.67242432 C-322.16264157 162.1028521 -328.03879375 168.01846001 -333.94628906 173.94683838 C-335.75027124 175.75618013 -337.55953704 177.56011399 -339.36938477 179.36358643 C-345.1863399 185.1768385 -350.92777671 190.99465152 -356.19165039 197.3225708 C-356.92770508 198.20042236 -357.66375977 199.07827393 -358.42211914 199.98272705 C-360.68354208 202.75872527 -362.93908949 205.53937543 -365.19165039 208.3225708 C-366.12001022 209.45800839 -367.04839667 210.59342421 -367.97680664 211.7288208 C-410.26293325 263.69949317 -439.60559222 324.16439101 -458.19165039 388.3225708 C-458.47492187 389.29597412 -458.75819336 390.26937744 -459.05004883 391.27227783 C-482.34062495 473.01960898 -481.76747597 570.68570268 -453.36743164 650.9085083 C-452.46072441 653.54127283 -451.65803326 656.14928624 -450.89086914 658.8225708 C-448.8568956 665.66417657 -446.2753167 672.29944305 -443.69165039 678.9475708 C-443.29632111 679.96651428 -443.29632111 679.96651428 -442.89300537 681.00604248 C-417.41303849 746.46257227 -378.4985403 803.81624706 -329.14956665 853.53988647 C-328.15337493 854.54411635 -327.15866831 855.54982212 -326.1656189 856.55715942 C-320.26503951 862.53362004 -314.20067135 868.14427422 -307.61694336 873.37091064 C-305.29396796 875.24023472 -303.0793016 877.18610482 -300.87915039 879.1975708 C-247.88857699 926.66439185 -180.24476875 958.63564184 -112.19165039 977.3225708 C-110.71607666 977.73200928 -110.71607666 977.73200928 -109.21069336 978.14971924 C-95.56761899 981.86909486 -81.77055768 984.37188741 -67.81665039 986.5725708 C-67.04099731 986.69763 -66.26534424 986.82268921 -65.46618652 986.95153809 C-41.77913663 990.72959808 -17.96072606 991.71562362 5.99584961 991.6350708 C7.19235138 991.63258331 8.38885315 991.63009583 9.62161255 991.62753296 C103.36577798 991.32752794 194.92711908 961.62475903 320.80834961 870.3225708 C322.11171265 869.15057129 322.11171265 869.15057129 323.44140625 867.95489502 C330.73176632 861.33933419 337.79453467 854.52266867 344.75488281 847.56134033 C346.49973769 845.81868763 348.25248703 844.08423917 350.00561523 842.34991455 C356.74232247 835.64643369 362.89491659 828.77046856 368.80834961 821.3225708 C370.27407092 819.59723263 371.76217733 817.89444125 373.25537109 816.19293213 C397.96616742 788.00062186 418.39646761 755.16479708 434.74731445 721.49346924 C435.85211362 719.23302878 436.98019662 716.98510574 438.10913086 714.7366333 C445.73468076 699.35018691 451.8415073 683.40816984 457.80834961 667.3225708 C458.25670166 666.11705566 458.70505371 664.91154053 459.16699219 663.66949463 C461.79265314 656.48195032 464.02884378 649.31019048 465.87084961 641.8850708 C466.38064881 639.87059152 466.89106443 637.85626814 467.40209961 635.84210205 C467.6431543 634.88642334 467.88420898 633.93074463 468.13256836 632.94610596 C468.69230127 630.7730966 469.27937508 628.61482943 469.90209961 626.45928955 C473.1966845 614.94152706 475.14767223 603.1735849 477.24511719 591.39044189 C477.74518153 588.66664108 478.29118265 585.95860849 478.85913086 583.24835205 C479.99416095 577.64173384 480.69760528 572.00062089 481.37084961 566.3225708 C481.4965332 565.32612549 481.6222168 564.32968018 481.75170898 563.30303955 C483.81152589 546.15587268 484.04699826 528.94912063 484.05834961 511.6975708 C484.05986023 510.08916824 484.05986023 510.08916824 484.06140137 508.44827271 C484.04429239 481.35595168 481.38958154 455.03586092 476.80834961 428.3225708 C476.59855469 427.03358887 476.59855469 427.03358887 476.38452148 425.71856689 C469.4192088 383.02658396 455.04442474 339.8176909 434.96166992 301.54376221 C433.61206977 298.94455345 432.30075255 296.32731626 430.98803711 293.70928955 C410.47562179 253.1191122 383.54063984 213.1115757 350.76147461 181.2756958 C348.95183347 179.46605466 347.31897809 177.60112927 345.68334961 175.6350708 C340.50701863 169.60404332 334.49196571 164.36230253 328.64038086 159.00177002 C327.01417933 157.51122976 325.39441807 156.01413801 323.77709961 154.51397705 C317.64608231 148.86745106 311.33470264 143.50503801 304.80834961 138.3225708 C304.17574219 137.81741943 303.54313477 137.31226807 302.89135742 136.79180908 C261.82305511 104.08211418 215.99319865 78.61206839 166.80834961 60.3225708 C165.70555664 59.91232666 164.60276367 59.50208252 163.46655273 59.07940674 C135.48342636 48.78435935 107.06452144 42.71710343 77.76913452 37.66156006 C76.00791657 37.35707283 74.2475526 37.04765574 72.48730469 36.73760986 C49.60199173 32.78440124 26.86299419 32.04006984 3.68334961 32.0725708 C2.49693878 32.07343689 1.31052795 32.07430298 0.08816528 32.07519531 C-3.32031286 32.08162345 -6.72855004 32.09778354 -10.13696289 32.1194458 C-11.67727425 32.126017 -11.67727425 32.126017 -13.248703 32.13272095 C-18.01454858 32.17984333 -22.49935067 32.39695649 -27.19165039 33.3225708 Z " fill="#FBFBFB" transform="translate(1019.191650390625,537.6774291992188)"/>
<path d="M0 0 C0.13947228 11.37473908 -0.26429134 22.64906646 -1 34 C-1.67764404 34.1451001 -2.35528809 34.2902002 -3.0534668 34.43969727 C-45.45520524 43.616433 -82.65534765 60.33238759 -117 87 C-112.97251947 91.83298806 -108.75620587 96.38110004 -104.2890625 100.80859375 C-103.67606293 101.42017838 -103.06306335 102.031763 -102.43148804 102.66188049 C-100.49835436 104.58947559 -98.56175013 106.51353928 -96.625 108.4375 C-95.30315301 109.75432404 -93.98153628 111.07137926 -92.66015625 112.38867188 C-89.44275701 115.59512373 -86.22224319 118.79841629 -83 122 C-84.687218 125.62813516 -86.5919388 127.66913551 -89.625 130.3125 C-90.52089844 131.10011719 -91.41679688 131.88773438 -92.33984375 132.69921875 C-93.95689503 134.09781376 -95.57405338 135.49628501 -97.19140625 136.89453125 C-105.35741992 143.97387382 -112.25277051 151.54413754 -119 160 C-119.74894531 160.93585938 -120.49789062 161.87171875 -121.26953125 162.8359375 C-121.84058594 163.55007813 -122.41164063 164.26421875 -123 165 C-125.99093346 163.65791709 -128.06189781 162.18024138 -130.35986328 159.85131836 C-130.99376984 159.21403305 -131.62767639 158.57674774 -132.28079224 157.92015076 C-132.95383392 157.23364944 -133.62687561 156.54714813 -134.3203125 155.83984375 C-135.0201828 155.13477188 -135.7200531 154.42970001 -136.44113159 153.70326233 C-138.67388982 151.4527047 -140.89984265 149.19557104 -143.125 146.9375 C-145.35816043 144.67674302 -147.59275286 142.41744978 -149.83029175 140.161026 C-151.22198888 138.75704949 -152.61100444 137.35040892 -153.99710083 135.94090271 C-154.62470306 135.30676956 -155.2523053 134.67263641 -155.89892578 134.01928711 C-156.4508963 133.45906357 -157.00286682 132.89884003 -157.57156372 132.32164001 C-158.98344859 130.89195227 -158.98344859 130.89195227 -161 130 C-161.27980713 130.589021 -161.55961426 131.17804199 -161.84790039 131.78491211 C-162.9139457 133.83454742 -164.06156673 135.58821425 -165.43359375 137.44140625 C-187.97143618 168.33461186 -203.57699714 202.97394907 -211.25 240.4375 C-211.49496216 241.62557251 -211.49496216 241.62557251 -211.74487305 242.83764648 C-212.93721862 248.94166811 -213.42944055 254.72384606 -214 261 C-197.5 261 -181 261 -164 261 C-164.33 264.3 -164.66 267.6 -165 271 C-165.08711138 274.14241976 -165.14084026 277.2611918 -165.1328125 280.40234375 C-165.13424759 281.66891563 -165.13424759 281.66891563 -165.13571167 282.96107483 C-165.13638584 284.72478308 -165.13458544 286.48849392 -165.13037109 288.25219727 C-165.1249644 290.95529666 -165.130366 293.65823347 -165.13671875 296.36132812 C-165.13605875 298.0833337 -165.13477922 299.80533917 -165.1328125 301.52734375 C-165.13584885 302.73667824 -165.13584885 302.73667824 -165.13894653 303.97044373 C-165.12518205 307.23805617 -165.04064819 309.87805544 -164 313 C-164 315.31 -164 317.62 -164 320 C-180.5 320 -197 320 -214 320 C-206.15224688 365.74118962 -192.54336335 407.61441795 -163.7421875 444.75 C-162.42646624 446.44922745 -161.19208884 448.21186674 -160 450 C-157.04734888 448.67005617 -154.97649784 447.22220684 -152.70019531 444.92724609 C-152.07985413 444.30675385 -151.45951294 443.6862616 -150.82037354 443.04696655 C-150.16293152 442.37920197 -149.5054895 441.71143738 -148.828125 441.0234375 C-148.1457074 440.33819 -147.46328979 439.6529425 -146.76019287 438.94692993 C-144.58538402 436.76094155 -142.41763928 434.56809571 -140.25 432.375 C-138.7752001 430.89016745 -137.29994494 429.40578694 -135.82421875 427.921875 C-132.21084552 424.2864709 -128.60379147 420.64490176 -125 417 C-121.04797274 418.79552734 -118.90513701 421.27879994 -116.25 424.625 C-106.20084529 436.84727356 -95.10069236 448.06770975 -82 457 C-86.0154653 461.8277897 -90.22826683 466.3437641 -94.7109375 470.73828125 C-95.96757458 471.98229394 -97.22408138 473.22643824 -98.48046875 474.47070312 C-100.44069314 476.40594863 -102.40250118 478.33953935 -104.36669922 480.27075195 C-106.27742542 482.15145313 -108.18202964 484.03818159 -110.0859375 485.92578125 C-110.67958099 486.50596512 -111.27322449 487.08614899 -111.88485718 487.68391418 C-113.29485534 489.08510986 -114.65303454 490.53810801 -116 492 C-116 492.66 -116 493.32 -116 494 C-113.70705407 496.16086379 -111.05812257 497.9166564 -108.5 499.75 C-107.70263428 500.32202148 -106.90526855 500.89404297 -106.08374023 501.48339844 C-78.47157312 520.90236498 -48.1685555 534.60140112 -15.5 542.9375 C-14.40437744 543.21996582 -13.30875488 543.50243164 -12.17993164 543.79345703 C-3.03977524 546.01697782 5.47090413 546.8789299 15 548 C15 531.83 15 515.66 15 499 C18.3 499.33 21.6 499.66 25 500 C27.81928214 500.08584508 30.61202581 500.14098152 33.4296875 500.1328125 C34.18613556 500.13376923 34.94258362 500.13472595 35.72195435 500.13571167 C37.30666183 500.13638566 38.8913722 500.13458659 40.47607422 500.13037109 C42.86302081 500.12502682 45.24977798 500.13033524 47.63671875 500.13671875 C49.19270874 500.13605754 50.74869861 500.13477549 52.3046875 500.1328125 C53.34591263 500.13584885 53.34591263 500.13584885 54.40817261 500.13894653 C60.68851195 500.11015409 66.67349524 499.52720873 73 499 C73 515.5 73 532 73 549 C93.61967363 545.01913954 93.61967363 545.01913954 114 540 C115.21558594 539.66742187 116.43117188 539.33484375 117.68359375 538.9921875 C149.21244948 529.76265552 177.99362254 513.8798101 204 494 C202.67005617 491.04734888 201.22220684 488.97649784 198.92724609 486.70019531 C198.30675385 486.07985413 197.6862616 485.45951294 197.04696655 484.82037354 C196.37920197 484.16293152 195.71143738 483.5054895 195.0234375 482.828125 C194.33819 482.1457074 193.6529425 481.46328979 192.94692993 480.76019287 C190.76094155 478.58538402 188.56809571 476.41763928 186.375 474.25 C184.89016745 472.7752001 183.40578694 471.29994494 181.921875 469.82421875 C178.2864709 466.21084552 174.64490176 462.60379147 171 459 C172.63024557 455.49246082 174.19373079 453.82759208 177.3125 451.5 C187.80504683 443.32733708 196.80760449 434.49547859 205 424 C206.97699826 421.64564937 208.98647652 419.32329633 211 417 C218.49388157 420.34940982 224.04891419 426.90934442 229.2578125 433.06640625 C231.62016137 435.68829569 234.24470195 437.91295194 236.93359375 440.19140625 C240.46428763 443.28159768 243.72320249 446.64476851 247 450 C265.13560935 432.8154443 277.03225851 407.19382702 286.08447266 384.30615234 C286.92091059 382.19922094 287.78910454 380.10901637 288.66796875 378.01953125 C296.22554743 359.57980026 299.29906499 339.42990882 303 320 C286.17 320 269.34 320 252 320 C252.33 315.71 252.66 311.42 253 307 C253.08274922 303.97543796 253.14138177 300.97573341 253.1328125 297.953125 C253.13376923 297.17161072 253.13472595 296.39009644 253.13571167 295.5848999 C253.13638286 293.95845457 253.13460407 292.33200637 253.13037109 290.70556641 C253.12497779 288.23984722 253.13036759 285.77430768 253.13671875 283.30859375 C253.13605835 281.71093711 253.13477797 280.11328057 253.1328125 278.515625 C253.13584885 277.43248016 253.13584885 277.43248016 253.13894653 276.32745361 C253.11530341 271.0910693 252.58624218 266.27617964 252 261 C268.83 261 285.66 261 303 261 C302.34 258.03 301.68 255.06 301 252 C300.71127808 250.25286224 300.43831952 248.50298039 300.1875 246.75 C296.22670258 222.71100642 288.65591116 199.87082093 278 178 C277.60941406 177.19820312 277.21882813 176.39640625 276.81640625 175.5703125 C269.45119654 160.64670726 260.7850588 146.34207055 250.109375 133.53125 C249 132 249 132 249 130 C243.759441 134.31025184 238.93490103 138.99337793 234.1640625 143.80859375 C233.55463806 144.42352692 232.94521362 145.03846008 232.31732178 145.67202759 C229.76573482 148.25138438 227.21792642 150.834407 224.67431641 153.42163086 C222.80020162 155.32575984 220.92006678 157.22377397 219.0390625 159.12109375 C218.17349228 160.00685341 218.17349228 160.00685341 217.29043579 160.9105072 C215.89778729 162.31195732 214.45334043 163.66159278 213 165 C212.34 165 211.68 165 211 165 C209.62787699 163.46804728 208.3284554 161.87078919 207.0625 160.25 C201.97926952 153.89800829 196.57377855 147.92320504 191 142 C190.38382813 141.34128906 189.76765625 140.68257812 189.1328125 140.00390625 C184.87325327 135.59149203 180.16700954 131.81176477 175.35546875 128.015625 C173 126 173 126 171 123 C175.78515625 118.21484375 180.5703125 113.4296875 185.35546875 108.64453125 C186.16701416 107.83218018 186.97855957 107.0198291 187.81469727 106.18286133 C189.09048131 104.90850258 190.36852089 103.63638038 191.65209961 102.36987305 C193.66711884 100.38085407 195.44232196 98.43130033 197.1875 96.1875 C197.785625 95.465625 198.38375 94.74375 199 94 C199.66 94 200.32 94 201 94 C201.268125 93.360625 201.53625 92.72125 201.8125 92.0625 C203 90 203 90 206 89 C178.21161469 59.46802972 132.49901884 43.17166475 93.890625 34.8984375 C90 34 90 34 89 33 C87.61258084 22.07193304 87.8945457 10.9906819 88 0 C96.48452336 0.47580324 104.49320879 1.76829596 112.75 3.75 C113.88453613 4.01804443 115.01907227 4.28608887 116.18798828 4.56225586 C129.22956872 7.69776897 141.72435829 11.53940676 154 17 C155.50645172 17.6550829 157.01296736 18.31001885 158.51953125 18.96484375 C205.38804534 39.50849096 247.10449524 70.99799961 278 112 C278.50112305 112.65532715 279.00224609 113.3106543 279.51855469 113.98583984 C308.81537176 152.43677141 327.92916758 198.20641051 335 246 C335.14953125 246.98484375 335.2990625 247.9696875 335.453125 248.984375 C338.11217437 267.04757246 338.39468341 284.7975147 338 303 C337.98984863 303.91330078 337.97969727 304.82660156 337.96923828 305.76757812 C337.22219297 371.14059584 306.28049751 438.13473218 262.2734375 485.54296875 C260.25815584 487.72099653 258.30727564 489.93609286 256.375 492.1875 C250.41404394 499.00794275 244.01421752 504.95569307 236.9375 510.609375 C235.00608362 512.18121918 233.10827824 513.79545635 231.25 515.453125 C216.21862494 528.80546348 198.77730128 539.67769885 181 549 C180.09918701 549.48509033 180.09918701 549.48509033 179.18017578 549.97998047 C166.59434269 556.74406929 153.33103254 561.90410708 140 567 C139.07823975 567.35570068 138.15647949 567.71140137 137.20678711 568.07788086 C130.63178708 570.55254554 124.01355153 572.41629474 117.1875 574.0625 C115.59687744 574.449823 115.59687744 574.449823 113.97412109 574.8449707 C111.89260293 575.34901618 109.81027657 575.84973903 107.72705078 576.34667969 C105.56321008 576.86507161 103.40380109 577.40195644 101.24609375 577.9453125 C83.2512351 582.22444034 64.86491836 583.28194451 46.4375 583.25 C45.32202789 583.24883682 45.32202789 583.24883682 44.184021 583.24765015 C28.32948084 583.19965921 12.77277777 582.4686898 -2.875 579.75 C-4.1758252 579.52675049 -5.47665039 579.30350098 -6.81689453 579.07348633 C-17.06624486 577.2634676 -27.05597735 575.0669228 -37 572 C-37.92441895 571.71785645 -38.84883789 571.43571289 -39.80126953 571.14501953 C-54.02574749 566.74802414 -67.62791503 561.54194125 -81 555 C-82.34263916 554.3510376 -82.34263916 554.3510376 -83.71240234 553.68896484 C-104.15688732 543.72169893 -123.40674637 531.43549015 -141 517 C-142.02738281 516.175 -143.05476562 515.35 -144.11328125 514.5 C-151.93614037 508.09142993 -159.14619716 501.06246948 -166.3125 493.9375 C-167.231521 493.02774414 -168.15054199 492.11798828 -169.09741211 491.18066406 C-175.15550511 485.09466871 -180.67737424 478.73517651 -186 472 C-186.48218994 471.40276123 -186.96437988 470.80552246 -187.46118164 470.19018555 C-204.22334461 449.41128307 -217.91226068 425.68017603 -228 401 C-228.40992188 400.00291016 -228.81984375 399.00582031 -229.2421875 397.97851562 C-236.35831138 380.41462806 -241.47678115 362.61909979 -245 344 C-245.1704483 343.12298431 -245.34089661 342.24596863 -245.51651001 341.34237671 C-248.44513014 325.9824866 -249.61105914 311.09892273 -249.46655273 295.47094727 C-249.43753599 292.06672225 -249.44602727 288.66406279 -249.45898438 285.25976562 C-249.41503798 238.64163658 -238.04628504 194.0867447 -216 153 C-215.65114746 152.34628418 -215.30229492 151.69256836 -214.94287109 151.01904297 C-196.10697013 115.97766996 -168.96324753 81.78510504 -136.68603516 58.23730469 C-134.95281676 56.96537436 -133.24717615 55.66205075 -131.54296875 54.3515625 C-96.80057338 27.90493614 -44.81612932 -0.91461488 0 0 Z " fill="#020202" transform="translate(980,761)"/>
<path d="M0 0 C2.83341633 2.19336336 3.87790794 3.42214022 4.62614441 6.96353149 C4.71488579 8.69788956 4.71488579 8.69788956 4.80541992 10.46728516 C4.88197311 11.78451569 4.95852631 13.10174622 5.03739929 14.45889282 C5.10218339 15.90226359 5.16652742 17.34565416 5.23046875 18.7890625 C5.31045079 20.29056182 5.39204923 21.79197582 5.47517395 23.29330444 C5.69043462 27.26430879 5.88276442 31.23611384 6.07061768 35.20849609 C6.26120744 39.14887719 6.47463994 43.08800789 6.68554688 47.02734375 C7.47599847 61.98080934 8.17947491 76.93629509 8.64897156 91.90371704 C8.78823676 96.01944127 8.95753191 100.08149884 9.5012207 104.16552734 C10.04085229 108.3140607 10.26915533 112.40167382 10.4296875 116.578125 C10.50194476 118.28776421 10.5742964 119.99739944 10.64672852 121.70703125 C10.68371857 122.60760254 10.72070862 123.50817383 10.75881958 124.43603516 C11.55666603 143.76039168 12.61158399 163.06375032 13.76358032 182.36987305 C14.56046969 195.7696652 15.34247199 209.15944004 15.62133789 222.58203125 C15.79284383 229.38012052 16.33235868 236.11924536 16.92578125 242.890625 C18.06318466 255.96300461 18.77857247 269.04699425 19.43261719 282.15136719 C19.62758331 286.05167938 19.82900922 289.95162137 20.03125 293.8515625 C20.15922598 296.35935605 20.28684372 298.86716792 20.4140625 301.375 C20.50308334 303.10314941 20.50308334 303.10314941 20.59390259 304.86621094 C20.87699519 310.58613869 21.06531584 316.27310727 21 322 C21.88042969 322.26683594 22.76085938 322.53367187 23.66796875 322.80859375 C38.51064881 328.1157654 48.78281076 340.48047649 56 354 C63.52498687 370.41163804 64.84965854 388.72271044 58.62011719 405.80371094 C52.66461345 420.92048099 43.72992087 432.27629576 30 441 C29.01 441.66 28.02 442.32 27 443 C26.70378845 445.63086817 26.62759803 447.9926413 26.6875 450.625 C26.69587891 451.43098633 26.70425781 452.23697266 26.71289062 453.06738281 C26.89503954 463.04550026 27.60338929 473.01285446 28.2878418 482.96728516 C28.35686958 483.98107742 28.35686958 483.98107742 28.42729187 485.01535034 C28.55443032 486.86685689 28.68529222 488.71810668 28.81640625 490.56933594 C29.00223661 494.04179365 29 497.52257344 29 501 C7.55 501 -13.9 501 -36 501 C-35.835 495.51375 -35.67 490.0275 -35.5 484.375 C-35.41939496 481.0651182 -35.34067172 477.75530824 -35.265625 474.4453125 C-35.13819467 468.94849352 -34.92998433 463.47850953 -34.546875 457.9921875 C-33.63762435 448.47040786 -33.63762435 448.47040786 -37.2421875 440.07421875 C-40.07146668 437.97717849 -42.80667991 436.46804021 -46 435 C-55.54009987 428.13112809 -61.90632504 417.86629897 -66 407 C-66.391875 406.02804687 -66.78375 405.05609375 -67.1875 404.0546875 C-73.06906279 387.75785728 -70.89990235 368.99612333 -63.82421875 353.45703125 C-58.66322359 343.67655861 -50.35403119 331.56525249 -39.49560547 327.77758789 C-35.1620489 326.17206796 -31.82267535 324.75111759 -29 321 C-26.12782189 312.55734448 -26.85913331 302.98897104 -26.8125 294.1875 C-26.74764114 291.52480508 -26.67689621 288.86309678 -26.59594727 286.20092773 C-26.47625381 282.12137725 -26.36284884 278.04217351 -26.28300476 273.96162415 C-26.05225454 262.18459726 -25.4114552 250.45195302 -24.64117432 238.69863892 C-24.30351904 233.49948639 -23.99379268 228.29873858 -23.6875 223.09765625 C-23.62813263 222.09129623 -23.56876526 221.08493622 -23.50759888 220.04808044 C-22.82478061 208.27133475 -22.32254761 196.48692693 -21.81759644 184.70147705 C-21.32359669 173.23361678 -20.68048802 161.80318732 -19.74975586 150.36108398 C-18.9315566 139.93884107 -18.4661078 129.50516236 -18 119.0625 C-17.40390534 105.73788442 -16.7945177 92.41527186 -16.06567383 79.09713745 C-15.98117465 77.54977636 -15.89781475 76.00235257 -15.81567383 74.4548645 C-15.70194863 72.31867734 -15.5840634 70.18276171 -15.46484375 68.046875 C-15.399021 66.84901367 -15.33319824 65.65115234 -15.26538086 64.41699219 C-15 61 -15 61 -14.5 57.70214844 C-13.87032324 53.03983476 -13.69906421 48.41718929 -13.53515625 43.71875 C-13.45666459 41.72264505 -13.37787962 39.72655161 -13.29882812 37.73046875 C-13.17916189 34.61030079 -13.06214533 31.49009249 -12.95043945 28.36962891 C-12.84044259 25.33982379 -12.71975789 22.31058818 -12.59765625 19.28125 C-12.56736832 18.35501831 -12.53708038 17.42878662 -12.50587463 16.4744873 C-11.99663663 4.28187043 -11.99663663 4.28187043 -8.25 0 C-5.06508322 -1.41551857 -3.29788566 -1.03058927 0 0 Z " fill="#020202" transform="translate(1028,667)"/>
</svg>
