<?xml version="1.0" encoding="UTF-8"?>
<svg version="1.1" xmlns="http://www.w3.org/2000/svg" width="512" height="512">
<path d="M0 0 C0.84460281 -0.00960754 1.68920563 -0.01921509 2.55940247 -0.02911377 C3.93124947 -0.03548859 3.93124947 -0.03548859 5.33081055 -0.04199219 C6.74042305 -0.0505423 6.74042305 -0.0505423 8.17851257 -0.05926514 C10.16994092 -0.06872193 12.16138496 -0.07525181 14.15283203 -0.07910156 C17.19485943 -0.08879495 20.23620779 -0.11980691 23.27807617 -0.15136719 C25.21231695 -0.15789843 27.14656256 -0.16314843 29.08081055 -0.16699219 C29.98930252 -0.17933899 30.89779449 -0.19168579 31.83381653 -0.20440674 C37.603054 -0.18413408 41.17196912 0.51089265 45.4519043 4.66113281 C49.32535989 9.49037614 50.06924498 12.94022483 50.65893555 19.01660156 C50.72410873 19.67823807 50.78928192 20.33987457 50.85643005 21.02156067 C51.06339075 23.13028114 51.26552073 25.23943275 51.4675293 27.34863281 C51.60718485 28.78030453 51.74715512 30.21194559 51.88745117 31.64355469 C52.23029346 35.14906592 52.56880552 38.65497988 52.9050293 42.16113281 C54.01620117 42.53625 55.12737305 42.91136719 56.2722168 43.29785156 C57.77541154 43.81305876 59.27797522 44.33010949 60.7800293 44.84863281 C61.55564209 45.11611328 62.33125488 45.38359375 63.13037109 45.65917969 C68.34500052 47.4994452 73.15922707 49.63973538 77.92456055 52.47363281 C79.8699755 53.35987651 79.8699755 53.35987651 81.7487793 52.64550781 C84.9097916 50.46944862 87.72513492 47.95602729 90.5925293 45.41113281 C106.00593172 32.0200775 106.00593172 32.0200775 113.9050293 32.16113281 C123.09277551 33.8433962 128.23735839 39.60603596 134.52758789 46.05639648 C136.27781921 47.84637254 138.05560423 49.60505204 139.83862305 51.36230469 C140.97449907 52.50573987 142.10867383 53.65086813 143.2409668 54.79785156 C143.76596771 55.31586838 144.29096863 55.83388519 144.83187866 56.36759949 C149.07274787 60.77238823 151.41403521 65.43077531 152.2253418 71.59472656 C151.5626486 78.39395874 148.34423251 82.16796495 143.9050293 87.16113281 C142.3223602 88.98153967 140.74571697 90.80696613 139.171875 92.63500977 C138.08978288 93.88798395 137.00120092 95.13538686 135.90576172 96.37670898 C133.6568566 98.95198092 131.99762296 100.88335183 130.9050293 104.16113281 C132.38453892 107.62826648 134.03260166 110.94517597 135.7487793 114.29785156 C138.61570223 120.08363443 140.38463069 125.89205184 141.9050293 132.16113281 C142.74686768 132.2060083 143.58870605 132.25088379 144.45605469 132.29711914 C147.60828032 132.47136277 150.75955123 132.65725915 153.91064453 132.85083008 C155.26910128 132.93193438 156.62783623 133.00852027 157.98681641 133.08032227 C174.15474343 133.94126586 174.15474343 133.94126586 179.8659668 138.84472656 C180.33260742 139.42351562 180.79924805 140.00230469 181.2800293 140.59863281 C181.76213867 141.17484375 182.24424805 141.75105469 182.7409668 142.34472656 C185.48731238 146.63013159 185.0808083 151.46589245 185.1081543 156.39941406 C185.11385437 157.19840622 185.11955444 157.99739838 185.12542725 158.82060242 C185.13485801 160.50921309 185.14140357 162.19784201 185.14526367 163.88647461 C185.15495621 166.45426995 185.18599166 169.02125994 185.2175293 171.58886719 C185.22406148 173.23404476 185.2293111 174.87922802 185.2331543 176.52441406 C185.2516745 177.66539299 185.2516745 177.66539299 185.27056885 178.829422 C185.24621611 184.73140556 183.95302683 189.11997985 180.6081543 194.08691406 C175.29897477 199.15346979 169.18282518 199.37880389 162.11694336 199.96679688 C158.8800499 200.25118619 155.65556067 200.63205864 152.42773438 201.00390625 C148.92189856 201.4060841 145.41356961 201.78335184 141.9050293 202.16113281 C141.61370117 203.10472656 141.32237305 204.04832031 141.0222168 205.02050781 C138.59091494 212.68969481 135.87563679 219.65330337 131.84643555 226.67285156 C130.65825966 229.06583563 130.65825966 229.06583563 131.48706055 231.20410156 C133.19390266 233.55982581 135.04262759 235.66023621 137.0300293 237.78613281 C140.21034224 241.26957736 143.33768976 244.77456284 146.3425293 248.41113281 C146.98061523 249.17941406 147.61870117 249.94769531 148.27612305 250.73925781 C151.01623475 254.8132848 152.33068416 258.75852819 151.7800293 263.66113281 C151.71557617 264.37269531 151.65112305 265.08425781 151.5847168 265.81738281 C149.92076942 271.55513239 145.55156362 275.81435903 141.4050293 279.92675781 C140.8874707 280.44622986 140.36991211 280.9657019 139.83666992 281.50091553 C138.74993209 282.58900522 137.66070112 283.67461012 136.5690918 284.7578125 C134.90265107 286.41349568 133.2472115 288.0796447 131.5925293 289.74707031 C130.53067033 290.80760836 129.46819149 291.86752621 128.4050293 292.92675781 C127.91325195 293.42258362 127.42147461 293.91840942 126.91479492 294.42926025 C122.37752665 298.90531452 119.39328394 300.45517537 113.0300293 300.53613281 C112.02198242 300.56449219 111.01393555 300.59285156 109.9753418 300.62207031 C103.70691123 299.68100822 99.0731565 294.7541892 94.4050293 290.72363281 C92.773723 289.32675414 91.14241081 287.93070901 89.4987793 286.54833984 C88.42361205 285.61250953 87.38152807 284.63746466 86.3737793 283.62939453 C84.72796412 281.96890075 84.72796412 281.96890075 81.9050293 280.16113281 C78.89067971 280.50887492 78.89067971 280.50887492 75.9050293 282.16113281 C74.62678676 282.71715321 73.34672681 283.26900824 72.06518555 283.81738281 C70.01196638 284.73649917 67.96251018 285.66341553 65.91479492 286.59472656 C64.90642578 287.04525391 64.90642578 287.04525391 63.87768555 287.50488281 C63.28221924 287.77494141 62.68675293 288.045 62.07324219 288.32324219 C59.07472775 289.48199701 56.00203648 290.30729916 52.9050293 291.16113281 C52.79227661 292.47718506 52.79227661 292.47718506 52.67724609 293.81982422 C52.39058919 297.0972031 52.09298789 300.37321336 51.78808594 303.64892578 C51.65873359 305.06259679 51.53366332 306.4766668 51.41308594 307.89111328 C51.23826407 309.93286002 51.04771522 311.97264091 50.85424805 314.01269531 C50.7442749 315.23811035 50.63430176 316.46352539 50.52099609 317.72607422 C49.27609255 324.66852084 46.33394367 328.11832423 40.9050293 332.16113281 C38.63705766 333.29511863 37.34552563 333.30467772 34.82592773 333.33813477 C33.98455261 333.35097 33.14317749 333.36380524 32.27630615 333.37702942 C30.90916473 333.38810982 30.90916473 333.38810982 29.5144043 333.39941406 C28.5770343 333.40748581 27.63966431 333.41555756 26.67388916 333.4238739 C24.68666435 333.43771968 22.69941571 333.44843962 20.7121582 333.45629883 C17.68093385 333.47348593 14.6508074 333.51736446 11.61987305 333.56152344 C9.68889148 333.57165264 7.75790064 333.58016803 5.8269043 333.58691406 C4.92357361 333.60442215 4.02024292 333.62193024 3.08953857 333.63996887 C-2.48317943 333.62087792 -5.69087899 332.90782746 -10.0949707 329.16113281 C-13.74811202 324.75131366 -14.71576935 321.24881361 -15.2824707 315.59863281 C-15.35651123 314.90552002 -15.43055176 314.21240723 -15.50683594 313.49829102 C-16.0841576 307.92219306 -16.50489322 302.33035225 -16.84887695 296.73535156 C-17.00883553 294.04535397 -17.00883553 294.04535397 -18.0949707 291.16113281 C-19.86508412 290.16157116 -19.86508412 290.16157116 -22.06762695 289.47753906 C-22.88553711 289.18943359 -23.70344727 288.90132813 -24.54614258 288.60449219 C-25.40788086 288.31380859 -26.26961914 288.023125 -27.1574707 287.72363281 C-28.83748822 287.1463295 -30.51589913 286.56432846 -32.19262695 285.97753906 C-33.42650146 285.54658936 -33.42650146 285.54658936 -34.68530273 285.10693359 C-37.06964328 284.17107389 -39.22629527 283.05098409 -41.46606445 281.81347656 C-44.79234288 279.79083274 -44.79234288 279.79083274 -47.10327148 280.87670898 C-49.08685063 282.15589627 -50.8229324 283.49708105 -52.59106445 285.05957031 C-53.23237305 285.62160156 -53.87368164 286.18363281 -54.53442383 286.76269531 C-55.1937793 287.34792969 -55.85313477 287.93316406 -56.5324707 288.53613281 C-69.8431813 300.26316988 -69.8431813 300.26316988 -77.7824707 300.59863281 C-78.77633789 300.65921875 -79.77020508 300.71980469 -80.79418945 300.78222656 C-89.80097638 299.08745837 -96.72363651 289.86660394 -102.9074707 283.66113281 C-103.8478418 282.736875 -104.78821289 281.81261719 -105.75708008 280.86035156 C-107.10962891 279.50876953 -107.10962891 279.50876953 -108.48950195 278.12988281 C-109.30265869 277.31970703 -110.11581543 276.50953125 -110.95361328 275.67480469 C-115.4369394 270.4119697 -116.78832386 265.72712041 -116.55981445 258.95410156 C-115.18974707 250.72218407 -107.94029507 244.57577746 -102.4621582 238.73925781 C-101.68098633 237.88847656 -100.89981445 237.03769531 -100.0949707 236.16113281 C-99.31379883 235.31035156 -98.53262695 234.45957031 -97.7277832 233.58300781 C-95.84433384 231.37951773 -95.84433384 231.37951773 -96.38183594 229.28076172 C-97.1227681 227.07851144 -97.95355243 224.95956093 -98.87231445 222.82519531 C-99.22100586 222.00792969 -99.56969727 221.19066406 -99.92895508 220.34863281 C-100.29311523 219.50300781 -100.65727539 218.65738281 -101.0324707 217.78613281 C-103.25031804 212.62834832 -105.42497171 207.52961124 -107.0949707 202.16113281 C-109.49031345 201.84441869 -111.88606424 201.53212948 -114.2824707 201.22363281 C-115.0062793 201.12937012 -115.73008789 201.03510742 -116.47583008 200.93798828 C-121.01830497 200.36469525 -125.51903382 200.00659511 -130.0949707 199.78613281 C-137.02085198 199.28836192 -141.77358462 197.66108706 -146.5324707 192.53613281 C-148.58220431 189.42053773 -149.22311438 187.76147207 -149.27197266 184.08203125 C-149.28480789 183.24065613 -149.29764313 182.39928101 -149.31086731 181.53240967 C-149.31825424 180.62098206 -149.32564117 179.70955444 -149.33325195 178.77050781 C-149.3413237 177.83313782 -149.34939545 176.89576782 -149.35771179 175.92999268 C-149.37155757 173.94276787 -149.38227751 171.95551922 -149.39013672 169.96826172 C-149.40732382 166.93703736 -149.45120235 163.90691092 -149.49536133 160.87597656 C-149.50549054 158.944995 -149.51400592 157.01400416 -149.52075195 155.08300781 C-149.53826004 154.17967712 -149.55576813 153.27634644 -149.57380676 152.34564209 C-149.5547374 146.77922669 -148.8569819 143.54809523 -145.0949707 139.16113281 C-140.30436836 135.54373921 -136.6487969 134.10732527 -130.7277832 133.66113281 C-129.67719727 133.57863281 -128.62661133 133.49613281 -127.54418945 133.41113281 C-126.44719727 133.32863281 -125.35020508 133.24613281 -124.2199707 133.16113281 C-122.05569851 132.99721161 -119.89162521 132.83063818 -117.7277832 132.66113281 C-116.76759277 132.58894531 -115.80740234 132.51675781 -114.81811523 132.44238281 C-110.90281055 132.07156215 -110.90281055 132.07156215 -107.0949707 131.16113281 C-105.8385516 129.43166777 -105.8385516 129.43166777 -105.21606445 127.18847656 C-104.9344043 126.37056641 -104.65274414 125.55265625 -104.36254883 124.70996094 C-103.95166016 123.41735352 -103.95166016 123.41735352 -103.5324707 122.09863281 C-102.97335177 120.4186815 -102.40958017 118.7402712 -101.84106445 117.06347656 C-101.56633301 116.24089355 -101.29160156 115.41831055 -101.00854492 114.57080078 C-100.09959722 112.17333584 -98.99450196 110.03130716 -97.75512695 107.79003906 C-95.71577228 104.45621255 -95.71577228 104.45621255 -96.84179688 102.11889648 C-98.73837479 99.15597844 -101.03806397 96.55566375 -103.3449707 93.91113281 C-116.22522679 78.92767702 -116.22522679 78.92767702 -116.4074707 71.97363281 C-116.46354492 70.59111328 -116.46354492 70.59111328 -116.52075195 69.18066406 C-115.60267399 62.66989101 -111.36431772 58.05242005 -106.84887695 53.55175781 C-106.35588608 53.05826843 -105.8628952 52.56477905 -105.35496521 52.05633545 C-104.32064436 51.02433616 -103.28267556 49.99598094 -102.24121094 48.97119141 C-100.65611038 47.40979283 -99.0848678 45.83538038 -97.51489258 44.25878906 C-85.6365796 32.44585311 -85.6365796 32.44585311 -77.0949707 32.16113281 C-67.19245227 33.28730158 -59.51074249 41.83885457 -52.6965332 48.50878906 C-52.02364258 49.1571875 -51.35075195 49.80558594 -50.6574707 50.47363281 C-49.8240918 51.33408203 -49.8240918 51.33408203 -48.97387695 52.21191406 C-47.00964917 53.45614226 -47.00964917 53.45614226 -44.2980957 52.51269531 C-43.24106445 52.06667969 -42.1840332 51.62066406 -41.0949707 51.16113281 C-39.99540039 50.69835937 -38.89583008 50.23558594 -37.76293945 49.75878906 C-36.61438477 49.2521875 -35.46583008 48.74558594 -34.2824707 48.22363281 C-30.17221835 46.41712598 -26.08601489 44.77021343 -21.7824707 43.47363281 C-20.5655957 43.04050781 -19.3487207 42.60738281 -18.0949707 42.16113281 C-17.09660893 39.1660475 -16.85553 36.81870508 -16.6652832 33.68066406 C-16.59180664 32.59849609 -16.51833008 31.51632813 -16.44262695 30.40136719 C-16.29548504 28.1361561 -16.15474312 25.8705192 -16.02075195 23.60449219 C-15.02094345 9.29367381 -15.02094345 9.29367381 -10.64599609 4.60986328 C-7.06872842 1.53651998 -4.64370535 0.04259617 0 0 Z M0.9050293 16.16113281 C0.65171687 18.53330014 0.4550658 20.8878265 0.29174805 23.26660156 C0.17728951 24.73996933 0.06202897 26.21327497 -0.05395508 27.68652344 C-0.23287642 30.01201135 -0.40670079 32.33741528 -0.56640625 34.66430664 C-0.72277193 36.9082619 -0.90131863 39.14959289 -1.08325195 41.39160156 C-1.12509109 42.07933151 -1.16693024 42.76706146 -1.21003723 43.47563171 C-1.63018246 48.35844004 -2.9574138 51.41062218 -6.0949707 55.16113281 C-8.13110352 56.35791016 -8.13110352 56.35791016 -10.2980957 56.99707031 C-11.10593506 57.25286865 -11.91377441 57.50866699 -12.74609375 57.7722168 C-13.60372314 58.02430908 -14.46135254 58.27640137 -15.3449707 58.53613281 C-22.19295253 60.70720129 -28.46295532 63.18337939 -34.7824707 66.59863281 C-44.14437318 71.48040937 -44.14437318 71.48040937 -49.04418945 70.92675781 C-53.83779489 69.13714512 -57.36878342 65.55747779 -61.0949707 62.16113281 C-62.91875995 60.54980403 -64.75115681 58.9492147 -66.59033203 57.35546875 C-67.82575505 56.2829181 -69.05374638 55.20173562 -70.2734375 54.11132812 C-74.17269301 50.4677331 -74.17269301 50.4677331 -79.0949707 49.16113281 C-81.62477213 50.99463112 -81.62477213 50.99463112 -84.0793457 53.65722656 C-84.77003143 54.3585244 -84.77003143 54.3585244 -85.47467041 55.07398987 C-86.94356832 56.570891 -88.39415141 58.08422319 -89.8449707 59.59863281 C-90.83730228 60.61603961 -91.83077899 61.63233084 -92.82543945 62.64746094 C-95.26204003 65.1392076 -97.68250399 67.64598778 -100.0949707 70.16113281 C-98.46821232 74.59360812 -96.23308236 77.44350041 -92.9699707 80.78613281 C-89.30367798 84.69502555 -85.72248858 88.63221472 -82.4074707 92.84863281 C-81.76422852 93.656875 -81.12098633 94.46511719 -80.45825195 95.29785156 C-78.51085766 99.38793758 -78.35461474 102.70967044 -79.0949707 107.16113281 C-80.3534807 110.70424643 -82.03009357 113.96445811 -83.7824707 117.28613281 C-87.6039221 124.8268899 -90.61677292 132.05544039 -92.7668457 140.22753906 C-94.52580662 144.11277332 -96.37949959 145.10731331 -100.0949707 147.16113281 C-102.79054791 147.69109627 -105.18720516 148.03172881 -107.8996582 148.20800781 C-108.54233643 148.2629541 -109.18501465 148.31790039 -109.84716797 148.37451172 C-112.21993371 148.57231224 -114.59513187 148.74001045 -116.9699707 148.91113281 C-124.9518457 149.52988281 -124.9518457 149.52988281 -133.0949707 150.16113281 C-133.0949707 161.05113281 -133.0949707 171.94113281 -133.0949707 183.16113281 C-122.50631717 183.98744089 -122.50631717 183.98744089 -111.91479492 184.77539062 C-110.57630068 184.88697132 -109.23791313 184.99984264 -107.8996582 185.11425781 C-106.87690796 185.1807251 -106.87690796 185.1807251 -105.83349609 185.24853516 C-100.93809317 185.69051809 -97.85898458 187.01279407 -94.0949707 190.16113281 C-92.89819336 192.19726562 -92.89819336 192.19726562 -92.2590332 194.36425781 C-92.00323486 195.17209717 -91.74743652 195.97993652 -91.48388672 196.81225586 C-91.23179443 197.66988525 -90.97970215 198.52751465 -90.7199707 199.41113281 C-88.54903175 206.25870608 -86.07445691 212.53025922 -82.6574707 218.84863281 C-77.85270009 228.0037903 -77.85270009 228.0037903 -78.4621582 233.24316406 C-79.79047473 237.26911106 -82.30616334 240.03335439 -85.0949707 243.16113281 C-86.08559021 244.31668448 -87.0736578 245.47442643 -88.05981445 246.63378906 C-90.15683726 249.09660881 -92.2672591 251.54679792 -94.38793945 253.98925781 C-96.39258098 256.31193356 -98.30042576 258.66973709 -100.0949707 261.16113281 C-97.67225198 266.79567978 -92.97672738 270.68853974 -88.7199707 274.97363281 C-87.85629883 275.87017578 -86.99262695 276.76671875 -86.1027832 277.69042969 C-85.2674707 278.53283203 -84.4321582 279.37523437 -83.5715332 280.24316406 C-82.80921387 281.01893799 -82.04689453 281.79471191 -81.26147461 282.59399414 C-79.25105232 284.39794555 -79.25105232 284.39794555 -76.96142578 284.02685547 C-74.19366525 282.74307799 -72.34954752 280.83659708 -70.1574707 278.72363281 C-52.81720773 262.67983809 -52.81720773 262.67983809 -46.7824707 262.03613281 C-41.7082469 262.67041079 -37.20982953 265.41936718 -32.76098633 267.80981445 C-26.29847235 271.24133737 -19.61634321 273.5862614 -12.65820312 275.8137207 C-11.84714111 276.07918701 -11.0360791 276.34465332 -10.20043945 276.61816406 C-9.1199231 276.95811401 -9.1199231 276.95811401 -8.01757812 277.30493164 C-5.83469724 278.27704126 -4.62365363 279.33670698 -3.0949707 281.16113281 C-0.31115987 289.90789941 -0.45446537 300.06195062 0.20800781 309.14624023 C0.28462646 310.16564697 0.36124512 311.18505371 0.44018555 312.23535156 C0.5060083 313.15920654 0.57183105 314.08306152 0.63964844 315.03491211 C0.68169983 317.14249855 0.68169983 317.14249855 1.9050293 318.16113281 C4.18450721 318.26134211 6.46710064 318.29194584 8.7487793 318.29394531 C9.43307007 318.29490204 10.11736084 318.29585876 10.8223877 318.29684448 C12.27164807 318.29752611 13.72091148 318.29567304 15.17016602 318.29150391 C17.39565858 318.28615533 19.62094931 318.29144941 21.84643555 318.29785156 C23.25138391 318.29719078 24.65633215 318.29590961 26.0612793 318.29394531 C27.3484082 318.29281738 28.63553711 318.29168945 29.96166992 318.29052734 C32.79329087 318.49799424 32.79329087 318.49799424 33.9050293 317.16113281 C34.16951501 314.87062602 34.37386363 312.57313474 34.5534668 310.27441406 C34.67280233 308.84664149 34.79260939 307.41890826 34.9128418 305.99121094 C35.09785033 303.73807127 35.27917136 301.48482859 35.4519043 299.23071289 C35.62051668 297.05671487 35.80468023 294.88445962 35.9909668 292.71191406 C36.0945752 291.40907471 36.19818359 290.10623535 36.30493164 288.76391602 C36.93278497 284.99449714 37.89153029 282.3984645 39.9050293 279.16113281 C42.32469461 277.86314652 44.33543272 277.0001469 46.9050293 276.16113281 C48.38993598 275.62484226 49.87428559 275.08700745 51.3581543 274.54785156 C52.13690918 274.27207275 52.91566406 273.99629395 53.71801758 273.7121582 C60.11431034 271.44570985 66.18028748 269.2202207 72.0300293 265.72363281 C76.72807742 263.02969795 80.54616803 261.72143874 85.9050293 263.16113281 C88.97200306 264.720611 91.34598182 266.87942053 93.9050293 269.16113281 C95.06058096 270.15175232 96.21832291 271.13981991 97.37768555 272.12597656 C99.84050529 274.22299937 102.2906944 276.3334212 104.7331543 278.45410156 C107.05583004 280.45874309 109.41363357 282.36658787 111.9050293 284.16113281 C117.53957626 281.73841408 121.43243622 277.04288949 125.7175293 272.78613281 C126.61407227 271.92246094 127.51061523 271.05878906 128.43432617 270.16894531 C129.27672852 269.33363281 130.11913086 268.49832031 130.98706055 267.63769531 C131.76283447 266.87537598 132.5386084 266.11305664 133.33789062 265.32763672 C135.14507003 263.31571568 135.14507003 263.31571568 134.75927734 261.01831055 C133.56146189 258.41420019 131.87628659 256.67598208 129.9050293 254.59863281 C126.48604405 250.90612874 123.17263947 247.16654983 119.9675293 243.28613281 C119.23663086 242.40183594 118.50573242 241.51753906 117.75268555 240.60644531 C114.2519559 235.97334434 113.26525243 233.09252207 113.9050293 227.16113281 C115.21420634 223.69562068 116.89165966 220.44866141 118.5925293 217.16113281 C122.38066518 209.58818048 125.46632417 202.23797729 127.7722168 194.09472656 C129.25636102 190.25130479 131.21847367 188.00441063 134.9050293 186.16113281 C137.36721539 185.87768368 139.8147689 185.64219226 142.28393555 185.44238281 C143.37483742 185.34818054 143.37483742 185.34818054 144.48777771 185.2520752 C147.60477826 184.98293168 150.72254426 184.72322129 153.84033203 184.46337891 C156.11352929 184.27254493 158.38622337 184.07639605 160.65893555 183.87988281 C161.36933487 183.82255981 162.07973419 183.76523682 162.81166077 183.70617676 C166.14741781 183.67552343 166.14741781 183.67552343 168.9050293 182.16113281 C169.00523859 179.8816549 169.03584233 177.59906146 169.0378418 175.31738281 C169.03879852 174.63309204 169.03975525 173.94880127 169.04074097 173.24377441 C169.04142259 171.79451404 169.03956952 170.34525063 169.03540039 168.89599609 C169.03005182 166.67050353 169.0353459 164.4452128 169.04174805 162.21972656 C169.04108726 160.8147782 169.03980609 159.40982996 169.0378418 158.00488281 C169.03671387 156.71775391 169.03558594 155.430625 169.03442383 154.10449219 C169.24189073 151.27287124 169.24189073 151.27287124 167.9050293 150.16113281 C165.61452251 149.8966471 163.31703122 149.69229848 161.01831055 149.51269531 C159.59053797 149.39335978 158.16280475 149.27355272 156.73510742 149.15332031 C154.48196775 148.96831178 152.22872508 148.78699075 149.97460938 148.61425781 C147.80061135 148.44564543 145.62835611 148.26148188 143.45581055 148.07519531 C142.15297119 147.97158691 140.85013184 147.86797852 139.5078125 147.76123047 C135.75820152 147.13667644 133.14604751 146.12426384 129.9050293 144.16113281 C128.6550293 141.98925781 128.6550293 141.98925781 127.9050293 139.41113281 C126.42506885 134.78166978 124.8328592 130.23704339 123.0300293 125.72363281 C122.77914551 125.08844727 122.52826172 124.45326172 122.26977539 123.79882812 C120.58530754 119.61486176 118.64639824 115.64929032 116.5300293 111.66113281 C114.29217832 107.26198892 112.92243364 104.17237064 113.9050293 99.16113281 C116.48009549 94.13502884 119.38336424 90.21646125 123.2800293 86.16113281 C124.25182436 85.11987745 125.22318126 84.07821299 126.1940918 83.03613281 C127.78894929 81.34475657 129.38666154 79.65605031 130.9909668 77.97363281 C133.95114064 75.07945079 133.95114064 75.07945079 134.82519531 71.27148438 C133.55155186 68.35045122 131.70447928 66.62474412 129.43237305 64.39550781 C128.08369141 63.06132813 128.08369141 63.06132813 126.70776367 61.70019531 C125.76223633 60.77980469 124.81670898 59.85941406 123.8425293 58.91113281 C122.88285956 57.96651609 121.92386701 57.02121086 120.96557617 56.07519531 C118.61864102 53.76364109 116.26499539 51.45936941 113.9050293 49.16113281 C109.61786781 50.75188477 107.042104 52.61379122 103.7175293 55.78613281 C87.68057034 70.75830723 87.68057034 70.75830723 79.84643555 70.70800781 C75.19755086 69.84367334 71.27295768 67.56852419 67.14086914 65.36743164 C61.54469761 62.40079436 55.98040041 60.29310922 49.9831543 58.23925781 C39.69116454 54.63444922 39.69116454 54.63444922 37.75292969 51.00195312 C36.72261288 47.54996164 36.38743689 44.29908229 36.08862305 40.70800781 C36.02723648 40.00718079 35.96584991 39.30635376 35.90260315 38.58428955 C35.70861241 36.36045775 35.52480085 34.13595341 35.3425293 31.91113281 C35.15554831 29.67216152 34.96632693 27.43345324 34.77174377 25.19512939 C34.59658237 23.17481093 34.42920885 21.1538218 34.26220703 19.1328125 C34.22963822 16.27985132 34.22963822 16.27985132 32.9050293 15.16113281 C30.62555138 15.06092351 28.34295795 15.03031978 26.0612793 15.02832031 C25.37698853 15.02736359 24.69269775 15.02640686 23.9876709 15.02542114 C22.53841053 15.02473952 21.08914711 15.02659259 19.63989258 15.03076172 C17.41440002 15.03611029 15.18910929 15.03081621 12.96362305 15.02441406 C11.55867468 15.02507485 10.15372644 15.02635602 8.7487793 15.02832031 C7.46165039 15.02944824 6.17452148 15.03057617 4.84838867 15.03173828 C2.01676773 14.82427138 2.01676773 14.82427138 0.9050293 16.16113281 Z " fill="#000000" transform="translate(319.094970703125,26.8388671875)"/>
<path d="M0 0 C0.81126932 -0.00350607 1.62253864 -0.00701215 2.45839188 -0.01062447 C5.18214387 -0.01994277 7.90568226 -0.01501403 10.62944317 -0.01015663 C12.59986361 -0.01389267 14.57028258 -0.018494 16.54069918 -0.02388728 C21.9597368 -0.03613836 27.37871277 -0.03585432 32.79776108 -0.03349853 C38.64042785 -0.03309089 44.48307471 -0.04412435 50.32573223 -0.05361366 C61.77412273 -0.07023602 73.22249263 -0.07572376 84.67089418 -0.07683842 C93.97512101 -0.07778827 103.27934104 -0.08189543 112.58356571 -0.08823967 C115.26171054 -0.09003475 117.93985537 -0.09181438 120.61800021 -0.09358943 C121.61669011 -0.09425257 121.61669011 -0.09425257 122.63555556 -0.09492911 C141.36324012 -0.10723759 160.09092236 -0.11513023 178.81861115 -0.11424255 C179.52469529 -0.1142114 180.23077943 -0.11418024 180.95826006 -0.11414814 C184.536994 -0.11398192 188.11572793 -0.11378384 191.69446186 -0.11357872 C192.40521221 -0.11353883 193.11596255 -0.11349894 193.84825078 -0.11345784 C195.28556116 -0.11337697 196.72287153 -0.11329337 198.1601819 -0.11320706 C220.52306448 -0.11198151 242.88588641 -0.12699535 265.24875164 -0.15435219 C290.37291528 -0.18507429 315.49703907 -0.20228462 340.62122267 -0.20042574 C353.92414545 -0.19968459 367.22701117 -0.20527808 380.52991962 -0.22678185 C391.85546902 -0.24497173 403.18091902 -0.24935896 414.50647668 -0.235763 C420.2857884 -0.22922242 426.0649093 -0.22915564 431.844203 -0.2464695 C437.13491076 -0.26215675 442.42527571 -0.25938092 447.71597489 -0.24190123 C449.62980724 -0.23882177 451.5436649 -0.24249919 453.45746741 -0.25362138 C474.00849788 -0.36514369 474.00849788 -0.36514369 480.67452842 6.03658736 C484.32453812 9.99974762 487.05170636 13.82343563 487.11227703 19.34808922 C487.13141659 20.54017998 487.13141659 20.54017998 487.1509428 21.75635338 C487.15428127 23.03297844 487.15428127 23.03297844 487.15768719 24.33539391 C487.16434399 25.22079857 487.17100079 26.10620323 487.17785931 27.01843834 C487.1879751 28.89115895 487.19267666 30.76391553 487.19235516 32.63666344 C487.19671325 35.48347009 487.23300154 38.32870671 487.27096844 41.17523766 C487.27684007 42.99945114 487.28080714 44.82367194 487.28268719 46.64789391 C487.29705822 47.49088036 487.31142925 48.33386681 487.32623577 49.2023983 C487.27483235 55.9467626 485.60716057 61.43978035 480.78659344 66.31586266 C480.11757 66.77090172 479.44854656 67.22594078 478.75924969 67.69476891 C478.08764812 68.16785484 477.41604656 68.64094078 476.72409344 69.12836266 C473.69154446 70.92796564 471.14150837 71.387549 467.68918133 71.43427086 C466.44757999 71.45352371 466.44757999 71.45352371 465.18089581 71.47316551 C463.84489582 71.48424591 463.84489582 71.48424591 462.48190594 71.49555016 C461.56340359 71.5036219 460.64490124 71.51169365 459.69856548 71.52000999 C457.75600344 71.53383632 455.81341726 71.54456496 453.87082195 71.55243492 C450.89892111 71.56968375 447.9281226 71.61358648 444.95651531 71.65765953 C443.0691537 71.66778365 441.18178264 71.67630063 439.29440594 71.68305016 C438.40576351 71.70055824 437.51712109 71.71806633 436.6015501 71.73610497 C430.46942557 71.71451363 430.46942557 71.71451363 427.26095867 69.44940758 C425.14268674 66.22295064 425.28313609 64.02756406 425.82174969 60.25726891 C427.34518719 58.07221031 427.34518719 58.07221031 429.82174969 56.25726891 C432.6557661 55.86294818 435.11458982 55.69926131 437.94674969 55.71820641 C439.12261639 55.70051704 439.12261639 55.70051704 440.32223797 55.68247032 C442.82227771 55.64722563 445.3214819 55.6380432 447.82174969 55.63226891 C450.32176617 55.61591006 452.82141028 55.59383324 455.32126141 55.56064415 C456.87487487 55.54106431 458.42865873 55.53167387 459.98239422 55.53372765 C465.25894647 55.55624183 465.25894647 55.55624183 469.82174969 53.25726891 C472.02524651 48.07188582 471.00637167 41.27730736 471.00924969 35.75726891 C471.02149578 34.52105797 471.03374187 33.28484703 471.04635906 32.01117516 C471.04829266 30.82394859 471.05022625 29.63672203 471.05221844 28.41351891 C471.05632732 27.32877281 471.06043621 26.24402672 471.06466961 25.12640953 C470.82278144 22.26945502 470.3936133 20.63182304 468.82174969 18.25726891 C465.92534888 16.8090685 463.40257652 17.11583616 460.1653471 17.09905052 C459.4735179 17.09411254 458.7816887 17.08917457 458.06889498 17.08408695 C455.73960816 17.06867037 453.41034898 17.06034013 451.08102703 17.05194664 C449.41572608 17.04237138 447.75042757 17.03236151 446.08513165 17.02194786 C441.55441846 16.99485456 437.02369482 16.973869 432.49294519 16.95394588 C427.76167635 16.93211357 423.03043992 16.90471143 418.2991972 16.87788963 C409.33550019 16.82792541 400.37178523 16.78300044 391.40805304 16.73986727 C381.20503551 16.69052672 371.0020505 16.63559682 360.7990644 16.58018768 C339.80665497 16.46631038 318.81421573 16.36022183 297.82174969 16.25726891 C297.82174969 29.45726891 297.82174969 42.65726891 297.82174969 56.25726891 C300.98156414 56.23632164 304.14137859 56.21537437 307.396945 56.19379234 C317.82637579 56.12757127 328.25581577 56.08335301 338.68540096 56.05002022 C345.01009759 56.02912821 351.33457918 56.00078056 357.65915203 55.95551109 C363.76049958 55.91211174 369.86164003 55.88814396 375.96313 55.87775993 C378.29320569 55.870358 380.62326981 55.85590411 382.95325756 55.83434868 C386.21208139 55.80539404 389.47004489 55.80130968 392.72897625 55.80316734 C393.69642269 55.78878624 394.66386913 55.77440514 395.66063213 55.75958824 C402.16461746 55.79981748 402.16461746 55.79981748 405.42129803 58.06690025 C407.48777198 61.29895737 407.35742031 63.50757457 406.82174969 67.25726891 C404.61182861 70.2806956 403.41909513 71.16175544 399.68599296 71.75866556 C398.43725245 71.75931497 397.18851194 71.75996438 395.90193081 71.76063347 C395.20241387 71.76644723 394.50289693 71.77226099 393.78218251 71.77825093 C391.42627106 71.79290793 389.07139221 71.77894003 386.71548748 71.76520348 C385.01418881 71.76981019 383.31289412 71.77616156 381.61160779 71.78411245 C376.92713241 71.80086115 372.2429816 71.79253428 367.55850482 71.78016758 C362.50995412 71.77114172 357.46146044 71.78507473 352.41292095 71.79608727 C342.51798683 71.81390502 332.62317385 71.81001757 322.72823492 71.7984367 C314.68633983 71.7894134 306.64447876 71.7881736 298.60258007 71.79253197 C297.45920762 71.7931449 296.31583517 71.79375783 295.13781507 71.79438934 C292.81522605 71.79566821 290.49263703 71.79696506 288.17004803 71.7982797 C266.37241334 71.80969557 244.57484585 71.79655709 222.77722219 71.77507824 C204.07083957 71.75721593 185.36455628 71.76030229 166.65817547 71.77875328 C144.94622927 71.80015872 123.23434207 71.80858674 101.52238679 71.79630423 C99.20698532 71.79503001 96.89158385 71.79377253 94.57618237 71.79253197 C93.43691047 71.79191487 92.29763858 71.79129776 91.1238433 71.79066196 C83.09296288 71.78720737 75.06211986 71.79303997 67.03124523 71.80245018 C57.2419772 71.81366832 47.45283747 71.81063433 37.66358414 71.7893272 C32.66818614 71.7788129 27.67300206 71.7747014 22.67760563 71.78792381 C18.10418498 71.79984612 13.53117643 71.79328769 8.95779315 71.7720136 C7.30368048 71.76754675 5.64953297 71.7698157 3.99544272 71.77951676 C-13.50805388 71.87429422 -13.50805388 71.87429422 -20.23684406 65.22211266 C-20.91940266 64.2185775 -20.91940266 64.2185775 -21.61575031 63.19476891 C-22.32537922 62.18736656 -22.32537922 62.18736656 -23.04934406 61.15961266 C-26.79187896 54.85298811 -25.48319642 46.09275012 -25.52834797 38.95331383 C-25.54487329 37.03977836 -25.572118 35.12630374 -25.61037922 33.21307945 C-25.66545418 30.44233 -25.68707005 27.67302502 -25.70168781 24.90180016 C-25.72435719 24.05567665 -25.74702656 23.20955315 -25.77038288 22.33778954 C-25.7460526 15.41814648 -23.47298421 10.74657918 -18.73522663 5.72902489 C-13.11267913 0.66223367 -7.29871201 -0.04008104 0 0 Z M-9.17825031 19.25726891 C-10.93192256 24.51828566 -10.36288858 30.12629861 -10.36575031 35.63226891 C-10.37799641 36.86461266 -10.3902425 38.09695641 -10.40285969 39.36664391 C-10.40479328 40.55515953 -10.40672688 41.74367516 -10.40871906 42.96820641 C-10.41282795 44.05408043 -10.41693684 45.13995445 -10.42117023 46.25873375 C-10.17165841 49.33863752 -9.55179055 51.50158267 -8.17825031 54.25726891 C-4.80170461 56.88347112 -1.29803517 56.31002517 2.82174969 56.25726891 C5.51206496 51.04423676 8.19957784 45.8297734 10.88449383 40.61395836 C11.79843608 38.83947236 12.71314546 37.06538124 13.62863445 35.29169273 C14.94372051 32.74349075 16.25604934 30.19388555 17.56784344 27.64398766 C17.97828396 26.85014168 18.38872448 26.0562957 18.81160259 25.23839378 C19.19192135 24.49785255 19.5722401 23.75731133 19.96408367 22.99432945 C20.29939602 22.34369026 20.63470837 21.69305107 20.98018169 21.02269554 C21.94546256 19.09074425 21.94546256 19.09074425 22.82174969 16.25726891 C18.23853587 16.17022891 13.65553435 16.11686258 9.07174969 16.06976891 C7.76979656 16.04463219 6.46784344 16.01949547 5.12643719 15.99359703 C3.87604656 15.98392906 2.62565594 15.97426109 1.33737469 15.96430016 C0.18527508 15.94858971 -0.96682453 15.93287926 -2.15383625 15.91669273 C-5.49362249 16.29278264 -6.83184013 16.89113226 -9.17825031 19.25726891 Z M40.82174969 16.25726891 C38.13218114 21.47069799 35.4439238 26.68476001 32.75900555 31.90057945 C31.84506329 33.67506545 30.93035391 35.44915657 30.01486492 37.22284508 C28.69977886 39.77104706 27.38745003 42.32065226 26.07565594 44.87055016 C25.45999516 46.06131912 25.45999516 46.06131912 24.83189678 47.27614403 C24.45157803 48.01668526 24.07125927 48.75722649 23.6794157 49.52020836 C23.34410336 50.17084755 23.00879101 50.82148674 22.66331768 51.49184227 C21.69803681 53.42379356 21.69803681 53.42379356 20.82174969 56.25726891 C33.36174969 56.25726891 45.90174969 56.25726891 58.82174969 56.25726891 C61.35072634 51.36535952 63.87828807 46.47277107 66.40231609 41.57831383 C67.26087107 39.91447897 68.12023783 38.25106274 68.98044109 36.58807945 C70.21875997 34.19375769 71.45412429 31.79793153 72.68893719 29.40180016 C73.07234264 28.66202431 73.4557481 27.92224846 73.8507719 27.16005516 C74.21099438 26.4597065 74.57121685 25.75935783 74.94235516 25.03778648 C75.257682 24.4271183 75.57300884 23.81645012 75.89789104 23.18727684 C76.98040508 20.92582624 77.89060316 18.58513523 78.82174969 16.25726891 C66.28174969 16.25726891 53.74174969 16.25726891 40.82174969 16.25726891 Z M96.82174969 16.25726891 C94.13218114 21.47069799 91.4439238 26.68476001 88.75900555 31.90057945 C87.84506329 33.67506545 86.93035391 35.44915657 86.01486492 37.22284508 C84.69977886 39.77104706 83.38745003 42.32065226 82.07565594 44.87055016 C81.45999516 46.06131912 81.45999516 46.06131912 80.83189678 47.27614403 C80.45157803 48.01668526 80.07125927 48.75722649 79.6794157 49.52020836 C79.34410336 50.17084755 79.00879101 50.82148674 78.66331768 51.49184227 C77.69803681 53.42379356 77.69803681 53.42379356 76.82174969 56.25726891 C89.36174969 56.25726891 101.90174969 56.25726891 114.82174969 56.25726891 C117.35072634 51.36535952 119.87828807 46.47277107 122.40231609 41.57831383 C123.26087107 39.91447897 124.12023783 38.25106274 124.98044109 36.58807945 C126.21875997 34.19375769 127.45412429 31.79793153 128.68893719 29.40180016 C129.07234264 28.66202431 129.4557481 27.92224846 129.8507719 27.16005516 C130.21099438 26.4597065 130.57121685 25.75935783 130.94235516 25.03778648 C131.257682 24.4271183 131.57300884 23.81645012 131.89789104 23.18727684 C132.98040508 20.92582624 133.89060316 18.58513523 134.82174969 16.25726891 C122.28174969 16.25726891 109.74174969 16.25726891 96.82174969 16.25726891 Z M152.82174969 16.25726891 C150.13218114 21.47069799 147.4439238 26.68476001 144.75900555 31.90057945 C143.84506329 33.67506545 142.93035391 35.44915657 142.01486492 37.22284508 C140.69977886 39.77104706 139.38745003 42.32065226 138.07565594 44.87055016 C137.45999516 46.06131912 137.45999516 46.06131912 136.83189678 47.27614403 C136.45157803 48.01668526 136.07125927 48.75722649 135.6794157 49.52020836 C135.34410336 50.17084755 135.00879101 50.82148674 134.66331768 51.49184227 C133.69803681 53.42379356 133.69803681 53.42379356 132.82174969 56.25726891 C145.36174969 56.25726891 157.90174969 56.25726891 170.82174969 56.25726891 C173.35072634 51.36535952 175.87828807 46.47277107 178.40231609 41.57831383 C179.26087107 39.91447897 180.12023783 38.25106274 180.98044109 36.58807945 C182.21875997 34.19375769 183.45412429 31.79793153 184.68893719 29.40180016 C185.07234264 28.66202431 185.4557481 27.92224846 185.8507719 27.16005516 C186.21099438 26.4597065 186.57121685 25.75935783 186.94235516 25.03778648 C187.257682 24.4271183 187.57300884 23.81645012 187.89789104 23.18727684 C188.98040508 20.92582624 189.89060316 18.58513523 190.82174969 16.25726891 C178.28174969 16.25726891 165.74174969 16.25726891 152.82174969 16.25726891 Z M207.80270672 17.5529232 C206.40235209 19.71469514 205.67028532 21.82272457 204.82174969 24.25726891 C203.92818399 25.9772851 203.03238455 27.69638872 202.10612774 29.39902306 C201.07782595 31.29440049 200.08402657 33.20426664 199.09909344 35.12250328 C197.73655593 37.77598734 196.36961158 40.42706543 194.99753094 43.07562828 C191.56441244 49.51564539 191.56441244 49.51564539 188.82174969 56.25726891 C201.36174969 56.25726891 213.90174969 56.25726891 226.82174969 56.25726891 C232.28320966 45.62309428 232.28320966 45.62309428 237.74093914 34.98700523 C238.43050222 33.64603453 239.12019114 32.30512853 239.81003094 30.96430016 C240.16174358 30.27735069 240.51345623 29.59040123 240.87582684 28.88263512 C242.36549886 25.99048884 243.8711824 23.176609 245.57248211 20.40057945 C246.98960674 18.38275371 246.98960674 18.38275371 246.82174969 16.25726891 C241.64416083 16.05911286 236.46878783 15.91417001 231.28830242 15.81781578 C229.52749465 15.77764649 227.76695274 15.72309607 226.00705242 15.65375328 C216.53078148 14.88835388 216.53078148 14.88835388 207.80270672 17.5529232 Z M265.82174969 16.25726891 C262.87038577 19.23184145 262.26788022 20.50865108 260.82174969 24.25726891 C259.88671226 26.10932775 258.90447292 27.9322785 257.92059612 29.7588253 C256.44718257 32.50442969 255.02973755 35.2775518 253.60861492 38.0504818 C252.49835341 40.21602185 251.38212251 42.37840823 250.26510906 44.54047203 C249.55838015 45.91333945 248.85198729 47.28637994 248.14596844 48.65961266 C247.64452564 49.63135681 247.64452564 49.63135681 247.13295269 50.62273216 C245.51657752 53.30852808 245.51657752 53.30852808 244.82174969 56.25726891 C257.03174969 56.25726891 269.24174969 56.25726891 281.82174969 56.25726891 C281.82174969 43.05726891 281.82174969 29.85726891 281.82174969 16.25726891 C276.54174969 16.25726891 271.26174969 16.25726891 265.82174969 16.25726891 Z " fill="#000000" transform="translate(25.178250312805176,413.74273109436035)"/>
<path d="M0 0 C0.78058273 -0.00570007 1.56116547 -0.01140015 2.36540222 -0.01727295 C4.01710661 -0.0267145 5.66882977 -0.03325358 7.32055664 -0.03710938 C9.83578762 -0.04679918 12.35019566 -0.07782301 14.86523438 -0.109375 C16.47265142 -0.11590714 18.08007428 -0.12115678 19.6875 -0.125 C20.80811577 -0.1435202 20.80811577 -0.1435202 21.95137024 -0.16241455 C26.73953186 -0.14219287 29.97690516 0.67515185 34.04296875 3.203125 C39.82381136 9.30512553 40.4741729 15.46873053 41.16796875 23.515625 C41.25433594 24.44697266 41.34070313 25.37832031 41.4296875 26.33789062 C41.6408768 28.62577473 41.84508141 30.91405846 42.04296875 33.203125 C42.81769531 33.49832031 43.59242188 33.79351562 44.390625 34.09765625 C47.04296875 35.203125 47.04296875 35.203125 49.48046875 36.890625 C52.87077242 38.627122 54.36269477 38.07581272 58.04296875 37.203125 C60.31464094 36.23147374 62.56423489 35.20708928 64.79296875 34.140625 C71.36422787 31.18360181 76.95568162 29.64952234 84 31.80078125 C92.22121327 35.65167635 96.52041628 46.51699515 100.85546875 54.015625 C101.34466797 54.84771484 101.83386719 55.67980469 102.33789062 56.53710938 C103.03688477 57.74270508 103.03688477 57.74270508 103.75 58.97265625 C104.37612183 60.04930542 104.37612183 60.04930542 105.01489258 61.14770508 C107.58861805 66.29332246 107.85707531 71.65225779 106.10546875 77.140625 C101.48717246 83.99809525 94.01595006 89.78857568 87.04296875 94.203125 C86.38296875 94.203125 85.72296875 94.203125 85.04296875 94.203125 C85.18559287 95.7659212 85.33222386 97.32835196 85.48046875 98.890625 C85.56167969 99.76074219 85.64289063 100.63085938 85.7265625 101.52734375 C85.83097656 102.41035156 85.93539062 103.29335938 86.04296875 104.203125 C86.0790625 105.03457031 86.11515625 105.86601562 86.15234375 106.72265625 C87.52008787 110.5319436 90.58589153 112.10008036 93.85546875 114.203125 C99.88046601 118.14989905 104.96833274 121.94189898 107.04296875 129.203125 C107.42546137 134.60988508 106.61493955 137.92318062 104.10546875 142.703125 C103.79625488 143.29407959 103.48704102 143.88503418 103.16845703 144.49389648 C100.69726073 149.14645742 98.08465881 153.72275009 95.41796875 158.265625 C95.05840088 158.884375 94.69883301 159.503125 94.32836914 160.140625 C91.27891666 165.20710911 88.27182502 169.27793938 82.73046875 171.578125 C74.25782866 173.01416569 68.14908198 170.18982096 60.77929688 166.46679688 C56.68885428 164.50531615 56.68885428 164.50531615 52.2890625 164.87109375 C51.17724609 165.53044922 51.17724609 165.53044922 50.04296875 166.203125 C49.388125 166.533125 48.73328125 166.863125 48.05859375 167.203125 C44.44421601 169.0737904 44.44421601 169.0737904 42.04296875 172.203125 C41.80266146 173.7239294 41.60451633 175.25153484 41.4296875 176.78125 C41.25856445 178.15216797 41.25856445 178.15216797 41.08398438 179.55078125 C40.850351 181.46889838 40.62621632 183.38819898 40.41210938 185.30859375 C39.67970325 191.0157584 38.77219708 194.76356747 35.04296875 199.203125 C28.14035472 204.20752017 20.63272699 203.42161911 12.45385742 203.44335938 C10.24814891 203.45304734 8.04338007 203.48408633 5.83789062 203.515625 C4.4205784 203.52215792 3.00325957 203.52740726 1.5859375 203.53125 C0.3074292 203.5405957 -0.9710791 203.54994141 -2.28833008 203.55957031 C-7.68593515 203.03514738 -11.48915094 201.37742925 -15.76953125 197.953125 C-19.72848581 192.97615355 -20.06867803 187.6141783 -20.28417969 181.48925781 C-20.54966971 173.90979963 -20.54966971 173.90979963 -24.3203125 167.62890625 C-28.46313091 165.2239413 -31.1649256 163.76562662 -35.94921875 164.93359375 C-38.92129627 166.18804205 -41.88391353 167.4557849 -44.83203125 168.765625 C-51.12526446 171.38392079 -56.30905518 173.24779702 -63.08203125 171.203125 C-71.35496984 167.45386555 -75.4935919 158.37562113 -79.76953125 150.828125 C-80.35412109 149.838125 -80.93871094 148.848125 -81.54101562 147.828125 C-85.61634291 140.66914914 -88.10709686 134.4338784 -86.20703125 126.203125 C-83.50085921 119.9263093 -76.59110593 115.09807989 -70.6796875 112.015625 C-68.43632875 110.96226046 -68.43632875 110.96226046 -65.95703125 108.203125 C-64.45798783 103.18068892 -64.34273505 99.20417099 -65.95703125 94.203125 C-68.87041365 90.84607485 -72.60436943 88.70218002 -76.40625 86.484375 C-81.03808885 83.73862093 -83.99487286 80.21491072 -86.33203125 75.328125 C-88.20224714 65.97704554 -83.70998558 59.36637109 -79.14453125 51.515625 C-78.51482422 50.40123047 -77.88511719 49.28683594 -77.23632812 48.13867188 C-68.97635666 33.67288765 -68.97635666 33.67288765 -61.95703125 31.203125 C-54.2970215 29.60972603 -48.29601174 32.43603692 -41.57861328 35.80029297 C-38.66676413 37.22219224 -36.54606072 38.24593237 -33.26953125 38.0078125 C-32.50640625 37.74226563 -31.74328125 37.47671875 -30.95703125 37.203125 C-30.16941406 37.01878906 -29.38179687 36.83445313 -28.5703125 36.64453125 C-25.6099172 35.51365019 -24.05720968 34.61896151 -21.95703125 32.203125 C-20.66315057 27.82154852 -20.5730368 23.28237739 -20.37109375 18.74609375 C-20.07139986 13.69603604 -19.03631899 8.50260637 -15.54150391 4.63769531 C-10.54453559 0.31058253 -6.33177023 0.03572895 0 0 Z M-3.95703125 16.203125 C-4.78355419 24.2485801 -4.78355419 24.2485801 -5.57128906 32.29785156 C-5.68311523 33.30299805 -5.79494141 34.30814453 -5.91015625 35.34375 C-6.01489258 36.37016602 -6.11962891 37.39658203 -6.22753906 38.45410156 C-7.42135282 42.95287765 -10.08602228 44.68997243 -13.98046875 46.984375 C-15.08648437 47.5515625 -16.1925 48.11875 -17.33203125 48.703125 C-20.76718301 50.47299242 -23.86178387 52.13012701 -26.93359375 54.484375 C-30.93549565 56.75935799 -32.53729129 56.38756001 -36.95703125 55.203125 C-40.33000891 53.9781904 -43.61097358 52.58638917 -46.89453125 51.140625 C-48.20647461 50.57504883 -48.20647461 50.57504883 -49.54492188 49.99804688 C-51.68567801 49.07389532 -53.82276772 48.1421499 -55.95703125 47.203125 C-60.03153588 50.7909792 -62.54132028 55.07890554 -65.26953125 59.703125 C-65.73681641 60.46238281 -66.20410156 61.22164063 -66.68554688 62.00390625 C-67.12189453 62.73996094 -67.55824219 63.47601563 -68.0078125 64.234375 C-68.60589722 65.23307617 -68.60589722 65.23307617 -69.21606445 66.25195312 C-70.16357336 68.74700788 -70.04352171 69.77335385 -68.95703125 72.203125 C-67.19959219 73.90260462 -67.19959219 73.90260462 -64.95703125 75.3671875 C-64.15265625 75.93179688 -63.34828125 76.49640625 -62.51953125 77.078125 C-61.25109375 77.944375 -61.25109375 77.944375 -59.95703125 78.828125 C-58.28783422 79.98333148 -56.62103751 81.14201646 -54.95703125 82.3046875 C-54.21453125 82.81338379 -53.47203125 83.32208008 -52.70703125 83.84619141 C-50.95703125 85.203125 -50.95703125 85.203125 -49.95703125 87.203125 C-49.53647482 91.21231088 -49.38740999 95.22103674 -49.27734375 99.24975586 C-49.20808159 101.23551156 -49.07520953 103.21871894 -48.94140625 105.20117188 C-48.71032885 114.68978759 -48.71032885 114.68978759 -52.27661133 119.01879883 C-55.07256044 121.32567434 -57.87930729 123.29292129 -60.95703125 125.203125 C-62.68777686 126.38832255 -64.41723887 127.57540037 -66.14453125 128.765625 C-67.41138788 129.58431168 -68.68060083 130.39944659 -69.95703125 131.203125 C-69.37985747 134.91598917 -68.36304919 137.62054296 -66.453125 140.84765625 C-65.71352539 142.10932617 -65.71352539 142.10932617 -64.95898438 143.39648438 C-64.44271484 144.26080078 -63.92644531 145.12511719 -63.39453125 146.015625 C-62.87439453 146.89927734 -62.35425781 147.78292969 -61.81835938 148.69335938 C-60.53759175 150.86713928 -59.25034785 153.03679587 -57.95703125 155.203125 C-51.99967786 154.54326214 -47.28306943 152.22736906 -41.96679688 149.64257812 C-37.46774602 147.55912504 -34.01080921 146.53083344 -28.95703125 147.203125 C-25.640625 148.84765625 -25.640625 148.84765625 -22.39453125 151.015625 C-15.68970038 155.99342139 -15.68970038 155.99342139 -7.95703125 158.203125 C-7.47618859 161.36953949 -6.99766831 164.53630093 -6.51953125 167.703125 C-6.38482422 168.59 -6.25011719 169.476875 -6.11132812 170.390625 C-5.48862588 174.52172285 -4.8953553 178.64581487 -4.421875 182.796875 C-4.33031205 186.03151146 -4.33031205 186.03151146 -2.95703125 187.203125 C-1.04244843 187.30284286 0.87579192 187.33393089 2.79296875 187.3359375 C4.5409375 187.33787109 4.5409375 187.33787109 6.32421875 187.33984375 C7.55140625 187.33597656 8.77859375 187.33210937 10.04296875 187.328125 C11.27015625 187.33199219 12.49734375 187.33585938 13.76171875 187.33984375 C14.92703125 187.33855469 16.09234375 187.33726562 17.29296875 187.3359375 C18.370625 187.33480957 19.44828125 187.33368164 20.55859375 187.33251953 C22.98516872 187.48404871 22.98516872 187.48404871 24.04296875 186.203125 C24.28072905 184.48480056 24.46300517 182.75872702 24.62109375 181.03125 C24.73066406 179.97421875 24.84023437 178.9171875 24.953125 177.828125 C25.17797747 175.59510739 25.38913605 173.36066443 25.5859375 171.125 C26.46302629 163.00453749 26.46302629 163.00453749 29.2421875 159.1640625 C32.27609178 157.03990637 35.30206355 155.25470841 38.60546875 153.578125 C43.03670205 151.37913644 43.03670205 151.37913644 47.0078125 148.4921875 C50.18756124 146.47814319 52.32664606 146.77764935 56.04296875 147.203125 C59.37532358 148.34056688 62.54017975 149.78078964 65.73046875 151.265625 C67.39620518 152.03786296 69.06665046 152.80004499 70.7421875 153.55078125 C71.83793091 154.06137085 71.83793091 154.06137085 72.95581055 154.58227539 C75.51491392 155.34351061 76.62004018 155.33462617 79.04296875 154.203125 C80.69790305 152.13544067 80.69790305 152.13544067 82.05859375 149.51171875 C82.58710938 148.56748047 83.115625 147.62324219 83.66015625 146.65039062 C84.19898438 145.65716797 84.7378125 144.66394531 85.29296875 143.640625 C86.12441406 142.14499023 86.12441406 142.14499023 86.97265625 140.61914062 C88.34123152 138.15334552 89.69729959 135.68147288 91.04296875 133.203125 C87.14514503 129.05602186 82.93019382 125.79920923 78.29296875 122.515625 C76.94128023 121.55722438 75.59218154 120.59515739 74.24609375 119.62890625 C73.65473633 119.21036377 73.06337891 118.79182129 72.45410156 118.3605957 C71.04296875 117.203125 71.04296875 117.203125 70.04296875 115.203125 C69.71670042 110.6052195 69.7183799 105.99866275 69.66796875 101.390625 C69.61189453 99.46379883 69.61189453 99.46379883 69.5546875 97.49804688 C69.54308594 96.25990234 69.53148437 95.02175781 69.51953125 93.74609375 C69.49971191 92.61196045 69.47989258 91.47782715 69.45947266 90.30932617 C70.34641281 85.58776149 73.21198378 83.6206539 76.87988281 80.78100586 C77.43385742 80.41370361 77.98783203 80.04640137 78.55859375 79.66796875 C79.47511719 79.04245117 79.47511719 79.04245117 80.41015625 78.40429688 C81.67795267 77.55340031 82.94886156 76.707125 84.22265625 75.86523438 C87.62207905 73.63223978 87.62207905 73.63223978 89.88745117 70.36450195 C90.10579365 67.32998711 89.05529283 65.82189972 87.515625 63.21875 C86.97099609 62.28417969 86.42636719 61.34960938 85.86523438 60.38671875 C85.28451172 59.41863281 84.70378906 58.45054687 84.10546875 57.453125 C83.52861328 56.46957031 82.95175781 55.48601562 82.35742188 54.47265625 C80.93015641 52.04276628 79.49176769 49.6202167 78.04296875 47.203125 C71.21868509 49.35571234 64.93349826 52.01715856 58.47265625 55.09375 C54.42561043 56.40281721 52.14344564 56.25645851 48.04296875 55.203125 C45.26953125 53.75 45.26953125 53.75 42.66796875 51.953125 C39.17056389 49.56041767 35.85493154 47.65015218 31.98046875 45.953125 C29.37874703 44.5133822 28.28259982 43.76796968 27.11328125 41.01171875 C26.54322291 38.06934072 26.27743843 35.19173859 26.04296875 32.203125 C25.78787679 30.10394105 25.51055682 28.00847739 25.22973633 25.91259766 C24.80918452 22.6792557 24.43035981 19.44060739 24.04296875 16.203125 C14.80296875 16.203125 5.56296875 16.203125 -3.95703125 16.203125 Z " fill="#000000" transform="translate(94.95703125,197.796875)"/>
<path d="M0 0 C18.73228135 15.70424221 31.91748671 35.50419595 35 60.3125 C36.47251377 88.80332247 29.81295141 112.5278237 10.53515625 134.06640625 C-4.98359927 150.45111289 -26.60063755 160.72780024 -49.3125 161.515625 C-74.14787643 161.9302081 -96.14044549 154.86526603 -115 138.3125 C-115.74894531 137.65894531 -116.49789063 137.00539063 -117.26953125 136.33203125 C-133.75424562 120.94437318 -143.05001347 98.72762349 -144.203125 76.375 C-144.58030654 56.85466181 -140.36704921 37.53167094 -129 21.3125 C-128.36964844 20.39082031 -127.73929687 19.46914062 -127.08984375 18.51953125 C-122.10105231 11.70439997 -122.10105231 11.70439997 -117.3125 10 C-113.68055815 10.34263602 -111.84267276 11.0550834 -109 13.3125 C-107.56429493 16.18391014 -107.68565193 18.11918367 -108 21.3125 C-109.7578125 24.28515625 -109.7578125 24.28515625 -112.125 27.375 C-124.06258236 43.64412542 -129.21667471 62.92307046 -126.50390625 82.98046875 C-122.54903753 103.11231459 -111.9651147 120.78344744 -94.93359375 132.5 C-77.25814291 143.42065139 -57.57911049 147.25496619 -37.3125 142.75 C-25.57135949 139.83994077 -15.04094394 134.40176563 -6 126.3125 C-4.87851562 125.33023438 -4.87851562 125.33023438 -3.734375 124.328125 C9.29825574 112.18206778 17.33581031 94.7939095 18.25390625 77.03125 C18.91963478 57.4475681 14.01520553 38.37079883 0.4375 23.6875 C-1.33910025 21.85163963 -3.15522231 20.08203751 -5 18.3125 C-5.60585938 17.71050781 -6.21171875 17.10851562 -6.8359375 16.48828125 C-21.61757255 2.75217648 -41.17156494 -1.46497631 -60.70214844 -0.83251953 C-67.81775645 -0.38344695 -74.77804808 1.31519399 -81.375 4 C-85.72127959 5.57365295 -88.41798811 5.77846731 -93 5.3125 C-95.73883355 3.72220955 -95.94967699 2.47784703 -96.875 -0.5625 C-97.03142617 -4.47315436 -96.56562006 -5.73314962 -94 -8.6875 C-66.42563962 -26.18661332 -24.62308558 -19.00049124 0 0 Z " fill="#000000" transform="translate(391,121.6875)"/>
<path d="M0 0 C7.82724529 7.41276794 11.72927089 16.48733665 12.35546875 27.19140625 C11.92025384 37.31015295 8.17592833 46.74418186 0.91796875 53.81640625 C-7.57113531 60.76342486 -16.99918022 64.41073353 -28.00390625 63.6015625 C-37.49738925 62.33656794 -44.70052466 59.0842332 -51.08203125 51.81640625 C-51.92765625 50.92953125 -52.77328125 50.04265625 -53.64453125 49.12890625 C-60.32040778 40.72068201 -61.19718542 31.24115356 -60.36132812 20.86572266 C-59.19275043 12.291386 -54.83995369 4.5149832 -48.046875 -0.765625 C-32.71395023 -11.57494246 -14.88491872 -11.85445622 0 0 Z M-37.95703125 12.25390625 C-43.66610892 19.13838226 -44.75139203 23.87014196 -44.08203125 32.81640625 C-42.29223153 38.63325533 -38.10947881 42.56134698 -33.08203125 45.81640625 C-27.08208137 48.26654655 -22.03156656 48.21476562 -16.05078125 45.79296875 C-10.63896174 43.10853447 -7.33913096 39.41489866 -5.08203125 33.81640625 C-3.29688983 27.65995699 -4.16023961 22.8338742 -6.7890625 17.046875 C-9.89212008 11.6938663 -14.47021004 9.36206818 -20.15234375 7.296875 C-26.57959102 5.69656849 -33.07703621 8.11651915 -37.95703125 12.25390625 Z " fill="#000000" transform="translate(361.08203125,166.18359375)"/>
<path d="M0 0 C8.09068757 6.1163389 13.3660409 14.79485715 15.2890625 24.73046875 C16.17537138 37.46532792 14.55172905 47.73966279 6.2890625 57.73046875 C-0.8321728 65.28085571 -8.91696024 70.35897893 -19.42578125 70.93359375 C-20.83326123 70.95473899 -22.24083612 70.97020365 -23.6484375 70.98046875 C-24.35162109 71.00109375 -25.05480469 71.02171875 -25.77929688 71.04296875 C-30.29731356 71.07684329 -33.14367141 70.5422365 -36.7109375 67.73046875 C-38.7109375 64.73046875 -38.7109375 64.73046875 -38.5234375 61.23046875 C-37.43678672 56.54951156 -37.43678672 56.54951156 -34.7109375 54.73046875 C-31.931085 54.45393892 -29.30460767 54.32090826 -26.5234375 54.29296875 C-17.92094049 53.97739659 -12.36706006 52.83068822 -6.3359375 46.35546875 C-2.24735017 41.10030079 -1.17721835 35.96754957 -1.3359375 29.390625 C-2.21829816 23.13137909 -5.07878543 17.57213843 -10.1484375 13.73046875 C-16.18574423 10.04027911 -21.96474559 8.68483611 -28.98046875 10.23046875 C-36.70935763 12.48633018 -40.61552942 16.85603375 -44.7109375 23.73046875 C-46.26738054 28.24117946 -45.68555807 32.93570333 -45.55078125 37.63671875 C-45.70762359 40.66645367 -46.065196 42.22684073 -47.7109375 44.73046875 C-50.40681553 46.82726278 -51.8038815 46.72557696 -55.2734375 46.54296875 C-59.97433719 45.431847 -59.97433719 45.431847 -61.7109375 42.73046875 C-64.14761763 32.82931078 -63.30716116 22.55130629 -58.5390625 13.5078125 C-52.63786363 3.76354894 -45.25192946 -2.87913806 -34.1484375 -6.20703125 C-21.88694915 -9.00717256 -10.58281294 -6.80323689 0 0 Z " fill="#000000" transform="translate(128.7109375,267.26953125)"/>
</svg>
