<?xml version="1.0" encoding="UTF-8"?>
<svg version="1.1" xmlns="http://www.w3.org/2000/svg" width="2048" height="2048">
<path d="M0 0 C675.84 0 1351.68 0 2048 0 C2048 675.84 2048 1351.68 2048 2048 C1372.16 2048 696.32 2048 0 2048 C0 1372.16 0 696.32 0 0 Z " fill="#FEFEFE" transform="translate(0,0)"/>
<path d="M0 0 C3.09511216 0.00008077 6.19007474 -0.00679896 9.28515625 -0.02050781 C46.45746996 -0.18246842 82.68805514 2.89337137 119.42211914 8.62280273 C120.36469574 8.76801361 121.30727234 8.91322449 122.27841187 9.06283569 C133.21587728 10.75673473 143.8885244 12.757026 154.59194946 15.59671021 C158.16113381 16.52312169 161.74616517 17.38260028 165.33026123 18.24920654 C193.15166232 24.97678456 220.66589945 32.23962475 247.85961914 41.18530273 C248.53001221 41.40488647 249.20040527 41.62447021 249.89111328 41.85070801 C278.91361329 51.3681863 306.7974533 63.02503087 334.85961914 75.18530273 C334.85961914 284.73530273 334.85961914 494.28530273 334.85961914 710.18530273 C330.90713122 709.39480515 328.26010209 708.61113121 324.68774414 706.98999023 C323.65085449 706.52858643 322.61396484 706.06718262 321.5456543 705.59179688 C320.4117627 705.08640381 319.27787109 704.58101074 318.10961914 704.06030273 C305.73714659 698.64349469 293.18003579 693.85262081 280.48461914 689.24780273 C279.61293091 688.93155945 278.74124268 688.61531616 277.84313965 688.28948975 C272.91669597 686.50538535 267.98534468 684.73538867 263.05136108 682.97225952 C261.01367334 682.24061673 258.97960519 681.49990322 256.94677734 680.75488281 C249.63495431 678.09261901 242.30786873 675.77799806 234.79711914 673.74780273 C232.59118008 673.14309914 230.3854535 672.53761997 228.17993164 671.93139648 C227.10259766 671.63604004 226.02526367 671.34068359 224.9152832 671.03637695 C222.23925385 670.29103992 219.57518513 669.51784688 216.91430664 668.72045898 C186.73809021 659.70069982 155.8677419 653.52957962 124.85961914 648.18530273 C123.80355469 647.9987915 122.74749023 647.81228027 121.65942383 647.62011719 C108.22660378 645.29399527 94.65219927 643.91219036 81.10516357 642.43389893 C78.99708955 642.20052159 76.89044762 641.95723137 74.78393555 641.71020508 C30.86444124 636.68133853 -15.24391079 637.10180553 -59.14038086 642.18530273 C-59.88004089 642.2701593 -60.61970093 642.35501587 -61.3817749 642.44244385 C-100.26438079 646.9533498 -139.95731165 653.57434415 -176.92553711 666.76342773 C-180.40201211 667.98993091 -183.92276491 668.95084967 -187.48022461 669.91577148 C-195.60312841 672.20874933 -203.40198398 675.20654977 -211.24780273 678.30371094 C-213.662361 679.25647592 -216.08069275 680.1991197 -218.49975586 681.14038086 C-220.05727431 681.74982765 -221.61457421 682.35983331 -223.17163086 682.97045898 C-223.88420044 683.24865982 -224.59677002 683.52686066 -225.33093262 683.81349182 C-228.46581716 685.05402899 -231.44609075 686.34237359 -234.45092773 687.88623047 C-237.14038086 689.18530273 -237.14038086 689.18530273 -240.14038086 689.18530273 C-240.14038086 477.98530273 -240.14038086 266.78530273 -240.14038086 49.18530273 C-213.38236259 37.55138175 -213.38236259 37.55138175 -199.45288086 33.06030273 C-197.90422909 32.55318547 -196.35564656 32.04585671 -194.80712891 31.53833008 C-151.2501945 17.34848758 -106.22137806 6.62253443 -60.57788086 2.06030273 C-59.44684937 1.94658325 -59.44684937 1.94658325 -58.29296875 1.83056641 C-38.89432776 0.04648142 -19.46112614 -0.00267153 0 0 Z " fill="#FE0202" transform="translate(824.140380859375,331.814697265625)"/>
<path d="M0 0 C0 219.78 0 439.56 0 666 C-85.70278987 708.85139494 -179.61859173 728.90268554 -356 722 C-357.17788086 721.84805176 -358.35576172 721.69610352 -359.56933594 721.53955078 C-411.35069329 714.73017438 -462.72285353 702.24573969 -512 685 C-512 684.34 -512 683.68 -512 683 C-511.26177002 682.6690332 -510.52354004 682.33806641 -509.76293945 681.99707031 C-475.59740517 666.60523362 -444.10427023 648.15546263 -417 622 C-416.41154297 621.43345703 -415.82308594 620.86691406 -415.21679688 620.28320312 C-391.6505006 598.20160942 -391.6505006 598.20160942 -380.86938947 569.11124253 C-380.8616101 567.48958467 -380.85935621 565.86789495 -380.8613348 564.24621964 C-380.85707147 562.89957205 -380.85707147 562.89957205 -380.85272202 561.52571946 C-380.84435261 558.4958359 -380.84310505 555.46599045 -380.84178162 552.43609619 C-380.8372178 550.25062365 -380.83221804 548.06515198 -380.82681805 545.87968135 C-380.81320704 539.85728812 -380.80581002 533.83490055 -380.79939139 527.81249595 C-380.79140044 521.32442798 -380.77769818 514.83637185 -380.76467896 508.34831238 C-380.74272595 497.1016913 -380.72472468 485.85506809 -380.70907402 474.60843658 C-380.69264184 462.81102294 -380.67416281 451.01361545 -380.65294075 439.21620941 C-380.65162314 438.48310692 -380.65030554 437.75000444 -380.648948 436.99468672 C-380.64224606 433.27173874 -380.63550746 429.54879083 -380.62875474 425.82584295 C-380.58097197 399.44558745 -380.53779261 373.06532622 -380.49731445 346.68505859 C-380.45797617 321.0545205 -380.41655646 295.42398715 -380.37231445 269.79345703 C-380.37095192 269.00362756 -380.36958939 268.21379809 -380.36818558 267.40003439 C-380.35450038 259.46835424 -380.34077283 251.53667417 -380.32701423 243.60499415 C-380.29898652 227.44676654 -380.27124159 211.28853845 -380.2436676 195.13031006 C-380.2423994 194.38735558 -380.2411312 193.6444011 -380.23982458 192.87893284 C-380.15514652 143.25262959 -380.07708125 93.62631557 -380 44 C-378.078137 44.31995211 -376.15629063 44.64000407 -374.23445129 44.96009827 C-373.16422132 45.13831651 -372.09399134 45.31653475 -370.99133015 45.50015354 C-367.68413992 46.05277971 -364.37888585 46.61608459 -361.07421875 47.18359375 C-345.75681533 49.79463206 -330.45164288 52.31474452 -315 54 C-313.77861328 54.13680176 -312.55722656 54.27360352 -311.29882812 54.41455078 C-271.31328104 58.79981633 -230.97375827 58.18228273 -191 54 C-190.31605164 53.92974609 -189.63210327 53.85949219 -188.9274292 53.78710938 C-125.99494108 47.28163465 -60.16658795 30.34591708 -3.92358398 0.89160156 C-2 0 -2 0 0 0 Z " fill="#FD0201" transform="translate(1572,477)"/>
<path d="M0 0 C1.03511719 -0.00241196 2.07023437 -0.00482391 3.13671875 -0.00730896 C5.31514332 -0.00633381 7.4935937 0.00697993 9.671875 0.03198242 C12.99044691 0.06630744 16.30635455 0.05261759 19.625 0.03320312 C21.75001124 0.04010212 23.87501566 0.04977499 26 0.0625 C26.98355469 0.05754013 27.96710937 0.05258026 28.98046875 0.04747009 C35.94445239 0.1654751 41.75051647 1.42081742 46.83984375 6.4453125 C47.38318359 7.30962891 47.38318359 7.30962891 47.9375 8.19140625 C48.31777344 8.77019531 48.69804688 9.34898437 49.08984375 9.9453125 C50.70306239 12.92942081 51.12496386 15.41440249 51.12467116 18.73848648 C51.12702406 19.5813454 51.12937696 20.42420433 51.13180115 21.29260443 C51.12929228 22.22121746 51.1267834 23.14983048 51.1241985 24.1065833 C51.12547658 25.09650435 51.12675467 26.08642541 51.12807148 27.10634408 C51.13116269 30.46248388 51.12705422 33.81857767 51.12304783 37.174716 C51.12378674 39.59992037 51.12496455 42.02512465 51.12654433 44.45032862 C51.12898348 49.76002659 51.12827952 55.06971072 51.12488318 60.37940719 C51.11981861 68.32818835 51.12050777 76.27696181 51.12234976 84.22574399 C51.12532042 97.77036684 51.12353709 111.31498539 51.11920547 124.8596077 C51.11483295 138.59249865 51.11263224 152.32538737 51.11310768 166.05827904 C51.11313637 166.92448111 51.11316507 167.79068318 51.11319463 168.68313379 C51.113351 173.09961587 51.11354294 177.51609794 51.11374746 181.93258001 C51.11515634 213.92982316 51.11171937 245.92706433 51.10573006 277.92430687 C51.09981131 309.62020057 51.09595571 341.31609343 51.09487724 373.01198769 C51.09484283 373.99567024 51.09480842 374.97935279 51.09477296 375.9928439 C51.09445977 384.97702549 51.09417208 393.96120708 51.09391499 402.94538867 C51.09327552 425.28089802 51.09231616 447.61640736 51.09113979 469.95191669 C51.09105982 471.47772569 51.09105982 471.47772569 51.09097823 473.03435911 C51.08835554 522.53779897 51.0820475 572.04123827 51.07543945 621.54467773 C51.07314783 638.72743733 51.07087248 655.91019693 51.06866455 673.09295654 C51.0685276 674.15860627 51.06839065 675.22425599 51.06824955 676.32219813 C51.06190763 725.8445077 51.05818058 775.36681736 51.05512976 824.88912723 C51.05493169 828.10342489 51.0547325 831.31772256 51.05453308 834.53202022 C51.05321332 855.83300925 51.05193866 877.13399828 51.05069422 898.43498731 C51.0482176 940.82010707 51.04547591 983.2052268 51.04255217 1025.59034652 C51.04241293 1027.60892046 51.04227388 1029.6274944 51.04213501 1031.64606834 C51.03588045 1122.53902956 51.02654205 1213.43199037 51.01586914 1304.32495117 C51.01576921 1305.17619144 51.01566927 1306.02743171 51.01556631 1306.90446714 C51.01056566 1349.4792802 51.00536463 1392.05409323 51 1434.62890625 C26.25 1434.62890625 1.5 1434.62890625 -24 1434.62890625 C-24.02736558 1391.22599337 -24.0538503 1347.82308003 -24.0793457 1304.42016602 C-24.07984469 1303.57086479 -24.08034368 1302.72156357 -24.08085779 1301.84652595 C-24.13428657 1210.8559344 -24.18040412 1119.86534263 -24.2117157 1028.8747406 C-24.21241295 1026.85394788 -24.21311021 1024.83315515 -24.21380747 1022.81236243 C-24.22842041 980.39682853 -24.24200405 937.98129435 -24.25439839 895.56575975 C-24.26062544 874.25952005 -24.26705031 852.95328041 -24.27366221 831.64704083 C-24.27465845 828.4330441 -24.27564904 825.21904737 -24.2766394 822.00505064 C-24.29194209 772.50501046 -24.31149138 723.00497642 -24.34332275 673.50494385 C-24.34400725 672.44038071 -24.34469174 671.37581757 -24.34539698 670.27899494 C-24.35645905 653.114723 -24.36787701 635.95045129 -24.3793422 618.78617961 C-24.41235388 569.35703996 -24.4427406 519.92790503 -24.45569897 470.49875546 C-24.45596664 469.48261149 -24.45623432 468.46646752 -24.4565101 467.4195313 C-24.46233848 445.11446663 -24.46681295 422.8094019 -24.47000491 400.5043367 C-24.47131305 391.52997482 -24.47281615 382.55561298 -24.47438622 373.58125114 C-24.47455335 372.59903705 -24.47472049 371.61682296 -24.47489269 370.6048448 C-24.48037778 338.94061004 -24.50174285 307.27641033 -24.53141104 275.61218972 C-24.56121647 243.7240991 -24.5755013 211.83604251 -24.56811994 179.9479376 C-24.5671045 175.5442668 -24.5662676 171.14059598 -24.56553841 166.73692513 C-24.565389 165.87365798 -24.5652396 165.01039083 -24.56508567 164.12096407 C-24.56318023 150.43541602 -24.57812384 136.74993988 -24.60004931 123.06441144 C-24.62124898 109.61678974 -24.62471865 96.1692615 -24.60915907 82.72163099 C-24.60056891 74.83146672 -24.60575327 66.94159834 -24.63108501 59.05146842 C-24.64834594 53.20227413 -24.63967652 47.35330908 -24.62069988 41.50411345 C-24.61711436 39.14618883 -24.62200105 36.78823308 -24.63617622 34.43034835 C-24.65416443 31.2369618 -24.6414486 28.04511249 -24.62099248 24.85177428 C-24.63353687 23.93821451 -24.64608125 23.02465475 -24.65900577 22.08341136 C-24.57020771 15.6149729 -22.89743133 10.83465559 -19 5.62890625 C-13.22048839 0.3376121 -7.60287286 -0.10248589 0 0 Z " fill="#FB0404" transform="translate(500,306.37109375)"/>
<path d="M0 0 C33.09711052 7.35491345 66.36608731 18.13034461 97.75 30.9375 C98.39605194 31.2005896 99.04210388 31.4636792 99.70773315 31.73474121 C107.99614486 35.13137505 116.04566932 38.88294815 124 43 C122.08766842 47.19522652 119.23415308 49.92234533 115.875 53 C115.25536377 53.56960449 114.63572754 54.13920898 113.99731445 54.72607422 C107.04495467 61.00881884 99.66125034 66.615025 92 72 C91.04480469 72.67579102 91.04480469 72.67579102 90.0703125 73.36523438 C67.34823784 89.24750085 28.6820097 114 0 114 C0 76.38 0 38.76 0 0 Z " fill="#FB0503" transform="translate(1014,1027)"/>
<path d="M0 0 C4.09480115 -0.2856838 6.48002188 0.48291766 10.0625 2.4375 C13.52453465 4.32183752 13.52453465 4.32183752 17.24609375 5.53515625 C17.82488281 5.68855469 18.40367188 5.84195312 19 6 C20.17252705 8.34505411 20.12471236 9.71295726 20.1241985 12.32644761 C20.12756944 13.7006695 20.12756944 13.7006695 20.13100848 15.10265344 C20.12838146 16.11776312 20.12575445 17.13287279 20.12304783 18.17874336 C20.12420167 19.25485671 20.12535552 20.33097007 20.12654433 21.43969291 C20.12921609 25.08831989 20.12468423 28.73690378 20.12025452 32.38552856 C20.1206901 35.01062781 20.12156478 37.63572702 20.12284368 40.26082599 C20.12492206 45.99027884 20.12326576 51.71972133 20.11920547 57.44917297 C20.11318464 65.9687341 20.11286835 74.48828865 20.11374746 83.00785151 C20.11506319 97.33725867 20.11171302 111.66666123 20.10573006 125.99606705 C20.09981886 140.18988187 20.09596529 154.38369479 20.09487724 168.57751083 C20.0948085 169.45908991 20.09473976 170.34066898 20.09466894 171.24896257 C20.09433062 175.72581322 20.09402923 180.20266386 20.09374207 184.67951451 C20.09164004 216.41280916 20.0848982 248.1461013 20.07543945 279.87939453 C20.06625935 310.71337877 20.05917362 341.54736232 20.05493164 372.38134766 C20.05480011 373.33130416 20.05466859 374.28126067 20.05453308 375.26000374 C20.05321459 384.79960685 20.05193877 394.33920996 20.05069422 403.87881308 C20.04815781 423.31316017 20.04533656 442.74750722 20.04234314 462.18185425 C20.04220585 463.07547062 20.04206856 463.969087 20.04192711 464.88978266 C20.03272197 524.59318948 20.01687625 584.29659491 20 644 C19.01 643.67 18.02 643.34 17 643 C17.33 433.45 17.66 223.9 18 8 C15.03 7.01 12.06 6.02 9 5 C7.29920118 4.30241585 5.60737504 3.58117264 3.9375 2.8125 C3.18339844 2.46832031 2.42929688 2.12414062 1.65234375 1.76953125 C1.10707031 1.51558594 0.56179688 1.26164062 0 1 C0 0.67 0 0.34 0 0 Z " fill="#FEB2B1" transform="translate(1141,399)"/>
<path d="M0 0 C13.13924051 2.18987342 13.13924051 2.18987342 18.92578125 3.18359375 C34.24318467 5.79463206 49.54835712 8.31474452 65 10 C66.22138672 10.13680176 67.44277344 10.27360352 68.70117188 10.41455078 C107.49545843 14.66916928 146.4860418 14.08513908 185.28930664 10.27539062 C189.21942545 9.98371525 193.06102407 9.95417575 197 10 C194.67999884 12.32000116 194.07438754 12.30380408 190.921875 12.5625 C190.08914063 12.63726563 189.25640625 12.71203125 188.3984375 12.7890625 C187.52445313 12.85867188 186.65046875 12.92828125 185.75 13 C179.95860016 13.48712709 174.24507379 14.10429587 168.50341797 15.01855469 C161.38999357 16.0432578 154.45137811 16.29037334 147.2734375 16.265625 C146.00569489 16.26753845 144.73795227 16.2694519 143.43179321 16.27142334 C140.76102662 16.27277539 138.09063416 16.27018527 135.41992188 16.26074219 C131.43350829 16.24729445 127.44735489 16.26060674 123.4609375 16.2734375 C96.59080961 16.287474 69.19063295 15.36746769 42.83984375 9.71484375 C38.58612055 8.92295021 34.3659603 8.47250606 30.0625 8.0625 C21.44494237 7.22558297 13.32902983 5.3069615 5 3 C3.66745193 2.66354121 2.33428783 2.32949184 1 2 C1.00113916 3.67788276 1.00113916 3.67788276 1.00230134 5.38966215 C1.03562438 54.6647706 1.06648199 103.93987978 1.08468628 153.21499634 C1.08496239 153.96047138 1.08523851 154.70594643 1.08552299 155.47401163 C1.09150818 171.67343772 1.09704863 187.87286393 1.10213066 204.07229032 C1.10462543 212.01596701 1.10721852 219.95964367 1.10986328 227.90332031 C1.1101248 228.69383058 1.11038632 229.48434085 1.11065576 230.29880597 C1.1191853 255.94228831 1.13421302 281.58576186 1.15259444 307.22923887 C1.17144245 333.5713477 1.18376689 359.91345166 1.18782998 386.25556713 C1.18840633 389.97236606 1.1890576 393.68916498 1.18975449 397.4059639 C1.18988933 398.13751566 1.19002418 398.86906741 1.19016311 399.62278741 C1.19253069 411.42012223 1.20181793 423.21744205 1.21366407 435.01477075 C1.2254138 446.86212298 1.22977975 458.70945895 1.22700275 470.5568168 C1.22571579 476.98122723 1.22775324 483.40559345 1.23841095 489.82999611 C1.24808191 495.70213308 1.24867534 501.57419573 1.24179779 507.44633599 C1.2409467 509.57960256 1.24353569 511.71287361 1.24976636 513.84613125 C1.25770023 516.7282857 1.25352326 519.61016579 1.24609566 522.49231529 C1.25134968 523.33576 1.25660371 524.17920471 1.26201695 525.04820836 C1.2282916 530.7717084 1.2282916 530.7717084 -1 533 C-0.67 357.11 -0.34 181.22 0 0 Z " fill="#CE2F2C" transform="translate(1192,521)"/>
<path d="M0 0 C0 219.78 0 439.56 0 666 C-0.33 666 -0.66 666 -1 666 C-1.33 447.87 -1.66 229.74 -2 5 C-4.97 4.505 -4.97 4.505 -8 4 C-2.7826087 0 -2.7826087 0 0 0 Z " fill="#C81F1F" transform="translate(1572,477)"/>
<path d="M0 0 C2.31 0.66 4.62 1.32 7 2 C7 211.55 7 421.1 7 637 C2.39942914 636.07988583 -0.79672559 634.89559434 -5 633 C-5 632.67 -5 632.34 -5 632 C0.28089024 631.69533326 1.577168 631.682876 6 635 C6 426.77 6 218.54 6 4 C4.68 3.67 3.36 3.34 2 3 C1.34 2.67 0.68 2.34 0 2 C0 1.34 0 0.68 0 0 Z " fill="#CD1513" transform="translate(1152,405)"/>
<path d="M0 0 C0.66 0.33 1.32 0.66 2 1 C1.34 1.66 0.68 2.32 0 3 C-0.30366103 4.99657378 -0.30366103 4.99657378 -0.25480902 7.32644761 C-0.26073703 8.24259553 -0.26666503 9.15874346 -0.27277267 10.10265344 C-0.26912299 11.11776312 -0.26547331 12.13287279 -0.26171303 13.17874336 C-0.26570909 14.25485671 -0.26970515 15.33097007 -0.27382231 16.43969291 C-0.28489435 20.08835001 -0.28158161 23.7368579 -0.2784729 27.38552856 C-0.28347022 30.01062947 -0.28934434 32.63572883 -0.29602563 35.26082599 C-0.30918443 40.99028002 -0.31488559 46.71970446 -0.31578636 52.44917297 C-0.31715916 60.9687521 -0.3299231 69.48828712 -0.3450741 78.00785151 C-0.37023193 92.33725207 -0.38607263 106.66664892 -0.39665604 120.99606705 C-0.40716955 135.18988977 -0.42179185 149.38369839 -0.44193649 163.57751083 C-0.44318536 164.45908991 -0.44443423 165.34066898 -0.44572094 166.24896257 C-0.45208444 170.7258133 -0.45852168 175.20266393 -0.46498732 179.67951451 C-0.510685 211.4128005 -0.54711762 243.14609107 -0.578125 274.87939453 C-0.60827478 305.71338572 -0.6426067 336.54736761 -0.68261719 367.38134766 C-0.68384819 368.33130416 -0.68507919 369.28126067 -0.6863475 370.26000374 C-0.69871405 379.79960695 -0.7111658 389.33921005 -0.72367998 398.87881308 C-0.74917229 418.3131595 -0.7740958 437.74750665 -0.79867554 457.18185425 C-0.79980645 458.07547062 -0.80093736 458.969087 -0.80210253 459.88978266 C-0.87759447 519.59317762 -0.93982615 579.29658787 -1 639 C-0.01 639 0.98 639 2 639 C2 638.34 2 637.68 2 637 C5.83887763 635.51679728 8.06204091 634.77580837 12 636 C10.23244474 636.84026396 8.46082737 637.67198722 6.6875 638.5 C5.70136719 638.9640625 4.71523438 639.428125 3.69921875 639.90625 C1 641 1 641 -2 641 C-2 429.8 -2 218.6 -2 1 C-1.34 0.67 -0.68 0.34 0 0 Z " fill="#C81917" transform="translate(586,380)"/>
<path d="M0 0 C2.97 0.495 2.97 0.495 6 1 C4.02 1.99 4.02 1.99 2 3 C2.00037972 4.09764618 2.00075944 5.19529236 2.00115067 6.32620054 C2.01781727 54.69386094 2.03324538 103.06152151 2.04234314 151.42918396 C2.0424812 152.16128108 2.04261925 152.8933782 2.04276149 153.64766009 C2.0457543 169.55754777 2.0485245 185.46743548 2.05106533 201.37732324 C2.05231268 209.17936459 2.05360923 216.98140593 2.05493164 224.78344727 C2.05512778 225.9480516 2.05512778 225.9480516 2.05532788 227.13618329 C2.05959033 252.30819693 2.06710246 277.48020834 2.07629722 302.65222063 C2.08572774 328.51660269 2.09188496 354.38098352 2.09391499 380.24536727 C2.09420315 383.89731677 2.09452879 387.54926626 2.09487724 391.20121574 C2.09494467 391.91998203 2.09501209 392.63874832 2.09508156 393.37929541 C2.09626394 404.9561969 2.1009038 416.53309456 2.10683203 428.10999449 C2.1127162 439.74459133 2.11488771 451.37918342 2.11350138 463.01378179 C2.1128592 469.3193081 2.113862 475.62482313 2.11920547 481.93034744 C2.12405903 487.69972154 2.12432569 493.46907676 2.12089889 499.23845171 C2.12047514 501.32873777 2.12175437 503.419025 2.12488318 505.50930876 C2.12888252 508.34543992 2.12674121 511.18150243 2.12304783 514.01763248 C2.12567484 514.83350302 2.12830186 515.64937355 2.13100848 516.48996744 C2.11742996 521.08870598 1.9284455 525.48628423 1 530 C0.34 530.33 -0.32 530.66 -1 531 C-0.67 355.77 -0.34 180.54 0 0 Z " fill="#E80C09" transform="translate(1193,523)"/>
<path d="M0 0 C0.33 0 0.66 0 1 0 C1.06847941 50.27795702 1.13216111 100.55591732 1.16937256 150.83390808 C1.16992479 151.57814061 1.17047702 152.32237315 1.17104598 153.08915818 C1.18301785 169.26367233 1.19409854 185.43818697 1.20426132 201.61270236 C1.20925063 209.5447802 1.21443685 217.4768579 1.21972656 225.40893555 C1.2202496 226.19826898 1.22077263 226.98760242 1.22131152 227.80085505 C1.23835427 253.38144359 1.26839755 278.96199676 1.30518888 304.54256388 C1.34293078 330.83181764 1.36754445 357.12105182 1.37565996 383.41033222 C1.37681256 387.12424443 1.37811511 390.83815658 1.37950897 394.55206871 C1.37977866 395.28301366 1.38004836 396.01395861 1.38032622 396.76705341 C1.3850515 408.52915816 1.40359943 420.29120237 1.42732814 432.05328244 C1.45089311 443.88063732 1.45954429 455.70792692 1.45400551 467.5353044 C1.45144074 473.94265489 1.45540326 480.34982783 1.4768219 486.75714684 C1.49629161 492.62427428 1.49726692 498.4911048 1.48359558 504.35824593 C1.48190596 506.47956414 1.48697631 508.60090089 1.49953273 510.72218261 C1.57818634 524.83156164 0.78513043 535.93308285 -8.0625 547.5 C-8.49626953 548.09296875 -8.93003906 548.6859375 -9.37695312 549.296875 C-11.41623813 552.05316889 -13.47027317 554.67762783 -16 557 C-15.125 552.25 -15.125 552.25 -14 550 C-13.34 550 -12.68 550 -12 550 C-12 549.34 -12 548.68 -12 548 C-11.34 548 -10.68 548 -10 548 C-10 547.01 -10 546.02 -10 545 C-9.34 545 -8.68 545 -8 545 C-7.34 542.69 -6.68 540.38 -6 538 C-5.34 538 -4.68 538 -4 538 C-3.814375 537.195625 -3.814375 537.195625 -3.625 536.375 C-3 534 -3 534 -1.97729456 531.41307867 C-0.76527015 527.18023544 -0.71906708 523.39368838 -0.73828697 519.01574135 C-0.73429091 518.11735698 -0.73029485 517.21897261 -0.72617769 516.29336447 C-0.71518093 513.27337114 -0.71840791 510.25356036 -0.7215271 507.23355103 C-0.71652552 505.05047599 -0.71065014 502.86740281 -0.70397437 500.68433225 C-0.68814367 494.67784793 -0.68474199 488.67141035 -0.68332577 482.66490769 C-0.67963708 476.19050143 -0.66448427 469.71612097 -0.65071106 463.24172974 C-0.62807387 452.02188109 -0.61334757 440.80203898 -0.60334396 429.58217239 C-0.59282154 417.81431748 -0.57818938 406.0464795 -0.55806351 394.27863693 C-0.55681464 393.54705827 -0.55556577 392.81547961 -0.55427906 392.0617319 C-0.54791534 388.34644183 -0.54147815 384.6311519 -0.53501268 380.91586201 C-0.48934512 354.59772543 -0.45289956 328.27958335 -0.421875 301.96142578 C-0.39171322 276.39305821 -0.35737569 250.82470182 -0.31738281 225.25634766 C-0.31615181 224.46827529 -0.31492081 223.68020293 -0.3136525 222.86824958 C-0.30128569 214.95413202 -0.28883396 207.04001459 -0.27632002 199.12589726 C-0.25082941 183.00380328 -0.22590558 166.88170843 -0.20132446 150.75961304 C-0.20019355 150.01833863 -0.19906264 149.27706421 -0.19789747 148.51332694 C-0.12243709 99.00889753 -0.06023051 49.50445003 0 0 Z " fill="#FFDCDA" transform="translate(1191,521)"/>
<path d="M0 0 C5.28448626 -0.18626779 9.96988949 0.51503207 15.125 1.6875 C70.52582188 13.39257372 128.10196658 14.79192725 184.28930664 9.27539062 C188.21942545 8.98371525 192.06102407 8.95417575 196 9 C193.67999884 11.32000116 193.07438754 11.30380408 189.921875 11.5625 C189.08914063 11.63726563 188.25640625 11.71203125 187.3984375 11.7890625 C186.52445313 11.85867188 185.65046875 11.92828125 184.75 12 C178.95860016 12.48712709 173.24507379 13.10429587 167.50341797 14.01855469 C160.38999357 15.0432578 153.45137811 15.29037334 146.2734375 15.265625 C145.00569489 15.26753845 143.73795227 15.2694519 142.43179321 15.27142334 C139.76102662 15.27277539 137.09063416 15.27018527 134.41992188 15.26074219 C130.43350829 15.24729445 126.44735489 15.26060674 122.4609375 15.2734375 C95.59080961 15.287474 68.19063295 14.36746769 41.83984375 8.71484375 C37.58606296 7.92293949 33.36594982 7.47296317 29.0625 7.0625 C19.42261754 6.11696625 8.54041408 4.80666521 0 0 Z " fill="#D81A19" transform="translate(1193,522)"/>
<path d="M0 0 C1.75952011 0.21142872 3.52563566 0.36905396 5.29296875 0.5 C6.38746338 0.58185547 7.48195801 0.66371094 8.60961914 0.74804688 C9.79031982 0.83119141 10.97102051 0.91433594 12.1875 1 C13.9981897 1.13245117 13.9981897 1.13245117 15.84545898 1.26757812 C24.66141102 1.89163451 33.47585609 2.34430647 42.3112793 2.5703125 C48.3807177 2.76862702 54.08359202 3.63534642 60 5 C60 5.33 60 5.66 60 6 C51.4603373 6.32429099 43.11293628 5.64977423 34.62255859 4.79931641 C21.0675785 3.45795108 7.57799656 2.83916456 -6.0390625 2.83203125 C-7.53616361 2.82879782 -9.03326445 2.82543242 -10.53036499 2.82194519 C-13.65143562 2.81601348 -16.77247884 2.81409871 -19.89355469 2.81469727 C-23.02284609 2.81477788 -26.15198906 2.80792908 -29.28125 2.79418945 C-57.84740241 2.67082259 -85.92505002 4.11933952 -114.30322266 7.66845703 C-118.19850849 8.14734515 -122.09844651 8.57547864 -126 9 C-126 8.34 -126 7.68 -126 7 C-119.80676579 5.45169145 -113.87619264 4.64487029 -107.50390625 4.24609375 C-105.00416782 4.15107676 -105.00416782 4.15107676 -103 3 C-100.18405146 2.79205303 -97.38214889 2.62573166 -94.5625 2.5 C-88.69735037 2.29867395 -88.69735037 2.29867395 -83 1 C-80.41200008 0.84655858 -77.84596934 0.74511666 -75.25561523 0.68701172 C-74.07471817 0.65512253 -74.07471817 0.65512253 -72.8699646 0.62258911 C-70.26627175 0.55359362 -67.66246862 0.49140247 -65.05859375 0.4296875 C-63.25162628 0.38413407 -61.44466527 0.33832378 -59.63771057 0.29226685 C-55.85074559 0.19683862 -52.06371645 0.10482523 -48.27661133 0.01513672 C-43.41491687 -0.10031733 -38.55349781 -0.22467818 -33.69209194 -0.3516407 C-29.96137772 -0.44802186 -26.23055524 -0.53947836 -22.49968147 -0.62945175 C-20.70662577 -0.67333438 -18.9136085 -0.71881653 -17.12063408 -0.76590347 C-14.61884326 -0.83091059 -12.11698448 -0.88924857 -9.61499023 -0.94580078 C-8.8694841 -0.96652649 -8.12397797 -0.9872522 -7.35588074 -1.00860596 C-2.22848043 -1.11424021 -2.22848043 -1.11424021 0 0 Z " fill="#F9B9B7" transform="translate(855,330)"/>
<path d="M0 0 C1.79244141 0.01740234 1.79244141 0.01740234 3.62109375 0.03515625 C5.41740234 0.04869141 5.41740234 0.04869141 7.25 0.0625 C8.17683594 0.07410156 9.10367187 0.08570313 10.05859375 0.09765625 C10.05859375 0.42765625 10.05859375 0.75765625 10.05859375 1.09765625 C-4.87691376 3.97752847 -19.81128061 5.8306091 -34.94140625 7.28515625 C-35.8111911 7.36946899 -36.68097595 7.45378174 -37.57711792 7.54064941 C-43.36219852 8.09714158 -49.14969366 8.61515603 -54.94140625 9.09765625 C-56.24255371 9.20658203 -57.54370117 9.31550781 -58.88427734 9.42773438 C-70.02313235 10.241822 -81.15080179 10.24994992 -92.31445312 10.22802734 C-95.56775547 10.22265402 -98.8209205 10.22801134 -102.07421875 10.234375 C-112.74171486 10.23742547 -123.31483503 10.1304357 -133.94140625 9.09765625 C-133.94140625 8.76765625 -133.94140625 8.43765625 -133.94140625 8.09765625 C-133.04018036 8.08734879 -132.13895447 8.07704132 -131.2104187 8.06642151 C-122.70629378 7.96833692 -114.20223647 7.86580711 -105.69822502 7.75831699 C-101.32651076 7.70321475 -96.95478968 7.64981554 -92.58300781 7.6003418 C-88.36193357 7.55251033 -84.14093705 7.50016164 -79.91995621 7.4447155 C-78.31168688 7.42437677 -76.70339632 7.40565013 -75.09508896 7.38858223 C-72.83789165 7.36434939 -70.58083873 7.33432215 -68.32373047 7.30297852 C-67.04021698 7.28743423 -65.75670349 7.27188995 -64.43429565 7.25587463 C-61.18316238 7.10860714 -58.13657167 6.69225997 -54.94140625 6.09765625 C-53.47081105 5.97577417 -51.99770899 5.87988112 -50.5234375 5.81640625 C-49.74419922 5.77902344 -48.96496094 5.74164062 -48.16210938 5.703125 C-46.54494423 5.63230025 -44.92775625 5.5619951 -43.31054688 5.4921875 C-42.14749023 5.43611328 -42.14749023 5.43611328 -40.9609375 5.37890625 C-40.26073486 5.34861328 -39.56053223 5.31832031 -38.83911133 5.28710938 C-36.71851199 5.14581505 -36.71851199 5.14581505 -33.94140625 4.09765625 C-30.72832325 3.83974992 -27.52140608 3.65569481 -24.30273438 3.4921875 C-20.49625408 3.3306529 -20.49625408 3.3306529 -16.94140625 2.09765625 C-13.56811873 1.78182179 -10.1940626 1.58631863 -6.8125 1.37890625 C-3.51499111 1.05588497 -3.33631233 0.11076734 0 0 Z " fill="#FDCECE" transform="translate(1412.94140625,524.90234375)"/>
<path d="M0 0 C3.78176632 0.0113829 7.5632503 0.00462403 11.34500694 -0.0069046 C31.34321367 -0.05809606 51.16725297 0.69089246 71.10522461 2.26074219 C71.10522461 2.59074219 71.10522461 2.92074219 71.10522461 3.26074219 C66.27190153 3.29159117 61.43862503 3.31114217 56.60522461 3.32324219 C55.48393661 3.32615768 55.48393661 3.32615768 54.33999634 3.32913208 C42.512532 3.35024669 30.70479568 3.12629649 18.88296509 2.77508545 C1.52780572 2.2427263 1.52780572 2.2427263 -15.81665039 2.85205078 C-25.10493597 3.44799768 -34.40412092 3.344379 -43.70727539 3.32324219 C-44.55865082 3.32137909 -45.41002625 3.31951599 -46.28720093 3.31759644 C-51.15643376 3.3054017 -56.02559343 3.28596709 -60.89477539 3.26074219 C-60.89477539 2.93074219 -60.89477539 2.60074219 -60.89477539 2.26074219 C-40.56931782 0.59479763 -20.38783795 -0.06205743 0 0 Z " fill="#DB1918" transform="translate(824.894775390625,331.7392578125)"/>
<path d="M0 0 C10.125 2.25 10.125 2.25 15.0625 3.625 C16.00222656 3.88539062 16.94195313 4.14578125 17.91015625 4.4140625 C18.59980469 4.60742188 19.28945312 4.80078125 20 5 C20 5.33 20 5.66 20 6 C15.5116784 6.16321169 11.59485687 6.02325639 7.21484375 4.9921875 C6.02362915 4.71544189 6.02362915 4.71544189 4.80834961 4.43310547 C4.21159424 4.29018066 3.61483887 4.14725586 3 4 C2.06929266 26.53490778 1.71704685 49.06166783 1.46777344 71.6126709 C1.41648699 76.18647079 1.36137492 80.76022468 1.30664062 85.33398438 C1.20080602 94.22261678 1.09901444 103.11128901 1 112 C2.32 112 3.64 112 5 112 C5 111.34 5 110.68 5 110 C16.33712984 105.40774487 16.33712984 105.40774487 23 106 C20.81976625 108.18023375 19.61272574 108.60570789 16.71875 109.5078125 C15.87699219 109.77207031 15.03523438 110.03632812 14.16796875 110.30859375 C13.28753906 110.57800781 12.40710937 110.84742188 11.5 111.125 C10.61957031 111.40214844 9.73914063 111.67929688 8.83203125 111.96484375 C2.28544489 114 2.28544489 114 0 114 C0 76.38 0 38.76 0 0 Z " fill="#CB1819" transform="translate(1014,1027)"/>
<path d="M0 0 C2.76145462 0.01093792 5.52286163 0.01042475 8.28433418 0.00998116 C21.79380863 0.01056682 35.2698875 0.01553627 48.73693848 1.19561768 C48.73693848 1.52561768 48.73693848 1.85561768 48.73693848 2.19561768 C47.80860199 2.19117645 46.8802655 2.18673523 45.92379761 2.18215942 C37.07154335 2.14168325 28.21932123 2.11143384 19.36699486 2.09199333 C14.81855622 2.08166208 10.27019555 2.06770419 5.72180176 2.04473877 C-24.66605622 0.55117335 -24.66605622 0.55117335 -54.26306152 5.19561768 C-55.70777574 5.32997748 -57.15701059 5.41917026 -58.60681152 5.47686768 C-59.44083496 5.51425049 -60.2748584 5.5516333 -61.13415527 5.59014893 C-62.88675944 5.66046143 -64.63936361 5.73077393 -66.39196777 5.80108643 C-67.22599121 5.83846924 -68.06001465 5.87585205 -68.91931152 5.91436768 C-69.68050293 5.94466064 -70.44169434 5.97495361 -71.22595215 6.00616455 C-73.46435802 6.13659448 -73.46435802 6.13659448 -76.26306152 7.19561768 C-78.03473128 7.34397716 -79.81073764 7.44331786 -81.58728027 7.51202393 C-82.61530762 7.55391846 -83.64333496 7.59581299 -84.70251465 7.63897705 C-85.77437012 7.67829346 -86.84622559 7.71760986 -87.95056152 7.75811768 C-89.57574707 7.82289307 -89.57574707 7.82289307 -91.23376465 7.88897705 C-93.91006943 7.99508605 -96.58646679 8.09714128 -99.26306152 8.19561768 C-99.26306152 7.86561768 -99.26306152 7.53561768 -99.26306152 7.19561768 C-94.09890251 6.50863339 -88.93328383 5.83415387 -83.76623535 5.16925049 C-82.02396964 4.94350369 -80.28207705 4.71485031 -78.54064941 4.48272705 C-52.4036958 1.00491822 -26.33615757 -0.13173601 0 0 Z " fill="#F9B5B5" transform="translate(834.2630615234375,969.8043823242188)"/>
<path d="M0 0 C0 0.33 0 0.66 0 1 C-36.49440081 5.15170677 -73.31614184 6.61028724 -110 4 C-110 3.67 -110 3.34 -110 3 C-108.74545265 2.9845388 -108.74545265 2.9845388 -107.46556091 2.96876526 C-99.56510634 2.87059236 -91.66472296 2.76805069 -83.76438808 2.66066074 C-79.70322182 2.60560948 -75.64204816 2.55221908 -71.58081055 2.50268555 C-67.65798604 2.45477806 -63.73524321 2.40242783 -59.81251717 2.34705925 C-58.31950998 2.32675459 -56.82648051 2.30802284 -55.33343315 2.29092598 C-53.23449573 2.26661642 -51.13570883 2.23660151 -49.03686523 2.20532227 C-47.84439682 2.18977798 -46.65192841 2.1742337 -45.42332458 2.15821838 C-41.89384778 1.99509388 -38.49006002 1.53802862 -35 1 C-33.06826624 0.86467404 -31.13423778 0.7584924 -29.19921875 0.68359375 C-28.13896484 0.64169922 -27.07871094 0.59980469 -25.98632812 0.55664062 C-24.3534082 0.49766602 -24.3534082 0.49766602 -22.6875 0.4375 C-21.61048828 0.39431641 -20.53347656 0.35113281 -19.42382812 0.30664062 C-12.9457926 0.05944726 -6.48254996 -0.0572551 0 0 Z " fill="#D02A29" transform="translate(1377,1200)"/>
<path d="M0 0 C-5.02703018 2.88116794 -10.32373025 2.74712572 -16 3.125 C-17.23427734 3.20919189 -18.46855469 3.29338379 -19.74023438 3.38012695 C-31.98457515 4.14214419 -44.23572918 4.18825321 -56.5 4.1875 C-57.48000977 4.18840637 -58.46001953 4.18931274 -59.46972656 4.19024658 C-62.28197687 4.18995197 -65.09403252 4.18103296 -67.90625 4.16796875 C-68.75094849 4.16676529 -69.59564697 4.16556183 -70.46594238 4.1643219 C-74.44011976 4.13259899 -78.12084032 3.9830277 -82 3 C-82 2.34 -82 1.68 -82 1 C-81.1403363 1.00333092 -81.1403363 1.00333092 -80.26330566 1.00672913 C-74.16089519 1.02928963 -68.05849699 1.04411171 -61.95605469 1.05493164 C-59.69498207 1.05988313 -57.43391251 1.06664607 -55.17285156 1.07543945 C-41.12352267 1.12860922 -27.13318555 0.90083467 -13.09960938 0.21655273 C-8.72667956 0.0096271 -4.37736978 -0.04085288 0 0 Z " fill="#FDDAD9" transform="translate(1356,1203)"/>
<path d="M0 0 C11.90895265 -0.02316743 23.81789994 -0.04093758 35.72687054 -0.05181217 C41.25664249 -0.05703134 46.78639903 -0.06411153 52.31616211 -0.07543945 C57.65239933 -0.08630256 62.98862173 -0.09228412 68.32486916 -0.09487724 C70.36102342 -0.0967253 72.39717686 -0.10033406 74.43332481 -0.10573006 C77.28458792 -0.11298586 80.13578969 -0.11398901 82.98706055 -0.11352539 C84.25049789 -0.1189183 84.25049789 -0.1189183 85.53945923 -0.12442017 C89.49587549 -0.11745613 93.13741907 0.01693978 97 1 C97 1.33 97 1.66 97 2 C95.64746628 1.99333817 95.64746628 1.99333817 94.26760864 1.98654175 C85.595687 1.94577162 76.92379939 1.91567443 68.25180244 1.89637566 C63.79787092 1.88611929 59.34402117 1.87231188 54.89013672 1.84912109 C31.51220966 1.73056496 8.31889654 2.28438744 -15 4 C-13 2 -13 2 -9.9609375 1.8046875 C-8.18589844 1.83949219 -8.18589844 1.83949219 -6.375 1.875 C-4.59222656 1.90207031 -4.59222656 1.90207031 -2.7734375 1.9296875 C-1.85820313 1.95289063 -0.94296875 1.97609375 0 2 C0 1.34 0 0.68 0 0 Z " fill="#CA1F1F" transform="translate(785,969)"/>
<path d="M0 0 C1.75952011 0.21142872 3.52563566 0.36905396 5.29296875 0.5 C6.38746338 0.58185547 7.48195801 0.66371094 8.60961914 0.74804688 C9.79031982 0.83119141 10.97102051 0.91433594 12.1875 1 C13.9981897 1.13245117 13.9981897 1.13245117 15.84545898 1.26757812 C24.66141102 1.89163451 33.47585609 2.34430647 42.3112793 2.5703125 C48.3807177 2.76862702 54.08359202 3.63534642 60 5 C60 5.33 60 5.66 60 6 C52.691963 6.27752039 45.57844588 5.83897152 38.3125 5.125 C8.91885835 2.3048989 -20.49097129 1.51766534 -50 1 C-50 0.67 -50 0.34 -50 0 C-43.20084381 -0.16799724 -36.4015327 -0.32792978 -29.60205078 -0.48217773 C-27.28755365 -0.53564421 -24.97309887 -0.59097706 -22.65869141 -0.64819336 C-19.33765802 -0.7299747 -16.01653164 -0.80510733 -12.6953125 -0.87890625 C-11.65569366 -0.90594131 -10.61607483 -0.93297638 -9.54495239 -0.96083069 C-8.58410736 -0.98092697 -7.62326233 -1.00102325 -6.63330078 -1.02172852 C-5.36089035 -1.05170677 -5.36089035 -1.05170677 -4.06277466 -1.08229065 C-2 -1 -2 -1 0 0 Z " fill="#FFE2E0" transform="translate(855,330)"/>
<path d="M0 0 C1.08945419 0.00091644 2.17890839 0.00183289 3.30137634 0.0027771 C5.59850435 0.00880482 7.89562481 0.02452572 10.19262695 0.04931641 C13.70618685 0.08584749 17.21869176 0.09033535 20.73242188 0.08984375 C22.96745702 0.09967468 25.20248503 0.11133157 27.4375 0.125 C29.01109032 0.12833847 29.01109032 0.12833847 30.61647034 0.13174438 C31.59776413 0.14450409 32.57905792 0.15726379 33.59008789 0.17041016 C34.8786544 0.18184555 34.8786544 0.18184555 36.19325256 0.19351196 C39.02032952 0.50095586 41.12975863 1.14765982 43.65234375 2.4609375 C44.14734375 3.9459375 44.14734375 3.9459375 44.65234375 5.4609375 C43.72292969 5.13786621 42.79351563 4.81479492 41.8359375 4.48193359 C36.83630049 3.06252125 31.87969055 3.13658955 26.71484375 3.125 C25.67593994 3.1183432 24.63703613 3.1116864 23.56665039 3.10482788 C21.37811037 3.09473837 19.18953982 3.09000971 17.00097656 3.09033203 C13.66289545 3.08595135 10.32612952 3.04957064 6.98828125 3.01171875 C4.85547324 3.00585125 2.722659 3.00188141 0.58984375 3 C-0.89793579 2.97844345 -0.89793579 2.97844345 -2.41577148 2.95645142 C-8.60349737 2.99704823 -12.25487867 3.89652295 -17.34765625 7.4609375 C-17.34765625 6.4709375 -17.34765625 5.4809375 -17.34765625 4.4609375 C-12.13052842 -0.45538396 -6.88758056 -0.09453509 0 0 Z " fill="#FEC7C6" transform="translate(499.34765625,304.5390625)"/>
<path d="M0 0 C-0.66 0 -1.32 0 -2 0 C-2 0.66 -2 1.32 -2 2 C-8.48756371 3.3491836 -14.98372714 4.51421519 -21.53125 5.53515625 C-23.99175575 5.88171692 -23.99175575 5.88171692 -26 7 C-29.22614424 7.26365764 -32.44547376 7.4443034 -35.67773438 7.60546875 C-39.13254014 7.50193434 -39.13254014 7.50193434 -42 9 C-44.69654854 9.07319621 -47.36691458 9.09242537 -50.0625 9.0625 C-51.20041992 9.05573242 -51.20041992 9.05573242 -52.36132812 9.04882812 C-54.24091871 9.0370068 -56.12046899 9.01907078 -58 9 C-58 8.67 -58 8.34 -58 8 C-57.2879541 7.90501221 -56.5759082 7.81002441 -55.84228516 7.7121582 C-41.17686043 5.73620741 -26.66328806 3.53978185 -12.17822266 0.48754883 C-11.16034668 0.2789624 -10.1424707 0.07037598 -9.09375 -0.14453125 C-8.20365234 -0.33378174 -7.31355469 -0.52303223 -6.39648438 -0.71801758 C-3.94401621 -1.00658733 -2.3279589 -0.76618508 0 0 Z " fill="#DD2120" transform="translate(1448,522)"/>
<path d="M0 0 C9.40805762 1.59617744 18.30754467 4.47432789 27.375 7.375 C28.91391587 7.86244235 30.45297761 8.3494244 31.9921875 8.8359375 C40.35268321 11.48453502 48.69082772 14.19385879 57 17 C57 17.33 57 17.66 57 18 C50.48435282 17.47381114 44.84243521 16.22476452 38.6875 14.0625 C37.90310547 13.79759766 37.11871094 13.53269531 36.31054688 13.25976562 C30.60795264 11.30722062 30.60795264 11.30722062 27.89550781 9.93652344 C25.60584281 8.8052567 23.58978554 8.53333907 21.0625 8.1875 C14.09862818 7.014341 5.11403909 5.11403909 0 0 Z " fill="#D91E1B" transform="translate(1034,1033)"/>
<path d="M0 0 C-2.90471355 1.9364757 -4.87578537 2.65376236 -8.19921875 3.55078125 C-9.23675293 3.83493896 -10.27428711 4.11909668 -11.34326172 4.41186523 C-12.44686035 4.70907471 -13.55045898 5.00628418 -14.6875 5.3125 C-23.5563046 7.73896723 -32.34784123 10.29176697 -41.0859375 13.15234375 C-44 14 -44 14 -47 14 C-47 13.34 -47 12.68 -47 12 C-38.16157534 8.47463118 -29.25163505 5.32598071 -20.125 2.625 C-19.27075439 2.36251465 -18.41650879 2.1000293 -17.53637695 1.82958984 C-11.58491248 0.11603698 -6.17945818 -0.31136166 0 0 Z " fill="#E01B17" transform="translate(676,989)"/>
<path d="M0 0 C6.0067463 -0.31614454 9.46338768 0.42261151 15 3 C18.31095226 4.07934126 21.64997976 5.04959184 25 6 C25 6.66 25 7.32 25 8 C26.2375 8.061875 27.475 8.12375 28.75 8.1875 C34.86488576 8.85935847 40.64466857 10.99197293 46 14 C46.495 15.485 46.495 15.485 47 17 C38.50495767 14.60916393 30.20095022 11.69504138 21.8840332 8.7565918 C19.54478373 7.93124928 17.20314134 7.11295754 14.86132812 6.29492188 C13.3670378 5.76865402 11.87289177 5.24197626 10.37890625 4.71484375 C9.68205215 4.47209213 8.98519806 4.22934052 8.26722717 3.97923279 C5.20465904 2.89058877 2.72207806 1.81471871 0 0 Z " fill="#DA2826" transform="translate(1073,1009)"/>
<path d="M0 0 C3.8127154 0.14050889 7.62511216 0.28838734 11.4375 0.4375 C13.04141602 0.49647461 13.04141602 0.49647461 14.67773438 0.55664062 C22.3147615 0.86025332 29.8439635 1.23918011 37.3125 2.9375 C45.74242175 4.72566522 54.42975276 5.22406204 63 6 C63 6.33 63 6.66 63 7 C51.9605257 7.2734047 41.32213671 6.46493333 30.375 5.125 C28.8672737 4.94848094 27.35946107 4.77269765 25.8515625 4.59765625 C17.20257805 3.58091835 8.59675467 2.39676115 0 1 C0 0.67 0 0.34 0 0 Z " fill="#D42727" transform="translate(1203,1196)"/>
<path d="M0 0 C9.09077471 1.3415901 17.80883906 3.76927111 26.61865234 6.31347656 C29.02090723 7.00602739 31.42623177 7.68706491 33.83203125 8.3671875 C35.36738184 8.80661322 36.90254531 9.24669335 38.4375 9.6875 C39.51088623 9.99071167 39.51088623 9.99071167 40.60595703 10.30004883 C43.810917 11.23311386 46.19672389 12.13114926 49 14 C39.81080621 14.93767284 31.50582447 10.9864151 23.01171875 7.921875 C18.28380361 6.47467919 13.42922264 5.79078646 8.55859375 4.9765625 C4.80420721 3.94626982 2.82057561 2.63109357 0 0 Z " fill="#D9201C" transform="translate(1007,355)"/>
<path d="M0 0 C0.91007812 0.00902344 1.82015625 0.01804687 2.7578125 0.02734375 C3.80582031 0.04474609 3.80582031 0.04474609 4.875 0.0625 C4.875 0.3925 4.875 0.7225 4.875 1.0625 C-7.48763268 3.52014937 -19.84939486 5.97735013 -32.3125 7.875 C-33.50214355 8.06026245 -33.50214355 8.06026245 -34.71582031 8.24926758 C-39.23744149 8.91366707 -43.55508604 9.17750446 -48.125 9.0625 C-45.53396022 6.47146022 -43.78437005 6.44208512 -40.19140625 5.80859375 C-38.98419922 5.59396484 -37.77699219 5.37933594 -36.53320312 5.15820312 C-35.26412109 4.94099609 -33.99503906 4.72378906 -32.6875 4.5 C-30.83608398 4.16838867 -30.83608398 4.16838867 -28.94726562 3.83007812 C-22.37500484 2.67967182 -15.87304019 1.7483374 -9.21459961 1.29321289 C-5.89906342 0.92714423 -3.50566455 -0.04494442 0 0 Z " fill="#D01919" transform="translate(1426.125,1190.9375)"/>
<path d="M0 0 C4.09480115 -0.2856838 6.48002188 0.48291766 10.0625 2.4375 C13.52453465 4.32183752 13.52453465 4.32183752 17.24609375 5.53515625 C17.82488281 5.68855469 18.40367188 5.84195312 19 6 C20.37332694 8.74665389 20.11964892 10.93624068 20.11352539 14.01025391 C20.11344986 15.27141022 20.11337433 16.53256653 20.11329651 17.8319397 C20.10818949 19.21348103 20.10297349 20.59502196 20.09765625 21.9765625 C20.09579144 23.3861791 20.09436783 24.79579634 20.09336853 26.20541382 C20.08954833 29.91753932 20.07972228 33.62962578 20.06866455 37.34173584 C20.05843975 41.12886019 20.05386862 44.91599083 20.04882812 48.703125 C20.03809958 56.13543448 20.02102911 63.56771177 20 71 C19.67 71 19.34 71 19 71 C18.67 50.54 18.34 30.08 18 9 C9.09 5.04 9.09 5.04 0 1 C0 0.67 0 0.34 0 0 Z " fill="#FEE5E4" transform="translate(1141,399)"/>
<path d="M0 0 C-8.70936878 4.19662951 -17.44656753 8.28750362 -26.375 12 C-27.09357178 12.30236572 -27.81214355 12.60473145 -28.55249023 12.91625977 C-31.52309412 14.13424659 -33.75736176 15 -37 15 C-36 12 -36 12 -33.5949707 10.68139648 C-32.54913818 10.24899658 -31.50330566 9.81659668 -30.42578125 9.37109375 C-29.28302734 8.89349609 -28.14027344 8.41589844 -26.96289062 7.92382812 C-25.75826172 7.43333984 -24.55363281 6.94285156 -23.3125 6.4375 C-22.12720703 5.94314453 -20.94191406 5.44878906 -19.72070312 4.93945312 C-4.04736049 -1.55667711 -4.04736049 -1.55667711 0 0 Z " fill="#DB1F1C" transform="translate(1558,1150)"/>
<path d="M0 0 C-3.50527143 2.33684762 -6.92873104 3.16632624 -10.95703125 4.1640625 C-11.73761398 4.36099701 -12.51819672 4.55793152 -13.32243347 4.76083374 C-14.97341665 5.1755242 -16.62515818 5.5872054 -18.27758789 5.99609375 C-20.79498632 6.62065489 -23.30864009 7.25888326 -25.82226562 7.8984375 C-27.42947911 8.3003135 -29.03689488 8.70138153 -30.64453125 9.1015625 C-31.76514702 9.38744736 -31.76514702 9.38744736 -32.90840149 9.67910767 C-37.03312764 10.68752799 -40.71734247 11.20508144 -45 11 C-42.63735662 8.63735662 -41.230543 8.36888337 -38.01953125 7.5625 C-37.01986328 7.30726562 -36.02019531 7.05203125 -34.99023438 6.7890625 C-33.94158203 6.52867188 -32.89292969 6.26828125 -31.8125 6 C-29.75633894 5.47984404 -27.7003452 4.95902615 -25.64453125 4.4375 C-24.66806641 4.19177246 -23.69160156 3.94604492 -22.68554688 3.69287109 C-20.44984868 3.11606096 -18.23411121 2.50350168 -16.01953125 1.8515625 C-10.75397843 0.36658124 -5.47775545 -0.17117986 0 0 Z " fill="#D91F1B" transform="translate(1476,1180)"/>
<path d="M0 0 C7.48927211 0.34529235 14.36028255 1.14030439 21.546875 3.3046875 C23.75682995 3.93107601 25.85021528 4.33834014 28.125 4.625 C31 5 31 5 32 6 C33.010625 6.12375 34.02125 6.2475 35.0625 6.375 C40.17349984 7.18626982 45.26329841 8.26329841 49 12 C43.65181237 11.40868525 38.50556781 10.52628746 33.28125 9.22265625 C32.57907349 9.05124619 31.87689697 8.87983612 31.15344238 8.70323181 C28.93457261 8.16052251 26.71729102 7.61161955 24.5 7.0625 C23.01442307 6.6981591 21.52874664 6.33422367 20.04296875 5.97070312 C13.35732052 4.33240719 6.67737986 2.67166221 0 1 C0 0.67 0 0.34 0 0 Z " fill="#FBC6C5" transform="translate(965,344)"/>
<path d="M0 0 C-1.43429001 0.67354499 -2.87257057 1.33859701 -4.3125 2 C-5.51326172 2.556875 -5.51326172 2.556875 -6.73828125 3.125 C-9 4 -9 4 -12 4 C-12 4.66 -12 5.32 -12 6 C-33.50423729 14.52754237 -33.50423729 14.52754237 -43 14 C-40.56132436 12.37421624 -38.89252264 11.4957092 -36.20288086 10.5637207 C-35.44877426 10.3003743 -34.69466766 10.03702789 -33.91770935 9.76570129 C-32.70354088 9.34994087 -32.70354088 9.34994087 -31.46484375 8.92578125 C-30.63038223 8.63769089 -29.79592072 8.34960052 -28.93617249 8.05278015 C-27.17428874 7.44625804 -25.4116072 6.8420492 -23.64819336 6.23999023 C-20.94142649 5.31384349 -18.23925063 4.37509085 -15.53710938 3.43554688 C-13.82578627 2.84818441 -12.11420619 2.26156999 -10.40234375 1.67578125 C-9.59087387 1.39253494 -8.77940399 1.10928864 -7.94334412 0.81745911 C-2.22900179 -1.11450089 -2.22900179 -1.11450089 0 0 Z " fill="#DD2121" transform="translate(1532,496)"/>
<path d="M0 0 C2.31243792 -0.02685412 4.6249627 -0.04632841 6.9375 -0.0625 C8.22527344 -0.07410156 9.51304687 -0.08570313 10.83984375 -0.09765625 C14 0 14 0 15 1 C17.60504145 1.37677436 20.19787084 1.70719813 22.8125 2 C30.98351054 2.92967942 30.98351054 2.92967942 35 4 C35 4.66 35 5.32 35 6 C36.98 6 38.96 6 41 6 C41.495 6.99 41.495 6.99 42 8 C32.99532072 7.29845201 24.22934777 5.6432843 15.375 3.9375 C13.87898172 3.65259819 12.38288844 3.36808997 10.88671875 3.08398438 C7.25693709 2.39385511 3.6281973 1.69841682 0 1 C0 0.67 0 0.34 0 0 Z " fill="#DB1D1C" transform="translate(949,979)"/>
<path d="M0 0 C-8.63902394 8.63902394 -29.61039245 6.57232699 -41 7 C-41 6.67 -41 6.34 -41 6 C-36.44846861 5.13625044 -31.89526993 4.28212546 -27.34033203 3.43652344 C-25.79394989 3.14808913 -24.24803829 2.85711928 -22.70263672 2.56347656 C-20.4696422 2.13965449 -18.2350636 1.7252539 -16 1.3125 C-15.31945557 1.18125732 -14.63891113 1.05001465 -13.93774414 0.91479492 C-9.2016674 0.05290179 -4.78954905 -0.11225506 0 0 Z " fill="#D82221" transform="translate(746,337)"/>
<path d="M0 0 C0.33 0 0.66 0 1 0 C1 12.87 1 25.74 1 39 C2.32 39 3.64 39 5 39 C5 38.34 5 37.68 5 37 C16.33712984 32.40774487 16.33712984 32.40774487 23 33 C20.81976625 35.18023375 19.61272574 35.60570789 16.71875 36.5078125 C15.45611328 36.90419922 15.45611328 36.90419922 14.16796875 37.30859375 C13.28753906 37.57800781 12.40710937 37.84742188 11.5 38.125 C10.61957031 38.40214844 9.73914063 38.67929688 8.83203125 38.96484375 C2.28544489 41 2.28544489 41 0 41 C0 27.47 0 13.94 0 0 Z " fill="#CD1D1D" transform="translate(1014,1100)"/>
<path d="M0 0 C17.71337468 -0.38093279 34.70176137 1.12147116 52 5 C52 5.33 52 5.66 52 6 C40.07883391 5.43142141 28.28592606 4.35374066 16.4375 2.9375 C14.82882817 2.74890382 13.22010429 2.56075102 11.61132812 2.37304688 C7.74027011 1.92044143 3.86995298 1.46195457 0 1 C0 0.67 0 0.34 0 0 Z " fill="#D32E2E" transform="translate(883,971)"/>
<path d="M0 0 C2.62506802 -0.02690844 5.24986173 -0.04679404 7.875 -0.0625 C8.62136719 -0.07087891 9.36773438 -0.07925781 10.13671875 -0.08789062 C15.7734375 -0.11328125 15.7734375 -0.11328125 18 1 C20.16338091 1.20495188 22.33109005 1.36564275 24.5 1.5 C30.77777778 1.88888889 30.77777778 1.88888889 33 3 C36.6020895 3.2781025 40.20396821 3.44732224 43.8125 3.62109375 C47 4 47 4 49 6 C32.46467666 5.61500993 16.3344141 3.44744085 0 1 C0 0.67 0 0.34 0 0 Z " fill="#FCC9C8" transform="translate(1228,527)"/>
<path d="M0 0 C0 0.66 0 1.32 0 2 C-0.99 2.33 -1.98 2.66 -3 3 C-3 3.66 -3 4.32 -3 5 C-1.7315625 5.27263672 -1.7315625 5.27263672 -0.4375 5.55078125 C5.16181638 6.79153886 10.62093515 8.02384294 15.9453125 10.171875 C18.60669053 11.24452166 21.30144384 12.21244917 24 13.1875 C24.94875 13.53167969 25.8975 13.87585937 26.875 14.23046875 C27.926875 14.61138672 27.926875 14.61138672 29 15 C24.96471713 16.64400413 21.60677742 15.23342338 17.6796875 13.9453125 C16.9798172 13.72430878 16.2799469 13.50330505 15.55886841 13.27560425 C13.32773924 12.56828691 11.10152552 11.84666159 8.875 11.125 C7.36877627 10.64623256 5.86226853 10.16835765 4.35546875 9.69140625 C-6.57257821 6.2137109 -6.57257821 6.2137109 -9 5 C-9 4.34 -9 3.68 -9 3 C-2.25 0 -2.25 0 0 0 Z " fill="#D42A2A" transform="translate(1069,1157)"/>
<path d="M0 0 C-3.06482128 2.04321419 -3.85868835 2.26418841 -7.34375 2.37890625 C-8.17777344 2.41306641 -9.01179687 2.44722656 -9.87109375 2.48242188 C-11.17240234 2.52206055 -11.17240234 2.52206055 -12.5 2.5625 C-14.21888621 2.62252054 -15.93765049 2.68617165 -17.65625 2.75390625 C-18.41744141 2.77783447 -19.17863281 2.8017627 -19.96289062 2.82641602 C-22.20188071 2.93699377 -22.20188071 2.93699377 -25 4 C-26.77166975 4.14835948 -28.54767612 4.24770018 -30.32421875 4.31640625 C-31.35224609 4.35830078 -32.38027344 4.40019531 -33.43945312 4.44335938 C-34.51130859 4.48267578 -35.58316406 4.52199219 -36.6875 4.5625 C-38.31268555 4.62727539 -38.31268555 4.62727539 -39.97070312 4.69335938 C-42.64700791 4.79946838 -45.32340526 4.90152361 -48 5 C-48 4.67 -48 4.34 -48 4 C-15.89849055 -0.77553612 -15.89849055 -0.77553612 0 0 Z " fill="#FCCBCB" transform="translate(783,973)"/>
<path d="M0 0 C0.95101089 -0.00630432 1.90202179 -0.01260864 2.8818512 -0.019104 C3.9017363 -0.01505554 4.9216214 -0.01100708 5.97241211 -0.00683594 C7.55136513 -0.00970612 7.55136513 -0.00970612 9.16221619 -0.01263428 C11.38549031 -0.0139943 13.60877242 -0.01031064 15.83203125 -0.00195312 C19.2403337 0.00875945 22.64811032 -0.00186029 26.05639648 -0.01464844 C28.21590286 -0.01332702 30.37540891 -0.010765 32.53491211 -0.00683594 C34.06777611 -0.01290863 34.06777611 -0.01290863 35.63160706 -0.019104 C36.57946579 -0.01279968 37.52732452 -0.00649536 38.50390625 0 C39.33789444 0.00159119 40.17188263 0.00318237 41.03114319 0.00482178 C43.18725586 0.25878906 43.18725586 0.25878906 46.18725586 2.25878906 C45.58448318 2.24990662 44.98171051 2.24102417 44.360672 2.23187256 C38.08282969 2.14332785 31.80516498 2.08302517 25.52685547 2.0390625 C23.18433425 2.01895641 20.84186316 1.9916674 18.49951172 1.95703125 C15.13097763 1.90847066 11.76310755 1.88580984 8.39428711 1.86816406 C7.34827835 1.84751892 6.30226959 1.82687378 5.2245636 1.80560303 C-0.58067156 1.8038145 -3.47274751 2.07543555 -7.81274414 6.25878906 C-9.13274414 6.25878906 -10.45274414 6.25878906 -11.81274414 6.25878906 C-12.47274414 7.57878906 -13.13274414 8.89878906 -13.81274414 10.25878906 C-13.81274414 7.25878906 -13.81274414 7.25878906 -11.56274414 4.69628906 C-7.7078036 1.27940995 -5.15292867 0.00982203 0 0 Z " fill="#C31F1D" transform="translate(493.812744140625,306.7412109375)"/>
<path d="M0 0 C0.98613281 0.00322266 1.97226562 0.00644531 2.98828125 0.00976562 C4.02082031 0.01814453 5.05335938 0.02652344 6.1171875 0.03515625 C7.67759766 0.04192383 7.67759766 0.04192383 9.26953125 0.04882812 C11.84380712 0.06063673 14.41796896 0.0771055 16.9921875 0.09765625 C16.9921875 0.42765625 16.9921875 0.75765625 16.9921875 1.09765625 C15.7546875 1.20722656 14.5171875 1.31679688 13.2421875 1.4296875 C-0.5494683 2.68163869 -14.27617423 4.30836587 -28.0078125 6.09765625 C-28.0078125 5.43765625 -28.0078125 4.77765625 -28.0078125 4.09765625 C-21.81457829 2.5493477 -15.88400514 1.74252654 -9.51171875 1.34375 C-6.08411786 1.00687191 -3.58193835 -0.02058585 0 0 Z " fill="#FECDCD" transform="translate(757.0078125,332.90234375)"/>
<path d="M0 0 C1 2 1 2 0.5 4.25 C-1.26145728 7.47933835 -3.29425201 9.04391933 -6.125 11.3203125 C-8.72558892 13.65000674 -10.64111856 16.32035704 -12.640625 19.16796875 C-15.22541142 22.65148838 -15.22541142 22.65148838 -17 24 C-19.09863281 23.57495117 -19.09863281 23.57495117 -21 23 C-20.154375 22.17757813 -19.30875 21.35515625 -18.4375 20.5078125 C-11.7946898 13.99039379 -5.58047716 7.46873529 0 0 Z " fill="#DF2E2A" transform="translate(1177,1075)"/>
<path d="M0 0 C-3.6005806 2.47539916 -6.83740807 3.59233016 -11.03125 4.53125 C-13.18928075 5.00586041 -13.18928075 5.00586041 -15.9375 6.0625 C-19.26885486 7.08230251 -22.36892935 7.39734821 -25.82421875 7.7109375 C-28.23159093 7.95914658 -28.23159093 7.95914658 -31.3125 9.125 C-34.21402383 10.06968218 -35.17976659 9.8538873 -38 9 C-28.89404763 6.05943411 -19.7843956 3.1217421 -10.5625 0.5625 C-8.80099609 0.06943359 -8.80099609 0.06943359 -7.00390625 -0.43359375 C-4.15721732 -0.97035564 -2.67162055 -1.00431927 0 0 Z " fill="#D22424" transform="translate(675,352)"/>
<path d="M0 0 C5.12881696 -0.08997924 9.9301448 0.06880211 15 1 C15.33 1.33 15.66 1.66 16 2 C17.93559313 2.13504138 19.873872 2.23201129 21.8125 2.3125 C28.68581568 2.76869352 34.60467494 4.52253173 41 7 C37.41137332 8.2293871 34.74381182 7.78619986 31.0546875 7.07421875 C29.89453125 6.85443359 28.734375 6.63464844 27.5390625 6.40820312 C26.32992188 6.17037109 25.12078125 5.93253906 23.875 5.6875 C22.6890625 5.46126953 21.503125 5.23503906 20.28125 5.00195312 C13.51335328 3.70589343 6.75468043 2.36316087 0 1 C0 0.67 0 0.34 0 0 Z " fill="#D32726" transform="translate(1158,1188)"/>
<path d="M0 0 C9 0 9 0 14 1.5 C14.94875 1.7784375 15.8975 2.056875 16.875 2.34375 C17.57625 2.5603125 18.2775 2.776875 19 3 C19 3.33 19 3.66 19 4 C12.68892692 4.22949357 8.4403245 3.43118322 2 2 C1.67 11.57 1.34 21.14 1 31 C0.67 31 0.34 31 0 31 C0 20.77 0 10.54 0 0 Z " fill="#EF0B0A" transform="translate(1015,1029)"/>
<path d="M0 0 C-4.62222252 2.9503548 -8.48201817 4.56702981 -13.88671875 5.5078125 C-16.16295144 6.03795172 -17.92734901 6.93488769 -20 8 C-24.99296619 9.39148238 -29.86125258 10.35765657 -35 11 C-32.0875807 9.05838714 -29.62515213 8.03843533 -26.34375 6.87109375 C-25.23902344 6.47599609 -24.13429688 6.08089844 -22.99609375 5.67382812 C-21.26552734 5.0618457 -21.26552734 5.0618457 -19.5 4.4375 C-17.76943359 3.8197168 -17.76943359 3.8197168 -16.00390625 3.18945312 C-3.77246215 -1.17076411 -3.77246215 -1.17076411 0 0 Z " fill="#D83330" transform="translate(637,363)"/>
<path d="M0 0 C6.15234375 -0.09765625 6.15234375 -0.09765625 8 0 C8.33 0.33 8.66 0.66 9 1 C10.32955625 1.16025901 11.66436608 1.27761003 13 1.375 C17.21798692 1.79679869 20.88228455 2.8098787 24.859375 4.2421875 C26.85063557 4.94712281 28.83404372 5.52224687 30.875 6.0625 C34 7 34 7 37 9 C28.90094909 8.37428442 21.28923649 6.46569792 13.4375 4.4375 C12.12969779 4.10426583 10.82175589 3.77157937 9.51367188 3.43945312 C6.34103669 2.6316604 3.1699169 1.81838245 0 1 C0 0.67 0 0.34 0 0 Z " fill="#D52E2C" transform="translate(1120,1179)"/>
<path d="M0 0 C0.33 0 0.66 0 1 0 C2.12854631 12.69614598 -5.54133018 22.5365792 -13 32 C-13.97337561 33.02593369 -14.95821582 34.04360797 -16 35 C-15.125 30.25 -15.125 30.25 -14 28 C-13.34 28 -12.68 28 -12 28 C-12 27.34 -12 26.68 -12 26 C-11.34 26 -10.68 26 -10 26 C-10 25.01 -10 24.02 -10 23 C-9.34 23 -8.68 23 -8 23 C-7.01 19.535 -7.01 19.535 -6 16 C-5.34 16 -4.68 16 -4 16 C-3.86722656 15.46890625 -3.73445313 14.9378125 -3.59765625 14.390625 C-2.3984375 9.59375 -1.19921875 4.796875 0 0 Z " fill="#FED7D5" transform="translate(1191,1043)"/>
<path d="M0 0 C9.65464893 -0.11663334 19.28868594 0.00567116 28.9375 0.375 C29.88310791 0.40585693 30.82871582 0.43671387 31.80297852 0.46850586 C38.03309225 0.73102752 43.92525337 1.59654964 50 3 C50 3.33 50 3.66 50 4 C41.37949742 4.32736086 32.96185201 3.61437918 24.38964844 2.78613281 C16.26653949 2.00415487 8.14841963 1.44361024 0 1 C0 0.67 0 0.34 0 0 Z " fill="#FABDBC" transform="translate(865,332)"/>
<path d="M0 0 C-3.78456307 2.52304204 -7.29050592 3.16526807 -11.6875 4.125 C-12.85442383 4.39763672 -12.85442383 4.39763672 -14.04492188 4.67578125 C-19.14332983 5.80687092 -23.77959177 6.17898543 -29 6 C-24.6782896 3.11885973 -20.08800811 2.44251496 -15.0625 1.3125 C-13.55913086 0.95575195 -13.55913086 0.95575195 -12.02539062 0.59179688 C-10.57616211 0.26211914 -10.57616211 0.26211914 -9.09765625 -0.07421875 C-8.21601807 -0.27619873 -7.33437988 -0.47817871 -6.42602539 -0.6862793 C-3.9452844 -1.00707553 -2.354643 -0.7812341 0 0 Z " fill="#DA2626" transform="translate(704,345)"/>
<path d="M0 0 C0.99 0.33 1.98 0.66 3 1 C1.67369199 3.96871005 0.26172234 5.95641746 -2.1171875 8.1640625 C-2.72433594 8.72867187 -3.33148437 9.29328125 -3.95703125 9.875 C-4.90642578 10.74125 -4.90642578 10.74125 -5.875 11.625 C-6.50019531 12.21023438 -7.12539062 12.79546875 -7.76953125 13.3984375 C-10.73271596 16.12982975 -13.3084785 18.30994224 -17 20 C-16.34 18.68 -15.68 17.36 -15 16 C-14.34 16 -13.68 16 -13 16 C-13 15.34 -13 14.68 -13 14 C-12.34 13.67 -11.68 13.34 -11 13 C-10.67 12.01 -10.34 11.02 -10 10 C-9.34 10 -8.68 10 -8 10 C-8 9.34 -8 8.68 -8 8 C-7.01 8 -6.02 8 -5 8 C-5 7.34 -5 6.68 -5 6 C-4.01 6 -3.02 6 -2 6 C-2 5.01 -2 4.02 -2 3 C-1.34 3 -0.68 3 0 3 C0 2.01 0 1.02 0 0 Z " fill="#D51F1C" transform="translate(1135,1069)"/>
<path d="M0 0 C9.79847636 0.44116363 19.35399262 1.08566713 29 3 C29 3.33 29 3.66 29 4 C7.33160622 4.42487047 7.33160622 4.42487047 1 2 C0.67 1.34 0.34 0.68 0 0 Z " fill="#D82523" transform="translate(898,335)"/>
<path d="M0 0 C0.66 0.33 1.32 0.66 2 1 C-1.82774727 5.18659858 -5.94607874 8.37820862 -11 11 C-11.66 11 -12.32 11 -13 11 C-13 11.66 -13 12.32 -13 13 C-14.65 13 -16.3 13 -18 13 C-15.9585653 10.84925153 -13.90083747 9.1484144 -11.42578125 7.51953125 C-10.75869141 7.07802734 -10.09160156 6.63652344 -9.40429688 6.18164062 C-8.71400391 5.72982422 -8.02371094 5.27800781 -7.3125 4.8125 C-6.61060547 4.34908203 -5.90871094 3.88566406 -5.18554688 3.40820312 C-3.45910505 2.26898641 -1.72982761 1.13406902 0 0 Z " fill="#DB2825" transform="translate(1122,1126)"/>
<path d="M0 0 C5.61 0 11.22 0 17 0 C17 0.33 17 0.66 17 1 C6.35378054 2.96869049 -4.20091647 3.56666824 -15 4 C-13 2 -13 2 -9.9609375 1.8046875 C-8.18589844 1.83949219 -8.18589844 1.83949219 -6.375 1.875 C-4.59222656 1.90207031 -4.59222656 1.90207031 -2.7734375 1.9296875 C-1.85820313 1.95289063 -0.94296875 1.97609375 0 2 C0 1.34 0 0.68 0 0 Z " fill="#D61717" transform="translate(785,969)"/>
<path d="M0 0 C7.88416983 1.35258896 15.39353334 3.54399352 23 6 C23 6.66 23 7.32 23 8 C15.36962743 7.55115455 5.53288103 5.53288103 0 0 Z " fill="#D51413" transform="translate(1034,1033)"/>
<path d="M0 0 C7.24594097 -0.12190858 14.34734819 0.35633365 21.5625 1 C23.21862305 1.14308594 23.21862305 1.14308594 24.90820312 1.2890625 C27.60578644 1.5226195 30.30301301 1.75967126 33 2 C33 2.33 33 2.66 33 3 C28.85418113 3.02886751 24.70838784 3.04675327 20.5625 3.0625 C19.37849609 3.07087891 18.19449219 3.07925781 16.97460938 3.08789062 C15.84990234 3.09111328 14.72519531 3.09433594 13.56640625 3.09765625 C12.00321655 3.10551147 12.00321655 3.10551147 10.40844727 3.11352539 C8 3 8 3 7 2 C4.67182036 1.63239269 2.3381615 1.29758419 0 1 C0 0.67 0 0.34 0 0 Z " fill="#D22828" transform="translate(1260,532)"/>
<path d="M0 0 C-2.77976817 1.85317878 -4.36962403 2.49042078 -7.52734375 3.25390625 C-8.40197266 3.46853516 -9.27660156 3.68316406 -10.17773438 3.90429688 C-11.08845703 4.12150391 -11.99917969 4.33871094 -12.9375 4.5625 C-13.84435547 4.78357422 -14.75121094 5.00464844 -15.68554688 5.23242188 C-17.37556816 5.6440459 -19.06618249 6.05324808 -20.75756836 6.45922852 C-22.84129441 6.9617275 -24.92133845 7.47699343 -27 8 C-27 7.34 -27 6.68 -27 6 C-24.30472732 4.55501021 -21.82920025 3.59758076 -18.84765625 2.9296875 C-17.68266602 2.66865234 -17.68266602 2.66865234 -16.49414062 2.40234375 C-15.29047852 2.14130859 -15.29047852 2.14130859 -14.0625 1.875 C-13.26392578 1.69324219 -12.46535156 1.51148438 -11.64257812 1.32421875 C-7.69989272 0.45532536 -4.06472692 -0.24634709 0 0 Z " fill="#FECFD0" transform="translate(686,347)"/>
<path d="M0 0 C0 0.33 0 0.66 0 1 C-3.186173 1.50870533 -6.37411475 2.00536581 -9.5625 2.5 C-10.45775391 2.64308594 -11.35300781 2.78617188 -12.27539062 2.93359375 C-17.25003648 3.69892388 -21.96739357 4.16568252 -27 4 C-21.05796005 -1.94203995 -7.80627533 -0.2266338 0 0 Z " fill="#D21F1F" transform="translate(1405,1196)"/>
<path d="M0 0 C5.78898419 -0.20674944 10.42932723 0.40837921 16 2 C16 2.66 16 3.32 16 4 C17.65 4 19.3 4 21 4 C21 4.66 21 5.32 21 6 C13.64987044 5.42351925 6.98575424 3.28953836 0 1 C0 0.67 0 0.34 0 0 Z " fill="#D51E20" transform="translate(1098,1173)"/>
<path d="M0 0 C5.97844919 -0.31465522 9.49560042 0.3979202 15 3 C17.3178723 3.74989986 19.6440297 4.37494665 22 5 C22 5.33 22 5.66 22 6 C16.40445447 6.29105568 12.22999426 5.37632274 7.0625 3.5 C6.37865234 3.26152344 5.69480469 3.02304687 4.99023438 2.77734375 C3.32341903 2.19454118 1.66119684 1.59862949 0 1 C0 0.67 0 0.34 0 0 Z " fill="#DD1B19" transform="translate(1073,1009)"/>
<path d="M0 0 C-1.2065625 0.4021875 -1.2065625 0.4021875 -2.4375 0.8125 C-3.283125 1.204375 -4.12875 1.59625 -5 2 C-5.33 2.99 -5.66 3.98 -6 5 C-7.92578125 5.765625 -7.92578125 5.765625 -10.3125 6.25 C-11.48232422 6.50523437 -11.48232422 6.50523437 -12.67578125 6.765625 C-15.09413305 7.00949241 -16.68277988 6.64297749 -19 6 C-16.2120519 4.80303299 -13.42025583 3.61716986 -10.625 2.4375 C-9.8309375 2.09525391 -9.036875 1.75300781 -8.21875 1.40039062 C-7.45820312 1.08134766 -6.69765625 0.76230469 -5.9140625 0.43359375 C-4.8614624 -0.01415405 -4.8614624 -0.01415405 -3.78759766 -0.47094727 C-2 -1 -2 -1 0 0 Z " fill="#D7201F" transform="translate(1551,488)"/>
<path d="M0 0 C10.11155648 0.34628618 19.30665292 2.32468598 29 5 C29 5.33 29 5.66 29 6 C23.48154479 6.34490345 19.3398717 5.97418951 14.26171875 3.80078125 C9.68101441 2.17894293 4.795759 1.67939919 0 1 C0 0.67 0 0.34 0 0 Z " fill="#D02A2A" transform="translate(952,343)"/>
<path d="M0 0 C6.8723865 0.36635884 12.7198009 1.09250042 19 4 C19.33 4.66 19.66 5.32 20 6 C13.04976736 5.35346673 6.61822697 3.13972752 0 1 C0 0.67 0 0.34 0 0 Z " fill="#FBC5C3" transform="translate(1041,1034)"/>
<path d="M0 0 C2.20770805 -0.08165496 4.41630425 -0.13948488 6.625 -0.1875 C7.85476563 -0.22230469 9.08453125 -0.25710938 10.3515625 -0.29296875 C14.26407664 0.0212053 16.64070218 1.03093467 20 3 C15.69577494 4.31052767 12.0629466 3.45785552 7.75 2.5625 C7.00492188 2.41490234 6.25984375 2.26730469 5.4921875 2.11523438 C3.65992335 1.7511306 1.82973947 1.37658591 0 1 C0 0.67 0 0.34 0 0 Z " fill="#D73230" transform="translate(949,979)"/>
<path d="M0 0 C-0.95712891 0.19916016 -0.95712891 0.19916016 -1.93359375 0.40234375 C-3.17302734 0.66724609 -3.17302734 0.66724609 -4.4375 0.9375 C-5.26121094 1.11152344 -6.08492187 1.28554688 -6.93359375 1.46484375 C-8.97661204 1.80752994 -8.97661204 1.80752994 -10 3 C-12.69654854 3.07319621 -15.36691458 3.09242537 -18.0625 3.0625 C-18.82111328 3.05798828 -19.57972656 3.05347656 -20.36132812 3.04882812 C-22.24091871 3.0370068 -24.12046899 3.01907078 -26 3 C-26 2.67 -26 2.34 -26 2 C-22.4184073 1.46669495 -18.83454729 0.95053833 -15.25 0.4375 C-14.23421875 0.28603516 -13.2184375 0.13457031 -12.171875 -0.02148438 C-11.1921875 -0.16005859 -10.2125 -0.29863281 -9.203125 -0.44140625 C-7.85202637 -0.63778687 -7.85202637 -0.63778687 -6.47363281 -0.83813477 C-4.04031365 -0.99736203 -2.30785997 -0.73710222 0 0 Z " fill="#D12928" transform="translate(1416,528)"/>
<path d="M0 0 C0 0.66 0 1.32 0 2 C-0.99 2.33 -1.98 2.66 -3 3 C-3 3.66 -3 4.32 -3 5 C-0.36 5.66 2.28 6.32 5 7 C4.67 7.66 4.34 8.32 4 9 C2.20763933 8.52343588 0.41613103 8.04366502 -1.375 7.5625 C-2.37273437 7.29566406 -3.37046875 7.02882813 -4.3984375 6.75390625 C-7 6 -7 6 -9 5 C-9 4.34 -9 3.68 -9 3 C-2.25 0 -2.25 0 0 0 Z " fill="#CE3B37" transform="translate(1069,1157)"/>
<path d="M0 0 C-1.43429001 0.67354499 -2.87257057 1.33859701 -4.3125 2 C-5.11300781 2.37125 -5.91351562 2.7425 -6.73828125 3.125 C-9 4 -9 4 -12 4 C-12 4.66 -12 5.32 -12 6 C-15.47325181 7.1577506 -18.36067448 7.06866652 -22 7 C-18.31819464 4.54546309 -14.58981383 3.27700903 -10.4375 1.8125 C-9.65697266 1.52697266 -8.87644531 1.24144531 -8.07226562 0.94726562 C-2.24111087 -1.12055543 -2.24111087 -1.12055543 0 0 Z " fill="#D4312E" transform="translate(1532,496)"/>
<path d="M0 0 C-2.7899439 1.17094005 -5.58178597 2.33690927 -8.375 3.5 C-9.1690625 3.83386719 -9.963125 4.16773438 -10.78125 4.51171875 C-11.92207031 4.98544922 -11.92207031 4.98544922 -13.0859375 5.46875 C-13.7876709 5.76201172 -14.4894043 6.05527344 -15.21240234 6.35742188 C-17 7 -17 7 -19 7 C-19 6.34 -19 5.68 -19 5 C-16.89615302 4.18667257 -14.79191143 3.37436583 -12.6875 2.5625 C-11.51574219 2.11003906 -10.34398437 1.65757813 -9.13671875 1.19140625 C-3.19557625 -1.06519208 -3.19557625 -1.06519208 0 0 Z " fill="#D21A19" transform="translate(1057,1126)"/>
<path d="M0 0 C0 5.61 0 11.22 0 17 C-0.33 17 -0.66 17 -1 17 C-1.33 13.04 -1.66 9.08 -2 5 C-4.97 4.505 -4.97 4.505 -8 4 C-2.7826087 0 -2.7826087 0 0 0 Z " fill="#CE2D2F" transform="translate(1572,477)"/>
<path d="M0 0 C0.99 0.33 1.98 0.66 3 1 C-3.5490142 4.37081613 -8.57488991 6.70048208 -16 6 C-13.44690137 3.44690137 -11.49828188 3.24059115 -8 2.4375 C-3.88452085 1.53923227 -3.88452085 1.53923227 0 0 Z " fill="#E41714" transform="translate(611,371)"/>
<path d="M0 0 C-3.07790202 1.03774122 -6.16300246 2.05216917 -9.25 3.0625 C-10.12269531 3.35705078 -10.99539063 3.65160156 -11.89453125 3.95507812 C-12.73886719 4.22900391 -13.58320312 4.50292969 -14.453125 4.78515625 C-15.61569824 5.17006226 -15.61569824 5.17006226 -16.80175781 5.56274414 C-19.22641603 6.04503677 -20.67847821 5.7792359 -23 5 C-15.85071972 1.44262865 -8.01261177 -2.209178 0 0 Z " fill="#FECECD" transform="translate(656,356)"/>
<path d="M0 0 C6.43124858 -0.40195304 11.12767309 0.27356251 17 3 C17.33 3.66 17.66 4.32 18 5 C11.80759538 4.31195504 5.98044406 2.71951285 0 1 C0 0.67 0 0.34 0 0 Z " fill="#FBC8C8" transform="translate(1023,1029)"/>
<path d="M0 0 C10.55808656 3.07517084 10.55808656 3.07517084 15 5 C15 5.33 15 5.66 15 6 C9.46342706 6.42589023 5.10334017 4.905247 0 3 C0 2.01 0 1.02 0 0 Z " fill="#D61515" transform="translate(1092,1051)"/>
<path d="M0 0 C6.71700347 -0.31985731 11.75726932 0.5206176 18 3 C14.6951021 4.07868195 12.38236521 3.90419019 9 3.1875 C8.154375 3.01605469 7.30875 2.84460938 6.4375 2.66796875 C4.0852168 2.02335268 2.1326998 1.17002281 0 0 Z " fill="#DD0F0F" transform="translate(931,975)"/>
<path d="M0 0 C-1.78809697 1.17213045 -3.58059125 2.33755526 -5.375 3.5 C-6.37273437 4.1496875 -7.37046875 4.799375 -8.3984375 5.46875 C-11 7 -11 7 -13 7 C-12.3125 5.0625 -12.3125 5.0625 -11 3 C-8.375 2.25 -8.375 2.25 -6 2 C-6 1.34 -6 0.68 -6 0 C-3.50907189 -1.24546405 -2.58919267 -0.7767578 0 0 Z " fill="#D82522" transform="translate(1095,1106)"/>
<path d="M0 0 C-2.60258324 0.83857688 -5.20685647 1.67103344 -7.8125 2.5 C-8.55048828 2.73847656 -9.28847656 2.97695313 -10.04882812 3.22265625 C-13.13255196 4.19940136 -15.74495809 5 -19 5 C-19 4.34 -19 3.68 -19 3 C-13.29836208 0.33923564 -6.16088672 -2.00620099 0 0 Z " fill="#D42322" transform="translate(648,998)"/>
<path d="M0 0 C0.33 0 0.66 0 1 0 C1 2.64 1 5.28 1 8 C-3.38889325 7.33501617 -6.9811485 5.81242323 -11 4 C-11 3.67 -11 3.34 -11 3 C-4.6 2.63076923 -4.6 2.63076923 -1.5625 4.5 C-1.046875 4.995 -0.53125 5.49 0 6 C0 4.02 0 2.04 0 0 Z " fill="#D12825" transform="translate(1158,1034)"/>
<path d="M0 0 C4.16486198 -0.30017023 6.65015727 0.54675054 10.3125 2.5 C11.19550781 2.9640625 12.07851562 3.428125 12.98828125 3.90625 C13.65214844 4.2671875 14.31601563 4.628125 15 5 C15 5.66 15 6.32 15 7 C9.80355921 5.40109514 4.93387858 3.25861997 0 1 C0 0.67 0 0.34 0 0 Z " fill="#FCC8C7" transform="translate(1141,399)"/>
<path d="M0 0 C-1.76755526 0.84026396 -3.53917263 1.67198722 -5.3125 2.5 C-6.79169922 3.19609375 -6.79169922 3.19609375 -8.30078125 3.90625 C-11 5 -11 5 -14 5 C-14 3.35 -14 1.7 -14 0 C-13.67 0.99 -13.34 1.98 -13 3 C-12.01 3 -11.02 3 -10 3 C-10 2.34 -10 1.68 -10 1 C-6.16112237 -0.48320272 -3.93795909 -1.22419163 0 0 Z " fill="#CE2624" transform="translate(598,1016)"/>
<path d="M0 0 C0.99 0.33 1.98 0.66 3 1 C-2.445 5.455 -2.445 5.455 -8 10 C-8.33 9.01 -8.66 8.02 -9 7 C-8.34 7 -7.68 7 -7 7 C-7 6.34 -7 5.68 -7 5 C-6.01 5 -5.02 5 -4 5 C-4 4.34 -4 3.68 -4 3 C-2.1875 1.3125 -2.1875 1.3125 0 0 Z " fill="#FDCDCC" transform="translate(1135,1114)"/>
<path d="M0 0 C-4.81384901 3.81788025 -10.10647769 3.70067925 -16 4 C-13.03476487 2.02317658 -10.84158175 1.24171007 -7.4375 0.3125 C-6.46683594 0.04050781 -5.49617187 -0.23148438 -4.49609375 -0.51171875 C-2 -1 -2 -1 0 0 Z " fill="#FBCAC9" transform="translate(645,1000)"/>
<path d="M0 0 C-2.58535679 1.72357119 -4.03811614 2.44735018 -6.9375 3.1875 C-7.60652344 3.36667969 -8.27554688 3.54585937 -8.96484375 3.73046875 C-11.24680888 4.03268678 -12.82026659 3.68756692 -15 3 C-10.27805833 -0.77755334 -5.74071928 -0.30096975 0 0 Z " fill="#D72520" transform="translate(676,989)"/>
<path d="M0 0 C5.50808397 0.59015185 10.64878069 1.56663769 16 3 C16 3.33 16 3.66 16 4 C14.39592672 4.02708567 12.7917215 4.04643483 11.1875 4.0625 C9.84751953 4.07990234 9.84751953 4.07990234 8.48046875 4.09765625 C6 4 6 4 3 3 C3 2.34 3 1.68 3 1 C2.01 0.67 1.02 0.34 0 0 Z " fill="#D41412" transform="translate(990,351)"/>
<path d="M0 0 C-3.26737303 3.26737303 -6.83168198 3.95672896 -11.375 4.125 C-12.24125 4.08375 -13.1075 4.0425 -14 4 C-9.86300566 -0.13699434 -5.66047258 -0.22197932 0 0 Z " fill="#DA201C" transform="translate(1037,1133)"/>
<path d="M0 0 C0.99 0.33 1.98 0.66 3 1 C1.4169423 5.2742558 -1.50568404 7.26531794 -5 10 C-5 8.68 -5 7.36 -5 6 C-4.01 6 -3.02 6 -2 6 C-2 5.01 -2 4.02 -2 3 C-1.34 3 -0.68 3 0 3 C0 2.01 0 1.02 0 0 Z " fill="#D53A36" transform="translate(1135,1069)"/>
<path d="M0 0 C-2.67024533 1.78016355 -5.05030861 2.97163019 -8 4.1875 C-8.86625 4.55230469 -9.7325 4.91710937 -10.625 5.29296875 C-13 6 -13 6 -16 5 C-13.35261084 3.5393715 -12.10551666 3 -9 3 C-9 2.34 -9 1.68 -9 1 C-6.04335481 -0.4783226 -3.25770263 -0.06032783 0 0 Z " fill="#D11C1B" transform="translate(624,1005)"/>
<path d="M0 0 C0.79921875 0.00902344 1.5984375 0.01804687 2.421875 0.02734375 C3.02515625 0.03894531 3.6284375 0.05054688 4.25 0.0625 C1.62109503 1.45323768 -0.87122047 2.50219204 -3.75 3.25 C-4.41 3.42917969 -5.07 3.60835937 -5.75 3.79296875 C-8.01540976 4.09826811 -9.585092 3.74386613 -11.75 3.0625 C-10.76 3.0625 -9.77 3.0625 -8.75 3.0625 C-8.75 2.4025 -8.75 1.7425 -8.75 1.0625 C-5.75519083 0.1901588 -3.11424089 -0.04579766 0 0 Z " fill="#D31616" transform="translate(687.75,984.9375)"/>
<path d="M0 0 C-0.33 0.66 -0.66 1.32 -1 2 C-5.95 2 -10.9 2 -16 2 C-16 1.67 -16 1.34 -16 1 C-14.0852312 0.63571223 -12.16807707 0.28394694 -10.25 -0.0625 C-9.18265625 -0.25972656 -8.1153125 -0.45695312 -7.015625 -0.66015625 C-4.25228095 -0.97156937 -2.59053383 -0.8991416 0 0 Z " fill="#E10D0D" transform="translate(1412,1194)"/>
<path d="M0 0 C0.33 0 0.66 0 1 0 C1.59244521 6.66500865 -0.51677155 11.86952975 -3 18 C-3.33 18 -3.66 18 -4 18 C-4.42501659 13.32481747 -2.85735989 10.23478055 -1 6 C-0.60235737 4.01178687 -0.24544834 2.01267638 0 0 Z " fill="#FECCCA" transform="translate(1191,1043)"/>
<path d="M0 0 C1.58624235 0.42683239 3.1689098 0.86696158 4.75 1.3125 C6.07257813 1.67794922 6.07257813 1.67794922 7.421875 2.05078125 C10.05772505 3.02125331 11.85407326 4.21005644 14 6 C6.25 5.125 6.25 5.125 4 4 C4 3.34 4 2.68 4 2 C2.68 1.67 1.36 1.34 0 1 C0 0.67 0 0.34 0 0 Z " fill="#D52421" transform="translate(1124,393)"/>
<path d="M0 0 C0.99 0.33 1.98 0.66 3 1 C1.54712339 2.33927721 0.08752741 3.67126847 -1.375 5 C-2.18710938 5.7425 -2.99921875 6.485 -3.8359375 7.25 C-6 9 -6 9 -8 9 C-7.67 8.01 -7.34 7.02 -7 6 C-6.34 6 -5.68 6 -5 6 C-5 5.34 -5 4.68 -5 4 C-4.34 4 -3.68 4 -3 4 C-3 3.34 -3 2.68 -3 2 C-2.01 1.34 -1.02 0.68 0 0 Z " fill="#FDCBCB" transform="translate(1146,1105)"/>
<path d="M0 0 C1 2 1 2 0.375 4.375 C-1.25561397 7.4879903 -3.15997255 8.98208576 -6 11 C-4.74194623 6.49197399 -3.09592835 3.5087188 0 0 Z " fill="#DD201D" transform="translate(1177,1075)"/>
<path d="M0 0 C9.21875 0.9375 9.21875 0.9375 13 3 C13.33 3.99 13.66 4.98 14 6 C9.27934033 4.45730076 4.58335908 2.92205381 0 1 C0 0.67 0 0.34 0 0 Z " fill="#FCCAC9" transform="translate(1107,1056)"/>
<path d="M0 0 C5.65020618 0.60108576 10.66164461 2.07528683 16 4 C16 4.33 16 4.66 16 5 C9.741346 5.5326514 5.54891215 3.81849506 0 1 C0 0.67 0 0.34 0 0 Z " fill="#D32622" transform="translate(1057,1040)"/>
<path d="M0 0 C1.77226453 0.28284018 3.542788 0.57660498 5.3125 0.875 C6.29863281 1.03742188 7.28476563 1.19984375 8.30078125 1.3671875 C11 2 11 2 14 4 C5.42857143 4.14285714 5.42857143 4.14285714 2 3 C2 2.34 2 1.68 2 1 C1.34 0.67 0.68 0.34 0 0 Z " fill="#D41E1C" transform="translate(1020,1029)"/>
<path d="M0 0 C6.625 -0.25 6.625 -0.25 10 2 C11.65549531 2.38499891 13.3222433 2.72793135 15 3 C15 3.66 15 4.32 15 5 C13.06077578 4.54901762 11.12366406 4.08894441 9.1875 3.625 C8.10855469 3.36976563 7.02960938 3.11453125 5.91796875 2.8515625 C3 2 3 2 0 0 Z " fill="#FAC2C3" transform="translate(1047,365)"/>
<path d="M0 0 C1.41965142 0.42771549 2.8356224 0.86765543 4.25 1.3125 C5.43335938 1.67794922 5.43335938 1.67794922 6.640625 2.05078125 C9.12697232 3.05108323 10.9342834 4.30857609 13 6 C11.39536551 5.68991116 9.79130769 5.37683713 8.1875 5.0625 C7.29417969 4.88847656 6.40085937 4.71445313 5.48046875 4.53515625 C3 4 3 4 0 3 C0 2.01 0 1.02 0 0 Z " fill="#D32B26" transform="translate(1122,1063)"/>
<path d="M0 0 C5.63281599 -0.2396943 10.54538831 0.61470179 16 2 C16 2.33 16 2.66 16 3 C10.26157749 3.20413361 5.39460953 3.27141454 0 1 C0 0.67 0 0.34 0 0 Z " fill="#D32825" transform="translate(1193,522)"/>
<path d="M0 0 C-2.95183101 2.95183101 -5.95511947 3.08663988 -10 4 C-10 3.01 -10 2.02 -10 1 C-6.78548731 -0.60725635 -3.56387464 -0.05748185 0 0 Z " fill="#DE1515" transform="translate(664,355)"/>
<path d="M0 0 C0.556875 0.268125 1.11375 0.53625 1.6875 0.8125 C0.4375 2.3125 0.4375 2.3125 -1.3125 3.8125 C-2.6325 3.8125 -3.9525 3.8125 -5.3125 3.8125 C-5.9725 5.1325 -6.6325 6.4525 -7.3125 7.8125 C-7.3125 4.8125 -7.3125 4.8125 -5.0625 2.0625 C-2.3125 -0.1875 -2.3125 -0.1875 0 0 Z " fill="#D51A19" transform="translate(487.3125,309.1875)"/>
<path d="M0 0 C-4.97504047 3.24900602 -7.88225104 4.49940808 -14 4 C-11.37350692 2.24900461 -9.38191413 1.30690675 -6.4375 0.3125 C-5.65246094 0.04050781 -4.86742187 -0.23148438 -4.05859375 -0.51171875 C-2 -1 -2 -1 0 0 Z " fill="#FECACA" transform="translate(1510,1171)"/>
<path d="M0 0 C3.53600465 1.91135386 5.78972846 3.62642766 8 7 C7.67 7.66 7.34 8.32 7 9 C6.34 8.67 5.68 8.34 5 8 C5 7.34 5 6.68 5 6 C4.01 5.67 3.02 5.34 2 5 C2 4.01 2 3.02 2 2 C1.34 2 0.68 2 0 2 C0 1.34 0 0.68 0 0 Z " fill="#D42F2B" transform="translate(541,309)"/>
<path d="M0 0 C-1.4562545 0.67119549 -2.91507867 1.33681807 -4.375 2 C-5.59316406 2.556875 -5.59316406 2.556875 -6.8359375 3.125 C-9 4 -9 4 -11 4 C-11 3.34 -11 2.68 -11 2 C-4.03571429 -1.34821429 -4.03571429 -1.34821429 0 0 Z " fill="#FDD4D3" transform="translate(1082,1151)"/>
<path d="M0 0 C8.19256018 0.35010941 8.19256018 0.35010941 11.5625 3.0625 C12.036875 3.701875 12.51125 4.34125 13 5 C11.39402675 4.54803755 9.79027492 4.08817673 8.1875 3.625 C6.84751953 3.24214844 6.84751953 3.24214844 5.48046875 2.8515625 C3 2 3 2 0 0 Z " fill="#D12326" transform="translate(1120,1026)"/>
<path d="M0 0 C-2 2 -2 2 -4.3828125 2.1953125 C-5.28773438 2.17210937 -6.19265625 2.14890625 -7.125 2.125 C-8.49011719 2.09792969 -8.49011719 2.09792969 -9.8828125 2.0703125 C-10.58148437 2.04710937 -11.28015625 2.02390625 -12 2 C-7.66032699 -0.21504143 -4.80574417 -1.54470348 0 0 Z " fill="#FAC0C0" transform="translate(692,987)"/>
<path d="M0 0 C0.33 0.66 0.66 1.32 1 2 C0.26418258 3.1549921 -0.48930039 4.29874185 -1.25 5.4375 C-1.66765625 6.07558594 -2.0853125 6.71367188 -2.515625 7.37109375 C-4.27248877 9.29902057 -5.46089803 9.61479436 -8 10 C-7.59007812 9.52949219 -7.18015625 9.05898437 -6.7578125 8.57421875 C-6.21898437 7.95160156 -5.68015625 7.32898437 -5.125 6.6875 C-4.59132813 6.07261719 -4.05765625 5.45773437 -3.5078125 4.82421875 C-1.8359553 2.86501788 -1.8359553 2.86501788 0 0 Z " fill="#D23834" transform="translate(1171,1082)"/>
<path d="M0 0 C5.95703125 -0.390625 5.95703125 -0.390625 8 0 C8.99 1.32 9.98 2.64 11 4 C7.37 3.01 3.74 2.02 0 1 C0 0.67 0 0.34 0 0 Z " fill="#D32323" transform="translate(1073,1009)"/>
<path d="M0 0 C3.63 0.33 7.26 0.66 11 1 C11 1.99 11 2.98 11 4 C7.37 3.01 3.74 2.02 0 1 C0 0.67 0 0.34 0 0 Z " fill="#FABDBD" transform="translate(1063,370)"/>
<path d="M0 0 C-3.31371 2.20914 -4.3446021 2.22481553 -8.1875 2.125 C-9.08855469 2.10695313 -9.98960937 2.08890625 -10.91796875 2.0703125 C-11.60503906 2.04710937 -12.29210937 2.02390625 -13 2 C-13 1.67 -13 1.34 -13 1 C-11.58622218 0.63447197 -10.16879424 0.28304505 -8.75 -0.0625 C-7.96109375 -0.25972656 -7.1721875 -0.45695312 -6.359375 -0.66015625 C-3.89605178 -1.01497267 -2.34395868 -0.76877544 0 0 Z " fill="#D52F2E" transform="translate(704,345)"/>
<path d="M0 0 C-2 2 -2 2 -4.1640625 2.1953125 C-5.38222656 2.16050781 -5.38222656 2.16050781 -6.625 2.125 C-7.44226562 2.10695313 -8.25953125 2.08890625 -9.1015625 2.0703125 C-9.72804688 2.04710937 -10.35453125 2.02390625 -11 2 C-7.00042393 -0.06874624 -4.43559483 -1.37656391 0 0 Z " fill="#FBCAC8" transform="translate(1480,1181)"/>
<path d="M0 0 C3.3 0.33 6.6 0.66 10 1 C10 1.99 10 2.98 10 4 C6.7 3.01 3.4 2.02 0 1 C0 0.67 0 0.34 0 0 Z " fill="#FCC3C3" transform="translate(1091,1050)"/>
<path d="M0 0 C2.31 0 4.62 0 7 0 C7 0.66 7 1.32 7 2 C7.66 2 8.32 2 9 2 C9 2.66 9 3.32 9 4 C6.03 3.01 3.06 2.02 0 1 C0 0.67 0 0.34 0 0 Z " fill="#D41F20" transform="translate(1138,1033)"/>
<path d="M0 0 C3.3 0.99 6.6 1.98 10 3 C10 3.33 10 3.66 10 4 C7.25 4.25 7.25 4.25 4 4 C1.625 2 1.625 2 0 0 Z " fill="#D52925" transform="translate(1114,389)"/>
<path d="M0 0 C1.32 0.33 2.64 0.66 4 1 C-2.75 5 -2.75 5 -5 5 C-4.67 4.01 -4.34 3.02 -4 2 C-2.68 2 -1.36 2 0 2 C0 1.34 0 0.68 0 0 Z " fill="#FCCBCA" transform="translate(1087,1145)"/>
<path d="M0 0 C0.66 0.33 1.32 0.66 2 1 C1.67 1.66 1.34 2.32 1 3 C0.34 3 -0.32 3 -1 3 C-1 3.66 -1 4.32 -1 5 C-2.65 5 -4.3 5 -6 5 C-4.06745228 2.9754262 -2.36841312 1.57894208 0 0 Z " fill="#D62E2C" transform="translate(1110,1134)"/>
<path d="M0 0 C2.31 0.33 4.62 0.66 7 1 C7 1.66 7 2.32 7 3 C7.66 3 8.32 3 9 3 C8.67 3.66 8.34 4.32 8 5 C5.36 3.68 2.72 2.36 0 1 C0 0.67 0 0.34 0 0 Z " fill="#DC1A15" transform="translate(1007,355)"/>
</svg>
