<?xml version="1.0" encoding="UTF-8"?>
<svg version="1.1" xmlns="http://www.w3.org/2000/svg" width="2048" height="2048">
<path d="M0 0 C675.84 0 1351.68 0 2048 0 C2048 675.84 2048 1351.68 2048 2048 C1372.16 2048 696.32 2048 0 2048 C0 1372.16 0 696.32 0 0 Z " fill="#FEFEFE" transform="translate(0,0)"/>
<path d="M0 0 C1.61517014 0.02274994 1.61517014 0.02274994 3.26296997 0.04595947 C17.04572349 0.30542405 30.81665416 1.04447072 44.57666016 1.84863281 C48.39558145 2.07109425 52.21534677 2.2711276 56.03574944 2.46624374 C59.03240721 2.62297786 62.02805045 2.79499839 65.02362442 2.971138 C66.43209932 3.0515271 67.84089224 3.12656231 69.24996567 3.19567108 C82.09094652 3.83567176 92.1475356 5.90238637 101.2421875 15.359375 C101.97179688 16.11476563 102.70140625 16.87015625 103.453125 17.6484375 C117.28098563 32.51456753 117.28098563 32.51456753 119.1171875 39.859375 C116.27108182 51.24379772 107.76805789 61.72396636 101.2421875 71.359375 C100.67757813 72.24882813 100.11296875 73.13828125 99.53125 74.0546875 C91.73901526 81.90011155 80.66577591 82.92498759 70.2421875 84.546875 C68.67099223 84.80336131 67.09994744 85.06077104 65.52905273 85.3190918 C56.16190112 86.83960627 46.79249512 88.16905125 37.33984375 89.03515625 C34.395631 89.26594294 34.395631 89.26594294 32.203125 89.88671875 C29.39400143 90.56381826 26.68998461 90.56934776 23.8046875 90.609375 C22.69222656 90.63515625 21.57976562 90.6609375 20.43359375 90.6875 C16.91799009 90.32604259 15.14061436 89.3018833 12.2421875 87.359375 C11.5821875 87.359375 10.9221875 87.359375 10.2421875 87.359375 C8.69246018 91.00662074 7.14424229 94.65450309 5.59741211 98.30297852 C5.07113286 99.54371387 4.54444357 100.78427538 4.01733398 102.0246582 C3.25917158 103.80894805 2.50261202 105.59391869 1.74609375 107.37890625 C1.29049072 108.45245361 0.8348877 109.52600098 0.36547852 110.63208008 C-0.4099247 112.51472067 -1.11395027 114.4277883 -1.7578125 116.359375 C-0.87859131 116.94203125 0.00062988 117.5246875 0.90649414 118.125 C16.24767542 128.29694597 31.58010444 138.46868332 46.63793945 149.05786133 C50.6792248 151.89689119 54.72816192 154.70352317 58.875 157.38671875 C59.92953369 158.07072754 59.92953369 158.07072754 61.00537109 158.76855469 C62.27027518 159.58239565 63.54090313 160.38745712 64.81884766 161.18066406 C75.27912341 167.90358651 76.49624165 183.60604639 79.03759766 194.89160156 C83.65341169 216.38622406 86.14201991 237.97958607 88.02215576 259.86413574 C88.23572513 262.28608944 88.46470553 264.70601692 88.69970703 267.12597656 C95.0892017 333.38420208 91.8847953 401.02626975 84.49932861 467.04290771 C84.24042492 469.37525332 83.98799507 471.70820974 83.73779297 474.04150391 C81.94406864 490.76571552 79.91679537 507.41292114 77.2421875 524.0234375 C76.3321296 529.69174735 75.52892292 535.37145584 74.74267578 541.05810547 C73.09968605 552.9212928 71.18207095 564.66821086 68.82373047 576.40869141 C68.15979884 579.77740577 67.52999245 583.15168339 66.90234375 586.52734375 C64.40763672 599.8565676 61.71939812 613.10903643 58.5546875 626.296875 C58.26940186 627.49248047 57.98411621 628.68808594 57.69018555 629.91992188 C56.13247579 636.27286276 56.13247579 636.27286276 55.2421875 639.359375 C55.00142487 640.35111221 55.00142487 640.35111221 54.75579834 641.36288452 C53.8743085 644.39016973 53.12339953 646.64596373 50.62672424 648.66722107 C48.53353873 649.81527467 46.42785934 650.75108481 44.21875 651.65625 C43.41521591 652.01219238 42.61168182 652.36813477 41.78379822 652.73486328 C39.15675406 653.88957615 36.51435522 655.00164919 33.8671875 656.109375 C32.01628201 656.89874468 30.1659447 657.68944785 28.31616211 658.48144531 C25.5330609 659.67154609 22.748846 660.8582172 19.95878601 662.03192139 C14.90305636 664.1683572 10.00364099 666.4332522 5.14453125 668.984375 C-15.60209055 679.51970653 -37.96547404 680.37597305 -60.80300903 682.25991821 C-71.92719709 683.17930673 -83.03380801 684.24279205 -94.140625 685.3515625 C-95.91147655 685.52799075 -97.68233023 685.70439754 -99.45318604 685.88078308 C-102.13173104 686.14764879 -104.81027036 686.41457016 -107.48878098 686.68178082 C-117.25626195 687.65498934 -127.02624347 688.60198053 -136.796875 689.54296875 C-137.64208458 689.62437922 -138.48729416 689.70578968 -139.35811615 689.78966713 C-157.62830204 691.54790761 -175.90392759 693.23919447 -194.18652344 694.86328125 C-204.72846797 695.80055816 -215.26902543 696.75330698 -225.80947876 697.70718384 C-229.48376486 698.03905773 -233.15825354 698.36861537 -236.83276367 698.69799805 C-239.08513338 698.90142275 -241.33749387 699.10494962 -243.58984375 699.30859375 C-244.6168338 699.4000769 -245.64382385 699.49156006 -246.70193481 699.58581543 C-251.74765165 700.0443871 -256.74624613 700.60189022 -261.7578125 701.359375 C-272.64655228 702.76282618 -282.86559975 703.62943548 -292.18994141 697.0612793 C-295.35515699 694.56651331 -298.42658613 691.98387125 -301.45605469 689.32617188 C-305.17851335 686.14542018 -309.15887969 683.33934173 -313.1328125 680.484375 C-320.8247153 674.84545133 -328.40352794 669.06384665 -335.97412109 663.26367188 C-342.40543682 658.35157398 -348.92874518 653.58495496 -355.50756836 648.87304688 C-360.93064028 644.98111666 -366.23533975 640.96385072 -371.5078125 636.87109375 C-380.86072502 629.61799052 -390.40430506 622.6117683 -399.9453125 615.609375 C-407.65852503 609.94682885 -415.27938064 604.17105216 -422.87670898 598.35424805 C-429.85185345 593.023761 -436.8975826 587.79494771 -443.98242188 582.61132812 C-445.10100586 581.79245117 -445.10100586 581.79245117 -446.2421875 580.95703125 C-447.22783691 580.23785522 -447.22783691 580.23785522 -448.23339844 579.50415039 C-449.7578125 578.359375 -449.7578125 578.359375 -450.7578125 577.359375 C-452.69403043 577.25262069 -454.63419041 577.21722529 -456.57332897 577.20839405 C-457.84509241 577.20023601 -459.11685585 577.19207798 -460.42715758 577.18367273 C-461.85697092 577.17961552 -463.28678458 577.17567182 -464.71659851 577.17182922 C-466.22128768 577.16424085 -467.72597482 577.15623997 -469.23065978 577.14785928 C-473.38573781 577.12610273 -477.54081858 577.11083391 -481.69592869 577.09671891 C-485.25523647 577.08384209 -488.81452339 577.0672817 -492.37381574 577.05074165 C-526.13800188 576.89446785 -559.90267082 576.81968227 -593.66714764 576.75912189 C-598.06594049 576.75109299 -602.46473305 576.74292473 -606.86352539 576.73461914 C-607.95684316 576.73256154 -609.05016094 576.73050394 -610.17660955 576.72838398 C-627.86938953 576.69399839 -645.56180607 576.62137872 -663.2543936 576.53371153 C-681.41830332 576.44445481 -699.5820249 576.39318045 -717.74614936 576.37781972 C-727.94480833 576.36817122 -738.14281384 576.34148755 -748.34125328 576.27150917 C-757.03188906 576.2119026 -765.72178459 576.18634719 -774.41261979 576.20484803 C-778.84423757 576.21321705 -783.27425989 576.20562188 -787.7056179 576.153862 C-791.77132332 576.10674615 -795.83433745 576.10673836 -799.90013263 576.14259877 C-801.36270303 576.14747937 -802.82545426 576.13578185 -804.28770598 576.1048644 C-816.46739613 575.86290882 -822.7977299 579.86729899 -831.7578125 587.359375 C-833.51566551 588.69605153 -835.27866183 590.02604589 -837.05078125 591.34375 C-838.68365227 592.59718785 -840.31515152 593.85241463 -841.9453125 595.109375 C-849.42914385 600.84697904 -856.97266362 606.49018847 -864.58154297 612.06054688 C-870.63470737 616.50365276 -876.60987773 621.04284391 -882.5703125 625.609375 C-888.76658335 630.35507378 -894.99845357 635.01395599 -901.38330078 639.50195312 C-907.60180655 643.90257452 -913.62148037 648.56285225 -919.66796875 653.1953125 C-925.48633833 657.6466153 -931.34681213 662.03196652 -937.2578125 666.359375 C-943.10121012 670.63764236 -948.89795786 674.96853756 -954.64526367 679.37524414 C-956.42061759 680.7335349 -958.20070743 682.08565907 -959.9855957 683.43139648 C-964.22705665 686.63004889 -968.39438903 689.86850556 -972.453125 693.296875 C-973.95040391 694.50535322 -975.44779414 695.71369352 -976.9453125 696.921875 C-977.57187744 697.48849854 -978.19844238 698.05512207 -978.84399414 698.63891602 C-983.68855791 702.44384788 -987.91581559 702.57473425 -993.87573242 702.09375 C-995.061708 702.01240358 -995.061708 702.01240358 -996.27164268 701.9294138 C-998.76831845 701.75358499 -1001.2629053 701.5586227 -1003.7578125 701.359375 C-1004.5270146 701.30046019 -1005.2962167 701.24154537 -1006.08872795 701.18084526 C-1011.67156587 700.7524557 -1017.24989359 700.27721195 -1022.828125 699.79296875 C-1024.64694284 699.63679148 -1026.46577044 699.48072789 -1028.28460693 699.32476807 C-1033.14389552 698.90689165 -1038.00278147 698.48451015 -1042.86153412 698.06045151 C-1045.90325364 697.79509171 -1048.94506013 697.53074621 -1051.98687744 697.26651001 C-1089.74921564 693.98121534 -1127.46728319 690.31220968 -1165.17379379 686.44303513 C-1185.3739063 684.37025218 -1205.57838393 682.3411314 -1225.796875 680.45507812 C-1228.22416851 680.2239688 -1230.65057529 679.98332681 -1233.07592773 679.73266602 C-1235.60662034 679.4760896 -1238.14042367 679.24901766 -1240.67602539 679.04663086 C-1250.84612921 678.13997294 -1259.18844562 675.23994731 -1268.4453125 671.046875 C-1269.86617696 670.42167656 -1271.28782437 669.7982548 -1272.71020508 669.17651367 C-1276.34937452 667.57947801 -1279.97668045 665.95727005 -1283.60107422 664.32702637 C-1286.42391253 663.06051973 -1289.2529048 661.80813905 -1292.0821991 660.55613708 C-1307.69848076 653.6436238 -1307.69848076 653.6436238 -1314.7578125 650.359375 C-1315.80493408 649.91295654 -1316.85205566 649.46653809 -1317.9309082 649.0065918 C-1322.09332441 646.58118182 -1323.25296674 643.91993736 -1324.70581055 639.42895508 C-1324.97433838 638.33993896 -1325.24286621 637.25092285 -1325.51953125 636.12890625 C-1325.82938965 634.8754541 -1326.13924805 633.62200195 -1326.45849609 632.33056641 C-1326.78888008 630.94467966 -1327.11776455 629.55843477 -1327.4453125 628.171875 C-1327.61766418 627.4484491 -1327.79001587 626.72502319 -1327.96759033 625.97967529 C-1340.81455805 571.80191745 -1348.62066952 516.08481232 -1354.29931641 460.72998047 C-1354.69782146 456.87351031 -1355.14647051 453.02464398 -1355.61328125 449.17578125 C-1365.00282623 370.00800663 -1366.70110966 282.98120189 -1350.20166016 204.51269531 C-1349.78357219 202.48434777 -1349.40833698 200.45383773 -1349.05078125 198.4140625 C-1347.71849935 191.07482535 -1345.92305015 183.9042792 -1343.8828125 176.734375 C-1343.65029785 175.88020996 -1343.4177832 175.02604492 -1343.17822266 174.14599609 C-1342.93894043 173.33727051 -1342.6996582 172.52854492 -1342.453125 171.6953125 C-1342.24703613 170.97907715 -1342.04094727 170.2628418 -1341.82861328 169.52490234 C-1339.42303674 164.65999948 -1334.95918179 161.61838745 -1330.55078125 158.6640625 C-1328.98602051 157.60892456 -1328.98602051 157.60892456 -1327.38964844 156.5324707 C-1326.24158254 155.76636974 -1325.0934691 155.00034002 -1323.9453125 154.234375 C-1322.74344193 153.42658033 -1321.54195532 152.61821415 -1320.34082031 151.80932617 C-1317.66893371 150.01100781 -1314.99497733 148.2158185 -1312.31982422 146.42236328 C-1307.20976488 142.99428823 -1302.11051131 139.55027088 -1297.01171875 136.10546875 C-1295.64499275 135.18214752 -1295.64499275 135.18214752 -1294.25065613 134.24017334 C-1292.41576264 133.0005624 -1290.58087797 131.76093842 -1288.7460022 130.52130127 C-1284.33958224 127.54512002 -1279.93158697 124.57127502 -1275.5234375 121.59765625 C-1274.73727554 121.06732285 -1273.95111359 120.53698944 -1273.14112854 119.99058533 C-1271.34671736 118.78014112 -1269.55226955 117.56975121 -1267.7578125 116.359375 C-1268.86312085 113.67311099 -1269.9686173 110.98692463 -1271.07421875 108.30078125 C-1271.3834729 107.54913696 -1271.69272705 106.79749268 -1272.01135254 106.02307129 C-1274.57537685 99.79422854 -1277.15941849 93.57396713 -1279.7578125 87.359375 C-1280.6446875 87.854375 -1281.5315625 88.349375 -1282.4453125 88.859375 C-1292.75585373 93.2052355 -1305.9042327 89.74127215 -1316.6328125 88.109375 C-1318.17857791 87.88002275 -1319.72439559 87.65102247 -1321.27026367 87.42236328 C-1325.76884504 86.75203638 -1330.26368203 86.05883731 -1334.7578125 85.359375 C-1335.99901855 85.16762695 -1337.24022461 84.97587891 -1338.51904297 84.77832031 C-1341.70557669 84.27913155 -1344.88848735 83.76265815 -1348.0703125 83.234375 C-1348.98087402 83.08838867 -1349.89143555 82.94240234 -1350.82958984 82.79199219 C-1360.72687719 81.07684268 -1366.23672846 77.00263597 -1372.0703125 68.859375 C-1375.53932836 63.79218808 -1378.78343558 58.59630415 -1381.95703125 53.33984375 C-1382.99696439 51.6186529 -1384.05325785 49.90668982 -1385.15234375 48.22265625 C-1387.78777652 44.07860119 -1388.23645528 41.22300329 -1387.7578125 36.359375 C-1385.95703125 33.25390625 -1385.95703125 33.25390625 -1383.4453125 30.171875 C-1382.99889404 29.62015625 -1382.55247559 29.0684375 -1382.0925293 28.5 C-1380.67106113 26.76509254 -1379.2211063 25.05910678 -1377.7578125 23.359375 C-1377.0447998 22.52672119 -1377.0447998 22.52672119 -1376.31738281 21.67724609 C-1366.59605687 10.43550743 -1358.85540815 4.60033635 -1343.7578125 3.359375 C-1322.98014005 1.90105886 -1302.15637245 1.12080662 -1281.32919312 0.95095825 C-1279.24985322 0.93166142 -1277.1705733 0.90397101 -1275.09146118 0.86764526 C-1272.16599263 0.81988071 -1269.24222211 0.80571539 -1266.31640625 0.80078125 C-1265.45137482 0.78133453 -1264.58634338 0.76188782 -1263.69509888 0.74185181 C-1257.48428219 0.78764124 -1254.46671787 2.29751818 -1249.7578125 6.359375 C-1244.80360985 12.5460866 -1242.37158852 20.9835139 -1239.7578125 28.359375 C-1239.42265625 29.2978125 -1239.0875 30.23625 -1238.7421875 31.203125 C-1237.17598418 35.93021137 -1236.04131276 39.51278749 -1237.7578125 44.359375 C-1239.18748837 46.9610526 -1240.69568082 49.48495598 -1242.28515625 51.9921875 C-1242.77113281 52.77335938 -1243.25710938 53.55453125 -1243.7578125 54.359375 C-1244.45197266 55.30490234 -1244.45197266 55.30490234 -1245.16015625 56.26953125 C-1246.04861645 58.53852218 -1246.04861645 58.53852218 -1244.484375 61.28515625 C-1243.44410156 62.96158203 -1243.44410156 62.96158203 -1242.3828125 64.671875 C-1241.63341563 65.91285632 -1240.88608991 67.15509025 -1240.140625 68.3984375 C-1239.74907227 69.04329102 -1239.35751953 69.68814453 -1238.95410156 70.35253906 C-1236.95928699 73.69894228 -1235.10244224 77.11603176 -1233.2578125 80.546875 C-1232.7330835 81.49977417 -1232.7330835 81.49977417 -1232.19775391 82.47192383 C-1230.66769009 85.31627324 -1229.7578125 87.07763655 -1229.7578125 90.359375 C-1228.8709375 89.67875 -1227.9840625 88.998125 -1227.0703125 88.296875 C-1223.7578125 86.359375 -1223.7578125 86.359375 -1221.37109375 86.3515625 C-1217.65602486 87.78427965 -1215.90174134 90.42797976 -1213.6328125 93.546875 C-1212.65781814 94.83613875 -1211.68255038 96.12519577 -1210.70703125 97.4140625 C-1209.96912354 98.4035791 -1209.96912354 98.4035791 -1209.21630859 99.41308594 C-1207.00273907 102.3669822 -1204.72759457 105.27093237 -1202.4453125 108.171875 C-1201.99978027 108.74059326 -1201.55424805 109.30931152 -1201.09521484 109.89526367 C-1196.80678696 115.34743482 -1192.38513828 120.68695051 -1187.9609375 126.02905273 C-1183.75542372 131.11783994 -1179.64657394 136.27268664 -1175.58544922 141.47705078 C-1172.18265789 145.83377845 -1168.70660307 150.12455112 -1165.1953125 154.39453125 C-1157.67607918 163.54052178 -1150.2170651 172.72938578 -1142.92895508 182.06079102 C-1138.2793247 187.99987843 -1133.51169393 193.84139381 -1128.74609375 199.6875 C-1125.77364421 203.33479094 -1122.83481682 207.00801801 -1119.90234375 210.6875 C-1117.65910334 213.4823569 -1115.39716614 216.26131125 -1113.1328125 219.0390625 C-1108.00053798 225.335603 -1102.92195783 231.66680343 -1097.92260742 238.06933594 C-1093.87916266 243.23478369 -1089.73959723 248.31905235 -1085.59155273 253.40063477 C-1082.11887768 257.66248409 -1078.69954944 261.96068601 -1075.3203125 266.296875 C-1071.21843327 271.5569319 -1067.01203212 276.72187863 -1062.7578125 281.859375 C-1058.04717208 287.54805592 -1053.41817381 293.28715354 -1048.87768555 299.11230469 C-1045.32933682 303.65596166 -1041.71173488 308.14004777 -1038.0703125 312.609375 C-1037.51480713 313.2912085 -1036.95930176 313.97304199 -1036.38696289 314.67553711 C-1035.32032917 315.98455134 -1034.25367948 317.29355257 -1033.18701172 318.60253906 C-1028.1252878 324.82463768 -1023.1534537 331.11721231 -1018.1953125 337.421875 C-1017.72383789 338.01991943 -1017.25236328 338.61796387 -1016.76660156 339.23413086 C-1014.70666152 341.85230168 -1012.66881467 344.47859535 -1010.67578125 347.1484375 C-1010.08410156 347.93992187 -1009.49242187 348.73140625 -1008.8828125 349.546875 C-1008.39039063 350.22105469 -1007.89796875 350.89523437 -1007.390625 351.58984375 C-1003.59910494 355.69883559 -999.47686446 356.83324414 -994.07275391 357.64624023 C-993.41956177 357.74754242 -992.76636963 357.8488446 -992.09338379 357.95321655 C-989.93350975 358.28538932 -987.77164932 358.60182966 -985.609375 358.91796875 C-984.07639789 359.14986331 -982.54355297 359.38263322 -981.01083374 359.6162262 C-977.78210635 360.10602882 -974.55242165 360.58868088 -971.32177734 361.06567383 C-967.2811493 361.6623087 -963.24243126 362.27074784 -959.20430374 362.88405418 C-941.02445773 365.64356688 -922.82899054 368.19887995 -904.58349609 370.48461914 C-898.67366996 371.22888267 -892.77793274 372.0544016 -886.88348389 372.91149902 C-881.26698623 373.71628432 -875.63721772 374.41908893 -870.0078125 375.12695312 C-865.44666878 375.71163231 -860.8945462 376.33146618 -856.35058594 377.03759766 C-843.68375116 379.00394184 -831.00444715 380.51407801 -818.2578125 381.859375 C-806.45768636 383.10477621 -794.71092077 384.45301203 -782.98495483 386.27697754 C-775.38398117 387.44815058 -767.76527297 388.32056207 -760.11785889 389.12438965 C-748.25768467 390.37132896 -736.41809031 391.67501962 -724.62939453 393.49609375 C-722.34135235 393.8348515 -720.05682269 394.106233 -717.7578125 394.359375 C-717.00101196 394.45625107 -716.24421143 394.55312714 -715.46447754 394.65293884 C-708.89433561 395.12268371 -705.92157594 393.43954122 -700.84811401 389.44572449 C-682.55928239 375.58682429 -659.73206302 378.52117472 -637.96038818 378.99005127 C-633.50855251 379.06607356 -629.05822117 379.06332129 -624.60584831 379.05908489 C-620.27455189 379.06099856 -615.94420292 379.09953894 -611.61322403 379.15009499 C-609.5650456 379.1721337 -607.51676182 379.1861097 -605.46847153 379.19135094 C-589.75466668 379.27574311 -580.01844397 381.83190332 -567.3203125 391.421875 C-559.0540825 396.3094475 -549.94497465 394.07384034 -540.87402344 392.79296875 C-537.84146286 392.37101422 -534.80853897 392.01030835 -531.765625 391.671875 C-519.19177543 390.26120999 -506.65977149 388.54267575 -494.12280273 386.84033203 C-484.53623183 385.55559069 -474.93844184 384.49401669 -465.31738281 383.50610352 C-455.30820846 382.46071655 -445.345469 381.13885603 -435.37548828 379.77392578 C-427.60906167 378.71733172 -419.84653179 377.75780476 -412.04077148 377.04272461 C-407.95445681 376.65400096 -403.9407094 376.07177878 -399.89453125 375.375 C-395.28714797 374.58642031 -390.70537976 373.9912994 -386.0559082 373.52441406 C-369.60222215 371.85615606 -353.30609011 369.16833114 -336.98168945 366.55541992 C-325.72572275 364.75615894 -314.46737837 363.00355474 -303.18359375 361.38671875 C-302.09816788 361.23012787 -301.012742 361.07353699 -299.89442444 360.91220093 C-291.47235758 359.69795351 -291.47235758 359.69795351 -287.30776978 359.1204834 C-284.4485291 358.72393848 -281.59142738 358.31431305 -278.734375 357.90234375 C-277.89405228 357.79010971 -277.05372955 357.67787567 -276.1879425 357.5622406 C-262.61974971 355.56696721 -255.60323664 343.29697216 -247.7109375 333.1328125 C-244.61850562 329.16009887 -241.44312533 325.25775447 -238.2578125 321.359375 C-234.22545492 316.42016557 -230.23959939 311.4512531 -226.3203125 306.421875 C-222.20117907 301.13776478 -217.97124814 295.95475466 -213.6953125 290.796875 C-209.6224541 285.88305538 -205.62071911 280.9401438 -201.7578125 275.859375 C-197.31954314 270.0218483 -192.68032127 264.37107013 -188 258.7265625 C-184.35297253 254.32006728 -180.77009667 249.87386398 -177.2578125 245.359375 C-173.17878322 240.11815151 -168.99414877 234.97420627 -164.7578125 229.859375 C-160.04477402 224.16793037 -155.41328249 218.42612853 -150.87109375 212.59765625 C-147.38927316 208.13848252 -143.83535726 203.74201157 -140.2578125 199.359375 C-136.12341228 194.29395736 -132.03396337 189.19878456 -128.0078125 184.046875 C-124.11238408 179.06247675 -120.14786694 174.14360784 -116.12890625 169.2578125 C-109.8438498 161.57492636 -103.6599692 153.80873072 -97.55712891 145.98046875 C-93.03118579 140.17739503 -88.38849281 134.50357984 -83.60791016 128.90844727 C-80.43365999 125.18531396 -77.3876121 121.38901377 -74.41015625 117.5078125 C-68.51509887 109.84284427 -62.35163824 102.38297455 -56.23779297 94.89233398 C-53.68340685 91.75712638 -51.14469385 88.62563369 -48.7578125 85.359375 C-48.0153125 85.66875 -47.2728125 85.978125 -46.5078125 86.296875 C-44.2454167 87.17098247 -42.10807171 87.80194173 -39.7578125 88.359375 C-39.37971436 87.62823486 -39.00161621 86.89709473 -38.61206055 86.14379883 C-36.89147863 82.81895826 -35.16842165 79.49540647 -33.4453125 76.171875 C-32.85041016 75.02138672 -32.25550781 73.87089844 -31.64257812 72.68554688 C-31.06572266 71.57373047 -30.48886719 70.46191406 -29.89453125 69.31640625 C-29.10115356 67.78463745 -29.10115356 67.78463745 -28.29174805 66.22192383 C-26.7578125 63.359375 -26.7578125 63.359375 -25.02319336 60.61328125 C-24.60561768 59.86949219 -24.18804199 59.12570312 -23.7578125 58.359375 C-24.29116956 56.24341935 -24.29116956 56.24341935 -25.7578125 54.359375 C-26.79947917 52.796875 -27.84114583 51.234375 -28.8828125 49.671875 C-29.42164063 48.88425781 -29.96046875 48.09664062 -30.515625 47.28515625 C-33.91678797 39.27424094 -30.93199729 31.57860871 -28.1328125 23.796875 C-27.63587891 22.3128418 -27.63587891 22.3128418 -27.12890625 20.79882812 C-24.2290288 12.55332752 -20.83715558 5.46042809 -12.86392212 1.15098572 C-8.68255069 -0.42064114 -4.40860541 -0.11877813 0 0 Z " fill="#010101" transform="translate(1658.7578125,848.640625)"/>
<path d="M0 0 C2.6300133 0.00257849 5.26002648 0.00454965 7.8900404 0.00638866 C18.79900935 0.01468052 29.70788992 0.03554213 40.61680818 0.0697906 C42.92565446 0.07668227 45.23450091 0.08230292 47.54335117 0.08767414 C63.04173349 0.12677218 78.51261123 0.28077184 93.99426556 1.08067608 C98.84510127 1.33088045 103.69513354 1.46206886 108.55115032 1.56117535 C109.36860352 1.57798068 110.18605671 1.59478601 111.02828121 1.6121006 C112.54887784 1.64280487 114.0694815 1.67316201 115.59009075 1.70323467 C131.47298565 2.02736311 147.31203856 2.66091978 163.16926193 3.6217556 C169.83722353 4.02513998 176.50530896 4.41175352 183.1766386 4.75526714 C203.53999749 5.81090058 223.8467188 7.25263826 244.16231823 8.99476528 C246.49478942 9.19428223 248.82741519 9.39189015 251.16009808 9.58891582 C275.72894997 11.66439156 300.29338494 13.78924945 324.82068157 16.3150816 C326.08718548 16.44479351 327.35368938 16.57450542 328.6585722 16.708148 C336.05970626 17.47884956 343.44483725 18.33090214 350.82068157 19.3150816 C351.86369427 19.45381695 352.90670696 19.5925523 353.9813261 19.73549175 C366.68690939 21.48393115 378.24760906 23.64200684 389.82068157 29.3150816 C390.81068157 29.7894566 391.80068157 30.2638316 392.82068157 30.7525816 C411.13562146 40.11355087 423.92398767 56.04694557 435.82068157 72.3150816 C436.62723186 73.41046246 436.62723186 73.41046246 437.4500761 74.52797222 C444.16469243 83.6583973 450.6622326 92.92570065 457.02917767 102.30140972 C459.98078373 106.64444935 462.97219156 110.95110127 466.03283978 115.21791363 C493.48549473 153.53872695 517.9190153 194.3255102 542.25818157 234.65492535 C549.53635873 246.71021075 556.82541386 258.71582012 564.82068157 270.3150816 C566.82068157 273.3150816 566.82068157 273.3150816 566.68005657 275.2057066 C565.56008062 277.95473848 563.99649101 279.80190408 562.07068157 282.0650816 C561.26243938 283.02801128 560.4541972 283.99094097 559.62146282 284.98305035 C559.1749638 285.51204937 558.72846478 286.04104839 558.26843548 286.58607769 C555.56107451 289.81938804 552.9136466 293.10163775 550.25818157 296.3775816 C549.69453899 297.07141949 549.13089642 297.76525738 548.55017376 298.48012066 C545.00068023 302.85112175 541.47456265 307.23989608 537.96521282 311.6432066 C535.72204428 314.43797396 533.46016927 317.21683216 531.19592571 319.99452496 C526.53912524 325.70757642 521.91440683 331.43931428 517.38318157 337.2525816 C512.70059515 343.25717835 507.87080488 349.13168046 503.01452923 354.99623394 C498.90938752 359.96443309 494.8953434 364.99361287 490.93396282 370.07680035 C486.91149172 375.22838615 482.78720377 380.2935377 478.65417767 385.3565855 C475.1816326 389.61839207 471.762348 393.91648308 468.38318157 398.2525816 C463.70003053 404.25803411 458.86986502 410.13358469 454.01233196 415.99843121 C450.3837917 420.38909889 446.81904787 424.82014804 443.32068157 429.3150816 C438.66089417 435.30228618 433.85135642 441.15601628 429.01208782 446.99867535 C425.3836723 451.38929632 421.81897734 455.82023867 418.32068157 460.3150816 C414.24154762 465.55622404 410.05706839 470.70028687 405.82068157 475.8150816 C401.01018167 481.62322285 396.28773998 487.487301 391.64831829 493.43275738 C388.24552696 497.78948505 384.76947214 502.08025771 381.25818157 506.35023785 C378.87311673 509.2513023 376.49278767 512.15588653 374.12634563 515.07216167 C372.99951387 516.45025532 371.86062441 517.81857131 370.71033001 519.17714214 C367.99504651 522.42074047 365.63260613 525.46528995 363.77380657 529.2760191 C361.45638604 533.65700445 359.25421537 536.89358145 354.82068157 539.3150816 C345.60457331 541.94683665 336.02519961 542.76332066 326.50841045 543.62309551 C320.6163072 544.17211426 314.85729059 545.12153601 309.04231548 546.20247173 C301.85836025 547.52615678 294.63802503 548.4071062 287.38318157 549.2525816 C279.1109517 550.21789152 270.88175414 551.28811925 262.65841961 552.6068449 C242.9211091 555.76069074 223.07966051 558.06704369 203.23834515 560.45576763 C198.30644173 561.05040002 193.37511128 561.6497438 188.44372845 562.24867535 C174.76186812 563.90921859 161.07915203 565.56266244 147.39550781 567.20844173 C144.36581551 567.57300126 141.33622213 567.93837837 138.30664539 568.3038969 C136.29026463 568.54681562 134.27373048 568.78846018 132.25718975 569.03004742 C123.27189627 570.1140837 114.31458509 571.34558765 105.35974407 572.65492535 C98.52225955 573.6539368 91.68946267 574.55536464 84.82068157 575.3150816 C83.5116386 575.54904644 83.5116386 575.54904644 82.17615032 575.78773785 C73.85546328 576.7674539 67.39963514 571.15362048 60.9254179 566.57362652 C54.24897743 562.58139237 49.01296325 561.86510831 41.33410931 561.86342144 C39.78622974 561.84589825 39.78622974 561.84589825 38.20707989 561.82802105 C34.80604961 561.79451538 31.405456 561.78370441 28.00427532 561.7760191 C25.62643059 561.76382905 23.24858736 561.75134273 20.87074566 561.73857403 C15.88681888 561.71611522 10.90304477 561.70654608 5.91907024 561.70424175 C-0.43710094 561.69897138 -6.79198451 561.64770919 -13.14780998 561.58472538 C-18.06123962 561.54365691 -22.97436415 561.53459801 -27.88794994 561.53412533 C-30.22932013 561.52877181 -32.57069522 561.51204258 -34.9118948 561.48327541 C-49.14867732 561.32298089 -61.02052238 561.41948344 -72.29407978 571.1381712 C-77.26762008 575.28702261 -81.26261744 575.63395724 -87.58166218 575.19887066 C-88.87983624 575.120562 -88.87983624 575.120562 -90.20423603 575.04067135 C-102.68101567 574.19281317 -115.0835919 572.52696779 -127.48401737 570.94555092 C-131.12863056 570.48229442 -134.77428093 570.02733301 -138.41979694 569.57124615 C-144.55250893 568.80282273 -150.68450691 568.02891072 -156.81603718 567.25111675 C-163.02900948 566.46301141 -169.24250111 565.67920848 -175.45666218 564.90053082 C-176.21812172 564.80511423 -176.97958126 564.70969764 -177.76411533 564.61138964 C-178.52368912 564.5162138 -179.2832629 564.42103797 -180.06585407 564.32297802 C-260.91939323 554.19182503 -260.91939323 554.19182503 -283.35116291 550.29399395 C-290.52337261 549.05252326 -297.73253433 548.14813947 -304.95269489 547.23927593 C-309.89303957 546.61072161 -314.82840007 545.94366914 -319.7648592 545.28541851 C-324.57809703 544.64735138 -329.39389065 544.04464545 -334.21535969 543.47227764 C-337.1423843 543.11704259 -340.06454903 542.72974619 -342.9863863 542.33430767 C-344.99675096 542.07257636 -347.01217821 541.85069631 -349.02746296 541.630023 C-356.75972839 540.54927822 -360.81167729 538.91945018 -365.57287312 532.62904644 C-366.10300007 531.86543804 -366.63312702 531.10182964 -367.17931843 530.3150816 C-368.08294704 529.1835357 -368.99241423 528.05660725 -369.90978718 526.93617535 C-370.73140607 525.87699572 -371.55038027 524.81575976 -372.36681843 523.7525816 C-376.40598275 518.5520145 -380.51348431 513.414722 -384.67931843 508.3150816 C-388.71161351 503.37581574 -392.69743028 498.40688497 -396.61681843 493.3775816 C-401.29996947 487.37212909 -406.13013498 481.49657851 -410.98766804 475.63173199 C-415.07183577 470.68973825 -419.05823364 465.68282556 -422.99572468 460.62367535 C-426.64417074 455.95408986 -430.39950785 451.3787168 -434.17931843 446.8150816 C-438.89369 441.12202713 -443.52491647 435.37745147 -448.07043171 429.54896832 C-453.66715952 422.38523833 -459.43100857 415.35726659 -465.17931843 408.3150816 C-471.95519504 400.01403698 -478.69964418 391.69604186 -485.29699421 383.25209332 C-488.76143449 378.82495665 -492.31242216 374.47471141 -495.88634968 370.1353941 C-498.42095162 367.01787689 -500.89627214 363.85836142 -503.36681843 360.6900816 C-507.55297458 355.32656903 -511.83952716 350.05491655 -516.17931843 344.8150816 C-520.98980694 339.00692993 -525.71225957 333.14286277 -530.35168171 327.19740582 C-533.75047354 322.84579887 -537.22184224 318.55962626 -540.73009968 314.29555035 C-548.01038368 305.43612978 -555.29309665 296.56652809 -562.38244343 287.55336285 C-563.64697559 285.97819561 -564.95347868 284.43626635 -566.28869343 282.92055035 C-571.21540728 277.16316962 -571.21540728 277.16316962 -571.05431843 273.3775816 C-569.46757569 270.78590179 -567.80065598 268.35461096 -566.03478718 265.8853941 C-561.98055451 260.11297386 -558.28616012 254.14964825 -554.61681843 248.1275816 C-553.91534091 246.98174935 -553.21359412 245.83608191 -552.51159382 244.69056988 C-548.60055723 238.30355233 -544.71188216 231.90294087 -540.82433796 225.50160503 C-539.97911579 224.10990093 -539.97911579 224.10990093 -539.11681843 222.6900816 C-538.5494698 221.75583355 -537.98212116 220.8215855 -537.39758015 219.85902691 C-531.97823387 210.95198253 -526.45804669 202.10955916 -520.91369343 193.27992535 C-518.54965005 189.51337011 -516.20483937 185.73635169 -513.88244343 181.94398785 C-505.57467926 168.42672257 -496.8588068 155.19966822 -488.05431843 142.0025816 C-487.46534779 141.11951336 -486.87637714 140.23644512 -486.26955891 139.32661724 C-474.5889298 121.82793886 -462.76957303 104.43019203 -450.57726765 87.28334332 C-449.23371901 85.39167564 -447.89541415 83.4964039 -446.55822468 81.60023785 C-426.55539623 53.30157277 -405.0294389 27.69363798 -369.05431843 21.2525816 C-340.13692487 16.44780117 -310.77267596 14.25846819 -281.58752155 11.77650738 C-277.33681238 11.41497604 -273.08686883 11.04541364 -268.83720112 10.6718626 C-252.14336661 9.20697133 -235.45481784 7.93756387 -218.71960163 7.04896832 C-211.76995672 6.67412614 -204.83815658 6.21534731 -197.9016695 5.64404583 C-178.06022177 4.0284614 -158.19097664 3.04969059 -138.30431843 2.1900816 C-137.28287865 2.14549942 -136.26143887 2.10091724 -135.20904636 2.05498409 C-90.14519849 0.1093458 -45.09744314 -0.04601166 0 0 Z " fill="#010101" transform="translate(1026.1793184280396,646.6849184036255)"/>
<path d="M0 0 C3.04757638 0.00096051 6.09515 0.00064382 9.14272642 -0.00010967 C63.33449402 -0.01316119 117.47983072 0.37131853 171.64181471 2.25095081 C173.53788277 2.31639465 173.53788277 2.31639465 175.47225523 2.38316059 C200.80022868 3.26564765 226.108273 4.31481303 251.38812208 6.13119984 C256.1728323 6.471507 260.95921218 6.78488849 265.74562025 7.10025501 C292.46918841 8.86699505 319.18428219 10.64615558 345.82931471 13.37595081 C347.38935316 13.53240178 348.94941281 13.6886415 350.50949049 13.84470081 C354.62839907 14.25861726 358.74575377 14.68584773 362.86233473 15.1222887 C364.43638201 15.2883438 366.01071713 15.45169816 367.58535719 15.6120348 C391.88995203 18.10494904 391.88995203 18.10494904 400.56466627 28.44431019 C402.4144749 30.80268879 404.19175334 33.20172652 405.95431471 35.62595081 C406.60464674 36.5078307 407.25497877 37.38971058 407.92501783 38.29831409 C409.9016787 40.98470593 411.86612615 43.67970464 413.82931471 46.37595081 C414.94097672 47.88920469 416.05293779 49.40223892 417.16525221 50.91501331 C425.67193011 62.53945846 433.78000094 74.4318833 441.82931471 86.37595081 C442.29966139 87.07317249 442.77000807 87.77039417 443.25460768 88.48874378 C458.50785127 111.13469915 473.12541852 134.1811335 487.25875807 157.54001331 C492.18210934 165.67561847 497.14750241 173.7836267 502.14181471 181.87595081 C511.12658215 196.45327759 519.98994433 211.08769702 528.51681471 225.93845081 C529.03469557 226.83797474 529.55257643 227.73749866 530.08615065 228.66428089 C530.56213697 229.49854603 531.0381233 230.33281116 531.52853346 231.19235706 C531.94965406 231.92913685 532.37077467 232.66591663 532.80465651 233.42502308 C533.82931471 235.37595081 533.82931471 235.37595081 534.82931471 238.37595081 C528.52893177 240.37571573 522.15987121 241.42048129 515.64181471 242.46970081 C514.46651197 242.66189198 513.29120924 242.85408314 512.08029127 243.05209827 C509.5960755 243.45743762 507.11152908 243.86075502 504.62667799 244.26218128 C500.86920278 244.86950369 497.11286729 245.48350629 493.35665846 246.09860706 C471.60631086 249.64457716 471.60631086 249.64457716 460.85250807 250.96237659 C457.3402431 251.44285603 453.87374606 252.08706131 450.39181471 252.75095081 C440.43167465 254.60417665 430.36819751 255.73848154 420.31198072 256.93015003 C413.61264922 257.73094742 406.98577181 258.66377305 400.3581233 259.93185902 C396.2048425 260.66122934 392.02597525 261.04987113 387.82931471 261.43845081 C386.18318311 261.59285541 384.53733097 261.75027712 382.89181471 261.91110706 C382.18154127 261.97692982 381.47126783 262.04275257 380.73947096 262.11056995 C378.61220558 262.3468365 378.61220558 262.3468365 375.82931471 263.37595081 C374.02499584 263.62527747 372.21524334 263.83613928 370.40353346 264.02438831 C369.29429518 264.14298206 368.1850569 264.26157581 367.04220533 264.38376331 C364.76617214 264.62082383 362.49013104 264.85780849 360.21408033 265.09470081 C353.90723005 265.76877009 347.62808688 266.52960284 341.34773207 267.41415882 C327.4164537 269.37529346 313.45345032 270.8652429 299.45431471 272.25095081 C298.17019697 272.37845722 296.88607924 272.50596363 295.56304884 272.63733387 C243.71262064 277.7679049 191.86717816 281.35333465 139.80352581 283.30169451 C137.96012689 283.37103055 136.11678568 283.44189608 134.27344942 283.51287842 C109.79725524 284.43415601 85.33471841 284.55532417 60.84349084 284.57613945 C57.49138297 284.57912278 54.13927812 284.58323617 50.78717184 284.58764362 C40.16394621 284.60125794 29.54072797 284.61094835 18.91749424 284.61484551 C8.0954997 284.61884382 -2.72640604 284.63100754 -13.54837084 284.65720081 C-102.82256819 284.86853943 -191.36258014 282.32415947 -280.24881029 273.42673206 C-281.17089281 273.33522373 -282.09297533 273.2437154 -283.04299974 273.14943409 C-287.45390036 272.69967108 -291.80006573 272.13460097 -296.17068529 271.37595081 C-298.41918823 271.22641983 -300.66958082 271.10416739 -302.92068529 271.00095081 C-321.45337524 269.98649258 -339.9087395 267.20374594 -358.29568529 264.75534534 C-361.29475064 264.35957874 -364.29498435 263.97395369 -367.29568529 263.59079456 C-368.81802782 263.39550159 -368.81802782 263.39550159 -370.37112474 263.19626331 C-372.28351842 262.95117682 -374.19610002 262.70754946 -376.10891771 262.46579456 C-380.68111398 261.87653577 -385.22524608 261.21039859 -389.76834154 260.42673206 C-396.83113446 259.22724034 -403.92893327 258.33527105 -411.03384447 257.4307909 C-426.02137249 255.51662917 -440.97852308 253.42883556 -455.92068529 251.18845081 C-457.19232531 250.99901905 -457.19232531 250.99901905 -458.48965502 250.80576038 C-466.3452826 249.63302167 -474.1750062 248.43996431 -481.95095873 246.8073473 C-486.07850857 246.0051717 -490.25055003 245.52594584 -494.42068529 245.00095081 C-505.74678207 243.52273943 -516.9542022 241.5218696 -528.17068529 239.37595081 C-529.17068529 236.37595081 -529.17068529 236.37595081 -528.20535326 234.16550159 C-527.69633471 233.30940296 -527.18731615 232.45330433 -526.66287279 231.57126331 C-526.09528246 230.6067223 -525.52769213 229.64218128 -524.94290209 228.64841175 C-524.00377977 227.09041859 -524.00377977 227.09041859 -523.04568529 225.50095081 C-522.40477953 224.4210387 -521.76387377 223.34112659 -521.10354662 222.22848988 C-516.04899223 213.74554789 -510.86601282 205.34347263 -505.63943529 196.96579456 C-501.65838409 190.57278977 -497.75922413 184.13041934 -493.85818529 177.68845081 C-488.21777944 168.38054143 -482.55763281 159.08535553 -476.85818529 149.81345081 C-475.96329393 148.35515858 -475.96329393 148.35515858 -475.05032396 146.86740589 C-473.09931 143.69803054 -471.13901124 140.53459206 -469.17068529 137.37595081 C-468.53622484 136.35780796 -468.53622484 136.35780796 -467.88894701 135.31909657 C-460.47598634 123.44823125 -452.84745598 111.73292651 -445.0715642 100.09689808 C-443.30036603 97.44545776 -441.53413092 94.79076106 -439.76834154 92.13571644 C-429.43154121 76.62381221 -418.90877322 61.22023366 -407.79568529 46.25095081 C-407.21681566 45.46945667 -406.63794603 44.68796253 -406.0415349 43.88278675 C-401.87527744 38.27950622 -397.70816664 32.68686649 -393.17068529 27.37595081 C-392.60349779 26.70177113 -392.03631029 26.02759144 -391.45193529 25.33298206 C-384.61484604 17.79664505 -375.86292957 16.9296062 -366.13552904 16.02438831 C-365.09860415 15.9200246 -364.06167925 15.8156609 -362.99333239 15.70813465 C-360.80789072 15.49003882 -358.62195413 15.27685198 -356.43557787 15.06833363 C-353.14109986 14.75409036 -349.84827023 14.42583057 -346.55545092 14.09470081 C-336.17145275 13.06382414 -325.80272075 12.13229398 -315.37991381 11.60886097 C-312.25596774 11.3821402 -309.25446056 10.91086134 -306.17068529 10.37595081 C-303.41875492 10.22179704 -300.67445639 10.09996409 -297.92068529 10.00095081 C-290.45678507 9.68345603 -283.04646746 9.10724028 -275.61111498 8.386693 C-257.82243271 6.66534954 -240.01930392 5.64113458 -222.17068529 4.75095081 C-220.30813601 4.65756428 -220.30813601 4.65756428 -218.40795946 4.56229115 C-214.74566944 4.38009428 -211.08323613 4.20126085 -207.42068529 4.02438831 C-206.37215883 3.9734502 -205.32363237 3.92251209 -204.24333239 3.8700304 C-136.2005858 0.66618162 -68.10709877 -0.03200803 0 0 Z " fill="#FEFEFE" transform="translate(1021.1706852912903,689.6240491867065)"/>
<path d="M0 0 C1.33142766 0.31909978 2.66305622 0.63736239 3.99487305 0.95483398 C6.76232839 1.61515585 9.5288868 2.27906775 12.29492188 2.9453125 C18.77112721 4.50129867 25.26164736 5.9956194 31.75 7.5 C41.83879187 9.84951603 51.91578011 12.24421163 61.98583984 14.67260742 C71.19846014 16.88997371 80.42512324 19.04516867 89.65454102 21.19140625 C96.37639915 22.7550459 103.09636627 24.32600118 109.8125 25.9140625 C123.52746094 29.15576624 137.24649569 32.36244391 151 35.4375 C161.65624815 37.82006084 172.2709377 40.33484328 182.875 42.9375 C193.09876248 45.44615989 203.33724233 47.84127438 213.6267395 50.06573486 C215.61109773 50.49697874 217.5936726 50.9356636 219.57592773 51.37646484 C225.61285521 52.71287926 231.64532706 53.99726883 237.73176575 55.08988953 C240.48355707 55.59139476 243.22614715 56.13503517 245.96865845 56.68478394 C247.87071033 57.04968661 249.78351079 57.35711829 251.69604492 57.66235352 C256.87890945 58.72234612 260.28182665 59.61102293 263.82446289 63.67724609 C265.91040907 67.01922189 267.69711863 70.40451089 269.4375 73.9375 C270.52953419 75.8681454 271.6318515 77.79302338 272.74609375 79.7109375 C273.79143347 81.57679865 274.83438581 83.44399924 275.875 85.3125 C280.07228892 92.82266226 284.32551511 100.27458525 288.98608398 107.50927734 C290.0234375 109.171875 290.0234375 109.171875 291.4375 111.9375 C290.3259992 115.2720024 289.75902885 115.70346736 287 117.65234375 C286.27893066 118.16724365 285.55786133 118.68214355 284.81494141 119.21264648 C284.03038574 119.76122314 283.24583008 120.3097998 282.4375 120.875 C281.62587402 121.4512915 280.81424805 122.02758301 279.97802734 122.62133789 C277.4693239 124.40030305 274.95366708 126.16911348 272.4375 127.9375 C271.01246737 128.94713594 269.58795753 129.95751032 268.1640625 130.96875 C258.13448495 138.08232295 248.04962042 145.11787992 237.97265625 152.1640625 C235.4913408 153.89983633 233.01109426 155.63712514 230.53125 157.375 C225.50227585 160.89909173 220.47051696 164.41918499 215.4375 167.9375 C214.48875 168.60104492 213.54 169.26458984 212.5625 169.94824219 C207.65348202 173.37971035 202.73833335 176.8014831 197.80859375 180.203125 C194.5133602 182.47922014 191.25566381 184.79140245 188.03515625 187.171875 C187.0457605 187.8829541 187.0457605 187.8829541 186.03637695 188.60839844 C184.34086844 189.82724808 182.66173782 191.06879684 180.984375 192.3125 C171.8836774 196.4819826 159.64414824 193.44613673 149.86328125 192.51171875 C148.25176511 192.36152482 146.64020705 192.21178004 145.02861023 192.06245422 C140.7908823 191.66858714 136.5537464 191.26867551 132.31671143 190.86743164 C128.1209854 190.47113592 123.92473171 190.08051932 119.72851562 189.68945312 C110.70929127 188.84788181 101.69080342 187.99858816 92.67241287 187.14813614 C86.79739573 186.59442734 80.92214293 186.04322802 75.046875 185.4921875 C73.78793427 185.37405701 72.52899353 185.25592651 71.23190308 185.13421631 C62.21262752 184.28884307 53.19278144 183.44970701 44.17273426 182.61260891 C35.79489322 181.83505471 27.41724296 181.05546436 19.0396986 180.27472019 C13.63557573 179.7712029 8.23135073 179.26883216 2.8269043 178.76879883 C-2.5076106 178.27518011 -7.84184375 177.77861142 -13.17590141 177.28007698 C-15.17577914 177.09367152 -17.17575244 176.90828812 -19.17582893 176.72402763 C-24.5147881 176.2318538 -29.8513743 175.7228106 -35.18519592 175.17760086 C-36.74876464 175.01968493 -38.31291936 174.86744973 -39.87763977 174.72138596 C-41.98146457 174.52254141 -44.08129892 174.29983068 -46.18188477 174.06958008 C-47.34172379 173.95093094 -48.50156281 173.8322818 -49.69654846 173.71003723 C-53.13417804 172.7834002 -54.10294568 171.72623025 -55.9921875 168.765625 C-56.88155652 166.83762223 -57.73495775 164.89283776 -58.5625 162.9375 C-59.50251105 161.16542175 -60.44365037 159.39381585 -61.40701294 157.63432312 C-62.4657855 155.69691217 -63.49998588 153.74816829 -64.52783203 151.79418945 C-64.88089417 151.12312164 -65.2339563 150.45205383 -65.59771729 149.76065063 C-65.95734558 149.07651093 -66.31697388 148.39237122 -66.6875 147.6875 C-68.18550377 144.84139126 -69.68535598 141.99626957 -71.1875 139.15234375 C-71.55787384 138.45106857 -71.92824768 137.7497934 -72.30984497 137.02726746 C-74.60734476 132.69348977 -76.96318579 128.40014729 -79.375 124.12890625 C-80.22167236 122.62215332 -80.22167236 122.62215332 -81.08544922 121.08496094 C-82.12717216 119.2415463 -83.18031068 117.40452022 -84.24658203 115.57519531 C-84.70403809 114.76276367 -85.16149414 113.95033203 -85.6328125 113.11328125 C-86.03258301 112.42145752 -86.43235352 111.72963379 -86.84423828 111.0168457 C-88.0278879 107.59021626 -87.09417598 105.03713193 -85.55712891 101.8581543 C-85.13866699 101.16633057 -84.72020508 100.47450684 -84.2890625 99.76171875 C-83.80421387 98.95105957 -83.31936523 98.14040039 -82.81982422 97.30517578 C-82.01182373 95.97848877 -82.01182373 95.97848877 -81.1875 94.625 C-79.99460018 92.63683363 -78.80190413 90.64854499 -77.609375 88.66015625 C-76.95904297 87.58137207 -76.30871094 86.50258789 -75.63867188 85.39111328 C-72.27500349 79.80494965 -68.95901473 74.19036636 -65.63452148 68.58084106 C-64.42762206 66.54584444 -63.21900215 64.51188013 -62.00976562 62.47827148 C-57.85204373 55.48578148 -53.70503321 48.48728781 -49.578125 41.4765625 C-42.54911917 29.54674986 -35.52198035 17.62857503 -28 6 C-27.46971191 5.17725586 -26.93942383 4.35451172 -26.39306641 3.50683594 C-19.61472702 -6.81147928 -10.75636375 -2.62715576 0 0 Z " fill="#FEFEFE" transform="translate(480.5625,1311.0625)"/>
<path d="M0 0 C3.55582868 3.15647147 6.10402079 6.42397653 8.5390625 10.48828125 C9.19213379 11.57069092 9.84520508 12.65310059 10.51806641 13.76831055 C11.22056083 14.94959809 11.92286645 16.13099793 12.625 17.3125 C13.36971566 18.55348008 14.11500863 19.79411388 14.86083984 21.03442383 C17.25146052 25.01648341 19.6264875 29.00772712 22 33 C22.80202752 34.34736395 23.60411076 35.69469474 24.40625 37.04199219 C27.62055896 42.44290534 30.83130762 47.84591252 34.03369141 53.25390625 C38.36830968 60.57388147 42.72082799 67.88205403 47.10888672 75.17016602 C49.51626482 79.17034205 51.91248461 83.17714895 54.30859375 87.18408203 C55.99599517 89.9933326 57.70068714 92.79159285 59.40625 95.58984375 C60.43823764 97.30945337 61.46952885 99.0294812 62.5 100.75 C62.97566406 101.51868408 63.45132812 102.28736816 63.94140625 103.0793457 C64.36292969 103.79050537 64.78445313 104.50166504 65.21875 105.234375 C65.58935547 105.84506836 65.95996094 106.45576172 66.34179688 107.08496094 C67.48694952 110.41677747 66.40411937 113.07382039 65.03881836 116.20288086 C64.64315674 116.94932861 64.24749512 117.69577637 63.83984375 118.46484375 C63.15559326 119.76687744 63.15559326 119.76687744 62.45751953 121.09521484 C61.95591309 122.03316895 61.45430664 122.97112305 60.9375 123.9375 C60.15415283 125.41790771 60.15415283 125.41790771 59.35498047 126.92822266 C58.20384571 129.10095185 57.04972065 131.27209861 55.89306641 133.44189453 C54.22324634 136.57553141 52.5674432 139.71639475 50.914505 142.85896301 C49.50314986 145.54048695 48.08706551 148.21949503 46.66995239 150.89797974 C45.98097153 152.20151198 45.29333802 153.50575739 44.60714722 154.8107605 C43.01553535 157.83449697 41.40212341 160.83750837 39.73925781 163.82324219 C37.99885565 166.89766232 37.99885565 166.89766232 36.75292969 169.80957031 C35.39102221 172.52148615 34.32522841 174.03923999 32 176 C28.86068726 176.73799133 28.86068726 176.73799133 25.03271484 177.1184082 C23.98074732 177.22918906 23.98074732 177.22918906 22.90752792 177.34220791 C20.60639326 177.57915885 18.303816 177.79085462 16 178 C14.44320801 178.15068952 12.88647617 178.30200165 11.32980347 178.45391846 C7.11976924 178.85729117 2.90780163 179.23539396 -1.30521393 179.60619926 C-6.14347468 180.03230294 -10.98084502 180.46835084 -15.81835938 180.90283203 C-17.32454016 181.03774693 -17.32454016 181.03774693 -18.86114883 181.17538738 C-29.68641782 182.14689914 -40.50739615 183.16294717 -51.328125 184.18359375 C-53.29300178 184.36864918 -55.25788114 184.55367713 -57.22276306 184.73867798 C-61.20174153 185.11341165 -65.18069685 185.48838995 -69.15963745 185.86352539 C-100.82476605 188.84837452 -132.49087915 191.81227645 -164.17480469 194.59155273 C-165.21002762 194.68258774 -166.24525055 194.77362274 -167.31184387 194.86741638 C-169.17217322 195.03072571 -171.03258656 195.19308337 -172.89311218 195.35414124 C-179.12247579 195.89977527 -185.33202279 196.58048083 -191.54443359 197.29101562 C-197.99009668 197.66633674 -201.58902675 195.28914742 -206.625 191.5 C-208.29539052 190.3005272 -209.96597201 189.10132032 -211.63671875 187.90234375 C-212.5086084 187.26538574 -213.38049805 186.62842773 -214.27880859 185.97216797 C-218.94404354 182.59106552 -223.6980193 179.3382357 -228.4375 176.0625 C-236.4487101 170.48855929 -244.44571152 164.89429023 -252.43676758 159.29150391 C-256.85910696 156.19240145 -261.28823889 153.1035201 -265.7265625 150.02734375 C-277.57906857 141.81117868 -289.34472859 133.49356381 -301 125 C-302.18473073 124.13909567 -303.36961627 123.27840432 -304.5546875 122.41796875 C-307.03792974 120.61398488 -309.51984235 118.80822067 -312 117 C-310.61428973 113.30031247 -308.93333727 109.97426045 -306.9453125 106.5625 C-306.0318103 104.98674194 -306.0318103 104.98674194 -305.09985352 103.37915039 C-304.10487813 101.67665882 -303.1098959 99.97417118 -302.11447144 98.27194214 C-301.08696102 96.51394876 -300.06062532 94.75527864 -299.03515625 92.99609375 C-298.69316696 92.40984726 -298.35117767 91.82360077 -297.99882507 91.21958923 C-295.79659155 87.4257744 -293.68430713 83.59357862 -291.62109375 79.72265625 C-290.84258057 78.2850293 -290.84258057 78.2850293 -290.04833984 76.81835938 C-289.08237849 75.0267439 -288.13494156 73.22497303 -287.20947266 71.41210938 C-285.03975097 67.43415358 -283.68110091 65.37381353 -279.640625 63.15625 C-278.10630508 62.72354841 -276.55615269 62.34605935 -275 62 C-273.90421631 61.73566162 -272.80843262 61.47132324 -271.67944336 61.19897461 C-268.28227955 60.40797311 -264.88078255 59.65678019 -261.47024536 58.92672729 C-257.46930624 58.06926476 -253.47316579 57.18991099 -249.4765625 56.3125 C-248.63176834 56.12743393 -247.78697418 55.94236786 -246.9165802 55.75169373 C-236.9466121 53.56089205 -227.00370767 51.25476989 -217.0625 48.9375 C-216.14615784 48.72417023 -215.22981567 48.51084045 -214.28570557 48.29104614 C-202.0553588 45.44176104 -189.84506874 42.51996749 -177.64575195 39.54052734 C-167.44664434 37.06841138 -157.2045829 34.80898396 -146.95489502 32.55859375 C-135.91445892 30.13162034 -124.91548896 27.57008282 -113.9375 24.875 C-103.08714822 22.21158826 -92.21813792 19.67646311 -81.30371094 17.28637695 C-72.24457386 15.29542387 -63.21432171 13.19403722 -54.1875 11.0625 C-52.75294026 10.72456451 -51.31836997 10.38667376 -49.88378906 10.04882812 C-43.43038131 8.52746354 -36.97917012 6.99778586 -30.53355408 5.44371033 C-27.78108895 4.78125047 -25.02722048 4.12475491 -22.27310181 3.46920776 C-20.36518112 3.01260755 -18.4592883 2.54755973 -16.5534668 2.08227539 C-4.56621584 -0.7660231 -4.56621584 -0.7660231 0 0 Z " fill="#FEFEFE" transform="translate(1588,1308)"/>
<path d="M0 0 C1.23633574 -0.01460693 2.47267148 -0.02921386 3.74647194 -0.04426342 C5.12078078 -0.04537745 6.49508989 -0.04618577 7.86939907 -0.04672146 C9.32774919 -0.05805234 10.78608989 -0.07065491 12.24441904 -0.08442205 C16.25765984 -0.11836342 20.27078366 -0.13338444 24.28414261 -0.14517367 C28.61106031 -0.16099395 32.93785638 -0.19379205 37.26469326 -0.22396755 C47.72069672 -0.29278698 58.17673146 -0.33211074 68.63289586 -0.36681548 C72.57339159 -0.38022246 76.51388039 -0.39526597 80.45437025 -0.41028576 C97.83457796 -0.47618551 115.21479344 -0.53230002 132.5951004 -0.56351471 C136.84965502 -0.57128366 141.10420948 -0.57912734 145.35876369 -0.58711147 C146.94488313 -0.59007524 146.94488313 -0.59007524 148.56304538 -0.59309887 C165.66725431 -0.62665876 182.77063308 -0.71836792 199.87446184 -0.83429582 C217.44977177 -0.95243964 235.02465884 -1.01737957 252.60036558 -1.03100008 C262.46237698 -1.03997096 272.32311878 -1.07194009 282.18473911 -1.16366673 C290.58992022 -1.24170415 298.99355829 -1.27128013 307.39906997 -1.23930902 C311.68206595 -1.22447086 315.96185147 -1.23151617 320.24438 -1.30100155 C337.67685518 -1.56868211 351.90603315 -1.64726568 365.44478416 10.92722511 C366.04582494 11.52186093 366.64686571 12.11649676 367.26611984 12.72915184 C369.79497185 15.17655508 372.54507427 17.19567005 375.37609768 19.28324986 C376.95753548 20.50745932 378.5389645 21.73168014 380.1202383 22.95610142 C391.58667357 31.80895149 403.1343975 40.54617316 414.82018948 49.10722446 C421.81474622 54.24317963 428.71992065 59.49248116 435.6112051 64.76591587 C439.39107352 67.65837727 443.1717205 70.54756039 446.99328518 73.38481236 C447.85192165 74.02229404 447.85192165 74.02229404 448.72790432 74.67265415 C450.18792598 75.75277795 451.65101088 76.82875788 453.11437893 77.90434361 C453.73699612 78.40063267 454.3596133 78.89692173 455.00109768 79.40824986 C455.00109768 79.73824986 455.00109768 80.06824986 455.00109768 80.40824986 C268.22109768 80.40824986 81.44109768 80.40824986 -110.99890232 80.40824986 C-105.3798547 74.78920224 -105.3798547 74.78920224 -102.09265232 72.41996861 C-101.35957859 71.88678013 -100.62650486 71.35359165 -99.87121677 70.80424595 C-99.088353 70.24044224 -98.30548923 69.67663853 -97.49890232 69.09574986 C-90.37236059 63.90612292 -83.31299203 58.64031295 -76.31140232 53.28324986 C-69.59580548 48.14818877 -62.86165442 43.04132621 -56.08923435 37.98149204 C-50.59334041 33.86888081 -45.13951565 29.70234378 -39.68640232 25.53324986 C-30.49100518 18.50703197 -21.20543234 11.61051229 -11.86389256 4.78007603 C-9.97237433 3.43479999 -9.97237433 3.43479999 -8.25727183 1.84802634 C-5.34159681 -0.0108016 -3.44661564 0.02078314 0 0 Z " fill="#000000" transform="translate(851.9989023208618,1446.5917501449585)"/>
<path d="M0 0 C93.72 0 187.44 0 284 0 C284 41.25 284 82.5 284 125 C190.28 125 96.56 125 0 125 C0 83.75 0 42.5 0 0 Z " fill="#000000" transform="translate(882,459)"/>
<path d="M0 0 C1.22830032 -0.00412399 2.45660065 -0.00824799 3.72212219 -0.01249695 C5.06988748 -0.00188174 6.41765052 0.00902266 7.76541138 0.02018738 C9.19484947 0.02103425 10.62428886 0.02055733 12.0537262 0.01885986 C15.92319728 0.01800083 19.7923881 0.03561154 23.66179419 0.05658174 C27.70967524 0.07536393 31.75756305 0.07710019 35.80548096 0.08065796 C43.46581668 0.0899739 51.12602362 0.11458155 58.78630269 0.14470643 C69.14113334 0.18454204 79.49599932 0.20070896 89.8508873 0.21821308 C106.15859201 0.246403 122.46602498 0.30617546 138.77371216 0.36076355 C138.77371216 41.61076355 138.77371216 82.86076355 138.77371216 125.36076355 C95.92263055 125.52197569 95.92263055 125.52197569 77.97488403 125.55607605 C65.57922756 125.57981656 53.18367979 125.60773544 40.78811646 125.66252136 C31.76074344 125.70240152 22.73345857 125.72819933 13.70599991 125.73711753 C8.92639604 125.74233026 4.14704431 125.75457369 -0.63247871 125.78368378 C-5.13290815 125.81087146 -9.63298203 125.81920176 -14.13348579 125.81319427 C-15.78343641 125.81429301 -17.43339915 125.82222701 -19.08327866 125.83758545 C-21.34085935 125.85756672 -23.59710782 125.85267428 -25.85472107 125.84178162 C-27.11665566 125.84546879 -28.37859026 125.84915596 -29.6787653 125.85295486 C-35.06997905 125.10496565 -38.75628023 122.91023103 -42.53878784 118.92326355 C-45.92021114 113.78850965 -46.82084231 109.48429179 -46.22628784 103.36076355 C-45.36020241 99.76309585 -44.18092093 96.29508381 -42.97628784 92.79826355 C-42.32381322 90.83302366 -41.67407484 88.86687321 -41.02706909 86.89982605 C-40.71334351 85.94882019 -40.39961792 84.99781433 -40.0763855 84.01799011 C-38.9807667 80.59331609 -38.05553011 77.15675036 -37.16378784 73.67326355 C-35.75751763 68.20906957 -34.14612345 62.85236575 -32.41378784 57.48576355 C-29.62289809 48.83481065 -27.14891297 40.11034686 -24.76217651 31.33976746 C-17.99529288 6.67939306 -17.99529288 6.67939306 -9.50556755 1.79566479 C-6.01490962 0.26827163 -3.78265459 -0.00983359 0 0 Z " fill="#010101" transform="translate(722.2262878417969,458.6392364501953)"/>
<path d="M0 0 C35.53831995 -0.16121214 35.53831995 -0.16121214 50.44140625 -0.1953125 C60.72778305 -0.21903831 71.0140287 -0.24691584 81.30029297 -0.30175781 C88.79205615 -0.34168159 96.28371284 -0.36744608 103.77557945 -0.37635398 C107.74090131 -0.38155939 111.70591855 -0.39375558 115.67114258 -0.42292023 C119.40745196 -0.45017716 123.14333277 -0.45842446 126.87973213 -0.45243073 C128.89643459 -0.45404675 130.91309094 -0.47551557 132.92967224 -0.49768066 C140.61486867 -0.4628779 146.55076537 -0.01571486 152.49339294 5.34788132 C155.65248046 8.80169313 157.13630993 12.39511825 158.5 16.8125 C158.70375244 17.46065674 158.90750488 18.10881348 159.11743164 18.77661133 C159.762002 20.84630772 160.38369425 22.92172586 161 25 C161.20093262 25.66999023 161.40186523 26.33998047 161.60888672 27.03027344 C162.65323677 30.51929463 163.67870086 34.01338858 164.69140625 37.51171875 C165.80916824 41.36592455 166.9662774 45.20723554 168.13134766 49.04736328 C171.0496089 58.67206863 173.78303 68.3395615 176.44897461 78.03710938 C178.08751339 83.93933816 179.88376775 89.73063374 181.9375 95.5 C184.38854443 102.7151606 185.48352256 108.21668723 182.3125 115.3125 C179.67964296 119.99210104 175.96843419 123.00903368 171 125 C167.83723831 125.24609566 167.83723831 125.24609566 164.02716064 125.24050903 C162.97460292 125.24307231 162.97460292 125.24307231 161.90078139 125.24568737 C159.54996125 125.24898111 157.19942666 125.23798062 154.84863281 125.22705078 C153.16333523 125.22648664 151.47803716 125.22680328 149.79273987 125.22793579 C145.21663342 125.2285102 140.64063157 125.21674163 136.06454945 125.20278788 C131.28260133 125.1902952 126.50065088 125.18911117 121.71868896 125.18673706 C112.66293618 125.18051799 103.60723162 125.16410139 94.55150008 125.14403808 C82.31479449 125.11751503 70.07807573 125.10670989 57.84134865 125.09503365 C38.56086297 125.07622111 19.28047906 125.03637826 0 125 C0 83.75 0 42.5 0 0 Z " fill="#000000" transform="translate(1188,459)"/>
<path d="M0 0 C2.9375 1.5625 2.9375 1.5625 5 4 C5.80280219 10.56180039 3.5446651 15.91084704 1.2578125 21.9921875 C0.86233719 23.07144501 0.46686188 24.15070251 0.05940247 25.26266479 C-1.24124665 28.80420269 -2.55778888 32.33959217 -3.875 35.875 C-4.78017223 38.32679543 -5.68437708 40.77894822 -6.58764648 43.23144531 C-7.98201856 47.01476231 -9.37732801 50.79769702 -10.77885437 54.57836914 C-13.96773404 63.1817841 -17.111619 71.8005801 -20.23046875 80.4296875 C-21.45002192 83.7929412 -22.67048866 87.15586154 -23.89141846 90.51861572 C-24.67034526 92.66792107 -25.44684678 94.81810696 -26.22088623 96.96917725 C-27.29697638 99.95632434 -28.38349547 102.93947351 -29.47265625 105.921875 C-29.78744431 106.80366425 -30.10223236 107.68545349 -30.42655945 108.59396362 C-30.72286758 109.39923492 -31.01917572 110.20450623 -31.32446289 111.03417969 C-31.57724503 111.73210632 -31.83002716 112.43003296 -32.09046936 113.14910889 C-33.61469674 116.25090535 -35.32329219 117.71392024 -38.48730469 119.05151367 C-45.69610562 121.33350099 -52.9342033 123.40231738 -60.25 125.3125 C-68.88740834 127.60209773 -77.49126346 129.97374081 -86.0625 132.5 C-95.31171814 135.22569979 -104.58259424 137.86117887 -113.87109375 140.44970703 C-121.10197438 142.46566394 -128.3227101 144.5141628 -135.5378418 146.58569336 C-141.00851146 148.15323378 -146.4848146 149.69989844 -151.96484375 151.234375 C-152.66650162 151.43100739 -153.36815948 151.62763977 -154.09107971 151.83023071 C-157.57585706 152.80668063 -161.06108656 153.78145901 -164.54711914 154.75341797 C-165.8543795 155.11928729 -167.16159056 155.48533279 -168.46875 155.8515625 C-170.3559375 156.37991699 -170.3559375 156.37991699 -172.28125 156.91894531 C-176.99617399 158.28959155 -181.65713923 159.81038593 -186.31054688 161.37646484 C-189.10384793 162.02407658 -190.38163083 162.08970158 -193 161 C-195.17641627 159.17480435 -197.21284442 157.34359036 -199.25 155.375 C-200.41726137 154.27138676 -201.58522718 153.16851809 -202.75390625 152.06640625 C-203.59526123 151.26807373 -203.59526123 151.26807373 -204.45361328 150.45361328 C-206.32602992 148.69352982 -208.24404881 146.9936449 -210.1875 145.3125 C-213.15726789 142.74286926 -216.08511071 140.13180445 -219 137.5 C-222.62982141 134.22484816 -226.28638781 130.98478792 -229.97265625 127.7734375 C-233.66957793 124.53952142 -237.33314248 121.267917 -241 118 C-238.59868972 115.29605782 -236.10864533 113.86970219 -232.88378906 112.26367188 C-231.83709045 111.73882202 -230.79039185 111.21397217 -229.7119751 110.67321777 C-228.57467957 110.11074341 -227.43738403 109.54826904 -226.265625 108.96875 C-225.06924381 108.37209278 -223.87310157 107.77495623 -222.67718506 107.17736816 C-220.15703563 105.91959766 -217.63497638 104.66577423 -215.11132812 103.41503906 C-211.95093894 101.84869272 -208.79383859 100.2758709 -205.63806534 98.70024872 C-202.55681693 97.16227371 -199.47374853 95.62796155 -196.390625 94.09375 C-195.29381409 93.54746948 -194.19700317 93.00118896 -193.06695557 92.43835449 C-186.91059439 89.38682313 -180.7313398 86.3916895 -174.52383709 83.44548798 C-158.70164473 75.92840654 -143.04503235 68.08779135 -127.38388133 60.24263763 C-123.37299657 58.23401444 -119.36093647 56.22774146 -115.34901428 54.22119141 C-107.78418566 50.43723761 -100.22037631 46.65125121 -92.65695435 42.86448669 C-84.05453933 38.55765752 -75.45096613 34.25314439 -66.84730136 29.94881248 C-52.14943935 22.5955624 -37.45241756 15.24063536 -22.75637817 7.88374329 C-21.82881024 7.41940463 -21.82881024 7.41940463 -20.88250357 6.94568539 C-19.23971928 6.12330273 -17.59694755 5.300895 -15.9541769 4.47848511 C-14.97929852 3.99058502 -14.00442015 3.50268494 -13 3 C-11.9574685 2.45095001 -10.914937 1.90190002 -9.84081364 1.33621216 C-6.25607638 -0.34991376 -3.92070677 -0.49899904 0 0 Z " fill="#FDFDFD" transform="translate(1656,1084)"/>
<path d="M0 0 C2.66956883 1.04511689 5.04264907 2.11039136 7.55859375 3.4375 C8.61881493 3.97503906 8.61881493 3.97503906 9.70045471 4.5234375 C11.95310459 5.66922176 14.19526465 6.83398922 16.4375 8 C17.90753496 8.75260861 19.37823404 9.50392149 20.84960938 10.25390625 C23.78479238 11.75194655 26.71657794 13.25634463 29.64599609 14.765625 C39.84820849 20.01288449 50.11694545 25.11979608 60.5 30 C66.35733564 32.75304268 72.17694214 35.5727501 77.96264648 38.47338867 C78.65084189 38.81794444 79.3390373 39.16250021 80.04808712 39.51749706 C82.36560053 40.6779143 84.68279556 41.83896592 87 43 C88.68484181 43.84376643 90.36970787 44.68748441 92.05459595 45.53115845 C95.75797342 47.38559874 99.46123759 49.24026506 103.16444397 51.095047 C110.59400398 54.81596772 118.02457408 58.53486988 125.45526218 62.25353718 C131.0619369 65.05947839 136.66823442 67.86616785 142.27368164 70.67456055 C147.75721657 73.42183213 153.24177794 76.16704496 158.7270031 78.91094017 C160.7877134 79.94220378 162.84807792 80.97415869 164.90805244 82.00689125 C177.5463293 88.34221088 190.23754795 94.54864621 203.00683594 100.61584473 C209.52813295 103.71829849 215.98863546 106.93727227 222.4375 110.1875 C223.57380859 110.75791016 224.71011719 111.32832031 225.88085938 111.91601562 C228.58822065 113.27540799 231.29461112 114.63668786 234 116 C234 119 234 119 232.75 120.578125 C232.1725 121.12984375 231.595 121.6815625 231 122.25 C230.35160156 122.87003906 229.70320312 123.49007813 229.03515625 124.12890625 C224.714273 128.10146494 220.27051366 131.91926805 215.80078125 135.72265625 C209.97254828 140.6886234 204.19239922 145.68430642 198.5625 150.875 C197.10070312 152.20724609 197.10070312 152.20724609 195.609375 153.56640625 C194.03778558 155.03212512 192.49536864 156.53145232 191.015625 158.08984375 C189.3125 159.8125 189.3125 159.8125 186 162 C184.1340332 161.88818359 184.1340332 161.88818359 182.05078125 161.3359375 C181.25470459 161.13234619 180.45862793 160.92875488 179.63842773 160.71899414 C178.76774658 160.48172607 177.89706543 160.24445801 177 160 C176.07711182 159.76337646 175.15422363 159.52675293 174.20336914 159.28295898 C171.08816625 158.47982274 167.98114018 157.64998537 164.875 156.8125 C163.16473633 156.35230469 163.16473633 156.35230469 161.41992188 155.8828125 C153.12084621 153.62737874 144.89756424 151.17529984 136.68481445 148.6262207 C129.5186595 146.41912123 122.30947613 144.42379546 115.0625 142.5 C97.84557005 137.92685267 80.76592369 132.91694848 63.75585938 127.62719727 C58.57793331 126.03162167 53.38939487 124.56085182 48.140625 123.21484375 C46.43217407 122.76818359 46.43217407 122.76818359 44.68920898 122.3125 C42.48798212 121.74210039 40.28180863 121.19036382 38.07055664 120.66015625 C36.57576782 120.26957031 36.57576782 120.26957031 35.05078125 119.87109375 C33.73074097 119.54516235 33.73074097 119.54516235 32.3840332 119.21264648 C26.56520641 116.25288072 24.77646324 109.31071605 22.7421875 103.51171875 C22.44133743 102.67592789 22.14048737 101.84013702 21.83052063 100.97901917 C20.83811138 98.21771456 19.85674975 95.45261033 18.875 92.6875 C17.82089024 89.747841 16.76378466 86.80926934 15.70664978 83.87069702 C14.96536344 81.80936899 14.22503502 79.74769625 13.48561096 77.68569946 C9.50859259 66.601431 5.44938214 55.54766659 1.38214111 44.49624634 C0.20477259 41.29693551 -0.9712675 38.09713922 -2.14697266 34.8972168 C-2.87526589 32.91583094 -3.60361591 30.93446597 -4.33203125 28.953125 C-4.65950851 28.06218643 -4.98698578 27.17124786 -5.3243866 26.25331116 C-5.63346451 25.41336105 -5.94254242 24.57341095 -6.26098633 23.70800781 C-6.55260651 22.9135022 -6.84422668 22.11899658 -7.14468384 21.30041504 C-7.71170121 19.77539383 -8.28955018 18.25435323 -8.87850952 16.7376709 C-10.61825232 12.24700535 -11.6521115 8.84425689 -11 4 C-8.04325661 -0.61251968 -5.19323876 -0.42483196 0 0 Z " fill="#FDFDFD" transform="translate(398,1084)"/>
<path d="M0 0 C0.33 0 0.66 0 1 0 C1.08245972 0.56770615 1.16491943 1.13541229 1.24987793 1.72032166 C10.08616269 65.26696994 10.08616269 65.26696994 22.36816406 128.203125 C23.17491127 131.77425947 23.9048906 135.35875757 24.63208008 138.94677734 C26.11821524 146.26777801 27.90865835 153.39169948 30.05078125 160.5546875 C31.72426814 166.62882508 32.85506392 172.80693665 34 179 C34.763125 179.23074219 35.52625 179.46148438 36.3125 179.69921875 C41.33195203 181.46985172 46.14084125 183.64545409 51 185.8125 C53.24705462 186.80806217 55.49446616 187.80281904 57.7421875 188.796875 C58.92393555 189.31958984 60.10568359 189.84230469 61.32324219 190.38085938 C65.04544304 192.02297028 68.77539507 193.64689166 72.5078125 195.265625 C73.13302795 195.5372345 73.75824341 195.80884399 74.40240479 196.08868408 C77.6018479 197.47666797 80.80558407 198.85321037 84.01757812 200.21191406 C89.5947995 202.58106332 95.08786272 204.96960098 100.3984375 207.90625 C117.21443769 216.90725154 135.16938436 217.06821793 153.8145752 218.27558899 C166.53561755 219.12203196 179.21142888 220.42305583 191.89273071 221.71911621 C195.79204151 222.11752847 199.69222709 222.50691532 203.5925293 222.89550781 C215.74918538 224.1132119 227.889855 225.37762203 240 227 C237.42814781 237.31325033 233.06565024 245.96849233 224 252 C216.88168227 255.82257338 210.75994174 257.12196584 202.67048645 257.14044189 C201.57822794 257.14489858 201.57822794 257.14489858 200.46390361 257.1494453 C198.02906528 257.15810213 195.59427631 257.15963799 193.15942383 257.16113281 C191.41138606 257.16576316 189.66334931 257.17078811 187.91531372 257.17617798 C183.16922233 257.18928401 178.42314508 257.19574356 173.67703843 257.20018864 C170.70949696 257.20312256 167.74195932 257.207228 164.77441978 257.21169281 C155.4828626 257.22536367 146.19131421 257.23503206 136.89974767 257.2388947 C126.1868562 257.24337308 115.47409247 257.26091254 104.76123983 257.2898953 C96.47230133 257.3115391 88.18339869 257.32160044 79.89443225 257.32293582 C74.94775299 257.32398201 70.00119387 257.32985009 65.05454445 257.34775543 C60.39812209 257.36428255 55.7419096 257.36636915 51.08546829 257.35761642 C49.38196054 257.3568485 47.67844129 257.36115629 45.97496223 257.37107468 C31.64360807 257.44958536 21.01881161 255.94465073 10 246 C4.1328652 239.1550094 -0.12813404 230.12873608 -0.12304783 220.9939003 C-0.12503888 220.2021721 -0.12702993 219.4104439 -0.12908131 218.59472394 C-0.12616847 217.73091194 -0.12325563 216.86709994 -0.12025452 215.97711182 C-0.12110894 215.05489484 -0.12196337 214.13267786 -0.12284368 213.18251491 C-0.12449369 210.08552417 -0.1189849 206.98858733 -0.11352539 203.89160156 C-0.11324339 201.67429099 -0.11340151 199.45698032 -0.1139679 197.2396698 C-0.11425537 191.21323121 -0.10836672 185.18681243 -0.10139394 179.16037846 C-0.09515206 172.86495628 -0.09455594 166.56953368 -0.09336853 160.27410889 C-0.09061135 149.70535952 -0.08436076 139.13661667 -0.07543945 128.56787109 C-0.06626012 117.68212928 -0.05918183 106.79638944 -0.05493164 95.91064453 C-0.05466892 95.23962142 -0.05440619 94.56859831 -0.05413551 93.87724116 C-0.05283047 90.51090768 -0.05156676 87.14457419 -0.05032361 83.77824068 C-0.03986479 55.85215538 -0.0222701 27.9260782 0 0 Z " fill="#030303" transform="translate(285,1332)"/>
<path d="M0 0 C0.33 0 0.66 0 1 0 C1.0700924 29.05051851 1.12298936 58.10102433 1.15543652 87.15161037 C1.15849603 89.8373204 1.16161999 92.52303034 1.16479492 95.20874023 C1.16558185 95.87627715 1.16636878 96.54381406 1.16717956 97.23157937 C1.18022282 108.0310905 1.20387069 118.83055358 1.23145839 129.63003623 C1.25954268 140.71662633 1.27595819 151.80319687 1.28226548 162.88982159 C1.28617516 169.11477658 1.29535908 175.33962269 1.31719017 181.56454277 C1.33757889 187.42577152 1.3438289 193.28684669 1.33932304 199.14810753 C1.34014717 201.29709966 1.34609848 203.44609702 1.35761642 205.59505844 C1.37259771 208.53482723 1.36893292 211.47402029 1.36076355 214.4138031 C1.36950207 215.25915995 1.3782406 216.10451679 1.38724393 216.97549051 C1.30980808 227.32335517 -2.65851721 237.14443084 -9.6640625 244.82421875 C-17.20938136 251.66324064 -26.33999556 255.24478032 -36.48773193 255.26069641 C-37.22084225 255.26452196 -37.95395257 255.26834751 -38.70927835 255.27228898 C-41.15489226 255.2825709 -43.60026928 255.278636 -46.04589844 255.2746582 C-47.80393693 255.27900744 -49.56197353 255.28419129 -51.32000732 255.29014587 C-56.08878781 255.30352682 -60.857489 255.30411537 -65.6262846 255.30158257 C-69.61211605 255.30051189 -73.59793152 255.30539892 -77.58375955 255.310188 C-86.99172428 255.32128083 -96.39964908 255.32172235 -105.80761719 255.31567383 C-115.49945136 255.30963835 -125.19114021 255.32193476 -134.88294959 255.3432439 C-143.21437749 255.36088563 -151.54575925 255.36685705 -159.87720513 255.36360615 C-164.84845191 255.36179669 -169.81959509 255.36439554 -174.79082489 255.37832069 C-179.4694341 255.39093568 -184.14781773 255.3889203 -188.82642365 255.37590981 C-190.53799009 255.37355216 -192.24957258 255.37624943 -193.96112061 255.38453293 C-208.30486309 255.44891532 -218.97639704 253.96796751 -230 244 C-235.09751477 237.97658934 -238.13384278 231.97702986 -238 224 C-236.78939659 223.89559349 -236.78939659 223.89559349 -235.55433655 223.78907776 C-212.65562777 221.80739049 -189.77207053 219.68550124 -166.89526367 217.46557617 C-162.28129765 217.01818076 -157.66671445 216.57748606 -153.05198574 216.13803768 C-149.43726057 215.79257197 -145.82302767 215.44215384 -142.20890999 215.09039497 C-140.50559465 214.92548074 -138.80209964 214.76241014 -137.09841728 214.60133171 C-121.72097444 213.23843946 -121.72097444 213.23843946 -107.05078125 208.63671875 C-105.97054688 208.16854736 -104.8903125 207.70037598 -103.77734375 207.21801758 C-102.63394531 206.71294678 -101.49054688 206.20787598 -100.3125 205.6875 C-99.08886996 205.15378771 -97.86490375 204.62084557 -96.640625 204.08862305 C-94.07070594 202.97020353 -91.50272758 201.84748345 -88.93603516 200.72167969 C-85.0302107 199.01034424 -81.11578639 197.31938876 -77.19921875 195.6328125 C-54.90822085 186.23121795 -54.90822085 186.23121795 -33 176 C-32.28129424 173.81565731 -31.67554531 171.59400479 -31.1171875 169.36328125 C-30.94185486 168.6687233 -30.76652222 167.97416534 -30.58587646 167.25856018 C-30.00595648 164.94548399 -29.43971146 162.62933304 -28.875 160.3125 C-28.67880066 159.51789368 -28.48260132 158.72328735 -28.28045654 157.90460205 C-25.16534597 145.27741954 -22.30847191 132.60050937 -19.625 119.875 C-19.38085358 118.72253281 -19.38085358 118.72253281 -19.1317749 117.54678345 C-17.179267 108.28695947 -15.43155169 99.01691181 -13.96987915 89.66598511 C-13.10218685 84.20437371 -13.10218685 84.20437371 -12 82 C-11.53821569 79.12269911 -11.1210805 76.25048414 -10.73046875 73.36328125 C-10.46350725 71.4434136 -10.19571273 69.52366166 -9.92724609 67.60400391 C-9.78011169 66.54908752 -9.63297729 65.49417114 -9.48138428 64.4072876 C-8.59535465 58.13587843 -7.66493127 51.87097982 -6.73828125 45.60546875 C-6.53910014 44.25660693 -6.33995274 42.90774012 -6.14083862 41.55886841 C-5.63496686 38.13276995 -5.12852414 34.70675613 -4.62194824 31.28076172 C-4.09850968 27.7399631 -3.57565031 24.19907896 -3.05273438 20.65820312 C-2.03570587 13.77205415 -1.01806264 6.88599616 0 0 Z " fill="#020202" transform="translate(1762,1334)"/>
<path d="M0 0 C1.38037267 -0.00692307 1.38037267 -0.00692307 2.78863165 -0.01398599 C5.90129483 -0.02465284 9.01314586 -0.00656412 12.12576771 0.01117325 C14.36812545 0.00943047 16.61048241 0.00593096 18.852835 0.00081658 C25.03721486 -0.00816473 31.22131976 0.00792362 37.40566456 0.02792883 C43.38289855 0.04337796 49.36011313 0.04009067 55.33735979 0.03720146 C67.56801052 0.03194074 79.79857495 0.04533083 92.02920055 0.06927109 C104.14283328 0.09292168 116.25643007 0.10833132 128.37008572 0.11268234 C129.1226658 0.1129573 129.87524588 0.11323226 130.65063142 0.11351555 C134.4724489 0.11486884 138.29426641 0.11607439 142.11608396 0.11722305 C169.20127097 0.12562954 196.286411 0.15259245 223.37157154 0.1904335 C249.68797524 0.22715813 276.0043661 0.25549899 302.32079029 0.27246475 C303.13166807 0.27299086 303.94254585 0.27351696 304.77799569 0.27405901 C312.92100289 0.27933299 321.0640102 0.28443626 329.20701759 0.28941445 C345.79595264 0.29955989 362.38488686 0.3108449 378.97382069 0.32281876 C379.7365893 0.32336792 380.49935792 0.32391708 381.28524073 0.32448288 C432.24038849 0.36129899 483.19550887 0.42476442 534.15062428 0.49219131 C534.51824879 1.17732803 534.8858733 1.86246475 535.26463795 2.56836319 C536.95300923 5.71114764 538.64553341 8.85167752 540.33812428 11.99219131 C540.91626881 13.06984756 541.49441334 14.14750381 542.0900774 15.25781631 C544.63436096 19.97264687 547.18489939 24.63626384 550.07640553 29.14844131 C552.15062428 32.49219131 552.15062428 32.49219131 552.15062428 34.49219131 C542.1237272 33.84732704 532.1059071 33.11950936 522.08897877 32.33622742 C469.79072638 28.2118901 469.79072638 28.2118901 417.3959856 25.69409561 C414.17746506 25.56673527 410.98178683 25.31287879 407.77269459 25.03760147 C396.57322982 24.15753941 385.34054742 23.83247893 374.11546803 23.44141006 C372.83884737 23.39691916 371.56222672 23.35242825 370.24692059 23.30658913 C339.92189422 22.27950551 309.60854483 22.219071 279.26924741 22.29159534 C274.15881663 22.30324822 269.04842117 22.30733479 263.93797779 22.30688858 C234.64618363 22.30464751 205.3601558 22.38687833 176.07249928 22.94141006 C174.49449889 22.97035827 174.49449889 22.97035827 172.88461971 22.99989128 C157.82160526 23.2848462 142.81496898 23.90851228 127.78734303 24.99219131 C121.50855118 25.40558694 115.23736354 25.6205966 108.94762135 25.79697037 C90.03607629 26.3292273 71.18540805 27.44600062 52.30955982 28.7038002 C49.02396657 28.92101677 45.73795825 29.13154205 42.45193768 29.34217834 C24.18205155 30.5164092 5.93961172 31.86045827 -12.28963757 33.55893326 C-12.96606367 33.62136089 -13.64248978 33.68378853 -14.33941364 33.74810791 C-16.15135058 33.91596547 -17.96298469 34.087083 -19.7745924 34.25845718 C-22.48325384 34.46436003 -25.1347796 34.53798069 -27.84937572 34.49219131 C-26.42051764 30.69044699 -24.67889032 27.21893382 -22.69703197 23.67578506 C-22.08537182 22.58201553 -21.47371166 21.488246 -20.84351635 20.36133194 C-20.20607494 19.22889053 -19.56863354 18.09644913 -18.91187572 16.92969131 C-18.27830151 15.79338272 -17.64472729 14.65707413 -16.99195385 13.48633194 C-13.44616396 7.16654869 -13.44616396 7.16654869 -11.84937572 4.49219131 C-11.50401797 3.78728066 -11.15866022 3.08237 -10.80283707 2.35609841 C-7.68687856 -0.61701246 -4.07871816 -0.04964724 0 0 Z " fill="#040404" transform="translate(761.8493757247925,604.5078086853027)"/>
<path d="M0 0 C0.33 0 0.66 0 1 0 C1 73.92 1 147.84 1 224 C0.67 224 0.34 224 0 224 C-0.33 156.68 -0.66 89.36 -1 20 C-1.33 20 -1.66 20 -2 20 C-2.26404456 13.13484138 -1.25841946 6.74153283 0 0 Z " fill="#2C2B2C" transform="translate(1762,1334)"/>
</svg>
