<?xml version="1.0" standalone="no"?>
<!DOCTYPE svg PUBLIC "-//W3C//DTD SVG 20010904//EN"
 "http://www.w3.org/TR/2001/REC-SVG-20010904/DTD/svg10.dtd">
<svg version="1.0" xmlns="http://www.w3.org/2000/svg"
 width="2816.000000pt" height="1536.000000pt" viewBox="0 0 2816.000000 1536.000000"
 preserveAspectRatio="xMidYMid meet">

<g transform="translate(0.000000,1536.000000) scale(0.100000,-0.100000)"
fill="#000000" stroke="none">
<path d="M15217 12539 c-181 -18 -443 -61 -490 -81 -33 -15 -57 -34 -79 -65
-49 -72 -127 -247 -175 -393 -37 -111 -44 -145 -41 -190 7 -81 35 -132 78
-142 19 -4 253 -28 520 -53 267 -25 622 -59 790 -76 168 -16 409 -40 536 -52
131 -12 232 -26 233 -32 0 -5 -14 -9 -32 -9 -17 1 -108 5 -202 9 -195 9 -252
-1 -327 -58 -101 -77 -80 -203 41 -237 20 -6 113 -17 206 -26 94 -9 172 -18
175 -21 2 -2 -13 -75 -35 -161 l-40 -157 -54 -8 c-107 -15 -199 -88 -248 -195
-28 -64 -90 -315 -104 -424 -18 -144 31 -300 112 -356 22 -16 36 -33 34 -42
-2 -8 -14 -66 -26 -127 -25 -127 -35 -137 -81 -79 -34 43 -138 120 -208 156
-144 72 -337 107 -495 89 -226 -25 -375 -98 -525 -255 -85 -89 -131 -160 -184
-284 l-36 -85 -116 -18 c-245 -38 -392 -92 -490 -180 -27 -25 -83 -90 -123
-144 l-74 -99 -276 -13 c-453 -20 -796 -51 -1124 -101 -71 -11 -133 -20 -137
-20 -4 0 -9 50 -12 110 -4 104 -6 112 -32 139 -37 38 -47 42 -266 96 -168 42
-188 45 -230 35 -67 -17 -127 -56 -158 -102 -25 -39 -27 -48 -26 -150 0 -93 3
-112 20 -135 31 -41 89 -71 177 -90 l78 -17 -73 -26 c-106 -39 -167 -72 -239
-130 l-64 -51 -13 203 c-8 112 -16 363 -18 558 -3 211 -8 358 -14 364 -7 7
-14 6 -22 -2 -10 -10 -13 -92 -13 -337 0 -178 -3 -326 -6 -329 -3 -4 -67 -21
-142 -40 l-137 -33 -1 86 c-1 47 -3 300 -5 561 -2 261 -3 478 -3 483 -1 11
-29 9 -36 -3 -4 -6 -6 -265 -5 -575 l1 -564 -38 -20 c-48 -24 -67 -45 -92
-101 -19 -41 -21 -66 -21 -252 0 -188 -2 -207 -17 -212 -43 -12 -146 -27 -152
-21 -3 4 -7 219 -9 478 -3 476 -6 513 -38 486 -12 -9 -14 -99 -14 -498 l0
-486 -318 -64 c-711 -144 -1010 -212 -1287 -296 -179 -53 -422 -141 -559 -201
-55 -24 -101 -43 -102 -41 -1 1 -26 81 -55 177 -28 96 -57 181 -62 189 -26 32
-55 32 -170 -5 -153 -50 -347 -122 -375 -140 -29 -19 -26 -58 5 -62 12 -2 97
20 188 48 92 28 170 48 173 45 4 -4 7 -36 7 -72 l0 -64 -112 -43 c-124 -48
-143 -59 -143 -88 0 -33 27 -31 144 10 l114 41 6 -31 c3 -17 6 -54 6 -83 l0
-53 -142 -81 c-79 -44 -162 -92 -185 -106 l-42 -26 -22 43 c-64 126 -175 277
-283 384 -219 218 -420 338 -768 459 -357 124 -664 179 -1008 179 -252 0 -345
-13 -545 -79 -516 -169 -923 -575 -1149 -1145 -152 -386 -192 -887 -104 -1299
59 -278 183 -547 359 -781 33 -43 59 -81 59 -84 0 -4 -48 -38 -107 -77 -82
-54 -108 -67 -114 -56 -5 7 -22 114 -39 238 -42 308 -61 374 -132 454 -62 71
-208 161 -316 195 -44 14 -58 24 -76 56 -26 48 -65 55 -125 25 -156 -80 -352
-120 -1685 -346 -247 -42 -462 -83 -478 -91 -55 -28 -59 -55 -48 -331 5 -136
12 -341 16 -455 l7 -208 -24 0 c-58 0 -128 -80 -129 -146 0 -30 17 -40 79 -47
41 -5 65 -15 95 -39 39 -31 46 -33 116 -32 41 1 126 11 188 23 l114 22 60 -66
c102 -111 174 -153 578 -332 129 -58 264 -121 300 -141 36 -20 153 -103 261
-184 244 -183 312 -227 453 -293 257 -122 541 -186 1396 -314 212 -32 291 -52
745 -185 250 -74 497 -139 710 -187 119 -26 308 -30 450 -10 151 23 295 0 441
-68 l64 -30 0 -131 c0 -124 1 -132 24 -155 23 -23 72 -32 194 -33 55 0 87 -22
102 -69 19 -58 38 -83 64 -83 24 0 465 104 1036 243 168 41 451 109 630 151
513 122 1094 267 1108 278 15 13 16 54 2 94 -6 18 -9 148 -8 337 l3 308 51
-73 c160 -228 393 -427 654 -558 345 -173 876 -319 1315 -361 148 -14 406 -7
535 16 466 82 914 399 1214 862 219 338 359 716 415 1123 12 80 22 161 23 180
3 34 4 35 53 41 28 4 178 12 335 19 325 13 631 3 945 -30 105 -12 228 -23 275
-27 47 -3 91 -9 98 -12 6 -4 22 -27 35 -51 19 -39 32 -50 97 -81 41 -21 151
-63 243 -94 l168 -57 147 32 c245 53 385 90 427 114 22 13 66 39 98 59 43 26
93 44 185 66 70 16 327 78 572 136 465 112 465 112 582 84 50 -11 66 -11 130
4 202 46 2183 509 2773 647 116 27 318 74 450 104 214 49 1205 281 1583 371
l143 34 71 -75 c80 -84 197 -167 309 -218 337 -153 1221 -326 1664 -326 189 0
359 48 529 148 94 56 270 220 351 328 501 665 615 1805 255 2539 -65 131 -189
305 -267 375 -175 156 -450 260 -843 320 -74 12 -136 23 -139 25 -4 4 5 313
34 1225 25 796 26 879 15 900 -14 26 -78 26 -225 0 -60 -11 -147 -23 -192 -27
l-83 -6 -35 37 c-38 41 -65 115 -65 181 0 23 -6 50 -14 60 -12 17 -20 18 -108
7 -67 -8 -126 -9 -199 -2 -57 5 -282 25 -499 45 -217 19 -469 42 -560 51 -204
19 -280 15 -399 -25 l-93 -31 -36 29 c-96 75 -157 88 -582 125 -157 14 -387
35 -512 46 -124 11 -242 20 -260 20 -27 0 -39 7 -57 30 -26 35 13 36 -361 -5
-118 -14 -350 -38 -514 -55 -371 -38 -437 -47 -454 -64 -30 -29 -40 -169 -47
-646 -3 -261 -8 -476 -10 -478 -3 -3 -78 38 -450 250 -818 465 -904 507 -1125
543 -183 29 -581 14 -1339 -51 -161 -14 -296 -22 -299 -20 -5 5 10 87 24 139
4 11 15 17 37 17 115 0 517 152 517 195 0 8 -12 21 -27 29 -52 26 -288 87
-385 99 -66 7 -98 16 -98 24 0 8 9 11 28 7 15 -2 144 -16 287 -29 435 -40 776
-73 1307 -126 l508 -51 412 52 c315 39 419 55 437 69 35 24 64 114 56 171 -11
74 -111 365 -163 473 -83 172 -118 206 -234 227 -54 10 -350 34 -1153 95 -527
40 -1152 89 -1850 145 -275 22 -671 53 -880 70 -209 16 -434 34 -500 40 -66 6
-140 12 -165 14 -25 2 -85 -1 -133 -5z m378 -74 c165 -14 316 -25 335 -26 19
-1 -24 -12 -97 -24 -172 -30 -171 -30 -194 -78 l-20 -42 -77 3 -77 3 32 -23
c18 -13 45 -46 60 -75 15 -28 31 -49 36 -46 5 3 7 -3 4 -13 -3 -11 -13 -72
-23 -137 -14 -97 -22 -124 -42 -148 -48 -58 -68 -62 -257 -56 -194 7 -386 23
-430 36 -16 5 -50 12 -75 15 -58 8 -105 37 -125 77 -19 36 -15 72 16 133 17
34 19 50 12 90 -4 26 -12 48 -18 48 -5 0 -33 -57 -62 -126 -48 -117 -94 -205
-79 -151 25 88 52 168 87 252 79 189 118 234 220 252 65 11 350 47 424 54 22
2 42 4 45 5 3 1 140 -9 305 -23z m1085 -90 c250 -20 559 -44 685 -55 127 -11
354 -29 505 -40 437 -32 709 -56 715 -62 3 -3 -31 -11 -77 -18 -101 -14 -138
-29 -166 -65 l-22 -28 -493 42 c-270 24 -575 49 -677 57 -102 8 -281 23 -398
34 -429 40 -1064 90 -1074 84 -6 -4 -5 2 1 14 8 16 25 22 68 27 121 13 358 47
363 52 3 3 30 2 60 -1 30 -3 260 -22 510 -41z m-750 -224 c18 -13 26 -29 28
-59 2 -23 0 -42 -5 -42 -28 1 -52 15 -57 35 -10 40 -59 43 -71 4 -9 -28 14
-59 68 -93 66 -42 82 -90 53 -161 -18 -43 -42 -55 -106 -55 -44 0 -56 5 -81
29 -21 22 -29 39 -29 65 0 34 2 36 35 36 30 0 35 -3 35 -22 0 -36 15 -50 46
-46 25 3 29 8 32 39 3 34 0 39 -47 67 -67 42 -85 70 -78 128 10 93 101 131
177 75z m3494 9 c61 -5 196 -17 300 -25 105 -9 196 -20 204 -24 9 -5 -18 -12
-69 -19 -423 -57 -431 -59 -444 -90 -4 -10 -6 -153 -6 -319 1 -167 -2 -303 -7
-303 -4 0 -13 91 -20 201 -9 155 -15 206 -27 219 -11 12 -15 39 -15 101 0 113
-5 119 -111 130 -131 14 -517 47 -696 61 -124 9 -163 15 -163 25 0 32 50 36
260 18 113 -9 259 -20 325 -24 l120 -6 65 32 c74 36 107 39 284 23z m-3272
-19 c22 -8 25 -20 47 -172 12 -90 25 -176 28 -191 5 -26 3 -28 -30 -28 -36 0
-47 15 -47 68 0 21 -4 23 -47 20 -44 -3 -48 -5 -57 -35 -8 -30 -12 -33 -49
-33 -33 0 -38 3 -32 18 4 9 31 89 61 177 30 88 56 166 59 173 5 14 34 16 67 3z
m329 -27 c3 -2 4 -17 1 -33 l-4 -30 -64 6 -64 6 0 -46 0 -46 55 -6 c52 -7 55
-9 55 -36 0 -29 -1 -29 -59 -29 l-59 0 -7 -80 c-6 -73 -9 -80 -29 -80 -48 0
-50 8 -37 151 6 74 14 158 18 187 l5 53 92 -7 c50 -3 94 -8 97 -10z m202 -14
c24 0 27 -3 27 -36 l0 -36 -65 7 -65 7 0 -45 0 -46 55 -6 c53 -7 55 -8 55 -37
l0 -30 -60 4 -60 4 -1 -38 c-1 -21 -2 -44 -3 -50 -1 -7 12 -14 29 -16 86 -7
95 -11 95 -43 l0 -30 -97 7 c-54 4 -100 8 -102 10 -4 4 16 271 26 343 l6 44
66 -7 c36 -3 78 -6 94 -6z m244 -20 c31 0 33 -2 33 -35 0 -34 -1 -35 -39 -35
-45 0 -45 1 -56 -155 -11 -152 -12 -155 -52 -155 l-35 0 6 43 c3 23 8 80 11
127 3 47 8 99 11 117 4 30 3 31 -36 38 -43 7 -43 8 -33 44 6 23 8 24 81 17 41
-3 90 -6 109 -6z m142 -88 c7 -40 16 -70 19 -67 3 3 18 33 33 68 27 60 29 62
61 59 18 -2 34 -5 36 -7 2 -2 -21 -52 -51 -111 -46 -92 -55 -121 -61 -183 -3
-41 -8 -77 -11 -79 -2 -2 -18 -1 -35 3 l-31 7 6 76 c5 68 2 91 -28 195 l-35
118 42 -3 41 -3 14 -73z m450 37 c37 -13 61 -53 61 -104 0 -33 -2 -35 -35 -35
-32 0 -35 3 -35 28 0 71 -62 82 -79 14 -14 -55 -23 -176 -15 -205 7 -30 38
-44 59 -27 8 7 17 27 21 46 6 31 9 34 41 34 l36 0 -6 -42 c-11 -84 -77 -126
-154 -97 -61 23 -76 62 -69 183 10 176 67 243 175 205z m248 -25 l29 -6 28
-194 c16 -107 26 -197 24 -200 -3 -2 -19 -1 -36 2 -28 6 -33 12 -38 44 -5 32
-11 39 -36 44 -58 11 -66 8 -75 -31 -7 -32 -13 -39 -37 -41 -16 -2 -32 0 -37
5 -6 6 16 86 53 196 67 198 64 193 125 181z m256 -23 c78 -10 104 -28 113 -77
7 -40 -11 -101 -37 -117 -17 -11 -17 -12 -1 -30 13 -15 17 -38 17 -98 l0 -79
-37 0 -37 0 -3 83 -3 82 -31 3 c-36 4 -44 -12 -44 -88 0 -61 -9 -72 -49 -64
-31 6 -32 9 -27 43 3 20 10 97 16 171 6 74 13 145 16 158 5 25 9 25 107 13z
m1922 -53 c15 -14 28 -38 31 -59 5 -28 1 -41 -21 -67 -24 -29 -32 -32 -80 -32
-37 0 -60 -6 -76 -19 l-24 -19 28 -11 c36 -14 38 -14 75 4 39 20 75 11 107
-27 35 -41 33 -82 -5 -120 -28 -27 -35 -29 -76 -24 -31 3 -56 0 -75 -9 -15 -8
-48 -15 -72 -15 -25 0 -61 -7 -80 -15 -88 -37 -147 -9 -147 70 0 71 38 102
117 95 12 -1 30 8 39 19 10 11 21 18 24 16 4 -2 7 2 7 10 0 15 -73 14 -102 -2
-57 -32 -139 50 -121 122 15 58 61 72 257 80 42 1 84 7 95 13 31 18 71 14 99
-10z m-1423 -5 c18 -16 24 -59 10 -79 -10 -15 -47 -34 -66 -34 -9 0 -25 9 -37
21 -22 22 -21 67 2 96 16 18 69 16 91 -4z m731 -8 c38 -16 51 -30 62 -63 11
-38 -4 -90 -37 -128 l-32 -36 17 -48 c23 -64 21 -94 -6 -126 -18 -21 -32 -27
-58 -26 -19 1 -79 4 -134 6 -68 2 -110 8 -131 19 -20 11 -50 16 -86 14 -70 -3
-98 18 -98 73 0 39 26 72 66 84 23 7 60 70 37 64 -14 -4 -71 31 -77 47 -12 33
-5 75 17 101 22 25 29 27 110 29 48 1 90 5 95 9 11 12 218 -3 255 -19z m-545
-2 c71 -60 -10 -161 -86 -107 -16 11 -22 25 -22 54 0 62 62 92 108 53z m-216
-230 c37 -33 9 -113 -40 -113 -33 0 -62 29 -62 62 0 59 60 89 102 51z m192
-12 c27 -30 18 -91 -16 -110 -54 -31 -118 21 -97 78 19 52 80 69 113 32z
m-2439 -297 c65 -6 125 -23 84 -24 -9 0 -23 -8 -32 -18 -15 -17 -14 -18 10
-20 37 -3 43 -12 7 -11 -88 3 -258 25 -261 34 -5 17 69 55 97 50 14 -2 57 -7
95 -11z m153 -21 c-10 -2 -26 -2 -35 0 -10 3 -2 5 17 5 19 0 27 -2 18 -5z
m110 -10 c-10 -2 -26 -2 -35 0 -10 3 -2 5 17 5 19 0 27 -2 18 -5z m362 -29
c74 -7 166 -17 203 -20 l68 -7 -22 -20 c-12 -11 -28 -35 -35 -53 -17 -40 -23
-44 -17 -11 4 22 1 24 -54 30 -32 3 -167 16 -300 28 -133 13 -240 25 -237 28
5 6 10 7 35 10 6 0 9 8 6 15 -4 11 -1 13 10 9 12 -5 14 -3 8 7 -9 15 93 10
335 -16z m-427 -21 c-13 -2 -35 -2 -50 0 -16 2 -5 4 22 4 28 0 40 -2 28 -4z
m5591 -74 c170 -15 206 -33 206 -99 0 -65 -79 -151 -152 -167 -17 -3 -28 -12
-28 -22 1 -25 38 -158 39 -138 1 10 6 15 11 12 6 -4 7 -12 4 -18 -11 -18 66
49 289 251 l146 133 71 -7 70 -7 0 -41 c0 -22 -3 -58 -6 -78 -6 -35 -10 -38
-59 -53 -29 -8 -56 -15 -60 -15 -4 0 -5 20 -3 45 l6 45 -71 -63 c-77 -69 -89
-87 -58 -87 19 0 19 -2 7 -42 l-12 -43 -54 3 c-52 3 -57 1 -89 -32 -28 -29
-30 -34 -12 -29 12 3 24 9 27 14 3 5 16 6 28 3 13 -3 39 1 58 9 l35 15 6 -71
c4 -39 5 -72 4 -73 -1 -1 -192 17 -423 41 -232 24 -459 46 -505 50 -119 9
-116 7 -73 68 48 66 57 77 48 54 -6 -16 -1 -17 42 -14 27 2 57 0 68 -5 13 -7
16 -7 12 1 -4 6 -3 11 2 11 10 0 96 142 173 288 l44 83 45 -5 c25 -3 99 -11
164 -17z m-5480 -86 c-14 -3 -24 -16 -32 -41 l-11 -37 6 35 c7 46 10 50 36 49
21 -2 21 -2 1 -6z m6636 -40 c-1 -44 -23 -66 -75 -70 -27 -2 -65 -13 -84 -24
-31 -18 -35 -19 -43 -5 -5 9 -23 23 -40 32 l-30 16 23 16 c42 29 122 51 187
52 53 0 62 -3 62 -17z m188 -8 c7 -6 -30 -66 -44 -72 -18 -7 -124 6 -124 15 0
4 9 22 20 40 l21 34 62 -7 c34 -4 63 -9 65 -10z m-6831 -27 c-3 -8 -6 -5 -6 6
-1 11 2 17 5 13 3 -3 4 -12 1 -19z m7196 1 c67 -6 125 -14 128 -18 12 -11 -41
-83 -56 -77 -8 3 -65 8 -128 12 -123 7 -149 1 -195 -49 l-24 -25 39 -6 c21 -3
72 -8 113 -11 142 -11 150 -13 150 -44 0 -15 -6 -35 -13 -45 -12 -16 -19 -16
-132 -2 -66 9 -138 16 -161 16 -36 0 -43 -3 -48 -25 -9 -36 8 -62 46 -69 33
-6 211 -26 236 -26 15 0 -19 -65 -47 -89 -15 -12 -14 -13 2 -8 9 4 17 2 17 -3
0 -6 23 6 50 26 l50 36 0 -59 c0 -32 -4 -63 -8 -69 -5 -7 -37 -7 -107 2 -184
24 -848 94 -887 94 -27 0 -38 4 -36 13 8 23 70 37 139 32 l66 -6 22 51 c20 46
37 60 55 43 4 -4 27 -6 52 -4 25 1 63 0 85 -4 l39 -7 -22 -39 c-20 -37 -24
-39 -67 -38 -25 0 -70 4 -98 8 -29 4 -53 4 -53 0 0 -12 30 -19 87 -19 30 0 81
-7 112 -14 32 -9 97 -14 154 -14 90 1 95 2 61 14 -72 25 -103 84 -83 159 35
125 135 231 249 261 58 16 68 16 213 3z m359 -13 c21 -32 8 -44 -54 -51 -35
-3 -70 -9 -79 -11 -12 -3 -20 5 -28 27 -21 60 -20 61 72 53 45 -4 85 -12 89
-18z m-5294 -151 c198 -28 265 -59 957 -448 626 -350 740 -417 737 -428 -1 -6
2 -8 8 -4 5 3 61 -23 123 -58 107 -62 474 -266 640 -356 43 -24 74 -47 71 -53
-4 -5 -9 -6 -13 -2 -3 5 -12 10 -19 12 -21 4 -122 63 -122 71 0 4 -6 8 -13 8
-21 0 -167 83 -167 95 0 6 -3 9 -6 5 -9 -9 -84 31 -84 45 0 6 -3 8 -6 5 -8 -8
-10 -7 -201 100 -84 47 -153 90 -153 96 0 6 -3 8 -6 4 -9 -8 -84 31 -84 44 0
6 -3 8 -8 5 -12 -7 -447 242 -444 255 2 7 -3 9 -13 5 -10 -4 -14 -2 -9 5 4 7
1 10 -7 7 -20 -7 -71 21 -63 34 5 8 1 9 -10 5 -11 -4 -15 -3 -11 4 4 6 1 10
-6 8 -24 -3 -35 1 -55 19 -11 9 -26 18 -34 20 -7 2 -108 56 -224 119 -116 64
-284 154 -373 199 -89 45 -158 85 -155 89 4 3 0 3 -9 0 -8 -3 -35 1 -59 10
-121 43 -362 61 -655 50 l-200 -8 90 -18 c143 -29 438 -113 580 -164 357 -130
864 -409 1198 -661 43 -33 47 -34 47 -15 0 19 6 21 50 21 60 0 66 -9 52 -74
-9 -42 -8 -45 9 -36 10 6 31 10 47 10 32 0 42 17 42 78 0 32 0 32 50 32 50 0
50 0 50 -32 0 -69 -8 -78 -60 -78 l-48 0 -4 -50 -3 -50 48 0 c47 0 47 0 47
-33 0 -28 8 -40 54 -78 89 -73 448 -382 486 -417 39 -38 -147 113 -255 206
-38 33 -71 56 -73 51 -2 -5 -16 -6 -30 -3 l-27 7 25 -29 c22 -25 21 -25 -15 5
-22 19 -75 67 -119 107 -65 61 -84 74 -112 74 -32 0 -33 -2 -36 -42 -3 -42 -4
-43 -40 -46 l-38 -3 0 50 0 51 -40 0 -40 0 0 40 c0 39 -1 40 -35 40 -19 0 -35
-4 -35 -10 0 -17 -19 -11 -30 10 -8 16 -8 18 4 14 12 -4 16 5 18 43 3 44 5 48
31 51 16 2 27 8 24 15 -4 14 -266 191 -398 269 -179 106 -190 111 -183 94 4
-12 1 -14 -18 -10 -12 3 -48 5 -78 6 -30 0 -61 6 -69 12 -12 9 -13 8 -7 -2 7
-12 4 -12 -14 -2 -12 6 -31 10 -41 7 -10 -3 -17 -1 -14 3 5 8 -91 24 -110 19
-5 -2 -21 3 -35 11 -14 7 -26 12 -28 11 -8 -7 -71 13 -66 21 4 7 -6 8 -27 3
-25 -4 -30 -3 -19 4 16 12 10 14 -35 13 -11 0 -24 6 -30 14 -5 7 -35 15 -65
18 -30 3 -56 6 -57 7 -2 1 -11 2 -20 3 -10 1 -36 5 -58 9 -37 6 -91 12 -200
23 -22 3 -134 6 -248 9 -173 3 -213 7 -234 20 -14 10 -23 12 -19 7 8 -14 -15
-21 -34 -12 -8 5 -35 7 -60 6 l-45 -1 -32 74 c-47 108 -91 178 -151 236 l-53
53 33 5 c28 5 492 40 668 50 160 9 414 5 508 -8z m-1207 -68 c37 -32 81 -92
123 -168 36 -67 48 -101 21 -62 -15 22 -86 63 -109 63 -7 0 -30 11 -50 25 -21
14 -34 20 -30 13 4 -6 -8 0 -28 15 -71 54 -124 76 -175 72 -116 -9 -215 -7
-226 4 -6 6 -7 11 -1 12 5 0 101 11 214 23 113 13 212 24 220 25 8 0 27 -9 41
-22z m-1144 -9 c-3 -8 -6 -5 -6 6 -1 11 2 17 5 13 3 -3 4 -12 1 -19z m16 -25
c-7 -2 -19 -2 -25 0 -7 3 -2 5 12 5 14 0 19 -2 13 -5z m7734 -39 c-3 -3 -12
-4 -19 -1 -8 3 -5 6 6 6 11 1 17 -2 13 -5z m-7764 -54 c78 -49 127 -131 172
-287 21 -73 55 -262 55 -308 0 -17 -1 -17 -20 0 -11 10 -20 24 -20 31 0 7 -4
15 -9 18 -4 3 -6 -7 -4 -22 2 -15 -12 34 -32 108 -83 319 -138 412 -254 434
-110 20 -183 -65 -233 -271 -12 -51 -26 -93 -30 -93 -12 0 -10 12 13 108 28
115 62 188 107 236 77 80 173 98 255 46z m7414 -75 c1 -22 -1 -25 -6 -10 -3
11 -8 -34 -11 -100 l-6 -120 -2 150 c-2 126 0 146 11 130 7 -11 14 -33 14 -50z
m480 -1 c-3 -3 -12 -4 -19 -1 -8 3 -5 6 6 6 11 1 17 -2 13 -5z m-2849 -205
c405 -44 738 -82 740 -84 2 -2 1 -13 -3 -25 -6 -18 -12 -21 -38 -16 -18 3
-354 39 -747 81 -393 42 -722 80 -730 84 -8 5 -16 16 -18 25 -3 12 4 16 28 16
17 0 363 -36 768 -81z m2361 -424 c1 -187 5 -366 10 -397 5 -37 4 -61 -3 -68
-6 -6 -6 -10 0 -10 5 0 10 -21 10 -48 l1 -47 -13 55 c-28 115 -36 269 -28 595
4 176 11 307 14 290 4 -16 8 -183 9 -370z m-1206 300 c433 -48 1022 -114 1075
-121 37 -5 42 -8 42 -31 0 -23 -3 -25 -32 -19 -18 3 -339 39 -713 80 -808 89
-756 83 -761 89 -2 2 -2 12 2 21 8 22 16 21 387 -19z m-5102 -63 c-27 -2 -50
-10 -57 -20 -10 -14 -8 -20 14 -35 l27 -18 -25 5 c-14 3 -55 10 -92 16 -112
18 -119 24 -52 43 78 22 85 23 163 17 58 -4 60 -5 22 -8z m97 -9 c-10 -2 -26
-2 -35 0 -10 3 -2 5 17 5 19 0 27 -2 18 -5z m-131 -18 c0 -8 -4 -12 -9 -9 -5
3 -6 10 -3 15 9 13 12 11 12 -6z m4901 -129 c2 -2 -25 -124 -60 -270 l-63
-267 -3 203 c-2 112 0 236 3 277 l7 74 56 -7 c31 -4 58 -8 60 -10z m585 -60
c166 -19 392 -44 502 -55 110 -12 214 -23 231 -26 l31 -5 6 -173 c9 -298 31
-373 228 -762 79 -156 159 -344 159 -371 0 -6 -24 -30 -54 -53 -66 -51 -209
-199 -256 -265 l-35 -48 -5 146 c-3 101 -9 149 -17 154 -7 5 -95 20 -195 36
l-183 27 -175 -60 c-96 -32 -184 -63 -194 -67 -16 -6 -18 -4 -11 12 60 146
-31 334 -191 393 l-54 21 -138 -25 c-75 -14 -143 -27 -149 -30 -9 -3 -13 6
-13 27 0 41 60 453 120 833 28 170 50 313 50 317 0 12 17 11 343 -26z m-3074
-160 c44 -63 81 -119 81 -126 0 -7 12 -10 32 -8 30 3 33 1 38 -32 4 -24 40
-81 108 -172 l101 -137 -43 -6 c-78 -12 -86 -7 -151 92 -33 50 -62 92 -65 92
-3 1 -27 -55 -54 -123 l-49 -125 -52 -6 c-93 -12 -93 -18 -5 174 l80 173 -115
149 c-63 82 -115 153 -115 159 0 6 27 10 64 10 l64 0 81 -114z m-177 -17 c2
-22 2 -42 -1 -45 -2 -2 -29 -4 -60 -4 -87 0 -127 -15 -140 -52 -23 -65 -23
-65 103 -60 l114 4 4 -38 c3 -22 4 -40 3 -42 -2 -2 -53 -6 -114 -9 -121 -7
-124 -9 -96 -63 23 -45 47 -53 138 -45 89 7 97 3 97 -52 l0 -31 -76 -7 c-123
-12 -162 -4 -206 43 -49 53 -72 131 -72 242 1 159 44 195 235 199 l67 1 4 -41z
m-360 -20 c2 -22 2 -42 -1 -45 -2 -2 -32 -4 -65 -4 -85 0 -130 -15 -144 -46
-15 -31 -15 -146 -2 -195 18 -65 39 -74 151 -71 80 2 99 0 99 -11 0 -8 3 -28
6 -44 l6 -30 -106 -8 c-122 -8 -159 4 -207 65 -83 104 -73 338 17 396 25 17
104 30 195 33 l47 1 4 -41z m-2565 -201 c18 -117 35 -238 38 -268 10 -91 13
-97 46 -109 49 -17 83 -13 121 12 30 21 51 25 167 30 206 11 215 27 53 97
-105 46 -124 57 -77 45 17 -4 47 -9 67 -11 50 -5 223 -63 355 -120 159 -69
185 -74 378 -74 l171 0 17 -29 c9 -16 28 -39 42 -52 13 -13 25 -26 25 -29 0
-3 -132 -6 -293 -8 -303 -3 -676 -17 -857 -32 -71 -6 -109 -5 -117 2 -7 6 -27
36 -45 66 -18 31 -56 85 -86 120 -44 52 -51 66 -41 78 7 8 19 12 27 9 9 -3 12
0 9 7 -2 7 -22 111 -43 232 -37 213 -38 219 -19 232 10 8 21 14 25 14 3 0 20
-96 37 -212z m2156 -28 c59 -128 106 -234 104 -236 -1 -2 -21 -6 -44 -10 l-42
-6 -28 57 -28 57 -84 -5 c-46 -4 -86 -8 -88 -11 -3 -2 -10 -28 -17 -58 l-11
-53 -48 -3 c-33 -2 -47 1 -47 10 0 7 20 90 45 183 25 94 50 190 56 215 5 25
11 55 14 67 4 17 14 23 48 26 23 2 47 3 52 2 6 -1 58 -107 118 -235z m-443
172 c59 -59 63 -172 10 -227 l-30 -31 54 -89 c30 -50 52 -93 49 -97 -2 -5 -24
-8 -48 -8 l-43 0 -52 90 c-54 94 -55 95 -123 84 -28 -5 -36 -11 -33 -23 2 -9
7 -51 11 -93 l7 -78 -46 0 c-53 0 -48 -19 -71 235 -8 94 -18 189 -21 212 l-5
42 48 4 c26 2 97 4 156 5 107 2 109 2 137 -26z m-3240 -32 c-58 -21 -162 -72
-193 -95 -18 -13 -18 -14 2 -34 35 -35 8 -106 -49 -136 -65 -33 -117 37 -75
101 22 34 6 30 -47 -11 -101 -77 -195 -218 -234 -351 -14 -48 -17 -53 -35 -44
-24 13 -24 16 6 95 45 121 126 236 228 324 107 92 292 169 412 170 l40 0 -55
-19z m1167 -15 c29 -4 58 -14 65 -22 7 -9 13 -42 13 -79 0 -91 -6 -95 -133
-87 -117 7 -110 -2 -87 116 8 43 15 81 15 84 0 3 17 2 38 -1 20 -3 60 -8 89
-11z m5121 -285 c111 -61 200 -116 197 -121 -6 -8 -45 10 -45 22 0 3 -6 6 -13
6 -23 0 -367 195 -361 204 3 5 8 8 12 6 4 -3 98 -55 210 -117z m-967 3 c13
-16 12 -17 -3 -4 -17 13 -22 21 -14 21 2 0 10 -8 17 -17z m4997 -60 l-3 -78
-40 -7 c-22 -3 -179 -31 -350 -62 -543 -96 -942 -166 -954 -166 -17 0 -84 140
-69 144 7 3 240 43 518 91 278 48 586 101 685 120 99 18 188 33 198 34 16 1
18 -7 15 -76z m-9403 43 c68 -18 128 -50 177 -94 40 -36 42 -36 137 -40 53 -2
128 1 167 7 l69 11 48 -52 c26 -29 66 -83 87 -120 l38 -67 -41 -5 c-23 -3 -91
-10 -152 -16 -181 -17 -197 -20 -184 -36 6 -8 29 -19 51 -26 33 -10 37 -13 22
-19 -11 -4 -36 -8 -56 -8 -45 -1 -53 9 -99 129 -72 190 -169 291 -308 321 -28
6 -53 15 -57 20 -8 13 43 11 101 -5z m7906 -214 c58 -99 113 -224 166 -380 33
-97 36 -114 23 -122 -22 -14 -33 -8 -43 26 -21 65 -64 168 -137 324 -74 158
-130 298 -130 323 0 16 61 -70 121 -171z m-3410 151 c13 -16 12 -17 -3 -4 -17
13 -22 21 -14 21 2 0 10 -8 17 -17z m64 -53 c10 -11 16 -20 13 -20 -3 0 -13 9
-23 20 -10 11 -16 20 -13 20 3 0 13 -9 23 -20z m1100 -40 c-4 -6 -18 -4 -36 5
-16 9 -27 20 -24 25 4 6 18 4 36 -5 16 -9 27 -20 24 -25z m-919 -32 l29 -33
-32 29 c-31 28 -38 36 -30 36 2 0 16 -15 33 -32z m982 7 c2 -1 -4 -5 -13 -9
-11 -4 -14 -2 -9 6 5 8 2 9 -9 5 -17 -6 -31 5 -20 16 4 5 37 -6 51 -18z
m-3695 -26 c26 -1 44 -5 42 -10 -3 -4 11 -10 30 -13 19 -4 35 -12 35 -18 0 -5
6 -8 14 -5 7 3 24 -2 37 -11 13 -9 58 -22 99 -28 l75 -11 -148 -4 c-148 -4
-149 -4 -180 22 -30 25 -82 99 -60 86 6 -4 31 -8 56 -8z m3752 -20 c-4 -5 -14
-5 -26 1 -11 6 -17 15 -14 21 4 5 14 5 26 -1 11 -6 17 -15 14 -21z m-975 -14
c13 -14 21 -25 18 -25 -2 0 -15 11 -28 25 -13 14 -21 25 -18 25 2 0 15 -11 28
-25z m1038 -24 c3 -10 0 -10 -17 -2 -11 7 -21 16 -21 22 0 6 -5 7 -12 3 -7 -4
-8 -3 -4 5 6 9 13 9 29 -2 11 -7 23 -19 25 -26z m-983 -21 c10 -11 16 -20 13
-20 -3 0 -13 9 -23 20 -10 11 -16 20 -13 20 3 0 13 -9 23 -20z m-6529 -25 c-4
-14 -9 -45 -13 -70 -5 -43 -9 -47 -64 -76 -72 -39 -153 -123 -248 -257 -143
-203 -247 -280 -461 -344 -36 -10 -153 -41 -261 -67 -170 -42 -202 -48 -240
-40 -24 5 -100 18 -169 27 l-125 18 155 43 c266 73 403 119 465 156 79 48 160
128 253 250 121 160 163 206 226 247 71 46 212 92 355 118 140 24 134 25 127
-5z m6654 -82 c0 -8 -55 35 -80 63 -14 16 -2 9 28 -16 28 -24 52 -45 52 -47z
m-6540 62 c26 -13 28 -18 20 -47 -16 -58 -39 -240 -46 -355 -4 -62 -8 -113
-10 -113 -1 0 -14 4 -28 10 -25 9 -26 12 -26 102 0 156 33 418 51 418 6 0 23
-7 39 -15z m1140 -31 c-18 -21 -24 -10 -9 18 8 14 14 18 17 10 2 -7 -2 -19 -8
-28z m2465 26 c3 -5 1 -10 -4 -10 -6 0 -11 5 -11 10 0 6 2 10 4 10 3 0 8 -4
11 -10z m2856 -57 c13 -16 12 -17 -3 -4 -17 13 -22 21 -14 21 2 0 10 -8 17
-17z m110 -20 c13 -16 12 -17 -3 -4 -17 13 -22 21 -14 21 2 0 10 -8 17 -17z
m-70 -10 c13 -16 12 -17 -3 -4 -17 13 -22 21 -14 21 2 0 10 -8 17 -17z m-1801
-43 c388 -20 536 -37 612 -72 l47 -21 -24 -23 c-14 -13 -24 -26 -23 -29 2 -3
-13 -15 -32 -27 -37 -23 -38 -23 -84 -33 -16 -3 -34 -9 -39 -12 -17 -10 -160
-32 -247 -38 -101 -7 -148 -13 -161 -20 -5 -4 -9 -2 -9 3 0 6 -8 8 -17 6 -25
-5 -211 -13 -389 -17 -150 -4 -190 -11 -163 -28 10 -6 8 -9 -7 -9 -14 0 -24 8
-28 23 -10 41 -85 143 -165 225 l-79 82 306 0 c169 0 395 -5 502 -10z m-782
-46 c60 -53 134 -149 169 -217 13 -27 23 -50 21 -51 -3 -3 -281 28 -608 68
-304 37 -533 49 -755 41 -335 -11 -609 -47 -763 -99 -172 -59 -276 -136 -403
-301 -41 -53 -103 -133 -137 -177 -37 -46 -56 -78 -45 -74 40 16 1034 206
1076 206 4 0 6 -4 3 -8 -3 -5 8 -9 24 -9 21 0 30 5 30 16 0 13 2 14 9 2 9 -14
82 -18 102 -5 5 3 9 1 9 -3 0 -9 75 -8 116 1 12 2 45 7 75 11 81 10 105 14
133 25 15 5 26 7 26 4 0 -2 8 0 18 5 9 5 35 10 57 12 22 1 45 5 50 8 17 9 38
12 88 12 27 -1 66 3 88 8 25 6 37 5 33 -1 -4 -6 2 -8 14 -4 28 9 187 14 537
17 159 2 298 5 307 7 10 2 15 9 11 16 -4 6 19 -17 50 -50 54 -59 138 -112 234
-150 37 -14 35 -14 -52 -9 -49 3 -179 15 -289 25 -730 72 -1984 -60 -2826
-297 -144 -40 -165 -53 -127 -77 29 -20 93 -32 624 -122 l403 -69 -78 -20
c-100 -27 -131 -44 -180 -100 -65 -75 -74 -111 -79 -342 -4 -142 -9 -203 -17
-203 -6 0 -21 -3 -32 -6 -18 -5 -24 0 -34 33 -23 72 -73 153 -122 199 -60 56
-130 89 -244 114 -75 16 -610 110 -866 151 -67 11 -78 16 -78 33 0 28 136 159
230 221 41 27 113 69 160 92 46 24 77 43 68 43 -9 0 -90 -13 -180 -30 -262
-48 -770 -111 -784 -97 -5 5 12 86 19 94 3 2 97 15 209 29 380 45 543 74 762
135 76 22 164 52 195 66 87 41 193 154 282 301 178 296 308 357 969 451 336
48 1103 115 1366 120 l82 1 50 -46z m-6674 -4 c91 -22 182 -47 203 -56 l38
-16 -120 -34 c-162 -46 -275 -61 -351 -46 -61 13 -104 43 -104 73 0 40 101
119 152 119 9 0 91 -18 182 -40z m9789 -89 c96 -21 434 -45 476 -34 20 5 114
-32 130 -51 16 -19 -422 -2 -559 22 -117 21 -315 80 -360 107 l-25 15 30 -6
c17 -3 36 -7 43 -10 18 -5 15 17 -5 32 -10 7 25 -2 77 -20 52 -19 139 -43 193
-55z m1167 4 c14 -8 21 -14 16 -15 -5 0 -92 -14 -195 -31 -102 -17 -213 -31
-245 -32 -86 -3 -82 18 6 32 40 6 136 22 213 35 169 29 173 29 205 11z m-6352
-60 c-184 -64 -277 -144 -416 -354 -92 -141 -166 -232 -206 -253 -11 -6 -3 9
21 38 73 89 261 384 223 349 -23 -21 -76 -29 -86 -14 -3 5 -14 4 -26 -2 -13
-7 -18 -7 -14 -1 3 6 2 13 -4 17 -5 3 -10 2 -10 -4 0 -13 -110 -5 -124 9 -15
15 -47 12 -70 -7 -11 -10 -5 4 14 30 66 93 199 203 215 177 3 -6 14 -10 23
-10 24 -1 94 -35 86 -43 -4 -4 5 -22 20 -41 31 -41 31 -43 9 -70 -9 -12 6 2
35 31 93 93 166 134 282 158 95 19 103 16 28 -10z m-2854 -134 c-34 -32 -86
-70 -115 -84 -69 -33 -388 -130 -406 -123 -8 3 -12 2 -9 -2 6 -9 -123 -46
-132 -38 -3 4 1 6 10 6 8 0 15 6 15 14 0 10 -11 13 -39 11 -21 -2 -40 0 -42 4
-5 8 -60 6 -74 -3 -6 -3 -13 1 -16 10 -5 13 -9 14 -21 4 -8 -7 -15 -8 -15 -3
0 5 -9 9 -20 10 -11 1 -18 -2 -15 -7 3 -5 -9 -7 -27 -5 -17 3 -35 10 -39 16
-4 6 -11 9 -17 5 -6 -3 -13 0 -15 6 -3 8 -6 6 -6 -5 -1 -15 -9 -17 -61 -13
-33 2 -62 0 -65 -5 -3 -4 -12 -6 -20 -2 -8 3 -15 0 -15 -6 0 -6 5 -11 12 -11
6 0 9 -2 6 -5 -3 -3 -17 -1 -31 4 -17 7 -28 7 -32 1 -4 -6 -14 -10 -23 -10
-15 0 -15 2 -2 10 8 5 10 10 4 10 -7 0 -22 -9 -35 -19 -19 -15 -28 -17 -44 -9
-17 10 -64 12 -152 9 -12 -1 -23 -9 -25 -18 -2 -10 -11 9 -19 42 l-16 61 27
24 c15 14 29 30 31 37 5 13 442 73 714 98 177 16 599 42 720 43 l70 1 -61 -58z
m-2695 -84 c-23 -41 -24 -47 -22 -239 2 -190 1 -198 -18 -198 -18 0 -19 8 -19
185 0 197 7 234 52 282 31 34 35 19 7 -30z m3645 3 c33 -12 34 -40 2 -40 -17
0 -25 7 -28 25 -6 29 -7 28 26 15z m-2710 -112 c3 -18 11 -69 18 -113 l14 -80
-141 -1 c-96 -1 -176 -8 -254 -22 -63 -12 -116 -20 -118 -18 -9 9 143 137 199
166 58 31 238 99 265 100 7 0 14 -15 17 -32z m101 -24 c3 -30 15 -85 25 -122
10 -37 18 -68 16 -69 -1 -1 -12 0 -23 3 -17 5 -25 20 -37 73 -8 36 -18 90 -22
119 -6 48 -5 52 14 52 16 0 21 -9 27 -56z m2935 6 c376 -29 470 -41 470 -59 0
-4 -42 -11 -93 -14 -50 -3 -121 -15 -157 -26 -101 -31 -181 -42 -360 -48 -180
-6 -287 5 -327 34 -14 10 -39 26 -56 35 l-31 17 36 34 c31 29 79 53 114 56 6
1 188 -13 404 -29z m10864 3 c-9 -7 -21 -10 -25 -7 -5 3 -9 1 -9 -4 0 -5 -26
-28 -57 -52 l-58 -42 40 41 c21 23 45 41 52 41 7 0 13 6 13 14 0 16 16 24 43
23 17 -1 17 -2 1 -14z m-6769 -16 c182 -10 261 -16 285 -22 50 -11 207 -23
275 -20 39 1 74 0 79 -3 5 -3 36 -6 70 -7 33 -2 81 -6 106 -10 25 -4 73 -8
107 -9 35 0 63 -4 63 -8 0 -5 7 -8 16 -8 8 0 13 4 10 9 -3 4 7 6 22 4 15 -3
52 -7 82 -8 30 -2 55 -4 55 -5 0 -3 61 -8 120 -10 33 -1 71 -9 84 -17 15 -10
21 -11 16 -2 -6 8 -4 10 6 3 13 -8 54 -13 112 -15 15 0 27 -3 27 -7 0 -4 19
-7 43 -7 23 1 74 -5 112 -11 39 -7 78 -10 88 -8 10 1 15 -1 12 -7 -4 -5 -2 -9
4 -9 5 0 18 -3 28 -7 16 -6 17 -5 3 13 -14 18 -14 18 2 5 10 -7 27 -11 38 -8
11 3 18 1 14 -4 -6 -10 4 -12 57 -9 34 1 37 -1 55 -47 10 -26 20 -51 22 -55
10 -21 -244 -58 -398 -58 -61 0 -176 10 -275 25 -329 49 -772 105 -915 116
-167 13 -265 35 -366 83 -72 34 -146 92 -166 130 -9 18 -9 19 3 9 8 -6 55 -13
104 -16z m6575 -40 c0 -2 -12 -14 -27 -28 l-28 -24 24 28 c23 25 31 32 31 24z
m-8423 -53 c-3 -3 -12 -4 -19 -1 -8 3 -5 6 6 6 11 1 17 -2 13 -5z m8392 -71
c-41 -43 -96 -106 -123 -140 -27 -35 -51 -63 -54 -63 -5 0 -3 2 47 68 18 23
28 42 22 42 -6 0 -11 9 -11 20 0 11 -4 20 -10 20 -5 0 -10 -5 -10 -12 0 -6 -3
-9 -6 -5 -3 3 -17 -6 -31 -21 -17 -18 -15 -14 5 13 17 22 56 65 87 95 45 45
57 52 65 40 5 -8 10 -18 10 -22 0 -11 -23 -5 -32 7 -5 6 -8 3 -8 -6 0 -20 46
-31 60 -14 5 6 6 16 2 20 -4 5 -2 5 4 2 6 -4 19 2 29 13 10 11 20 20 23 20 3
0 -29 -35 -69 -77z m-12689 25 c-74 -33 -84 -36 -104 -29 -13 5 2 13 55 28 93
27 106 27 49 1z m-483 -24 c2 -6 -51 -25 -118 -43 -211 -55 -274 -84 -351
-161 l-67 -66 24 46 c28 55 82 105 141 132 51 22 345 108 358 104 6 -1 11 -7
13 -12z m8711 -18 c36 -5 59 -3 68 5 12 9 14 6 14 -20 0 -34 -26 -66 -66 -81
-49 -19 -55 -13 -90 83 -12 34 -12 37 4 28 9 -4 41 -11 70 -15z m-8424 -16
c-10 -10 -152 -41 -182 -39 -20 1 144 47 173 48 13 1 16 -2 9 -9z m-761 -36
l37 -7 -50 -48 c-61 -58 -96 -129 -80 -159 18 -34 81 -43 250 -37 146 5 296
25 367 48 41 13 60 36 45 51 -15 15 -15 68 -1 68 7 0 224 -42 483 -94 839
-167 826 -165 1174 -166 116 0 212 -2 212 -5 0 -3 -9 -23 -20 -44 -19 -38 -21
-39 -87 -46 -37 -3 -264 -5 -503 -4 -491 3 -435 8 -1100 -87 -767 -109 -1324
-197 -1710 -270 -744 -140 -1343 -347 -2047 -709 l-221 -114 -7 27 c-12 48
-36 73 -98 102 -100 47 -497 156 -797 220 -80 17 -158 34 -173 38 -27 7 -20
12 116 94 156 95 359 210 362 206 1 -2 7 -84 13 -182 6 -99 16 -184 22 -190 7
-7 60 14 172 69 90 43 166 82 170 85 4 3 -14 85 -40 183 l-48 176 90 40 c228
100 536 205 811 276 131 34 138 35 183 20 26 -8 252 -60 502 -115 250 -55 481
-108 513 -117 66 -18 88 -11 33 12 -50 21 -597 145 -993 226 -34 7 -61 14 -60
16 12 12 1158 245 1166 237 3 -3 -1 -19 -7 -37 -7 -19 -12 -50 -12 -70 0 -20
-5 -47 -11 -60 -23 -51 33 -91 93 -66 l29 12 -7 76 c-4 42 -10 80 -15 85 -5 6
-9 25 -9 43 0 26 5 34 23 38 29 7 269 55 274 55 2 0 1 -54 -3 -120 l-7 -119
27 -11 c31 -11 72 -4 78 13 5 14 -6 215 -13 237 -3 11 24 19 124 39 70 13 129
22 130 20 2 -2 -1 -52 -6 -111 -11 -122 -6 -138 48 -138 51 0 55 12 45 145 -4
66 -7 121 -6 122 0 1 66 13 146 26 143 25 313 34 393 21z m13839 -27 c-18 -18
-32 -37 -32 -41 0 -5 -19 -27 -42 -50 -24 -22 -42 -44 -40 -48 1 -5 -2 -7 -7
-5 -4 1 -18 -9 -31 -23 -21 -25 -21 -25 1 10 23 35 168 190 178 190 3 0 -9
-15 -27 -33z m-332 -27 c0 -5 -5 -10 -11 -10 -5 0 -7 5 -4 10 3 6 8 10 11 10
2 0 4 -4 4 -10z m-50 -109 c-5 -11 -15 -23 -21 -27 -6 -3 -3 5 6 20 20 30 30
35 15 7z m-2452 -18 c-10 -2 -26 -2 -35 0 -10 3 -2 5 17 5 19 0 27 -2 18 -5z
m137 -3 c4 -6 -12 -9 -42 -9 -47 2 -47 2 -13 9 19 4 38 8 42 9 4 0 10 -3 13
-9z m83 -17 c-10 -2 -28 -2 -40 0 -13 2 -5 4 17 4 22 1 32 -1 23 -4z m282 -14
c0 -6 9 -9 20 -6 11 3 22 2 24 -2 3 -4 -10 -8 -28 -9 -23 -2 -36 3 -40 13 -3
9 0 15 9 15 8 0 15 -5 15 -11z m1894 -36 c-15 -27 -32 -52 -37 -58 -11 -12 19
49 41 83 26 40 23 23 -4 -25z m-1780 31 c29 -11 17 -24 -21 -23 -29 1 -32 3
-13 7 23 4 24 5 5 13 -16 6 -17 8 -3 8 9 1 23 -2 32 -5z m-9078 -85 c-19 -82
-37 -124 -75 -176 -30 -42 -71 -73 -71 -54 0 5 11 23 25 39 40 47 73 122 86
196 9 48 15 63 20 50 7 -17 9 -17 15 6 15 49 15 1 0 -61z m7561 45 c-3 -3 -12
-4 -19 -1 -8 3 -5 6 6 6 11 1 17 -2 13 -5z m-2497 -38 c85 -9 259 -30 385 -46
824 -105 908 -109 1197 -61 102 17 198 31 212 31 38 0 115 -107 151 -210 l14
-39 -94 -21 c-52 -12 -100 -18 -106 -14 -8 4 -9 3 -5 -4 5 -8 0 -12 -13 -12
-18 0 -20 3 -9 19 7 11 14 19 17 19 4 0 15 0 26 1 17 1 18 3 5 11 -8 5 -10 10
-5 10 6 0 2 5 -8 11 -14 8 -15 14 -7 24 23 28 -62 23 -94 -6 -5 -4 -19 -4 -31
1 -29 11 -67 2 -58 -14 4 -6 0 -5 -9 2 -11 9 -18 10 -23 2 -8 -13 -35 -13 -35
0 0 5 6 7 14 4 8 -3 17 0 21 5 3 6 11 9 16 6 5 -4 9 -1 9 6 0 7 -10 9 -24 7
-19 -4 -23 -1 -19 11 3 12 2 12 -7 -2 -6 -9 -16 -15 -21 -12 -5 4 -7 11 -4 16
4 5 1 9 -4 9 -6 0 -11 -5 -11 -11 0 -11 -27 -9 -90 6 -17 5 -21 4 -11 -3 8 -6
9 -12 3 -16 -13 -8 -27 12 -27 38 0 22 13 20 -208 36 -87 7 -161 10 -164 6 -3
-3 0 -13 8 -23 8 -9 9 -14 4 -11 -6 4 -17 3 -25 -3 -12 -7 -11 -9 4 -9 18 0
18 -1 2 -19 -10 -11 -31 -25 -47 -31 -16 -7 -27 -16 -24 -20 3 -4 -2 -13 -9
-19 -10 -9 -16 -9 -21 -1 -4 6 -3 9 2 8 4 -2 9 0 11 5 1 4 0 7 -3 7 -34 0 -48
-3 -37 -7 19 -8 14 -20 -12 -27 -13 -3 -27 -13 -30 -22 -5 -14 -4 -15 9 -4 13
10 18 11 28 1 7 -7 8 -12 2 -11 -20 4 -26 0 -18 -12 4 -7 8 -17 8 -23 0 -5 29
-11 65 -13 112 -4 90 -10 -40 -11 -69 -1 -238 9 -375 20 -294 25 -718 30 -925
10 -348 -32 -996 -137 -1529 -246 -68 -14 -125 -24 -127 -22 -1 1 -4 118 -6
259 l-3 256 230 46 c268 52 593 100 785 116 74 6 155 12 180 14 116 10 765 -4
910 -18z m2580 14 c18 -12 2 -12 -25 0 -13 6 -15 9 -5 9 8 0 22 -4 30 -9z
m1325 -20 c-27 -7 -27 -8 -6 -9 13 0 22 -3 19 -6 -3 -3 -32 -2 -64 2 l-59 8
45 6 c25 3 56 6 70 6 22 1 21 0 -5 -7z m-152 -17 c-7 -2 -19 -2 -25 0 -7 3 -2
5 12 5 14 0 19 -2 13 -5z m-96 -9 c-3 -3 -12 -4 -19 -1 -8 3 -5 6 6 6 11 1 17
-2 13 -5z m190 0 c-3 -3 -12 -4 -19 -1 -8 3 -5 6 6 6 11 1 17 -2 13 -5z m-281
-11 c-19 -3 -25 -7 -17 -12 17 -11 -222 -34 -262 -26 -21 4 -27 3 -19 -3 18
-12 -141 -24 -188 -14 -28 7 -10 10 91 20 69 7 134 10 143 6 10 -4 21 -2 25 3
6 10 160 30 226 30 l30 0 -29 -4z m177 0 c-7 -2 -19 -2 -25 0 -7 3 -2 5 12 5
14 0 19 -2 13 -5z m-100 -10 c-7 -2 -21 -2 -30 0 -10 3 -4 5 12 5 17 0 24 -2
18 -5z m3142 -8 c174 -46 309 -217 375 -477 138 -540 -36 -1231 -376 -1486
-102 -77 -158 -97 -274 -97 -88 0 -101 3 -162 33 -337 166 -469 830 -278 1404
111 333 304 564 523 623 69 18 120 18 192 0z m-4575 -11 l65 -6 42 -64 41 -63
-34 27 c-39 31 -105 39 -97 12 3 -10 0 -9 -11 4 -15 18 -16 18 -16 2 0 -9 -4
-15 -9 -11 -5 3 -12 1 -15 -4 -3 -5 -15 -7 -26 -4 -16 4 -19 2 -14 -13 5 -15
4 -16 -5 -4 -10 15 -111 22 -111 8 0 -4 8 -8 18 -8 14 0 15 -2 2 -10 -18 -12
-33 -13 -26 -2 2 4 1 14 -5 22 -6 10 -9 11 -9 3 0 -7 -8 -13 -17 -14 -14 0
-15 -2 -3 -6 8 -4 20 -13 26 -21 6 -9 18 -13 28 -9 14 5 15 3 6 -12 -9 -18 -6
-19 40 -16 28 2 53 -1 56 -7 4 -5 29 -7 58 -4 28 3 -3 -6 -69 -19 -122 -25
-145 -26 -145 -3 0 22 -57 131 -94 179 l-36 46 87 2 c48 1 90 4 93 7 2 3 30 3
60 0 30 -3 84 -8 120 -12z m-13562 -21 c-10 -2 -28 -2 -40 0 -13 2 -5 4 17 4
22 1 32 -1 23 -4z m-68 -8 c0 -2 -73 -27 -162 -56 -89 -28 -169 -53 -177 -57
-9 -3 -13 -2 -10 2 8 9 319 116 336 116 7 0 13 -2 13 -5z m14465 -5 c13 -6 1
-7 -35 -3 -30 3 -57 7 -59 9 -9 8 75 2 94 -6z m-110 -10 c13 -6 2 -7 -30 -3
-27 3 -52 7 -54 9 -9 8 65 2 84 -6z m-90 -10 c16 -7 12 -9 -20 -9 -22 0 -92
-7 -155 -16 -112 -15 -183 -15 -198 0 -4 4 14 6 41 4 26 -3 47 -1 47 2 0 3 46
11 103 16 134 13 158 13 182 3z m-375 -40 c11 -7 4 -10 -27 -10 -24 0 -43 5
-43 10 0 13 50 13 70 0z m-4640 -24 c0 -9 -53 -27 -172 -56 -350 -86 -413
-117 -465 -224 -14 -28 -22 -40 -19 -27 5 23 4 23 -12 5 -26 -29 -64 -123 -72
-179 -5 -37 -8 -15 -9 83 -1 123 1 136 24 181 25 51 70 95 107 107 51 16 555
122 586 123 21 1 32 -4 32 -13z m6100 -7 c-14 -6 -37 -22 -52 -36 -29 -28 -33
-27 -22 2 7 18 58 44 84 44 8 0 4 -5 -10 -10z m-2900 -9 c0 -5 -2 -10 -4 -10
-3 0 -8 5 -11 10 -3 6 -1 10 4 10 6 0 11 -4 11 -10z m80 -11 c0 -4 -5 -11 -12
-15 -6 -4 -8 -3 -4 4 4 7 -1 10 -14 9 -11 -1 -20 -7 -20 -14 0 -6 -4 -14 -9
-18 -12 -7 -10 38 2 46 11 8 57 -1 57 -12z m987 15 c-3 -3 -12 -4 -19 -1 -8 3
-5 6 6 6 11 1 17 -2 13 -5z m16 -36 c-2 -5 -15 -8 -29 -8 -14 0 -23 4 -20 9 3
5 17 8 30 7 13 0 22 -4 19 -8z m278 -5 c13 -16 12 -17 -3 -4 -17 13 -22 21
-14 21 2 0 10 -8 17 -17z m-1365 -8 c-1 -8 -8 -21 -16 -28 -7 -6 -11 -7 -8 -2
3 6 8 18 11 28 8 21 16 23 13 2z m-36 -15 c0 -5 -5 -10 -11 -10 -5 0 -7 5 -4
10 3 6 8 10 11 10 2 0 4 -4 4 -10z m1338 3 c-10 -2 -28 -2 -40 0 -13 2 -5 4
17 4 22 1 32 -1 23 -4z m-628 -33 c0 -5 -5 -10 -11 -10 -5 0 -7 5 -4 10 3 6 8
10 11 10 2 0 4 -4 4 -10z m-7090 -32 c0 -2 -6 -23 -14 -48 -13 -44 -15 -45
-65 -55 -54 -11 -63 -19 -75 -69 l-7 -28 46 4 c25 2 45 0 45 -4 0 -4 -7 -25
-16 -47 -15 -38 -18 -40 -62 -43 -45 -3 -48 -5 -70 -50 -22 -47 -24 -48 -67
-48 l-45 0 15 36 c8 20 15 38 15 40 0 10 -68 3 -81 -8 -47 -40 -47 -41 37
-164 83 -122 85 -133 23 -134 -15 0 -39 -3 -55 -6 -27 -5 -32 -1 -74 70 -25
42 -48 76 -52 76 -5 0 -43 -45 -85 -99 -43 -55 -83 -101 -89 -104 -6 -3 -41
-8 -78 -12 l-67 -7 126 156 c100 125 123 160 116 174 -5 9 -43 64 -84 122 -41
58 -72 108 -68 111 3 4 33 10 67 13 l61 7 51 -71 c29 -38 59 -70 67 -70 9 0
24 19 35 45 16 37 28 49 63 64 39 17 45 24 55 64 10 38 16 45 43 51 17 3 42 6
54 6 22 0 22 -2 13 -40 -6 -23 -8 -43 -5 -47 3 -3 26 -2 50 1 43 7 45 9 56 51
9 37 16 46 39 51 15 3 32 7 37 9 12 4 45 6 45 3z m6280 -28 c0 -5 -7 -10 -16
-10 -8 0 -12 5 -9 10 3 6 10 10 16 10 5 0 9 -4 9 -10z m-12390 -10 c-8 -5 -19
-10 -25 -10 -5 0 -3 5 5 10 8 5 20 10 25 10 6 0 3 -5 -5 -10z m12864 -27 c-27
-108 -26 -107 -79 -116 -63 -11 -73 -19 -81 -73 -7 -52 -25 -74 -59 -74 -52 0
-71 -16 -87 -75 l-16 -56 42 6 c62 11 73 20 91 80 12 42 21 56 38 59 60 12 87
15 90 8 3 -4 -3 -32 -12 -62 l-17 -55 -49 -8 c-71 -12 -78 -18 -96 -77 -10
-33 -23 -57 -35 -61 -18 -7 -94 -12 -94 -6 0 1 7 24 15 51 8 27 15 52 15 56 0
4 -19 4 -42 -1 -24 -4 -46 -8 -49 -9 -3 0 -15 -17 -26 -37 l-21 -38 89 -158
c49 -88 89 -160 89 -162 0 -5 -135 -35 -154 -35 -10 0 -36 40 -69 107 l-54
107 -54 -78 c-30 -44 -81 -117 -114 -165 l-60 -85 -83 -19 c-46 -10 -86 -17
-88 -14 -3 2 60 99 139 213 79 115 151 221 161 236 17 25 16 28 -5 69 -12 24
-57 101 -100 171 -43 71 -77 128 -76 128 1 0 39 6 84 14 97 15 87 22 158 -101
26 -46 50 -83 54 -83 20 0 40 30 51 77 13 56 21 66 60 78 38 11 60 35 60 65 0
49 12 90 29 99 9 5 38 12 65 16 l49 7 -6 -34 c-3 -18 -9 -50 -13 -72 l-7 -38
32 6 c17 3 44 9 60 12 26 5 30 10 36 52 12 90 22 100 103 101 41 1 42 0 36
-26z m346 17 c0 -5 -8 -10 -17 -10 -15 0 -16 2 -3 10 19 12 20 12 20 0z m-847
-15 c-3 -9 -8 -14 -10 -11 -3 3 -2 9 2 15 9 16 15 13 8 -4z m2802 -55 c-3 -5
-12 -10 -18 -10 -7 0 -6 4 3 10 19 12 23 12 15 0z m-40 -20 c-3 -5 -12 -10
-18 -10 -7 0 -6 4 3 10 19 12 23 12 15 0z m-15028 -117 c-2 -16 -4 -5 -4 22 0
28 2 40 4 28 2 -13 2 -35 0 -50z m5264 20 l-6 -38 -97 -12 c-54 -7 -106 -17
-116 -22 -18 -10 -58 -78 -50 -86 2 -2 56 3 121 12 65 8 121 13 123 10 3 -3 2
-21 -1 -40 l-7 -35 -121 -13 c-116 -13 -122 -15 -125 -37 -2 -13 4 -32 14 -43
19 -21 73 -24 172 -10 l52 7 0 -37 c0 -33 -3 -37 -32 -43 -72 -15 -224 -19
-247 -7 -39 21 -61 70 -61 137 0 115 47 216 116 249 38 18 167 42 235 44 l36
1 -6 -37z m-405 -81 c-3 -3 -48 -11 -100 -18 -52 -7 -104 -19 -114 -25 -32
-20 -54 -67 -59 -129 -11 -120 8 -135 146 -116 50 7 93 11 95 9 1 -2 0 -20 -3
-41 l-6 -37 -90 -13 c-131 -18 -182 -12 -216 26 -71 80 -32 286 68 356 34 24
61 31 160 45 l118 17 3 -34 c2 -19 1 -36 -2 -40z m9954 67 c0 -6 -10 -28 -21
-49 -21 -37 -26 -39 -93 -50 -116 -19 -431 -88 -574 -125 -355 -93 -612 -199
-785 -322 -27 -19 -51 -33 -53 -30 -2 2 10 38 27 80 31 76 32 77 108 121 190
111 580 230 1116 340 232 47 275 53 275 35z m335 -9 c-3 -5 -26 -10 -51 -10
-24 0 -44 5 -44 10 0 6 23 10 51 10 31 0 48 -4 44 -10z m-10763 -258 c37 -108
65 -198 63 -201 -3 -2 -26 -6 -53 -9 l-49 -4 -13 47 c-13 45 -14 46 -44 41
-17 -3 -59 -8 -94 -12 l-64 -7 -25 -52 c-25 -50 -28 -53 -72 -58 -25 -3 -48
-4 -49 -2 -4 4 206 425 218 438 8 9 102 26 110 20 2 -2 35 -93 72 -201z
m-4375 111 c-2 -16 -4 -5 -4 22 0 28 2 40 4 28 2 -13 2 -35 0 -50z m11901 15
l-3 -53 -50 -12 c-27 -6 -83 -17 -123 -23 -88 -14 -132 -47 -156 -115 -8 -25
-14 -45 -13 -45 1 0 72 13 157 29 85 16 156 28 158 26 2 -2 0 -27 -5 -57 l-8
-53 -150 -25 c-83 -14 -156 -29 -164 -34 -18 -12 -8 -86 15 -103 24 -17 70
-16 182 6 l92 18 -6 -51 c-4 -28 -9 -54 -13 -57 -9 -9 -234 -49 -277 -49 -51
0 -102 32 -120 75 -31 74 -10 255 42 356 64 127 111 157 300 193 71 13 133 25
137 25 4 1 7 -23 5 -51z m-7978 7 c38 -20 55 -70 40 -124 -12 -45 -63 -111
-86 -111 -22 0 -17 -15 26 -91 22 -39 40 -73 40 -75 0 -2 -26 -4 -58 -4 l-58
0 -34 70 c-36 74 -41 77 -109 64 -25 -5 -31 -12 -36 -40 -18 -115 -11 -104
-64 -104 l-47 0 23 183 c12 100 24 189 25 197 2 11 34 19 128 31 163 21 176
22 210 4z m7480 -64 c0 -16 -3 -42 -6 -58 -6 -29 -8 -30 -119 -50 -143 -27
-178 -43 -212 -100 -51 -87 -70 -240 -35 -283 23 -28 69 -29 202 -1 52 11 96
18 98 16 2 -2 -1 -28 -8 -58 -13 -63 3 -56 -182 -87 -141 -23 -187 -19 -225
22 -35 39 -43 64 -43 140 1 190 81 347 211 414 36 18 226 63 312 73 4 1 7 -12
7 -28z m-11393 -73 c-2 -13 -4 -3 -4 22 0 25 2 35 4 23 2 -13 2 -33 0 -45z
m10738 -310 c43 -176 66 -281 60 -287 -6 -5 -38 -13 -72 -16 l-61 -7 -14 63
c-10 43 -20 64 -29 63 -8 0 -67 -9 -132 -19 l-118 -17 -34 -69 c-19 -37 -43
-72 -52 -77 -10 -6 -47 -13 -82 -17 l-64 -7 20 33 c95 160 135 230 232 404 61
110 115 203 119 207 11 11 91 27 127 25 l30 -2 70 -277z m-2268 140 c-2 -18
-4 -6 -4 27 0 33 2 48 4 33 2 -15 2 -42 0 -60z m-8922 32 c284 -62 807 -203
813 -219 1 -5 14 -6 27 -3 18 3 33 -4 54 -25 35 -35 58 -104 39 -116 -7 -4
-114 -67 -238 -139 -124 -72 -355 -212 -514 -312 -307 -193 -354 -220 -431
-250 -27 -11 -69 -39 -93 -63 -24 -24 -206 -152 -405 -285 -455 -303 -1062
-713 -1642 -1108 -247 -169 -490 -334 -540 -366 -49 -32 -92 -60 -94 -61 -3
-2 9 -18 27 -36 46 -47 62 -104 62 -216 0 -85 -20 -473 -24 -478 -1 -1 -12 1
-25 4 -22 6 -23 9 -17 62 3 31 6 151 7 266 2 230 -4 260 -59 319 -69 73 -148
74 -355 6 -195 -63 -301 -89 -407 -96 -153 -12 -305 31 -375 105 -26 28 -30
39 -28 80 5 110 83 240 202 335 91 73 560 403 1081 761 239 164 512 351 605
415 413 284 928 632 1400 946 692 461 758 503 776 504 8 0 78 -14 154 -30z
m10579 16 c49 -20 66 -51 66 -116 0 -79 -39 -154 -102 -197 -26 -17 -53 -33
-60 -35 -8 -3 4 -41 36 -117 26 -62 46 -114 44 -116 -6 -6 -142 -24 -146 -20
-3 2 -22 48 -44 102 -21 53 -43 100 -48 103 -11 7 -138 -5 -146 -13 -3 -2 -18
-53 -34 -112 -16 -59 -32 -110 -35 -113 -6 -7 -128 -22 -133 -17 -3 3 137 608
141 611 5 3 367 52 395 53 18 0 48 -5 66 -13z m-1607 -93 c-2 -21 -4 -6 -4 32
0 39 2 55 4 38 2 -18 2 -50 0 -70z m-6917 -35 c64 -122 59 -118 161 -118 89 0
91 -1 122 -32 l32 -33 -90 -7 c-49 -4 -96 -9 -103 -10 -7 -2 26 -63 84 -153
53 -82 103 -161 111 -174 10 -15 11 -21 2 -16 -9 6 -11 2 -6 -15 5 -20 4 -21
-8 -9 -15 15 -231 335 -239 353 -3 7 -13 2 -25 -12 l-21 -24 -10 27 c-12 32
-13 55 -1 73 5 9 -4 42 -25 90 -54 124 -42 170 16 60z m11655 -5 c-31 -82 -43
-101 -118 -189 -32 -38 -97 -125 -145 -194 -123 -179 -199 -278 -257 -334
-163 -160 -590 -358 -1070 -495 -669 -191 -1332 -288 -2125 -310 -157 -5 -288
-7 -291 -5 -6 3 15 132 24 140 2 2 132 9 288 14 396 13 710 39 1069 91 940
133 1867 446 2104 710 50 55 116 143 242 319 81 114 271 320 294 320 5 0 -2
-30 -15 -67z m-4788 0 c-3 -10 -5 -2 -5 17 0 19 2 27 5 18 2 -10 2 -26 0 -35z
m40 -55 c-3 -7 -5 -2 -5 12 0 14 2 19 5 13 2 -7 2 -19 0 -25z m0 -275 c-1 -49
-3 -9 -3 87 0 96 2 136 3 88 2 -49 2 -127 0 -175z m-50 -530 c-1 -142 -2 -26
-2 257 0 283 1 399 2 258 2 -142 2 -374 0 -515z m-9696 684 c-5 -5 -17 -5 -28
2 -16 9 -15 10 9 9 16 -2 24 -6 19 -11z m13331 -184 c32 -29 18 -116 -25 -151
-12 -11 -12 -20 1 -67 8 -30 13 -57 11 -59 -2 -2 -15 -6 -28 -8 -21 -3 -26 3
-38 47 -18 60 -16 58 -42 50 -16 -5 -22 -18 -27 -54 -7 -58 -12 -66 -41 -75
-19 -6 -23 -4 -23 15 0 35 40 262 49 279 5 8 32 20 62 26 75 16 80 16 101 -3z
m-268 -170 c10 -76 19 -142 20 -147 0 -5 -11 -13 -26 -17 -24 -6 -28 -4 -33
23 -6 27 -10 30 -37 24 -17 -3 -37 -6 -44 -6 -8 0 -20 -16 -28 -35 -13 -31
-57 -57 -72 -43 -5 6 131 305 148 326 6 6 20 12 32 12 21 0 23 -8 40 -137z
m-224 70 c28 -36 23 -67 -12 -71 -19 -2 -28 1 -28 11 0 26 -25 38 -53 28 -36
-14 -59 -64 -65 -142 -4 -55 -2 -67 12 -72 25 -10 65 10 77 37 10 22 56 42 69
30 10 -11 -37 -80 -69 -101 -33 -23 -94 -31 -117 -15 -51 34 -41 181 19 266
41 58 131 74 167 29z m-13732 -29 c22 -11 22 -11 -9 -18 -17 -3 -36 -3 -42 1
-6 3 -7 1 -3 -5 4 -7 3 -12 -2 -12 -5 0 -25 -11 -45 -24 -25 -17 -34 -20 -30
-9 5 13 -3 14 -52 9 -36 -3 -64 -1 -72 6 -7 6 -13 6 -13 1 0 -11 -36 -11 -46
0 -4 4 -19 4 -33 1 -17 -4 -23 -3 -16 3 11 11 58 24 175 47 126 26 139 26 188
0z m160 9 c-10 -2 -28 -2 -40 0 -13 2 -5 4 17 4 22 1 32 -1 23 -4z m-91 -9
c-3 -3 -12 -4 -19 -1 -8 3 -5 6 6 6 11 1 17 -2 13 -5z m13341 -16 c-77 -121
-117 -200 -128 -250 -10 -49 -15 -59 -36 -64 -14 -4 -27 -4 -29 -2 -3 2 1 30
7 61 11 49 10 66 -6 125 -32 112 -32 119 -2 124 32 6 30 8 46 -65 l13 -57 30
52 c53 95 55 98 88 98 30 0 31 -1 17 -22z m-240 -40 c-2 -18 -13 -25 -48 -34
l-45 -11 -25 -128 c-24 -122 -27 -129 -53 -138 -16 -5 -30 -7 -32 -6 -1 2 8
54 21 114 32 149 32 147 -13 143 -35 -2 -38 -1 -35 22 2 14 5 26 6 27 4 4 170
31 199 32 24 1 28 -3 25 -21z m-6293 -5 c-16 -3 -41 -12 -55 -22 -14 -9 -44
-25 -68 -36 -23 -10 -47 -24 -53 -31 -6 -8 -15 -11 -20 -9 -4 3 -25 -3 -46
-14 -21 -10 -40 -19 -43 -18 -13 1 -56 -17 -70 -28 -8 -7 -27 -15 -42 -19 -16
-4 -28 -13 -28 -22 0 -14 -3 -14 -15 -4 -9 7 -15 8 -15 2 0 -5 -16 -26 -35
-45 -19 -19 -35 -33 -35 -30 0 2 -7 -2 -15 -11 -8 -8 -15 -21 -15 -28 0 -10
-3 -9 -10 2 -9 13 -10 13 -10 0 0 -9 -12 -23 -27 -32 -16 -9 -48 -35 -73 -57
-25 -23 -70 -58 -99 -78 -64 -44 -91 -69 -91 -83 0 -5 -6 -10 -14 -10 -7 0
-22 -12 -32 -27 -10 -14 -27 -34 -36 -45 -10 -10 -15 -18 -11 -18 4 0 -1 -6
-12 -13 -10 -8 -15 -19 -11 -25 4 -7 2 -12 -3 -12 -6 0 -11 -5 -11 -10 0 -15
-43 -105 -52 -108 -4 -2 -8 -9 -8 -16 0 -6 -9 -18 -20 -26 -11 -8 -20 -18 -20
-22 0 -10 -62 -67 -72 -68 -4 0 -20 -12 -35 -27 -15 -14 -21 -23 -13 -18 8 4
5 -2 -7 -14 -12 -11 -26 -21 -32 -21 -5 0 -11 -7 -15 -15 -3 -8 -12 -15 -20
-15 -8 0 -26 -19 -40 -42 -46 -73 -20 -4 59 157 147 302 371 572 606 730 206
139 475 235 649 233 32 -1 36 -2 15 -5z m-6803 -12 c48 -20 134 -43 156 -43
20 0 18 -4 -16 -29 l-39 -29 -84 20 c-180 44 -182 45 -104 74 49 18 58 19 87
7z m12848 -21 c0 -24 -21 -35 -84 -44 -53 -7 -66 -17 -66 -53 0 -26 12 -28 73
-14 37 9 38 9 35 -17 -3 -24 -9 -28 -61 -38 -32 -7 -60 -14 -63 -17 -3 -2 -8
-21 -11 -42 -5 -33 -4 -37 13 -32 49 14 114 18 114 7 0 -36 -20 -47 -110 -60
-50 -7 -92 -11 -95 -9 -3 4 48 259 61 300 3 12 24 20 72 27 109 15 122 15 122
-8z m4300 10 c0 -5 -5 -10 -11 -10 -5 0 -7 5 -4 10 3 6 8 10 11 10 2 0 4 -4 4
-10z m-13945 -142 c187 -66 464 -163 615 -215 151 -53 278 -99 282 -102 4 -3
3 -13 -2 -20 -9 -15 10 -22 -610 206 -405 148 -537 198 -614 230 -152 63 -15
22 329 -99z m2689 117 c-5 -11 1 -13 31 -8 30 5 37 3 33 -8 -3 -8 -11 -13 -17
-11 -6 1 -10 -2 -8 -6 1 -4 -29 -35 -68 -68 -38 -34 -119 -112 -180 -175 -97
-100 -118 -117 -46 -37 20 23 22 30 11 43 -7 8 -22 15 -33 15 -17 0 -7 14 48
71 56 57 221 199 232 199 1 0 0 -7 -3 -15z m6726 -14 c0 -28 -19 -38 -83 -46
-64 -8 -62 -7 -72 -53 l-7 -33 61 7 c49 5 61 4 61 -7 0 -28 -16 -38 -75 -46
l-60 -8 -16 -65 c-14 -58 -19 -65 -43 -68 -16 -2 -26 1 -26 10 0 19 61 292 66
297 4 5 140 27 177 30 10 1 17 -6 17 -18z m-327 -113 c4 -46 9 -113 13 -150
l7 -68 -32 0 c-27 0 -31 3 -31 28 0 29 0 29 -47 21 -27 -4 -53 -8 -59 -8 -6
-1 -18 -17 -27 -36 -14 -29 -22 -35 -48 -35 -30 0 -31 1 -17 23 8 12 33 54 55
92 129 224 122 215 152 215 28 0 28 0 34 -82z m-243 32 c31 -31 26 -60 -9 -60
-16 0 -31 6 -35 15 -14 36 -100 1 -94 -38 2 -15 15 -25 47 -34 59 -17 71 -29
71 -75 0 -50 -38 -91 -99 -108 -71 -19 -121 6 -121 61 0 28 56 27 63 -1 11
-42 97 -11 97 35 0 18 -8 26 -37 35 -65 21 -83 37 -83 74 0 43 39 92 83 105
54 16 96 12 117 -9z m5432 -130 c20 -44 34 -80 31 -80 -12 0 -204 61 -240 77
l-38 16 100 33 c55 17 102 32 105 33 3 0 22 -35 42 -79z m-6915 -258 c-1 -53
-3 -7 -3 103 0 110 2 154 3 97 2 -57 2 -147 0 -200z m-8974 108 c36 -17 107
-36 207 -57 14 -3 38 -6 54 -6 26 0 23 -3 -23 -23 -28 -13 -65 -33 -82 -45
l-30 -21 -77 22 c-42 12 -115 32 -162 45 -47 13 -96 28 -110 33 l-24 9 24 13
c29 16 136 48 163 49 9 1 36 -8 60 -19z m3987 -23 c0 -2 -10 -12 -22 -23 l-23
-19 19 23 c18 21 26 27 26 19z m3310 -173 c69 -58 161 -133 205 -166 43 -33
80 -66 81 -74 1 -8 -2 -12 -7 -8 -5 3 -7 10 -3 15 3 6 -1 9 -9 7 -20 -4 -109
61 -101 74 5 7 1 9 -8 5 -17 -6 -53 25 -42 36 6 5 -36 32 -46 29 -3 -1 -5 3
-5 9 0 14 -35 40 -46 34 -4 -3 -19 9 -33 26 -14 17 -26 27 -26 23 0 -4 -11 3
-25 16 -13 12 -22 27 -19 31 3 5 0 10 -5 10 -6 1 -14 2 -19 3 -19 3 -112 79
-106 87 7 13 69 -32 214 -157z m-3350 122 c0 -2 -8 -10 -17 -17 -16 -13 -17
-12 -4 4 13 16 21 21 21 13z m-76 -106 c-26 -38 -49 -70 -51 -70 -5 0 2 12 49
83 21 31 41 57 43 57 3 0 -16 -31 -41 -70z m-1708 -26 c237 -90 251 -96 204
-88 -34 6 -179 57 -210 73 -9 5 -30 12 -48 16 -18 3 -32 11 -32 16 0 5 -3 8
-7 7 -5 0 -25 6 -45 15 -21 10 -42 17 -47 17 -5 0 -13 5 -16 10 -3 6 -4 10 -2
10 2 0 93 -34 203 -76z m6761 -26 c-2 -13 -4 -5 -4 17 -1 22 1 32 4 23 2 -10
2 -28 0 -40z m-3463 -44 c275 -71 497 -303 605 -629 129 -391 95 -856 -89
-1240 -75 -155 -142 -248 -269 -375 -131 -130 -228 -194 -363 -240 -205 -71
-385 -65 -563 19 -359 169 -569 598 -552 1131 7 257 51 443 153 659 182 383
479 641 799 690 75 12 201 5 279 -15z m-1654 -4 c-6 -11 -13 -20 -16 -20 -2 0
0 9 6 20 6 11 13 20 16 20 2 0 0 -9 -6 -20z m4059 -5 c118 -9 373 -29 565 -45
193 -16 363 -30 379 -30 31 0 33 -11 16 -91 l-11 -52 -97 7 c-53 4 -256 20
-451 36 -195 16 -400 32 -455 36 -69 5 -112 13 -140 27 -41 20 -185 116 -185
123 0 8 176 3 379 -11z m1048 -72 c-3 -10 -5 -4 -5 12 0 17 2 24 5 18 2 -7 2
-21 0 -30z m-1287 -88 c0 -2 -6 -5 -13 -8 -8 -3 -14 1 -14 8 0 7 6 11 14 8 7
-3 13 -6 13 -8z m-5325 -84 c-6 -5 -27 -14 -47 -20 -45 -15 -88 -62 -114 -124
-10 -26 -22 -47 -26 -47 -10 0 20 76 48 122 17 27 37 42 76 57 59 22 77 26 63
12z m-8168 -47 c-3 -3 -12 -4 -19 -1 -8 3 -5 6 6 6 11 1 17 -2 13 -5z m-60
-10 c-3 -3 -12 -4 -19 -1 -8 3 -5 6 6 6 11 1 17 -2 13 -5z m2178 -474 c9 -58
18 -117 21 -131 5 -23 -3 -32 -79 -86 l-85 -61 -18 72 c-9 39 -25 95 -35 125
l-19 54 34 37 c37 41 104 137 132 190 l18 35 8 -65 c5 -36 15 -112 23 -170z
m5638 46 l59 -27 -7 -122 c-4 -67 -9 -124 -11 -126 -2 -2 -23 -6 -47 -8 -39
-5 -47 -2 -60 18 -16 24 -37 178 -37 263 0 52 -8 51 103 2z m-1293 -424 c28
-101 62 -162 125 -221 93 -88 202 -127 325 -118 90 7 487 82 723 137 94 22
174 37 177 33 4 -5 13 -42 20 -83 12 -69 46 -199 65 -244 7 -17 5 -18 -18 -12
-87 21 -581 88 -792 106 -455 39 -1096 62 -1393 49 -556 -22 -943 -140 -1275
-386 -97 -73 -117 -95 -117 -134 0 -51 19 -53 126 -11 445 177 706 190 1592
80 144 -18 262 -35 262 -39 0 -16 -54 -14 -200 7 -479 68 -883 90 -1156 63
-260 -26 -605 -147 -816 -286 -71 -47 -88 -67 -88 -103 0 -32 23 -34 107 -6
157 52 214 60 428 59 149 0 257 -7 424 -26 123 -15 226 -29 229 -31 2 -3 2
-11 -1 -19 -4 -11 -27 -11 -144 4 -237 30 -422 42 -598 37 -199 -6 -279 -24
-506 -113 -76 -30 -146 -55 -156 -55 -34 0 -303 54 -303 61 0 3 48 16 108 28
117 24 148 36 158 60 3 9 10 108 15 221 11 250 20 316 59 411 31 77 47 95 133
146 l52 32 105 -15 c145 -21 417 -14 555 16 315 67 578 208 820 441 41 39 71
60 95 64 l35 6 -3 -81 c-3 -67 0 -85 14 -101 23 -25 44 -24 225 10 414 78 487
109 525 224 l18 52 13 -94 c7 -51 22 -128 33 -169z m7988 137 c15 -38 123
-176 189 -243 32 -32 95 -88 141 -124 46 -35 81 -67 78 -69 -12 -13 -190 120
-277 207 -139 137 -198 240 -167 290 13 20 13 20 19 -7 4 -16 11 -40 17 -54z
m-12871 -48 c9 9 16 9 28 -1 12 -10 15 -10 15 1 0 10 3 10 11 2 6 -6 18 -9 25
-6 8 3 14 0 14 -7 0 -7 11 -9 30 -6 19 2 30 0 30 -7 0 -8 3 -7 9 1 4 8 11 13
14 12 4 -1 20 -5 37 -10 19 -5 30 -5 30 1 0 6 5 7 10 4 6 -4 8 -10 5 -15 -10
-16 20 -17 38 -2 15 14 17 13 17 -1 0 -18 -34 -40 -45 -29 -3 4 -5 2 -4 -3 2
-9 -142 -159 -146 -152 -17 29 -111 154 -170 227 l-78 95 59 -58 c46 -44 63
-54 71 -46z m-910 53 c35 -17 91 -60 151 -118 188 -178 291 -260 422 -334 l56
-31 44 29 c53 35 186 85 255 95 45 7 48 6 40 -11 -37 -86 -48 -135 -49 -215 0
-77 3 -92 32 -152 18 -36 50 -81 70 -98 20 -17 32 -29 27 -26 -6 3 -17 2 -25
-4 -8 -5 -10 -9 -5 -9 6 0 10 -13 10 -29 0 -16 -3 -27 -7 -24 -5 2 -9 -3 -9
-11 -5 -65 -2 -85 17 -117 13 -20 20 -40 17 -43 -4 -3 -1 -6 6 -6 9 0 9 -5 0
-21 -8 -15 -8 -19 0 -15 7 5 19 -11 31 -40 11 -26 23 -44 27 -40 3 3 27 -42
53 -102 26 -59 57 -124 70 -144 12 -21 19 -41 16 -46 -7 -12 65 -34 229 -72
151 -34 923 -163 935 -155 19 12 321 55 380 54 60 0 165 -26 114 -28 -19 -1
-103 -50 -132 -78 -7 -7 -17 -13 -22 -13 -4 0 -10 -7 -14 -15 -6 -16 39 -31
422 -142 285 -81 501 -131 614 -139 48 -4 165 -1 260 6 199 14 274 7 426 -41
83 -27 92 -32 92 -54 0 -31 0 -31 -88 -1 -151 52 -212 60 -382 50 -215 -12
-350 -9 -455 10 -151 28 -387 90 -670 176 -507 154 -556 166 -975 230 -625 96
-987 179 -1198 276 -113 52 -220 120 -442 283 -237 173 -290 204 -535 310
-244 106 -419 191 -485 236 -30 21 -107 88 -170 149 -123 119 -185 158 -286
179 -61 13 -71 33 -21 42 41 8 137 -23 206 -66 l50 -30 158 25 c359 58 601 86
649 76 84 -19 124 -63 124 -138 0 -44 -20 -67 -86 -101 -55 -27 -329 -106
-426 -122 -43 -7 -78 -16 -78 -21 0 -12 113 -67 371 -179 129 -56 256 -113
284 -126 46 -24 53 -25 100 -14 90 22 448 99 508 110 47 8 63 8 80 -3 15 -10
29 -11 44 -5 l23 8 -18 47 c-10 25 -40 75 -66 110 -38 51 -69 78 -154 133
-217 140 -280 189 -429 335 -84 82 -165 158 -180 168 -16 10 -52 23 -80 29
-54 12 -67 24 -35 32 36 10 55 6 109 -19z m6404 -171 c13 -16 12 -17 -3 -4
-10 7 -18 15 -18 17 0 8 8 3 21 -13z m-1361 -393 c-35 -9 -60 -33 -60 -59 0
-14 -1 -14 -10 -1 -8 12 -10 10 -10 -8 0 -13 4 -20 10 -17 6 3 10 1 10 -5 0
-6 -7 -13 -15 -16 -8 -4 -15 -12 -15 -19 0 -7 -7 -16 -16 -19 -14 -5 -14 -9
-3 -24 7 -9 10 -14 5 -10 -10 9 -40 -27 -50 -59 -6 -19 -4 -23 15 -23 12 0 20
-2 18 -5 -3 -2 -101 0 -219 6 -379 18 -617 -14 -925 -126 -34 -12 21 30 110
84 309 190 706 295 1160 308 29 1 29 1 -5 -7z m2474 -204 c-7 -18 -72 -26
-208 -26 -142 0 -351 -15 -486 -36 -58 -8 -314 -62 -570 -119 -256 -57 -643
-142 -860 -190 -217 -48 -465 -102 -550 -121 -130 -28 -159 -38 -177 -60 -13
-14 -23 -37 -23 -51 0 -18 -4 -24 -14 -20 -10 4 -16 -2 -19 -16 -2 -12 -5 3
-5 33 -1 30 4 66 11 80 14 28 -24 18 562 146 193 42 555 121 805 176 829 181
900 193 1250 207 309 12 290 13 284 -3z m-5369 -253 c-4 -98 -9 -180 -11 -182
-4 -4 -150 55 -254 103 l-65 30 68 15 c37 9 72 23 77 31 5 8 10 43 10 76 l0
62 73 20 c120 34 110 49 102 -155z m4881 71 c-3 -9 -9 -27 -12 -40 -5 -18 -17
-27 -52 -36 -41 -12 -48 -18 -57 -50 -12 -45 -16 -49 -57 -57 -27 -6 -34 -13
-44 -48 l-12 -42 31 6 c34 6 57 27 57 52 0 28 16 42 54 51 31 7 36 5 36 -10 0
-46 -19 -70 -59 -76 -35 -6 -42 -11 -52 -43 -14 -45 -17 -47 -57 -56 l-33 -7
7 37 7 38 -37 -7 c-36 -7 -37 -7 -30 21 11 47 23 61 55 68 31 7 53 42 47 76
-3 15 -7 15 -38 5 -30 -9 -36 -17 -46 -56 -10 -41 -15 -46 -57 -62 -26 -10
-47 -16 -47 -15 0 2 7 24 16 50 12 37 21 47 45 52 34 8 41 16 54 70 9 36 14
41 58 53 27 8 51 12 53 9 2 -2 -3 -20 -11 -40 -20 -48 -20 -47 18 -40 41 7 50
16 62 61 11 37 30 49 84 51 17 1 22 -3 17 -15z m-2386 -55 c177 -12 305 -26
253 -28 -17 0 -35 -6 -38 -11 -4 -6 -11 -8 -16 -5 -5 4 -12 0 -15 -9 -3 -8
-12 -12 -20 -9 -8 3 -23 -2 -33 -11 -10 -9 -21 -13 -24 -9 -4 3 -7 1 -7 -5 0
-5 -3 -18 -7 -28 -4 -12 -3 -15 5 -10 7 4 12 2 12 -4 0 -6 9 -14 21 -18 16 -6
2 -12 -58 -26 -43 -10 -94 -26 -115 -36 -20 -10 -39 -16 -42 -12 -10 9 -66 10
-66 0 0 -4 12 -8 27 -8 14 0 24 -2 21 -5 -3 -3 -88 4 -189 15 -232 27 -585 37
-699 21 -45 -7 -84 -10 -86 -8 -7 6 300 122 386 145 141 39 329 67 470 71 30
0 129 -4 220 -10z m1939 -169 c34 -49 64 -90 67 -90 3 0 14 5 25 11 20 10 20
9 6 -17 -14 -27 -12 -31 54 -127 38 -55 66 -103 64 -107 -3 -4 -21 -11 -41
-14 -19 -4 -41 -9 -48 -12 -8 -3 -31 22 -57 60 -24 36 -47 66 -50 66 -4 0 -37
-47 -75 -104 l-69 -105 -60 -15 c-33 -8 -60 -14 -61 -13 -1 1 45 71 102 156
57 85 100 159 97 165 -4 6 -38 55 -76 109 -38 54 -68 100 -66 101 4 3 93 22
115 25 6 0 39 -39 73 -89z m-1742 24 c-3 -3 -12 -4 -19 -1 -8 3 -5 6 6 6 11 1
17 -2 13 -5z m-3730 -46 c-3 -8 -6 -5 -6 6 -1 11 2 17 5 13 3 -3 4 -12 1 -19z
m5273 -12 c0 -38 1 -38 -95 -56 -94 -19 -127 -41 -140 -91 l-6 -26 111 25 c61
13 114 22 117 18 3 -3 2 -20 -3 -38 -8 -27 -16 -33 -49 -40 -180 -36 -185 -38
-185 -68 0 -56 16 -58 190 -24 29 6 30 5 30 -28 l0 -35 -101 -22 c-123 -28
-162 -23 -189 22 -41 66 -18 225 42 293 39 45 69 60 165 83 111 28 113 27 113
-13z m-360 -68 c0 -39 -14 -48 -94 -68 -96 -24 -112 -33 -132 -73 -22 -42 -31
-161 -14 -182 15 -19 57 -19 135 0 79 19 85 19 85 -7 0 -39 -15 -49 -96 -69
-148 -35 -205 -18 -224 64 -10 46 1 137 24 192 34 80 82 114 211 146 97 24
105 23 105 -3z m-429 -258 c32 -91 58 -172 58 -181 1 -10 -10 -19 -26 -23 -16
-4 -36 -9 -45 -12 -13 -4 -20 5 -29 36 -14 46 -15 46 -111 24 l-70 -16 -25
-54 c-22 -48 -28 -54 -66 -62 -23 -4 -43 -5 -45 -1 -2 4 9 31 24 61 15 29 60
125 100 213 66 147 75 161 105 172 66 24 67 22 130 -157z m-382 54 c12 -15 21
-41 21 -58 -1 -43 -33 -111 -64 -131 l-25 -17 34 -69 c19 -38 35 -71 35 -73 0
-5 -67 -26 -82 -26 -4 0 -23 31 -43 69 l-34 69 -43 -10 c-24 -5 -46 -12 -50
-16 -4 -4 -10 -41 -15 -82 l-8 -74 -39 -8 c-21 -5 -41 -7 -43 -5 -4 4 37 400
42 406 8 8 214 49 252 50 34 1 45 -4 62 -25z m-1474 -83 c255 -42 496 -78 745
-109 50 -6 55 -9 58 -34 3 -25 1 -27 -30 -22 -353 48 -643 93 -853 131 -381
68 -499 66 -645 -14 -36 -20 -40 -21 -20 -4 44 36 143 84 200 98 87 20 221 9
545 -46z m-105 -89 c346 -64 812 -132 898 -132 6 0 12 -7 12 -16 0 -15 -10
-16 -87 -10 -142 11 -475 55 -663 87 -239 41 -571 107 -595 119 -48 24 177 -1
435 -48z m2959 -52 c1 -14 -5 -39 -14 -57 -14 -26 -15 -37 -6 -63 6 -18 8 -36
5 -41 -12 -20 -33 -7 -44 27 -16 48 -43 43 -50 -11 -4 -30 -10 -41 -25 -43
-19 -3 -20 0 -11 98 l9 100 31 9 c17 6 47 9 66 8 29 -2 36 -6 39 -27z m-1972
-42 c-3 -7 -5 -2 -5 12 0 14 2 19 5 13 2 -7 2 -19 0 -25z m1762 -5 c35 -142
36 -163 5 -163 -8 0 -14 9 -14 20 0 23 2 23 -37 10 -17 -6 -35 -22 -41 -35
-10 -22 -42 -36 -42 -18 0 13 73 198 83 211 18 22 36 12 46 -25z m-145 -9 c21
-20 21 -54 0 -54 -9 0 -22 7 -29 16 -31 43 -91 -58 -66 -113 14 -31 26 -29 53
7 24 32 48 40 48 14 0 -28 -56 -74 -89 -74 -106 0 -56 217 51 220 9 0 24 -7
32 -16z m-248 -102 c-19 -38 -38 -86 -42 -108 -6 -36 -18 -53 -36 -54 -5 0 -8
23 -8 50 0 28 -6 63 -14 78 -26 52 -28 69 -7 75 15 3 23 -4 37 -35 l18 -39 24
50 c17 34 32 51 44 51 16 0 14 -8 -16 -68z m-138 11 c-2 -9 -14 -20 -28 -23
-26 -6 -31 -21 -45 -132 -5 -39 -10 -48 -26 -48 -21 0 -20 -8 -4 121 5 40 5
41 -20 37 -19 -4 -25 -1 -25 13 0 13 11 21 38 28 99 25 114 26 110 4z m-168
-37 c0 -9 -19 -20 -47 -28 -32 -9 -49 -20 -51 -32 -4 -17 1 -18 37 -12 36 5
41 4 41 -13 0 -15 -9 -21 -39 -26 -31 -5 -40 -11 -44 -32 -4 -24 -4 -25 40
-18 39 6 44 4 41 -11 -2 -12 -20 -22 -53 -31 -77 -20 -78 -20 -71 35 3 26 8
72 12 103 6 57 6 57 48 67 61 15 86 14 86 -2z m-160 -35 c0 -14 -10 -21 -37
-26 -40 -7 -53 -19 -53 -46 0 -14 6 -16 35 -9 30 7 35 5 35 -10 0 -13 -10 -21
-32 -25 -39 -9 -48 -20 -48 -61 0 -24 -5 -33 -21 -37 -20 -5 -20 -3 -14 68 13
136 14 138 70 152 68 15 65 15 65 -6z m-201 -68 c41 -158 40 -154 24 -160 -9
-4 -21 1 -28 10 -22 30 -62 20 -84 -20 -11 -22 -41 -32 -41 -15 0 9 67 178 81
205 16 29 38 20 48 -20z m2235 8 c12 -5 -31 -18 -130 -39 -176 -37 -170 -36
-214 -56 -31 -15 -372 -101 -605 -154 -298 -67 -424 -98 -535 -133 -126 -39
-350 -97 -405 -106 -16 -2 -55 -11 -85 -18 -30 -7 -73 -16 -95 -20 -119 -18
-377 -81 -487 -120 l-66 -24 -16 24 c-9 13 -12 26 -8 28 4 3 234 60 512 127
278 67 849 207 1270 310 421 103 783 188 805 188 22 0 48 -3 59 -7z m-2380
-23 c8 -12 13 -25 10 -30 -8 -12 -42 -10 -46 3 -5 16 -48 1 -48 -17 0 -15 6
-18 52 -28 55 -12 43 -92 -19 -121 -19 -9 -45 -14 -58 -11 -24 6 -41 38 -30
56 9 15 35 12 41 -5 8 -20 29 -19 49 2 16 16 16 17 -1 30 -10 7 -26 13 -35 13
-23 0 -49 37 -42 59 22 61 98 91 127 49z"/>
<path d="M14726 12345 c-21 -32 -20 -38 2 -26 20 10 134 22 217 23 45 0 43 1
-30 13 -129 22 -170 20 -189 -10z"/>
<path d="M16111 12030 c-6 -25 -17 -60 -23 -79 -11 -36 -1 -51 35 -51 19 0 20
22 8 120 l-7 55 -13 -45z"/>
<path d="M17736 11909 c-14 -41 -36 -124 -36 -136 0 -8 12 -13 31 -13 l31 0
-7 78 c-8 80 -11 94 -19 71z"/>
<path d="M17980 11881 c0 -22 -3 -46 -6 -55 -5 -13 1 -16 28 -16 42 0 58 15
58 55 0 38 -16 55 -52 55 -26 0 -28 -3 -28 -39z"/>
<path d="M17070 11250 c0 -5 7 -7 15 -4 8 4 15 8 15 10 0 2 -7 4 -15 4 -8 0
-15 -4 -15 -10z"/>
<path d="M21873 11097 c-13 -27 -22 -51 -19 -54 2 -3 49 -7 104 -10 98 -6 101
-5 126 20 53 53 32 73 -92 84 l-94 9 -25 -49z"/>
<path d="M21766 10888 c-27 -50 -32 -67 -19 -55 15 13 26 15 44 9 13 -5 48
-10 78 -11 30 -1 59 -5 64 -8 9 -6 6 112 -4 121 -2 2 -31 7 -64 10 l-60 7 -39
-73z"/>
<path d="M23533 10603 c9 -2 25 -2 35 0 9 3 1 5 -18 5 -19 0 -27 -2 -17 -5z"/>
<path d="M20078 9857 c4 -42 4 -43 38 -39 45 5 45 33 0 61 -18 12 -35 21 -37
21 -2 0 -3 -19 -1 -43z"/>
<path d="M20160 9793 c0 -10 -3 -28 -6 -40 -6 -21 -3 -23 29 -23 31 0 35 3 41
31 9 48 9 49 -29 49 -27 0 -35 -4 -35 -17z"/>
<path d="M23831 9844 c0 -11 3 -14 6 -6 3 7 2 16 -1 19 -3 4 -6 -2 -5 -13z"/>
<path d="M18816 9693 c-13 -45 -36 -156 -33 -160 2 -2 29 -1 60 3 l55 7 -35
81 c-40 94 -39 93 -47 69z"/>
<path d="M18297 9693 c-2 -5 -1 -32 2 -62 l6 -55 64 3 c90 4 111 13 111 51 0
62 -12 70 -100 70 -43 0 -81 -3 -83 -7z"/>
<path d="M13953 8847 c-16 -17 -64 -78 -107 -134 -74 -97 -127 -153 -191 -200
-29 -21 -29 -22 -7 -24 26 -2 30 -3 62 -16 14 -6 42 -13 63 -16 20 -3 44 -10
52 -17 27 -23 120 31 209 123 70 72 228 282 198 263 -10 -6 -124 8 -165 20 -9
3 -14 10 -11 16 5 7 -2 9 -20 4 -16 -4 -33 -2 -40 3 -9 8 -21 2 -43 -22z"/>
<path d="M15438 7533 c6 -2 18 -2 25 0 6 3 1 5 -13 5 -14 0 -19 -2 -12 -5z"/>
<path d="M15548 7513 c7 -3 16 -2 19 1 4 3 -2 6 -13 5 -11 0 -14 -3 -6 -6z"/>
<path d="M21600 8800 c0 -14 72 -22 84 -9 8 9 7 11 -6 6 -9 -3 -31 -2 -47 3
-17 5 -31 5 -31 0z"/>
<path d="M13020 8410 c0 -5 5 -10 11 -10 5 0 7 5 4 10 -3 6 -8 10 -11 10 -2 0
-4 -4 -4 -10z"/>
<path d="M13056 8408 c3 -5 10 -6 15 -3 13 9 11 12 -6 12 -8 0 -12 -4 -9 -9z"/>
<path d="M11348 7613 c7 -3 16 -2 19 1 4 3 -2 6 -13 5 -11 0 -14 -3 -6 -6z"/>
<path d="M9470 7140 c-8 -5 -10 -10 -5 -10 6 0 17 5 25 10 8 5 11 10 5 10 -5
0 -17 -5 -25 -10z"/>
<path d="M9390 7105 c-14 -8 -20 -14 -15 -14 6 0 21 6 35 14 14 8 21 14 15 14
-5 0 -21 -6 -35 -14z"/>
<path d="M9310 7070 c-8 -5 -10 -10 -5 -10 6 0 17 5 25 10 8 5 11 10 5 10 -5
0 -17 -5 -25 -10z"/>
<path d="M8431 6933 c0 -12 -9 -27 -18 -32 -11 -6 -13 -11 -5 -11 9 0 10 -5 3
-19 -9 -15 -17 -17 -50 -11 -27 5 -38 4 -34 -3 3 -6 1 -7 -5 -3 -7 4 -28 9
-47 10 -32 3 -34 2 -23 -12 11 -13 10 -15 -4 -10 -20 8 -54 -15 -44 -30 4 -6
14 -8 22 -5 9 3 19 1 23 -6 7 -10 170 -71 192 -71 5 0 9 24 8 53 -1 61 -15
182 -18 150z"/>
<path d="M21325 7701 c-3 -6 4 -8 16 -6 30 6 37 15 11 15 -11 0 -23 -4 -27 -9z"/>
<path d="M21382 7690 c0 -14 2 -19 5 -12 2 6 2 18 0 25 -3 6 -5 1 -5 -13z"/>
<path d="M20468 7683 c7 -3 16 -2 19 1 4 3 -2 6 -13 5 -11 0 -14 -3 -6 -6z"/>
<path d="M21287 7634 c-7 -8 15 -44 27 -44 5 0 2 8 -7 18 -10 10 -14 22 -10
25 3 4 4 7 1 7 -2 0 -7 -3 -11 -6z"/>
<path d="M21345 7552 c-27 -9 -29 -29 -3 -28 12 1 22 9 24 19 1 9 2 17 1 16
-1 -1 -11 -4 -22 -7z"/>
<path d="M21385 7540 c-3 -5 -1 -10 4 -10 6 0 11 5 11 10 0 6 -2 10 -4 10 -3
0 -8 -4 -11 -10z"/>
<path d="M26089 7707 c-109 -40 -197 -110 -285 -230 -86 -116 -136 -234 -199
-471 -81 -309 -58 -638 65 -892 56 -116 130 -200 220 -249 51 -28 63 -30 155
-30 91 0 105 3 157 29 203 103 365 356 446 701 24 101 26 128 27 335 0 236 -7
293 -57 450 -92 292 -307 437 -529 357z m448 -862 c-3 -88 -8 -167 -12 -176
-5 -13 3 -18 41 -24 34 -5 49 -3 56 7 15 22 -2 -90 -29 -181 -52 -183 -133
-336 -232 -441 -34 -36 -60 -60 -59 -54 2 7 -9 23 -23 36 l-26 24 -29 -24
c-104 -86 -224 -140 -287 -128 -18 4 -54 23 -82 43 l-50 37 57 8 c31 4 80 19
109 34 53 26 145 106 181 156 l19 28 -35 -5 c-20 -2 -36 0 -36 5 0 6 -10 10
-22 10 -13 0 -36 7 -51 15 -26 13 -97 37 -122 40 -5 1 -16 -3 -23 -9 -11 -8
-11 -5 -1 17 6 14 9 37 5 51 -8 32 -121 183 -148 197 -32 17 -50 -10 -57 -83
-5 -52 -8 -58 -14 -35 -4 16 -18 32 -32 37 -20 8 -25 17 -25 44 0 19 -3 41 -6
49 -4 11 5 18 30 27 19 6 52 31 75 58 22 26 58 65 80 87 43 43 71 97 72 142 0
26 1 26 9 7 9 -23 150 -114 176 -114 8 0 12 -4 9 -10 -3 -5 4 -14 17 -19 31
-13 281 -41 290 -33 14 14 28 142 28 267 0 72 4 125 8 119 4 -5 33 -10 64 -10
51 1 58 4 59 21 1 11 5 2 11 -20 5 -23 8 -109 5 -200z m-751 97 c33 -22 44
-100 23 -161 -11 -32 -35 -51 -63 -51 -23 0 -56 59 -56 98 0 77 55 142 96 114z"/>
<path d="M25826 6668 c-9 -12 -16 -35 -16 -50 0 -37 111 -253 130 -253 17 0
82 143 99 215 12 55 1 69 -73 94 -72 23 -121 21 -140 -6z"/>
<path d="M13842 7410 c-42 -6 -62 -21 -62 -47 0 -6 -3 -18 -6 -27 -5 -12 0
-16 22 -16 55 0 71 10 83 52 7 22 11 41 9 42 -2 1 -23 -1 -46 -4z"/>
<path d="M13883 7323 c-12 -2 -24 -14 -27 -28 -3 -13 -9 -30 -12 -39 -5 -13 1
-16 30 -16 34 0 76 27 76 49 0 5 3 16 6 25 6 16 -19 19 -73 9z"/>
<path d="M13711 7290 c-18 -4 -40 -15 -48 -23 -14 -14 -13 -19 6 -46 20 -28
24 -29 37 -16 9 8 19 15 24 15 8 0 30 53 30 71 0 10 -2 10 -49 -1z"/>
<path d="M20523 7310 c-15 -6 -24 -21 -28 -47 -4 -21 -9 -47 -12 -57 -4 -16
-1 -18 18 -13 13 4 36 7 51 7 31 0 43 17 53 78 l7 42 -34 -1 c-18 0 -43 -4
-55 -9z"/>
<path d="M20414 7152 c-73 -23 -82 -42 -48 -96 l27 -43 35 34 c26 26 36 46 40
79 2 24 3 43 1 43 -2 -1 -27 -8 -55 -17z"/>
<path d="M12324 7039 c-19 -39 -33 -73 -30 -76 7 -8 116 7 116 16 0 12 -42
131 -46 131 -2 0 -20 -32 -40 -71z"/>
<path d="M11845 7071 c-39 -6 -40 -7 -47 -56 -4 -27 -5 -51 -3 -53 8 -8 152
20 173 34 18 12 22 23 20 47 -3 31 -4 32 -53 33 -27 1 -68 -1 -90 -5z"/>
<path d="M18678 6800 c-55 -98 -99 -183 -95 -186 2 -2 40 1 85 8 l82 11 -6 31
c-3 17 -13 65 -23 106 l-17 75 -26 -45z"/>
<path d="M8258 6703 c7 -3 16 -2 19 1 4 3 -2 6 -13 5 -11 0 -14 -3 -6 -6z"/>
<path d="M8307 6692 c4 -10 2 -13 -5 -8 -6 3 -14 1 -18 -5 -4 -8 -9 -7 -15 2
-6 10 -9 10 -9 2 0 -6 5 -15 10 -18 6 -4 8 -11 5 -16 -4 -5 -2 -9 2 -9 5 0 9
-9 9 -20 0 -11 -5 -19 -11 -18 -18 2 -65 -14 -65 -23 0 -4 8 -12 17 -17 13 -8
11 -11 -15 -17 -17 -3 -41 -4 -52 0 -14 5 -20 2 -20 -9 0 -19 -16 -21 -26 -4
-4 6 -3 8 3 5 5 -3 10 0 10 8 0 11 -4 12 -14 4 -7 -6 -10 -15 -7 -20 3 -5 0
-9 -6 -9 -6 0 -9 -4 -6 -9 4 -5 -2 -8 -11 -7 -10 2 -31 -1 -48 -6 -16 -6 -36
-10 -42 -11 -7 0 -13 -4 -13 -9 0 -5 8 -7 19 -3 12 3 21 0 24 -10 4 -8 3 -14
-1 -13 -13 2 -84 -33 -78 -39 3 -4 19 -7 35 -8 16 -1 37 -7 45 -14 14 -12 40
1 184 86 92 55 193 115 225 132 59 33 76 58 33 47 -13 -3 -26 -1 -28 4 -2 6
-12 12 -23 14 -11 3 -41 11 -67 19 -42 13 -46 13 -41 -1z m-260 -255 c0 -7 -9
-13 -19 -13 -18 0 -18 1 -2 13 10 7 18 13 19 13 1 0 2 -6 2 -13z"/>
<path d="M7927 6513 c-10 -10 -8 -23 4 -23 5 0 7 5 3 12 -5 8 -2 9 10 5 10 -4
15 -3 11 3 -7 12 -19 13 -28 3z"/>
<path d="M7990 6460 c-9 -6 -10 -10 -3 -10 6 0 15 5 18 10 8 12 4 12 -15 0z"/>
<path d="M8004 6384 c4 -11 -3 -19 -24 -27 -16 -6 -30 -15 -30 -19 0 -4 -9 -8
-20 -8 -11 0 -20 4 -20 10 0 5 -13 7 -32 3 -25 -5 -30 -3 -23 8 7 12 5 12 -6
1 -12 -11 -12 -14 1 -22 8 -5 10 -10 4 -10 -6 0 -17 6 -23 13 -12 15 -39 16
-60 2 -10 -6 -12 -4 -6 6 7 12 6 12 -7 1 -10 -8 -18 -9 -22 -3 -4 6 -13 8 -22
4 -8 -3 -13 -8 -10 -11 3 -2 -3 -17 -14 -32 -11 -15 -17 -29 -15 -32 3 -3 -8
-5 -25 -5 -16 0 -30 4 -30 7 0 4 14 10 30 14 24 4 30 11 30 31 0 23 -3 25 -27
18 -16 -4 -41 -7 -56 -7 -22 1 -27 -2 -22 -15 3 -8 3 -12 -1 -8 -4 4 -18 -3
-31 -15 -13 -12 -23 -18 -23 -13 0 4 8 14 18 21 15 12 11 13 -30 11 -27 -1
-42 -5 -35 -9 8 -5 5 -8 -8 -9 -31 -2 -49 2 -56 13 -4 7 -9 7 -13 0 -4 -6 2
-16 11 -22 15 -9 12 -10 -16 -6 -25 4 -38 1 -50 -11 -17 -19 -47 -30 -37 -14
3 5 -1 11 -9 14 -10 4 -12 1 -8 -10 4 -11 2 -14 -8 -11 -8 3 -13 14 -11 26 5
32 -25 39 -51 13 -21 -20 -21 -21 -2 -22 11 -1 24 -1 28 0 5 1 7 -6 5 -15 -2
-12 -14 -18 -36 -20 -19 -1 -40 -5 -47 -8 -8 -3 -15 -1 -17 4 -2 5 -13 7 -25
4 -13 -4 -21 -10 -18 -14 3 -4 -3 -14 -12 -21 -14 -12 -16 -12 -8 0 6 11 4 13
-11 7 -16 -6 -16 -4 4 17 12 13 22 26 22 30 0 12 -28 8 -36 -5 -4 -7 -3 -8 4
-4 7 4 12 2 12 -3 0 -6 -15 -17 -32 -25 -31 -14 -32 -15 -10 -21 12 -4 22 -14
22 -22 0 -8 -4 -11 -10 -8 -5 3 -10 0 -11 -7 -1 -7 -4 -2 -8 12 -6 20 -13 24
-37 22 -16 -2 -32 -8 -35 -14 -4 -7 -9 -6 -14 1 -11 19 12 38 42 34 16 -2 37
4 48 12 17 14 18 17 5 25 -11 7 -20 4 -32 -10 -11 -13 -19 -17 -23 -9 -9 14
-57 -30 -51 -47 3 -7 -7 -14 -25 -16 -21 -3 -29 0 -29 10 0 12 -6 10 -24 -7
-14 -13 -29 -20 -35 -16 -6 3 -25 0 -41 -9 -16 -8 -32 -11 -35 -6 -3 5 0 11 5
13 7 4 6 5 0 4 -7 -2 -11 -6 -10 -11 2 -11 -42 -34 -53 -28 -5 2 -6 11 -3 19
3 8 2 12 -3 8 -5 -3 -20 -1 -33 4 -12 4 -32 5 -43 1 -11 -4 -26 -3 -34 4 -11
8 -13 8 -7 -1 4 -7 2 -13 -3 -13 -10 0 -15 13 -13 31 1 4 -8 5 -18 2 -23 -6
-25 0 -9 29 6 11 -125 -71 -290 -182 -265 -178 -300 -205 -289 -219 11 -14 11
-14 -4 -3 -14 11 -21 11 -42 -3 -14 -10 -23 -22 -19 -28 3 -6 1 -7 -6 -3 -11
7 -167 -98 -1136 -761 -192 -131 -442 -302 -555 -378 -284 -193 -497 -352
-549 -411 -52 -59 -91 -133 -91 -171 0 -57 61 -115 155 -148 30 -10 94 -19
160 -22 186 -9 318 25 601 155 152 69 225 115 709 445 105 72 352 240 550 375
198 135 455 311 570 391 362 250 1160 781 1392 925 126 79 220 143 216 149 -3
6 -1 7 6 3 6 -4 38 9 72 29 49 30 58 40 48 51 -15 19 -23 18 -15 -2z m-262
-78 c4 -20 0 -25 -23 -28 -23 -4 -26 -2 -18 9 7 7 8 13 5 13 -8 0 17 29 25 30
4 0 9 -11 11 -24z m55 6 c10 8 20 8 37 -2 13 -7 29 -9 35 -6 18 11 12 -6 -6
-20 -25 -19 -44 -17 -36 3 5 13 2 15 -11 10 -10 -4 -23 -7 -29 -7 -8 0 -7 -3
1 -9 11 -7 10 -9 -3 -14 -9 -4 -13 -3 -10 3 3 6 2 10 -2 10 -5 0 -9 9 -9 20 0
13 4 16 10 10 6 -6 14 -5 23 2z m-542 -31 c-9 -8 -36 -10 -30 -2 2 4 11 8 20
8 8 0 13 -3 10 -6z m252 -6 c0 -8 -4 -12 -9 -9 -5 3 -6 10 -3 15 9 13 12 11
12 -6z m29 -42 c-10 -10 -19 5 -10 18 6 11 8 11 12 0 2 -7 1 -15 -2 -18z m44
17 c0 -5 -4 -10 -10 -10 -5 0 -10 5 -10 10 0 6 5 10 10 10 6 0 10 -4 10 -10z
m-23 -36 c-3 -3 -12 -4 -19 -1 -8 3 -5 6 6 6 11 1 17 -2 13 -5z m-257 -54 c0
-5 -4 -10 -10 -10 -5 0 -10 5 -10 10 0 6 5 10 10 10 6 0 10 -4 10 -10z m-635
-40 c3 -5 -1 -10 -10 -10 -10 0 -13 -5 -9 -12 4 -7 3 -8 -4 -4 -17 10 -15 36
2 36 8 0 18 -4 21 -10z m195 0 c0 -5 -2 -10 -4 -10 -3 0 -8 5 -11 10 -3 6 -1
10 4 10 6 0 11 -4 11 -10z m36 -17 c-10 -10 -19 5 -10 18 6 11 8 11 12 0 2 -7
1 -15 -2 -18z m-232 -40 c6 -15 -10 -18 -19 -3 -4 6 -11 7 -17 4 -6 -4 -8 -3
-5 3 9 14 35 12 41 -4z m-50 -12 c4 -5 -1 -8 -9 -7 -21 3 -31 16 -12 16 9 0
18 -4 21 -9z m-629 -269 c-3 -3 -11 0 -18 7 -9 10 -8 11 6 5 10 -3 15 -9 12
-12z"/>
<path d="M6935 6250 c-3 -5 -1 -10 4 -10 6 0 11 5 11 10 0 6 -2 10 -4 10 -3 0
-8 -4 -11 -10z"/>
<path d="M7115 6249 c-12 -19 5 -23 22 -6 16 16 16 17 1 17 -9 0 -20 -5 -23
-11z"/>
<path d="M6825 6160 c-3 -5 -2 -10 4 -10 5 0 13 5 16 10 3 6 2 10 -4 10 -5 0
-13 -4 -16 -10z"/>
<path d="M18045 6775 c-5 -2 -35 -6 -66 -10 l-57 -6 -16 -64 c-25 -99 -30 -94
82 -79 53 8 109 19 124 25 58 24 94 92 63 123 -15 15 -98 22 -130 11z"/>
<path d="M20128 6348 c-8 -7 -18 -28 -22 -45 -5 -30 -3 -33 18 -33 27 0 64 28
67 50 3 31 -2 40 -24 40 -13 0 -30 -6 -39 -12z"/>
<path d="M19878 6222 l-27 -62 27 6 c37 9 38 12 32 69 l-5 50 -27 -63z"/>
<path d="M18282 5978 c-19 -33 -32 -61 -30 -63 2 -2 19 0 38 4 l34 7 -3 54
c-1 30 -3 56 -4 57 -1 1 -17 -26 -35 -59z"/>
<path d="M14905 5630 c10 -11 20 -20 23 -20 3 0 -3 9 -13 20 -10 11 -20 20
-23 20 -3 0 3 -9 13 -20z"/>
<path d="M14965 5580 c10 -11 20 -20 23 -20 3 0 -3 9 -13 20 -10 11 -20 20
-23 20 -3 0 3 -9 13 -20z"/>
<path d="M15090 5476 c0 -2 8 -10 18 -17 15 -13 16 -12 3 4 -13 16 -21 21 -21
13z"/>
<path d="M12825 5405 c-335 -73 -624 -368 -759 -775 -70 -210 -94 -398 -76
-601 21 -252 73 -417 185 -589 152 -236 399 -374 633 -356 209 16 388 110 562
292 240 251 370 604 370 997 0 226 -25 362 -94 527 -58 136 -112 218 -210 316
-74 74 -107 99 -176 133 -138 67 -292 87 -435 56z m588 -729 c4 4 7 3 8 -2 0
-5 2 -19 3 -31 2 -18 0 -20 -11 -12 -10 9 -13 7 -14 -7 -1 -17 -9 13 -24 86
-4 21 -2 20 13 -8 10 -18 21 -30 25 -26z m144 -28 c-3 -8 -6 -5 -6 6 -1 11 2
17 5 13 3 -3 4 -12 1 -19z m10 -70 c-3 -8 -6 -5 -6 6 -1 11 2 17 5 13 3 -3 4
-12 1 -19z m-910 -44 c-3 -3 -12 -4 -19 -1 -8 3 -5 6 6 6 11 1 17 -2 13 -5z
m-37 -44 c0 -4 -6 -13 -13 -19 -10 -8 -19 -7 -33 4 -13 10 -14 14 -5 15 8 0
11 7 8 20 -5 18 -4 18 19 3 13 -8 24 -19 24 -23z m945 -334 c-8 -61 -18 -120
-21 -131 -4 -17 0 -21 23 -22 88 -2 93 -3 93 -19 0 -33 -72 -229 -112 -307
-43 -83 -139 -220 -173 -247 -12 -9 -16 -10 -11 -2 8 14 -29 51 -53 52 -8 0
-11 6 -7 16 4 9 -36 -24 -88 -73 -126 -121 -270 -209 -390 -237 -25 -6 -27 -5
-14 8 20 19 16 48 -10 76 -12 13 -19 27 -16 32 3 5 2 8 -3 7 -42 -7 -38 6 9
25 336 138 587 554 615 1021 4 66 9 108 11 93 4 -31 11 -34 31 -15 12 10 13 9
7 -7 -7 -19 -6 -19 13 -2 16 15 24 16 35 7 10 -8 16 -9 21 -1 9 14 27 2 19
-13 -3 -7 2 -3 10 7 9 11 17 31 18 45 1 14 4 -25 5 -88 2 -67 -3 -160 -12
-225z m-883 294 c-37 -23 -68 -68 -83 -122 -12 -46 -29 -50 -29 -8 0 66 64
150 114 150 l31 0 -33 -20z m-125 -32 c-3 -8 -6 -5 -6 6 -1 11 2 17 5 13 3 -3
4 -12 1 -19z m242 7 c78 -40 82 -203 6 -263 -30 -24 -83 -29 -117 -11 -26 14
-58 84 -58 129 0 53 38 122 80 142 43 22 53 22 89 3z m172 -112 c8 -9 59 -38
114 -64 55 -27 96 -48 91 -49 -6 0 4 -15 21 -32 17 -18 34 -43 37 -55 4 -11
13 -27 21 -33 8 -7 15 -17 15 -22 0 -5 -10 2 -22 16 -19 20 -41 28 -113 41
-49 8 -114 15 -143 15 -46 0 -58 -4 -84 -30 -45 -45 -37 -88 45 -235 l66 -120
-37 -6 c-34 -6 -41 -3 -102 54 -79 73 -117 97 -152 97 -43 0 -58 -32 -59 -125
0 -66 -2 -75 -11 -52 -5 15 -16 27 -24 27 -8 0 -14 5 -14 10 0 6 -3 9 -7 9
-34 -5 -49 5 -65 42 -11 27 -27 44 -46 51 -23 9 -27 16 -24 38 4 26 8 28 66
32 75 6 132 34 189 92 166 172 171 180 172 283 0 65 2 72 18 67 12 -4 17 0 18
13 1 10 5 3 9 -14 4 -18 14 -40 21 -50z m260 -400 c-12 -20 -14 -14 -5 12 4 9
9 14 11 11 3 -2 0 -13 -6 -23z m-30 -66 c-10 -9 -11 -8 -5 6 3 10 9 15 12 12
3 -3 0 -11 -7 -18z m-71 -121 c0 -2 -8 -10 -17 -17 -16 -13 -17 -12 -4 4 13
16 21 21 21 13z"/>
<path d="M7215 3340 c-3 -5 -1 -10 4 -10 6 0 11 5 11 10 0 6 -2 10 -4 10 -3 0
-8 -4 -11 -10z"/>
<path d="M7937 3000 c-9 -19 -25 -57 -36 -84 l-21 -48 37 6 c53 10 73 16 73
24 0 4 -9 36 -19 72 l-19 65 -15 -35z"/>
<path d="M7510 2948 c-54 -11 -70 -30 -70 -80 0 -43 -4 -42 98 -12 71 21 101
61 70 92 -14 14 -35 14 -98 0z"/>
<path d="M8977 2773 c-4 -3 -7 -17 -7 -29 0 -21 2 -22 30 -13 37 14 42 49 7
49 -13 0 -27 -3 -30 -7z"/>
<path d="M8812 2681 c-10 -28 -9 -31 9 -31 16 0 18 5 13 28 -9 37 -10 37 -22
3z"/>
<path d="M7752 2440 c-7 -18 -12 -34 -12 -36 0 -1 9 0 20 3 21 6 23 16 11 47
-7 18 -9 16 -19 -14z"/>
</g>
</svg>
