<?xml version="1.0" standalone="no"?>
<!DOCTYPE svg PUBLIC "-//W3C//DTD SVG 20010904//EN"
 "http://www.w3.org/TR/2001/REC-SVG-20010904/DTD/svg10.dtd">
<svg version="1.0" xmlns="http://www.w3.org/2000/svg"
 width="1024.000000pt" height="1024.000000pt" viewBox="0 0 1024.000000 1024.000000"
 preserveAspectRatio="xMidYMid meet">

<g transform="translate(0.000000,1024.000000) scale(0.100000,-0.100000)"
fill="#000000" stroke="none">
<path d="M4905 8523 c-233 -18 -441 -52 -636 -102 -1034 -267 -1919 -1050
-2318 -2053 -112 -281 -183 -569 -222 -893 -20 -162 -17 -586 4 -750 87 -655
324 -1214 733 -1730 108 -136 375 -403 510 -511 333 -266 671 -456 1049 -587
949 -329 1973 -217 2850 311 413 249 821 640 1086 1042 258 392 422 792 508
1240 44 233 54 347 55 615 1 340 -24 549 -101 850 -210 820 -725 1539 -1445
2016 -555 368 -1220 565 -1882 557 -83 -1 -169 -3 -191 -5z m500 -213 c399
-37 768 -143 1130 -325 314 -158 555 -329 804 -570 534 -518 855 -1157 957
-1900 25 -181 25 -608 1 -785 -72 -512 -236 -951 -512 -1365 -363 -544 -877
-966 -1474 -1210 -1073 -438 -2269 -259 -3191 479 -533 427 -934 1049 -1100
1706 -74 296 -95 473 -94 800 0 223 4 277 27 430 86 568 299 1064 653 1520
114 148 375 410 529 532 261 208 618 409 910 513 229 82 536 151 770 174 130
12 461 13 590 1z"/>
<path d="M4846 8149 c-598 -62 -1144 -282 -1606 -649 -144 -114 -362 -331
-480 -476 -588 -729 -806 -1657 -604 -2563 55 -244 127 -444 246 -681 357
-714 963 -1253 1711 -1524 794 -288 1701 -217 2442 191 799 440 1366 1204
1545 2083 182 895 -66 1847 -664 2548 -95 111 -294 307 -414 406 -169 139
-447 313 -638 399 -409 185 -768 265 -1214 272 -129 2 -275 -1 -324 -6z m564
-1014 c665 -100 1251 -534 1542 -1142 152 -316 225 -688 198 -1005 -54 -653
-385 -1211 -930 -1571 -780 -515 -1806 -419 -2493 232 -902 857 -840 2281 134
3061 320 257 696 404 1129 444 81 7 315 -3 420 -19z"/>
<path d="M4931 6969 c-564 -59 -1088 -390 -1392 -879 -202 -326 -301 -730
-270 -1102 40 -482 231 -877 584 -1214 254 -242 565 -405 904 -473 411 -83
807 -28 1193 166 296 149 527 352 712 628 495 734 399 1702 -231 2334 -148
148 -342 286 -523 371 -310 145 -646 203 -977 169z m389 -149 c109 -13 303
-61 404 -100 120 -47 281 -133 386 -208 122 -86 316 -280 402 -402 296 -417
391 -947 258 -1439 -87 -322 -288 -635 -543 -850 -660 -554 -1583 -546 -2234
18 -199 173 -373 423 -470 675 -139 366 -148 789 -23 1152 44 128 150 334 228
444 85 121 279 315 402 403 160 114 395 221 599 272 163 41 415 56 591 35z"/>
</g>
</svg>
