<?xml version="1.0" standalone="no"?>
<!DOCTYPE svg PUBLIC "-//W3C//DTD SVG 20010904//EN"
 "http://www.w3.org/TR/2001/REC-SVG-20010904/DTD/svg10.dtd">
<svg version="1.0" xmlns="http://www.w3.org/2000/svg"
 width="1024.000000pt" height="1024.000000pt" viewBox="0 0 1024.000000 1024.000000"
 preserveAspectRatio="xMidYMid meet">

<g transform="translate(0.000000,1024.000000) scale(0.100000,-0.100000)"
fill="#000000" stroke="none">
<path d="M4935 8459 c-134 -42 -1301 -395 -2583 -781 l-304 -92 5 -765 c3
-633 7 -791 21 -911 85 -732 239 -1288 511 -1838 231 -470 478 -821 830 -1181
361 -370 726 -643 1250 -936 148 -83 436 -225 457 -225 6 0 98 42 202 94 1092
539 1856 1273 2331 2241 300 611 468 1262 525 2025 5 74 10 442 10 817 l0 682
-57 16 c-72 21 -1366 411 -2073 625 -859 260 -927 280 -946 279 -11 0 -91 -23
-179 -50z m225 -413 c213 -66 1247 -378 2199 -664 l423 -127 -5 -580 c-5 -603
-11 -711 -58 -1030 -69 -473 -213 -944 -419 -1373 -410 -850 -1061 -1494
-2008 -1984 l-172 -90 -165 86 c-488 255 -886 538 -1215 865 -657 655 -1081
1533 -1224 2536 -41 288 -48 413 -53 995 l-5 575 613 184 c1129 338 2044 616
2044 620 0 0 20 -5 45 -13z"/>
<path d="M4975 5824 c-151 -33 -284 -124 -338 -230 -52 -103 -59 -236 -18
-330 63 -140 168 -202 471 -273 230 -54 296 -91 307 -167 11 -81 -41 -132
-155 -155 -156 -30 -374 22 -525 125 l-38 26 -58 -122 c-53 -111 -57 -125 -44
-140 26 -29 194 -106 280 -128 243 -62 537 -35 686 64 73 49 113 95 151 176
27 58 30 75 31 160 0 84 -4 102 -29 157 -60 130 -161 189 -457 262 -107 27
-213 58 -236 69 -88 45 -109 121 -53 186 47 53 106 71 230 70 122 0 201 -19
308 -71 40 -20 75 -33 78 -31 2 3 27 58 55 123 38 92 47 121 37 128 -31 21
-142 68 -210 88 -99 29 -369 36 -473 13z"/>
<path d="M6465 5825 c-224 -49 -397 -181 -497 -378 -72 -143 -92 -358 -50
-518 88 -330 366 -531 732 -531 218 0 367 54 506 185 l76 72 -106 99 -106 98
-55 -51 c-30 -29 -85 -66 -122 -84 -64 -30 -74 -32 -183 -32 -109 0 -119 2
-183 32 -94 45 -166 116 -208 206 -33 70 -34 76 -34 197 0 167 19 216 119 316
98 98 151 119 306 119 110 0 118 -2 186 -33 44 -21 90 -53 119 -82 l48 -49 24
19 c13 10 62 55 110 100 l86 82 -67 64 c-79 75 -209 143 -323 168 -88 20 -292
20 -378 1z"/>
<path d="M3013 5808 c6 -17 516 -1222 555 -1313 l30 -70 163 0 162 0 179 420
c249 585 408 963 408 970 0 3 -71 5 -159 5 -115 0 -161 -3 -168 -12 -8 -11
-218 -508 -360 -850 -43 -104 -63 -139 -63 -108 0 5 -60 155 -134 332 -74 178
-163 393 -198 478 l-64 155 -178 3 c-141 2 -177 0 -173 -10z"/>
</g>
</svg>
