<?xml version="1.0" standalone="no"?>
<!DOCTYPE svg PUBLIC "-//W3C//DTD SVG 20010904//EN"
 "http://www.w3.org/TR/2001/REC-SVG-20010904/DTD/svg10.dtd">
<svg version="1.0" xmlns="http://www.w3.org/2000/svg"
 width="2048.000000pt" height="2048.000000pt" viewBox="0 0 2048.000000 2048.000000"
 preserveAspectRatio="xMidYMid meet">

<g transform="translate(0.000000,2048.000000) scale(0.100000,-0.100000)"
fill="#000000" stroke="none">
<path d="M9823 17911 c-67 -3 -124 -9 -128 -13 -4 -4 -10 -711 -13 -1572 l-5
-1566 -21 0 c-12 0 -100 -16 -196 -35 -96 -19 -180 -35 -187 -35 -9 0 -10 375
-6 1586 l6 1586 -54 -7 c-300 -40 -841 -149 -1016 -206 l-33 -11 0 -256 c0
-389 -20 -2010 -26 -2067 l-5 -51 -67 -29 c-37 -15 -129 -57 -205 -93 -75 -36
-139 -63 -140 -61 -2 2 2 369 9 814 9 614 17 1503 14 1607 0 9 -201 -62 -395
-140 -190 -76 -382 -163 -560 -255 l-140 -72 -7 -340 c-15 -794 -39 -2085 -48
-2670 -5 -346 -12 -731 -16 -854 l-6 -224 -90 -129 c-82 -117 -225 -349 -305
-495 l-32 -58 -1 130 c0 72 7 456 15 855 8 399 24 1245 34 1880 11 635 23
1269 26 1408 6 247 6 253 -12 243 -57 -30 -428 -283 -548 -374 -142 -107 -411
-327 -497 -408 l-48 -44 -10 -435 c-6 -239 -21 -937 -35 -1550 -25 -1117 -53
-2334 -58 -2464 l-2 -70 -55 -31 c-30 -18 -269 -153 -530 -301 l-475 -269
-685 -5 -685 -5 -9 -80 c-11 -106 -13 -829 -3 -977 l9 -118 680 0 680 0 101
-56 c56 -30 296 -166 534 -302 l431 -246 6 -150 c4 -83 13 -441 21 -796 8
-355 17 -748 20 -875 3 -126 15 -603 25 -1060 11 -456 24 -1012 30 -1235 l10
-405 43 -38 c207 -187 533 -441 772 -602 136 -92 274 -175 288 -175 5 0 6 123
2 272 -3 150 -15 786 -26 1413 -10 627 -26 1457 -34 1845 -8 388 -15 766 -15
840 l0 135 46 -85 c101 -186 208 -357 347 -555 l36 -50 11 -575 c13 -731 27
-1473 41 -2285 6 -352 14 -768 17 -925 l7 -285 134 -67 c184 -92 420 -200 581
-265 184 -75 378 -144 383 -135 2 4 1 257 -4 562 -4 305 -13 917 -19 1360 -7
443 -15 972 -19 1175 -4 204 -7 371 -6 372 0 1 41 -24 90 -57 50 -32 140 -85
200 -119 61 -33 116 -64 123 -68 13 -8 29 -865 50 -2733 l7 -635 65 -18 c291
-80 1005 -219 1026 -198 3 3 2 716 -2 1583 -5 1097 -4 1578 3 1578 6 0 53 -9
104 -19 52 -11 130 -24 174 -31 44 -6 92 -13 107 -16 l28 -6 2 -1566 3 -1567
55 -9 c73 -11 941 -11 1005 0 l50 9 3 1567 2 1567 33 5 c99 17 327 56 355 62
l34 7 -8 -1587 -7 -1586 21 0 c88 0 707 125 958 193 l119 32 2 105 c1 58 9
670 18 1360 8 690 18 1399 21 1575 l7 320 100 55 c56 30 150 86 210 124 59 37
109 67 111 65 1 -2 -1 -184 -5 -404 -8 -452 -25 -1661 -35 -2503 l-7 -562 134
46 c240 82 498 194 821 355 78 39 144 72 146 74 2 1 12 499 22 1106 30 1717
41 2349 49 2674 l7 300 79 109 c95 131 222 336 290 469 28 53 52 97 55 97 3 0
2 -156 -2 -347 -31 -1633 -54 -2903 -63 -3483 -3 -206 -8 -441 -11 -522 -3
-86 -2 -148 4 -148 23 0 360 219 540 352 128 94 267 206 428 344 l132 113 6
133 c5 120 29 1115 86 3537 11 470 22 856 23 857 4 5 604 347 827 472 l225
127 685 5 685 5 9 65 c12 86 12 968 0 1045 l-9 60 -685 5 -685 5 -270 154
c-148 84 -362 206 -475 271 -113 64 -228 129 -256 144 l-52 28 -6 162 c-8 202
-21 723 -46 1856 -11 487 -25 1099 -30 1360 -6 261 -15 627 -19 812 l-8 337
-29 26 c-279 252 -681 555 -1018 769 l-59 38 7 -449 c8 -536 49 -2907 69
-3930 1 -78 -1 -139 -6 -136 -4 2 -19 28 -33 56 -50 99 -205 353 -298 485
l-93 132 -6 333 c-4 182 -14 739 -22 1237 -19 1147 -45 2513 -48 2516 -8 7
-380 190 -462 227 -148 66 -384 160 -517 206 l-118 40 0 -242 c0 -133 7 -678
15 -1212 8 -533 12 -971 10 -974 -3 -2 -62 23 -132 57 -71 33 -162 76 -204 95
l-76 35 -7 158 c-3 88 -11 620 -17 1184 -5 564 -13 1028 -17 1032 -12 11 -358
95 -547 132 -178 34 -494 86 -530 86 -18 0 -18 -48 -12 -1585 6 -1273 5 -1585
-5 -1585 -7 0 -78 13 -158 29 -80 16 -166 33 -191 36 l-47 7 -6 461 c-3 254
-8 959 -12 1567 -3 608 -8 1107 -11 1110 -16 16 -684 24 -960 11z m922 -3770
c732 -99 1379 -377 1948 -835 634 -509 1095 -1194 1322 -1962 112 -377 157
-701 157 -1119 0 -339 -35 -624 -113 -937 -246 -982 -890 -1854 -1766 -2394
-1007 -621 -2199 -757 -3303 -379 -1166 400 -2082 1316 -2480 2480 -187 549
-248 1151 -174 1735 160 1276 947 2395 2117 3010 415 218 908 365 1392 415
197 21 704 13 900 -14z"/>
<path d="M9415 10923 c-279 -33 -470 -114 -634 -267 -59 -56 -866 -908 -1030
-1088 l-25 -28 350 0 351 0 214 232 c118 128 282 301 364 384 136 137 158 155
235 193 47 23 121 51 165 63 79 22 89 22 1025 28 603 3 951 9 962 15 13 8 233
239 426 448 l26 27 -1200 -1 c-659 -1 -1212 -4 -1229 -6z"/>
<path d="M11810 10743 c-96 -103 -254 -270 -350 -372 -97 -102 -263 -280 -370
-396 -107 -115 -239 -256 -292 -313 -54 -57 -98 -108 -98 -113 0 -5 155 -9
369 -9 l369 0 170 178 c93 97 388 410 656 695 l487 517 -383 0 -383 -1 -175
-186z"/>
<path d="M9495 10329 c-84 -14 -184 -50 -243 -89 -33 -21 -139 -121 -253 -241
-257 -268 -419 -442 -419 -451 0 -5 150 -8 332 -8 l333 0 130 134 c71 74 145
142 163 151 83 41 142 45 737 45 l570 0 81 83 c44 45 145 151 223 235 l143
152 -873 -1 c-481 -1 -896 -5 -924 -10z"/>
<path d="M15768 15380 c2 -107 7 -312 10 -455 l7 -259 75 -24 c375 -117 815
-240 826 -229 9 9 -306 452 -440 617 -103 128 -289 340 -388 445 l-95 99 5
-194z"/>
<path d="M4619 15464 c-53 -54 -141 -151 -196 -214 -227 -264 -310 -374 -577
-759 l-58 -84 47 7 c77 12 840 239 858 255 8 8 31 773 25 850 l-3 45 -96 -100z"/>
<path d="M4590 14218 c-52 -16 -222 -69 -376 -119 l-282 -89 -191 0 -191 0
-21 -32 c-37 -61 -237 -462 -307 -619 -68 -152 -202 -490 -202 -509 0 -6 141
-10 381 -10 l382 0 226 93 c124 52 321 134 438 183 l211 89 6 70 c8 95 30 936
25 956 -3 13 -17 11 -99 -13z"/>
<path d="M15794 14092 c3 -86 11 -319 17 -517 6 -198 14 -363 17 -367 9 -9
256 -114 594 -254 l276 -114 386 0 385 0 -25 68 c-110 296 -281 677 -423 945
l-83 157 -193 0 -192 0 -264 84 c-145 46 -317 100 -383 120 l-119 35 7 -157z"/>
<path d="M4590 12739 c-25 -11 -201 -88 -392 -170 l-347 -149 -487 -2 -488 -3
-19 -60 c-36 -119 -116 -444 -152 -617 -40 -197 -85 -485 -77 -493 3 -3 280
-5 615 -5 l609 0 102 57 c341 190 653 367 663 377 8 8 14 153 22 491 6 264 13
506 15 538 5 65 2 66 -64 36z"/>
<path d="M15830 12704 c-1 -118 21 -930 26 -979 l5 -51 167 -96 c92 -53 265
-150 384 -217 l217 -121 616 0 c535 0 615 2 615 15 0 32 -62 377 -101 557 -41
194 -66 297 -120 496 l-31 112 -488 0 -487 0 -384 166 c-211 91 -392 168 -401
171 -16 5 -18 -2 -18 -53z"/>
<path d="M2620 9224 c0 -32 51 -326 85 -494 42 -205 70 -321 127 -522 l41
-148 487 0 486 0 254 -109 c140 -60 321 -136 403 -169 l147 -61 0 122 c0 162
-20 917 -25 942 -5 21 -242 163 -595 354 l-185 101 -612 0 c-548 0 -613 -2
-613 -16z"/>
<path d="M16605 9226 c-11 -7 -112 -64 -225 -126 -113 -62 -276 -154 -362
-204 l-156 -91 -6 -75 c-8 -102 -29 -960 -25 -986 4 -23 21 -17 593 227 l210
89 487 0 c456 0 488 1 493 18 33 108 103 380 135 525 39 177 111 577 111 617
0 20 -7 20 -617 19 -492 0 -622 -3 -638 -13z"/>
<path d="M3067 7498 c110 -289 338 -780 453 -975 l30 -53 174 0 174 0 199 -59
c414 -124 585 -172 590 -167 3 2 -2 235 -11 517 -12 382 -19 515 -29 521 -20
13 -285 124 -577 242 l-275 111 -391 3 -392 3 55 -143z"/>
<path d="M16410 7522 c-162 -66 -361 -147 -442 -182 l-148 -64 0 -51 c-1 -27
-7 -259 -15 -515 -7 -256 -12 -467 -10 -469 2 -1 84 21 182 49 98 29 275 81
393 116 l215 64 171 0 c125 0 174 3 182 13 5 6 44 75 85 152 129 239 318 656
402 888 l43 117 -382 0 -381 0 -295 -118z"/>
<path d="M3800 6065 c0 -10 223 -338 293 -430 170 -225 375 -466 551 -650 l86
-90 -5 160 c-3 88 -10 294 -15 459 -5 164 -11 301 -14 304 -6 5 -805 234 -864
247 -18 3 -32 4 -32 0z"/>
<path d="M16625 6059 c-16 -5 -167 -48 -335 -95 -168 -46 -351 -99 -406 -116
l-102 -31 -7 -226 c-3 -124 -10 -327 -14 -451 -4 -124 -6 -227 -3 -230 10 -11
339 354 508 565 128 158 305 405 398 553 29 46 24 50 -39 31z"/>
</g>
</svg>
