<?xml version="1.0" encoding="UTF-8"?>
<svg version="1.1" xmlns="http://www.w3.org/2000/svg" width="1536" height="1024">
<path d="M0 0 C506.88 0 1013.76 0 1536 0 C1536 337.92 1536 675.84 1536 1024 C1029.12 1024 522.24 1024 0 1024 C0 686.08 0 348.16 0 0 Z " fill="#FEFDFE" transform="translate(0,0)"/>
<path d="M0 0 C1.1127832 -0.00073013 2.22556641 -0.00146027 3.37207031 -0.00221252 C7.04102746 0.00126393 10.7087067 0.04013094 14.37744141 0.0793457 C16.92476712 0.08867354 19.47210181 0.09578979 22.0194397 0.1007843 C28.03312617 0.11790803 34.04626622 0.157292 40.05973399 0.20753175 C46.90852938 0.2635029 53.75734709 0.2909311 60.60631442 0.31600893 C74.6891301 0.36821089 88.77154196 0.45610434 102.85400391 0.56762695 C100.78170733 9.07471113 100.78170733 9.07471113 99.36108398 13.01391602 C98.94473442 14.17748627 98.94473442 14.17748627 98.51997375 15.36456299 C98.07623665 16.58656403 98.07623665 16.58656403 97.62353516 17.83325195 C97.31002609 18.70673279 96.99651703 19.58021362 96.67350769 20.48016357 C95.67478565 23.26063344 94.67087648 26.03919382 93.66650391 28.81762695 C92.35912242 32.44733508 91.05383751 36.07779572 89.74853516 39.70825195 C89.42435608 40.60843552 89.100177 41.50861908 88.76617432 42.43608093 C86.53297942 48.64645415 84.34127734 54.87037727 82.17041016 61.1027832 C79.52703746 68.68716481 76.79704567 76.23363365 73.97900391 83.75512695 C67.87538108 100.14483207 61.94129863 116.59403803 56.1418457 133.09375 C53.73067505 139.94302451 51.26378937 146.7719867 48.79882812 153.60205078 C46.29419759 160.54921235 43.80517454 167.50173676 41.32666016 174.45825195 C41.01179153 175.34158707 40.69692291 176.22492218 40.37251282 177.13502502 C38.47522861 182.45772865 38.47522861 182.45772865 36.58084106 187.78146362 C32.87148707 198.21481512 29.10513419 208.62525251 25.2794838 219.01657295 C21.18878731 230.12954205 17.15977514 241.26193202 13.21337891 252.42700195 C12.98183987 253.08184885 12.75030083 253.73669575 12.51174545 254.41138649 C10.39644953 260.39572245 8.28579742 266.38169287 6.17724609 272.3684082 C4.77547428 276.34728265 3.37096466 280.3251805 1.96337891 284.30200195 C1.62636617 285.25422512 1.62636617 285.25422512 1.28254509 286.22568512 C-1.64950913 294.49726255 -4.68686554 302.71372517 -7.91447449 310.87426758 C-10.19280174 316.63695481 -12.22819086 322.44583896 -14.20849609 328.31762695 C-20.27360143 345.82198159 -26.74168947 363.18450897 -33.14599609 380.56762695 C37.47400391 380.56762695 108.09400391 380.56762695 180.85400391 380.56762695 C175.22611073 386.19552013 175.22611073 386.19552013 172.49853516 388.22387695 C171.57971558 388.91078613 171.57971558 388.91078613 170.64233398 389.61157227 C169.99031006 390.09207031 169.33828613 390.57256836 168.66650391 391.06762695 C167.96871826 391.58679688 167.27093262 392.1059668 166.55200195 392.64086914 C160.72018267 396.9653416 154.82237656 401.19680287 148.921875 405.42675781 C142.96081794 409.72026657 137.11772612 414.15591901 131.29150391 418.63012695 C124.3630111 423.9469469 117.36196645 429.11239484 110.19921875 434.10839844 C104.54585134 438.05711422 98.96998292 442.10472205 93.41650391 446.19262695 C92.1806958 447.09972412 92.1806958 447.09972412 90.91992188 448.02514648 C90.15695801 448.58830566 89.39399414 449.15146484 88.60791016 449.73168945 C87.93058838 450.2313623 87.2532666 450.73103516 86.55541992 451.24584961 C84.73564721 452.6029191 84.73564721 452.6029191 82.85400391 454.56762695 C80.37462425 454.81372261 80.37462425 454.81372261 77.18466187 454.80813599 C75.97868851 454.81088531 74.77271515 454.81363464 73.53019714 454.81646729 C72.18679711 454.80938856 70.84339807 454.80211894 69.5 454.79467773 C68.090856 454.79411383 66.68171141 454.79442978 65.27256775 454.79556274 C61.44011262 454.79613806 57.60778194 454.78435498 53.77535582 454.77041483 C49.77282048 454.75793713 45.7702825 454.75673931 41.76773071 454.75436401 C34.18521112 454.74814052 26.60274899 454.73171797 19.02025473 454.71166503 C10.38918354 454.68933304 1.75810965 454.67831941 -6.87298322 454.66827416 C-24.63068679 454.64735247 -42.38833683 454.61215965 -60.14599609 454.56762695 C-60.27908676 455.18178467 -60.41217743 455.79594238 -60.54930115 456.42871094 C-60.72614944 457.23638916 -60.90299774 458.04406738 -61.08520508 458.8762207 C-61.25954575 459.67600342 -61.43388641 460.47578613 -61.61351013 461.29980469 C-62.28110558 464.14304928 -63.19282404 466.83004494 -64.20849609 469.56762695 C-64.64548828 470.76129883 -65.08248047 471.9549707 -65.53271484 473.18481445 C-65.78327637 473.86382813 -66.03383789 474.5428418 -66.29199219 475.24243164 C-68.05802095 480.05079583 -69.78596404 484.87301265 -71.52099609 489.69262695 C-71.91375732 490.78164307 -72.30651855 491.87065918 -72.71118164 492.99267578 C-75.29879694 500.17753384 -77.83104702 507.37960862 -80.33203125 514.5949707 C-82.14451662 519.79069295 -84.01626117 524.96309046 -85.91943359 530.1262207 C-86.16394257 530.78996201 -86.40845154 531.45370331 -86.66036987 532.13755798 C-87.87787159 535.43984646 -89.09960002 538.74049584 -90.32714844 542.0390625 C-92.57993598 548.13012643 -94.69320218 554.20231656 -96.49755859 560.44067383 C-97.39474865 563.3835653 -98.54942833 566.18353025 -99.77099609 569.00512695 C-100.99610285 571.85257205 -102.16551759 574.62619143 -103.14599609 577.56762695 C-141.75599609 577.56762695 -180.36599609 577.56762695 -220.14599609 577.56762695 C-217.89626713 567.4438466 -217.89626713 567.4438466 -216.62817383 564.0690918 C-216.34220337 563.29875107 -216.05623291 562.52841034 -215.76159668 561.73472595 C-215.45403442 560.92419266 -215.14647217 560.11365936 -214.82958984 559.27856445 C-214.50116089 558.3976564 -214.17273193 557.51674835 -213.83435059 556.60914612 C-213.1256292 554.70967315 -212.41431618 552.81116551 -211.70065308 550.9135437 C-209.77443863 545.79105613 -207.8674534 540.66140883 -205.95849609 535.5324707 C-205.5626683 534.47038895 -205.16684052 533.40830719 -204.75901794 532.31404114 C-200.09535314 519.78122701 -195.56505649 507.20034467 -191.04562378 494.6149292 C-190.37072535 492.73560573 -189.69507743 490.85655125 -189.01867676 488.97776794 C-188.41409406 487.29842333 -187.81097014 485.61855193 -187.21008301 483.93788147 C-184.88870159 477.49319831 -182.45072062 471.09421086 -180.00856018 464.69459534 C-179.63691884 463.71992199 -179.26527749 462.74524865 -178.88237429 461.74103975 C-177.97054549 459.3497886 -177.05841091 456.95865455 -176.14599609 454.56762695 C-209.47168592 454.37435094 -242.79671035 454.25540406 -276.12293952 454.23489461 C-280.0653586 454.23240527 -284.00777698 454.22930623 -287.95019531 454.22583008 C-289.12739638 454.22480748 -289.12739638 454.22480748 -290.32837929 454.22376423 C-303.00386744 454.21130249 -315.67865395 454.14955085 -328.35387348 454.06929322 C-341.378625 453.98793049 -354.40271102 453.96020918 -367.42770302 453.98135507 C-375.452958 453.99272108 -383.47585646 453.96321171 -391.50069608 453.87989186 C-397.67451154 453.82029506 -403.84616495 453.83566041 -410.02007675 453.87771797 C-412.53784429 453.88344736 -415.05580329 453.86560701 -417.57318878 453.82137489 C-433.15411274 453.56415699 -442.88230178 455.28808744 -454.51587105 466.10036278 C-455.12844898 466.69376921 -455.74102692 467.28717565 -456.37216783 467.8985641 C-458.90978652 470.28630657 -461.63496538 472.27832456 -464.45849609 474.31762695 C-474.58049419 481.86412348 -484.52775029 489.63712293 -494.48999023 497.39233398 C-502.32836587 503.49225655 -510.19546887 509.55397306 -518.09130859 515.5793457 C-526.32292373 521.86209935 -534.52445106 528.18081275 -542.69335938 534.54492188 C-552.69253898 542.33401971 -562.75487293 550.0399923 -572.82739258 557.73388672 C-576.18122281 560.29647905 -579.53227308 562.86239565 -582.87255859 565.44262695 C-583.44941406 565.88799805 -584.02626953 566.33336914 -584.62060547 566.79223633 C-586.15334042 567.97670488 -587.68487477 569.16272661 -589.21630859 570.34887695 C-590.18310547 571.08106445 -591.14990234 571.81325195 -592.14599609 572.56762695 C-593.05914078 573.42668137 -593.97228546 574.28573578 -594.9131012 575.17082214 C-600.50837022 579.11305261 -607.24273063 578.22238978 -613.80200195 578.13525391 C-615.29069979 578.13384214 -616.7794011 578.13463792 -618.26809692 578.13746643 C-622.29472123 578.13889703 -626.32059601 578.10956595 -630.34704661 578.07459664 C-634.56039138 578.04327313 -638.77375463 578.04039769 -642.98719788 578.0344696 C-650.95926414 578.01894871 -658.93098628 577.97794419 -666.90290123 577.92772216 C-675.98143947 577.87177391 -685.05999441 577.84432844 -694.13866222 577.81924498 C-712.80796838 577.76702662 -731.47695454 577.67911866 -750.14599609 577.56762695 C-744.67657342 572.0656432 -744.67657342 572.0656432 -741.83349609 569.8059082 C-741.23972168 569.3320166 -740.64594727 568.858125 -740.03417969 568.36987305 C-739.4110791 567.87825684 -738.78797852 567.38664063 -738.14599609 566.88012695 C-737.15913818 566.09629639 -737.15913818 566.09629639 -736.15234375 565.29663086 C-730.3927904 560.73415571 -724.57820608 556.24493317 -718.73876953 551.78540039 C-716.03627918 549.71917999 -713.34160181 547.64281548 -710.64599609 545.56762695 C-709.5574847 544.73034802 -708.46894308 543.89310836 -707.38037109 543.0559082 C-705.26527857 541.42896278 -703.15080157 539.80122715 -701.03662109 538.1730957 C-700.00021484 537.37516602 -698.96380859 536.57723633 -697.89599609 535.75512695 C-697.3693335 535.34963623 -696.8426709 534.94414551 -696.30004883 534.52636719 C-693.21859981 532.15584561 -690.13195714 529.79230768 -687.04052734 527.43481445 C-679.70937979 521.84323302 -672.40366176 516.22505457 -665.16479492 510.5144043 C-660.90493638 507.15600959 -656.61415082 503.83986837 -652.30981445 500.53857422 C-647.67820404 496.98350402 -643.06623882 493.40356486 -638.45849609 489.81762695 C-637.69770752 489.225625 -636.93691895 488.63362305 -636.15307617 488.02368164 C-632.29789995 485.02300949 -628.44410818 482.02056861 -624.59130859 479.0168457 C-620.87083249 476.11711603 -617.14639534 473.22254618 -613.41894531 470.33178711 C-611.85691516 469.11941011 -610.29610873 467.90545534 -608.73632812 466.69018555 C-606.37653861 464.85289715 -604.01187935 463.02205847 -601.64599609 461.19262695 C-600.9214624 460.62664795 -600.19692871 460.06066895 -599.45043945 459.47753906 C-598.78278564 458.96328369 -598.11513184 458.44902832 -597.42724609 457.91918945 C-596.84007812 457.46366699 -596.25291016 457.00814453 -595.64794922 456.53881836 C-594.14599609 455.56762695 -594.14599609 455.56762695 -592.14599609 455.56762695 C-592.14599609 454.90762695 -592.14599609 454.24762695 -592.14599609 453.56762695 C-710.28599609 453.56762695 -828.42599609 453.56762695 -950.14599609 453.56762695 C-944.5246809 447.94631176 -944.5246809 447.94631176 -941.57177734 445.91137695 C-940.58467773 445.22398437 -940.58467773 445.22398437 -939.57763672 444.52270508 C-938.87832031 444.0425293 -938.17900391 443.56235352 -937.45849609 443.06762695 C-935.93309587 442.00607563 -934.40837846 440.9435426 -932.88427734 439.88012695 C-931.70986084 439.0622168 -931.70986084 439.0622168 -930.51171875 438.2277832 C-926.69363714 435.54842768 -922.92046533 432.80791053 -919.14599609 430.06762695 C-912.64588768 425.35657132 -906.1073477 420.70464413 -899.54052734 416.0871582 C-894.38032889 412.45308129 -889.25670669 408.77091295 -884.14599609 405.06762695 C-878.3403305 400.86076772 -872.5107789 396.69167423 -866.64599609 392.56762695 C-858.51802307 386.84989497 -850.45933248 381.0393837 -842.41210938 375.20874023 C-838.6595481 372.49114522 -834.9025619 369.77968223 -831.14599609 367.06762695 C-829.64597463 365.98432334 -828.14597464 364.90099 -826.64599609 363.81762695 C-817.64599609 357.31762695 -808.64599609 350.81762695 -799.64599609 344.31762695 C-798.90341553 343.78129639 -798.16083496 343.24496582 -797.39575195 342.69238281 C-795.8966516 341.60974441 -794.39746547 340.52722476 -792.89819336 339.44482422 C-789.13371441 336.72682872 -785.37077705 334.00674627 -781.61083984 331.2824707 C-774.3416724 326.01880694 -767.05470528 320.78582702 -759.70849609 315.63012695 C-752.73718945 310.73491221 -745.87024429 305.7078691 -739.0234375 300.64038086 C-733.85414016 296.8171114 -728.65434888 293.04320494 -723.41381836 289.31835938 C-718.72538762 285.98570088 -714.05776219 282.62497626 -709.39599609 279.25512695 C-708.63794678 278.70719482 -707.87989746 278.1592627 -707.09887695 277.59472656 C-705.55266512 276.47690243 -704.00652296 275.35898192 -702.46044922 274.2409668 C-697.94149997 270.97378556 -693.42038762 267.70959776 -688.89916992 264.44555664 C-685.13438288 261.72729294 -681.37110648 259.00698496 -677.61083984 256.2824707 C-662.26475665 245.1688776 -646.78729845 234.26181484 -631.14599609 223.56762695 C-630.14599609 225.56762695 -630.14599609 225.56762695 -630.58886719 227.26782227 C-630.8629541 227.97003906 -631.13704102 228.67225586 -631.41943359 229.39575195 C-631.90065674 230.65125854 -631.90065674 230.65125854 -632.39160156 231.93212891 C-632.76430176 232.88434326 -633.13700195 233.83655762 -633.52099609 234.81762695 C-634.36638179 237.02403218 -635.20997393 239.23112504 -636.05224609 241.4387207 C-636.40764969 242.36717049 -636.40764969 242.36717049 -636.77023315 243.31437683 C-639.90028301 251.50757882 -642.91799795 259.74247004 -645.94967651 267.97244263 C-650.95793323 281.56542629 -655.98436514 295.15154668 -661.04833984 308.72387695 C-661.45880554 309.82418747 -661.86927124 310.92449799 -662.29217529 312.05815125 C-664.25880205 317.32876618 -666.22722112 322.59870267 -668.19824219 327.86767578 C-672.67301783 339.8452514 -677.07762239 351.84697217 -681.44165039 363.86523438 C-681.99817969 365.3969329 -682.55474634 366.92861786 -683.11135101 368.460289 C-684.45666201 372.16257917 -685.80147225 375.86505085 -687.14599609 379.56762695 C-662.09326439 379.69419528 -637.04105521 379.75754356 -611.98798943 379.74640942 C-600.35433203 379.74270005 -588.72138214 379.75938282 -577.08789062 379.82470703 C-566.94358473 379.88161676 -556.8000681 379.89961783 -546.65562832 379.87163335 C-541.28789783 379.85816524 -535.92175306 379.8636798 -530.55422592 379.9158535 C-525.49241099 379.96443921 -520.43322806 379.96064132 -515.37138367 379.91821289 C-513.52279141 379.91166846 -511.67401765 379.92358374 -509.82570267 379.95626259 C-496.04535039 380.18423146 -489.06128249 377.04695837 -479.14599609 367.56762695 C-477.57036282 366.30801963 -475.98192367 365.06381023 -474.36865234 363.8527832 C-473.67860107 363.31814453 -472.9885498 362.78350586 -472.27758789 362.23266602 C-471.5947876 361.70382812 -470.9119873 361.17499023 -470.20849609 360.63012695 C-463.92030477 355.75134622 -457.68324641 350.81461989 -451.48046875 345.82788086 C-447.02648818 342.25393511 -442.52170083 338.75301975 -437.98632812 335.28320312 C-432.25329341 330.89453265 -426.58286487 326.42741452 -420.91210938 321.95874023 C-417.99228568 319.65888463 -415.06900522 317.36343169 -412.14599609 315.06762695 C-408.69170573 312.35426101 -405.23783559 309.64037339 -401.78662109 306.9230957 C-400.65647265 306.03369668 -399.52626373 305.14437449 -398.39599609 304.25512695 C-397.8273584 303.80766113 -397.2587207 303.36019531 -396.67285156 302.89916992 C-393.39984093 300.32719607 -390.11754504 297.76778128 -386.82568359 295.2199707 C-379.4896329 289.53996171 -372.19395473 283.82781398 -365.02099609 277.94262695 C-359.18336084 273.15510251 -353.21868763 268.58362284 -347.15209961 264.09106445 C-341.62039443 259.97394272 -336.27074937 255.65891495 -330.93945312 251.28686523 C-325.81998546 247.09431718 -320.61273885 243.03916057 -315.35302734 239.0246582 C-311.94745486 236.42360115 -308.57560045 233.78070702 -305.20849609 231.13012695 C-304.62696777 230.67234863 -304.04543945 230.21457031 -303.44628906 229.74291992 C-302.26809469 228.81503075 -301.0900351 227.88697042 -299.91210938 226.95874023 C-296.99228568 224.65888463 -294.06900522 222.36343169 -291.14599609 220.06762695 C-287.69170573 217.35426101 -284.23783559 214.64037339 -280.78662109 211.9230957 C-273.48709471 206.17809809 -266.1629471 200.46559078 -258.82763672 194.76635742 C-252.47816581 189.83103764 -246.15007774 184.86911947 -239.83154297 179.89428711 C-236.93790782 177.61676489 -234.04180286 175.34238688 -231.14599609 173.06762695 C-229.97931814 172.15097465 -228.81265146 171.234308 -227.64599609 170.31762695 C-211.31266276 157.48429362 -194.97932943 144.65096029 -178.64599609 131.81762695 C-178.06881836 131.36411865 -177.49164062 130.91061035 -176.89697266 130.44335938 C-175.72709594 129.52419383 -174.55717386 128.605086 -173.38720703 127.68603516 C-170.51928453 125.43306602 -167.65208619 123.17918972 -164.78662109 120.9230957 C-154.49619002 112.82392463 -144.15571277 104.78958024 -133.81396484 96.75610352 C-123.31573221 88.60012363 -112.83899951 80.41813118 -102.39746094 72.18969727 C-95.64053922 66.86538453 -88.86480009 61.56929112 -82.03808594 56.3347168 C-76.29226036 51.92327104 -70.60173574 47.44228516 -64.91210938 42.95874023 C-61.99228568 40.65888463 -59.06900522 38.36343169 -56.14599609 36.06762695 C-52.69170573 33.35426101 -49.23783559 30.64037339 -45.78662109 27.9230957 C-40.69307563 23.91450486 -35.59483899 19.91258945 -30.47412109 15.9387207 C-29.67329102 15.31715088 -28.87246094 14.69558105 -28.04736328 14.05517578 C-26.48629049 12.84437624 -24.92448149 11.63452507 -23.36181641 10.42578125 C-22.6409082 9.86673096 -21.92 9.30768066 -21.17724609 8.73168945 C-20.22688477 7.99619873 -20.22688477 7.99619873 -19.25732422 7.24584961 C-16.99333363 5.52673807 -16.99333363 5.52673807 -14.71066284 2.99821472 C-10.30551297 -0.64328754 -5.47295873 -0.09420031 0 0 Z " fill="#121212" transform="translate(1182.14599609375,201.432373046875)"/>
<path d="M0 0 C0.33 0.66 0.66 1.32 1 2 C0.13727794 4.51030317 -0.79875513 6.92527355 -1.8125 9.375 C-5.09058277 17.53760393 -8.11883295 25.77367969 -11.0625 34.0625 C-11.46122314 35.18382324 -11.85994629 36.30514648 -12.27075195 37.46044922 C-13.97561884 42.26510557 -15.67488793 47.07168308 -17.36279297 51.88232422 C-21.82107522 64.57604054 -26.42870924 77.21412728 -31.04101562 89.85253906 C-34.74600946 100.00812951 -38.43117759 110.16867001 -42.01327515 120.36833191 C-43.83014021 125.53713004 -45.7065643 130.68071333 -47.625 135.8125 C-49.55164123 140.99422841 -51.42182365 146.17688272 -53.125 151.4375 C-54.72132753 156.32794409 -56.64006986 161.02167805 -58.65234375 165.75390625 C-65.22622136 181.58837666 -70.72873556 197.91830503 -76.01953125 214.21875 C-77 217 -77 217 -78 218 C-80.50413517 218.09773112 -82.98066191 218.12995681 -85.48524475 218.12025452 C-86.27830833 218.12110894 -87.07137192 218.12196337 -87.88846773 218.12284368 C-90.56637396 218.1245009 -93.24421861 218.11897319 -95.92211914 218.11352539 C-97.83357237 218.11324354 -99.74502571 218.1134012 -101.65647888 218.1139679 C-106.86287459 218.11425597 -112.06924748 218.10835761 -117.27563787 218.10139394 C-122.71024159 218.09516208 -128.14484577 218.09455674 -133.57945251 218.09336853 C-143.87838758 218.09025472 -154.17731208 218.08204066 -164.47624248 218.07201904 C-176.19792757 218.06085945 -187.91961315 218.05534784 -199.64130223 218.05032361 C-223.76087402 218.03985808 -247.88043642 218.02225768 -272 218 C-268.28084435 214.2676577 -264.50298629 210.73234765 -260.5 207.3125 C-259.88688965 206.787771 -259.2737793 206.26304199 -258.64208984 205.72241211 C-254.20763431 201.95751263 -249.6726574 198.37035296 -245.03491211 194.85839844 C-240.63432299 191.51778593 -236.33995979 188.05903188 -232.0625 184.5625 C-224.78021271 178.61414004 -217.41104043 172.78667417 -210 167 C-202.571689 161.19517525 -195.17959833 155.36043572 -187.8984375 149.37109375 C-179.13845457 142.20490825 -170.25753875 135.18962499 -161.34277344 128.2175293 C-156.83025622 124.67749371 -152.37904417 121.06600498 -147.9375 117.4375 C-142.14998778 112.71042185 -136.28181251 108.12160484 -130.33984375 103.58984375 C-125.82258932 100.11471951 -121.42459661 96.49267037 -117.01171875 92.88671875 C-112.71063392 89.37663802 -108.37623814 85.91582925 -104 82.5 C-98.95146314 78.55814969 -93.96237437 74.5497538 -89 70.5 C-83.47740765 65.99305682 -77.91031228 61.55215545 -72.29125977 57.16625977 C-67.79336154 53.64624854 -63.36014298 50.05143112 -58.9375 46.4375 C-53.14640158 41.70736618 -47.27487256 37.11532773 -41.328125 32.58203125 C-37.57295368 29.69352462 -33.91418053 26.68999962 -30.25 23.6875 C-23.16864985 17.88864666 -15.93828167 12.30565506 -8.64453125 6.77734375 C-5.72552573 4.56347013 -2.84747545 2.30562576 0 0 Z " fill="#FCFCFC" transform="translate(1111,364)"/>
<path d="M0 0 C0.66 0.66 1.32 1.32 2 2 C-1.63 4.97 -5.26 7.94 -9 11 C-9.66 10.34 -10.32 9.68 -11 9 C-7.37 6.03 -3.74 3.06 0 0 Z " fill="#1E1E1F" transform="translate(769,517)"/>
<path d="M0 0 C0.66 0.66 1.32 1.32 2 2 C-0.5 4 -0.5 4 -3 6 C-3.86625 6.763125 -4.7325 7.52625 -5.625 8.3125 C-6.40875 8.869375 -7.1925 9.42625 -8 10 C-8.99 9.67 -9.98 9.34 -11 9 C-7.37 6.03 -3.74 3.06 0 0 Z " fill="#202020" transform="translate(820,477)"/>
<path d="M0 0 C-1.50139512 4.20390632 -4.17275043 5.89110738 -8 8 C-8.99 7.67 -9.98 7.34 -11 7 C-9.54634731 5.82750647 -8.08692581 4.66216184 -6.625 3.5 C-5.40683594 2.52546875 -5.40683594 2.52546875 -4.1640625 1.53125 C-2 0 -2 0 0 0 Z " fill="#1E1E1F" transform="translate(1031,313)"/>
<path d="M0 0 C2 3 2 3 1.875 5.5625 C1 8 1 8 -3 10 C-2.01 6.7 -1.02 3.4 0 0 Z " fill="#434343" transform="translate(1038,566)"/>
<path d="M0 0 C0.66 0.66 1.32 1.32 2 2 C-0.64 3.98 -3.28 5.96 -6 8 C-4.85240511 3.40962044 -3.70960782 2.66330818 0 0 Z " fill="#1B1B1B" transform="translate(1088,267)"/>
<path d="M0 0 C0.61488281 0.19078125 1.22976563 0.3815625 1.86328125 0.578125 C0.74254263 1.41718065 -0.38346422 2.24920331 -1.51171875 3.078125 C-2.13820313 3.5421875 -2.7646875 4.00625 -3.41015625 4.484375 C-5.13671875 5.578125 -5.13671875 5.578125 -7.13671875 5.578125 C-5.92340024 1.93816948 -4.18071525 -0.82544286 0 0 Z " fill="#1D1D1E" transform="translate(569.13671875,673.421875)"/>
<path d="M0 0 C-1.45255699 3.82946843 -3.42895561 5.12050295 -7 7 C-6.61402985 4.20171644 -6.19863427 3.1794116 -4.0625 1.25 C-2 0 -2 0 0 0 Z " fill="#1C1C1D" transform="translate(840,463)"/>
<path d="M0 0 C-1.45255699 3.82946843 -3.42895561 5.12050295 -7 7 C-7 6.01 -7 5.02 -7 4 C-2.65714286 0 -2.65714286 0 0 0 Z " fill="#1B1B1B" transform="translate(910,408)"/>
<path d="M0 0 C0 3 0 3 -1.5 4.6875 C-1.995 5.120625 -2.49 5.55375 -3 6 C-3.99 5.67 -4.98 5.34 -6 5 C-2.25 1.125 -2.25 1.125 0 0 Z " fill="#1D1D1D" transform="translate(338,578)"/>
<path d="M0 0 C0.99 0.33 1.98 0.66 3 1 C0.36 2.98 -2.28 4.96 -5 7 C-5 6.01 -5 5.02 -5 4 C-2.6875 1.75 -2.6875 1.75 0 0 Z " fill="#191919" transform="translate(750,532)"/>
</svg>
