<?xml version="1.0" encoding="UTF-8"?>
<svg version="1.1" xmlns="http://www.w3.org/2000/svg" width="1920" height="819">
<path d="M0 0 C633.6 0 1267.2 0 1920 0 C1920 270.27 1920 540.54 1920 819 C1286.4 819 652.8 819 0 819 C0 548.73 0 278.46 0 0 Z " fill="#FDFDFD" transform="translate(0,0)"/>
<path d="M0 0 C1.5082828 -0.00567697 1.5082828 -0.00567697 3.04703596 -0.01146862 C4.71205923 -0.01010073 4.71205923 -0.01010073 6.41071934 -0.0087052 C7.59064971 -0.01165662 8.77058009 -0.01460805 9.98626593 -0.01764891 C13.28163121 -0.02485274 16.57694562 -0.02754715 19.87231511 -0.02837186 C23.45001794 -0.03033783 27.0277092 -0.03801203 30.60540521 -0.04494441 C37.71076227 -0.05777794 44.81611567 -0.06514802 51.92148163 -0.07084319 C60.42903374 -0.07789432 68.93657493 -0.09065284 77.44412008 -0.10339238 C98.99065196 -0.13527034 120.53719108 -0.15508537 142.08373865 -0.1726779 C147.92024719 -0.17744514 153.7567555 -0.18245393 159.5932638 -0.18748313 C195.82199568 -0.21853375 232.05072939 -0.24515234 268.27947086 -0.26190192 C276.67615077 -0.26583918 285.07283065 -0.26985101 293.4695105 -0.27392679 C295.03429184 -0.2746793 295.03429184 -0.2746793 296.63068493 -0.275447 C330.43612239 -0.29185682 364.24148737 -0.33030012 398.04688918 -0.3812139 C432.80051647 -0.4334603 467.55410517 -0.46622028 502.30777252 -0.47347945 C507.21895388 -0.47450802 512.13013517 -0.47574433 517.04131645 -0.47709948 C518.49114478 -0.47748653 518.49114478 -0.47748653 519.97026257 -0.47788141 C535.51246672 -0.48257267 551.05457525 -0.50749262 566.59674363 -0.53985091 C582.22921013 -0.57192175 597.86156922 -0.58184397 613.4940647 -0.56941896 C622.77527707 -0.56269327 632.05611989 -0.57255365 641.33727434 -0.60654596 C647.54672376 -0.62762278 653.75592422 -0.62665433 659.96538118 -0.60821255 C663.49732993 -0.59833742 667.02857707 -0.59760022 670.56045765 -0.62387537 C692.38778851 -0.75682262 711.7257187 1.20297124 728.34719604 16.7561025 C733.37183286 22.0012563 736.84366868 27.70206986 740.15969604 34.1311025 C740.64438354 35.06954 741.12907104 36.0079775 741.62844604 36.9748525 C742.8297225 39.34946875 744.00096883 41.73553163 745.15969604 44.1311025 C745.81969604 45.4511025 746.47969604 46.7711025 747.15969604 48.1311025 C741.21969604 48.1311025 735.27969604 48.1311025 729.15969604 48.1311025 C725.47219604 41.0061025 725.47219604 41.0061025 724.3445105 38.79858297 C718.54047163 27.75938189 710.51837005 21.99481471 698.83547729 17.89282125 C692.1008085 15.97565276 685.58619893 15.98939058 678.63818592 16.00246805 C676.87915018 15.99983849 676.87915018 15.99983849 675.08457837 15.99715582 C671.82361056 15.99330007 668.56267883 15.99392707 665.30171084 15.99643359 C661.75630199 15.9980662 658.21089912 15.99392623 654.66549218 15.99052441 C648.44980225 15.98536839 642.23412012 15.98395356 636.01842827 15.98498052 C626.77573996 15.9865039 617.53306028 15.98234722 608.29037365 15.9771059 C590.82531705 15.96742868 573.36026337 15.96462155 555.8952044 15.96404884 C542.41329623 15.96358963 528.93138922 15.96153303 515.44948143 15.95834821 C511.57145564 15.95745071 507.69342985 15.95656089 503.81540406 15.95567334 C502.85138279 15.95545229 501.88736153 15.95523124 500.8941275 15.95500349 C473.77498756 15.94884853 446.65584801 15.94490302 419.53670734 15.94534677 C418.00268031 15.94537014 418.00268031 15.94537014 416.43766283 15.94539398 C411.25401613 15.94547709 406.07036942 15.94557613 400.88672272 15.94567869 C399.85718904 15.94569863 398.82765537 15.94571858 397.7669237 15.94573913 C395.68495765 15.94577957 393.60299161 15.94582136 391.52102557 15.94586452 C359.10850434 15.94647766 326.69599357 15.93896387 294.28347534 15.92529196 C257.88888626 15.90994678 221.49430405 15.90132474 185.09971154 15.90225518 C181.22262881 15.90232981 177.34554609 15.90237852 173.46846336 15.90240949 C172.03644979 15.90242698 172.03644979 15.90242698 170.57550666 15.90244481 C155.18396734 15.90247564 139.79243705 15.89607838 124.40090042 15.88747723 C108.94719461 15.8790196 93.4935021 15.87799596 78.03979526 15.88458655 C68.84885609 15.88829448 59.6579572 15.88641295 50.46702227 15.87664421 C44.33698363 15.87067692 38.20697439 15.87190313 32.07693715 15.87911471 C28.57828253 15.88302386 25.07970625 15.88369331 21.58105693 15.87565736 C17.82185853 15.868681 14.06287345 15.8738244 10.30368274 15.88221353 C9.20467617 15.87724535 8.1056696 15.87227717 6.97335979 15.86715844 C5.97766398 15.87190925 4.98196816 15.87666007 3.95609975 15.88155484 C3.09564924 15.88146662 2.23519873 15.8813784 1.34867396 15.8812875 C-1.13182664 15.99555554 -1.13182664 15.99555554 -3.84030396 18.1311025 C-3.42217412 24.96954856 -2.03705262 29.7931188 1.28469604 35.7561025 C1.69357055 36.4995693 2.10244507 37.2430361 2.52370971 38.00903219 C8.13374303 47.92443991 14.03223409 52.88256918 25.15969604 56.1311025 C31.06535694 56.82948843 36.91160271 56.81078372 42.8512854 56.77033895 C44.62706543 56.77665928 46.40283878 56.78516742 48.17859906 56.79565918 C53.03151512 56.81806267 57.88395283 56.80963798 62.7368831 56.7959736 C67.9801163 56.78668289 73.22325286 56.80627407 78.46645874 56.82229513 C87.54177942 56.84610179 96.61696432 56.85175222 105.6923117 56.84494871 C118.8135884 56.83513852 131.93471481 56.85290022 145.05596718 56.87731602 C166.34608066 56.91618692 187.63615107 56.93286746 208.92629761 56.93554586 C229.6034034 56.93819477 250.28045889 56.95132385 270.95754761 56.97851461 C272.87046974 56.98102468 272.87046974 56.98102468 274.82203677 56.98358545 C281.21997189 56.99204514 287.61790672 57.00071052 294.01584142 57.00947815 C347.06378403 57.08190831 400.11170783 57.11830568 453.15969604 57.1311025 C453.15969604 61.4211025 453.15969604 65.7111025 453.15969604 70.1311025 C451.10520044 70.13956638 449.05070484 70.14803026 446.9339518 70.15675062 C398.21295 70.35777424 349.49200243 70.56929017 300.77110086 70.79333638 C294.78019022 70.820877 288.78927919 70.84833098 282.79836792 70.87573141 C281.60563724 70.88118802 280.41290657 70.88664463 279.18403254 70.89226659 C259.84725787 70.98052331 240.51045969 71.06175373 221.17364384 71.14040773 C201.34640052 71.22121221 181.51920096 71.30952049 161.69202214 71.4048596 C149.44818194 71.46349572 137.20434519 71.51621159 124.96044807 71.56146045 C116.57524506 71.59300855 108.19009566 71.63181596 99.8049521 71.67643933 C94.96026949 71.70200363 90.11562837 71.72426442 85.27089638 71.73794073 C80.84203924 71.75051334 76.41332497 71.77212972 71.98454605 71.80116911 C70.37619209 71.8100774 68.76781511 71.81556732 67.15943755 71.81742649 C64.98516495 71.82042247 62.81131216 71.83548865 60.63712257 71.8537721 C59.42581472 71.85908819 58.21450686 71.86440427 56.96649271 71.86988145 C54.02253352 71.84257246 54.02253352 71.84257246 52.15969604 74.1311025 C52.40211952 78.9189661 54.96310436 82.59783963 57.40969604 86.5686025 C57.79254761 87.21120016 58.17539917 87.85379781 58.56985229 88.51586813 C63.50134027 96.63880401 68.63109776 101.75050429 77.15969604 106.1311025 C77.82485229 106.47528219 78.49000854 106.81946188 79.17532104 107.17407125 C84.02395709 109.20706235 88.83294131 109.31545003 94.02297729 109.28344625 C94.80481888 109.28053076 95.58666046 109.27761526 96.39219421 109.27461141 C105.71498253 109.18725889 115.00880759 108.6140416 124.31033081 108.01415914 C127.27083197 107.82351991 130.23175764 107.64156604 133.19289917 107.46118063 C145.20464932 106.71525334 157.20205952 105.82464709 169.19944328 104.8801946 C183.77594005 103.73384723 198.35385671 102.69802816 212.94875854 101.81469625 C213.80726473 101.76268497 214.66577091 101.71067369 215.55029243 101.65708631 C222.51403108 101.23643052 229.47821581 100.82336179 236.44247192 100.41137594 C242.54898303 100.0498935 248.65528298 99.68512092 254.76125854 99.31469625 C255.58912935 99.26455311 256.41700016 99.21440996 257.26995796 99.16274732 C268.20173593 98.49568588 279.10030926 97.69284544 289.99197143 96.52563375 C294.64379098 96.04556595 299.30019929 95.8616953 303.97219604 95.6936025 C314.55587972 95.27859056 325.10049698 94.50511263 335.65969604 93.6936025 C339.19223605 93.42261135 342.72478183 93.15169633 346.25735229 92.8811025 C347.1198761 92.81499777 347.9823999 92.74889303 348.87106079 92.68078512 C357.06819251 92.05572166 365.26937112 91.50537916 373.47317261 90.97558492 C382.42987213 90.3917894 391.38277722 89.76167295 400.33547729 89.11938375 C402.91693584 88.93501504 405.49839746 88.75068932 408.07986206 88.56640524 C411.97388585 88.28835374 415.86780787 88.0091475 419.76147217 87.72610372 C423.43045199 87.45950006 427.09972357 87.19727814 430.76907104 86.93579 C432.4190081 86.81407179 432.4190081 86.81407179 434.10227722 86.68989462 C440.47388566 86.24038874 446.77212509 86.05507756 453.15969604 86.1311025 C453.15969604 90.4211025 453.15969604 94.7111025 453.15969604 99.1311025 C426.8294183 101.21328835 400.49755749 103.27188937 374.15969604 105.2561025 C373.09772003 105.33614523 372.03574402 105.41618795 370.94158691 105.49865621 C364.72544071 105.9668345 358.50909026 106.43221278 352.29263061 106.8962087 C349.12282498 107.13386693 345.95326358 107.37460262 342.78371948 107.61572164 C330.60598198 108.53696987 318.42522452 109.3914654 306.23782104 110.17407125 C305.53820818 110.21900465 304.83859531 110.26393804 304.11778206 110.31023306 C301.19023546 110.49813569 298.26267685 110.68585064 295.33511204 110.87346929 C262.68988978 112.96740623 230.05963457 115.24905263 197.43525451 117.64544958 C194.22428633 117.8809492 191.01323097 118.1152266 187.8021521 118.34921163 C182.7338759 118.71882455 177.66586709 119.09190827 172.59805626 119.46784681 C170.72153529 119.60665559 168.8449403 119.74446773 166.96826881 119.88122648 C164.39260267 120.06925763 161.81726289 120.26125881 159.24197143 120.45434469 C158.11529997 120.53536822 158.11529997 120.53536822 156.96586746 120.61802858 C153.2901912 120.8980374 149.7627067 121.36395489 146.15969604 122.1311025 C143.36915341 122.34521828 140.59047135 122.5247078 137.79641479 122.66625875 C137.00443191 122.70923589 136.21244903 122.75221304 135.39646667 122.79649252 C132.8802114 122.93225917 130.3637242 123.06300183 127.84719604 123.1936025 C126.13558972 123.28506732 124.42400092 123.37686059 122.71243042 123.46899313 C118.52837894 123.69350043 114.34411228 123.91350399 110.15969604 124.1311025 C109.3190956 126.49934534 109.00723233 127.71291043 109.88137573 130.11059469 C111.20109981 132.38387043 112.52717484 134.64521241 113.90969604 136.8811025 C114.65763427 138.09455343 114.65763427 138.09455343 115.42068237 139.33251852 C119.73511234 146.0225599 124.05101098 150.3580312 131.15969604 154.1311025 C131.81196167 154.50364156 132.46422729 154.87618063 133.13625854 155.26000875 C141.71712884 159.33135785 152.2816759 157.38823836 161.24245971 155.67724508 C166.11241104 154.7655302 171.00907993 154.04415807 175.90969604 153.3186025 C177.05236938 153.14901022 178.19504272 152.97941793 179.37234253 152.80468649 C190.47416844 151.18443582 201.6007321 149.77931881 212.73180908 148.37756246 C224.41608747 146.90338244 236.07509059 145.31209476 247.72219604 143.5686025 C266.70409366 140.73212065 285.71880438 138.1887022 304.76125854 135.795165 C308.66499065 135.30365996 312.56862283 134.81136791 316.47219604 134.3186025 C317.46829895 134.19300955 318.46440185 134.06741659 319.49068969 133.93801779 C335.85203744 131.86943026 352.17290422 129.57340868 368.49102539 127.19021505 C387.10326359 124.48060414 405.75222875 122.16788952 424.43435425 119.99633688 C425.45279922 119.87757192 426.4712442 119.75880697 427.52055115 119.63644308 C429.42039391 119.41560851 431.3204765 119.19682344 433.22083801 118.98049825 C437.24756617 118.51444898 441.191544 117.97675863 445.15969604 117.1311025 C446.59598061 117.06843738 448.03475154 117.04423904 449.47219604 117.0686025 C450.68907104 117.0892275 451.90594604 117.1098525 453.15969604 117.1311025 C453.15969604 121.4211025 453.15969604 125.7111025 453.15969604 130.1311025 C452.15036011 130.22907125 451.14102417 130.32704 450.10110229 130.4279775 C441.33662744 131.32007028 432.66135371 132.49123403 423.97219604 133.9436025 C413.14650761 135.73813562 402.2950401 137.19641852 391.40969604 138.5686025 C390.58384002 138.67289572 389.75798401 138.77718893 388.90710205 138.88464254 C385.52990539 139.31111853 382.15269548 139.73748913 378.77543396 140.16345114 C369.773343 141.3014266 360.77742501 142.48397036 351.78469604 143.6936025 C351.006203 143.79824819 350.22770996 143.90289388 349.42562622 144.01071066 C339.22362726 145.38741183 329.0606938 146.91596768 318.90627807 148.61181539 C308.33816062 150.33748659 297.71608774 151.62464008 287.09228271 152.95184225 C276.97841955 154.21766256 266.90156098 155.57016463 256.84719604 157.2561025 C247.68431479 158.78966438 238.52045973 159.96355443 229.28689331 160.982665 C220.43707747 161.96412578 211.61056686 163.0818616 202.78469604 164.2561025 C200.84010498 164.51230367 200.84010498 164.51230367 198.85622925 164.77368063 C197.64926391 164.93545797 196.44229858 165.09723531 195.19875854 165.263915 C193.59315063 165.47878561 193.59315063 165.47878561 191.9551062 165.69799703 C189.6324403 166.05785811 187.4315364 166.54656309 185.15969604 167.1311025 C183.74434826 167.19567129 182.32631915 167.21721289 180.90969604 167.1936025 C179.05344604 167.162665 179.05344604 167.162665 177.15969604 167.1311025 C177.15969604 167.7911025 177.15969604 168.4511025 177.15969604 169.1311025 C177.84032104 169.21746969 178.52094604 169.30383688 179.22219604 169.39282125 C185.09295332 170.24376878 190.62982572 171.49450307 196.27688354 173.3186025 C197.69156632 173.76918555 199.10662565 174.21858754 200.52200073 174.66699117 C201.27155029 174.90477285 202.02109985 175.14255453 202.79336303 175.38754171 C209.68464531 177.55295431 216.60958411 179.6061111 223.54202026 181.63525289 C225.37620722 182.17584334 227.20825347 182.7237488 229.03811401 183.27880758 C242.58963657 187.38383084 254.55157079 190.08535636 268.65969604 186.7561025 C274.57751786 185.44375652 280.43590838 184.48265422 286.45266479 183.7561025 C289.55842013 183.23247673 292.49399556 182.55865228 295.53786987 181.77001852 C302.25950447 180.07392556 309.0220154 178.65668083 315.81594604 177.28344625 C317.08007324 177.0260819 318.34420044 176.76871755 319.64663452 176.50355428 C322.30184899 175.96322412 324.95743001 175.42474675 327.61330932 174.8876943 C330.98219412 174.20634796 334.35019123 173.52072573 337.71793121 172.8337459 C340.97933335 172.16899316 344.24141306 171.50759654 347.50344604 170.84594625 C348.69441894 170.60319463 349.88539184 170.36044302 351.11245483 170.11033529 C356.58865033 169.00503328 362.05859274 167.96695618 367.57571167 167.08642477 C371.89045379 166.38696622 375.96894016 165.38946681 380.15969604 164.1311025 C383.23063169 163.41468731 386.3174076 162.77923336 389.40578979 162.14282125 C390.28637054 161.95914999 391.16695129 161.77547872 392.07421631 161.58624166 C394.91467307 160.99441349 397.75588132 160.40629672 400.59719604 159.8186025 C402.54734467 159.41390311 404.49745852 159.00903609 406.44753784 158.60400289 C409.34453666 158.00231188 412.24157233 157.40080713 415.13883728 156.80039877 C420.47019177 155.69458884 425.79751288 154.57276488 431.12063354 153.4279775 C432.22221802 153.1924819 433.32380249 152.95698629 434.45876831 152.71435446 C436.40036686 152.29828639 438.34104407 151.87788345 440.28054565 151.45214742 C441.12367309 151.27272604 441.96680053 151.09330465 442.83547729 150.90844625 C443.53584106 150.75625631 444.23620483 150.60406637 444.95779175 150.44726461 C447.66601518 150.05840228 450.42369749 150.1311025 453.15969604 150.1311025 C453.15969604 154.4211025 453.15969604 158.7111025 453.15969604 163.1311025 C451.15963501 163.55931295 449.15957397 163.9875234 447.09890503 164.42870992 C440.38945837 165.86524933 433.68009769 167.30218999 426.97077602 168.73931307 C422.91456713 169.60813252 418.85833196 170.47682886 414.80203003 171.34521383 C410.10736737 172.35028096 405.41279559 173.35577171 400.71828979 174.36157125 C399.95210705 174.5257039 399.1859243 174.68983656 398.39652389 174.85894293 C388.04687803 177.07656388 377.69986272 179.30563458 367.36146301 181.57524008 C361.63996724 182.82695727 355.90464172 183.99243049 350.15969604 185.1311025 C343.76820381 186.4170004 337.37951995 187.71678758 330.99099487 189.01733297 C328.97330417 189.42756139 326.95539889 189.83673584 324.93728393 190.24487203 C321.99655887 190.83974334 319.05658048 191.43818915 316.11672729 192.0373525 C314.77430717 192.3077535 314.77430717 192.3077535 313.40476745 192.58361715 C308.57995774 193.57110054 303.87878425 194.72335655 299.15969604 196.1311025 C297.45698798 196.53086874 295.74888593 196.90885503 294.03469604 197.2561025 C293.22774292 197.42368063 292.42078979 197.59125875 291.58938354 197.763915 C289.07606588 198.14374114 286.69758593 198.19432396 284.15969604 198.1311025 C284.15969604 198.7911025 284.15969604 199.4511025 284.15969604 200.1311025 C285.32162475 200.25332174 286.48355346 200.37554098 287.68069214 200.50146383 C291.84533864 201.02480221 295.80510458 202.01074672 299.82375854 203.20532125 C300.88367759 203.51221128 300.88367759 203.51221128 301.96500915 203.82530111 C303.46655139 204.26063579 304.96733866 204.6985819 306.46740478 205.13897604 C308.81068856 205.82622571 311.15625623 206.5050663 313.50271362 207.18139547 C316.61795541 208.07948102 319.73268721 208.97927938 322.84670776 209.88159078 C323.57847229 210.09358114 324.31023681 210.3055715 325.06417602 210.5239858 C325.75569763 210.72433431 326.44721924 210.92468282 327.15969604 211.1311025 C331.38466873 212.35493833 335.61287758 213.56503693 339.84719604 214.7561025 C340.69298218 215.00319967 341.53876831 215.25029684 342.41018432 215.5048818 C369.45744777 223.0456832 408.34606009 203.2199531 434.14968628 194.50988668 C435.55623212 194.03642883 436.96394076 193.56641038 438.37283081 193.09997457 C441.33939828 192.11343499 444.26027208 191.08974965 447.15237182 189.90063375 C456.71026315 186.10630341 466.29846496 186.68598317 476.40969604 186.8811025 C478.23389506 186.90120923 480.05811562 186.91945258 481.88235229 186.93579 C486.30867457 186.97942994 490.73394174 187.04822321 495.15969604 187.1311025 C494.15969604 189.1311025 494.15969604 189.1311025 492.46072143 189.84545797 C491.73360962 190.06089254 491.0064978 190.27632711 490.25735229 190.49829 C489.04402221 190.86760641 489.04402221 190.86760641 487.80618042 191.24438375 C486.52710815 191.62143453 486.52710815 191.62143453 485.22219604 192.0061025 C480.22272738 193.49530593 475.30290131 195.02257907 470.47659057 197.01196188 C465.36998431 199.07461791 460.20675589 200.90267699 454.99172729 202.670165 C454.04547485 202.99293417 453.09922241 203.31570333 452.12429565 203.64825338 C449.07460267 204.6871906 446.02347782 205.72184172 442.97219604 206.7561025 C441.93300018 207.1094869 440.89380432 207.4628713 439.82311767 207.82696432 C425.30955724 212.76200235 410.77072018 217.60550324 396.149198 222.21166891 C395.00410766 222.57437887 393.85901733 222.93708883 392.67922729 223.31079 C391.21126709 223.77074362 391.21126709 223.77074362 389.71365112 224.23998922 C387.40527754 225.04541543 385.31199731 225.97859423 383.15969604 227.1311025 C384.25846069 227.43290426 385.35722534 227.73470602 386.48928589 228.04565328 C390.61238271 229.18245592 394.72973311 230.33900232 398.8457312 231.50121969 C400.61899124 231.99903339 402.39371451 232.49166806 404.16994995 232.97875875 C422.11088668 237.90570142 422.11088668 237.90570142 429.19216675 242.96411031 C433.91189171 245.76350048 439.02306407 244.61374988 444.11672729 243.46313375 C459.03046152 239.25198068 472.75654363 231.96609888 486.33205932 224.65307516 C489.46744754 222.96545557 492.60819173 221.28807004 495.74953979 219.61157125 C506.15209055 214.05539213 516.54433435 208.48029263 526.90798706 202.85180563 C528.93570578 201.75450138 530.96741193 200.66453083 533.0032019 199.58227438 C537.12289079 197.38436973 541.15906702 195.20659082 544.99953979 192.545165 C556.87208532 184.60839006 570.41626313 186.38300399 584.15969604 187.1311025 C581.19295346 189.46037756 578.14376072 191.3484525 574.84719604 193.1779775 C573.78597534 193.76788473 572.72475464 194.35779196 571.63137573 194.96557516 C570.48572143 195.59769918 569.34006714 196.22982321 568.15969604 196.8811025 C566.95296912 197.54952128 565.74626378 198.21797902 564.53957886 198.8864736 C555.44897238 203.91235333 546.29998385 208.82487732 537.12945312 213.70309347 C529.37772108 217.82834016 521.70949899 222.06728486 514.09719604 226.4436025 C505.00476898 231.64361109 495.7741823 236.5568582 486.47320312 241.37094015 C484.95859792 242.1550249 483.44510321 242.9412594 481.93285888 243.7298879 C455.06792921 257.71734488 455.06792921 257.71734488 447.15969604 257.1311025 C456.30795902 271.31197635 467.56908789 283.94310017 484.15969604 289.1311025 C493.32378138 290.35985908 501.00040227 289.40695131 509.15969604 285.1311025 C510.34112182 284.58196188 510.34112182 284.58196188 511.54641479 284.0217275 C521.55196347 279.05725925 530.30099844 271.86021199 539.15969604 265.1311025 C539.76603882 264.67155172 540.37238159 264.21200094 540.99709839 263.73852438 C544.14826281 261.34495045 547.28085111 258.9281363 550.40334839 256.49731344 C552.40933143 254.93691851 554.41926709 253.38168326 556.42922729 251.826415 C564.25414839 245.76438436 572.04007257 239.65885118 579.75686401 233.45971578 C583.87028238 230.15643279 588.00619799 226.88382087 592.15969604 223.6311025 C597.65030871 219.33043226 603.10266867 214.98410126 608.54324096 210.62036031 C611.64160979 208.13779884 614.74594226 205.66357339 617.86672729 203.2092275 C618.46557739 202.73783346 619.06442749 202.26643942 619.68142456 201.78076071 C620.8680771 200.8532789 622.05994691 199.93243097 623.25710815 199.01855367 C625.87670593 197.00720219 628.22724767 195.06053118 630.51907104 192.66625875 C635.52300556 187.61796311 639.41073268 186.71248636 646.34304565 186.59277242 C650.62490794 186.64856563 654.88857875 186.82459119 659.15969604 187.1311025 C656.2139929 191.13240871 652.91079939 194.09902061 648.97219604 197.0686025 C643.44507882 201.31977883 638.02507691 205.67758106 632.65969604 210.1311025 C626.96881304 214.84480183 621.22642963 219.47564805 615.39797729 224.01782125 C610.93880439 227.49964119 606.54230579 231.05352607 602.15969604 234.6311025 C596.66088553 239.11984689 591.11401501 243.53650048 585.51467651 247.89892477 C580.86623776 251.53743097 576.32338358 255.29457956 571.78469604 259.0686025 C564.41985495 265.17718603 556.86054534 270.96322659 549.16116089 276.64135641 C547.10029151 278.17531895 545.05987453 279.73344297 543.02297729 281.29907125 C522.36327426 297.1311025 522.36327426 297.1311025 517.15969604 297.1311025 C517.15969604 297.7911025 517.15969604 298.4511025 517.15969604 299.1311025 C517.87770386 299.28965719 518.59571167 299.44821188 519.33547729 299.61157125 C526.00279576 301.11441639 532.61721219 302.75213279 539.22219604 304.5061025 C540.84849498 304.93449986 542.47479713 305.36288504 544.10110229 305.79125875 C546.66578282 306.46780638 549.22854105 307.1498133 551.78811401 307.84545797 C569.96734097 313.345268 569.96734097 313.345268 587.71438354 308.78344625 C592.30906751 305.67873168 596.21044739 302.00982886 600.15969604 298.1311025 C600.75008667 297.55440817 601.34047729 296.97771383 601.94875854 296.38354391 C611.53167401 287.01849355 611.53167401 287.01849355 620.49953979 277.07250875 C622.61672066 274.59665254 624.82751434 272.21448982 627.03469604 269.8186025 C630.32401843 266.2171908 633.4798724 262.55802975 636.53469604 258.7561025 C640.92313732 253.31723646 645.62416016 248.22381346 650.38625854 243.1154775 C653.73106905 239.52712368 656.96571822 235.85410356 660.15969604 232.1311025 C660.57654663 231.6459316 660.99339721 231.16076071 661.42287964 230.66088766 C664.47903848 227.10333606 667.52990501 223.54127764 670.57912964 219.97778219 C673.59670712 216.45214795 676.61743855 212.92921486 679.63869995 209.40673727 C682.25497445 206.35584997 684.86788444 203.30216296 687.47610229 200.24438375 C688.01944214 199.60823141 688.56278198 198.97207906 689.12258667 198.31664938 C690.16267177 197.09877195 691.20178816 195.88006633 692.23977417 194.66039938 C693.53699204 193.1425299 694.84764203 191.63616603 696.15969604 190.1311025 C696.59797729 189.50977438 697.03625854 188.88844625 697.48782104 188.24829 C700.43979466 186.2757095 703.92572716 186.82706339 707.34719604 186.9436025 C708.09678589 186.95713766 708.84637573 186.97067281 709.61868042 186.98461813 C711.46599371 187.01991711 713.3129367 187.07372333 715.15969604 187.1311025 C711.23237251 195.72455301 703.78403639 202.78038608 697.65212768 209.88867086 C694.62118224 213.40692799 691.64439814 216.95882344 688.72219604 220.5686025 C684.10175393 226.25658359 679.29900382 231.77675101 674.48782104 237.3029775 C671.34027989 240.91844579 668.21437352 244.55194429 665.09719604 248.1936025 C664.60557983 248.76771871 664.11396362 249.34183492 663.60744995 249.9333486 C662.12451356 251.66563259 660.64202277 253.3982968 659.15969604 255.1311025 C655.67618828 259.2032426 652.19009647 263.27312309 648.69827026 267.33813375 C647.66225334 268.54545021 646.627445 269.75380469 645.59377807 270.96313375 C638.38513318 279.39429737 630.9949891 287.60991074 623.38625854 295.68188375 C620.62681498 298.61469972 617.94594676 301.60861672 615.28469604 304.6311025 C610.09672186 310.43623346 604.28656705 315.34448453 598.15969604 320.1311025 C606.24232373 322.98959278 614.48276607 325.09188498 622.78469604 327.1936025 C624.86366778 327.72254443 626.94239145 328.25243857 629.02087158 328.78330892 C630.90084038 329.26307987 632.78146906 329.74026293 634.66213745 330.21728414 C637.09416621 330.8527081 639.51679344 331.52478111 641.93093628 332.22509664 C648.06683136 333.94685896 654.50847921 334.23847342 660.40969604 331.5686025 C667.25755847 327.44398154 672.04180512 321.38909179 676.22219604 314.6936025 C676.68206909 313.96898824 677.14194214 313.24437399 677.61575073 312.49780172 C695.81511094 283.52998287 711.79168235 253.14335921 728.0644812 223.06957906 C732.82756404 214.26734586 737.598528 205.46966932 742.40969604 196.6936025 C742.8757727 195.84072653 743.34184936 194.98785055 743.82204956 194.10912985 C744.24800415 193.33391989 744.67395874 192.55870992 745.11282104 191.76000875 C745.48568237 191.08010885 745.8585437 190.40020895 746.24270386 189.69970602 C747.15969604 188.1311025 747.15969604 188.1311025 748.15969604 187.1311025 C750.69247254 187.05790087 753.19073522 187.03882681 755.72219604 187.0686025 C757.03567016 187.0796401 758.34914428 187.0906777 759.70242065 187.10204977 C760.84332153 187.11163717 761.98422241 187.12122457 763.15969604 187.1311025 C757.81181029 197.87516596 752.40475318 208.58653847 746.90969604 219.2561025 C746.54219238 219.96999136 746.17468872 220.68388021 745.79604858 221.41940206 C739.8996616 232.86245775 733.84175809 244.20384409 727.61770386 255.4724111 C726.070481 258.29378699 724.54621403 261.12664552 723.02688354 263.96313375 C715.38932765 278.21273659 707.42170826 292.23445186 699.15969604 306.1311025 C698.65132202 306.99058492 698.142948 307.85006735 697.6191687 308.73559469 C683.38122435 332.75060736 683.38122435 332.75060736 675.15969604 340.1311025 C674.49969604 340.1311025 673.83969604 340.1311025 673.15969604 340.1311025 C673.15969604 340.7911025 673.15969604 341.4511025 673.15969604 342.1311025 C675.12809448 342.30899313 675.12809448 342.30899313 677.13625854 342.4904775 C681.77572409 343.00859041 686.06858887 344.05643979 690.53469604 345.3811025 C692.1087371 345.82834293 693.6829623 346.27493572 695.25735229 346.72094625 C697.71616294 347.42564444 700.17333255 348.13509769 702.62795776 348.85424703 C719.52322003 354.14466028 719.52322003 354.14466028 736.59719604 351.6311025 C751.40821629 342.59544864 756.80953345 314.86571167 760.75539917 299.07128805 C761.22366909 297.13362687 761.68102926 295.19333625 762.13674682 293.25268453 C763.11633302 289.20187751 764.28882785 285.22448163 765.49563354 281.23657125 C767.89786509 273.17996462 770.03890341 265.07242047 772.09673828 256.92196554 C773.06712376 253.08087608 774.04877927 249.24267124 775.03078979 245.40454 C775.21995468 244.66481451 775.40911957 243.92508901 775.60401672 243.1629476 C777.08522039 237.3862574 778.63843596 231.63357371 780.26809448 225.89697164 C781.62670071 221.09800497 782.92459397 216.28412117 784.20266479 211.46313375 C784.38378311 210.78038885 784.56490143 210.09764395 784.75150818 209.3942098 C785.66482185 205.94883252 786.57510156 202.50268007 787.48220581 199.05566305 C787.97998535 197.17488058 787.97998535 197.17488058 788.48782104 195.2561025 C788.78591675 194.12430563 789.08401245 192.99250875 789.39114136 191.826415 C790.15969604 189.1311025 790.15969604 189.1311025 791.15969604 187.1311025 C795.77969604 187.1311025 800.39969604 187.1311025 805.15969604 187.1311025 C799.42281703 212.64148545 799.42281703 212.64148545 795.914823 224.85107321 C794.50993578 229.76902648 793.2916 234.70616849 792.15969604 239.6936025 C790.90999421 245.17802258 789.48794399 250.5635519 787.84719604 255.9436025 C785.54954001 263.4831787 783.65445386 271.10032795 781.78469604 278.7561025 C778.89116625 290.55060559 775.57310136 302.15318132 771.91457886 313.73120016 C771.23040061 315.90632051 770.56129084 318.08508595 769.90188354 320.26782125 C768.47848893 324.97556713 767.03969599 329.58298036 765.15969604 334.1311025 C769.47273802 330.38429788 773.74743531 326.60232468 777.97219604 322.7561025 C803.879815 299.42734301 803.879815 299.42734301 817.53078979 299.8342275 C831.50716177 301.41253994 842.60823999 313.38461863 852.42141479 322.57250875 C854.84582497 324.83782782 857.29526929 327.06271569 859.78469604 329.2561025 C860.39571167 329.79493063 861.00672729 330.33375875 861.63625854 330.888915 C863.15550242 332.22009899 863.15550242 332.22009899 865.15969604 333.1311025 C864.97382934 332.59968649 864.78796264 332.06827047 864.59646362 331.52075094 C860.90638067 320.89968015 857.55143675 310.30975001 854.93435425 299.3720693 C853.66665758 294.08956639 852.24459844 288.88927789 850.65969604 283.6936025 C848.44659453 276.41195239 846.68006674 269.05975564 844.96438354 261.64697164 C843.85706757 256.91084542 842.65390005 252.26373502 841.15969604 247.6311025 C839.20696498 241.54044133 837.75028426 235.38320487 836.30740112 229.15722555 C833.96937048 219.14634045 831.36002598 209.20725138 828.75051636 199.26440328 C828.57911636 198.6076914 828.40771637 197.95097952 828.23112243 197.27436727 C827.76086079 195.4726237 827.28787562 193.67159161 826.81472534 191.87060446 C826.15969604 189.1311025 826.15969604 189.1311025 826.15969604 187.1311025 C830.77969604 187.1311025 835.39969604 187.1311025 840.15969604 187.1311025 C846.92140319 210.90425154 846.92140319 210.90425154 849.65969604 222.1936025 C851.72196233 230.68554141 854.15482679 239.04491967 856.64407104 247.42040914 C858.3260545 253.126942 859.86778862 258.82426628 861.15969604 264.6311025 C862.91336549 272.49429908 865.15529209 280.18813849 867.45486206 287.90746969 C869.2041993 293.79401041 870.84665811 299.69191299 872.38284057 305.63745016 C878.72568154 331.89256518 878.72568154 331.89256518 895.15969604 352.1311025 C904.1416698 356.62208938 918.12893734 351.99406313 926.90969604 349.3186025 C928.13301636 348.96217672 929.35633667 348.60575094 930.61672729 348.23852438 C933.01091966 347.54075174 935.40356698 346.83765078 937.79446167 346.1286611 C940.93900119 345.19652322 944.08348506 344.26783076 947.23782104 343.36938375 C948.4893396 343.00840597 948.4893396 343.00840597 949.76614136 342.64013571 C952.29606444 342.10210127 954.58083224 342.04006689 957.15969604 342.1311025 C956.74719604 341.68121969 956.33469604 341.23133688 955.90969604 340.76782125 C937.88630323 320.69265828 925.99087928 295.68265039 913.15969604 272.1311025 C912.58187378 271.07068746 912.00405151 270.01027242 911.40871948 268.9177236 C908.19251276 263.00749522 904.99029787 257.08981723 901.79690307 251.16723531 C900.06406148 247.95375215 898.32868784 244.74164322 896.59328979 241.52954 C886.86835811 223.51589769 877.24768976 205.47538611 868.15969604 187.1311025 C873.43969604 187.1311025 878.71969604 187.1311025 884.15969604 187.1311025 C885.03110229 188.82493063 885.90250854 190.51875875 886.80032104 192.263915 C897.64027392 213.28471729 908.93811119 234.01842371 920.52297729 254.638915 C923.6296238 260.17396689 926.70417169 265.72626268 929.77322143 271.28222555 C946.11332973 306.99631301 946.11332973 306.99631301 973.15969604 333.1311025 C983.27449323 334.58238729 992.94887787 331.509193 1002.59719604 328.8811025 C1004.11834139 328.48007475 1005.63982519 328.0803285 1007.16164917 327.68188375 C1015.89675421 325.37704696 1024.54962975 322.86925277 1033.15969604 320.1311025 C1032.68008423 319.7929653 1032.20047241 319.45482809 1031.7063269 319.1064443 C1026.23790191 315.14281139 1021.46219197 310.74449889 1016.72219604 305.9436025 C1015.97429809 305.19111227 1015.22640014 304.43862203 1014.45583862 303.66332906 C1009.77485954 298.90536187 1005.44372694 294.05752492 1001.32766479 288.8029775 C998.73793686 285.61131281 995.97078136 282.62723125 993.15969604 279.6311025 C988.65960488 274.8261482 984.42862111 269.87943984 980.30422729 264.74438375 C978.16094649 262.13262627 975.93589274 259.62744949 973.65969604 257.1311025 C970.63687183 253.81120764 967.73457443 250.43346138 964.90969604 246.9436025 C961.28706643 242.46896069 957.56495202 238.09715354 953.78469604 233.7561025 C948.3037812 227.46140307 942.8884212 221.11608032 937.51125854 214.732665 C936.12654134 213.09181514 934.73750714 211.45471445 933.34719604 209.8186025 C930.609637 206.59646948 927.88223526 203.36593135 925.15969604 200.1311025 C924.71223022 199.60113668 924.2647644 199.07117086 923.80373901 198.52514547 C922.52117537 197.00248216 921.24650928 195.47317723 919.97219604 193.9436025 C918.86811401 192.62295797 918.86811401 192.62295797 917.74172729 191.27563375 C916.15969604 189.1311025 916.15969604 189.1311025 916.15969604 187.1311025 C930.83701655 185.46284219 930.83701655 185.46284219 935.83547729 189.0529775 C937.70064493 191.42746588 939.37498621 193.8510166 940.98733276 196.40258688 C943.19192926 199.65301237 945.86580081 202.51368619 948.47219604 205.4436025 C949.58960113 206.72352738 950.70548045 208.00478585 951.81985229 209.2873525 C952.3743103 209.92414938 952.92876831 210.56094625 953.50002807 211.21704 C956.15393868 214.27774303 958.78048371 217.3616893 961.40969604 220.4436025 C964.83396209 224.45469506 968.29696879 228.41765956 971.84719604 232.3186025 C974.85784083 235.6319333 977.72534782 239.02052179 980.53469604 242.5061025 C984.21930565 247.06372065 988.09374097 251.37517441 992.08425659 255.6611318 C994.97531361 258.78487754 997.70060899 261.98642337 1000.34719604 265.3186025 C1005.03234709 271.14750652 1010.14995017 276.53593074 1015.31277221 281.9423818 C1019.17153014 285.98767729 1022.9297032 290.09214771 1026.58181518 294.32543844 C1033.30988917 302.02477856 1042.19168138 311.27594578 1052.85989136 312.42089742 C1060.24290162 312.42903953 1066.79872312 311.37552583 1073.90969604 309.4436025 C1074.94739136 309.17322164 1075.98508667 308.90284078 1077.05422729 308.62426656 C1084.34619015 306.69736312 1091.5582019 304.56580452 1098.72219604 302.2092275 C1103.89028128 300.58832804 1108.69629309 299.1311025 1114.15969604 299.1311025 C1114.15969604 298.4711025 1114.15969604 297.8111025 1114.15969604 297.1311025 C1113.13102417 297.01508688 1113.13102417 297.01508688 1112.08157104 296.8967275 C1108.35368765 295.91990244 1105.54315925 294.03834424 1102.40969604 291.8811025 C1101.43721924 291.22162618 1101.43721924 291.22162618 1100.44509643 290.54882711 C1092.44804135 285.0562761 1084.80051047 279.10372171 1077.15969604 273.1311025 C1075.95145966 272.19217565 1074.74313104 271.25336747 1073.53469604 270.31469625 C1066.65580447 264.95410548 1059.87427118 259.47910242 1053.11819214 253.96484274 C1048.85659452 250.49195411 1044.55833559 247.07280091 1040.22219604 243.6936025 C1034.2212547 239.01396934 1028.35005967 234.18751571 1022.48953003 229.33373922 C1017.40082221 225.12849164 1012.24620371 221.01972294 1007.04202026 216.95873922 C1002.69852521 213.56628313 998.41820558 210.10435739 994.16750854 206.59594625 C991.79919116 204.65515629 989.41875932 202.73394648 987.02688354 200.82250875 C986.30549194 200.24355856 985.58410034 199.66460836 984.84084839 199.06811422 C983.41450654 197.92403926 981.98525383 196.78358149 980.55276245 195.64721578 C977.31600754 193.04365255 974.42430601 190.6738446 972.15969604 187.1311025 C990.34785408 185.66269615 990.34785408 185.66269615 996.32375854 188.78344625 C998.77048319 191.11151703 1000.93694584 193.58973282 1003.15969604 196.1311025 C1005.16508243 197.76014292 1007.20991215 199.34142103 1009.28469604 200.8811025 C1014.35924754 204.70651034 1019.30794483 208.66468636 1024.22219604 212.6936025 C1029.72941001 217.20199095 1035.32600794 221.53647089 1041.05032104 225.76782125 C1044.74312509 228.5745379 1048.32541882 231.50043653 1051.90969604 234.4436025 C1057.90130321 239.35922434 1064.00936582 244.0719091 1070.23562378 248.68554586 C1074.73173822 252.02816381 1079.12063954 255.47800246 1083.47219604 259.0061025 C1111.02858421 282.47781037 1111.02858421 282.47781037 1145.15969604 289.1311025 C1162.69155502 284.48796177 1172.6244667 273.1554914 1183.15969604 259.1311025 C1182.20836792 258.74631735 1182.20836792 258.74631735 1181.23782104 258.35375875 C1177.8676856 256.97125844 1174.51275317 255.55433664 1171.15969604 254.1311025 C1170.49453979 253.85185934 1169.82938354 253.57261617 1169.14407104 253.2849111 C1146.91862671 243.88540026 1125.75326089 231.99590068 1104.83157104 220.02148336 C1096.91655061 215.50893936 1088.89463252 211.21351037 1080.84719604 206.9436025 C1063.19646216 197.57015966 1063.19646216 197.57015966 1055.34719604 193.2561025 C1054.61267212 192.85754049 1053.87814819 192.45897848 1053.12136596 192.04833883 C1048.27732319 189.3663568 1048.27732319 189.3663568 1047.15969604 187.1311025 C1066.00732241 185.51523654 1078.66340065 187.04703581 1094.52395386 197.44653219 C1098.85197838 200.21268347 1103.38079997 202.58865672 1107.90969604 205.0061025 C1109.74386638 206.00326238 1111.57718754 207.00198566 1113.40969604 208.00219625 C1114.34297729 208.50992574 1115.27625854 209.01765524 1116.23782104 209.54077047 C1118.23849315 210.62970581 1120.23845932 211.71993886 1122.23782104 212.81127828 C1158.63225197 236.57551012 1158.63225197 236.57551012 1199.15969604 244.1311025 C1201.85465302 242.84695769 1204.37472604 241.3775684 1206.93703979 239.84594625 C1217.85019991 234.03882226 1230.68538131 231.31146506 1242.56203979 228.11157125 C1244.77740678 227.5078176 1246.98136355 226.85721333 1249.15969604 226.1311025 C1247.92219604 225.79079 1246.68469604 225.4504775 1245.40969604 225.0998525 C1232.74696564 221.57477857 1220.28813428 217.59565662 1207.84231323 213.37475485 C1201.11565898 211.1031043 1194.37743791 208.86605796 1187.64092773 206.62383932 C1183.06444399 205.10025023 1178.48856425 203.57484573 1173.91309875 202.0482015 C1171.08991143 201.10642824 1168.26629044 200.16620346 1165.4394812 199.23535055 C1160.05272321 197.46034265 1154.72736295 195.54046463 1149.40969604 193.5686025 C1148.58598511 193.26502828 1147.76227417 192.96145406 1146.91360229 192.64868063 C1142.97430959 191.19285506 1139.04797583 189.71960705 1135.15969604 188.1311025 C1135.15969604 187.8011025 1135.15969604 187.4711025 1135.15969604 187.1311025 C1164.81710365 184.24349695 1188.48674087 190.61136153 1216.19965881 200.86131185 C1224.6738137 203.994166 1233.20962609 206.80855126 1241.86532348 209.39434713 C1243.81395336 209.97745259 1245.75819982 210.5751475 1247.70217651 211.17358297 C1267.07869691 217.18964956 1267.07869691 217.18964956 1286.81985229 215.55688375 C1288.68516601 215.01463156 1288.68516601 215.01463156 1290.58816284 214.46142477 C1291.30193084 214.25317068 1292.01569885 214.04491659 1292.75109619 213.83035177 C1297.57769219 212.42912536 1302.41254311 211.05659869 1307.24563354 209.6779775 C1309.43316331 209.0530817 1311.62066289 208.42808022 1313.80813354 207.8029775 C1321.55474609 205.58965963 1329.30135864 203.37634176 1337.04797119 201.16302389 C1338.45171493 200.76195425 1338.45171493 200.76195425 1339.88381714 200.35278219 C1340.71207 200.11613851 1341.54032287 199.87949484 1342.39367431 199.63568014 C1342.97646148 199.46916952 1343.55924865 199.3026589 1344.15969604 199.1311025 C1338.01191832 197.57069463 1338.01191832 197.57069463 1331.81985229 196.201415 C1331.0763855 196.04801656 1330.3329187 195.89461813 1329.56692261 195.73657125 C1328.79316284 195.57801656 1328.01940307 195.41946188 1327.22219604 195.2561025 C1321.0880645 193.98779392 1314.99253507 192.62473239 1308.90969604 191.1311025 C1300.86314124 189.16498921 1292.73365584 187.77193883 1284.56106323 186.43774313 C1283.61392456 186.28112203 1282.66678589 186.12450094 1281.69094604 185.96313375 C1280.84080932 185.82625143 1279.99067261 185.6893691 1279.11477417 185.54833883 C1277.15969604 185.1311025 1277.15969604 185.1311025 1276.15969604 184.1311025 C1274.45808831 183.81167258 1272.74753567 183.53971087 1271.03469604 183.2873525 C1262.34270958 181.89869194 1253.84382048 179.76191638 1245.29250854 177.69750875 C1238.62710028 176.10953316 1232.00110638 174.69859201 1225.23293823 173.63207906 C1219.22306331 172.65239497 1213.2568824 171.44081902 1207.28469604 170.2561025 C1206.02528198 170.01246969 1204.76586792 169.76883688 1203.46828979 169.51782125 C1194.86126146 167.81056897 1186.56138667 165.63534835 1178.15969604 163.1311025 C1178.15969604 158.8411025 1178.15969604 154.5511025 1178.15969604 150.1311025 C1183.29524125 149.9447078 1187.56073099 150.55700015 1192.51321167 151.8967275 C1193.93162921 152.26949585 1195.35068045 152.63985958 1196.77029175 153.00805563 C1197.49596344 153.19666158 1198.22163513 153.38526754 1198.96929687 153.57958883 C1202.48603718 154.46505774 1206.02536557 155.23420948 1209.57180542 155.9904775 C1210.28634132 156.14296957 1211.00087723 156.29546163 1211.73706573 156.45257467 C1213.99199904 156.93128004 1216.24765444 157.40645929 1218.50344604 157.8811025 C1220.12704548 158.22441542 1221.75062077 158.5678426 1223.37417358 158.91137594 C1226.7553729 159.62601301 1230.1370544 160.33831271 1233.51907104 161.04907125 C1236.93262578 161.76672486 1240.3453581 162.48809727 1243.75735229 163.21313375 C1261.2914147 166.93873194 1278.79439101 170.61992732 1296.51247925 173.3786611 C1310.61686283 175.58687278 1310.61686283 175.58687278 1316.31838745 178.07202047 C1319.84828737 179.3877711 1323.41910063 180.09451412 1327.10891479 180.7873525 C1327.88040359 180.93515157 1328.65189239 181.08295065 1329.44675964 181.23522848 C1331.08276324 181.54699522 1332.71926802 181.85614187 1334.35622925 182.16284078 C1336.79572638 182.62142703 1339.23258037 183.09243436 1341.66946167 183.56469625 C1349.7072625 185.09852111 1357.73404632 186.42903759 1365.86672729 187.3498525 C1366.58350143 187.43182882 1367.30027557 187.51380514 1368.03877014 187.59826559 C1376.45689149 188.4816224 1383.29291742 188.14824902 1391.39016479 185.71704 C1392.26127395 185.4649175 1393.13238312 185.21279501 1394.02988952 184.95303243 C1396.8053451 184.14734934 1399.57624904 183.32714178 1402.34719604 182.5061025 C1404.15615161 181.97776747 1405.96539482 181.45041626 1407.77493042 180.92407125 C1417.40256506 178.11977075 1417.40256506 178.11977075 1427.02010864 175.28112692 C1429.83167117 174.44589561 1432.64583531 173.6199498 1435.46047729 172.795165 C1436.30225021 172.54205557 1437.14402313 172.28894613 1438.01130432 172.02816671 C1443.40842632 170.45707848 1448.55644533 169.61100974 1454.15969604 169.1311025 C1454.15969604 168.4711025 1454.15969604 167.8111025 1454.15969604 167.1311025 C1453.40833374 167.07849264 1452.65697143 167.02588278 1451.88284057 166.97167867 C1442.91204968 166.31572791 1433.97366674 165.43427433 1425.03469604 164.4436025 C1424.28011108 164.36039755 1423.52552612 164.27719259 1422.74807495 164.19146627 C1409.18769683 162.68518804 1395.6710124 160.899574 1382.15969604 159.0061025 C1380.78778106 158.814148 1380.78778106 158.814148 1379.38815063 158.61831564 C1367.8886776 157.00327059 1356.41696248 155.31256579 1345.00393432 153.15893453 C1339.42678745 152.14387111 1333.84236736 151.40685381 1328.21438354 150.7404775 C1314.55422135 149.07604949 1300.91991424 147.23744255 1287.28469604 145.3811025 C1286.02031708 145.20946584 1284.75593811 145.03782919 1283.45324463 144.86099142 C1263.31126874 142.12675874 1243.17730076 139.33761382 1223.05276245 136.47778219 C1212.00880759 134.91425573 1200.95866714 133.44871047 1189.88328308 132.12333578 C1188.93124496 132.00770788 1187.97920685 131.89207998 1186.99831909 131.77294821 C1186.15899338 131.67278906 1185.31966766 131.57262991 1184.45490783 131.46943563 C1182.15969604 131.1311025 1182.15969604 131.1311025 1178.15969604 130.1311025 C1178.15969604 126.1711025 1178.15969604 122.2111025 1178.15969604 118.1311025 C1188.18453133 117.80626536 1197.81155072 119.06806735 1207.72219604 120.3811025 C1211.33901118 120.85014872 1214.95640427 121.31467258 1218.57375854 121.77954 C1219.93074104 121.95496832 1219.93074104 121.95496832 1221.31513733 122.13394064 C1226.74603106 122.8331552 1232.17918995 123.49608243 1237.62063354 124.107665 C1238.28024078 124.1818717 1238.93984802 124.25607839 1239.61944336 124.33253378 C1240.2758078 124.40632757 1240.93217224 124.48012136 1241.60842651 124.55615133 C1256.96285976 126.28296396 1272.24569495 128.39175911 1287.53451294 130.62209982 C1313.10409385 134.34542055 1338.72458896 137.68506367 1364.34449905 141.04073805 C1367.90301456 141.50713013 1371.46133697 141.97498541 1375.01963943 142.44299978 C1377.47857879 142.7657058 1379.93782231 143.08601288 1382.39709228 143.40618795 C1390.68086607 144.49119276 1398.92649008 145.70753949 1407.15969604 147.1311025 C1457.83334731 159.04126605 1457.83334731 159.04126605 1505.38235229 150.61157125 C1512.5372605 144.9784617 1517.21116911 137.23351711 1521.15969604 129.1311025 C1521.15969604 127.8111025 1521.15969604 126.4911025 1521.15969604 125.1311025 C1519.93005127 125.05593405 1519.93005127 125.05593405 1518.67556518 124.97924703 C1515.54217951 124.78540217 1512.40909965 124.587251 1509.27615112 124.3864736 C1507.29026558 124.26042309 1505.30408554 124.13903923 1503.31789917 124.01782125 C1496.57307754 123.58267147 1489.88712064 123.01525945 1483.17922729 122.170165 C1473.22727872 120.93201059 1463.24198892 120.28697249 1453.23858398 119.61401266 C1447.07739346 119.19853773 1440.91725959 118.76827491 1434.75735229 118.3342275 C1434.09998266 118.28791692 1433.44261303 118.24160635 1432.7653231 118.19389242 C1421.86892883 117.42334248 1410.98037669 116.56986346 1400.09328979 115.6779775 C1399.32527982 115.61513571 1398.55726986 115.55229391 1397.76598686 115.48754781 C1393.83798862 115.16602211 1389.91004463 114.843837 1385.98211426 114.52148336 C1357.01826794 112.14554774 1328.05611284 110.06390703 1299.04079956 108.42407125 C1288.26854498 107.80847341 1277.55160999 107.17005592 1266.84040588 105.8551473 C1257.35797892 104.73183191 1247.81620453 104.36143794 1238.28457397 103.86904806 C1218.16896293 102.82332295 1198.17050846 101.45909306 1178.15969604 99.1311025 C1178.15969604 95.1711025 1178.15969604 91.2111025 1178.15969604 87.1311025 C1191.94123681 86.98057596 1205.57056988 87.3630065 1219.31594604 88.33813375 C1221.19590836 88.46609528 1223.07591462 88.59341251 1224.95596069 88.72013754 C1229.87083183 89.05307564 1234.78508842 89.39433154 1239.69924682 89.73760885 C1244.54510741 90.07479299 1249.39147426 90.40450858 1254.23782104 90.73461813 C1260.99813055 91.1957038 1267.75826153 91.65926383 1274.5181908 92.12589067 C1289.24593137 93.14206014 1303.9758093 94.12517593 1318.7063269 95.10017294 C1330.75503039 95.89849799 1342.80161643 96.72447724 1354.84719604 97.5686025 C1355.91539078 97.64332784 1356.98358551 97.71805319 1358.08414978 97.79504293 C1360.53383518 97.96661678 1362.98348777 98.13865136 1365.43313354 98.31079 C1388.67371493 99.94058805 1411.91659661 101.53767301 1435.15969604 103.1311025 C1435.98664978 103.18782125 1436.81360351 103.24454 1437.66561645 103.3029775 C1445.45289078 103.83662483 1453.24098687 104.35426141 1461.03030151 104.85717672 C1464.17841031 105.06344737 1467.32558874 105.28150576 1470.47268432 105.50268453 C1500.60960009 107.6530164 1500.60960009 107.6530164 1530.80340332 108.55096334 C1532.26650068 108.56252965 1533.72956514 108.58025785 1535.19250244 108.60479635 C1547.57543626 108.78729047 1556.51126647 106.76488713 1565.62063354 98.10375875 C1568.77076457 94.41568228 1571.30181148 90.53949078 1573.78469604 86.3811025 C1574.22297729 85.64802877 1574.66125854 84.91495504 1575.11282104 84.15966696 C1578.05562638 78.99064651 1578.05562638 78.99064651 1578.15969604 73.1311025 C1576.05213166 71.02353812 1571.32904619 71.98059014 1568.41703552 71.97961324 C1567.48621693 71.97538207 1566.55539835 71.9711509 1565.59637314 71.96679151 C1562.44373255 71.95367662 1559.29111729 71.94771922 1556.13845581 71.94164938 C1553.87999737 71.93368706 1551.62154046 71.92527893 1549.36308521 71.91645807 C1544.45746762 71.89826422 1539.55185376 71.88325141 1534.64621872 71.87062162 C1527.43987606 71.85204811 1520.23356158 71.82793555 1513.02724129 71.80220208 C1501.10561321 71.75973144 1489.18397565 71.7213474 1477.26232666 71.6852712 C1450.38943266 71.60378713 1423.51659365 71.50626959 1396.64375458 71.40854208 C1391.58566818 71.39016333 1386.52758093 71.37203446 1381.46949333 71.35398954 C1333.52779454 71.18265506 1285.58694039 70.93847996 1237.6462087 70.58551306 C1235.33508846 70.56851344 1233.02396746 70.55162179 1230.71284622 70.53475851 C1213.19507678 70.40682749 1195.67735389 70.27358247 1178.15969604 70.1311025 C1178.15969604 65.8411025 1178.15969604 61.5511025 1178.15969604 57.1311025 C1179.50496569 57.13020687 1179.50496569 57.13020687 1180.8774125 57.12929314 C1234.03716442 57.09339569 1287.19685976 57.0367513 1340.35655923 56.95318155 C1346.74015669 56.94316415 1353.1237544 56.93332001 1359.50735229 56.92358297 C1360.77820646 56.9216416 1362.04906063 56.91970022 1363.35842553 56.91770002 C1383.93326984 56.88668277 1404.50810301 56.86970013 1425.0829663 56.85790828 C1446.19620775 56.84549532 1467.30939069 56.81799057 1488.4225952 56.77648944 C1501.44953971 56.7513583 1514.47638716 56.73798495 1527.50335625 56.73967293 C1536.43762014 56.73970269 1545.3717852 56.72506715 1554.30601057 56.69893822 C1559.45983714 56.68429726 1564.61346104 56.67608517 1569.76730484 56.68529981 C1574.49036773 56.69360124 1579.21302384 56.68339197 1583.93602648 56.65876588 C1585.64012284 56.65309335 1587.34425789 56.65408047 1589.04834244 56.66259006 C1600.36238846 56.71422524 1612.84189004 56.51947871 1621.50735229 48.15063375 C1627.23647391 41.148374 1635.57406928 30.00363423 1634.99953979 20.4748525 C1634.39103039 18.03017618 1634.39103039 18.03017618 1632.41318161 17.00028677 C1629.8661344 16.01787384 1627.99030306 15.88083606 1625.26408327 15.88040417 C1624.27172154 15.87539714 1623.2793598 15.8703901 1622.25692651 15.86523134 C1621.16678922 15.86991367 1620.07665193 15.874596 1618.95348018 15.87942022 C1617.79055927 15.87651334 1616.62763836 15.87360646 1615.42947742 15.87061149 C1612.18649061 15.86454849 1608.94365288 15.86749877 1605.70067174 15.87416739 C1602.17815139 15.87922479 1598.65564971 15.87272731 1595.13313198 15.86768073 C1588.95428738 15.86044281 1582.7754777 15.86068539 1576.59663147 15.86577505 C1567.4082786 15.87332319 1558.21995533 15.86948121 1549.03160267 15.86335843 C1532.62162539 15.85281107 1516.21166366 15.85374626 1499.80168489 15.85951626 C1485.43688496 15.86454244 1471.07209074 15.86586309 1456.70729011 15.86347097 C1455.75535486 15.8633182 1454.80341961 15.86316543 1453.82263783 15.86300803 C1449.95858697 15.86238537 1446.09453611 15.86174858 1442.23048525 15.8610885 C1405.95636662 15.85496585 1369.68225791 15.86052418 1333.40814081 15.8712823 C1301.17712721 15.88076866 1268.94612942 15.87992927 1236.71511596 15.87036031 C1200.51896194 15.85965013 1164.32281669 15.85540537 1128.1266613 15.86158484 C1124.26737831 15.86222629 1120.40809532 15.86285197 1116.54881233 15.86347097 C1115.59853245 15.86362913 1114.64825258 15.86378728 1113.66917634 15.86395023 C1099.31786867 15.86622532 1084.96656734 15.86356422 1070.61526054 15.85851187 C1054.29194763 15.85279398 1037.96865272 15.85422141 1021.64534204 15.86507335 C1012.50941962 15.87094668 1003.37353619 15.87132823 994.23761478 15.863781 C988.13396411 15.85929497 982.03034469 15.86208971 975.92669864 15.87079054 C972.44964429 15.87554543 968.97266738 15.87718036 965.49561547 15.86997858 C961.74593578 15.86390388 957.99646848 15.87012869 954.24679989 15.87942022 C952.6361762 15.87239672 952.6361762 15.87239672 950.99301466 15.86523134 C936.82984152 15.93545263 923.71446981 18.95260971 913.04250854 28.8654775 C909.70441259 32.88227346 907.27533463 37.42660034 904.82375854 42.0217275 C903.15969604 45.1311025 903.15969604 45.1311025 901.15969604 48.1311025 C899.28030151 48.47167867 899.28030151 48.47167867 897.02688354 48.42407125 C896.22121948 48.41440328 895.41555542 48.40473531 894.58547729 48.39477438 C893.74371948 48.36963766 892.90196167 48.34450094 892.03469604 48.3186025 C890.76045776 48.29829977 890.76045776 48.29829977 889.46047729 48.27758688 C887.35994767 48.24218469 885.25974311 48.18837651 883.15969604 48.1311025 C883.51161011 47.56004781 883.86352417 46.98899313 884.22610229 46.40063375 C887.17441368 41.55862889 889.90540713 36.68671712 892.47219604 31.6311025 C900.18330476 17.22573458 912.34935382 7.15406027 927.9065006 2.26849645 C935.21497659 0.32599645 941.95072905 -0.29610422 949.49364418 -0.24921423 C950.6812908 -0.25387415 951.86893743 -0.25853407 953.09257334 -0.2633352 C956.36766506 -0.27317611 959.64242103 -0.26973408 962.91750412 -0.26050152 C966.48866081 -0.25376046 970.05977393 -0.2644734 973.63092119 -0.27289736 C979.88271692 -0.28524516 986.13443758 -0.28648488 992.38624138 -0.28034693 C1001.68288786 -0.27124403 1010.9794651 -0.2792973 1020.27610628 -0.29063817 C1036.88079968 -0.31029461 1053.48546183 -0.31265457 1070.09016408 -0.30744297 C1084.62001247 -0.30288485 1099.14984851 -0.30348619 1113.6796965 -0.30928332 C1115.62910425 -0.31004018 1117.57851201 -0.31079616 1119.52791976 -0.31155126 C1122.46551113 -0.31269646 1125.4031025 -0.31384634 1128.34069386 -0.3150105 C1155.647029 -0.32571369 1182.95336002 -0.33044244 1210.25969642 -0.32254034 C1211.80336026 -0.32209458 1211.80336026 -0.32209458 1213.37820923 -0.32163982 C1221.73521292 -0.3191909 1230.09221657 -0.31657931 1238.44922021 -0.31395568 C1271.05748431 -0.30385002 1303.66569693 -0.31221547 1336.27395386 -0.33545023 C1372.91293815 -0.36151485 1409.55189145 -0.3743732 1446.19088537 -0.36726248 C1450.09636594 -0.36654642 1454.00184653 -0.36587203 1457.90732712 -0.36522204 C1458.86895077 -0.36505223 1459.83057442 -0.36488242 1460.82133818 -0.36470746 C1475.34344399 -0.36240355 1489.86552103 -0.37038573 1504.38762039 -0.38351351 C1520.89816494 -0.39841224 1537.40864203 -0.39928447 1553.91918512 -0.3814426 C1563.15982525 -0.37186819 1572.40030809 -0.37333778 1581.64093778 -0.39067729 C1587.81283401 -0.40115068 1593.98461017 -0.39708913 1600.15649454 -0.38119725 C1603.67327 -0.37254886 1607.18973678 -0.37018097 1610.70649661 -0.38546657 C1614.49709904 -0.39856931 1618.28686419 -0.38711128 1622.07743019 -0.36946875 C1623.16595865 -0.37911926 1624.25448712 -0.38876977 1625.3760013 -0.39871272 C1632.89367843 -0.32668811 1640.41925119 0.64907754 1646.13398407 5.9689909 C1650.87684527 11.30582404 1651.69554516 15.14330789 1651.62453979 22.29907125 C1649.8792039 36.68709233 1639.500597 53.50074406 1628.41750854 62.51782125 C1621.87701264 67.19122057 1615.58000538 70.16822979 1607.60891479 71.5842275 C1606.71817261 71.74407125 1605.82743042 71.903915 1604.90969604 72.0686025 C1604.07953979 72.20137594 1603.24938354 72.33414938 1602.39407104 72.47094625 C1599.1158865 73.43950078 1597.69641101 75.25282218 1595.93630737 78.13305563 C1595.54209594 78.8852236 1595.14788452 79.63739156 1594.74172729 80.4123525 C1594.2961145 81.24927633 1593.85050171 82.08620016 1593.3913855 82.94848531 C1592.92305298 83.83374899 1592.45472046 84.71901266 1591.97219604 85.6311025 C1587.8520003 93.2528868 1583.71709042 100.44830676 1578.15969604 107.1311025 C1577.57317261 107.8529775 1576.98664917 108.5748525 1576.38235229 109.3186025 C1568.74420266 117.84490906 1557.89896782 122.35136442 1546.78078979 124.232665 C1538.46706772 127.082376 1534.62314692 137.42712039 1530.50735229 144.49633688 C1521.42786098 159.81174255 1510.73832761 168.4277325 1493.46609253 173.02294821 C1491.59652111 173.53868637 1489.72704753 174.05477929 1487.85766357 174.5711965 C1486.90974315 174.82974542 1485.96182274 175.08829435 1484.98517746 175.35467809 C1480.56227365 176.57006406 1476.15663607 177.84408987 1471.74978393 179.11620992 C1469.97438847 179.62615828 1468.19892032 180.13585361 1466.42338318 180.64530843 C1464.57636856 181.17571431 1462.72935838 181.70613568 1460.88235229 182.23657125 C1458.8958972 182.80699124 1456.90944192 183.37741053 1454.92298645 183.94782919 C1450.78253866 185.1368223 1446.64212758 186.32594319 1442.50173706 187.51513571 C1438.34588463 188.70874616 1434.18995941 189.90210263 1430.03396362 191.09521383 C1407.62578342 197.52825952 1385.21998553 203.96913174 1362.82890075 210.46147054 C1355.38839062 212.61876608 1347.94646169 214.77097479 1340.50149292 216.91284078 C1339.76921824 217.12351722 1339.03694357 217.33419365 1338.28247875 217.55125421 C1324.71968547 221.45050076 1311.14383756 225.27811615 1297.50051636 228.88793844 C1288.72035072 231.21496252 1280.0517241 233.85412285 1271.37234253 236.5283193 C1261.98016401 239.4144704 1252.56214208 242.18059632 1243.09719604 244.8186025 C1242.04121216 245.11403951 1240.98522827 245.40947653 1239.89724487 245.71386617 C1235.55886273 246.92370942 1231.22056808 248.12494562 1226.85891479 249.24829 C1211.59617768 253.28499206 1202.04589026 260.20464095 1192.56033081 272.52783102 C1177.1172286 292.49099333 1161.04820474 302.53259771 1136.49172729 308.54125875 C1130.71386764 309.96223064 1124.98879299 311.54760129 1119.25962585 313.15089315 C1113.82698818 314.6705932 1108.38768632 316.1627572 1102.94094604 317.6311025 C1101.79471016 317.94022825 1101.79471016 317.94022825 1100.62531799 318.25559896 C1097.52940938 319.08990578 1094.43316923 319.92297854 1091.33694214 320.7561025 C1078.51967139 324.20638779 1065.72560047 327.73466828 1052.94289917 331.31079 C1038.5713946 335.32513061 1024.15740096 339.18034529 1009.74563354 343.04711813 C993.90208751 347.29438453 993.90208751 347.29438453 978.08938354 351.65454 C967.92690538 354.49691783 957.72670454 357.19667395 947.52590698 359.89770406 C944.26803449 360.76051513 941.0107141 361.62538772 937.75344604 362.4904775 C935.64149916 363.0504951 933.52952109 363.61039508 931.41750854 364.170165 C930.46409576 364.423355 929.51068298 364.67654501 928.5283789 364.93740743 C923.59877641 366.24146129 918.6643921 367.52685837 913.72390503 368.78906149 C912.7614537 369.03575079 911.79900238 369.28244009 910.80738586 369.53660482 C898.77392019 372.23853289 887.26046777 370.07741357 876.84719604 363.6311025 C867.48698669 357.00514786 859.05862888 348.97219534 850.58547729 341.27563375 C847.11181379 338.20471384 843.50253409 335.310849 839.89407104 332.40063375 C837.1476652 330.1211169 834.5284865 327.7429676 831.90969604 325.3186025 C826.0132516 320.01551096 821.13807876 316.12111539 812.82766479 316.49829 C803.19898117 318.78210662 795.16978017 328.60633189 788.15969604 335.1311025 C785.51919444 337.49502982 782.84271997 339.8156161 780.15969604 342.1311025 C779.65567261 342.56680563 779.15164917 343.00250875 778.63235229 343.451415 C775.06108796 346.53606364 771.4771928 349.60529988 767.88186401 352.66186422 C766.30224461 354.00948962 764.73241868 355.36857245 763.16360229 356.72875875 C753.32934193 365.08439273 743.41177915 370.47134754 730.34719604 370.5686025 C729.61049682 370.6014736 728.87379761 370.63434469 728.11477417 370.66821188 C720.94898912 370.73373443 714.50477031 368.62412097 707.73953003 366.52392477 C703.22498173 365.12730927 698.6754633 363.92431129 694.09328979 362.7717275 C693.3287297 362.57852926 692.56416961 362.38533102 691.77644104 362.18627828 C690.19840038 361.7884152 688.62013443 361.39144474 687.04165405 360.9953298 C673.29220327 357.54045844 659.6071248 353.91761593 645.97814697 350.01559347 C634.58522934 346.75793024 623.13287172 343.78071086 611.64684814 340.87020773 C602.33653472 338.50772604 593.0926507 336.01951604 583.91921753 333.16430563 C577.35514473 331.1360207 570.72458164 329.45300501 564.04079956 327.86645406 C560.26941591 326.96084785 556.58561741 325.97299663 552.91897339 324.70385641 C548.47533115 323.2064569 544.0001272 321.95985798 539.46047729 320.79125875 C538.66296554 320.58302984 537.86545379 320.37480093 537.04377502 320.16026205 C534.52065133 319.50184222 531.99651846 318.84741001 529.47219604 318.1936025 C519.35552162 315.56697879 509.25351013 312.92432145 499.2141394 310.01367086 C496.47515527 309.2222531 493.73026557 308.46028107 490.98000854 307.7092275 C475.38393177 303.3589817 461.52847559 298.07992182 450.15969604 286.1311025 C449.31922729 285.25196188 448.47875854 284.37282125 447.61282104 283.46704 C443.56182377 279.10914899 439.74011907 274.64694075 436.09719604 269.9436025 C426.36322356 257.67879718 415.20144191 252.71368379 400.40188354 248.513915 C399.25589691 248.18150808 398.10991028 247.84910116 396.92919677 247.5066213 C393.70976696 246.57531565 390.48823731 245.65205715 387.26539367 244.73268026 C384.32022363 243.89127323 381.37671896 243.04410709 378.43309158 242.19732183 C368.57148057 239.36104447 358.70407445 236.54522301 348.83553833 233.73315328 C344.5761259 232.51911933 340.31714635 231.30356874 336.05813354 230.08813375 C329.58173028 228.24003977 323.10506404 226.39287082 316.6282019 224.54638571 C310.64351858 222.8401506 304.6597122 221.13088232 298.67667907 219.41886801 C290.74136592 217.14830145 282.79991804 214.90257632 274.84719604 212.6936025 C261.62877666 209.00598554 248.45879478 205.15890772 235.29299682 201.28832906 C222.87377307 197.63899776 210.43504182 194.06579986 197.97219604 190.5686025 C196.94340332 190.27986257 196.94340332 190.27986257 195.8938269 189.98528951 C193.18985498 189.22646641 190.48583828 188.46780298 187.78179687 187.7092275 C162.46680222 180.60638774 162.46680222 180.60638774 150.63161987 176.81371969 C146.73275394 175.57726098 142.83274101 174.54573398 138.84719604 173.6311025 C122.50667351 169.66775083 110.22671303 160.63063126 101.45657104 146.36157125 C100.26469955 144.35290186 99.08245159 142.33849231 97.90969604 140.3186025 C96.72236148 138.28810687 95.52983779 136.26063466 94.33157104 134.23657125 C93.81691284 133.35122701 93.30225464 132.46588278 92.77200073 131.55370992 C89.64012005 126.84782682 87.22911604 124.82400315 81.62673706 123.66332906 C80.93636352 123.5289443 80.24598999 123.39455953 79.53469604 123.2561025 C72.51274471 121.6814111 66.97712657 119.49927841 61.15969604 115.1311025 C60.40430542 114.57938375 59.64891479 114.027665 58.87063354 113.4592275 C50.55553137 106.77285668 45.54174051 97.5794934 40.54641479 88.33032125 C40.10676391 87.51933981 39.66711303 86.70835836 39.2141394 85.87280172 C38.3610947 84.28421951 37.52144132 82.68835443 36.69704956 81.08471578 C34.44401545 76.84761081 32.79644146 74.00703767 28.15969604 72.1311025 C25.38372838 71.53091195 25.38372838 71.53091195 22.47219604 71.2561025 C9.68341915 69.29943529 0.16582825 61.84727037 -7.46530396 51.5686025 C-14.51540282 40.90135078 -22.77573874 27.31243199 -20.84030396 14.1311025 C-18.4216971 7.66273533 -13.91782797 4.0935776 -7.84030396 1.1311025 C-4.91395256 0.15565204 -3.04651071 0.00415946 0 0 Z " fill="#0B2321" transform="translate(144.8403039574623,245.86889749765396)"/>
<path d="M0 0 C231.99 0 463.98 0 703 0 C703 37.95 703 75.9 703 115 C471.01 115 239.02 115 0 115 C0 77.05 0 39.1 0 0 Z " fill="#08211F" transform="translate(609,306)"/>
<path d="M0 0 C30.13793103 0 30.13793103 0 37.9375 4.8125 C41.5345899 8.62759535 43.16800363 12.16175973 43.5 17.375 C43.30821833 22.54438768 41.34591049 26.12992599 38 30 C34.23799883 33.07102137 32.8987475 34 28 34 C29.79057161 36.39665857 31.58220874 38.79250223 33.375 41.1875 C33.91286133 41.90623291 34.45072266 42.62496582 35.00488281 43.36547852 C38.96853151 48.65131549 42.97862744 53.89872638 47.05224609 59.1003418 C50 62.89248535 50 62.89248535 50 64 C45.44024414 64.83619347 41.53952363 65.04293162 37 64 C32.75606811 60.27672166 29.99153269 55.74667702 27 51 C25.69997826 49.02825971 24.38273142 47.07155946 23.04174805 45.12744141 C22.19827737 43.90153147 21.37439481 42.66184545 20.57348633 41.40771484 C19.31203542 39.45725286 19.31203542 39.45725286 17 37 C15.02 36.67 13.04 36.34 11 36 C11 45.24 11 54.48 11 64 C7.37 64 3.74 64 0 64 C0 42.88 0 21.76 0 0 Z " fill="#EFF1F1" transform="translate(1101,332)"/>
<path d="M0 0 C2.31 0 4.62 0 7 0 C7.28085449 0.59200195 7.56170898 1.18400391 7.85107422 1.79394531 C9.1902892 4.61363122 10.53214953 7.43204357 11.875 10.25 C12.36589111 11.28020264 12.85678223 12.31040527 13.36254883 13.37182617 C17.13613986 21.26173228 21.014502 29.09364772 25.00146484 36.87792969 C25.39672363 37.6568457 25.79198242 38.43576172 26.19921875 39.23828125 C26.54815186 39.91930908 26.89708496 40.60033691 27.2565918 41.30200195 C28 43 28 43 28 45 C28.66 45 29.32 45 30 45 C30.24024902 44.19804199 30.48049805 43.39608398 30.72802734 42.56982422 C32.29614449 38.16886281 34.2877477 34.06926465 36.3515625 29.8828125 C36.77045746 29.02565643 37.18935242 28.16850037 37.62094116 27.28536987 C38.9521178 24.56351174 40.28847554 21.84423552 41.625 19.125 C42.53159385 17.27360584 43.43784759 15.42204509 44.34375 13.5703125 C46.5585664 9.04493656 48.77803118 4.5218681 51 0 C53.31 0 55.62 0 58 0 C58.10546143 1.00039307 58.21092285 2.00078613 58.31958008 3.03149414 C58.81375379 7.70886718 59.31216597 12.38578214 59.8125 17.0625 C59.94730774 18.32294632 59.94730774 18.32294632 60.08483887 19.6088562 C61.29383526 30.87461475 62.57951581 42.12183572 64.13598633 53.34594727 C64.25095459 54.18182373 64.36592285 55.0177002 64.484375 55.87890625 C64.58459961 56.5860376 64.68482422 57.29316895 64.78808594 58.02172852 C65 60 65 60 65 64 C61.37 64 57.74 64 54 64 C52.90952659 55.4850268 51.85501552 46.9659472 50.875 38.4375 C50.78750488 37.70096191 50.70000977 36.96442383 50.60986328 36.20556641 C50.10869378 31.77167851 49.91790908 27.4622277 50 23 C49.34 23 48.68 23 48 23 C47.75507812 23.80695313 47.51015625 24.61390625 47.2578125 25.4453125 C45.73810959 29.74012507 43.84650189 33.77225744 41.875 37.875 C41.28537476 39.11117065 41.28537476 39.11117065 40.68383789 40.37231445 C36.88860644 48.29798606 32.96866132 56.16000147 29 64 C27.15942383 63.78979492 27.15942383 63.78979492 25 63 C23.6472168 60.99731445 23.6472168 60.99731445 22.44921875 58.36328125 C22.00102783 57.39938477 21.55283691 56.43548828 21.09106445 55.44238281 C20.39630005 53.89309082 20.39630005 53.89309082 19.6875 52.3125 C18.71729116 50.20910675 17.74593825 48.10624082 16.7734375 46.00390625 C16.30260742 44.97668457 15.83177734 43.94946289 15.34667969 42.89111328 C13.08570578 38.03715152 10.61723721 33.29539699 8.14453125 28.546875 C7 26 7 26 7 23 C6.34 23 5.68 23 5 23 C4.96261719 24.11632812 4.92523437 25.23265625 4.88671875 26.3828125 C4.38118576 39.05675747 2.8790368 51.46127016 1 64 C-1.97 64 -4.94 64 -8 64 C-8.08145497 59.39161232 -7.82995139 55.05660434 -7.125 50.50390625 C-6.37540201 45.51604427 -5.65782005 40.52821186 -5 35.52734375 C-4.7525 33.65272461 -4.7525 33.65272461 -4.5 31.74023438 C-4.16616178 29.20123821 -3.83282996 26.66217541 -3.5 24.12304688 C-2.43499928 16.06481876 -1.27140553 8.02828345 0 0 Z " fill="#F0F2F2" transform="translate(964,332)"/>
<path d="M0 0 C5.79746475 2.4717873 8.86546668 6.90807361 11.640625 12.421875 C15.36539821 21.80543828 14.09917185 32.14316162 10.640625 41.421875 C7.84461975 45.97743528 4.4480723 49.06234995 -0.359375 51.421875 C-6.2244964 52.32824314 -12.63720678 52.85311808 -18.01171875 50.02734375 C-24.37123511 44.59155603 -27.94222864 38.05899034 -28.6953125 29.6875 C-28.8995338 20.70953213 -28.8134742 12.21047177 -22.3828125 5.296875 C-15.5319471 -0.88135998 -9.18914407 -2.25164457 0 0 Z " fill="#0A2220" transform="translate(834.359375,338.578125)"/>
<path d="M0 0 C6.85191246 4.66133822 10.61149626 10.73684675 12.7890625 18.6796875 C13.00120898 21.31361003 13.12357342 23.80095522 13.1015625 26.4296875 C13.09592285 27.13416016 13.0902832 27.83863281 13.08447266 28.56445312 C12.86061533 38.23686288 10.48683845 45.60279215 3.7890625 52.6796875 C-4.16273926 60.16373622 -14.03177855 61.28534357 -24.58984375 61.01953125 C-33.07757487 60.22294807 -38.77186975 57.06672067 -44.5234375 50.828125 C-47.01809509 47.65205631 -48.7161001 44.416781 -50.2109375 40.6796875 C-50.8296875 39.2875 -50.8296875 39.2875 -51.4609375 37.8671875 C-53.7576653 28.10609434 -52.39191437 18.19053284 -47.5234375 9.4921875 C-36.80181874 -7.17153322 -16.64778908 -9.94161256 0 0 Z M-34.8984375 8.4296875 C-40.97909158 16.97547161 -41.09870112 25.56119987 -40.2109375 35.6796875 C-38.61892519 42.98588683 -34.99806408 48.01862743 -29.2109375 52.6796875 C-24.29690593 55.13670328 -17.56941207 54.25479726 -12.2109375 53.6796875 C-7.01759726 51.51901102 -3.43662901 47.58981864 -0.953125 42.58984375 C2.909984 32.64742112 2.99444253 22.5133205 -1.2109375 12.6796875 C-3.83120955 7.99495869 -6.80251977 3.88372517 -12.08984375 2.08203125 C-21.80612666 0.23897943 -27.92170669 1.29070714 -34.8984375 8.4296875 Z " fill="#F0F1F1" transform="translate(846.2109375,336.3203125)"/>
<path d="M0 0 C7 0 7 0 9.30078125 2.01953125 C9.96464844 2.94121094 10.62851563 3.86289062 11.3125 4.8125 C14.39137232 8.89501151 17.51506545 12.75572148 21 16.5 C25.01893321 20.86678524 28.81057155 25.35937066 32.50390625 30.00390625 C36.20595829 34.4475274 40.13092183 38.70102426 44 43 C44.33 29.14 44.66 15.28 45 1 C47.64 1 50.28 1 53 1 C53 21.79 53 42.58 53 64 C48 64 48 64 46.2265625 62.75 C45.69804688 62.1725 45.16953125 61.595 44.625 61 C44.026875 60.35675781 43.42875 59.71351563 42.8125 59.05078125 C42.214375 58.37402344 41.61625 57.69726562 41 57 C40.443125 56.37480469 39.88625 55.74960937 39.3125 55.10546875 C38.16274232 53.79868398 37.01976189 52.48591232 35.8828125 51.16796875 C33.7842468 48.75157049 31.645603 46.37470976 29.5 44 C23.57582626 37.42316305 17.79304618 30.87264513 12.48046875 23.78515625 C11.10781932 21.88599673 11.10781932 21.88599673 9 21 C9 35.19 9 49.38 9 64 C6.03 64 3.06 64 0 64 C0 42.88 0 21.76 0 0 Z " fill="#ECEEEE" transform="translate(1229,332)"/>
<path d="M0 0 C1.134375 0.020625 2.26875 0.04125 3.4375 0.0625 C4.21630367 1.84864865 4.99510218 3.63479955 5.77388 5.42095947 C6.4717686 7.0215939 7.16967563 8.6222203 7.86759949 10.22283936 C9.79720579 14.64846056 11.72618965 19.07435154 13.65405273 23.50073242 C17.02464826 31.23886389 20.39594166 38.97655357 23.79296875 46.703125 C24.26041504 47.76909912 24.72786133 48.83507324 25.20947266 49.93334961 C26.05125557 51.85212418 26.89585147 53.76966785 27.74365234 55.68579102 C28.10797363 56.51780029 28.47229492 57.34980957 28.84765625 58.20703125 C29.15840088 58.91190674 29.46914551 59.61678223 29.78930664 60.34301758 C30.4375 62.0625 30.4375 62.0625 30.4375 64.0625 C26.4775 64.0625 22.5175 64.0625 18.4375 64.0625 C15.67101625 58.72032449 13.5828176 53.78334693 11.4375 48.0625 C2.8575 48.0625 -5.7225 48.0625 -14.5625 48.0625 C-16.49491047 52.95285869 -16.49491047 52.95285869 -18.42163086 57.84545898 C-20.45138889 62.95138889 -20.45138889 62.95138889 -21.5625 64.0625 C-24.56253445 64.20427857 -27.56007235 64.10478771 -30.5625 64.0625 C-28.31012833 56.78741799 -25.41923808 49.89542769 -22.34997559 42.92929077 C-20.89568686 39.62831852 -19.45342972 36.32210607 -18.01171875 33.015625 C-17.72136749 32.35020187 -17.43101624 31.68477875 -17.13186646 30.99919128 C-13.8370134 23.42821979 -10.6783064 15.80170398 -7.54663086 8.16186523 C-6.97440796 6.77269897 -6.97440796 6.77269897 -6.390625 5.35546875 C-6.0596582 4.5461792 -5.72869141 3.73688965 -5.38769531 2.90307617 C-3.94366161 -0.31780256 -3.90844294 0.06856917 0 0 Z " fill="#F1F3F3" transform="translate(1064.5625,331.9375)"/>
<path d="M0 0 C1.134375 0.020625 2.26875 0.04125 3.4375 0.0625 C3.65664063 0.59053223 3.87578125 1.11856445 4.1015625 1.66259766 C5.21258221 4.33796472 6.32494145 7.01277249 7.4375 9.6875 C8.08017822 11.2336499 8.08017822 11.2336499 8.73583984 12.81103516 C11.68792641 19.89992053 14.66759621 26.97663315 17.6640625 34.046875 C18.3971987 35.77910733 19.13027149 37.5113665 19.86328125 39.24365234 C20.96290092 41.84231523 22.06374409 44.44042409 23.16845703 47.03692627 C24.21181487 49.48943908 25.25083448 51.94374959 26.2890625 54.3984375 C26.60735016 55.14325378 26.92563782 55.88807007 27.25357056 56.65545654 C29.4375 61.83511026 29.4375 61.83511026 29.4375 64.0625 C25.4775 64.0625 21.5175 64.0625 17.4375 64.0625 C16.43330363 61.6058053 15.43399499 59.14731647 14.4375 56.6875 C14.00824219 55.63949219 14.00824219 55.63949219 13.5703125 54.5703125 C11.4375 49.2890625 11.4375 49.2890625 11.4375 47.0625 C2.5275 47.0625 -6.3825 47.0625 -15.5625 47.0625 C-16.5525 50.0325 -17.5425 53.0025 -18.5625 56.0625 C-19.53038417 58.74310101 -20.54581484 61.39975314 -21.5625 64.0625 C-24.8625 64.0625 -28.1625 64.0625 -31.5625 64.0625 C-29.91206465 58.70456496 -27.70309015 53.67255511 -25.421875 48.5625 C-25.01721008 47.64976318 -24.61254517 46.73702637 -24.19561768 45.79663086 C-22.90382884 42.88409875 -21.60835431 39.97322526 -20.3125 37.0625 C-18.61851996 33.25056384 -16.9262444 29.43787331 -15.234375 25.625 C-14.82755493 24.70952393 -14.42073486 23.79404785 -14.00158691 22.85083008 C-11.14466376 16.41089883 -8.35700594 9.94511457 -5.62988281 3.44921875 C-4.11965371 0.07227463 -4.11965371 0.07227463 0 0 Z " fill="#F1F3F3" transform="translate(666.5625,331.9375)"/>
<path d="M0 0 C6 0 6 0 8.23828125 1.80078125 C8.92277344 2.62964844 9.60726562 3.45851563 10.3125 4.3125 C11.47265625 5.68921875 11.47265625 5.68921875 12.65625 7.09375 C13.4296875 8.0528125 14.203125 9.011875 15 10 C16.06734375 11.31484375 16.06734375 11.31484375 17.15625 12.65625 C18.62014306 14.45959652 20.08232524 16.26433296 21.54296875 18.0703125 C24.76330883 21.91014567 28.14735895 25.57936993 31.57543945 29.23364258 C35.49176382 33.41163375 39.22031669 37.68036193 43 42 C43.33 28.14 43.66 14.28 44 0 C46.97 0 49.94 0 53 0 C52.67 21.12 52.34 42.24 52 64 C47 64 47 64 44.203125 61.54296875 C43.20402088 60.4376163 42.22040028 59.31813539 41.25 58.1875 C40.72269287 57.59509521 40.19538574 57.00269043 39.65209961 56.39233398 C35.77695239 52.00449849 32.09118778 47.46916004 28.4296875 42.90234375 C24.94661969 38.74170166 21.24370231 34.79892267 17.51586914 30.85766602 C16.98856201 30.29877686 16.46125488 29.7398877 15.91796875 29.1640625 C15.45156982 28.67373535 14.9851709 28.1834082 14.50463867 27.67822266 C12.57887319 25.53028952 10.80213309 23.25266636 9 21 C8.67 35.19 8.34 49.38 8 64 C5.03 64 2.06 64 -1 64 C-0.67 42.88 -0.34 21.76 0 0 Z " fill="#F0F1F2" transform="translate(869,332)"/>
<path d="M0 0 C2.34706624 1.18190354 4.61594633 2.51688508 6.86328125 3.87890625 C6.86328125 7.17890625 6.86328125 10.47890625 6.86328125 13.87890625 C2.2933377 12.73642036 1.03313597 11.21559543 -2.13671875 7.87890625 C-4.82239172 6.53606976 -7.01418728 6.63603106 -10.01171875 6.56640625 C-11.06101562 6.52902344 -12.1103125 6.49164063 -13.19140625 6.453125 C-16.83325859 6.97959968 -17.94890579 7.97216657 -20.13671875 10.87890625 C-20.80462779 14.96057258 -20.69837765 17.00521462 -18.44921875 20.50390625 C-14.77531605 23.71726274 -9.95041204 24.9297182 -5.4375 26.5703125 C0.44960448 28.90425333 5.88620143 31.84621486 9.42578125 37.25390625 C11.9317259 43.57324493 11.46258647 48.88701883 8.91796875 55.0546875 C6.56593849 59.12282873 2.70728211 61.31623901 -1.13671875 63.87890625 C-11.45967096 66.1388746 -21.74179742 65.97549756 -31.13671875 60.87890625 C-32.13671875 59.87890625 -32.13671875 59.87890625 -32.234375 57.15625 C-32.22277344 56.05410156 -32.21117187 54.95195312 -32.19921875 53.81640625 C-32.19019531 52.71167969 -32.18117188 51.60695313 -32.171875 50.46875 C-32.16027344 49.61410156 -32.14867187 48.75945312 -32.13671875 47.87890625 C-29.38758799 49.13747455 -27.92754248 50.09358716 -25.76171875 52.31640625 C-21.74527174 56.23722357 -18.23237349 58.03474578 -12.63671875 58.31640625 C-8.19080738 58.17371653 -5.55752534 56.78659185 -2.13671875 53.87890625 C-0.55773822 50.72094518 -0.31743704 47.27219989 -1.13671875 43.87890625 C-4.61945908 39.53207694 -8.3725529 37.66914737 -13.51171875 35.87890625 C-21.11028485 33.02714638 -27.3462011 30.48178891 -31.13671875 22.87890625 C-31.96137605 17.35890287 -31.88496931 12.43083335 -29.44921875 7.37890625 C-21.52338681 -1.18956071 -11.30766082 -4.04146782 0 0 Z " fill="#F0F1F1" transform="translate(732.13671875,332.12109375)"/>
<path d="M0 0 C16.5 0 33 0 50 0 C50 2.64 50 5.28 50 8 C43.4 7.67 36.8 7.34 30 7 C30 25.81 30 44.62 30 64 C26.7 64 23.4 64 20 64 C20 45.52 20 27.04 20 8 C13.4 8 6.8 8 0 8 C0 5.36 0 2.72 0 0 Z " fill="#F2F3F3" transform="translate(1148,332)"/>
<path d="M0 0 C16.5 0 33 0 50 0 C50 2.64 50 5.28 50 8 C43.4 7.67 36.8 7.34 30 7 C30 25.81 30 44.62 30 64 C26.7 64 23.4 64 20 64 C20 45.52 20 27.04 20 8 C13.4 8 6.8 8 0 8 C0 5.36 0 2.72 0 0 Z " fill="#F1F3F2" transform="translate(744,332)"/>
<path d="M0 0 C3.63 0 7.26 0 11 0 C11 21.12 11 42.24 11 64 C7.37 64 3.74 64 0 64 C0 42.88 0 21.76 0 0 Z " fill="#F5F6F6" transform="translate(1205,332)"/>
<path d="M0 0 C14.45113835 -0.44238179 14.45113835 -0.44238179 19 3 C21.63523598 6.3539367 21.35571368 9.87372125 21 14 C19.72680717 17.67811263 18.64948523 19.50039598 15.5625 21.875 C10.29220267 23.53930442 5.51550572 23.18385019 0 23 C0 15.41 0 7.82 0 0 Z " fill="#0D2523" transform="translate(1112,339)"/>
<path d="M0 0 C0.66 0 1.32 0 2 0 C3.5056651 3.62267294 5.00356546 7.24850549 6.5 10.875 C6.92925781 11.90753906 7.35851563 12.94007813 7.80078125 14.00390625 C8.40986328 15.48310547 8.40986328 15.48310547 9.03125 16.9921875 C9.40830078 17.90339355 9.78535156 18.81459961 10.17382812 19.75341797 C11 22 11 22 11 24 C4.4 24 -2.2 24 -9 24 C-7.07086147 18.21258441 -5.10959798 12.56964393 -2.8125 6.9375 C-2.40354492 5.92526367 -2.40354492 5.92526367 -1.98632812 4.89257812 C-1.32664689 3.26073506 -0.66368579 1.63021848 0 0 Z " fill="#0B201E" transform="translate(1062,348)"/>
<path d="M0 0 C2.68300071 1.34150035 2.8437032 2.60687715 3.9453125 5.3671875 C4.29980469 6.25277344 4.65429688 7.13835937 5.01953125 8.05078125 C5.38433594 8.98277344 5.74914062 9.91476562 6.125 10.875 C6.68380859 12.26138672 6.68380859 12.26138672 7.25390625 13.67578125 C10 20.60639881 10 20.60639881 10 24 C3.73 24 -2.54 24 -9 24 C-8.28371422 19.7022853 -7.8530841 17.20199375 -6.15234375 13.4765625 C-5.79462891 12.68378906 -5.43691406 11.89101563 -5.06835938 11.07421875 C-4.50858398 9.86185547 -4.50858398 9.86185547 -3.9375 8.625 C-3.56044922 7.79355469 -3.18339844 6.96210938 -2.79492188 6.10546875 C-1.86956644 4.06734412 -0.9378163 2.0324133 0 0 Z " fill="#102524" transform="translate(664,348)"/>
<path d="M0 0 C0.66 0 1.32 0 2 0 C2.99 3.3 3.98 6.6 5 10 C-2.75 14 -2.75 14 -5 14 C-3.45730076 9.27934033 -1.92205381 4.58335908 0 0 Z " fill="#142E2C" transform="translate(1062,348)"/>
<path d="M0 0 C0 0.33 0 0.66 0 1 C-2.97 1 -5.94 1 -9 1 C-9 1.66 -9 2.32 -9 3 C-21.21 3 -33.42 3 -46 3 C-46 2.67 -46 2.34 -46 2 C-13.48571149 -0.38776806 -13.48571149 -0.38776806 0 0 Z " fill="#556564" transform="translate(353,349)"/>
<path d="M0 0 C0.66 1.32 1.32 2.64 2 4 C3.32 4 4.64 4 6 4 C5.5020163 7.73487777 5.12508244 9.81237635 3 13 C2.71125 12.195625 2.4225 11.39125 2.125 10.5625 C1.26737432 7.8673532 1.26737432 7.8673532 -1 7 C-1.28875 7.804375 -1.5775 8.60875 -1.875 9.4375 C-3 12 -3 12 -5 13 C-3.58192622 8.52761347 -1.88695626 4.28853694 0 0 Z " fill="#EAEDED" transform="translate(1053,350)"/>
<path d="M0 0 C1.32 1.32 2.64 2.64 4 4 C3.01 4.495 3.01 4.495 2 5 C1.67 17.87 1.34 30.74 1 44 C0.67 44 0.34 44 0 44 C0 29.48 0 14.96 0 0 Z " fill="#1F3936" transform="translate(877,352)"/>
<path d="M0 0 C4.29 0 8.58 0 13 0 C13.33 1.32 13.66 2.64 14 4 C14.33 4.66 14.66 5.32 15 6 C4.44191344 2.92482916 4.44191344 2.92482916 0 1 C0 0.67 0 0.34 0 0 Z " fill="#29403F" transform="translate(1280,433)"/>
<path d="M0 0 C0.33 0.66 0.66 1.32 1 2 C-8.99687109 4.48811014 -8.99687109 4.48811014 -14 4 C-14.66 3.34 -15.32 2.68 -16 2 C-14.08654673 1.46748234 -12.1690705 0.94940517 -10.25 0.4375 C-9.18265625 0.14746094 -8.1153125 -0.14257812 -7.015625 -0.44140625 C-4.15353343 -0.97156052 -2.64926665 -1.13274719 0 0 Z " fill="#233937" transform="translate(446,428)"/>
<path d="M0 0 C0 0.99 0 1.98 0 3 C-3.42232972 4.14077657 -6.08673217 4.09815117 -9.6875 4.0625 C-11.45673828 4.04896484 -11.45673828 4.04896484 -13.26171875 4.03515625 C-14.16535156 4.02355469 -15.06898438 4.01195312 -16 4 C-16.33 3.01 -16.66 2.02 -17 1 C-16.16855469 1.01160156 -15.33710937 1.02320313 -14.48046875 1.03515625 C-12.85044922 1.04869141 -12.85044922 1.04869141 -11.1875 1.0625 C-9.56908203 1.07990234 -9.56908203 1.07990234 -7.91796875 1.09765625 C-5.08596176 1.0028769 -2.78625619 0 0 0 Z " fill="#F1F3F2" transform="translate(880,596)"/>
<path d="M0 0 C-0.66 1.32 -1.32 2.64 -2 4 C-2.99 3.67 -3.98 3.34 -5 3 C-5 3.66 -5 4.32 -5 5 C-7.64 4.67 -10.28 4.34 -13 4 C-13 3.34 -13 2.68 -13 2 C-8.46298506 0.54815522 -4.81938524 -0.23509196 0 0 Z " fill="#D3D8D7" transform="translate(442,442)"/>
<path d="M0 0 C0.66 0.33 1.32 0.66 2 1 C-0.20151792 2.965641 -1.49725434 3.94943764 -4.47363281 4.2487793 C-5.37436523 4.19117432 -6.27509766 4.13356934 -7.203125 4.07421875 C-8.67265625 3.99204102 -8.67265625 3.99204102 -10.171875 3.90820312 C-11.18765625 3.83537109 -12.2034375 3.76253906 -13.25 3.6875 C-14.28125 3.62626953 -15.3125 3.56503906 -16.375 3.50195312 C-18.91791028 3.3489076 -21.45895864 3.18109518 -24 3 C-24 2.67 -24 2.34 -24 2 C-23.37955811 1.97494385 -22.75911621 1.9498877 -22.11987305 1.92407227 C-19.30887603 1.80803279 -16.49820759 1.68534241 -13.6875 1.5625 C-12.22280273 1.50352539 -12.22280273 1.50352539 -10.72851562 1.44335938 C-9.79072266 1.40146484 -8.85292969 1.35957031 -7.88671875 1.31640625 C-6.59060669 1.26141968 -6.59060669 1.26141968 -5.26831055 1.20532227 C-2.8352174 1.07252646 -2.8352174 1.07252646 0 0 Z " fill="#566967" transform="translate(1696,353)"/>
<path d="M0 0 C12.87 0.495 12.87 0.495 26 1 C26 1.33 26 1.66 26 2 C22.41802596 2.25528048 18.83472621 2.47465688 15.25 2.6875 C13.72632813 2.79674805 13.72632813 2.79674805 12.171875 2.90820312 C11.1921875 2.96298828 10.2125 3.01777344 9.203125 3.07421875 C7.85202637 3.16062622 7.85202637 3.16062622 6.47363281 3.2487793 C4 3 4 3 0 0 Z " fill="#495A59" transform="translate(1426,339)"/>
<path d="M0 0 C0.33 0 0.66 0 1 0 C1.33 3.96 1.66 7.92 2 12 C0.02 12.33 -1.96 12.66 -4 13 C-4.66 11.02 -5.32 9.04 -6 7 C-4.35 7 -2.7 7 -1 7 C-0.67 4.69 -0.34 2.38 0 0 Z " fill="#273D3B" transform="translate(699,381)"/>
<path d="M0 0 C-1 2 -1 2 -3 3.125 C-7.04017477 4.30338431 -10.82206849 4.16384045 -15 4 C-12.60939149 2.40626099 -10.69171821 1.34702924 -8.0625 0.3125 C-7.39347656 0.04050781 -6.72445312 -0.23148437 -6.03515625 -0.51171875 C-3.67169662 -1.0787676 -2.2807201 -0.76024003 0 0 Z " fill="#1B3231" transform="translate(601,435)"/>
<path d="M0 0 C1.58357459 0.31127516 3.16684993 0.62407289 4.75 0.9375 C5.63171875 1.11152344 6.5134375 1.28554688 7.421875 1.46484375 C9.63235053 1.92368488 11.81512068 2.43336074 14 3 C14 3.66 14 4.32 14 5 C14.66 5.33 15.32 5.66 16 6 C11.23649415 5.28547412 6.65798604 4.20465156 2 3 C2 2.34 2 1.68 2 1 C1.34 0.67 0.68 0.34 0 0 Z " fill="#2A3839" transform="translate(343,434)"/>
<path d="M0 0 C7.26 0.33 14.52 0.66 22 1 C22 1.33 22 1.66 22 2 C18.89738494 2.25494218 15.79325198 2.47447008 12.6875 2.6875 C11.36588867 2.79674805 11.36588867 2.79674805 10.01757812 2.90820312 C9.17001953 2.96298828 8.32246094 3.01777344 7.44921875 3.07421875 C6.66893311 3.13182373 5.88864746 3.18942871 5.0847168 3.2487793 C3 3 3 3 0 0 Z " fill="#425453" transform="translate(1558,348)"/>
<path d="M0 0 C2.45823172 3.68734758 3.01242616 6.69699971 4 11 C2.85073734 10.04578192 1.70569459 9.08647955 0.5625 8.125 C-0.07558594 7.59132813 -0.71367188 7.05765625 -1.37109375 6.5078125 C-3 5 -3 5 -4 3 C-3.01 2.67 -2.02 2.34 -1 2 C-0.67 1.34 -0.34 0.68 0 0 Z " fill="#DCDFDF" transform="translate(1007,570)"/>
<path d="M0 0 C7.26 0.33 14.52 0.66 22 1 C22 1.33 22 1.66 22 2 C18.7097621 2.25422542 15.41811775 2.47409878 12.125 2.6875 C10.71927734 2.79674805 10.71927734 2.79674805 9.28515625 2.90820312 C7.94130859 2.99038086 7.94130859 2.99038086 6.5703125 3.07421875 C5.74289551 3.13182373 4.91547852 3.18942871 4.06298828 3.2487793 C3.38220215 3.16668213 2.70141602 3.08458496 2 3 C1.34 2.01 0.68 1.02 0 0 Z " fill="#495A59" transform="translate(1500,344)"/>
<path d="M0 0 C4.29 0 8.58 0 13 0 C12.67 0.66 12.34 1.32 12 2 C9.93359375 2.6328125 9.93359375 2.6328125 7.4375 3.125 C6.19806641 3.37636719 6.19806641 3.37636719 4.93359375 3.6328125 C4.29550781 3.75398438 3.65742187 3.87515625 3 4 C3 3.01 3 2.02 3 1 C2.01 0.67 1.02 0.34 0 0 Z " fill="#1B2D2E" transform="translate(627,433)"/>
<path d="M0 0 C-1.98796013 4.4729103 -4.24337546 8.16161102 -8.75 10.3125 C-9.86375 10.6528125 -9.86375 10.6528125 -11 11 C-10.06558465 9.72689688 -9.12732889 8.456612 -8.1875 7.1875 C-7.66542969 6.47980469 -7.14335938 5.77210938 -6.60546875 5.04296875 C-2.64244742 0 -2.64244742 0 0 0 Z " fill="#203535" transform="translate(804,481)"/>
<path d="M0 0 C-3.30998105 2.20665404 -5.82021436 2.78262095 -9.6875 3.625 C-10.86699219 3.88539063 -12.04648438 4.14578125 -13.26171875 4.4140625 C-14.61716797 4.70410156 -14.61716797 4.70410156 -16 5 C-16.33 4.34 -16.66 3.68 -17 3 C-14.04335481 1.5216774 -11.25770263 1.93967217 -8 2 C-7.67 1.34 -7.34 0.68 -7 0 C-4.3333581 -1.33332095 -2.83319697 -0.67102033 0 0 Z " fill="#273738" transform="translate(1467,467)"/>
<path d="M0 0 C5.61 0.66 11.22 1.32 17 2 C17 2.66 17 3.32 17 4 C14.69 4.33 12.38 4.66 10 5 C10 4.01 10 3.02 10 2 C8.3603125 2.061875 8.3603125 2.061875 6.6875 2.125 C3 2 3 2 0 0 Z " fill="#A6B1AF" transform="translate(1582,411)"/>
<path d="M0 0 C7.26 0.33 14.52 0.66 22 1 C22 1.33 22 1.66 22 2 C19.08379545 2.24901747 16.16888923 2.47485086 13.25 2.6875 C12.425 2.76033203 11.6 2.83316406 10.75 2.90820312 C9.95078125 2.96298828 9.1515625 3.01777344 8.328125 3.07421875 C7.22839355 3.16062622 7.22839355 3.16062622 6.10644531 3.2487793 C4 3 4 3 0 0 Z " fill="#445352" transform="translate(1394,337)"/>
<path d="M0 0 C1.62463842 -0.05395478 3.24978541 -0.09277195 4.875 -0.125 C5.77992188 -0.14820313 6.68484375 -0.17140625 7.6171875 -0.1953125 C10 0 10 0 12 2 C10.68 2.33 9.36 2.66 8 3 C8 2.34 8 1.68 8 1 C7.01 1.66 6.02 2.32 5 3 C2.3125 2.625 2.3125 2.625 0 2 C0 1.34 0 0.68 0 0 Z " fill="#091514" transform="translate(893,433)"/>
<path d="M0 0 C0.66 0.33 1.32 0.66 2 1 C0.75645114 2.29787866 -0.4951264 3.58806759 -1.75 4.875 C-2.44609375 5.59429687 -3.1421875 6.31359375 -3.859375 7.0546875 C-5.85122217 8.86479679 -7.5427658 9.94848086 -10 11 C-10.33 10.34 -10.66 9.68 -11 9 C-9.93458984 8.15115234 -9.93458984 8.15115234 -8.84765625 7.28515625 C-7.92855469 6.55167969 -7.00945313 5.81820313 -6.0625 5.0625 C-5.14597656 4.33160156 -4.22945312 3.60070312 -3.28515625 2.84765625 C-1.59148731 1.48061289 -1.59148731 1.48061289 0 0 Z " fill="#E6E9EA" transform="translate(788,446)"/>
<path d="M0 0 C2.95409701 1.37154504 5.44008376 2.98863724 8 5 C7.67 6.32 7.34 7.64 7 9 C5.82737096 7.88121617 4.66204862 6.75476949 3.5 5.625 C2.8503125 4.99851562 2.200625 4.37203125 1.53125 3.7265625 C0 2 0 2 0 0 Z " fill="#162726" transform="translate(905,366)"/>
<path d="M0 0 C0.66 0 1.32 0 2 0 C2 1.65 2 3.3 2 5 C1.34 5 0.68 5 0 5 C-0.66 6.65 -1.32 8.3 -2 10 C-2.66 10 -3.32 10 -4 10 C-2.8905928 6.51329166 -1.73662334 3.22515763 0 0 Z " fill="#293B3A" transform="translate(1012,355)"/>
<path d="M0 0 C3.63 1.65 7.26 3.3 11 5 C11 5.33 11 5.66 11 6 C7.14521782 6.35858439 5.42240542 6.2754818 2.125 4.125 C1.42375 3.42375 0.7225 2.7225 0 2 C0 1.34 0 0.68 0 0 Z " fill="#132A29" transform="translate(1233,441)"/>
<path d="M0 0 C-0.639375 0.103125 -1.27875 0.20625 -1.9375 0.3125 C-2.618125 0.539375 -3.29875 0.76625 -4 1 C-4.33 1.99 -4.66 2.98 -5 4 C-7.5625 5.1875 -7.5625 5.1875 -10 6 C-10.66 5.34 -11.32 4.68 -12 4 C-10.56988027 3.13353333 -9.13059381 2.28218171 -7.6875 1.4375 C-6.48673828 0.72400391 -6.48673828 0.72400391 -5.26171875 -0.00390625 C-3 -1 -3 -1 0 0 Z " fill="#DADEDF" transform="translate(728,436)"/>
<path d="M0 0 C3.3 0 6.6 0 10 0 C9.01 1.485 9.01 1.485 8 3 C5 3.375 5 3.375 2 3 C1.34 2.01 0.68 1.02 0 0 Z " fill="#071917" transform="translate(1017,433)"/>
<path d="M0 0 C3.63 0 7.26 0 11 0 C10.67 0.66 10.34 1.32 10 2 C7.93359375 2.4140625 7.93359375 2.4140625 5.4375 2.625 C4.61121094 2.69976562 3.78492188 2.77453125 2.93359375 2.8515625 C1.97646484 2.92503906 1.97646484 2.92503906 1 3 C0.67 2.01 0.34 1.02 0 0 Z " fill="#071716" transform="translate(973,433)"/>
<path d="M0 0 C-0.99 0 -1.98 0 -3 0 C-3 0.66 -3 1.32 -3 2 C-4.62626404 3.38232443 -6.2925002 4.71937515 -8 6 C-8.66 5.67 -9.32 5.34 -10 5 C-9.01906046 2.54765115 -8.31296172 1.2190732 -6.125 -0.3125 C-3.64990694 -1.1132654 -2.41712366 -0.86325845 0 0 Z " fill="#1B3332" transform="translate(824,339)"/>
<path d="M0 0 C0.33 0.99 0.66 1.98 1 3 C-0.21484375 4.82421875 -0.21484375 4.82421875 -1.9375 6.6875 C-2.50339844 7.31011719 -3.06929687 7.93273437 -3.65234375 8.57421875 C-4.09707031 9.04472656 -4.54179688 9.51523437 -5 10 C-5.99 9.67 -6.98 9.34 -8 9 C-7.50628906 8.51789062 -7.01257813 8.03578125 -6.50390625 7.5390625 C-5.86324219 6.90742187 -5.22257813 6.27578125 -4.5625 5.625 C-3.92441406 4.99851562 -3.28632812 4.37203125 -2.62890625 3.7265625 C-0.92117824 2.08276939 -0.92117824 2.08276939 0 0 Z " fill="#243535" transform="translate(817,566)"/>
<path d="M0 0 C-0.99 0.33 -1.98 0.66 -3 1 C-3 1.66 -3 2.32 -3 3 C-5.64 3.33 -8.28 3.66 -11 4 C-11.33 3.34 -11.66 2.68 -12 2 C-7.8803623 0.70756464 -4.33168317 -0.26252625 0 0 Z " fill="#E6E9E9" transform="translate(1510,456)"/>
<path d="M0 0 C1.134375 0.020625 2.26875 0.04125 3.4375 0.0625 C0.58443203 2.38722205 -2.10324837 3.8133258 -5.5625 5.0625 C-4.43693182 0.07784091 -4.43693182 0.07784091 0 0 Z " fill="#152728" transform="translate(725.5625,432.9375)"/>
<path d="M0 0 C3.4375 0.1875 3.4375 0.1875 7 1 C8.4375 3.0625 8.4375 3.0625 9 5 C4.78087253 4.5205537 2.20336822 3.83374881 -1 1 C-0.67 0.67 -0.34 0.34 0 0 Z " fill="#1E2D2D" transform="translate(155,311)"/>
<path d="M0 0 C1.22589844 0.29197266 1.22589844 0.29197266 2.4765625 0.58984375 C3.41628906 0.82380859 3.41628906 0.82380859 4.375 1.0625 C4.045 1.7225 3.715 2.3825 3.375 3.0625 C-3.25 2.3125 -3.25 2.3125 -6.625 0.0625 C-3.99249612 -1.25375194 -2.82320944 -0.68563658 0 0 Z " fill="#0E2A29" transform="translate(464.625,454.9375)"/>
<path d="M0 0 C0 0.99 0 1.98 0 3 C-2.31 3.66 -4.62 4.32 -7 5 C-7.33 4.01 -7.66 3.02 -8 2 C-2.25 0 -2.25 0 0 0 Z " fill="#16312F" transform="translate(539,454)"/>
<path d="M0 0 C0 0.66 0 1.32 0 2 C-1.98 2.66 -3.96 3.32 -6 4 C-6 4.66 -6 5.32 -6 6 C-7.65 6 -9.3 6 -11 6 C-8.24029211 2.78034079 -4.3526723 0 0 0 Z " fill="#263939" transform="translate(686,442)"/>
<path d="M0 0 C1.67542976 0.28604898 3.34385343 0.61781233 5 1 C4.34 2.65 3.68 4.3 3 6 C2.34 6 1.68 6 1 6 C0.34 4.35 -0.32 2.7 -1 1 C-0.67 0.67 -0.34 0.34 0 0 Z " fill="#162C2B" transform="translate(991,371)"/>
<path d="M0 0 C2.31 0 4.62 0 7 0 C7 0.66 7 1.32 7 2 C7.99 2.66 8.98 3.32 10 4 C6.53058454 3.54177532 3.32604951 3.10868317 0 2 C0 1.34 0 0.68 0 0 Z " fill="#B1B8B7" transform="translate(322,413)"/>
<path d="M0 0 C0.66 0.66 1.32 1.32 2 2 C-2.39453125 6.00390625 -2.39453125 6.00390625 -4 7 C-4.99 6.67 -5.98 6.34 -7 6 C-4.69 4.02 -2.38 2.04 0 0 Z " fill="#182E2D" transform="translate(721,482)"/>
<path d="M0 0 C-2.90092502 1.93395001 -3.89674737 2.30131941 -7.1875 2.625 C-8.445625 2.74875 -9.70375 2.8725 -11 3 C-11 2.34 -11 1.68 -11 1 C-6.87831311 -0.62950412 -4.29299643 -1.26264601 0 0 Z " fill="#2D3F3E" transform="translate(1478,464)"/>
<path d="M0 0 C0.8125 1.6875 0.8125 1.6875 1 4 C-1.53816609 7.03169839 -3.22508911 8.74169637 -7 10 C-5.33248852 6.05860922 -2.77289351 3.2107188 0 0 Z " fill="#202F30" transform="translate(832,446)"/>
<path d="M0 0 C2.31 0.33 4.62 0.66 7 1 C4.4345406 3.5654594 2.52313332 3.54046087 -1 4 C-0.67 2.68 -0.34 1.36 0 0 Z " fill="#E0E4E4" transform="translate(1484,443)"/>
<path d="M0 0 C0 0.99 0 1.98 0 3 C-3.3 2.67 -6.6 2.34 -10 2 C-10 1.67 -10 1.34 -10 1 C-6.59437148 0.22157062 -3.49234244 -0.09978121 0 0 Z " fill="#314946" transform="translate(578,400)"/>
<path d="M0 0 C0 0.33 0 0.66 0 1 C-1.2065625 1.185625 -1.2065625 1.185625 -2.4375 1.375 C-3.283125 1.58125 -4.12875 1.7875 -5 2 C-5.33 2.66 -5.66 3.32 -6 4 C-8.31 3.34 -10.62 2.68 -13 2 C-13 1.67 -13 1.34 -13 1 C-8.59085217 -0.10228696 -4.51617599 -0.07654536 0 0 Z " fill="#445655" transform="translate(484,378)"/>
<path d="M0 0 C9.41002278 -0.18451025 9.41002278 -0.18451025 14 1 C14 1.33 14 1.66 14 2 C11.36 2.33 8.72 2.66 6 3 C6 2.34 6 1.68 6 1 C4.02 1 2.04 1 0 1 C0 0.67 0 0.34 0 0 Z " fill="#3D4D4B" transform="translate(1399,373)"/>
<path d="M0 0 C3.375 -0.1875 3.375 -0.1875 7 0 C7.66 0.99 8.32 1.98 9 3 C6.36 3 3.72 3 1 3 C0.67 2.01 0.34 1.02 0 0 Z " fill="#0C2724" transform="translate(1148,340)"/>
<path d="M0 0 C0 0.99 0 1.98 0 3 C-4.22222222 6 -4.22222222 6 -7 6 C-7 5.34 -7 4.68 -7 4 C-4.69 2.68 -2.38 1.36 0 0 Z " fill="#122D2C" transform="translate(1063,252)"/>
<path d="M0 0 C2.64 0.33 5.28 0.66 8 1 C5 3 5 3 1.8125 2.625 C0.884375 2.41875 -0.04375 2.2125 -1 2 C-0.67 1.34 -0.34 0.68 0 0 Z " fill="#1B3736" transform="translate(856,611)"/>
<path d="M0 0 C0.99 0.33 1.98 0.66 3 1 C1.35 2.65 -0.3 4.3 -2 6 C-2.33 5.01 -2.66 4.02 -3 3 C-2.01 2.01 -1.02 1.02 0 0 Z " fill="#152D2D" transform="translate(823,457)"/>
<path d="M0 0 C-1.32 1.32 -2.64 2.64 -4 4 C-4.66 3.67 -5.32 3.34 -6 3 C-6 2.01 -6 1.02 -6 0 C-3 -1 -3 -1 0 0 Z " fill="#1C3735" transform="translate(802,435)"/>
<path d="M0 0 C0 0.66 0 1.32 0 2 C1.65 2 3.3 2 5 2 C5 2.33 5 2.66 5 3 C0.48382401 3.07654536 -3.59085217 3.10228696 -8 2 C-8 1.67 -8 1.34 -8 1 C-2.25 0 -2.25 0 0 0 Z " fill="#526364" transform="translate(1538,403)"/>
<path d="M0 0 C1.5625 1.8125 1.5625 1.8125 3 4 C2.67 4.99 2.34 5.98 2 7 C0.68 7 -0.64 7 -2 7 C-1.34 4.69 -0.68 2.38 0 0 Z " fill="#1F3333" transform="translate(1055,365)"/>
<path d="M0 0 C0.86625 0.556875 0.86625 0.556875 1.75 1.125 C0 2.25 0 2.25 -2.25 3.125 C-4.5 2.25 -4.5 2.25 -6.25 1.125 C-2.80384615 -1.09038462 -2.80384615 -1.09038462 0 0 Z " fill="#E4E8E7" transform="translate(1177.25,564.875)"/>
<path d="M0 0 C1.65 0 3.3 0 5 0 C5.33 0.66 5.66 1.32 6 2 C3.36 2.66 0.72 3.32 -2 4 C-1.34 2.68 -0.68 1.36 0 0 Z " fill="#D7DCDB" transform="translate(1389,471)"/>
<path d="M0 0 C-0.33 0.66 -0.66 1.32 -1 2 C-3.64 1.67 -6.28 1.34 -9 1 C-5.64919071 -1.10976881 -3.77897651 -1.0497157 0 0 Z " fill="#1F3635" transform="translate(1599,416)"/>
<path d="M0 0 C2.31 0 4.62 0 7 0 C7 0.99 7 1.98 7 3 C5.35 3 3.7 3 2 3 C2 2.34 2 1.68 2 1 C1.34 0.67 0.68 0.34 0 0 Z " fill="#DDE1E1" transform="translate(663,332)"/>
</svg>
