<?xml version="1.0" encoding="UTF-8"?>
<svg version="1.1" xmlns="http://www.w3.org/2000/svg" width="1254" height="1254">
<path d="M0 0 C413.82 0 827.64 0 1254 0 C1254 413.82 1254 827.64 1254 1254 C840.18 1254 426.36 1254 0 1254 C0 840.18 0 426.36 0 0 Z " fill="#FEFDFD" transform="translate(0,0)"/>
<path d="M0 0 C1.00481415 -0.00349457 2.0096283 -0.00698914 3.04489136 -0.0105896 C23.68316319 -0.05042735 43.8895447 1.75207127 64.25 5.0625 C65.06089081 5.19288666 65.87178162 5.32327332 66.70724487 5.45761108 C91.64481095 9.48644781 115.56178879 15.38978945 139.5625 23.3125 C140.41553711 23.5909375 141.26857422 23.869375 142.14746094 24.15625 C154.26009705 28.13678253 165.92462684 33.12201297 177.5625 38.3125 C178.35382324 38.66151367 179.14514648 39.01052734 179.96044922 39.37011719 C199.07077568 47.85196071 217.27042405 58.57526444 234.5625 70.3125 C235.53678955 70.97233887 235.53678955 70.97233887 236.53076172 71.64550781 C247.32445143 79.00266422 257.57386254 86.8998499 267.5625 95.3125 C268.54516846 96.12452881 269.52783691 96.93655762 270.5402832 97.77319336 C279.8718878 105.55658311 288.51269194 113.95431957 297.07788086 122.56713867 C299.38237295 124.88240743 301.69744523 127.18671144 304.01367188 129.49023438 C311.65844549 137.12819232 318.91179911 144.78477532 325.5625 153.3125 C326.48465188 154.403366 327.41437123 155.48793583 328.35546875 156.5625 C344.99484769 175.67199882 358.90100205 196.7162504 371.18115234 218.82861328 C372.38627815 220.99562458 373.60746826 223.15254908 374.83203125 225.30859375 C401.74603192 273.55172301 417.91862158 329.49165563 423.5625 384.3125 C423.6648999 385.28421143 423.7672998 386.25592285 423.87280273 387.25708008 C424.90353115 398.96027547 424.74856158 410.71967699 424.74780273 422.45825195 C424.74997677 426.20991584 424.76814816 429.96127899 424.78710938 433.71289062 C424.83630243 454.21151681 423.46662083 474.3093877 420.3125 494.5625 C420.1529332 495.59602097 420.1529332 495.59602097 419.99014282 496.65042114 C412.98493684 541.7308913 398.46309722 584.81073801 377.57617188 625.34277344 C376.89081994 626.67452185 376.20994356 628.00858155 375.53320312 629.34472656 C367.18524075 645.81524078 357.28122058 661.29020305 346.5625 676.3125 C345.54736328 677.74142578 345.54736328 677.74142578 344.51171875 679.19921875 C340.05651512 685.4019003 335.38368484 691.39142508 330.5625 697.3125 C329.86382813 698.18648437 329.16515625 699.06046875 328.4453125 699.9609375 C323.21753852 706.45379557 317.70805185 712.6351003 312.03027344 718.73144531 C310.50511068 720.37431857 308.98981659 722.02584232 307.4765625 723.6796875 C300.28650029 731.53037267 293.0829501 739.28097083 284.9921875 746.22265625 C283.08682997 747.86150879 281.20019106 749.51588988 279.3203125 751.18359375 C209.78636749 812.60351946 115.57194295 852.84480525 -34.22869873 856.16540527 C-44.72541093 855.48626926 -55.06936154 854.07380091 -65.4375 852.3125 C-66.80873352 852.08514778 -68.17999056 851.85793735 -69.55126953 851.63085938 C-154.75148084 837.35613443 -233.5684651 799.56482255 -296.93164062 740.70068359 C-298.47984465 739.27346439 -300.04228868 737.86347684 -301.609375 736.45703125 C-306.58737659 731.97736815 -311.3530047 727.48156879 -315.6640625 722.33984375 C-317.81530389 719.88060525 -320.11159898 717.60696992 -322.4375 715.3125 C-325.91213402 711.86912206 -329.24912717 708.38949219 -332.41796875 704.6640625 C-334.02062683 702.79791132 -335.64806331 700.96958188 -337.30078125 699.1484375 C-345.44403787 690.08820912 -352.35693814 680.49177058 -359.07910156 670.34326172 C-360.72874389 667.8770998 -362.45057708 665.46777805 -364.1875 663.0625 C-383.33336003 635.72464608 -397.37685989 604.66537558 -408.4375 573.3125 C-408.79473145 572.30654785 -409.15196289 571.3005957 -409.52001953 570.26416016 C-414.07848993 557.33231459 -417.96281463 544.40531959 -420.85644531 531.00048828 C-421.45878021 528.21405665 -422.08469389 525.43349068 -422.7109375 522.65234375 C-443.03003392 430.71764049 -432.91089362 331.11849561 -391.4375 246.3125 C-391.07027832 245.55453125 -390.70305664 244.7965625 -390.32470703 244.015625 C-388.40147937 240.05534785 -386.43314881 236.12148728 -384.41455078 232.20898438 C-383.74960528 230.91830555 -383.08929479 229.6252306 -382.43310547 228.33007812 C-370.50162057 204.79492743 -355.79751231 182.97920429 -339.4375 162.3125 C-338.70015625 161.38050781 -337.9628125 160.44851563 -337.203125 159.48828125 C-332.42609077 153.55086814 -327.40209704 147.90512295 -322.2109375 142.33203125 C-320.12074413 140.0819615 -318.10380536 137.77835032 -316.09765625 135.453125 C-312.39992737 131.21069531 -308.4897611 127.21667666 -304.5 123.25 C-303.83548828 122.58162109 -303.17097656 121.91324219 -302.48632812 121.22460938 C-298.56717483 117.3130587 -294.54447166 113.5790846 -290.35131836 109.96313477 C-288.57570303 108.43169769 -286.82397606 106.8776833 -285.078125 105.3125 C-261.80124495 84.62003573 -235.74785136 67.2038174 -208.4375 52.3125 C-207.61282227 51.85568848 -206.78814453 51.39887695 -205.93847656 50.92822266 C-185.09543824 39.41270932 -163.37489025 30.38201248 -140.8125 22.875 C-139.70779861 22.5069072 -139.70779861 22.5069072 -138.58078003 22.13137817 C-123.01772743 16.97648013 -107.32486634 12.45525573 -91.25 9.1875 C-90.00734375 8.93379639 -88.7646875 8.68009277 -87.484375 8.41870117 C-77.16106671 6.36264227 -66.85081698 4.79871967 -56.39013672 3.65234375 C-53.33770383 3.30101362 -50.29772156 2.88787048 -47.25390625 2.46875 C-31.48667329 0.42668202 -15.88343522 0.01764639 0 0 Z " fill="#020202" transform="translate(629.4375,179.6875)"/>
<path d="M0 0 C-0.70318703 9.50012127 -2.06151558 18.89276087 -3.4375 28.3125 C-3.65716739 29.83003959 -3.87656977 31.34761757 -4.09570312 32.86523438 C-4.90539978 38.46748653 -5.71823832 44.06927756 -6.53564453 49.67041016 C-7.88942844 59.02250291 -9.0893926 68.39222109 -10.25 77.77001953 C-11.11998844 84.78260214 -12.07457626 91.70799438 -13.54003906 98.62109375 C-14.57598248 103.97896672 -15.07314612 109.42766473 -15.6796875 114.84765625 C-16.50368764 121.82356649 -17.60837461 128.73011449 -18.7890625 135.65234375 C-21.23145553 150.0333957 -23.30131437 164.46450054 -25.35449219 178.9050293 C-25.78196164 181.91098216 -26.21228149 184.91650231 -26.64550781 187.92163086 C-29.07686247 204.78718891 -31.3715412 221.65681755 -33.37428284 238.57896996 C-34.40850161 247.31183557 -35.53716266 256.01608614 -36.89221191 264.70527649 C-38.64769097 276.02279902 -40.04198415 287.39115025 -41.5 298.75 C-41.79800103 301.05731441 -42.09617752 303.36460617 -42.39453125 305.671875 C-44.13997763 319.18022581 -44.13997763 319.18022581 -45.81640625 332.69726562 C-45.94752808 333.77163879 -46.0786499 334.84601196 -46.21374512 335.95294189 C-46.45775045 337.95965647 -46.69866 339.96675127 -46.93566895 341.9743042 C-48.99268272 358.86297798 -48.99268272 358.86297798 -52.3359375 362.63671875 C-53.33882812 363.31347656 -54.34171875 363.99023438 -55.375 364.6875 C-56.56053506 365.52122719 -57.74538616 366.35592749 -58.9296875 367.19140625 C-59.5803418 367.63629395 -60.23099609 368.08118164 -60.90136719 368.53955078 C-64.85082621 371.28799935 -68.66134011 374.22494543 -72.5 377.125 C-74.22754288 378.41839855 -75.95541339 379.7113596 -77.68359375 381.00390625 C-83.00096387 384.99168907 -88.28310568 389.02465506 -93.5625 393.0625 C-100.22093422 398.15362895 -106.92344609 403.17513215 -113.6875 408.125 C-122.93722704 414.9004059 -131.97967653 421.92348993 -141 429 C-151.09695702 436.90961712 -161.25649281 444.7184797 -171.53417969 452.39208984 C-179.35964646 458.24527218 -187.07368605 464.23464925 -194.76904297 470.25732422 C-197.04125115 472.03222267 -199.31858496 473.80033091 -201.59765625 475.56640625 C-209.33435799 481.56323235 -217.03263636 487.60059733 -224.65991211 493.73608398 C-228.65048042 496.93982509 -232.68247375 500.08219075 -236.75 503.1875 C-241.63159573 506.91525064 -246.40318138 510.75889316 -251.140625 514.66796875 C-254.29119447 517.23749057 -257.48366165 519.7475328 -260.6875 522.25 C-271.43952287 530.66236606 -282.03013092 539.26867332 -292.42260742 548.12158203 C-295.70609582 550.91649551 -299.02443637 553.66099412 -302.375 556.375 C-310.54839295 563.03524294 -318.58222535 569.90424968 -326.33203125 577.0546875 C-327.09193359 577.75573608 -327.09193359 577.75573608 -327.8671875 578.47094727 C-329.2252757 579.73153758 -330.57579827 581.00026474 -331.92578125 582.26953125 C-334 584 -334 584 -336 584 C-364.92516221 534.19196865 -381.31108668 483.10597405 -388 426 C-388.09105011 425.23517807 -388.18210022 424.47035614 -388.27590942 423.68235779 C-388.97720334 417.33488256 -389.17492327 411.05109981 -389.203125 404.66796875 C-389.21009399 403.60594742 -389.21706299 402.54392609 -389.22424316 401.44972229 C-389.24158403 398.02894096 -389.24796615 394.6083235 -389.25 391.1875 C-389.25100708 390.02005249 -389.25201416 388.85260498 -389.25305176 387.64978027 C-389.24267946 369.89058453 -388.66046535 352.58269492 -386 335 C-385.85014648 333.95650391 -385.70029297 332.91300781 -385.54589844 331.83789062 C-380.73096638 298.69561945 -371.23152372 266.75099524 -358 236 C-357.56961426 234.99630371 -357.13922852 233.99260742 -356.69580078 232.95849609 C-341.5657846 198.02538123 -321.2569635 165.49503574 -296 137 C-294.87479988 135.68767156 -293.74976899 134.37519797 -292.625 133.0625 C-283.4143669 122.6222921 -273.88343163 112.64982857 -263.50976562 103.36132812 C-262.07055818 102.06362103 -260.65186784 100.74326663 -259.234375 99.421875 C-252.68873726 93.33558026 -245.82671813 87.78919916 -238.74658203 82.34814453 C-237.07059873 81.05449346 -235.40683587 79.74672693 -233.74609375 78.43359375 C-168.59412867 27.16434672 -82.75423611 -1.55164193 0 0 Z " fill="#FDFDFD" transform="translate(624,220)"/>
<path d="M0 0 C47.11932483 -1.28637186 96.68540048 8.35429146 140 27 C141.44415283 27.61137817 141.44415283 27.61137817 142.91748047 28.23510742 C185.83785318 46.4595478 224.60095774 70.42551253 259 102 C260.05462831 102.96100246 261.10931887 103.92193661 262.1640625 104.8828125 C270.90400881 112.86998075 279.53399022 120.94326308 287.234375 129.95703125 C289.2129461 132.2463956 291.26252331 134.46191342 293.3125 136.6875 C298.05061543 141.95296049 302.39341208 147.4791071 306.62255859 153.15576172 C307.55472332 154.40382488 308.49273346 155.64753989 309.43603516 156.88720703 C353.15115012 214.41463626 378.71396115 284.24663527 385 356 C385.09498779 357.0003125 385.18997559 358.000625 385.2878418 359.03125 C389.3096264 404.75411769 385.1166701 454.1805237 371 498 C370.7304248 498.84062988 370.46084961 499.68125977 370.18310547 500.54736328 C368.44489018 505.92699886 366.65003149 511.28535759 364.8125 516.63183594 C364.09503893 518.72299351 363.38957604 520.81770731 362.6875 522.9140625 C359.71561202 531.57555181 356.02321948 539.79079594 352 548 C351.69191406 548.63131836 351.38382813 549.26263672 351.06640625 549.91308594 C345.60817249 561.06169826 339.81933241 572.03666512 334 583 C331.12534764 581.60989946 328.9270433 580.21639356 326.5625 578.0625 C322.98267263 574.86194802 319.35441242 571.7251297 315.6875 568.625 C315.12675781 568.150625 314.56601562 567.67625 313.98828125 567.1875 C310.54013637 564.27837547 307.06365013 561.40782997 303.5625 558.5625 C299.29253963 555.08926693 295.1052486 551.53175655 290.9375 547.9375 C286.27415687 543.9201584 281.56294826 539.99055058 276.734375 536.171875 C273.25954646 533.41186833 269.81720432 530.61302113 266.375 527.8125 C265.6941333 527.25916992 265.0132666 526.70583984 264.31176758 526.13574219 C260.82768462 523.30352517 257.34702485 520.46721606 253.87109375 517.625 C246.72469028 511.78814242 239.52685052 506.04264398 232.19140625 500.4453125 C228.87368901 497.91141233 225.59112045 495.33418719 222.3125 492.75 C214.68008375 486.73810659 207.00905577 480.77635358 199.33642578 474.81591797 C196.99282947 472.99442692 194.65050573 471.17131223 192.30859375 469.34765625 C183.56079035 462.53645266 174.79600444 455.74885251 166 449 C158.72954122 443.42164288 151.478751 437.81979267 144.25 432.1875 C136.29622465 425.99342427 128.30331234 419.85262488 120.28515625 413.7421875 C117.84507149 411.88188356 115.40685139 410.01915243 112.96875 408.15625 C104.25697408 401.50413754 95.52594004 394.87977884 86.75 388.3125 C49.20647844 360.2110176 49.20647844 360.2110176 48.61450195 356.73901367 C48.49034912 355.72556885 48.36619629 354.71212402 48.23828125 353.66796875 C48.09205322 352.50007813 47.9458252 351.3321875 47.79516602 350.12890625 C47.63588623 348.82824219 47.47660645 347.52757812 47.3125 346.1875 C46.95612715 343.33685816 46.59563257 340.4867453 46.234375 337.63671875 C46.13774063 336.87249603 46.04110626 336.10827332 45.94154358 335.32089233 C44.71877039 325.70442097 43.38491224 316.10316685 42.0625 306.5 C40.11278321 292.32141181 38.2326176 278.13646322 36.4375 263.9375 C34.76954554 250.76552203 32.98266984 237.61708259 31.0769043 224.47753906 C29.23893963 211.78595035 27.4945811 199.0822372 25.75543213 186.37677002 C22.69114405 164.0097983 19.55187648 141.65472064 16.3125 119.3125 C16.21641071 118.64953163 16.12032143 117.98656326 16.02132034 117.30350494 C13.68579999 101.19960915 11.27675209 85.11553245 8.60522461 69.06396484 C6.55450442 56.60432716 5.01516938 44.08690872 3.45410156 31.55859375 C2.6538777 25.28759209 1.7713463 19.02742621 0.86279297 12.77124023 C0.25676319 8.47234965 -0.14119994 4.35601812 0 0 Z " fill="#FDFDFD" transform="translate(630,220)"/>
<path d="M0 0 C3.99719496 1.75226594 7.99269829 3.48412473 12.0625 5.0625 C16.8621458 6.95062513 21.54811539 9.07107406 26.25 11.1875 C32.06322871 13.80369146 37.86772397 16.18157532 43.89453125 18.26953125 C46.37396274 19.21083399 48.65174883 20.33209401 51 21.5625 C56.06600067 24.20138138 61.31691567 26.14117169 66.69213867 28.04443359 C70.53393951 29.42606339 73.82881753 31.088358 77.3125 33.1875 C79.52488818 34.02491189 81.75607491 34.81368737 84 35.5625 C88.22391082 37.02883174 92.23383373 38.53741051 96.1875 40.625 C101.1381111 43.22756007 106.26921042 45.13976483 111.51708984 47.04467773 C117.19462393 49.1068609 122.77031025 51.30865076 128.125 54.125 C134.51372208 57.35621905 141.19666512 59.8007037 147.9375 62.1875 C151.88022022 63.60113638 155.52060049 65.25132393 159.2265625 67.1875 C162.55825991 68.78471823 166.03195334 69.95538389 169.51171875 71.1875 C175.1646266 73.20583251 180.7509434 75.31697963 186.0625 78.125 C189.69993928 80.01025816 193.44471413 81.34200428 197.3125 82.6875 C201.83052404 84.2591956 206.07644782 85.92108444 210.2902832 88.17358398 C212.35797711 89.2103017 214.43466874 90.06697623 216.58984375 90.90625 C220.85039056 92.59138011 225.07957061 94.33966282 229.30078125 96.12109375 C248.23534224 104.10251126 267.27026061 111.80972336 286.375 119.375 C288.11168442 120.06346512 288.11168442 120.06346512 289.88345337 120.76583862 C293.22482528 122.08957597 296.56723601 123.41064692 299.91015625 124.73046875 C301.39270905 125.31716339 301.39270905 125.31716339 302.9052124 125.91571045 C309.33650964 128.44818875 315.80543032 130.85673869 322.3125 133.1875 C321.43255996 137.29813242 319.46580081 140.31500562 317.125 143.75 C316.68792725 144.39694824 316.25085449 145.04389648 315.80053711 145.71044922 C306.6685281 159.09773722 297.00177966 172.00628475 286.3125 184.1875 C285.70277344 184.89648438 285.09304688 185.60546875 284.46484375 186.3359375 C272.9399064 199.68633774 260.87223401 212.87053569 247.3125 224.1875 C246.04792969 225.26837891 246.04792969 225.26837891 244.7578125 226.37109375 C213.99270044 252.42555857 178.42543878 277.08203826 140.34765625 291.0546875 C137.51428797 292.1121866 134.76783868 293.28327907 132 294.5 C62.59720461 323.35789808 -23.89626869 331.81440419 -96.80932617 311.94458008 C-99.77398691 311.16475032 -102.74935038 310.49112188 -105.7421875 309.828125 C-112.31485622 308.31866357 -118.74792671 306.49708912 -125.1875 304.5 C-126.3017334 304.15549805 -127.4159668 303.81099609 -128.56396484 303.45605469 C-135.89330135 301.15317528 -143.13111476 298.66681528 -150.3125 295.9375 C-151.14587891 295.62079346 -151.97925781 295.30408691 -152.83789062 294.9777832 C-157.34149949 293.22264618 -161.65867631 291.25967758 -165.95849609 289.05371094 C-167.98967037 288.03611614 -170.05463536 287.21742811 -172.1875 286.4375 C-179.59583005 283.523858 -186.63619795 279.86324668 -193.6875 276.1875 C-194.3784375 275.82946289 -195.069375 275.47142578 -195.78125 275.10253906 C-221.95349158 261.41826536 -246.67275444 243.85564264 -268.6875 224.1875 C-269.56535156 223.40890625 -270.44320312 222.6303125 -271.34765625 221.828125 C-272.97810468 220.37079867 -274.6019446 218.90604152 -276.21875 217.43359375 C-277.93615148 215.87108449 -279.66634734 214.32257024 -281.40625 212.78515625 C-293.8875122 201.62918936 -305.36971766 189.36922559 -315.6875 176.1875 C-316.54061953 175.12546008 -317.39484657 174.06430916 -318.25 173.00390625 C-323.35566666 166.63830463 -328.25740213 160.14067624 -333 153.5 C-333.47928955 152.83597168 -333.9585791 152.17194336 -334.45239258 151.48779297 C-338.34341908 145.97342941 -341.54666756 140.15556409 -344.6875 134.1875 C-333.19286436 129.56808294 -321.68984124 124.97084004 -310.1640625 120.4296875 C-309.34179169 120.10563431 -308.51952087 119.78158112 -307.67233276 119.44770813 C-303.59204592 117.84007601 -299.51107857 116.23419937 -295.42919922 114.63061523 C-287.02397733 111.32379655 -278.64349267 107.96749841 -270.3067627 104.49104309 C-266.50757962 102.91183244 -262.69339071 101.42854167 -258.8125 100.0625 C-254.19950099 98.42945648 -249.80035331 96.46475019 -245.36328125 94.40625 C-240.12730676 92.02139739 -234.7605206 89.97407165 -229.3828125 87.93359375 C-228.24585938 87.50175781 -227.10890625 87.06992187 -225.9375 86.625 C-224.89078125 86.23183594 -223.8440625 85.83867188 -222.765625 85.43359375 C-219.65439578 84.22182337 -219.65439578 84.22182337 -216.6328125 82.65625 C-213.88911227 81.28803874 -211.20989168 80.23987135 -208.3125 79.25 C-204.97960713 78.06866466 -201.81834726 76.8302285 -198.6875 75.1875 C-195.69065566 73.61917172 -192.693698 72.42775962 -189.5 71.3125 C-184.13585201 69.427598 -179.05089617 67.10744963 -173.92578125 64.65234375 C-171.01464408 63.33548435 -168.07946751 62.21121839 -165.08227539 61.10961914 C-159.73773285 59.05167876 -154.50571003 56.7103919 -149.25 54.4375 C-138.0478575 49.61059315 -126.84053319 44.79237753 -115.48999023 40.32202148 C-108.8918674 37.71635501 -102.38791636 34.91586275 -95.88809204 32.07476807 C-83.54120489 26.6813243 -71.14881784 21.40603835 -58.70678711 16.23608398 C-51.48172097 13.22857762 -44.29261362 10.15108068 -37.12890625 7 C-34.72440274 5.94805338 -32.31954588 4.89691792 -29.91464233 3.84588623 C-28.35718954 3.16163756 -26.80182665 2.47261037 -25.24868774 1.77862549 C-23.08484337 0.81194794 -20.91446938 -0.13840649 -18.7421875 -1.0859375 C-18.10088394 -1.37791016 -17.45958038 -1.66988281 -16.79884338 -1.97070312 C-10.19089424 -4.81530141 -6.2977073 -2.78566 0 0 Z " fill="#FDFDFD" transform="translate(636.6875,675.8125)"/>
<path d="M0 0 C-1.26538369 0.84158536 -2.53753779 1.67299748 -3.8125 2.5 C-4.87404297 3.19609375 -4.87404297 3.19609375 -5.95703125 3.90625 C-8 5 -8 5 -11 5 C-12.34136367 5.65035814 -13.67532254 6.3162955 -15 7 C-15.66 7 -16.32 7 -17 7 C-16 4 -16 4 -13.78515625 2.8671875 C-12.88667969 2.53976562 -11.98820312 2.21234375 -11.0625 1.875 C-10.16660156 1.54242187 -9.27070313 1.20984375 -8.34765625 0.8671875 C-7.57292969 0.58101562 -6.79820312 0.29484375 -6 0 C-3.50907189 -1.24546405 -2.58919267 -0.7767578 0 0 Z " fill="#D6D6D7" transform="translate(470,740)"/>
<path d="M0 0 C0.66 0.33 1.32 0.66 2 1 C-0.80627778 5.74908547 -3.25091453 8.19372222 -8 11 C-8 8 -8 8 -6.25 5.95703125 C-5.5075 5.24933594 -4.765 4.54164063 -4 3.8125 C-2.88625 2.73935547 -2.88625 2.73935547 -1.75 1.64453125 C-1.1725 1.10183594 -0.595 0.55914062 0 0 Z " fill="#161616" transform="translate(344,285)"/>
<path d="M0 0 C2.35333796 4.70667591 2.17102038 6.8693886 2 12 C1.01 12.33 0.02 12.66 -1 13 C-0.67 8.71 -0.34 4.42 0 0 Z " fill="#1A1A1A" transform="translate(579,537)"/>
<path d="M0 0 C0.66 0.33 1.32 0.66 2 1 C1.07038578 2.15224028 0.1309875 3.29659176 -0.8125 4.4375 C-1.59560547 5.39462891 -1.59560547 5.39462891 -2.39453125 6.37109375 C-4 8 -4 8 -7 9 C-7 6 -7 6 -5.46875 4.39453125 C-4.49421875 3.61142578 -4.49421875 3.61142578 -3.5 2.8125 C-2.8503125 2.28269531 -2.200625 1.75289062 -1.53125 1.20703125 C-1.0259375 0.80871094 -0.520625 0.41039062 0 0 Z " fill="#1A191A" transform="translate(331,767)"/>
<path d="M0 0 C0.66 0.33 1.32 0.66 2 1 C-0.35468455 3.72647685 -2.5408417 4.98756342 -6 6 C-8.16015625 5.546875 -8.16015625 5.546875 -10 5 C-8.38007835 4.13624104 -6.75388139 3.28424146 -5.125 2.4375 C-4.22007812 1.96183594 -3.31515625 1.48617187 -2.3828125 0.99609375 C-1.20332031 0.50302734 -1.20332031 0.50302734 0 0 Z " fill="#2B2B2B" transform="translate(816,947)"/>
<path d="M0 0 C0.66 0.33 1.32 0.66 2 1 C-0.21928194 3.90802461 -1.92969143 5.95312762 -5 8 C-5.99 7.67 -6.98 7.34 -8 7 C-5.36 4.69 -2.72 2.38 0 0 Z " fill="#181818" transform="translate(318,778)"/>
<path d="M0 0 C-2.25 2.0625 -2.25 2.0625 -5 4 C-7.3125 3.75 -7.3125 3.75 -9 3 C-9.33 3.66 -9.66 4.32 -10 5 C-10.66 4.34 -11.32 3.68 -12 3 C-10.3789897 2.30314502 -8.75303934 1.61777139 -7.125 0.9375 C-6.22007812 0.55464844 -5.31515625 0.17179688 -4.3828125 -0.22265625 C-2 -1 -2 -1 0 0 Z " fill="#C6C6C6" transform="translate(430,756)"/>
<path d="M0 0 C0.33 0.66 0.66 1.32 1 2 C-0.76227632 5.61730402 -2.64326421 7.80075931 -6 10 C-6.66 9.67 -7.32 9.34 -8 9 C-5.36 6.03 -2.72 3.06 0 0 Z " fill="#DFDFE0" transform="translate(341,342)"/>
<path d="M0 0 C-0.66 0 -1.32 0 -2 0 C-2 0.66 -2 1.32 -2 2 C-5.37817425 2.84454356 -7.67465243 3.10844919 -11 2 C-3.57142857 -1.57142857 -3.57142857 -1.57142857 0 0 Z " fill="#DDDCDD" transform="translate(388,774)"/>
<path d="M0 0 C0.6875 1.625 0.6875 1.625 1 4 C-0.4375 7.25 -0.4375 7.25 -2 10 C-2.66 10 -3.32 10 -4 10 C-2.8905928 6.51329166 -1.73662334 3.22515763 0 0 Z " fill="#2F2F30" transform="translate(976,778)"/>
<path d="M0 0 C0.33 0 0.66 0 1 0 C0.67 2.97 0.34 5.94 0 9 C-0.99 9.33 -1.98 9.66 -3 10 C-2.01 6.7 -1.02 3.4 0 0 Z " fill="#CFCFD0" transform="translate(262,465)"/>
</svg>
