<?xml version="1.0" encoding="UTF-8"?>
<svg version="1.1" xmlns="http://www.w3.org/2000/svg" width="1536" height="1024">
<path d="M0 0 C506.88 0 1013.76 0 1536 0 C1536 337.92 1536 675.84 1536 1024 C1029.12 1024 522.24 1024 0 1024 C0 686.08 0 348.16 0 0 Z " fill="#FDFDFD" transform="translate(0,0)"/>
<path d="M0 0 C1.05522354 -0.00686325 2.11044708 -0.0137265 3.19764709 -0.02079773 C6.65151809 -0.03895104 10.10492988 -0.03524468 13.55883789 -0.02954102 C15.98059739 -0.03410813 18.40235559 -0.03941527 20.82411194 -0.04542542 C25.88670128 -0.05433391 30.94913268 -0.05195888 36.01171875 -0.04199219 C42.47524996 -0.03050264 48.93823481 -0.05072612 55.4016943 -0.07990932 C60.39908772 -0.09832011 65.39635137 -0.09796915 70.39377022 -0.0922718 C72.77582122 -0.0921192 75.15788136 -0.09811242 77.53989983 -0.11056328 C101.33213613 -0.21742583 101.33213613 -0.21742583 110.84399414 4.40405273 C112.00415039 4.94545898 113.16430664 5.48686523 114.35961914 6.04467773 C127.33124238 13.67940456 135.70723655 23.53468649 140.14868164 38.07202148 C142.95768574 51.53314785 140.63868009 64.51377869 133.53149414 76.27905273 C124.89577677 88.88500457 112.7808084 96.17131768 97.84399414 99.40405273 C96.31254008 99.5000145 94.77761467 99.54722055 93.24319458 99.55795288 C91.8643383 99.57085358 91.8643383 99.57085358 90.45762634 99.58401489 C89.4560701 99.58827484 88.45451385 99.59253479 87.42260742 99.59692383 C85.83149391 99.60919006 85.83149391 99.60919006 84.20823669 99.6217041 C80.69359902 99.64653625 77.17900185 99.66307358 73.66430664 99.67749023 C72.46083462 99.68281391 71.25736259 99.68813759 70.01742172 99.69362259 C63.6406086 99.72035172 57.26381498 99.73972267 50.88696289 99.75415039 C45.62604263 99.7674587 40.36551306 99.79525512 35.10473633 99.83618164 C28.73934278 99.8856971 22.3743021 99.91029548 16.00872421 99.91737747 C13.59201074 99.9240606 11.17530423 99.93920516 8.75870132 99.96326828 C-8.39125484 100.12421868 -22.08363604 99.26488587 -36.15600586 88.40405273 C-37.18725586 87.66155273 -38.21850586 86.91905273 -39.28100586 86.15405273 C-49.10861959 76.75372656 -54.89890154 63.75026013 -55.46850586 50.15405273 C-55.05125948 36.82534894 -50.08580272 25.43338489 -41.09350586 15.65405273 C-29.47536522 4.76823101 -15.74859528 -0.07307364 0 0 Z " fill="#FDFDFD" transform="translate(256.156005859375,251.595947265625)"/>
<path d="M0 0 C1.49133568 1.21437334 2.97011167 2.44429599 4.4375 3.6875 C5.2625 4.3784375 6.0875 5.069375 6.9375 5.78125 C12.65253433 10.72963338 18.63510128 16.07612204 22.4375 22.6875 C22.18009598 25.22688356 21.77970069 26.36471146 19.90966797 28.12866211 C19.25627441 28.56960205 18.60288086 29.01054199 17.9296875 29.46484375 C17.19741943 29.97160645 16.46515137 30.47836914 15.71069336 31.00048828 C14.91928955 31.53657715 14.12788574 32.07266602 13.3125 32.625 C-8.24648747 47.73926973 -22.48131322 61.7206884 -28.375 87.9375 C-31.65127665 102.40202646 -36.56546774 118.02281182 -49.5625 126.6875 C-49.5625 128.0075 -49.5625 129.3275 -49.5625 130.6875 C-47.9125 131.3475 -46.2625 132.0075 -44.5625 132.6875 C-44.8925 134.3375 -45.2225 135.9875 -45.5625 137.6875 C-38.36274797 139.31763254 -33.13296978 138.00206735 -26.5625 134.6875 C-24.51752811 133.1866367 -22.70533875 131.6403285 -20.90234375 129.859375 C-19.5625 128.6875 -19.5625 128.6875 -17.5625 128.6875 C-16.54145449 129.66600195 -15.5418879 130.66730427 -14.5625 131.6875 C-11.73093519 133.1032824 -9.15726291 132.91945249 -6 133.0625 C-0.75119293 133.38954518 3.51858803 134.17017661 8.39453125 136.0546875 C11.78349543 137.10442402 14.91737904 136.8795066 18.4375 136.6875 C3.99506384 157.2570303 -16.93225888 167.72161191 -40.93286133 173.23168945 C-54.09706602 175.51351753 -69.87972723 174.9902738 -82.5625 170.6875 C-83.68011719 170.3471875 -84.79773437 170.006875 -85.94921875 169.65625 C-103.44378342 163.95945006 -117.84123933 153.89407096 -129.5625 139.6875 C-123.73808215 133.86308215 -112.41676036 134.39859138 -104.703125 134.0078125 C-101.88824461 133.72072271 -100.01623778 133.27685823 -97.5 132.0625 C-94.5625 130.6875 -94.5625 130.6875 -91.9375 130.75 C-88.98082181 131.91710981 -86.9810228 133.64105763 -84.5625 135.6875 C-81.244576 137.76210608 -78.69069017 137.90483786 -74.8125 137.8125 C-73.82765625 137.79445313 -72.8428125 137.77640625 -71.828125 137.7578125 C-71.08046875 137.73460937 -70.3328125 137.71140625 -69.5625 137.6875 C-69.8925 135.7075 -70.2225 133.7275 -70.5625 131.6875 C-68.5825 131.0275 -66.6025 130.3675 -64.5625 129.6875 C-64.5625 128.3675 -64.5625 127.0475 -64.5625 125.6875 C-66.04741811 124.13030177 -66.04741811 124.13030177 -68.0625 122.75 C-73.76217231 118.06090789 -76.98351104 112.0483757 -80.5625 105.6875 C-80.98660156 105.00945312 -81.41070313 104.33140625 -81.84765625 103.6328125 C-86.1642449 96.24701443 -86.92424976 86.7517472 -87.98046875 78.37109375 C-90.49150682 59.3021215 -105.63634646 45.43469959 -119.96142578 33.90234375 C-121.51160059 32.72612084 -123.13864229 31.65339689 -124.765625 30.5859375 C-127.30912437 28.85948402 -129.02189079 27.30920664 -130.9375 24.9375 C-131.44023438 24.32390625 -131.94296875 23.7103125 -132.4609375 23.078125 C-132.82445312 22.61921875 -133.18796875 22.1603125 -133.5625 21.6875 C-117.16440391 0.40486465 -96.98267138 -12.28244951 -70.70703125 -17.92578125 C-45.89756586 -20.9768832 -20.11580507 -15.25419193 0 0 Z " fill="#FDC412" transform="translate(1180.5625,432.3125)"/>
<path d="M0 0 C2.20434743 1.22511677 3.61336454 2.6203022 5.37109375 4.421875 C9.99288019 8.79606574 15.34359408 10.04596638 21.29174805 11.83911133 C26.83505588 13.56593986 30.86429851 15.78592908 35.44921875 19.390625 C38.59013942 21.51026472 41.90416082 22.79888121 45.43359375 24.109375 C52.23603013 26.64001789 57.97373824 30.04273288 63.99609375 34.109375 C67.82771278 36.39204165 71.3097278 37.44582191 75.62109375 38.421875 C84.40440956 40.51986999 91.88274133 44.47595579 99.18359375 49.734375 C106.68720526 55.1317096 113.5387371 58.63216972 122.99609375 57.109375 C126.66393154 55.9152193 126.66393154 55.9152193 128.99609375 53.109375 C130.61362942 48.58027512 130.35152535 45.10458349 128.74609375 40.609375 C125.90147288 36.29236234 121.57702323 33.40267097 117.5703125 30.23046875 C113.83915247 27.15608347 111.4944692 24.85043997 110.59765625 19.91796875 C110.31196666 15.78907399 110.558066 13.72535152 112.99609375 10.296875 C118.8498421 6.02851682 124.69812235 3.71283582 131.69921875 1.91796875 C134.22546225 1.02862793 135.88918298 -0.26542246 137.99609375 -1.890625 C138.65609375 -1.890625 139.31609375 -1.890625 139.99609375 -1.890625 C141.55553714 1.22826178 141.2792565 3.6547895 140.99609375 7.109375 C139.55723396 11.12996037 137.82347841 13.56405329 134.24609375 15.921875 C130.51912328 17.28365267 126.86760833 18.24162173 122.99609375 19.109375 C121.98581003 21.32342695 121.98581003 21.32342695 121.99609375 24.109375 C123.85241492 26.19659701 125.53857693 27.80973079 127.68359375 29.546875 C133.12130657 34.06862671 138.24608082 38.67713849 139.26953125 46.08984375 C139.55487216 52.29052117 138.2012859 56.47422555 133.99609375 61.109375 C127.40224122 66.10165722 120.98304517 66.59860422 112.99609375 66.109375 C109.30859375 65.109375 109.30859375 65.109375 106.99609375 64.109375 C107.32609375 64.769375 107.65609375 65.429375 107.99609375 66.109375 C108.0947827 68.29504489 108.12581412 70.4839833 108.12109375 72.671875 C108.11851562 73.92742187 108.1159375 75.18296875 108.11328125 76.4765625 C108.01569428 79.50175856 107.72795182 82.31722204 107.24609375 85.296875 C107.16359375 86.555 107.08109375 87.813125 106.99609375 89.109375 C109.82471742 92.00439829 112.16561504 92.48886031 116.12109375 92.671875 C120.78704539 92.90032664 120.78704539 92.90032664 122.99609375 95.109375 C123.58034719 97.59353405 123.94827032 100.07984397 124.3359375 102.6015625 C125.35459221 106.47124488 127.00876598 108.52710478 130.43359375 110.546875 C133.37297661 112.33918162 134.86866194 114.43292853 136.99609375 117.109375 C137.67671875 117.41875 138.35734375 117.728125 139.05859375 118.046875 C142.05689235 119.69110327 142.75693806 122.01148578 143.99609375 125.109375 C143.99609375 126.429375 143.99609375 127.749375 143.99609375 129.109375 C139.94064027 129.45864851 136.03943971 129.64884388 131.99609375 129.109375 C130.30877098 127.12677074 128.64243318 125.1261408 126.99609375 123.109375 C124.32071707 122.67007713 124.32071707 122.67007713 121.30859375 122.671875 C115.11256334 122.48181272 112.09315614 120.53440553 107.265625 116.83203125 C101.16008514 112.19770582 96.04306059 112.01717867 88.49609375 112.234375 C82.5737662 112.40074326 78.35368853 112.29509758 73.44140625 108.59375 C70.02725586 105.08732528 68.5003312 102.12632482 67.30859375 97.359375 C66.93154297 95.88210938 66.93154297 95.88210938 66.546875 94.375 C66.36511719 93.62734375 66.18335938 92.8796875 65.99609375 92.109375 C66.98609375 91.449375 67.97609375 90.789375 68.99609375 90.109375 C69.33640625 90.77324219 69.67671875 91.43710937 70.02734375 92.12109375 C74.04763087 99.44528705 78.03566334 103.4558982 85.99609375 106.109375 C87.39444101 106.22111824 88.79681339 106.28683414 90.19921875 106.3203125 C91.01519531 106.34867188 91.83117188 106.37703125 92.671875 106.40625 C94.37218913 106.45785286 96.0727386 106.50226221 97.7734375 106.5390625 C105.11468685 106.81565588 110.23350055 108.7722531 116.43359375 112.796875 C117.11292969 113.23386719 117.79226563 113.67085937 118.4921875 114.12109375 C118.98847656 114.44722656 119.48476562 114.77335938 119.99609375 115.109375 C115.32633374 108.54646904 110.89548228 105.78929275 102.99609375 104.109375 C100.26998847 103.83848333 97.54554551 103.71491054 94.80859375 103.609375 C87.5916934 103.32281666 82.36537034 102.66836311 77.26171875 97.27734375 C71.77838556 90.44928837 70.67089274 83.57588689 69.65625 75.03515625 C68.9746511 72.0143422 68.40450063 70.96653889 65.99609375 69.109375 C66.15464844 69.645625 66.31320312 70.181875 66.4765625 70.734375 C67.09489055 73.56101752 67.23988857 76.21652552 67.30859375 79.109375 C67.36466797 80.65625 67.36466797 80.65625 67.421875 82.234375 C66.89337071 85.80299115 65.76796395 86.88776475 62.99609375 89.109375 C60.38321777 90.41581299 58.49345529 90.20592277 55.5703125 90.171875 C54.46864746 90.16349609 53.36698242 90.15511719 52.23193359 90.14648438 C51.06098145 90.13423828 49.8900293 90.12199219 48.68359375 90.109375 C39.72906432 90.05551317 30.90363083 90.09961371 21.99609375 91.109375 C21.99609375 88.799375 21.99609375 86.489375 21.99609375 84.109375 C21.00609375 84.109375 20.01609375 84.109375 18.99609375 84.109375 C18.90328125 85.1921875 18.90328125 85.1921875 18.80859375 86.296875 C17.42903934 91.07225566 14.23864523 93.27215726 10.25390625 95.95703125 C4.80323975 99.27291188 4.80323975 99.27291188 1.0625 104.1796875 C0.72300453 106.28231444 0.72300453 106.28231444 0.99609375 109.109375 C6.74565684 112.19990205 6.74565684 112.19990205 13.05859375 112.859375 C13.69796875 112.611875 14.33734375 112.364375 14.99609375 112.109375 C15.49109375 110.129375 15.49109375 110.129375 15.99609375 108.109375 C16.65609375 108.109375 17.31609375 108.109375 17.99609375 108.109375 C18.14046875 107.47 18.28484375 106.830625 18.43359375 106.171875 C18.99609375 104.109375 18.99609375 104.109375 19.99609375 103.109375 C22.01573574 103.03693447 24.03776499 103.02560312 26.05859375 103.046875 C27.16332031 103.05589844 28.26804687 103.06492187 29.40625 103.07421875 C30.26089844 103.08582031 31.11554688 103.09742188 31.99609375 103.109375 C32.21281627 108.01897359 31.21644195 110.29580476 27.99609375 114.109375 C26.00012155 114.78800555 24.00040824 115.45579419 21.99609375 116.109375 C20.68541042 118.55226128 20.68541042 118.55226128 19.99609375 121.109375 C17.64259333 123.46287542 17.03594103 123.4796324 13.80859375 123.609375 C7.53064858 123.50929182 2.23137743 121.08579281 -3.42578125 118.63671875 C-6.37329497 117.37855514 -9.26124241 116.31041794 -12.31640625 115.359375 C-16.00390625 114.109375 -16.00390625 114.109375 -18.00390625 112.109375 C-19.67641071 106.42285985 -20.06209938 100.55930936 -17.25390625 95.265625 C-16.52149685 94.03622351 -15.77118543 92.81732128 -15.00390625 91.609375 C-14.62234375 90.97773437 -14.24078125 90.34609375 -13.84765625 89.6953125 C-12.91538949 88.15707234 -11.96182114 86.63177546 -11.00390625 85.109375 C-9.35390625 85.439375 -7.70390625 85.769375 -6.00390625 86.109375 C-6.33176687 89.82512864 -6.99125591 91.09549048 -9.56640625 93.921875 C-11.75883818 96.37485682 -12.40122062 97.99885426 -12.50390625 101.296875 C-12.33424011 105.00981769 -12.33424011 105.00981769 -10.50390625 107.109375 C-10.00890625 107.439375 -9.51390625 107.769375 -9.00390625 108.109375 C-9.33390625 107.449375 -9.66390625 106.789375 -10.00390625 106.109375 C-10.61010667 102.39639742 -10.62536131 100.0248689 -8.4765625 96.859375 C-7.20451321 95.31938895 -5.9219234 93.78804842 -4.62890625 92.265625 C-2.62831516 89.61099451 -2.08871443 87.41689383 -2.00390625 84.109375 C-3.05578125 83.635 -4.10765625 83.160625 -5.19140625 82.671875 C-9.94893499 79.88297884 -12.26896411 76.29968308 -14.00390625 71.109375 C-14.66957142 66.43985709 -14.93015042 61.82304286 -15.00390625 57.109375 C-16.48890625 56.614375 -16.48890625 56.614375 -18.00390625 56.109375 C-17.08351028 66.16341428 -17.08351028 66.16341428 -14.31640625 75.796875 C-12.96079618 79.2181766 -12.94005706 79.83214832 -14.00390625 83.109375 C-16.75475172 82.99525696 -19.50402572 82.86851551 -22.25390625 82.734375 C-23.03121094 82.7034375 -23.80851562 82.6725 -24.609375 82.640625 C-25.36347656 82.60195313 -26.11757812 82.56328125 -26.89453125 82.5234375 C-27.9314209 82.47630615 -27.9314209 82.47630615 -28.98925781 82.42822266 C-31.2939879 82.06346533 -32.97686372 81.24213406 -35.00390625 80.109375 C-34.66544678 80.66399414 -34.3269873 81.21861328 -33.97827148 81.79003906 C-32.45302327 84.30555448 -30.9471203 86.83212291 -29.44140625 89.359375 C-28.90837891 90.23207031 -28.37535156 91.10476563 -27.82617188 92.00390625 C-27.32666016 92.84824219 -26.82714844 93.69257812 -26.3125 94.5625 C-25.84642334 95.33754883 -25.38034668 96.11259766 -24.90014648 96.91113281 C-23.85810732 99.46698154 -24.04951362 100.56770339 -25.00390625 103.109375 C-26.65390625 103.109375 -28.30390625 103.109375 -30.00390625 103.109375 C-29.01390625 104.594375 -29.01390625 104.594375 -28.00390625 106.109375 C-28.22343079 108.45097011 -28.88121026 109.90007007 -30.06640625 111.921875 C-33.25408832 113.87561563 -36.53729725 112.91683384 -40.00390625 112.109375 C-40.94621094 111.7690625 -41.88851563 111.42875 -42.859375 111.078125 C-46.20653702 110.04694962 -49.01264608 109.87584398 -52.50390625 109.796875 C-58.42165868 109.44519143 -61.06376089 108.49982269 -65.00390625 104.109375 C-67.9569436 105.47433449 -70.3465559 107.07535866 -72.87890625 109.109375 C-78.10570679 113.07787171 -82.40716051 114.42350575 -89.00390625 114.109375 C-89.00390625 113.449375 -89.00390625 112.789375 -89.00390625 112.109375 C-87.45703125 111.42875 -87.45703125 111.42875 -85.87890625 110.734375 C-80.79639726 107.85360067 -78.62086688 103.15297186 -76.00390625 98.109375 C-75.66101562 97.45453125 -75.318125 96.7996875 -74.96484375 96.125 C-74.28857536 94.79774428 -73.6415892 93.45559457 -73.00390625 92.109375 C-76.92736623 95.79504952 -80.09018823 99.76835371 -83.2578125 104.12109375 C-85.08764134 106.20472435 -86.42696969 107.13723726 -89.00390625 108.109375 C-91.75390625 108.234375 -91.75390625 108.234375 -94.00390625 108.109375 C-92.66663652 105.1232387 -91.18686307 103.15659714 -88.87890625 100.859375 C-79.96740878 90.88520943 -75.65319901 77.74882603 -73.19140625 64.85546875 C-68.43117452 40.5726505 -53.09636137 27.67630397 -33.89404297 13.51660156 C-28.63103899 9.59824004 -23.54818758 5.4402459 -18.56640625 1.171875 C-12.9075924 -3.38278005 -6.40757791 -2.56787621 0 0 Z " fill="#E71D30" transform="translate(1228.00390625,453.890625)"/>
<path d="M0 0 C1.19498611 -0.00365067 2.38997223 -0.00730133 3.62117004 -0.01106262 C6.86502626 -0.01772919 10.10849991 -0.01112923 13.35232472 0.00226951 C16.7669009 0.01368901 20.18146426 0.00946853 23.59605408 0.00752258 C29.32613055 0.00664301 35.05608796 0.01765001 40.78613281 0.03613281 C47.38737303 0.05730538 53.98843917 0.06080611 60.58970648 0.05457085 C66.97185478 0.04885389 73.35394251 0.05454958 79.73608208 0.0657444 C82.43797374 0.07035858 85.13982798 0.07127818 87.84172249 0.06915855 C91.62244608 0.06878596 95.40290943 0.08146259 99.18359375 0.09765625 C100.28985107 0.09517883 101.3961084 0.09270142 102.53588867 0.09014893 C122.60050378 0.22667723 141.25990175 8.35759841 155.83959961 22.05981445 C163.38011093 30.03511638 169.90587778 39.98416293 173.52709961 50.37231445 C173.97182617 51.5634082 173.97182617 51.5634082 174.42553711 52.77856445 C180.11424662 70.94068289 177.23066165 91.72820673 169.33959961 108.68481445 C161.33337731 123.67518812 149.48449125 134.55692428 134.52709961 142.37231445 C133.7781543 142.77321289 133.02920898 143.17411133 132.25756836 143.5871582 C117.10536905 151.03675526 100.15767629 149.83024631 83.74584961 149.8059082 C81.72662591 149.80839199 79.70741196 149.81274092 77.68819189 149.81726128 C71.35499024 149.83122771 65.02192372 149.82981071 58.6887207 149.81835938 C52.19588578 149.80687751 45.70346391 149.82097273 39.21068335 149.84775585 C33.59576216 149.87003436 27.98096949 149.87652336 22.36600733 149.87067944 C19.03001451 149.86733842 15.69449588 149.87128679 12.35850525 149.88693047 C-14.25602964 149.99418931 -14.25602964 149.99418931 -25.47290039 145.37231445 C-26.71169952 144.86809967 -26.71169952 144.86809967 -27.9755249 144.35369873 C-29.96574081 143.5025622 -31.86988696 142.56675498 -33.78540039 141.55981445 C-34.79074829 141.04378662 -34.79074829 141.04378662 -35.81640625 140.51733398 C-41.19229369 137.68257391 -45.88297838 134.35855152 -50.47290039 130.37231445 C-51.05942383 129.93918945 -51.64594727 129.50606445 -52.25024414 129.05981445 C-61.32551473 122.14532258 -67.5314993 110.86339678 -71.47290039 100.37231445 C-71.86477539 99.3977832 -72.25665039 98.42325195 -72.66040039 97.41918945 C-78.98841882 79.22613646 -76.67261427 59.22270691 -68.66040039 42.05981445 C-65.80528444 36.65804986 -62.41337794 32.02207796 -58.47290039 27.37231445 C-57.97532227 26.71875977 -57.47774414 26.06520508 -56.96508789 25.3918457 C-43.50644607 8.45018853 -21.11885735 -0.14618925 0 0 Z M-35.43774414 42.8684082 C-43.30101026 52.54279128 -48.35755534 64.19056935 -47.82055664 76.8684082 C-46.41790802 86.97063031 -43.48167026 96.04161785 -37.47290039 104.37231445 C-37.07200195 104.94336914 -36.67110352 105.51442383 -36.25805664 106.1027832 C-29.19577825 115.35270339 -16.7663097 122.13507682 -5.47290039 124.37231445 C-1.87936224 124.66166524 1.70111098 124.66613341 5.30493164 124.6628418 C6.36771835 124.66955902 7.43050507 124.67627625 8.52549744 124.68319702 C12.02868365 124.70214725 15.53167786 124.70610015 19.03491211 124.70825195 C21.48241249 124.71468333 23.9299121 124.72141195 26.37741089 124.72842407 C31.50675232 124.74039043 36.63602645 124.74410569 41.76538086 124.74291992 C48.31185632 124.7427171 54.85789589 124.76998505 61.40426826 124.80446434 C66.46088612 124.82679559 71.51740025 124.8307555 76.57406235 124.82970047 C78.98599622 124.83204837 81.39793331 124.8408257 83.80981827 124.8563652 C103.94498551 124.97391864 119.90506515 123.24219471 135.16772461 108.88012695 C144.80874411 98.63255325 149.18471875 86.24484965 149 72.2578125 C148.42359848 59.31923859 142.3676825 47.18008718 132.98803711 38.3215332 C121.69206721 29.37440784 109.87784089 24.90168956 95.50048828 24.96826172 C94.44701706 24.96139847 93.39354584 24.95453522 92.30815125 24.94746399 C88.85364999 24.92928439 85.39960682 24.93302159 81.94506836 24.9387207 C79.52427525 24.93415414 77.10348344 24.92884716 74.68269348 24.9228363 C69.61832399 24.91392209 64.55411233 24.91630855 59.48974609 24.92626953 C53.02740529 24.93774685 46.56561194 24.91755728 40.10334301 24.88835239 C35.10590706 24.86992808 30.10860072 24.87029547 25.1111393 24.87598991 C22.72991481 24.87614242 20.34868114 24.87015722 17.96748924 24.85769844 C-2.69951163 24.76480158 -20.49667411 26.84268699 -35.43774414 42.8684082 Z " fill="#35414C" transform="translate(248.472900390625,226.627685546875)"/>
<path d="M0 0 C0.845625 0.7425 1.69125 1.485 2.5625 2.25 C7.31454414 5.70691736 12.74894083 6.6596931 18.37890625 7.91015625 C22.2136255 9.06429505 24.84028012 10.56250181 28 13 C29.90367494 16.80734988 29.71644946 20.87130821 29 25 C25.63967288 30.98355022 19.65897776 35.04190305 14.234375 39.04296875 C11.28175917 41.62908856 9.38258619 44.18013054 8.56640625 48.0625 C8.55873165 51.86910125 8.76231816 53.62763178 10.875 56.9375 C14.67628811 60.62698552 17.87567624 60.33745942 22.9921875 60.27734375 C30.57512166 59.57813813 36.53067408 55.8207783 42.66796875 51.5859375 C50.37488777 46.34471619 56.7152322 43.60126161 65.99609375 42.47265625 C72.31943985 41.47769542 76.56311968 38.41418894 81.4375 34.4375 C86.32055876 30.51091667 91.07903688 28.79832222 97.16796875 27.55859375 C102.37297604 26.47462413 104.3857739 24.7863321 108 21 C114.3585956 16.22461748 121.28142197 13.71005212 128.74780273 11.26342773 C133.02911022 9.82429687 136.5616161 8.20638375 140.3125 5.625 C145.69992632 2.14657653 150.75377595 1.86353424 157 3 C160.09471114 4.21025311 162.43211823 5.9113889 165 8 C165.79019531 8.61617188 166.58039063 9.23234375 167.39453125 9.8671875 C169.11136133 11.22271847 170.81561626 12.594308 172.5078125 13.98046875 C174.73431857 15.78470642 177.00747759 17.48617394 179.3125 19.1875 C191.5316048 28.7465165 206.11332998 42.40406003 208.34790039 58.50708008 C208.57897151 60.48925015 208.80923082 62.47151497 209.03881836 64.45385742 C211.29231937 82.73164116 218.71460275 97.2066545 232 110 C228.86332065 110.54891889 226.75935672 110.47911793 224.03125 108.7578125 C219.50686906 104.98169456 216.27574662 100.8455042 213.2265625 95.8203125 C212.11895764 93.85454239 212.11895764 93.85454239 210 93 C211.04987581 95.23590266 212.11409987 97.46291713 213.1875 99.6875 C213.47947266 100.31333984 213.77144531 100.93917969 214.07226562 101.58398438 C216.14075681 105.83217595 218.46197039 108.77948587 222 112 C223.66666667 113.66666667 225.33333333 115.33333333 227 117 C220.12699337 117.61366131 216.41711403 116.23062224 211 112 C208.5 109.6875 208.5 109.6875 207 108 C206.13375 108.433125 206.13375 108.433125 205.25 108.875 C204.5075 109.24625 203.765 109.6175 203 110 C202.44183594 110.34417969 201.88367187 110.68835938 201.30859375 111.04296875 C198.12458667 112.362904 195.24906206 112.32189699 191.8125 112.4375 C186.47871962 112.67860025 181.91954626 113.43662583 176.93359375 115.359375 C173.89552479 116.36592714 171.15219629 116.32165268 168 116 C167.34 115.34 166.68 114.68 166 114 C166.32657554 110.24438133 167.1169378 107.26397448 169 104 C167.35 104 165.7 104 164 104 C165.09243477 100.50420873 166.70478494 97.97268125 168.9375 95.125 C171.70830753 91.56156538 173.41869569 88.2168115 175 84 C174.154375 84.144375 173.30875 84.28875 172.4375 84.4375 C166.21007814 85.45653267 160.30955415 86.2474335 154 86 C154.54031079 83.65865324 155.19348813 81.45581464 156 79.1875 C157.06442952 75.79463091 157.57697117 72.52524029 158 69 C157.01 69 156.02 69 155 69 C154.9175 70.19625 154.835 71.3925 154.75 72.625 C154.17205188 76.97887585 153.00826673 79.68319309 150 83 C147.35507682 84.34016184 144.86150755 85.14154773 142 86 C142.28235247 90.51763959 142.92620487 93.16631362 145.5625 96.875 C148.47348351 101.17016876 148.73709439 104.92457865 148 110 C147.67 110.66 147.34 111.32 147 112 C150.27999925 109.54000056 150.95312792 108.31768853 151.5625 104.1875 C151.38364796 100.00391739 149.69381835 97.77871071 147.11328125 94.609375 C145.5731326 92.38291449 145.60185243 90.62777395 146 88 C147.65 88 149.3 88 151 88 C159.24249044 101.79355543 159.24249044 101.79355543 158 109 C156.81270668 112.81183645 155.92670107 115.2095785 152.875 117.8125 C149.80151179 119.08198426 146.90607997 119.70011601 143.65234375 120.328125 C140.47156351 121.1338602 137.58755912 122.35654176 134.5625 123.625 C129.04609091 125.79539046 123.91203151 127.44947491 118 126 C115.5625 123.6875 115.5625 123.6875 114 121 C111.98909714 118.53207376 111.18552438 118.0463811 108 117.25 C105 116 105 116 103.125 112.625 C102 109 102 109 102 105 C104.10241603 104.86503749 106.2072961 104.76802693 108.3125 104.6875 C109.48425781 104.62949219 110.65601563 104.57148437 111.86328125 104.51171875 C112.89839844 104.67285156 113.93351563 104.83398438 115 105 C116.73046875 107.39453125 116.73046875 107.39453125 118 110 C119.485 110.99 119.485 110.99 121 112 C121.33 112.99 121.66 113.98 122 115 C127.96403511 116.83508773 131.75182088 114.71739052 137 112 C137 108.20469166 136.89774962 106.03273345 134.36328125 103.1171875 C131.28344151 100.40692853 128.11193001 98.07391604 124.6875 95.8125 C120.775476 93.17415823 119.29378589 91.38880604 118.3125 86.75 C118.209375 85.8425 118.10625 84.935 118 84 C117.34 84 116.68 84 116 84 C116 86.64 116 89.28 116 92 C110.35836923 92.0988093 104.71724101 92.17143996 99.07495117 92.21972656 C97.15526559 92.23985348 95.23564138 92.2671579 93.31616211 92.30175781 C90.55827704 92.3502293 87.80120173 92.37295742 85.04296875 92.390625 C83.75376778 92.42159271 83.75376778 92.42159271 82.43852234 92.45318604 C76.51542274 92.45542124 76.51542274 92.45542124 73.953125 90.19140625 C72.55977262 86.98783786 72.71606568 84.22163569 72.8125 80.75 C72.85310547 78.85507812 72.85310547 78.85507812 72.89453125 76.921875 C72.92933594 75.95765625 72.96414063 74.9934375 73 74 C72.34 74 71.68 74 71 74 C70.82984375 75.15757812 70.6596875 76.31515625 70.484375 77.5078125 C70.24035779 79.04699798 69.99552264 80.58605394 69.75 82.125 C69.64042969 82.88554688 69.53085937 83.64609375 69.41796875 84.4296875 C68.35418434 90.9243713 66.01308778 95.03266421 61.25 99.6875 C54.15010383 104.7393492 47.1391171 105.54463841 38.7109375 106.08398438 C30.25984999 106.80276244 24.15721123 110.29331642 18 116 C17.67 116.66 17.34 117.32 17 118 C21.2510777 115.98073809 25.15583171 113.67987055 29.0703125 111.0859375 C32.2831063 109.27792803 35.36520201 108.88463904 39.01171875 108.82421875 C52.61329881 108.71352699 52.61329881 108.71352699 64.015625 102.0625 C66.62044182 99.18237734 68.84584259 96.23123611 71 93 C72.98 93.99 72.98 93.99 75 95 C73.04297413 102.56807907 70.74041353 107.09073194 64.31640625 111.66015625 C58.33907848 115.11753133 54.00072159 115.05611716 47.25 114.75 C40.25102595 114.57578039 35.20268761 114.63540576 29.65625 119.39453125 C29.1096875 119.92433594 28.563125 120.45414063 28 121 C24.55129468 124.19654192 22.20283029 124.27145817 17.5625 124.25 C13.02603372 124.24690375 13.02603372 124.24690375 9.49609375 126.61328125 C9.16738281 127.25652344 8.83867188 127.89976562 8.5 128.5625 C7.51953125 130.4765625 7.51953125 130.4765625 6 132 C1.61473707 132.63648343 -2.59871359 132.40597517 -7 132 C-6.24111306 127.8612555 -5.24568109 124.60913033 -3 121 C-1.33927151 120.31867549 0.327767 119.65257873 2 119 C2.61875 118.01 3.2375 117.02 3.875 116 C6 113 6 113 9.5625 112.3125 C10.696875 111.879375 11.83125 111.44625 13 111 C14.10726906 108.25840181 14.68558948 105.63582142 15.19921875 102.7265625 C16.1855403 99.36825792 17.18589133 98.07404994 20 96 C23.1640625 95.2421875 23.1640625 95.2421875 26.625 94.875 C31.34158421 94.57981445 31.34158421 94.57981445 35 92 C34.58984222 87.34375005 34.58984222 87.34375005 33 83 C32.92818179 80.28239892 32.90700494 77.59140612 32.9375 74.875 C32.94201172 74.12089844 32.94652344 73.36679687 32.95117188 72.58984375 C32.96296501 70.72652873 32.98090058 68.86325445 33 67 C31.97777344 67.32097656 30.95554687 67.64195312 29.90234375 67.97265625 C23.69069782 69.73603273 16.64715338 70.3921311 10.5234375 68.0546875 C5.90990491 65.30730292 2.42241471 61.84482942 0 57 C-0.48547402 51.6836616 -0.78091557 46.7315954 1.4375 41.8125 C11.08646582 31.22217166 11.08646582 31.22217166 15.28125 28.54296875 C17.29909342 27.08278668 17.29909342 27.08278668 17.25 24.3125 C17.1675 23.549375 17.085 22.78625 17 22 C16.19175781 21.82984375 15.38351562 21.6596875 14.55078125 21.484375 C3.64691256 19.01160381 3.64691256 19.01160381 0 15 C-1.77722904 12.03164937 -2.27306554 9.82329767 -2.25 6.375 C-2.25515625 5.59898437 -2.2603125 4.82296875 -2.265625 4.0234375 C-2 2 -2 2 0 0 Z " fill="#E71E31" transform="translate(882,451)"/>
<path d="M0 0 C2.60315709 0.00560408 5.20631736 0.00987034 7.80947876 0.01286316 C13.9254367 0.0230887 20.04120549 0.04665415 26.15709269 0.07691163 C33.12945001 0.11064486 40.10181589 0.1269888 47.07423472 0.14199793 C61.39593151 0.17321048 75.71749114 0.22585164 90.0390625 0.29296875 C88.51593995 3.38545555 86.85060661 6.30992064 85.03515625 9.2421875 C84.45958984 10.17224609 83.88402344 11.10230469 83.29101562 12.06054688 C82.69224609 13.02412109 82.09347656 13.98769531 81.4765625 14.98046875 C80.57260742 16.44323242 80.57260742 16.44323242 79.65039062 17.93554688 C75.16912775 25.1629035 75.16912775 25.1629035 74.0390625 26.29296875 C71.06401478 26.3970468 68.11142111 26.43657753 65.13574219 26.43481445 C64.20062805 26.43828888 63.26551392 26.44176331 62.30206299 26.44534302 C60.2618749 26.45271762 58.22167869 26.45805387 56.18148041 26.46163368 C52.94328808 26.468789 49.7052482 26.48445296 46.46710205 26.50297546 C37.25641091 26.55545765 28.04579804 26.60333216 18.83496094 26.61889648 C13.20558725 26.62903356 7.57658939 26.65851386 1.94736481 26.70021629 C-0.19099826 26.71246183 -2.32941463 26.71765945 -4.46781158 26.71541786 C-20.49039821 26.7027674 -33.43740462 27.79059255 -46.9609375 37.29296875 C-47.59644531 37.73253906 -48.23195313 38.17210937 -48.88671875 38.625 C-56.973608 44.84706335 -60.92082399 54.20271336 -64.9609375 63.29296875 C-17.1109375 63.29296875 30.7390625 63.29296875 80.0390625 63.29296875 C78.58525337 66.92749157 77.24046859 69.82849266 75.25390625 73.12109375 C74.72345703 74.0028125 74.19300781 74.88453125 73.64648438 75.79296875 C73.09541016 76.70046875 72.54433594 77.60796875 71.9765625 78.54296875 C71.42162109 79.4659375 70.86667969 80.38890625 70.29492188 81.33984375 C66.1864709 88.14556035 66.1864709 88.14556035 65.0390625 89.29296875 C63.36881581 89.38911008 61.69447974 89.41484597 60.02146912 89.41322327 C58.93466858 89.41459793 57.84786804 89.4159726 56.72813416 89.41738892 C55.52548416 89.41379364 54.32283417 89.41019836 53.08374023 89.40649414 C51.82538361 89.40664017 50.56702698 89.40678619 49.27053833 89.40693665 C45.80994997 89.4072246 42.34939598 89.40132824 38.88881564 89.39436269 C35.27598159 89.38812878 31.66314683 89.38752532 28.05030823 89.38633728 C21.20442742 89.38322407 14.3585625 89.37501083 7.5126887 89.36498779 C-0.27920339 89.35382632 -8.07109623 89.34831612 -15.86299431 89.34329236 C-31.89565136 89.33282821 -47.9282924 89.31522898 -63.9609375 89.29296875 C-63.20063026 91.19666764 -62.43207904 93.09707511 -61.66015625 94.99609375 C-61.23307373 96.05473633 -60.80599121 97.11337891 -60.3659668 98.20410156 C-55.51555094 108.86743108 -46.11710538 116.91385421 -35.45703125 121.50390625 C-27.79305427 123.9266345 -20.58346186 124.59490801 -12.56616211 124.61181641 C-11.4626944 124.62186203 -10.35922668 124.63190765 -9.22232056 124.64225769 C-5.60264572 124.67296051 -1.98304441 124.69008901 1.63671875 124.70703125 C4.15734992 124.72575326 6.6779749 124.74532744 9.19859314 124.76571655 C15.13751921 124.81170947 21.07645955 124.84915662 27.01546711 124.88238943 C33.78223141 124.92073653 40.54890154 124.97011328 47.31558621 125.02037358 C61.22334162 125.12343011 75.13115779 125.21277513 89.0390625 125.29296875 C86.35114333 134.3415073 82.29362679 143.9862644 75.0390625 150.29296875 C67.65089729 153.57378545 59.12570901 152.603432 51.2421875 152.2890625 C48.92119408 152.26371804 46.6001022 152.24628453 44.2789917 152.23634338 C38.1855525 152.18668819 32.10061235 152.01979479 26.01013184 151.83074951 C21.07143309 151.69765431 16.13365088 151.64953966 11.19347 151.60592556 C5.25084727 151.55118938 -0.6908807 151.45606787 -6.6328125 151.3515625 C-8.30217991 151.32437039 -8.30217991 151.32437039 -10.00527191 151.29662895 C-35.23234842 150.81251233 -55.62331842 145.97269713 -74.2890625 128.05859375 C-89.62472427 112.09698661 -95.5965038 92.06865447 -95.23046875 70.28125 C-94.44477457 50.11251923 -84.13568581 32.82939491 -69.7734375 19.10546875 C-49.19035438 1.58106057 -25.8488808 -0.16420941 0 0 Z " fill="#36414D" transform="translate(1291.9609375,225.70703125)"/>
<path d="M0 0 C22.64625 -0.0825 45.2925 -0.165 68.625 -0.25 C75.75432129 -0.28641602 82.88364258 -0.32283203 90.22900391 -0.36035156 C98.98901367 -0.37841797 98.98901367 -0.37841797 103.10043335 -0.3817749 C105.94911366 -0.38547551 108.79749054 -0.40035983 111.64608765 -0.42230225 C115.29635915 -0.45004095 118.94619885 -0.4579099 122.59656596 -0.4522891 C124.54586859 -0.45400892 126.49512513 -0.47530509 128.4442997 -0.497715 C144.33506923 -0.4239138 157.96392666 4.41998819 169.5703125 15.28515625 C179.59477178 26.48611959 183.89621201 40.02808599 183.34375 54.9375 C182.39677017 69.16925402 175.88139958 81.17399972 165.66015625 90.921875 C155.58380394 98.79356286 145.07908758 100.9472608 132.5625 101.5625 C131.32209961 101.62727539 131.32209961 101.62727539 130.05664062 101.69335938 C128.03790451 101.79838033 126.01897049 101.89958559 124 102 C129.70707148 107.32859205 135.41270339 112.60350302 141.5 117.5 C145.47630232 120.6993237 149.26661622 124.02591233 153 127.5 C157.6643638 131.83873272 162.48199849 135.91979849 167.44140625 139.921875 C174.66334418 145.78763222 174.66334418 145.78763222 178 149 C178 149.33 178 149.66 178 150 C172.45007971 150.19875748 166.90225847 150.34338653 161.34960938 150.43945312 C159.46382538 150.47952119 157.57828739 150.53399497 155.69335938 150.60351562 C140.01772918 151.16691037 140.01772918 151.16691037 135.11376953 148.33081055 C133.13740168 146.330023 131.57984996 144.31938992 130 142 C128.31970804 140.57053423 126.61470983 139.16902615 124.875 137.8125 C119.05939509 133.14545684 113.65692132 128.10515614 108.22265625 123.0078125 C105.17862987 120.15453222 102.07033123 117.38811991 98.91015625 114.6640625 C96.63795489 112.68459874 94.41540128 110.6541683 92.1875 108.625 C88.78916448 105.55253227 85.32409477 102.61557378 81.75 99.75 C76.59835662 95.58764802 71.7570427 91.15082976 66.94628906 86.60449219 C64.22236074 84.03531458 61.48267671 81.54134454 58.58203125 79.171875 C57.72996094 78.45515625 56.87789063 77.7384375 56 77 C56 76.67 56 76.34 56 76 C56.99700928 75.99635437 57.99401855 75.99270874 59.02124023 75.98895264 C68.43727392 75.95194098 77.85298242 75.89410101 87.26876831 75.81609726 C92.10904252 75.7766619 96.94913587 75.74445411 101.78955078 75.72900391 C106.46468677 75.71381134 111.13932542 75.67931974 115.8142395 75.63169098 C117.59387885 75.61690396 119.37358922 75.60896053 121.15328979 75.60811615 C123.65480993 75.6057366 126.15496656 75.57857945 128.65625 75.54589844 C129.38489761 75.5509288 130.11354523 75.55595917 130.86427307 75.56114197 C137.11360379 75.43559646 142.09045153 73.29791451 146.98828125 69.4296875 C152.3120624 63.17934857 154.75564062 55.51820629 154.40625 47.29296875 C153.0812553 39.81439292 149.27395456 34.47482622 143.16015625 30.15625 C136.98780983 26.85242624 131.33486643 26.69629647 124.49658203 26.68115234 C122.90459142 26.66592246 122.90459142 26.66592246 121.28043938 26.6503849 C117.85623373 26.61983006 114.43211089 26.60261561 111.0078125 26.5859375 C108.8892343 26.56899699 106.77066293 26.55117969 104.65209961 26.5324707 C96.80981138 26.46935654 88.96739406 26.42320254 81.125 26.375 C54.828125 26.189375 54.828125 26.189375 28 26 C28 66.92 28 107.84 28 150 C18.76 150 9.52 150 0 150 C0 100.5 0 51 0 0 Z " fill="#35414C" transform="translate(444,226)"/>
<path d="M0 0 C5.53765877 5.72573593 9.52512626 12.87454169 13.5625 19.6875 C18.25613693 27.50309471 23.02095679 35.26005903 27.9375 42.9375 C38.88514757 60.05516637 49.59672728 77.31596193 60.22558594 94.63305664 C64.14684971 101.01397865 68.10795669 107.36649453 72.125 113.6875 C76.74016911 120.95541373 81.26457492 128.27630874 85.75 135.625 C86.37148926 136.64037842 86.99297852 137.65575684 87.63330078 138.7019043 C88.20290527 139.6381665 88.77250977 140.57442871 89.359375 141.5390625 C89.86952148 142.37646973 90.37966797 143.21387695 90.90527344 144.07666016 C92 146 92 146 92 147 C87.71369411 147.24873662 83.43128157 147.4292977 79.13989258 147.54931641 C77.68341898 147.59936705 76.22744204 147.66744172 74.77270508 147.75439453 C62.76800421 148.45353778 62.76800421 148.45353778 58.6418457 145.0612793 C56.79620923 142.46181624 55.38868636 139.867192 54 137 C53.05064692 135.43093255 52.08876087 133.86936583 51.11328125 132.31640625 C50.17668638 130.73354279 49.24316505 129.14885723 48.3125 127.5625 C44.10035189 120.4698818 39.82539591 113.42293318 35.4375 106.4375 C34.93710205 105.63449463 34.4367041 104.83148926 33.92114258 104.00415039 C33.45087646 103.2589917 32.98061035 102.51383301 32.49609375 101.74609375 C32.08544678 101.09310303 31.6747998 100.4401123 31.25170898 99.76733398 C29.97883384 97.97011471 28.57161985 96.53599667 27 95 C26.43466553 96.12962158 25.86933105 97.25924316 25.28686523 98.4230957 C22.05007627 104.09247781 18.65028282 109.63454497 12.30596924 112.00775146 C5.77128109 113.37286499 -0.75598247 113.40879277 -7.40795898 113.25073242 C-10.93917289 113.18747003 -14.43066032 113.31102413 -17.95898438 113.45117188 C-33.86661847 113.62162743 -33.86661847 113.62162743 -39.36407471 109.02203369 C-43.39871382 104.37574635 -46.3776925 99.26372 -48.99317932 93.70942688 C-49.32543015 93.14531601 -49.65768097 92.58120514 -50 92 C-50.66 92 -51.32 92 -52 92 C-53.80381483 94.59025314 -55.4775702 97.18642255 -57.125 99.875 C-57.64271973 100.70765381 -58.16043945 101.54030762 -58.69384766 102.39819336 C-60.4702873 105.2607558 -62.23525103 108.130217 -64 111 C-65.02681312 112.66179002 -66.05363649 114.32357378 -67.08096313 115.98504639 C-70.17303971 120.98697424 -73.25833995 125.99305511 -76.3359375 131.00390625 C-76.97160645 132.00776367 -77.60727539 133.01162109 -78.26220703 134.04589844 C-80.05369004 136.93530059 -80.05369004 136.93530059 -81.23388672 139.97753906 C-82.55406614 142.966844 -83.533762 144.84110735 -86 147 C-91.50758233 148.23429755 -96.77379322 147.94704812 -102.375 147.625 C-103.8891765 147.57479736 -105.40351231 147.52917714 -106.91796875 147.48828125 C-110.61530676 147.37848286 -114.30664018 147.20620889 -118 147 C-113.95987345 139.38221561 -109.61681256 132.03056908 -105 124.75 C-99.86860022 116.60297279 -94.79868394 108.42421061 -89.8125 100.1875 C-85.10730784 92.42363751 -80.32760491 84.71416291 -75.46142578 77.05029297 C-71.83052222 71.32846908 -68.24791867 65.5784257 -64.6875 59.8125 C-59.35812384 51.18245766 -53.99968628 42.57110394 -48.60424805 33.98217773 C-45.49265886 29.02208781 -42.41469028 24.04687157 -39.40625 19.0234375 C-38.83197266 18.07210937 -38.25769531 17.12078125 -37.66601562 16.140625 C-36.59197407 14.35769083 -35.52741042 12.56899576 -34.47460938 10.7734375 C-30.80939918 4.71491787 -26.77541209 0.12971964 -20.5625 -3.375 C-13.03042695 -5.21209099 -6.63000827 -3.88591438 0 0 Z " fill="#36414C" transform="translate(756,229)"/>
<path d="M0 0 C69.72916667 0 69.72916667 0 81.8125 11.25 C89.63615721 19.72100473 91.39137597 28.08445772 91.2734375 39.359375 C90.62247954 48.02641522 87.40567622 54.29599906 81.5859375 60.63671875 C80 62 80 62 78 62 C78 62.66 78 63.32 78 64 C78.99 64.0928125 78.99 64.0928125 80 64.1875 C88.51410594 66.49340369 94.83329942 72.71256963 99.2890625 80.15234375 C104.0066616 89.26511612 104.51563227 99.69279484 102.12890625 109.625 C98.28500278 120.31231195 92.81099978 127.31219857 83.33203125 133.4921875 C58.80845115 144.58961062 20.29935868 138 0 138 C0 92.46 0 46.92 0 0 Z " fill="#E71C30" transform="translate(516,447)"/>
<path d="M0 0 C1.72791527 -0.00021904 1.72791527 -0.00021904 3.49073792 -0.0004425 C7.28363961 0.00025201 11.07649169 0.00802283 14.86938477 0.01586914 C17.50496901 0.01773496 20.14055359 0.01915809 22.77613831 0.02015686 C28.99495753 0.02325792 35.21375906 0.03145472 41.43257052 0.04150635 C48.51602971 0.05270563 55.59948977 0.05818753 62.68295562 0.06320179 C77.24640986 0.07363841 91.80985019 0.09121403 106.37329102 0.11352539 C103.66496589 9.56092394 98.80872324 19.52698688 91.37329102 26.11352539 C84.18234644 29.4534355 75.92899066 28.49074751 68.21313477 28.14477539 C65.97368228 28.11969523 63.73410534 28.10411671 61.49452209 28.09753418 C55.6245964 28.05771457 49.763722 27.90198337 43.89678955 27.71722412 C35.63862724 27.47841729 27.37715465 27.39846625 19.11634827 27.30090332 C14.72581294 27.2486828 10.33973447 27.15298973 5.95091248 27.02087402 C-4.24680817 26.76172259 -13.21339202 26.58428634 -22.62670898 31.11352539 C-24.10259239 31.79771545 -24.10259239 31.79771545 -25.60829163 32.49572754 C-37.49322118 38.22885644 -45.74613149 48.03555453 -50.26342773 60.34790039 C-51.77663896 65.06911942 -52.12846232 69.428257 -52.06420898 74.36352539 C-52.05663574 75.18836426 -52.0490625 76.01320313 -52.04125977 76.86303711 C-51.74079779 88.12926464 -48.47808341 97.19168067 -41.62670898 106.11352539 C-41.04920898 106.97977539 -40.47170898 107.84602539 -39.87670898 108.73852539 C-31.33641075 117.75328463 -18.77025925 124.03031536 -6.30519104 124.39199829 C-4.20354791 124.41540161 -2.10176922 124.42816221 0 124.43237305 C1.72791527 124.44744148 1.72791527 124.44744148 3.49073792 124.46281433 C7.28361531 124.49360954 11.07642222 124.51067158 14.86938477 124.52758789 C17.50497543 124.54630245 20.14056012 124.56587607 22.77613831 124.58627319 C28.99491498 124.63295658 35.21370881 124.66975098 41.43257052 124.70294607 C48.51608802 124.74124151 55.59951477 124.79063208 62.68295562 124.84093022 C77.24633081 124.94409463 91.80977104 125.03340514 106.37329102 125.11352539 C105.03059892 128.56039113 103.57609346 131.59938911 101.58813477 134.72290039 C101.05768555 135.55950195 100.52723633 136.39610352 99.98071289 137.25805664 C99.42963867 138.11786133 98.87856445 138.97766602 98.31079102 139.86352539 C97.75584961 140.73879883 97.2009082 141.61407227 96.62915039 142.51586914 C92.52975757 148.95705884 92.52975757 148.95705884 91.37329102 150.11352539 C89.98243865 150.21978117 88.58627662 150.25756399 87.19140625 150.26742554 C86.28904236 150.276026 85.38667847 150.28462646 84.45697021 150.29348755 C82.95955292 150.29987747 82.95955292 150.29987747 81.43188477 150.30639648 C80.38615295 150.31457397 79.34042114 150.32275146 78.26300049 150.33117676 C74.77893652 150.35611617 71.29491393 150.37258004 67.81079102 150.38696289 C66.61934479 150.39228657 65.42789856 150.39761024 64.2003479 150.40309525 C57.87844485 150.42988018 51.55656179 150.44922674 45.23461914 150.46362305 C38.73763207 150.48016714 32.24116258 150.52484297 25.74436951 150.57599449 C20.72533676 150.60987136 15.70642284 150.62122355 10.68728638 150.62685013 C8.29538071 150.63352014 5.90348167 150.64862958 3.51168823 150.67274094 C-13.29873883 150.83235631 -29.07716487 149.91652354 -43.87670898 141.05102539 C-44.52454346 140.67163818 -45.17237793 140.29225098 -45.83984375 139.90136719 C-63.16611825 129.32145646 -74.95473994 112.74754079 -80.43530273 93.23461914 C-84.62122541 72.47821636 -81.34634702 51.76277085 -69.62670898 34.11352539 C-56.72813303 15.80310074 -37.65140837 4.55400586 -15.65000916 0.57521057 C-10.45303489 -0.14082304 -5.2358619 -0.01745874 0 0 Z " fill="#36414D" transform="translate(920.626708984375,225.886474609375)"/>
<path d="M0 0 C8.91 0 17.82 0 27 0 C27 47.85 27 95.7 27 145 C18.09 145 9.18 145 0 145 C0 141.7 0 138.4 0 135 C-1.134375 135.9075 -2.26875 136.815 -3.4375 137.75 C-7.69321483 140.9588545 -12.08372059 143.01104879 -17 145 C-17.66 145.33 -18.32 145.66 -19 146 C-28.52898124 146.92248784 -38.78360979 147.42718617 -47 142 C-47.76441406 141.55269531 -48.52882813 141.10539063 -49.31640625 140.64453125 C-59.91969024 134.12883944 -65.51459191 124.95962638 -68.8125 113.0625 C-72.21221346 97.97627152 -68.77838989 85.03277164 -61 72 C-54.66629072 63.48071499 -44.34215109 57.88897737 -34 56 C-22.12662697 54.77348227 -12.69880001 58.30409769 -3 65 C-2.34 65.66 -1.68 66.32 -1 67 C-0.67 44.89 -0.34 22.78 0 0 Z " fill="#E71E31" transform="translate(449,441)"/>
<path d="M0 0 C70.21428571 0 70.21428571 0 83.69921875 12.5859375 C92.6489925 22.18947306 94.46141991 32.59489145 94.28515625 45.16796875 C93.86801529 55.9905758 88.84268795 64.78405149 81.19921875 72.26171875 C76.9193104 75.6445948 71.93863077 77.75010192 67 80 C65.66358849 80.66047445 64.32886364 81.32446789 63 82 C69.09505994 91.26898517 75.34979973 100.41238198 81.73022461 109.48730469 C86.04191045 115.6214192 90.30903492 121.7841189 94.53686523 127.97631836 C96.24088735 130.4672708 97.94601491 132.93067424 99.80078125 135.3125 C101 137 101 137 101 139 C90.66205204 141.01993973 78.00620168 143.39108309 68 139 C58.74616801 132.16501426 53.31284229 120.01955242 48.18896484 110.01660156 C46.28486045 106.36940828 43.96980453 103.25055917 41.44140625 100 C36.40841876 92.66810207 37.10666574 85.28275586 37.5 76.75 C37.54023413 75.21493807 37.57671723 73.67977305 37.609375 72.14453125 C37.69646325 68.42750237 37.83389171 64.71443683 38 61 C39.07378906 60.90203125 40.14757812 60.8040625 41.25390625 60.703125 C42.69019245 60.55292514 44.12638583 60.40183586 45.5625 60.25 C46.26697266 60.188125 46.97144531 60.12625 47.69726562 60.0625 C53.0230634 59.47347167 56.55193808 58.01664708 61 55 C63.96588892 50.6540648 64.4086963 47.07546244 64.375 41.875 C64.38273437 40.67617188 64.39046875 39.47734375 64.3984375 38.2421875 C63.97393362 34.78789126 63.23352473 33.56441729 61 31 C61 30.34 61 29.68 61 29 C49.66489835 23.12253989 44.74789595 24.68469113 29 24 C29 61.95 29 99.9 29 139 C19.43 139 9.86 139 0 139 C0 93.13 0 47.26 0 0 Z " fill="#E71E32" transform="translate(173,447)"/>
<path d="M0 0 C396.99 0 793.98 0 1203 0 C1203 2.31 1203 4.62 1203 7 C806.01 7 409.02 7 0 7 C0 4.69 0 2.38 0 0 Z " fill="#323D49" transform="translate(176,646)"/>
<path d="M0 0 C8.91 0 17.82 0 27 0 C27 40.92 27 81.84 27 124 C70.89 124 114.78 124 160 124 C158.02 127.63 156.04 131.26 154 135 C153.50984909 136.34762421 153.01969818 137.69524841 152.51469421 139.08370972 C150.67651261 143.41752597 149.07280068 146.49097443 145 149 C135.97074806 151.50032502 126.1198566 150.76559173 116.82268739 150.5512414 C113.0540758 150.47819733 109.28548585 150.48210291 105.51628113 150.47653198 C99.19147616 150.45629816 92.86905084 150.38408082 86.54516602 150.27587891 C78.43758545 150.13737876 70.33170191 150.08202671 62.22307301 150.05389595 C55.23585986 150.02930137 48.24900872 149.96985332 41.26208663 149.90312719 C39.02338392 149.8828474 36.78467639 149.86669092 34.54593849 149.85083389 C30.37090469 149.8182895 26.19722084 149.74962996 22.02270508 149.67626953 C20.7867157 149.66865601 19.55072632 149.66104248 18.27728271 149.65319824 C7.61327583 149.41240979 7.61327583 149.41240979 3 145 C0.30819552 141.2380887 -0.37314479 138.68547902 -0.36076355 134.08378601 C-0.36488754 132.89893112 -0.36901154 131.71407623 -0.3732605 130.49331665 C-0.35708176 128.55662613 -0.35708176 128.55662613 -0.34057617 126.58081055 C-0.33972951 125.20078042 -0.34020581 123.82074895 -0.34190369 122.4407196 C-0.34276354 118.70134667 -0.32513959 114.96226312 -0.30418181 111.22295737 C-0.28541327 107.3125377 -0.28366444 103.40211121 -0.28010559 99.49165344 C-0.27078564 92.08981889 -0.24617256 84.68811745 -0.21605712 77.28634149 C-0.18251155 68.85835148 -0.16602671 60.43035508 -0.15097082 52.00231493 C-0.1196229 34.66811918 -0.0646115 17.33410588 0 0 Z " fill="#343F4B" transform="translate(1042,227)"/>
<path d="M0 0 C0.9180542 0.00499512 1.8361084 0.00999023 2.78198242 0.01513672 C16.08039741 0.35423285 26.25232396 5.62512843 35.4375 15.125 C44.56137763 25.94003115 44.75 37.7608661 44.75 51.5 C24.29 51.5 3.83 51.5 -17.25 51.5 C-14.84660493 61.13506192 -14.84660493 61.13506192 -8.25 67.875 C-2.73615101 70.71510756 3.98575456 70.38811598 9.90234375 68.9921875 C13.12227907 67.7662165 14.96392673 66.27042009 17.3125 63.75 C18.116875 63.0075 18.92125 62.265 19.75 61.5 C25.14849194 61.7165814 29.44042061 64.11008457 34.125 66.5625 C34.86105469 66.93955078 35.59710938 67.31660156 36.35546875 67.70507812 C38.15739646 68.62944364 39.95423099 69.56372614 41.75 70.5 C38.18871342 80.31443765 30.10727383 84.35353394 21.2734375 88.8984375 C10.36503202 93.85680363 -6.37150578 93.49391171 -17.5625 89.5 C-30.21766541 83.54757042 -38.7789701 73.89730024 -43.5390625 60.796875 C-47.17257421 49.05783716 -46.22423508 34.79959452 -40.625 23.875 C-33.89850823 12.48545716 -25.34544681 5.15950664 -12.71459961 1.11083984 C-8.48342797 0.06216313 -4.34250848 -0.03119216 0 0 Z " fill="#E71E32" transform="translate(320.25,496.5)"/>
<path d="M0 0 C8.58 0 17.16 0 26 0 C26.02578125 3.81691406 26.0515625 7.63382812 26.078125 11.56640625 C26.11656463 15.27326759 26.16171896 18.97999074 26.20751953 22.68676758 C26.23570174 25.25798925 26.25692987 27.82929712 26.27099609 30.40063477 C26.29246258 34.10217326 26.33913565 37.8026784 26.390625 41.50390625 C26.39185364 42.64896133 26.39308228 43.79401642 26.39434814 44.97377014 C26.51376324 51.51778424 27.05919679 55.69494976 31 61 C36.33426571 65.34906855 42.45740711 64.59253671 49 64 C53.27669083 62.67275112 54.47308842 61.85396014 56.8125 58.0625 C58.44549574 53.85108993 59.12703053 50.38280946 59.20532227 45.86425781 C59.22526749 44.84350159 59.24521271 43.82274536 59.26576233 42.77105713 C59.29083107 41.12868073 59.29083107 41.12868073 59.31640625 39.453125 C59.33718735 38.3267865 59.35796844 37.200448 59.37937927 36.03997803 C59.44474333 32.44338051 59.50369885 28.84671023 59.5625 25.25 C59.6056977 22.8111904 59.6493124 20.37238816 59.69335938 17.93359375 C59.80119563 11.95580265 59.9003674 5.97795601 60 0 C68.58 0 77.16 0 86 0 C86.08419492 7.62665624 86.16429354 15.25160113 86.20700073 22.87831879 C86.22800685 26.43088439 86.25601289 29.9830599 86.30175781 33.53540039 C86.35406955 37.62389616 86.37304276 41.71198745 86.390625 45.80078125 C86.41127014 47.05643387 86.43191528 48.31208649 86.45318604 49.60578918 C86.45595318 60.60033914 84.31074328 69.79656636 76.55078125 77.921875 C66.21636771 86.34133595 55.33908491 88.20337471 42.375 88.3125 C41.24964844 88.34150391 40.12429688 88.37050781 38.96484375 88.40039062 C26.83354391 88.49155068 17.23410591 84.89824972 8 77 C-0.18066222 68.50545146 -0.42767116 57.9810363 -0.29296875 46.77734375 C-0.2873616 45.42257664 -0.2830968 44.06780337 -0.28010559 42.71302795 C-0.26874466 39.17675474 -0.23935521 35.64086127 -0.20599365 32.10473633 C-0.1751019 28.48458999 -0.16155978 24.86438126 -0.14648438 21.24414062 C-0.11447516 14.16259177 -0.06178092 7.08136091 0 0 Z " fill="#E61D30" transform="translate(631,500)"/>
<path d="M0 0 C1.29224487 -0.00637985 2.58448975 -0.0127597 3.91589355 -0.01933289 C5.34041303 -0.02086256 6.76493301 -0.02197599 8.18945312 -0.02270508 C9.64619988 -0.02591812 11.10294631 -0.02928223 12.55969238 -0.03279114 C15.62313584 -0.0387933 18.68655107 -0.04063022 21.75 -0.04003906 C25.65585543 -0.03993804 29.56152659 -0.05352256 33.46733856 -0.07081127 C36.4821453 -0.08199692 39.49690866 -0.08395617 42.51173401 -0.08342934 C43.95008472 -0.08460219 45.38843681 -0.08898454 46.82676697 -0.0967617 C57.99780803 -0.15144905 67.88913385 -0.02547768 76.97070312 7.14526367 C81.6578887 12.19300199 82.17223471 16.27518163 82.22070312 22.95776367 C82.24132812 23.65708008 82.26195312 24.35639648 82.28320312 25.0769043 C82.32483877 30.64046736 81.22408266 34.6797339 77.43554688 38.82495117 C73.19292535 42.14526367 73.19292535 42.14526367 70.97070312 42.14526367 C70.97070312 42.80526367 70.97070312 43.46526367 70.97070312 44.14526367 C71.52757812 44.20713867 72.08445312 44.26901367 72.65820312 44.33276367 C75.97156785 45.49691884 77.67545608 47.53984811 79.97070312 50.14526367 C80.95114276 53.08658258 81.08691515 54.97028032 81.06835938 58.03198242 C81.06352539 59.43867187 81.06352539 59.43867187 81.05859375 60.8737793 C81.04602539 62.33847656 81.04602539 62.33847656 81.03320312 63.83276367 C81.02869141 64.82083008 81.02417969 65.80889648 81.01953125 66.8269043 C81.00774633 69.26638325 80.98981095 71.70583108 80.97070312 74.14526367 C77.67070312 74.14526367 74.37070312 74.14526367 70.97070312 74.14526367 C70.94492188 72.83170898 70.91914063 71.5181543 70.89257812 70.16479492 C70.83628484 68.42908517 70.77893777 66.69340937 70.72070312 64.95776367 C70.70652344 64.09344727 70.69234375 63.22913086 70.67773438 62.33862305 C70.52525882 58.35901116 70.27191502 55.70455274 68.36132812 52.15698242 C62.13957183 46.92135417 53.73400212 47.80598937 46.03710938 47.73120117 C44.80403549 47.71183502 43.57096161 47.69246887 42.30052185 47.67251587 C38.37815173 47.61293415 34.45575193 47.56641979 30.53320312 47.52026367 C27.8671561 47.48312398 25.20116407 47.44301146 22.53515625 47.40307617 C16.01373621 47.30565066 9.49243847 47.22590993 2.97070312 47.14526367 C2.97070312 56.05526367 2.97070312 64.96526367 2.97070312 74.14526367 C-0.32929688 74.14526367 -3.62929687 74.14526367 -7.02929688 74.14526367 C-7.05242171 64.64452042 -7.07021268 55.14378679 -7.08110905 45.64302158 C-7.08633757 41.23189363 -7.09343465 36.82078487 -7.10473633 32.40966797 C-7.11556631 28.15625252 -7.12157394 23.90285558 -7.12417412 19.64942741 C-7.12602817 18.02304734 -7.1296484 16.39666833 -7.13502693 14.7702961 C-7.14223886 12.50016174 -7.14328776 10.23010482 -7.14282227 7.95996094 C-7.14504288 6.66534439 -7.14726349 5.37072784 -7.14955139 4.03688049 C-6.93602085 -1.09763361 -4.58721447 0.01529637 0 0 Z " fill="#384450" transform="translate(183.029296875,694.854736328125)"/>
<path d="M0 0 C8.91 0 17.82 0 27 0 C27 47.85 27 95.7 27 145 C18.09 145 9.18 145 0 145 C0 97.15 0 49.3 0 0 Z " fill="#E71E31" transform="translate(777,441)"/>
<path d="M0 0 C8.91 0 17.82 0 27 0 C27 47.52 27 95.04 27 144 C18.09 144 9.18 144 0 144 C0 96.48 0 48.96 0 0 Z " fill="#E71E32" transform="translate(733,441)"/>
<path d="M0 0 C6.90170347 5.04355253 10.1648644 12.14590611 13.6328125 19.74609375 C14.67223145 21.96850056 15.71399433 24.18981226 16.7578125 26.41015625 C17.30179687 27.57063477 17.84578125 28.73111328 18.40625 29.92675781 C21.37560098 36.21020791 24.51155126 42.41216099 27.6328125 48.62109375 C28.21998047 49.79115967 28.80714844 50.96122559 29.41210938 52.16674805 C29.96962891 53.27703369 30.52714844 54.38731934 31.1015625 55.53125 C31.62363281 56.57168457 32.14570313 57.61211914 32.68359375 58.68408203 C33.59051332 60.48294844 34.50359547 62.27873604 35.42578125 64.06982422 C38.1328125 69.35209704 38.1328125 69.35209704 38.1328125 71.55859375 C34.5028125 71.55859375 30.8728125 71.55859375 27.1328125 71.55859375 C25.81534917 68.97768608 24.50371633 66.39408917 23.1953125 63.80859375 C22.82212891 63.07898438 22.44894531 62.349375 22.06445312 61.59765625 C21.70673828 60.88867188 21.34902344 60.1796875 20.98046875 59.44921875 C20.65054932 58.79985352 20.32062988 58.15048828 19.98071289 57.48144531 C19.1328125 55.55859375 19.1328125 55.55859375 18.1328125 51.55859375 C-1.9971875 51.55859375 -22.1271875 51.55859375 -42.8671875 51.55859375 C-43.5271875 53.53859375 -44.1871875 55.51859375 -44.8671875 57.55859375 C-45.41138577 58.78907462 -45.98301569 60.00818242 -46.59375 61.20703125 C-46.903125 61.81933594 -47.2125 62.43164062 -47.53125 63.0625 C-47.84835937 63.67996094 -48.16546875 64.29742188 -48.4921875 64.93359375 C-48.81703125 65.57425781 -49.141875 66.21492187 -49.4765625 66.875 C-50.26976157 68.43806876 -51.06795781 69.99859997 -51.8671875 71.55859375 C-55.4971875 71.55859375 -59.1271875 71.55859375 -62.8671875 71.55859375 C-55.81167447 55.1962359 -47.86197641 39.29844714 -39.81384277 23.40826416 C-38.22965928 20.27898347 -36.66658288 17.14412608 -35.13842773 13.98681641 C-34.62094971 12.91995605 -34.10347168 11.8530957 -33.5703125 10.75390625 C-32.90950684 9.36969482 -32.90950684 9.36969482 -32.23535156 7.95751953 C-25.53379838 -3.79291972 -11.53845244 -5.09049372 0 0 Z " fill="#394450" transform="translate(468.8671875,697.44140625)"/>
<path d="M0 0 C24 0 24 0 30 4 C33.81041213 8.32533268 35.36679236 10.89918699 35.28125 16.76953125 C34.79112112 20.65652556 33.26030705 23.82532925 31 27 C24.4241867 32.09625531 18.51211817 31 10 31 C10 38.92 10 46.84 10 55 C17.20997023 54.80345402 17.20997023 54.80345402 24.41796875 54.54956055 C31.22442366 54.4565598 35.80693898 55.45607161 41 60 C45.36148439 65.23378126 45.74050377 70.09174084 45.5078125 76.83203125 C44.73472814 81.6548883 42.90792705 85.03989108 39 88 C31 91 31 91 0 91 C0 60.97 0 30.94 0 0 Z " fill="#FDF7F8" transform="translate(544,471)"/>
<path d="M0 0 C3.3 0 6.6 0 10 0 C10 24.42 10 48.84 10 74 C-11.92756197 74 -11.92756197 74 -20.3828125 65.8203125 C-24.01897991 62.1028546 -27.15150968 58.1058791 -30.25 53.9375 C-31.38724415 52.42910161 -32.52527702 50.92129758 -33.6640625 49.4140625 C-34.22512695 48.66930664 -34.78619141 47.92455078 -35.36425781 47.15722656 C-39.04947983 42.29713377 -42.84993043 37.52688162 -46.63085938 32.74121094 C-48.07964349 30.89871303 -49.51731728 29.04793727 -50.953125 27.1953125 C-51.44216309 26.5664917 -51.93120117 25.9376709 -52.43505859 25.28979492 C-53.36253567 24.09671785 -54.28753947 22.9017119 -55.20947266 21.7043457 C-56.44744822 20.11599525 -57.72315397 18.55727483 -59 17 C-60.11761719 15.62521484 -60.11761719 15.62521484 -61.2578125 14.22265625 C-64.61941518 11.16006801 -64.61941518 11.16006801 -73 10 C-73 31.12 -73 52.24 -73 74 C-76.3 74 -79.6 74 -83 74 C-83 49.91 -83 25.82 -83 1 C-59.36120996 1 -59.36120996 1 -52 8 C-50.28375481 10.01484395 -48.65955217 12.02119954 -47.0625 14.125 C-46.59432861 14.73118164 -46.12615723 15.33736328 -45.64379883 15.96191406 C-44.62712663 17.27852531 -43.612806 18.59695504 -42.60058594 19.91699219 C-39.81480419 23.54241773 -36.99829458 27.14395622 -34.1875 30.75 C-30.50514785 35.47426786 -26.83652308 40.20760802 -23.20703125 44.97265625 C-22.58610596 45.7831543 -21.96518066 46.59365234 -21.32543945 47.42871094 C-20.14263642 48.97329952 -18.96504334 50.52189739 -17.79370117 52.07519531 C-12.42459393 59.06536147 -8.84120851 62.47394042 0 65 C0 43.55 0 22.1 0 0 Z " fill="#3A4551" transform="translate(1127,695)"/>
<path d="M0 0 C0.64461182 -0.00014603 1.28922363 -0.00029205 1.95336914 -0.0004425 C4.06351196 0.00024878 6.17356419 0.00800406 8.28369141 0.01586914 C9.7548518 0.01773611 11.22601283 0.0191587 12.69717407 0.02015686 C16.55391175 0.02396006 20.41061129 0.03377141 24.26733398 0.04486084 C28.20897913 0.05512237 32.15063048 0.05966461 36.09228516 0.06469727 C43.81495872 0.0753958 51.53760095 0.09244562 59.26025391 0.11352539 C59.26025391 3.41352539 59.26025391 6.71352539 59.26025391 10.11352539 C58.02449867 10.12565567 58.02449867 10.12565567 56.76377869 10.13803101 C48.9809819 10.21613283 41.19836839 10.30346998 33.41579342 10.40105247 C29.41517 10.45089233 25.41457142 10.49722292 21.41381836 10.53540039 C17.54927574 10.57240941 13.68494735 10.61881061 9.82058907 10.6715889 C8.34992818 10.69005021 6.87922151 10.70518833 5.40849113 10.71686935 C3.34054739 10.73387442 1.27308547 10.76294113 -0.79467773 10.79467773 C-1.96938126 10.8080014 -3.14408478 10.82132507 -4.35438538 10.83505249 C-10.40864609 11.33306369 -15.54685293 12.58066792 -19.73974609 17.11352539 C-25.65523608 25.75478037 -24.92438286 38.1207415 -23.73974609 48.11352539 C-22.29466186 53.33122706 -20.06399036 56.68190997 -16.42724609 60.61352539 C-9.08874617 64.70943232 -1.10879578 64.44624048 7.07275391 64.52758789 C8.2822168 64.54695404 9.49167969 64.56632019 10.73779297 64.58627319 C14.57854286 64.64577279 18.41932319 64.69233607 22.26025391 64.73852539 C24.8735478 64.77673239 27.48682947 64.81578569 30.10009766 64.85571289 C36.48675068 64.95303332 42.87328267 65.03283892 49.26025391 65.11352539 C49.26025391 55.87352539 49.26025391 46.63352539 49.26025391 37.11352539 C52.56025391 37.11352539 55.86025391 37.11352539 59.26025391 37.11352539 C59.26025391 49.32352539 59.26025391 61.53352539 59.26025391 74.11352539 C42.27194489 74.31406944 42.27194489 74.31406944 34.96337891 74.35766602 C29.9995613 74.38741748 25.03621003 74.42239788 20.07275391 74.49072266 C16.06562483 74.54553029 12.05899663 74.57504699 8.0515213 74.58791161 C6.53184385 74.59706503 5.01219008 74.61493682 3.49272919 74.64217567 C-6.79196006 74.81901125 -16.7747207 74.24311523 -24.96588135 67.19917297 C-34.52352017 57.30864629 -35.06192537 45.22702699 -34.88818359 32.21899414 C-34.63344138 22.9877209 -32.34404042 15.94029612 -25.88037109 9.16430664 C-18.12750241 1.99741059 -10.50746568 -0.02012924 0 0 Z " fill="#3B4652" transform="translate(1319.73974609375,694.886474609375)"/>
<path d="M0 0 C0.64475784 -0.00029205 1.28951569 -0.00058411 1.95381165 -0.00088501 C4.05862478 0.00049452 6.16307193 0.0159895 8.26782227 0.03173828 C9.73755195 0.03547333 11.20728414 0.03831798 12.67701721 0.04031372 C16.52557375 0.04791148 20.37397681 0.06752631 24.22247314 0.08972168 C28.15749028 0.1102637 32.09253247 0.11933323 36.02758789 0.12939453 C43.7340377 0.15077628 51.44036151 0.184865 59.14672852 0.22705078 C59.14672852 3.52705078 59.14672852 6.82705078 59.14672852 10.22705078 C58.3251123 10.23069641 57.50349609 10.23434204 56.65698242 10.23809814 C48.88908795 10.2760682 41.12166832 10.33302225 33.3540802 10.41095352 C29.36128163 10.45035254 25.36870109 10.4825778 21.37573242 10.49804688 C17.51751269 10.51326391 13.65989267 10.54779734 9.80194092 10.5953598 C8.33491244 10.61012194 6.86779831 10.61808882 5.4006958 10.61893463 C-3.83520218 10.62960811 -11.32528917 10.69906847 -18.22827148 17.60205078 C-22.10979803 23.87220905 -22.21862872 29.87015812 -22.22827148 37.03955078 C-22.25276367 37.98636719 -22.27725586 38.93318359 -22.30249023 39.90869141 C-22.33151958 46.93863043 -21.21475901 53.34822795 -16.47631836 58.81591797 C-11.35365479 63.42765095 -5.90380404 64.46770604 0.79467773 64.54589844 C2.74602127 64.57570297 2.74602127 64.57570297 4.73678589 64.60610962 C6.14166087 64.61798338 7.54653765 64.62964639 8.95141602 64.64111328 C10.40016769 64.65984004 11.84890863 64.67941456 13.29763794 64.69979858 C17.09510957 64.75096682 20.8926165 64.79067398 24.69024658 64.82794189 C28.57166161 64.868078 32.45293173 64.91912634 36.33422852 64.96923828 C43.9382955 65.06581608 51.54243303 65.15027834 59.14672852 65.22705078 C59.14672852 68.19705078 59.14672852 71.16705078 59.14672852 74.22705078 C50.32302424 74.32010847 41.49949128 74.39099579 32.67540169 74.43429947 C28.5771248 74.45509279 24.47918593 74.48325725 20.38110352 74.52880859 C16.4193888 74.57256398 12.4579973 74.59624983 8.49605942 74.60655975 C6.99150384 74.6138983 5.48696411 74.62822761 3.98254776 74.64997101 C-6.28822848 74.79238708 -16.46267372 74.30007609 -24.47436523 66.97314453 C-33.98781756 54.92636496 -34.12939517 39.87222022 -32.85327148 25.22705078 C-30.98184062 17.24927007 -26.9682034 9.53609857 -19.93920898 4.98876953 C-13.57986488 1.61266986 -7.21534111 -0.02769805 0 0 Z " fill="#3B4753" transform="translate(677.853271484375,694.77294921875)"/>
<path d="M0 0 C4.44970264 4.05399406 7.43086435 8.5083779 10.5625 13.625 C11.61961037 15.32563354 12.67690754 17.02615098 13.734375 18.7265625 C14.27255859 19.59700195 14.81074219 20.46744141 15.36523438 21.36425781 C17.98793839 25.59285885 20.65156638 29.7953959 23.3125 34 C23.81112549 34.79092041 24.30975098 35.58184082 24.82348633 36.39672852 C26.96810276 39.79795334 29.11828095 43.19438826 31.30859375 46.56640625 C31.94925781 47.55511719 32.58992187 48.54382813 33.25 49.5625 C33.79140625 50.38878906 34.3328125 51.21507812 34.890625 52.06640625 C36 54 36 54 36 56 C12.9 56 -10.2 56 -34 56 C-29.21937506 44.04843765 -21.44575339 33.34039787 -14.53125 22.53515625 C-10.95209164 16.93835412 -7.42811575 11.30839782 -3.93237305 5.65917969 C-1.1036589 1.1036589 -1.1036589 1.1036589 0 0 Z " fill="#F8F8F8" transform="translate(742,259)"/>
<path d="M0 0 C7.58239847 -0.06299223 15.16384377 -0.12308696 22.74627686 -0.15525055 C26.27758025 -0.17106179 29.80866598 -0.19217445 33.33984375 -0.22631836 C37.39585421 -0.26528952 41.4516358 -0.27973523 45.5078125 -0.29296875 C46.76739777 -0.30845261 48.02698303 -0.32393646 49.32473755 -0.33988953 C50.50550873 -0.34011612 51.68627991 -0.34034271 52.90283203 -0.34057617 C54.45503952 -0.35056892 54.45503952 -0.35056892 56.03860474 -0.36076355 C60.94252542 0.23664263 64.12531664 2.01022672 67.375 5.6875 C70.0619999 11.16484595 69.53731127 15.17911181 67.875 20.8125 C65.37361071 25.06486179 62.7601676 26.15591925 58.15826416 27.56321716 C55.53064105 28.09498742 53.08703077 28.11956538 50.40527344 28.11352539 C49.28441345 28.11344986 48.16355347 28.11337433 47.00872803 28.11329651 C45.80444153 28.10813522 44.60015503 28.10297394 43.359375 28.09765625 C42.12205627 28.0962413 40.88473755 28.09482635 39.60992432 28.09336853 C36.32855059 28.0887211 33.04722627 28.07974347 29.76586914 28.06866455 C26.41422989 28.0584152 23.06258852 28.05394859 19.7109375 28.04882812 C13.14058566 28.038651 6.57035617 28.01907523 0 28 C0 18.76 0 9.52 0 0 Z " fill="#FBFBFB" transform="translate(187,705)"/>
<path d="M0 0 C5.45818425 2.28152101 8.96391212 6.97146538 12.05078125 11.86328125 C14.27354146 17.62560274 13.65480389 25.51887107 11.875 31.375 C9.23281045 37.25761069 4.16052892 41.07776903 -1.6875 43.4375 C-8.98276864 44.63127123 -14.02158498 44.23401204 -20.125 40 C-24.86434283 35.58498306 -27.79376035 31.25847372 -28.4609375 24.6953125 C-28.59435725 12.50074738 -28.59435725 12.50074738 -24.125 7 C-16.86405979 -0.22724675 -10.16298847 -3.06471442 0 0 Z " fill="#FDFAFB" transform="translate(436.125,521)"/>
<path d="M0 0 C0.99 0.495 0.99 0.495 2 1 C-0.19766293 5.24683512 -2.62054331 7.49354393 -6.5 10.25 C-7.5820659 11.03592328 -8.66276541 11.82373077 -9.7421875 12.61328125 C-10.28713867 13.0098291 -10.83208984 13.40637695 -11.39355469 13.81494141 C-30.37207571 27.815206 -40.04234074 39.82709111 -44.65673828 62.83642578 C-47.53711866 76.63594499 -53.25849661 88.78832314 -62.75 99.375 C-63.36359375 100.06335938 -63.9771875 100.75171875 -64.609375 101.4609375 C-65.06828125 101.96882812 -65.5271875 102.47671875 -66 103 C-57.87540227 101.55853911 -54.80857997 97.95618063 -50.27587891 91.47192383 C-49.87675293 90.89982178 -49.47762695 90.32771973 -49.06640625 89.73828125 C-48.38449219 88.83464844 -47.70257812 87.93101562 -47 87 C-46.34 87 -45.68 87 -45 87 C-46.576593 94.64041223 -51.52789212 102.68526142 -58 107 C-58.99 107 -59.98 107 -61 107 C-61 107.66 -61 108.32 -61 109 C-53.88417922 107.64799405 -48.27075355 106.18729418 -42.71875 101.40234375 C-40.9104494 99.92693485 -39.11568199 98.96968758 -37 98 C-36.278125 98.804375 -35.55625 99.60875 -34.8125 100.4375 C-30.73296302 103.88867228 -26.40424482 103.56040185 -21.26171875 103.75390625 C-17.46877556 104.04008041 -14.40373538 105.04059838 -10.8671875 106.35546875 C-8.43812928 107.19395119 -6.53660045 107.44763537 -4 107 C-2 106 -2 106 -1 104 C-1.23283149 100.85078091 -1.23283149 100.85078091 -2 98 C-0.35 97.67 1.3 97.34 3 97 C2.46725563 91.99220297 0.06938141 88.46789009 -2.5625 84.3125 C-7 77.24886191 -7 77.24886191 -7 75 C-6.154375 75.144375 -5.30875 75.28875 -4.4375 75.4375 C1.78992186 76.45653267 7.69044585 77.2474335 14 77 C13.31549812 73.3581842 12.41579617 69.82290774 11.4375 66.25 C10.09278571 60.97558667 9.72887353 56.42252932 10 51 C11.98 51.495 11.98 51.495 14 52 C14.02578125 52.92941406 14.0515625 53.85882812 14.078125 54.81640625 C14.41016144 62.05329147 14.80695366 67.04857939 19 73 C19 73.66 19 74.32 19 75 C19.763125 75.28875 20.52625 75.5775 21.3125 75.875 C24 77 24 77 27 79 C26.88008149 83.67682207 25.40109012 85.90676135 22.4375 89.3125 C19.65107792 92.6562065 18.52113048 94.67733131 18.5625 99.0625 C18.7790625 101.0115625 18.7790625 101.0115625 19 103 C17.515 102.505 17.515 102.505 16 102 C14.3646303 98.72926061 14.3156594 95.52034668 15 92 C16.39213342 89.71495302 17.92542883 87.77260089 19.6875 85.76171875 C21.29871824 83.96518959 21.29871824 83.96518959 21 81 C19.68 81 18.36 81 17 81 C15.8662308 83.01592653 14.74338359 85.03799747 13.625 87.0625 C12.99851562 88.18785156 12.37203125 89.31320312 11.7265625 90.47265625 C10.02592791 93.94702963 9.01255275 97.2781845 8 101 C6.5 102.9375 6.5 102.9375 5 104 C4.34 104 3.68 104 3 104 C2.62875 105.175625 2.62875 105.175625 2.25 106.375 C0.79270914 109.4353108 0.09699348 109.84276044 -3 111 C-5.1484375 111.046875 -5.1484375 111.046875 -7.375 110.75 C-8.10460938 110.66234375 -8.83421875 110.5746875 -9.5859375 110.484375 C-12 110 -12 110 -14.84765625 108.98046875 C-19.42211934 107.55768035 -23.89834643 107.60168432 -28.66015625 107.44140625 C-32.2052923 106.9728678 -34.18007354 106.16958425 -37 104 C-37 103.34 -37 102.68 -37 102 C-37.68964844 102.54269531 -38.37929687 103.08539062 -39.08984375 103.64453125 C-45.73445732 108.70318767 -51.48714399 112.40077652 -59.875 113.3125 C-62 113 -62 113 -65 111 C-65 109.68 -65 108.36 -65 107 C-67.42672567 105.21030974 -67.42672567 105.21030974 -70 104 C-69.45405833 99.43254435 -69.45405833 99.43254435 -67.43359375 97.5078125 C-66.44552734 96.82332031 -66.44552734 96.82332031 -65.4375 96.125 C-55.55887327 87.91350238 -52.08034195 75.19922147 -49.47412109 63.13720703 C-43.10335038 34.41953103 -27.26415754 20.02777806 -3.9921875 3.1875 C-1.24654179 1.29771278 -1.24654179 1.29771278 0 0 Z " fill="#FDEFE8" transform="translate(1200,459)"/>
<path d="M0 0 C0.75925781 -0.02578125 1.51851563 -0.0515625 2.30078125 -0.078125 C5.41308783 0.34975348 7.12412867 1.43639628 9.6875 3.25 C11.29321289 5.57495117 11.29321289 5.57495117 12.66015625 8.29296875 C13.42102539 9.78086914 13.42102539 9.78086914 14.19726562 11.29882812 C14.70966797 12.33458984 15.22207031 13.37035156 15.75 14.4375 C16.26626953 15.45392578 16.78253906 16.47035156 17.31445312 17.51757812 C18.32140639 19.50454705 19.32116047 21.495184 20.31298828 23.48974609 C21.18079802 25.23245603 22.0581431 26.97047969 22.94873047 28.70166016 C25.6875 34.03581445 25.6875 34.03581445 25.6875 36.25 C9.1875 36.25 -7.3125 36.25 -24.3125 36.25 C-23.03424747 29.85873734 -20.3704957 24.59999104 -17.5625 18.75 C-17.0365625 17.62207031 -16.510625 16.49414062 -15.96875 15.33203125 C-8.72251276 0.17591622 -8.72251276 0.17591622 0 0 Z " fill="#F5F6F6" transform="translate(456.3125,703.75)"/>
<path d="M0 0 C3.3 0 6.6 0 10 0 C10 24.42 10 48.84 10 74 C6.7 74 3.4 74 0 74 C0 49.58 0 25.16 0 0 Z " fill="#3A4552" transform="translate(883,695)"/>
<path d="M0 0 C45.87 0 91.74 0 139 0 C139.33 0.66 139.66 1.32 140 2 C94.46 2 48.92 2 2 2 C2 50.51 2 99.02 2 149 C10.25 149 18.5 149 27 149 C27 108.41 27 67.82 27 26 C27.33 26 27.66 26 28 26 C28 66.92 28 107.84 28 150 C18.76 150 9.52 150 0 150 C0 100.5 0 51 0 0 Z " fill="#47525D" transform="translate(444,226)"/>
<path d="M0 0 C1.32 0.33 2.64 0.66 4 1 C4.02578125 1.92941406 4.0515625 2.85882812 4.078125 3.81640625 C4.41016144 11.05329147 4.80695366 16.04857939 9 22 C9 22.66 9 23.32 9 24 C9.763125 24.28875 10.52625 24.5775 11.3125 24.875 C14 26 14 26 17 28 C16.88008149 32.67682207 15.40109012 34.90676135 12.4375 38.3125 C9.65107792 41.6562065 8.52113048 43.67733131 8.5625 48.0625 C8.706875 49.361875 8.85125 50.66125 9 52 C7.515 51.505 7.515 51.505 6 51 C4.3646303 47.72926061 4.3156594 44.52034668 5 41 C6.39213342 38.71495302 7.92542883 36.77260089 9.6875 34.76171875 C11.29871824 32.96518959 11.29871824 32.96518959 11 30 C9.68 30 8.36 30 7 30 C5.8662308 32.01592653 4.74338359 34.03799747 3.625 36.0625 C2.99851562 37.18785156 2.37203125 38.31320312 1.7265625 39.47265625 C0.02592791 42.94702963 -0.98744725 46.2781845 -2 50 C-3.5 51.9375 -3.5 51.9375 -5 53 C-5.66 53 -6.32 53 -7 53 C-7.2475 53.78375 -7.495 54.5675 -7.75 55.375 C-9 58 -9 58 -10.75 59.3125 C-13.57109421 60.17450101 -16.06759551 60.13329111 -19 60 C-18.4225 59.773125 -17.845 59.54625 -17.25 59.3125 C-14.2933093 57.58776376 -12.79118729 55.91897189 -11 53 C-11.13617572 49.75706416 -11.13617572 49.75706416 -12 47 C-9.525 46.505 -9.525 46.505 -7 46 C-7.53274437 40.99220297 -9.93061859 37.46789009 -12.5625 33.3125 C-17 26.24886191 -17 26.24886191 -17 24 C-16.154375 24.144375 -15.30875 24.28875 -14.4375 24.4375 C-8.21007814 25.45653267 -2.30955415 26.2474335 4 26 C3.31549812 22.3581842 2.41579617 18.82290774 1.4375 15.25 C0.09278571 9.97558667 -0.27112647 5.42252932 0 0 Z " fill="#FDEFEA" transform="translate(1210,510)"/>
<path d="M0 0 C0.99 0 1.98 0 3 0 C3.56131481 6.45512034 1.63463787 11.15439723 -1 17 C-0.23816406 16.855625 0.52367187 16.71125 1.30859375 16.5625 C7.65247896 15.42202626 13.55770944 14.78525698 20 15 C18.38862171 21.49155256 15.80918374 26.02572325 11.5234375 31.15234375 C9.94140754 32.93055684 9.94140754 32.93055684 9 35 C10.65 35 12.3 35 14 35 C13.30058404 38.14737182 12.23921302 41.02588876 11 44 C10.34 43.34 9.68 42.68 9 42 C7.68 42 6.36 42 5 42 C2.63856306 39.63856306 2.65197287 38.72578963 2.1875 35.5 C1.15853175 29.97733447 -0.49921267 24.47775123 -4 20 C-6.58176694 19.15745886 -6.58176694 19.15745886 -9 19 C-8.00832961 22.47084635 -7.03667689 24.95037833 -4.875 27.875 C-2.35635135 32.07274775 -2.45342455 34.15890318 -3 39 C-4.375 41.5 -4.375 41.5 -6 43 C-6.66 43 -7.32 43 -8 43 C-7.93039062 42.32195313 -7.86078125 41.64390625 -7.7890625 40.9453125 C-7.38069004 33.92519541 -8.57035031 29.98826508 -12.6875 24.2890625 C-14.20758724 21.63795796 -14.25497465 20.00657607 -14 17 C-13.31292969 16.72027344 -12.62585937 16.44054687 -11.91796875 16.15234375 C-5.770258 13.61001922 -5.770258 13.61001922 -1.9375 8.5 C-1.17906176 5.66849723 -0.43909093 2.89800014 0 0 Z " fill="#FCE9E8" transform="translate(1037,520)"/>
<path d="M0 0 C2.26805949 3.67030374 2.52673701 7.4303275 2.9375 11.625 C4.68873606 26.57400551 10.14997384 42.92251372 22.1875 52.8125 C22.94417969 53.33457031 23.70085937 53.85664062 24.48046875 54.39453125 C24.98191406 54.92433594 25.48335937 55.45414063 26 56 C25.8984375 58.6171875 25.8984375 58.6171875 25 61 C22.4375 62.3125 22.4375 62.3125 20 63 C20.185625 63.804375 20.37125 64.60875 20.5625 65.4375 C20.706875 66.283125 20.85125 67.12875 21 68 C19.30772599 69.69227401 17.25558578 69.29209734 14.9375 69.375 C8.97972817 69.34401029 5.60793403 67.58636375 1 64 C-1.73354949 61.71631035 -1.73354949 61.71631035 -4.375 62.25 C-6.9781216 62.92418596 -6.9781216 62.92418596 -9.23046875 64.01171875 C-12.53450171 65.19073192 -15.43773185 65.38390163 -18.9375 65.5625 C-23.36828853 65.79874444 -27.63469922 66.19358566 -32 67 C-31.875 65.125 -31.875 65.125 -31 63 C-25.3086888 60.5584103 -19.75844204 60.67549362 -13.65625 60.5390625 C-9.28837861 59.89508146 -7.4370429 58.66264743 -4 56 C-0.09120039 57.65372291 2.76211625 60.30176354 6 63 C9.57708434 65.42318616 12.75308105 65.16334304 17 65 C16.49210937 64.68289063 15.98421875 64.36578125 15.4609375 64.0390625 C7.51504231 58.65251932 3.03025546 51.33917511 1 42 C4.57051227 43.43280214 5.92647615 45.03743872 7.875 48.3125 C10.53548709 52.46741686 12.86890141 55.27523285 17 58 C19.75401951 58.42130907 19.75401951 58.42130907 22 58 C21.030625 57.319375 20.06125 56.63875 19.0625 55.9375 C13.64671801 51.33628685 10.45158956 44.97803384 7.05224609 38.8371582 C6.06919517 37.1208106 4.97338511 35.47043799 3.87109375 33.828125 C0.96582338 28.74228901 0.54881921 22.9003669 -0.25 17.1875 C-0.42273437 16.04345703 -0.59546875 14.89941406 -0.7734375 13.72070312 C-2 5.49007937 -2 5.49007937 -2 3 C-1.34 3 -0.68 3 0 3 C0 2.01 0 1.02 0 0 Z " fill="#FCEDE8" transform="translate(1091,502)"/>
<path d="M0 0 C4.93764728 2.80169874 7.4247244 5.93242985 9.6484375 11.12109375 C9.6484375 12.77109375 9.6484375 14.42109375 9.6484375 16.12109375 C-1.9015625 16.12109375 -13.4515625 16.12109375 -25.3515625 16.12109375 C-23.06943084 5.85150127 -23.06943084 5.85150127 -18.3515625 2.12109375 C-17.6503125 1.52296875 -16.9490625 0.92484375 -16.2265625 0.30859375 C-10.9961607 -1.8517896 -5.32892598 -1.99170821 0 0 Z " fill="#FDF7F8" transform="translate(328.3515625,516.87890625)"/>
<path d="M0 0 C0.66 0 1.32 0 2 0 C2.06058594 0.97582031 2.12117187 1.95164062 2.18359375 2.95703125 C2.26738281 4.22933594 2.35117187 5.50164063 2.4375 6.8125 C2.51871094 8.07707031 2.59992187 9.34164062 2.68359375 10.64453125 C2.87184547 13.99181893 2.87184547 13.99181893 4 17 C3.34 17 2.68 17 2 17 C2 17.66 2 18.32 2 19 C1.03432447 20.03318477 0.02652923 21.02725248 -1 22 C-2.74426293 24.00731883 -4.46534365 26.03288914 -6.18359375 28.0625 C-11.47635826 33.70811548 -16.99598747 35.13431624 -24.53515625 35.38476562 C-26.08716004 35.41974401 -27.63925165 35.45103228 -29.19140625 35.47851562 C-36.14209212 35.72043254 -42.31100453 37.23008396 -47.8125 41.6875 C-51 44 -51 44 -54 44 C-52.35591848 39.06775543 -48.27749461 36.73086645 -44 34 C-38.61668005 31.52634224 -33.37255848 30.88645569 -27.5 30.5625 C-19.66719758 30.07352647 -12.91979025 28.55691861 -7.5 22.5625 C-3.93343646 18.09392766 -2.76277102 13.39521576 -1.9375 7.8125 C-1.10017575 2.20035149 -1.10017575 2.20035149 0 0 Z " fill="#FCE7E9" transform="translate(953,525)"/>
<path d="M0 0 C0.99 0.33 1.98 0.66 3 1 C4.54308706 4.42908235 5.08958749 7.60862402 5.375 11.3125 C6.00224825 17.72557258 8.28074254 22.9187936 12.375 27.875 C17.68483903 32.17344112 21.89274757 33.32436504 28.6875 33.4375 C37.25404675 33.77350097 45.22922717 34.99638379 51.6875 41.125 C54 44 54 44 54 46 C50.97499929 44.93235269 48.61550776 43.74105624 45.9375 41.9375 C42.1433258 39.43495957 39.28660772 38.88982972 34.8046875 38.859375 C24.36145091 38.65167593 15.57856936 38.42779722 7.6875 30.75 C2.84991188 22.86652306 -0.16941608 17.22933891 -0.0625 7.8125 C-0.05798828 7.06291016 -0.05347656 6.31332031 -0.04882812 5.54101562 C-0.03706354 3.69397617 -0.01912865 1.84697787 0 0 Z " fill="#FCE9EB" transform="translate(1294,523)"/>
<path d="M0 0 C38.94 0 77.88 0 118 0 C117.67 0.99 117.34 1.98 117 3 C78.06 2.67 39.12 2.34 -1 2 C-0.67 1.34 -0.34 0.68 0 0 Z " fill="#535F68" transform="translate(909,226)"/>
<path d="M0 0 C1.32 0.33 2.64 0.66 4 1 C4.02578125 1.92941406 4.0515625 2.85882812 4.078125 3.81640625 C4.41016144 11.05329147 4.80695366 16.04857939 9 22 C9 22.66 9 23.32 9 24 C10.1446875 24.433125 10.1446875 24.433125 11.3125 24.875 C14 26 14 26 17 28 C16.88008149 32.67682207 15.40109012 34.90676135 12.4375 38.3125 C9.65107792 41.6562065 8.52113048 43.67733131 8.5625 48.0625 C8.706875 49.361875 8.85125 50.66125 9 52 C8.01 51.67 7.02 51.34 6 51 C4.36590943 47.73181887 4.30883121 44.51755545 5 41 C6.43134636 38.74725602 7.98871344 36.83098116 9.78515625 34.859375 C11.22027072 33.06596075 11.22027072 33.06596075 10.87109375 30.828125 C10.58363281 30.22484375 10.29617188 29.6215625 10 29 C9.01 28.67 8.02 28.34 7 28 C0.89788895 19.60959731 -0.20144305 10.07215268 0 0 Z " fill="#FBE4E5" transform="translate(1210,510)"/>
<path d="M0 0 C1.75539345 0.00333092 1.75539345 0.00333092 3.54624939 0.00672913 C4.51207191 0.00651009 4.51207191 0.00651009 5.49740601 0.00628662 C7.63473327 0.00698567 9.77197438 0.01477761 11.9092865 0.02259827 C13.3875931 0.02446248 14.86590032 0.02588637 16.34420776 0.02688599 C20.24211827 0.03071093 24.13999174 0.040541 28.03788757 0.05158997 C32.01259358 0.0618046 35.98730554 0.06638372 39.96202087 0.07142639 C47.76607425 0.0821633 55.57009707 0.09923942 63.37413025 0.12025452 C63.86913025 1.11025452 63.86913025 1.11025452 64.37413025 2.12025452 C42.59413025 2.12025452 20.81413025 2.12025452 -1.62586975 2.12025452 C-1.95586975 25.88025452 -2.28586975 49.64025452 -2.62586975 74.12025452 C-2.95586975 74.12025452 -3.28586975 74.12025452 -3.62586975 74.12025452 C-3.64899459 64.61951127 -3.66678556 55.11877764 -3.67768192 45.61801243 C-3.68291044 41.20688448 -3.69000752 36.79577572 -3.7013092 32.38465881 C-3.71213919 28.13124336 -3.71814682 23.87784643 -3.72074699 19.62441826 C-3.72260104 17.99803819 -3.72622127 16.37165918 -3.73159981 14.74528694 C-3.73881173 12.47515259 -3.73986063 10.20509567 -3.73939514 7.93495178 C-3.74161575 6.64033524 -3.74383636 5.34571869 -3.74612427 4.01187134 C-3.58611127 0.16422981 -3.58611127 0.16422981 0 0 Z " fill="#717982" transform="translate(179.62586975097656,694.8797454833984)"/>
<path d="M0 0 C0.66 0.33 1.32 0.66 2 1 C0.68 2.32 -0.64 3.64 -2 5 C1.465 6.485 1.465 6.485 5 8 C4.46884894 12.51478398 2.63379708 15.34666857 0 19 C0.66 19.33 1.32 19.66 2 20 C-7.59453303 18.25740319 -7.59453303 18.25740319 -11 15 C-11.12138665 12.08672029 -11.1210632 10.64215336 -10 8 C-6.91465397 4.97772748 -3.53613408 2.47080149 0 0 Z " fill="#FBDFE2" transform="translate(1239,548)"/>
<path d="M0 0 C0.99 0 1.98 0 3 0 C3.309375 1.0828125 3.309375 1.0828125 3.625 2.1875 C5.39231274 5.80245787 7.90172206 7.48264917 11 10 C12.70023011 12.1437684 13.03860842 13.30904239 12.88671875 16.02734375 C12.65134777 18.02624059 12.33088694 20.01467838 12 22 C11.01 22.33 10.02 22.66 9 23 C8.87625 21.1746875 8.87625 21.1746875 8.75 19.3125 C8.20793447 15.19573207 7.32448831 12.71208257 4 10 C0.29945591 10.0636079 0.29945591 10.0636079 -3 11 C-2.44894091 7.0507432 -1.61064629 3.65079826 0 0 Z " fill="#FCE7E9" transform="translate(1074,512)"/>
<path d="M0 0 C0.99 0 1.98 0 3 0 C3.83848804 1.45537568 4.67063934 2.91440373 5.5 4.375 C6.19609375 5.59316406 6.19609375 5.59316406 6.90625 6.8359375 C8 9 8 9 8 11 C7.2575 10.690625 6.515 10.38125 5.75 10.0625 C3.4876042 9.18839253 1.35025921 8.55743327 -1 8 C-2.15762119 9.21807138 -3.3006583 10.45001235 -4.4375 11.6875 C-5.07558594 12.37199219 -5.71367188 13.05648437 -6.37109375 13.76171875 C-8.16221098 16.22289422 -8.62798558 18.00816574 -9 21 C-9.99 20.67 -10.98 20.34 -12 20 C-12.61593729 14.9493142 -11.43005937 12.46128396 -8.4375 8.6015625 C-6.50216386 6.4453456 -4.30561547 4.74479009 -2 3 C-1.34 2.01 -0.68 1.02 0 0 Z " fill="#FCE7E8" transform="translate(1176,515)"/>
<path d="M0 0 C2.49361571 1.20381448 4.68143083 2.45428722 7 4 C8.93123211 4.19968426 10.8719689 4.31278815 12.8125 4.375 C20.3079692 4.82236472 26.88609507 6.7069122 34 9 C33.67 9.66 33.34 10.32 33 11 C29.4487728 11.14204909 26.57597713 11.20163216 23.19921875 10.01953125 C18.60636074 8.5558732 14.13022602 8.60264604 9.33984375 8.44140625 C5.7947077 7.9728678 3.81992646 7.16958425 1 5 C1 4.34 1 3.68 1 3 C-0.65 3.66 -2.3 4.32 -4 5 C-2.68 3.35 -1.36 1.7 0 0 Z " fill="#FDF6F0" transform="translate(1162,558)"/>
<path d="M0 0 C0.99386719 0.00902344 1.98773437 0.01804687 3.01171875 0.02734375 C4.15060547 0.04474609 4.15060547 0.04474609 5.3125 0.0625 C3.99271929 5.47360091 1.37964573 9.32691506 -2.6875 13.0625 C-3.3475 13.0625 -4.0075 13.0625 -4.6875 13.0625 C-5.16948463 11.81358386 -5.64795677 10.56331192 -6.125 9.3125 C-6.39183594 8.61640625 -6.65867187 7.9203125 -6.93359375 7.203125 C-7.64896693 5.17190997 -8.20115652 3.1589709 -8.6875 1.0625 C-5.53819107 0.01273036 -3.29935544 -0.03881595 0 0 Z " fill="#FDCD3B" transform="translate(1046.6875,538.9375)"/>
<path d="M0 0 C3.63 0 7.26 0 11 0 C13 5 13 5 13 9 C10.69 9.33 8.38 9.66 6 10 C5.67 9.01 5.34 8.02 5 7 C4.34 6.71125 3.68 6.4225 3 6.125 C2.34 5.75375 1.68 5.3825 1 5 C0.67 3.35 0.34 1.7 0 0 Z " fill="#E82B3B" transform="translate(1001,554)"/>
<path d="M0 0 C3.39576062 -0.05830787 6.7913915 -0.09369946 10.1875 -0.125 C11.14720703 -0.14175781 12.10691406 -0.15851562 13.09570312 -0.17578125 C14.02705078 -0.18222656 14.95839844 -0.18867187 15.91796875 -0.1953125 C16.77156982 -0.20578613 17.6251709 -0.21625977 18.50463867 -0.22705078 C21.30726815 0.02795806 23.44729419 0.84458578 26 2 C24 4.625 24 4.625 21 7 C17.25 6.375 17.25 6.375 15.203125 5.6875 C11.55474835 4.54899948 7.79323424 4.33366412 4 4 C4 3.34 4 2.68 4 2 C2.68 1.34 1.36 0.68 0 0 Z " fill="#E31C30" transform="translate(1312,561)"/>
<path d="M0 0 C0 3.10551666 -0.5393715 4.35261084 -2 7 C-0.35 7 1.3 7 3 7 C2.30058404 10.14737182 1.23921302 13.02588876 0 16 C-0.66 15.34 -1.32 14.68 -2 14 C-3.32 14 -4.64 14 -6 14 C-8 12 -8 12 -8.265625 10.125 C-8.26046875 9.42375 -8.2553125 8.7225 -8.25 8 C-8.25515625 7.29875 -8.2603125 6.5975 -8.265625 5.875 C-8 4 -8 4 -6 2 C-6 2.66 -6 3.32 -6 4 C-2.81765895 2.24545615 -2.81765895 2.24545615 0 0 Z " fill="#FDEEE4" transform="translate(1048,548)"/>
<path d="M0 0 C2.625 0.375 2.625 0.375 5 1 C4.343621 5.48525648 3.29925791 9.66914029 2 14 C-0.31 14 -2.62 14 -5 14 C-3.8 3.8 -3.8 3.8 0 0 Z " fill="#E52839" transform="translate(870,568)"/>
<path d="M0 0 C1.98046875 0.80078125 1.98046875 0.80078125 2.9921875 2.5078125 C3.21519531 3.20261719 3.43820312 3.89742187 3.66796875 4.61328125 C4.01408203 5.64388672 4.01408203 5.64388672 4.3671875 6.6953125 C4.56957031 7.39011719 4.77195312 8.08492187 4.98046875 8.80078125 C5.19316406 9.52652344 5.40585938 10.25226562 5.625 11 C5.74230469 11.59425781 5.85960937 12.18851563 5.98046875 12.80078125 C4.98046875 13.80078125 4.98046875 13.80078125 1.91796875 13.86328125 C0.94859375 13.84265625 -0.02078125 13.82203125 -1.01953125 13.80078125 C-1.52710987 12.38681223 -2.0252805 10.96946396 -2.51953125 9.55078125 C-2.9371875 8.36742187 -2.9371875 8.36742187 -3.36328125 7.16015625 C-4.01953125 4.80078125 -4.01953125 4.80078125 -4.01953125 0.80078125 C-2.01953125 -0.19921875 -2.01953125 -0.19921875 0 0 Z " fill="#E52539" transform="translate(1376.01953125,568.19921875)"/>
<path d="M0 0 C8.57142857 -0.14285714 8.57142857 -0.14285714 12 1 C11.43454163 4.95820859 10.19097652 7.6659053 8 11 C4.50892621 9.83630874 4.14777237 9.11026462 2.3125 6.0625 C1.87550781 5.35222656 1.43851563 4.64195312 0.98828125 3.91015625 C0 2 0 2 0 0 Z " fill="#FEC62E" transform="translate(1199,539)"/>
<path d="M0 0 C0.71484375 1.73828125 0.71484375 1.73828125 1 4 C-0.43359375 6.04296875 -0.43359375 6.04296875 -2.4375 8.1875 C-5.27240095 11.57363169 -6.49370809 13.6080089 -6.4375 18.0625 C-6.293125 19.361875 -6.14875 20.66125 -6 22 C-6.99 21.67 -7.98 21.34 -9 21 C-10.68316426 17.63367147 -10.84658436 14.59354339 -10 11 C-7.42334368 6.92078327 -4.40424248 2.20212124 0 0 Z " fill="#FDECED" transform="translate(1225,540)"/>
<path d="M0 0 C1.37478516 0.01740234 1.37478516 0.01740234 2.77734375 0.03515625 C3.69644531 0.04417969 4.61554688 0.05320312 5.5625 0.0625 C6.27277344 0.07410156 6.98304687 0.08570313 7.71484375 0.09765625 C7.36265032 2.70388767 6.95010906 4.7055474 5.58984375 6.97265625 C2.58773588 8.77392097 0.01305167 7.78218997 -3.28515625 7.09765625 C-3.32769981 5.09810879 -3.32596408 3.09723989 -3.28515625 1.09765625 C-2.28515625 0.09765625 -2.28515625 0.09765625 0 0 Z " fill="#EA2236" transform="translate(1236.28515625,555.90234375)"/>
<path d="M0 0 C-0.50298788 4.40114397 -2.08772731 6.71195019 -5 10 C-7.16874252 9.49396008 -8.99967627 9.00016187 -11 8 C-10.06320934 1.44246541 -6.2811206 -0.57101096 0 0 Z " fill="#E62939" transform="translate(886,558)"/>
<path d="M0 0 C4.87484254 1.70107591 7.47010179 3.98480215 10.75 7.9375 C10.75 8.5975 10.75 9.2575 10.75 9.9375 C7.72499929 8.86985269 5.36550776 7.67855624 2.6875 5.875 C-1.17973799 3.32426856 -4.23088636 2.83705267 -8.796875 2.62109375 C-9.64121094 2.57919922 -10.48554687 2.53730469 -11.35546875 2.49414062 C-12.22816406 2.45482422 -13.10085938 2.41550781 -14 2.375 C-14.88816406 2.33181641 -15.77632812 2.28863281 -16.69140625 2.24414062 C-18.87745963 2.13836385 -21.06362089 2.03627454 -23.25 1.9375 C-23.25 1.6075 -23.25 1.2775 -23.25 0.9375 C-21.44402344 0.84662109 -21.44402344 0.84662109 -19.6015625 0.75390625 C-18.02602923 0.66950268 -16.45050904 0.58485459 -14.875 0.5 C-14.0809375 0.46068359 -13.286875 0.42136719 -12.46875 0.38085938 C-0.83530121 -0.25996619 -0.83530121 -0.25996619 0 0 Z " fill="#FADADD" transform="translate(1337.25,559.0625)"/>
<path d="M0 0 C-0.125 1.6875 -0.125 1.6875 -1 4 C-2.44400909 5.18146198 -3.8918599 6.35904411 -5.37109375 7.49609375 C-7.84629057 9.78134741 -9.35964375 12.51963517 -11.01953125 15.42578125 C-11.50486328 16.20501953 -11.50486328 16.20501953 -12 17 C-12.33 17 -12.66 17 -13 17 C-12.46490645 10.31133058 -10.2509099 6.6729555 -6 1.625 C-4 0 -4 0 0 0 Z " fill="#FCE9EA" transform="translate(1219,474)"/>
<path d="M0 0 C3.6413205 -0.33102914 5.41472925 -0.42019439 8.4375 1.75 C10 4 10 4 9.8125 6.1875 C9 8 9 8 8 9 C6.33382885 9.04063832 4.66611905 9.042721 3 9 C0 3.375 0 3.375 0 0 Z " fill="#E72437" transform="translate(1362,559)"/>
<path d="M0 0 C2 2 2 2 2.4375 4.4375 C2 7 2 7 -0.1875 8.6875 C-1.115625 9.120625 -2.04375 9.55375 -3 10 C-4.2684375 10.61875 -4.2684375 10.61875 -5.5625 11.25 C-8.21219605 12.06529109 -9.43693665 11.94928272 -12 11 C-11.34 11 -10.68 11 -10 11 C-10 10.01 -10 9.02 -10 8 C-8.02 7.67 -6.04 7.34 -4 7 C-3.896875 6.401875 -3.79375 5.80375 -3.6875 5.1875 C-2.91123545 2.71756736 -1.92911079 1.67748765 0 0 Z " fill="#FCE7E8" transform="translate(1018,556)"/>
<path d="M0 0 C3 1 3 1 4.6875 4.0625 C6.30863157 8.13221572 6.22844155 11.65961049 6 16 C5.01 16.33 4.02 16.66 3 17 C1.82877141 11.34853777 0.74660712 5.72398793 0 0 Z " fill="#FBDCDE" transform="translate(1037,482)"/>
<path d="M0 0 C1.1446875 0.3403125 1.1446875 0.3403125 2.3125 0.6875 C1.9825 2.6675 1.6525 4.6475 1.3125 6.6875 C-1.3275 6.6875 -3.9675 6.6875 -6.6875 6.6875 C-6.28750283 4.36751641 -5.78182121 2.82426576 -4.4375 0.875 C-2.6875 -0.3125 -2.6875 -0.3125 0 0 Z " fill="#FCEBEE" transform="translate(1074.6875,549.3125)"/>
<path d="M0 0 C2.35964273 0.40683495 3.85934088 0.89814339 5.8125 2.3125 C7 4 7 4 6.6875 6.1875 C6.460625 6.785625 6.23375 7.38375 6 8 C1.25 7.25 1.25 7.25 -1 5 C-0.625 2.375 -0.625 2.375 0 0 Z " fill="#FBDFE3" transform="translate(1175,549)"/>
<path d="M0 0 C0.99 0.33 1.98 0.66 3 1 C-1.34529148 9.43497758 -1.34529148 9.43497758 -5.40234375 10.8203125 C-7.63638174 11.03912823 -9.7600423 11.12444209 -12 11 C-11.07380859 10.58621094 -11.07380859 10.58621094 -10.12890625 10.1640625 C-7.76166562 9.05105285 -7.76166562 9.05105285 -5.9375 6.375 C-5.298125 5.59125 -4.65875 4.8075 -4 4 C-3.01 4 -2.02 4 -1 4 C-0.67 2.68 -0.34 1.36 0 0 Z " fill="#FCE6B2" transform="translate(1203,559)"/>
<path d="M0 0 C6.27 0 12.54 0 19 0 C19 0.33 19 0.66 19 1 C16.36 1 13.72 1 11 1 C11 1.66 11 2.32 11 3 C11.99 3.33 12.98 3.66 14 4 C10.7 4 7.4 4 4 4 C4 3.34 4 2.68 4 2 C2.68 1.34 1.36 0.68 0 0 Z " fill="#E5101F" transform="translate(1312,561)"/>
<path d="M0 0 C1.65 0 3.3 0 5 0 C6.23076923 6.4 6.23076923 6.4 5.0625 9.4375 C4.711875 9.953125 4.36125 10.46875 4 11 C3.34 11 2.68 11 2 11 C1.77213542 9.01432292 1.54427083 7.02864583 1.31640625 5.04296875 C1.02829265 2.80603607 1.02829265 2.80603607 0 0 Z " fill="#FBDFE0" transform="translate(1081,524)"/>
<path d="M0 0 C1.32 0 2.64 0 4 0 C3.30058404 3.14737182 2.23921302 6.02588876 1 9 C0.34 8.34 -0.32 7.68 -1 7 C-1.99 7.33 -2.98 7.66 -4 8 C-4 6.35 -4 4.7 -4 3 C-3.01 3 -2.02 3 -1 3 C-0.67 2.01 -0.34 1.02 0 0 Z " fill="#FBD0B6" transform="translate(1047,555)"/>
<path d="M0 0 C1.96170702 1.59842795 2.7543626 3.0421565 3.6875 5.375 C2.3675 6.365 1.0475 7.355 -0.3125 8.375 C-0.9725 6.725 -1.6325 5.075 -2.3125 3.375 C-4.6225 3.045 -6.9325 2.715 -9.3125 2.375 C-9.3125 2.045 -9.3125 1.715 -9.3125 1.375 C-2.99884064 -0.81049747 -2.99884064 -0.81049747 0 0 Z " fill="#FDF3F4" transform="translate(1014.3125,551.625)"/>
<path d="M0 0 C-0.66 1.32 -1.32 2.64 -2 4 C-8.93 3.505 -8.93 3.505 -16 3 C-15.67 2.34 -15.34 1.68 -15 1 C-10.19396481 -0.55033393 -4.99180941 -0.0872355 0 0 Z " fill="#FDF6F2" transform="translate(1054,536)"/>
<path d="M0 0 C1.66611905 -0.042721 3.33382885 -0.04063832 5 0 C6 1 6 1 6.0625 3.5625 C6.041875 4.366875 6.02125 5.17125 6 6 C4.33388095 6.042721 2.66617115 6.04063832 1 6 C0 5 0 5 -0.0625 2.4375 C-0.041875 1.633125 -0.02125 0.82875 0 0 Z " fill="#EB2035" transform="translate(1028,539)"/>
<path d="M0 0 C0 3 0 3 -1.96875 5.26171875 C-2.8040625 6.06222656 -3.639375 6.86273438 -4.5 7.6875 C-5.3353125 8.49574219 -6.170625 9.30398437 -7.03125 10.13671875 C-8.00578125 11.05904297 -8.00578125 11.05904297 -9 12 C-9.99 11.67 -10.98 11.34 -12 11 C-10.75323147 9.72599623 -9.5024352 8.45593346 -8.25 7.1875 C-7.55390625 6.47980469 -6.8578125 5.77210938 -6.140625 5.04296875 C-4.18571355 3.17724121 -2.19661447 1.56830358 0 0 Z " fill="#3C4854" transform="translate(1227,241)"/>
<path d="M0 0 C0.99 0.33 1.98 0.66 3 1 C2.67 1.66 2.34 2.32 2 3 C2.99 3.33 3.98 3.66 5 4 C4.34 4 3.68 4 3 4 C3 4.66 3 5.32 3 6 C3.99 6.33 4.98 6.66 6 7 C2.28400809 7.20086443 1.22791555 7.1519437 -2 5 C-2 3.68 -2 2.36 -2 1 C-1.34 0.67 -0.68 0.34 0 0 Z " fill="#FDF0DA" transform="translate(1137,565)"/>
<path d="M0 0 C3.96 0 7.92 0 12 0 C12 0.66 12 1.32 12 2 C6.06 2.495 6.06 2.495 0 3 C0 2.01 0 1.02 0 0 Z " fill="#FEFEFE" transform="translate(916,557)"/>
<path d="M0 0 C2.375 0.3125 2.375 0.3125 5 1 C7 4 7 4 7 7 C5.35 6.67 3.7 6.34 2 6 C1.34 4.02 0.68 2.04 0 0 Z " fill="#FDF5F4" transform="translate(1001,560)"/>
<path d="M0 0 C4.95 0 9.9 0 15 0 C14.01 1.485 14.01 1.485 13 3 C11.58249437 2.88490339 10.16598831 2.75746342 8.75 2.625 C7.96109375 2.55539062 7.1721875 2.48578125 6.359375 2.4140625 C4 2 4 2 0 0 Z " fill="#FEF9F7" transform="translate(1199,537)"/>
<path d="M0 0 C0.33 0 0.66 0 1 0 C1.36666667 7.33333333 1.36666667 7.33333333 -0.375 10.5 C-2 12 -2 12 -4 12 C-3.67 9.36 -3.34 6.72 -3 4 C-2.34 4.33 -1.68 4.66 -1 5 C-0.67 3.35 -0.34 1.7 0 0 Z " fill="#FACDD0" transform="translate(1033,551)"/>
<path d="M0 0 C2 1.8125 2 1.8125 4 4 C4 4.99 4 5.98 4 7 C2.02 7 0.04 7 -2 7 C-1.34 4.69 -0.68 2.38 0 0 Z " fill="#DF1C27" transform="translate(1200,549)"/>
<path d="M0 0 C0.66 0.33 1.32 0.66 2 1 C1.67 1.99 1.34 2.98 1 4 C1.66 4.33 2.32 4.66 3 5 C-0.22791555 7.1519437 -1.28400809 7.20086443 -5 7 C-3.70700306 4.11562221 -2.34058637 2.12780579 0 0 Z " fill="#E52C38" transform="translate(1139,555)"/>
<path d="M0 0 C2.97 0 5.94 0 9 0 C8.34 2.31 7.68 4.62 7 7 C6.01 7 5.02 7 4 7 C4.33 5.68 4.66 4.36 5 3 C2.525 2.01 2.525 2.01 0 1 C0 0.67 0 0.34 0 0 Z " fill="#FCDBDD" transform="translate(1048,535)"/>
<path d="M0 0 C0 4.29 0 8.58 0 13 C-0.33 13 -0.66 13 -1 13 C-1.33 10.03 -1.66 7.06 -2 4 C-4.475 3.01 -4.475 3.01 -7 2 C-4.35261084 0.5393715 -3.10551666 0 0 0 Z " fill="#F6C4C9" transform="translate(915,518)"/>
<path d="M0 0 C0.99 0.33 1.98 0.66 3 1 C2.67 2.65 2.34 4.3 2 6 C-0.64 6 -3.28 6 -6 6 C-5.34 5.34 -4.68 4.68 -4 4 C-2.68 4 -1.36 4 0 4 C0 2.68 0 1.36 0 0 Z " fill="#FDFCF6" transform="translate(1109,565)"/>
<path d="M0 0 C2.64 0 5.28 0 8 0 C7.67 0.66 7.34 1.32 7 2 C6.34 2 5.68 2 5 2 C4.67 3.32 4.34 4.64 4 6 C3.34 6 2.68 6 2 6 C1.34 4.02 0.68 2.04 0 0 Z " fill="#FCF7F6" transform="translate(1198,557)"/>
<path d="M0 0 C0.33 0.99 0.66 1.98 1 3 C1.66 3 2.32 3 3 3 C2.67 5.97 2.34 8.94 2 12 C-1 9 -1 9 -1.07421875 6.73828125 C-0.94660156 5.93777344 -0.81898437 5.13726563 -0.6875 4.3125 C-0.56761719 3.50425781 -0.44773437 2.69601562 -0.32421875 1.86328125 C-0.21722656 1.24839844 -0.11023437 0.63351562 0 0 Z " fill="#FBDEC5" transform="translate(1151,520)"/>
<path d="M0 0 C0.598125 0.350625 1.19625 0.70125 1.8125 1.0625 C0.8225 2.5475 0.8225 2.5475 -0.1875 4.0625 C-1.8375 3.7325 -3.4875 3.4025 -5.1875 3.0625 C-5.1875 2.0725 -5.1875 1.0825 -5.1875 0.0625 C-2.1875 -0.9375 -2.1875 -0.9375 0 0 Z " fill="#FBE4E6" transform="translate(883.1875,567.9375)"/>
<path d="M0 0 C0.99 0.33 1.98 0.66 3 1 C3.33 1.99 3.66 2.98 4 4 C2.1875 5.0625 2.1875 5.0625 0 6 C-0.99 5.67 -1.98 5.34 -3 5 C-2.01 3.35 -1.02 1.7 0 0 Z " fill="#E62A36" transform="translate(1213,546)"/>
<path d="M0 0 C1.4606285 2.64738916 2 3.89448334 2 7 C1.34 7 0.68 7 0 7 C0 8.98 0 10.96 0 13 C-0.33 13 -0.66 13 -1 13 C-1.33 9.7 -1.66 6.4 -2 3 C-1.34 3 -0.68 3 0 3 C0 2.01 0 1.02 0 0 Z " fill="#FCE0D8" transform="translate(1091,502)"/>
<path d="M0 0 C1.32 0.33 2.64 0.66 4 1 C3.67 2.98 3.34 4.96 3 7 C2.01 7 1.02 7 0 7 C0 4.69 0 2.38 0 0 Z " fill="#FBE9DF" transform="translate(1152,516)"/>
<path d="M0 0 C0.33 0 0.66 0 1 0 C1.66 2.64 2.32 5.28 3 8 C2.01 8.66 1.02 9.32 0 10 C-0.66 8.35 -1.32 6.7 -2 5 C-1.34 5 -0.68 5 0 5 C0 3.35 0 1.7 0 0 Z " fill="#FBE4D0" transform="translate(1095,525)"/>
<path d="M0 0 C0.66 0.33 1.32 0.66 2 1 C-0.31 3.31 -2.62 5.62 -5 8 C-5.99 7.67 -6.98 7.34 -8 7 C-5.36 4.69 -2.72 2.38 0 0 Z " fill="#FDC825" transform="translate(1068,432)"/>
<path d="M0 0 C0.99 0.33 1.98 0.66 3 1 C0.69 3.31 -1.62 5.62 -4 8 C-4.66 7.67 -5.32 7.34 -6 7 C-4.02 4.69 -2.04 2.38 0 0 Z " fill="#3D4855" transform="translate(195,248)"/>
<path d="M0 0 C1.65 0 3.3 0 5 0 C4.1875 1.9375 4.1875 1.9375 3 4 C2.01 4.33 1.02 4.66 0 5 C0 3.35 0 1.7 0 0 Z " fill="#FEC91E" transform="translate(1044,544)"/>
<path d="M0 0 C1.65 1.65 3.3 3.3 5 5 C4.34 5.66 3.68 6.32 3 7 C2.01 6.34 1.02 5.68 0 5 C-0.1875 2.375 -0.1875 2.375 0 0 Z " fill="#FDCA2C" transform="translate(1191,442)"/>
<path d="M0 0 C2.64 0 5.28 0 8 0 C7.01 0.680625 7.01 0.680625 6 1.375 C5.01 2.179375 5.01 2.179375 4 3 C4 3.66 4 4.32 4 5 C3.34 5 2.68 5 2 5 C1.34 3.35 0.68 1.7 0 0 Z " fill="#FDCB3E" transform="translate(1199,539)"/>
<path d="M0 0 C2.0625 1.75 2.0625 1.75 4 4 C3.75 6.25 3.75 6.25 3 8 C2.34 8 1.68 8 1 8 C0.67 5.36 0.34 2.72 0 0 Z " fill="#FDCE33" transform="translate(1199,451)"/>
<path d="M0 0 C0.66 0 1.32 0 2 0 C2.33 1.32 2.66 2.64 3 4 C2.01 4.66 1.02 5.32 0 6 C0 5.34 0 4.68 0 4 C-0.66 4 -1.32 4 -2 4 C-2 3.34 -2 2.68 -2 2 C-1.34 2 -0.68 2 0 2 C0 1.34 0 0.68 0 0 Z " fill="#E81527" transform="translate(1216,543)"/>
<path d="M0 0 C0.33 1.32 0.66 2.64 1 4 C-1.97 6.475 -1.97 6.475 -5 9 C-4.42906864 5.6885981 -3.45395174 4.24945577 -1 2 C-0.67 1.34 -0.34 0.68 0 0 Z " fill="#E72639" transform="translate(577,493)"/>
<path d="M0 0 C0.66 0 1.32 0 2 0 C3.4783226 2.95664519 3.06032783 5.74229737 3 9 C2.67 9 2.34 9 2 9 C2 7.02 2 5.04 2 3 C1.01 3.33 0.02 3.66 -1 4 C-1 1 -1 1 0 0 Z " fill="#E93143" transform="translate(1366,452)"/>
</svg>
