<?xml version="1.0" encoding="UTF-8" standalone="no"?>
<svg
   xmlns:dc="http://purl.org/dc/elements/1.1/"
   xmlns:cc="http://creativecommons.org/ns#"
   xmlns:rdf="http://www.w3.org/1999/02/22-rdf-syntax-ns#"
   xmlns:svg="http://www.w3.org/2000/svg"
   xmlns="http://www.w3.org/2000/svg"
   xmlns:sodipodi="http://sodipodi.sourceforge.net/DTD/sodipodi-0.dtd"
   xmlns:inkscape="http://www.inkscape.org/namespaces/inkscape"
   width="900"
   height="600"
   viewBox="0 0 30 20"
   version="1.1"
   id="svg17"
   sodipodi:docname="Flag_of_the_People's_Republic_of_China (WFB 2000).svg"
   inkscape:version="0.92.3 (2405546, 2018-03-11)">
  <metadata
     id="metadata21">
    <rdf:RDF>
      <cc:Work
         rdf:about="">
        <dc:format>image/svg+xml</dc:format>
        <dc:type
           rdf:resource="http://purl.org/dc/dcmitype/StillImage" />
      </cc:Work>
    </rdf:RDF>
  </metadata>
  <sodipodi:namedview
     pagecolor="#ffffff"
     bordercolor="#666666"
     borderopacity="1"
     objecttolerance="10"
     gridtolerance="10"
     guidetolerance="10"
     inkscape:pageopacity="0"
     inkscape:pageshadow="2"
     inkscape:window-width="1920"
     inkscape:window-height="1017"
     id="namedview19"
     showgrid="false"
     inkscape:zoom="0.44626295"
     inkscape:cx="262.96545"
     inkscape:cy="442.60563"
     inkscape:window-x="-8"
     inkscape:window-y="-8"
     inkscape:window-maximized="1"
     inkscape:current-layer="svg17" />
  <defs
     id="defs3">
    <path
       id="s"
       d="M0,-1 0.587785,0.809017 -0.951057,-0.309017H0.951057L-0.587785,0.809017z"
       fill="#ffde00" />
  </defs>
  <rect
     width="30"
     height="20"
     fill="#de2910"
     id="rect5"
     style="fill:#ef2800;fill-opacity:1" />
  <g
     transform="matrix(0.00199993,0,0,0.00199838,-9.6791099e-5,0.00628569)"
     style="fill:#e0ff01;fill-opacity:1"
     id="g3126">
    <g
       style="fill:#e0ff01;fill-opacity:1"
       id="g3118">
      <g
         style="fill:#e0ff01;fill-opacity:1"
         id="g3111">
        <path
           style="fill:#e0ff01;fill-opacity:1"
           inkscape:connector-curvature="0"
           d="m 4623.2,671.7 187,311.5 -238.6,274.1 354.1,-81.5 186.9,311.5 32,-361.9 354,-81.5 -334.3,-142.1 31.8,-362 -238.5,274.1 z"
           id="path3374_1_" />
        <path
           style="fill:#e0ff01;fill-opacity:1"
           inkscape:connector-curvature="0"
           d="M 2500.2,1000 2163.7,2036.5 H 1073.5 l 881.8,640.7 -336.7,1036.3 881.9,-640.4 881.6,640.3 -336.8,-1036.1 881.6,-641 -1090,0.3 z"
           id="path3433_1_" />
        <path
           style="fill:#e0ff01;fill-opacity:1"
           inkscape:connector-curvature="0"
           d="m 5780.4,1551.2 51.5,359.5 -326.2,160 357.9,62.3 51.4,359.5 169.9,-321.1 357.8,62.2 -253,-260.6 169.7,-321.2 -326.1,160.1 z"
           id="path3447_1_" />
        <path
           style="fill:#e0ff01;fill-opacity:1"
           inkscape:connector-curvature="0"
           d="m 5176.9,4032.2 -226.9,283.7 -340,-128.2 199.6,303.5 -226.9,283.6 350.3,-96 199.6,303.3 16.8,-362.7 350.3,-96.2 -339.7,-128.1 z"
           id="path3453_1_" />
        <path
           style="fill:#e0ff01;fill-opacity:1"
           inkscape:connector-curvature="0"
           d="m 5982.6,3000.3 -99.7,349.3 -363.2,13 301.4,202.9 -99.8,349.2 286.1,-223.9 301.3,202.7 -124.6,-341.1 286,-224.1 -363.1,13.1 z"
           id="path3475_1_" />
      </g>
    </g>
  </g>
</svg>
